<?xml version="1.0" encoding="UTF-8" standalone="no"?>
<!-- Created with Inkscape (http://www.inkscape.org/) -->

<svg
   xmlns:dc="http://purl.org/dc/elements/1.1/"
   xmlns:cc="http://creativecommons.org/ns#"
   xmlns:rdf="http://www.w3.org/1999/02/22-rdf-syntax-ns#"
   xmlns:svg="http://www.w3.org/2000/svg"
   xmlns="http://www.w3.org/2000/svg"
   xmlns:sodipodi="http://sodipodi.sourceforge.net/DTD/sodipodi-0.dtd"
   xmlns:inkscape="http://www.inkscape.org/namespaces/inkscape"
   width="7.764554"
   height="27.87727"
   id="svg4904"
   version="1.1"
   inkscape:version="0.48.4 r9939"
   sodipodi:docname="amoeba-vertical.svg">
  <defs
     id="defs4906">
    <path
       sodipodi:type="arc"
       style="fill:#cfb81d;fill-opacity:0.77777782;stroke:none"
       id="path9910"
       sodipodi:cx="504.23831"
       sodipodi:cy="360.93094"
       sodipodi:rx="5.699008"
       sodipodi:ry="5.699008"
       d="m 509.93732,360.93094 a 5.699008,5.699008 0 1 1 -11.39802,0 5.699008,5.699008 0 1 1 11.39802,0 z"
       transform="matrix(151.98125,0,0,151.98125,-17258.402,-10543.794)" />
    <path
       sodipodi:type="arc"
       style="fill:#cfb81d;fill-opacity:0.77777782;stroke:none"
       id="path9910-1"
       sodipodi:cx="504.23831"
       sodipodi:cy="360.93094"
       sodipodi:rx="5.699008"
       sodipodi:ry="5.699008"
       d="m 509.93732,360.93094 a 5.699008,5.699008 0 1 1 -11.39802,0 5.699008,5.699008 0 1 1 11.39802,0 z"
       transform="matrix(151.98125,0,0,151.98125,-17258.402,-10543.794)" />
    <path
       sodipodi:type="arc"
       style="fill:#cfb81d;fill-opacity:0.77777782;stroke:none"
       id="path9910-1-2"
       sodipodi:cx="504.23831"
       sodipodi:cy="360.93094"
       sodipodi:rx="5.699008"
       sodipodi:ry="5.699008"
       d="m 509.93732,360.93094 a 5.699008,5.699008 0 1 1 -11.39802,0 5.699008,5.699008 0 1 1 11.39802,0 z"
       transform="matrix(151.98125,0,0,151.98125,-17258.402,-10543.794)" />
    <path
       sodipodi:type="arc"
       style="fill:#cfb81d;fill-opacity:0.77777782;stroke:none"
       id="path9910-1-2-2"
       sodipodi:cx="504.23831"
       sodipodi:cy="360.93094"
       sodipodi:rx="5.699008"
       sodipodi:ry="5.699008"
       d="m 509.93732,360.93094 a 5.699008,5.699008 0 1 1 -11.39802,0 5.699008,5.699008 0 1 1 11.39802,0 z"
       transform="matrix(151.98125,0,0,151.98125,-17258.402,-10543.794)" />
  </defs>
  <sodipodi:namedview
     id="base"
     pagecolor="#ffffff"
     bordercolor="#666666"
     borderopacity="1.0"
     inkscape:pageopacity="0.0"
     inkscape:pageshadow="2"
     inkscape:zoom="15.839192"
     inkscape:cx="7.479455"
     inkscape:cy="15.00649"
     inkscape:document-units="px"
     inkscape:current-layer="layer37"
     showgrid="false"
     inkscape:window-width="1364"
     inkscape:window-height="747"
     inkscape:window-x="0"
     inkscape:window-y="19"
     inkscape:window-maximized="0"
     fit-margin-top="0"
     fit-margin-left="0"
     fit-margin-right="0"
     fit-margin-bottom="0"
     units="mm"
     inkscape:object-nodes="true"
     showborder="false"
     inkscape:snap-global="true">
    <inkscape:grid
       type="xygrid"
       id="grid4912"
       empspacing="4"
       visible="true"
       enabled="true"
       snapvisiblegridlinesonly="true"
       originx="-25.383939mm"
       originy="-251.25195mm"
       units="mm"
       spacingx="0.01mm"
       spacingy="0.01mm" />
  </sodipodi:namedview>
  <metadata
     id="metadata4909">
    <rdf:RDF>
      <cc:Work
         rdf:about="">
        <dc:format>image/svg+xml</dc:format>
        <dc:type
           rdf:resource="http://purl.org/dc/dcmitype/StillImage" />
        <dc:title />
      </cc:Work>
    </rdf:RDF>
  </metadata>
  <g
     inkscape:groupmode="layer"
     id="layer28"
     inkscape:label="Pretty"
     transform="translate(0.34391929,16.017668)"
     style="display:none">
    <g
       inkscape:groupmode="layer"
       id="layer36"
       inkscape:label="Fab" />
    <g
       inkscape:groupmode="layer"
       id="layer35"
       inkscape:label="CrtYd" />
  </g>
  <g
     inkscape:groupmode="layer"
     id="layer27"
     inkscape:label="Legacy"
     transform="translate(0.34391929,16.017668)"
     style="display:none">
    <g
       inkscape:groupmode="layer"
       id="layer34"
       inkscape:label="Edge.Cuts" />
    <g
       inkscape:groupmode="layer"
       id="layer29"
       inkscape:label="User">
      <g
         inkscape:groupmode="layer"
         id="layer30"
         inkscape:label="Eco2.User" />
      <g
         inkscape:groupmode="layer"
         id="layer31"
         inkscape:label="Eco1.User" />
      <g
         inkscape:groupmode="layer"
         id="layer32"
         inkscape:label="Cmts.User" />
      <g
         inkscape:groupmode="layer"
         id="layer33"
         inkscape:label="Dwgs.User" />
    </g>
  </g>
  <g
     inkscape:groupmode="layer"
     id="layer3"
     inkscape:label="Mask"
     style="display:none"
     transform="translate(-89.943098,-134.22212)" />
  <g
     inkscape:groupmode="layer"
     id="layer37"
     inkscape:label="SilkS"
     transform="translate(0.34391929,16.017668)"
     style="display:inline">
    <g
       style="font-size:4.99999619px;font-style:normal;font-variant:normal;font-weight:normal;font-stretch:normal;text-align:start;line-height:125%;letter-spacing:0px;word-spacing:0px;writing-mode:lr-tb;text-anchor:start;fill:#000000;fill-opacity:1;stroke:none;display:inline;font-family:MagistralC;-inkscape-font-specification:MagistralC"
       id="text7306-7-8-0">
      <path
         d="m -0.34391929,-12.477671 0.69499947,0 0.35499973,-0.884999 1.68499869,0 0.3599997,0.884999 0.6949995,0 -1.319999,-3.144997 c -0.063335,-0.146664 -0.1383354,-0.24833 -0.2249998,-0.305 -0.083335,-0.06 -0.2000017,-0.09 -0.3499997,-0.09 -0.1566682,4e-6 -0.276668,0.03 -0.3599998,0.09 -0.080001,0.05667 -0.1516677,0.158336 -0.2149998,0.305 l -1.31999899,3.144997 m 1.79499859,-2.779998 c 0.01,-0.02666 0.023332,-0.05666 0.04,-0.09 0.016665,-0.03666 0.036665,-0.055 0.06,-0.055 0.023332,2e-6 0.043331,0.01834 0.06,0.055 0.016665,0.03334 0.029998,0.06334 0.04,0.09 l 0.5699996,1.424999 -1.34499902,0 0.57499952,-1.424999"
         id="path7125"
         inkscape:connector-curvature="0" />
    </g>
    <g
       style="font-size:4.99999619px;font-style:normal;font-variant:normal;font-weight:normal;font-stretch:normal;text-align:start;line-height:125%;letter-spacing:0px;word-spacing:0px;writing-mode:lr-tb;text-anchor:start;fill:#000000;fill-opacity:1;stroke:none;display:inline;font-family:MagistralC;-inkscape-font-specification:MagistralC"
       id="text7306-4-9-0-9">
      <path
         d="m 4.8428635,-10.350446 c 0.00666,-0.02 0.018329,-0.04333 0.035,-0.07 0.016663,-0.03 0.033329,-0.045 0.05,-0.045 0.01,3e-6 0.021663,0.0067 0.035,0.02 0.016663,0.01 0.024996,0.03834 0.025,0.085 l -0.02,2.724998 0.6599995,0 0,-3.079998 c -4.7e-6,-0.159996 -0.053338,-0.276663 -0.1599999,-0.349999 -0.106671,-0.07333 -0.2416708,-0.109997 -0.4049997,-0.11 -0.063337,3e-6 -0.1233372,0.005 -0.1799999,0.015 -0.05667,0.01 -0.1116704,0.03167 -0.1649998,0.065 -0.053337,0.03 -0.1033369,0.075 -0.1499999,0.135 -0.043337,0.05667 -0.083337,0.135003 -0.1199999,0.234999 l -0.9049993,2.3349986 c -0.016669,0.036667 -0.033336,0.068334 -0.05,0.095 -0.013336,0.023334 -0.028336,0.035001 -0.045,0.035 -0.016669,6e-7 -0.033336,-0.011666 -0.05,-0.035 -0.013336,-0.026666 -0.028336,-0.058333 -0.045,-0.095 L 2.4478653,-10.725446 c -0.023335,-0.06 -0.050001,-0.116663 -0.08,-0.169999 -0.030001,-0.05666 -0.068335,-0.104997 -0.115,-0.145 -0.043335,-0.04333 -0.1000011,-0.07666 -0.1699998,-0.1 -0.066668,-0.02333 -0.1500009,-0.035 -0.2499998,-0.035 -0.026668,3e-6 -0.071667,0.0033 -0.1349999,0.01 -0.060001,0.0033 -0.1216672,0.02 -0.1849999,0.05 -0.063334,0.03 -0.1200003,0.07667 -0.1699999,0.14 -0.05,0.06 -0.075,0.146669 -0.075,0.259999 l 0,3.079998 0.6599995,0 -0.015,-2.724998 c -9e-7,-0.0067 0.00167,-0.025 0.005,-0.055 0.00667,-0.03333 0.023332,-0.05 0.05,-0.05 0.016666,3e-6 0.033332,0.015 0.05,0.045 0.016666,0.02667 0.028332,0.05 0.035,0.07 l 0.8949993,2.3349983 c 0.019998,0.056667 0.041665,0.1100002 0.065,0.1599999 0.023331,0.05 0.053331,0.095 0.09,0.1349999 0.036665,0.036667 0.081664,0.066667 0.1349999,0.09 0.056664,0.023333 0.1266642,0.035 0.2099998,0.035 0.076664,0 0.141664,-0.01 0.1949999,-0.03 0.05333,-0.016667 0.09833,-0.043333 0.1349999,-0.08 0.036664,-0.036667 0.066664,-0.08 0.09,-0.1299999 0.026664,-0.053333 0.05333,-0.113333 0.08,-0.1799999 l 0.8949994,-2.3349983"
         id="path7128"
         inkscape:connector-curvature="0" />
    </g>
    <g
       style="font-size:4.99999619px;font-style:normal;font-variant:normal;font-weight:normal;font-stretch:normal;text-align:start;line-height:125%;letter-spacing:0px;word-spacing:0px;writing-mode:lr-tb;text-anchor:start;fill:#000000;fill-opacity:1;stroke:none;display:inline;font-family:MagistralC;-inkscape-font-specification:MagistralC"
       id="text7306-1-4-1-7">
      <path
         d="m 5.6256362,-6.2932508 c -0.1066684,3.6e-6 -0.2216682,0.00167 -0.3449997,0.005 -0.1200014,0.00334 -0.2416679,0.01667 -0.3649997,0.04 -0.1233344,0.023337 -0.2450009,0.060003 -0.3649997,0.1099999 -0.1166674,0.050003 -0.2233339,0.1216699 -0.3199998,0.2149999 -0.096667,0.090003 -0.171667,0.1933361 -0.2249998,0.3099997 -0.053334,0.113336 -0.093334,0.2333358 -0.1199999,0.3599997 -0.026667,0.1233357 -0.043334,0.2500021 -0.05,0.3799998 -0.00667,0.1266685 -0.01,0.2500016 -0.01,0.3699997 -2e-7,0.1000015 0.00167,0.211668 0.005,0.3349997 0.00667,0.1233346 0.021666,0.250001 0.045,0.3799997 0.026666,0.1266675 0.066666,0.2516673 0.1199999,0.3749997 0.056666,0.1233338 0.1349994,0.2333336 0.2349998,0.3299998 0.096666,0.093333 0.2033324,0.165 0.3199998,0.2149998 0.1199988,0.05 0.2416653,0.086667 0.3649997,0.1099999 0.1266651,0.023333 0.2499983,0.036667 0.3699997,0.04 0.1233315,0.00333 0.2366646,0.005 0.3399997,0.005 0.099998,0 0.2116643,-0.00167 0.3349998,-0.005 0.1233308,-0.00333 0.2466639,-0.016667 0.3699997,-0.04 0.1266637,-0.023333 0.2483302,-0.06 0.3649997,-0.1099999 0.1199967,-0.05 0.2283299,-0.1216663 0.3249998,-0.2149998 0.089996,-0.086666 0.161663,-0.1883327 0.2149998,-0.3049998 0.05333,-0.1166658 0.09333,-0.2383323 0.1199999,-0.3649997 0.026663,-0.1266654 0.04333,-0.2533319 0.05,-0.3799997 0.01,-0.1299984 0.014996,-0.2533315 0.015,-0.3699997 -3.8e-6,-0.1133314 -0.00334,-0.2349979 -0.01,-0.3649997 -0.00667,-0.1299977 -0.025004,-0.2583308 -0.055,-0.3849998 -0.02667,-0.1266639 -0.06667,-0.2483303 -0.1199999,-0.3649997 -0.053337,-0.1166636 -0.1250034,-0.2183301 -0.2149998,-0.3049997 -0.09667,-0.09333 -0.2050031,-0.1649966 -0.3249998,-0.2149999 -0.1166695,-0.049996 -0.238336,-0.086663 -0.3649997,-0.1099999 -0.1233358,-0.02333 -0.2466689,-0.036663 -0.3699997,-0.04 -0.1200021,-0.00333 -0.2316686,-0.005 -0.3349998,-0.005 m -1.1199991,1.7899987 c -9e-7,-0.2699978 0.018332,-0.4783308 0.055,-0.6249995 0.039999,-0.1499974 0.093332,-0.2683305 0.1599998,-0.3549998 0.1033321,-0.1266637 0.2333319,-0.2049969 0.3899997,-0.2349998 0.1566649,-0.03333 0.3266646,-0.049997 0.5099996,-0.05 0.1799977,3.1e-6 0.3499974,0.01667 0.5099997,0.05 0.1599972,0.030003 0.2916636,0.1083361 0.3949997,0.2349998 0.026664,0.033336 0.05333,0.075003 0.08,0.1249999 0.026664,0.050002 0.049997,0.1133358 0.07,0.1899999 0.019997,0.076669 0.034997,0.1700021 0.045,0.2799998 0.01333,0.1066686 0.019997,0.2350017 0.02,0.3849997 -3.1e-6,0.1400015 -0.00667,0.2633346 -0.02,0.3699997 -0.010003,0.1066679 -0.025003,0.1983344 -0.045,0.2749998 -0.020003,0.076668 -0.043336,0.1416675 -0.07,0.1949998 -0.023336,0.053334 -0.050003,0.098334 -0.08,0.1349999 -0.053336,0.066667 -0.1133361,0.1200006 -0.1799999,0.1599999 -0.066669,0.036667 -0.1400025,0.065001 -0.2199998,0.085 -0.076669,0.020001 -0.1583356,0.033334 -0.2449999,0.04 -0.083335,0.00333 -0.1700019,0.005 -0.2599998,0.005 -0.090002,5e-7 -0.178335,-0.00167 -0.2649998,-0.005 -0.086668,-0.00667 -0.1683347,-0.019999 -0.2449998,-0.04 -0.076668,-0.019999 -0.1483345,-0.048333 -0.2149998,-0.085 -0.066668,-0.039999 -0.125001,-0.093332 -0.1749999,-0.1599999 -0.030001,-0.036666 -0.058334,-0.079999 -0.085,-0.1299999 -0.023334,-0.053332 -0.045001,-0.1183322 -0.065,-0.1949998 -0.020001,-0.079999 -0.036667,-0.1716653 -0.05,-0.2749998 -0.010001,-0.1066651 -0.015001,-0.2316649 -0.015,-0.3749997"
         id="path7131"
         inkscape:connector-curvature="0" />
    </g>
    <g
       style="font-size:4.99999619px;font-style:normal;font-variant:normal;font-weight:normal;font-stretch:normal;text-align:start;line-height:125%;letter-spacing:0px;word-spacing:0px;writing-mode:lr-tb;text-anchor:start;fill:#000000;fill-opacity:1;stroke:none;display:inline;font-family:MagistralC;-inkscape-font-specification:MagistralC"
       id="text7306-6-3-3-6">
      <path
         d="m 6.4684496,2.0889697 0,-0.5249996 -1.8699986,0 c -0.053335,5e-7 -0.100001,-0.00167 -0.1399999,-0.005 -0.036668,-0.00667 -0.065001,-0.019999 -0.085,-0.04 -0.033334,-0.026666 -0.050001,-0.071666 -0.05,-0.1349999 l 0,-0.81999933 2.0749984,0 0,-0.5249996 -2.0749984,0 0,-0.70499946 c -9e-7,-0.0266639 0.00167,-0.0549971 0.005,-0.0849999 0.00667,-0.0299971 0.023332,-0.0583304 0.05,-0.0849999 0.026666,-0.0233304 0.054999,-0.0366637 0.085,-0.04 0.033332,-0.006664 0.064999,-0.009997 0.095,-0.01 l 1.8899986,0 0,-0.52499961 -2.2449983,0 c -0.066667,3.5e-6 -0.1400006,0.00667 -0.2199998,0.02 -0.076667,0.013337 -0.1433337,0.05167 -0.1999999,0.1149999 -0.036667,0.043337 -0.066667,0.098337 -0.09,0.1649998 -0.02,0.063337 -0.03,0.13000305 -0.03,0.19999993 l 0,2.47999807 c -3e-7,0.066667 0.00667,0.1383336 0.02,0.2149998 0.013333,0.073333 0.05,0.1383334 0.1099999,0.1949999 0.056666,0.056667 0.1183327,0.09 0.1849999,0.1 0.066666,0.00667 0.1383325,0.01 0.2149998,0.01 l 2.2749983,0"
         id="path7134"
         inkscape:connector-curvature="0" />
    </g>
    <g
       style="font-size:4.99999619px;font-style:normal;font-variant:normal;font-weight:normal;font-stretch:normal;text-align:start;line-height:125%;letter-spacing:0px;word-spacing:0px;writing-mode:lr-tb;text-anchor:start;fill:#000000;fill-opacity:1;stroke:none;display:inline;font-family:MagistralC;-inkscape-font-specification:MagistralC"
       id="text7306-40-9-2-3">
      <path
         d="m 1.4231294,3.4542888 c -0.056667,3.5e-6 -0.1200006,0.00834 -0.1899998,0.025 -0.066667,0.01667 -0.1266671,0.05667 -0.1799999,0.12 -0.036667,0.04667 -0.0650003,0.1016698 -0.0849999,0.1649998 -0.016667,0.063336 -0.0250003,0.1283363 -0.025,0.1949999 l 0,2.4999981 c -3e-7,0.1000003 0.0149997,0.1800002 0.045,0.2399998 0.033333,0.056667 0.0583329,0.095 0.075,0.1149999 0.069999,0.08 0.1449993,0.1233333 0.2249998,0.1299999 0.079999,0.00667 0.1633324,0.01 0.2499998,0.01 l 1.6749987,0 c 0.053331,0 0.106664,0 0.1599999,0 0.056664,-0.00333 0.1116638,-0.011667 0.1649999,-0.025 0.05333,-0.016667 0.1066636,-0.04 0.1599999,-0.07 0.05333,-0.03 0.1049967,-0.073333 0.1549999,-0.1299999 0.099997,-0.1133329 0.1583298,-0.2349994 0.1749998,-0.3649998 0.016663,-0.1299991 0.024997,-0.2533322 0.025,-0.3699997 -3.4e-6,-0.049999 -0.00167,-0.1016655 -0.005,-0.1549999 -3.4e-6,-0.053332 -0.005,-0.1066653 -0.015,-0.1599998 -0.010003,-0.056665 -0.02667,-0.1099986 -0.05,-0.1599999 -0.023337,-0.053332 -0.055003,-0.1033317 -0.095,-0.1499999 -0.043337,-0.046665 -0.098336,-0.086665 -0.1649998,-0.1199999 -0.063336,-0.036665 -0.1366696,-0.058332 -0.2199999,-0.065 l 0,-0.02 c 0.066664,-0.00666 0.1249969,-0.023332 0.1749999,-0.05 0.05333,-0.026665 0.1049968,-0.069998 0.1549999,-0.1299999 0.076663,-0.093331 0.1233299,-0.1866644 0.1399999,-0.2799998 0.016663,-0.096664 0.024997,-0.1933307 0.025,-0.2899998 -3.3e-6,-0.056664 -0.00334,-0.1183305 -0.01,-0.1849998 -0.00334,-0.066664 -0.013337,-0.1333304 -0.03,-0.1999999 -0.013337,-0.066664 -0.035003,-0.1316635 -0.065,-0.1949998 -0.02667,-0.06333 -0.065003,-0.1199967 -0.1149999,-0.1699999 -0.04667,-0.046663 -0.09667,-0.08333 -0.1499999,-0.1099999 -0.053336,-0.029997 -0.1083361,-0.051663 -0.1649998,-0.065 -0.056669,-0.016663 -0.113336,-0.026663 -0.1699999,-0.03 -0.053336,-0.00333 -0.1033358,-0.005 -0.1499999,-0.005 l -1.7199987,0 M 1.6031293,4.174288 c -10e-7,-0.019997 0.00167,-0.044997 0.005,-0.075 0.00667,-0.029997 0.019999,-0.056664 0.04,-0.08 0.019999,-0.02333 0.043332,-0.034997 0.07,-0.035 0.026666,-0.00333 0.053332,-0.005 0.08,-0.005 l 1.0799992,0 c 0.056664,2.9e-6 0.1133309,0.00334 0.1699999,0.01 0.056664,0.00667 0.1083307,0.033336 0.1549999,0.08 0.056664,0.053336 0.089997,0.118336 0.1,0.1949999 0.01,0.073336 0.014997,0.1333357 0.015,0.1799998 -2.7e-6,0.1200023 -0.010003,0.2050022 -0.03,0.2549998 -0.016669,0.050002 -0.031669,0.083336 -0.045,0.1 -0.046669,0.063335 -0.1016691,0.100002 -0.1649999,0.11 -0.063336,0.010002 -0.1283355,0.015002 -0.1949998,0.015 l -1.279999,0 0,-0.7499994 m 0,1.274999 1.3399989,0 c 0.1066642,1.6e-6 0.1866641,0.018335 0.2399999,0.055 0.056664,0.033335 0.094997,0.063335 0.1149999,0.09 0.033331,0.046668 0.053331,0.1050012 0.06,0.1749999 0.01,0.070001 0.014997,0.130001 0.015,0.1799999 -2.7e-6,0.056668 -0.00667,0.1183341 -0.02,0.1849998 -0.010003,0.066667 -0.033336,0.123334 -0.07,0.1699999 -0.050003,0.060001 -0.1133358,0.096667 -0.1899999,0.1099999 -0.076669,0.01 -0.1416688,0.015001 -0.1949998,0.015 l -1.0399992,0 c -0.026668,5e-7 -0.063335,-0.00167 -0.1099999,-0.005 -0.043334,-0.00333 -0.078334,-0.019999 -0.105,-0.05 -0.013334,-0.016666 -0.023334,-0.039999 -0.03,-0.07 -0.00667,-0.033333 -0.010001,-0.078333 -0.01,-0.1349999 l 0,-0.7199995"
         id="path7137"
         inkscape:connector-curvature="0" />
    </g>
    <g
       style="font-size:4.99999619px;font-style:normal;font-variant:normal;font-weight:normal;font-stretch:normal;text-align:start;line-height:125%;letter-spacing:0px;word-spacing:0px;writing-mode:lr-tb;text-anchor:start;fill:#000000;fill-opacity:1;stroke:none;display:inline;font-family:MagistralC;-inkscape-font-specification:MagistralC"
       id="text7306-5-5-8-2">
      <path
         d="m -0.32813564,11.859602 0.69499947,0 0.35499973,-0.884999 1.68499874,0 0.3599997,0.884999 0.6949995,0 -1.319999,-3.1449976 C 2.0785269,8.5679411 2.0035271,8.4662746 1.9168626,8.4096046 c -0.083335,-0.059996 -0.2000017,-0.089996 -0.3499997,-0.09 -0.1566681,3.5e-6 -0.2766679,0.030004 -0.3599997,0.09 -0.080001,0.05667 -0.1516678,0.1583365 -0.21499985,0.3049998 L -0.32813564,11.859602 M 1.466863,9.0796041 c 0.01,-0.026664 0.023332,-0.056664 0.04,-0.09 0.016665,-0.036664 0.036665,-0.054997 0.06,-0.055 0.023332,2.9e-6 0.043331,0.018336 0.06,0.055 0.016665,0.033336 0.029998,0.063336 0.04,0.09 l 0.5699996,1.4249989 -1.34499897,0 L 1.466863,9.0796041"
         id="path7140"
         inkscape:connector-curvature="0" />
    </g>
  </g>
  <g
     inkscape:groupmode="layer"
     id="layer39"
     inkscape:label="Paste"
     transform="translate(0.34391929,16.017668)"
     style="display:inline" />
  <g
     inkscape:groupmode="layer"
     id="layer38"
     inkscape:label="Adhes"
     transform="translate(0.34391929,16.017668)"
     style="display:inline" />
  <g
     inkscape:groupmode="layer"
     id="layer2"
     inkscape:label="Cu"
     style="display:inline"
     transform="translate(-89.943098,-134.22212)">
    <g
       inkscape:groupmode="layer"
       id="layer6"
       inkscape:label="Initials"
       style="display:inline" />
    <g
       inkscape:groupmode="layer"
       id="layer7"
       inkscape:label="border"
       style="display:inline" />
  </g>
  <g
     inkscape:groupmode="layer"
     id="layer9"
     inkscape:label="- hide -"
     style="display:inline"
     transform="translate(0.34391929,16.017668)">
    <g
       inkscape:groupmode="layer"
       id="layer1"
       inkscape:label="letters"
       style="display:none">
      <text
         xml:space="preserve"
         style="font-size:4.99999619px;font-style:normal;font-variant:normal;font-weight:normal;font-stretch:normal;text-align:start;line-height:125%;letter-spacing:0px;word-spacing:0px;writing-mode:lr-tb;text-anchor:start;fill:#000000;fill-opacity:1;stroke:none;font-family:MagistralC;-inkscape-font-specification:MagistralC"
         x="-0.19391941"
         y="-12.477671"
         id="text7306-7-8"
         sodipodi:linespacing="125%"><tspan
           sodipodi:role="line"
           id="tspan7308-48-5"
           x="-0.19391941"
           y="-12.477671">A</tspan></text>
      <text
         xml:space="preserve"
         style="font-size:4.99999619px;font-style:normal;font-variant:normal;font-weight:normal;font-stretch:normal;text-align:start;line-height:125%;letter-spacing:0px;word-spacing:0px;writing-mode:lr-tb;text-anchor:start;fill:#000000;fill-opacity:1;stroke:none;font-family:MagistralC;-inkscape-font-specification:MagistralC"
         x="0.96786642"
         y="-7.6354475"
         id="text7306-4-9-0"
         sodipodi:linespacing="125%"><tspan
           sodipodi:role="line"
           id="tspan7308-3-7-0"
           x="0.96786642"
           y="-7.6354475">M</tspan></text>
      <text
         xml:space="preserve"
         style="font-size:4.99999619px;font-style:normal;font-variant:normal;font-weight:normal;font-stretch:normal;text-align:start;line-height:125%;letter-spacing:0px;word-spacing:0px;writing-mode:lr-tb;text-anchor:start;fill:#000000;fill-opacity:1;stroke:none;font-family:MagistralC;-inkscape-font-specification:MagistralC"
         x="3.6256378"
         y="-2.7532535"
         id="text7306-1-4-1"
         sodipodi:linespacing="125%"><tspan
           sodipodi:role="line"
           id="tspan7308-6-6-6"
           x="3.6256378"
           y="-2.7532535">O</tspan></text>
      <text
         xml:space="preserve"
         style="font-size:4.99999619px;font-style:normal;font-variant:normal;font-weight:normal;font-stretch:normal;text-align:start;line-height:125%;letter-spacing:0px;word-spacing:0px;writing-mode:lr-tb;text-anchor:start;fill:#000000;fill-opacity:1;stroke:none;font-family:MagistralC;-inkscape-font-specification:MagistralC"
         x="3.363452"
         y="2.0889697"
         id="text7306-6-3-3"
         sodipodi:linespacing="125%"><tspan
           sodipodi:role="line"
           id="tspan7308-4-5-2"
           x="3.363452"
           y="2.0889697">E</tspan></text>
      <text
         xml:space="preserve"
         style="font-size:4.99999619px;font-style:normal;font-variant:normal;font-weight:normal;font-stretch:normal;text-align:start;line-height:125%;letter-spacing:0px;word-spacing:0px;writing-mode:lr-tb;text-anchor:start;fill:#000000;fill-opacity:1;stroke:none;font-family:MagistralC;-inkscape-font-specification:MagistralC"
         x="0.64313"
         y="6.9542856"
         id="text7306-40-9-2"
         sodipodi:linespacing="125%"><tspan
           sodipodi:role="line"
           id="tspan7308-31-9-1"
           x="0.64313"
           y="6.9542856">B</tspan></text>
      <text
         xml:space="preserve"
         style="font-size:4.99999619px;font-style:normal;font-variant:normal;font-weight:normal;font-stretch:normal;text-align:start;line-height:125%;letter-spacing:0px;word-spacing:0px;writing-mode:lr-tb;text-anchor:start;fill:#000000;fill-opacity:1;stroke:none;font-family:MagistralC;-inkscape-font-specification:MagistralC"
         x="-0.17813575"
         y="11.859601"
         id="text7306-5-5-8"
         sodipodi:linespacing="125%"><tspan
           sodipodi:role="line"
           id="tspan7308-2-1-9"
           x="-0.17813575"
           y="11.859601">A</tspan></text>
    </g>
  </g>
</svg>
