<?xml version="1.0" encoding="UTF-8" standalone="no"?>
<!-- Created with Inkscape (http://www.inkscape.org/) -->

<svg
   xmlns:dc="http://purl.org/dc/elements/1.1/"
   xmlns:cc="http://creativecommons.org/ns#"
   xmlns:rdf="http://www.w3.org/1999/02/22-rdf-syntax-ns#"
   xmlns:svg="http://www.w3.org/2000/svg"
   xmlns="http://www.w3.org/2000/svg"
   xmlns:sodipodi="http://sodipodi.sourceforge.net/DTD/sodipodi-0.dtd"
   xmlns:inkscape="http://www.inkscape.org/namespaces/inkscape"
   inkscape:export-ydpi="10160"
   inkscape:export-xdpi="10160"
   inkscape:export-filename="/home/mike/git/keyboard-pcbs/amoeba/dt.copper.png"
   sodipodi:docname="dt-logo-big.svg"
   inkscape:version="0.48.5 r10040"
   version="1.1"
   id="svg3350"
   height="16.8125"
   width="19.924557">
  <defs
     id="defs3352" />
  <sodipodi:namedview
     id="base"
     pagecolor="#ffffff"
     bordercolor="#666666"
     borderopacity="1.0"
     inkscape:pageopacity="0.0"
     inkscape:pageshadow="2"
     inkscape:zoom="16"
     inkscape:cx="8.0427451"
     inkscape:cy="5.7381953"
     inkscape:document-units="px"
     inkscape:current-layer="layer2"
     showgrid="false"
     fit-margin-top="0"
     fit-margin-left="0"
     fit-margin-right="0"
     fit-margin-bottom="0"
     inkscape:window-width="1364"
     inkscape:window-height="747"
     inkscape:window-x="0"
     inkscape:window-y="19"
     inkscape:window-maximized="0"
     inkscape:snap-bbox="true"
     inkscape:snap-page="true"
     inkscape:snap-global="false"
     inkscape:object-paths="true"
     showborder="false"
     inkscape:showpageshadow="false" />
  <metadata
     id="metadata3355">
    <rdf:RDF>
      <cc:Work
         rdf:about="">
        <dc:format>image/svg+xml</dc:format>
        <dc:type
           rdf:resource="http://purl.org/dc/dcmitype/StillImage" />
        <dc:title />
      </cc:Work>
    </rdf:RDF>
  </metadata>
  <g
     inkscape:groupmode="layer"
     id="layer24"
     inkscape:label="Pretty"
     transform="translate(-1.7187515,3.658576)">
    <g
       inkscape:groupmode="layer"
       id="layer25"
       inkscape:label="Fab" />
    <g
       inkscape:groupmode="layer"
       id="layer26"
       inkscape:label="CrtYd" />
  </g>
  <g
     inkscape:groupmode="layer"
     id="layer17"
     inkscape:label="Legacy"
     transform="translate(-1.7187515,3.658576)">
    <g
       inkscape:groupmode="layer"
       id="layer23"
       inkscape:label="Edge.Cuts" />
    <g
       inkscape:groupmode="layer"
       id="layer18"
       inkscape:label="User">
      <g
         inkscape:groupmode="layer"
         id="layer19"
         inkscape:label="Eco2.User" />
      <g
         inkscape:groupmode="layer"
         id="layer20"
         inkscape:label="Eco1.User" />
      <g
         inkscape:groupmode="layer"
         id="layer21"
         inkscape:label="Cmts.User" />
      <g
         inkscape:groupmode="layer"
         id="layer22"
         inkscape:label="Dwgs.User" />
    </g>
  </g>
  <g
     inkscape:groupmode="layer"
     id="layer1"
     inkscape:label="Mask"
     style="display:inline"
     transform="translate(-1.7187515,3.658576)">
    <path
       style="fill:#f6e9ff;fill-opacity:1;stroke:none"
       d="m 3.28125,-2.46875 c -0.8638582,0 -1.5625,0.6986419 -1.5625,1.5625 l 0,13.6875 c 0,0.863858 0.6986418,1.5625 1.5625,1.5625 l 8.78125,0 c 0.863858,0 1.53125,-0.698642 1.53125,-1.5625 l 0,-9.8125 2.25,0 0,7.9375 c 0,0.658548 0.528952,1.1875 1.1875,1.1875 l 0.799556,0 c 0.658548,0 1.1875,-0.528952 1.1875,-1.1875 l 0,-7.9375 1.6875,0 c 0.519906,0 0.9375,-0.5567918 0.9375,-1.25 l 0,-0.6875 c 0,-0.6932086 -0.417594,-1.25 -0.9375,-1.25 l -7.112056,0 0,-0.6875 c 0,-0.8638581 -0.667392,-1.5625 -1.53125,-1.5625 z"
       transform="translate(1.4586893e-6,-1.189826)"
       id="rect4595"
       inkscape:connector-curvature="0"
       sodipodi:nodetypes="ssssssccsssscsssscsss" />
  </g>
  <g
     inkscape:groupmode="layer"
     id="layer6"
     inkscape:label="SilkS"
     style="display:inline"
     transform="translate(-1.7187515,3.658576)" />
  <g
     inkscape:groupmode="layer"
     id="layer10"
     inkscape:label="Paste"
     transform="translate(-1.7187515,3.658576)" />
  <g
     inkscape:groupmode="layer"
     id="layer5"
     inkscape:label="Adhes"
     style="display:inline"
     transform="translate(-1.7187515,3.658576)" />
  <g
     inkscape:groupmode="layer"
     id="layer2"
     inkscape:label="Cu"
     transform="translate(0.05290624,5.1149566)"
     style="display:inline">
    <path
       style="fill:#ffdb7c;fill-opacity:1;stroke:none"
       d="m 1.9336923,-4.0462064 c -0.519907,0 -0.9375,0.3248816 -0.9375,0.71875 l 0,13.25 c 0,0.3938674 0.417593,0.7187494 0.9375,0.7187494 l 7.90625,0 c 0.5199067,0 0.9374997,-0.324882 0.9374997,-0.7187494 l 0,-13.25 c 0,-0.3938683 -0.417593,-0.71875 -0.9374997,-0.71875 l -7.90625,0 z m 0.875,2.03125 2.71875,0 0.71875,0 0.03125,0 c 1.496701,0 2.6875,1.1908 2.6875,2.6875 l 0,5.25 c 0,1.4967 -1.190799,2.6875 -2.6875,2.6875 l -0.03125,0 -0.71875,0 -2.71875,0 0,-10.625 z"
       id="rect5221"
       inkscape:connector-curvature="0" />
    <path
       style="fill:#ffdb7c;fill-opacity:1;stroke:none"
       d="m 4.2159684,-0.64423904 0,7.88241964 1.6719939,0 c 0.082717,0 0.2513454,-0.0171 0.2863005,-0.022903 0.7991136,-0.132725 1.4040164,-0.8289803 1.4040164,-1.6674135 l 0,-4.5006408 c 0,-0.83838006 -0.6172578,-1.47249144 -1.4040164,-1.6651224 -0.068926,-0.016866 -0.2101502,-0.0263394 -0.2863005,-0.0263394 z"
       id="rect4005-0"
       inkscape:connector-curvature="0"
       sodipodi:nodetypes="ccssssssc" />
    <path
       style="fill:#ffdb7c;fill-opacity:1;stroke:none"
       d="m 12.729394,-2.0440756 c -0.236321,0 -0.428305,0.2552154 -0.428305,0.5703102 l 0,0.3092042 c 0,0.31509478 0.191984,0.57031032 0.428305,0.57031032 l 2.150688,0 0,8.69207688 c 0,0.29934 0.241195,0.540535 0.540535,0.540535 l 0.387078,0 c 0.29934,0 0.540535,-0.241195 0.540535,-0.540535 l 0,-8.69207688 2.081976,0 c 0.236321,0 0.428305,-0.25521554 0.428305,-0.57031032 l 0,-0.3092042 c 0,-0.3150948 -0.191984,-0.5703102 -0.428305,-0.5703102 l -5.700812,0 z"
       id="rect4007-1"
       inkscape:connector-curvature="0" />
  </g>
</svg>
