<?xml version="1.0" encoding="UTF-8" standalone="no"?>
<!-- Created with Inkscape (http://www.inkscape.org/) -->

<svg
   xmlns:dc="http://purl.org/dc/elements/1.1/"
   xmlns:cc="http://creativecommons.org/ns#"
   xmlns:rdf="http://www.w3.org/1999/02/22-rdf-syntax-ns#"
   xmlns:svg="http://www.w3.org/2000/svg"
   xmlns="http://www.w3.org/2000/svg"
   xmlns:sodipodi="http://sodipodi.sourceforge.net/DTD/sodipodi-0.dtd"
   xmlns:inkscape="http://www.inkscape.org/namespaces/inkscape"
   width="36.512516"
   height="6.3637962"
   id="svg4904"
   version="1.1"
   inkscape:version="0.48.5 r10040"
   sodipodi:docname="labels-melvang-moz.svg">
  <defs
     id="defs4906">
    <path
       sodipodi:type="arc"
       style="fill:#cfb81d;fill-opacity:0.77777782;stroke:none"
       id="path9910"
       sodipodi:cx="504.23831"
       sodipodi:cy="360.93094"
       sodipodi:rx="5.699008"
       sodipodi:ry="5.699008"
       d="m 509.93732,360.93094 a 5.699008,5.699008 0 1 1 -11.39802,0 5.699008,5.699008 0 1 1 11.39802,0 z"
       transform="matrix(151.98125,0,0,151.98125,-17258.402,-10543.794)" />
    <path
       sodipodi:type="arc"
       style="fill:#cfb81d;fill-opacity:0.77777782;stroke:none"
       id="path9910-1"
       sodipodi:cx="504.23831"
       sodipodi:cy="360.93094"
       sodipodi:rx="5.699008"
       sodipodi:ry="5.699008"
       d="m 509.93732,360.93094 a 5.699008,5.699008 0 1 1 -11.39802,0 5.699008,5.699008 0 1 1 11.39802,0 z"
       transform="matrix(151.98125,0,0,151.98125,-17258.402,-10543.794)" />
    <path
       sodipodi:type="arc"
       style="fill:#cfb81d;fill-opacity:0.77777782;stroke:none"
       id="path9910-1-2"
       sodipodi:cx="504.23831"
       sodipodi:cy="360.93094"
       sodipodi:rx="5.699008"
       sodipodi:ry="5.699008"
       d="m 509.93732,360.93094 a 5.699008,5.699008 0 1 1 -11.39802,0 5.699008,5.699008 0 1 1 11.39802,0 z"
       transform="matrix(151.98125,0,0,151.98125,-17258.402,-10543.794)" />
    <path
       sodipodi:type="arc"
       style="fill:#cfb81d;fill-opacity:0.77777782;stroke:none"
       id="path9910-1-2-2"
       sodipodi:cx="504.23831"
       sodipodi:cy="360.93094"
       sodipodi:rx="5.699008"
       sodipodi:ry="5.699008"
       d="m 509.93732,360.93094 a 5.699008,5.699008 0 1 1 -11.39802,0 5.699008,5.699008 0 1 1 11.39802,0 z"
       transform="matrix(151.98125,0,0,151.98125,-17258.402,-10543.794)" />
  </defs>
  <sodipodi:namedview
     id="base"
     pagecolor="#ffffff"
     bordercolor="#666666"
     borderopacity="1.0"
     inkscape:pageopacity="0.0"
     inkscape:pageshadow="2"
     inkscape:zoom="22.627417"
     inkscape:cx="15.750564"
     inkscape:cy="2.9255448"
     inkscape:document-units="px"
     inkscape:current-layer="layer37"
     showgrid="false"
     inkscape:window-width="1364"
     inkscape:window-height="747"
     inkscape:window-x="0"
     inkscape:window-y="19"
     inkscape:window-maximized="0"
     fit-margin-top="0"
     fit-margin-left="0"
     fit-margin-right="0"
     fit-margin-bottom="0"
     units="mm"
     inkscape:object-nodes="true"
     showborder="false"
     inkscape:snap-global="false">
    <inkscape:grid
       type="xygrid"
       id="grid4912"
       empspacing="4"
       visible="true"
       enabled="true"
       snapvisiblegridlinesonly="true"
       originx="-24.915171mm"
       originy="-254.92418mm"
       units="mm"
       spacingx="0.01mm"
       spacingy="0.01mm" />
  </sodipodi:namedview>
  <metadata
     id="metadata4909">
    <rdf:RDF>
      <cc:Work
         rdf:about="">
        <dc:format>image/svg+xml</dc:format>
        <dc:type
           rdf:resource="http://purl.org/dc/dcmitype/StillImage" />
        <dc:title />
      </cc:Work>
    </rdf:RDF>
  </metadata>
  <g
     inkscape:groupmode="layer"
     id="layer28"
     inkscape:label="Pretty"
     transform="translate(2.0049098,7.5160141)"
     style="display:inline">
    <g
       inkscape:groupmode="layer"
       id="layer36"
       inkscape:label="Fab" />
    <g
       inkscape:groupmode="layer"
       id="layer35"
       inkscape:label="CrtYd" />
  </g>
  <g
     inkscape:groupmode="layer"
     id="layer27"
     inkscape:label="Legacy"
     transform="translate(2.0049098,7.5160141)"
     style="display:inline">
    <g
       inkscape:groupmode="layer"
       id="layer34"
       inkscape:label="Edge.Cuts" />
    <g
       inkscape:groupmode="layer"
       id="layer29"
       inkscape:label="User">
      <g
         inkscape:groupmode="layer"
         id="layer30"
         inkscape:label="Eco2.User" />
      <g
         inkscape:groupmode="layer"
         id="layer31"
         inkscape:label="Eco1.User" />
      <g
         inkscape:groupmode="layer"
         id="layer32"
         inkscape:label="Cmts.User" />
      <g
         inkscape:groupmode="layer"
         id="layer33"
         inkscape:label="Dwgs.User" />
    </g>
  </g>
  <g
     inkscape:groupmode="layer"
     id="layer3"
     inkscape:label="Mask"
     style="display:inline"
     transform="translate(-88.282107,-142.72377)" />
  <g
     inkscape:groupmode="layer"
     id="layer37"
     inkscape:label="SilkS"
     transform="translate(2.0049098,7.5160141)"
     style="display:inline">
    <path
       inkscape:connector-curvature="0"
       style="font-size:2.53816223px;font-style:normal;font-variant:normal;font-weight:normal;font-stretch:normal;text-align:start;line-height:125%;letter-spacing:0px;word-spacing:0px;writing-mode:lr-tb;text-anchor:start;fill:#000000;fill-opacity:1;stroke:none;font-family:MagistralC;-inkscape-font-specification:MagistralC"
       d="m -2.0049098,-5.266901 0.3759223,0 0,-1.7028957 -0.3759223,0 0,1.7028957"
       id="path5662-0-8-8" />
    <path
       inkscape:connector-curvature="0"
       style="font-size:2.53816223px;font-style:normal;font-variant:normal;font-weight:normal;font-stretch:normal;text-align:start;line-height:125%;letter-spacing:0px;word-spacing:0px;writing-mode:lr-tb;text-anchor:start;fill:#000000;fill-opacity:1;stroke:none;font-family:MagistralC;-inkscape-font-specification:MagistralC"
       d="m -1.6289875,-7.2171986 0,-0.29881 -0.3759223,0 0,0.29881 0.3759223,0"
       id="path5587-8-7-7" />
    <path
       inkscape:connector-curvature="0"
       id="path5589-9-5-5"
       style="font-size:2.53816223px;font-style:normal;font-variant:normal;font-weight:normal;font-stretch:normal;text-align:start;line-height:125%;letter-spacing:0px;word-spacing:0px;writing-mode:lr-tb;text-anchor:start;fill:#000000;fill-opacity:1;stroke:none;font-family:MagistralC;-inkscape-font-specification:MagistralC"
       d="m -1.3710933,-5.266901 0.37592227,0 0,-1.3237604 c -5e-7,-0.010709 -5e-7,-0.02249 0,-0.035343 0.00214,-0.012851 0.00857,-0.024631 0.019278,-0.035343 0.010709,-0.010709 0.02142,-0.016064 0.032131,-0.016065 0.010709,-0.00214 0.02142,-0.00322 0.032131,-0.00322 l 0.3823483,0 c 0.068544,1.4e-6 0.1231638,0.00857 0.1638635,0.025704 0.042839,0.014996 0.078182,0.040699 0.106029,0.077112 0.029987,0.040699 0.049265,0.087823 0.057834,0.1413724 0.00857,0.051409 0.012851,0.1049593 0.012852,0.1606507 l 0,1.0088853 0.3759223,0 0,-1.1213407 c -1.6e-6,-0.1178092 -0.017137,-0.2109864 -0.051409,-0.2795319 -0.032132,-0.068542 -0.070688,-0.1231639 -0.1156685,-0.1638636 -0.068546,-0.062117 -0.1424449,-0.100673 -0.2216978,-0.1156686 -0.079256,-0.014992 -0.1638647,-0.02249 -0.253828,-0.022491 l -0.60083287,0 c -0.036414,1.7e-6 -0.080325,0.00322 -0.1317334,0.00963 -0.049267,0.00429 -0.092107,0.026777 -0.1285205,0.067473 -0.025705,0.027848 -0.041769,0.058906 -0.048196,0.093178 -0.00428,0.034274 -0.00643,0.064261 -0.00643,0.089965 l 0,1.4426418" />
    <path
       inkscape:connector-curvature="0"
       id="path5591-6-5-9"
       style="font-size:2.53816223px;font-style:normal;font-variant:normal;font-weight:normal;font-stretch:normal;text-align:start;line-height:125%;letter-spacing:0px;word-spacing:0px;writing-mode:lr-tb;text-anchor:start;fill:#000000;fill-opacity:1;stroke:none;font-family:MagistralC;-inkscape-font-specification:MagistralC"
       d="m 0.42000957,-5.266901 1.08921063,0 c 0.040697,0 0.085679,-0.00322 0.1349466,-0.00963 0.049264,-0.00857 0.095318,-0.028917 0.1381594,-0.061047 0.032129,-0.025704 0.063188,-0.066402 0.093178,-0.1220942 0.032128,-0.057834 0.048193,-0.1381593 0.048196,-0.2409759 -1.6e-6,-0.047124 -0.00643,-0.098532 -0.019278,-0.1542245 -0.012854,-0.057833 -0.040699,-0.1103127 -0.083538,-0.1574375 C 1.7780432,-6.0572921 1.7223502,-6.0926341 1.6538076,-6.118339 1.5852626,-6.146185 1.4995819,-6.175101 1.3967668,-6.20509 L 1.030483,-6.3079093 c -0.010709,-0.00214 -0.025705,-0.00643 -0.044982,-0.012853 -0.019279,-0.00643 -0.039628,-0.012851 -0.061047,-0.019278 -0.019278,-0.00857 -0.038556,-0.017135 -0.057834,-0.025704 -0.019278,-0.00857 -0.035343,-0.018206 -0.048195,-0.028916 -0.025705,-0.021419 -0.04177,-0.042839 -0.048196,-0.06426 -0.00428,-0.021419 -0.00643,-0.04391 -0.00643,-0.067473 -4e-7,-0.023561 0.00214,-0.044981 0.00643,-0.06426 0.00428,-0.021419 0.018207,-0.040697 0.041769,-0.057834 0.02142,-0.017135 0.04284,-0.026773 0.06426,-0.028917 0.023562,-0.00214 0.046053,-0.00322 0.067473,-0.00322 l 0.9028561,0 0,-0.289171 -0.9606903,0 c -0.036414,1.8e-6 -0.0739,0.00107 -0.1124558,0.00322 -0.036414,0.00214 -0.072829,0.00857 -0.1092417,0.019278 -0.034272,0.00857 -0.067474,0.023563 -0.099603,0.044982 -0.032131,0.019279 -0.061047,0.046055 -0.086751,0.080325 -0.034272,0.047126 -0.056763,0.096392 -0.067473,0.1477984 -0.00857,0.05141 -0.012853,0.098534 -0.012853,0.1413725 -1e-7,0.042841 0.00428,0.089965 0.012853,0.1413725 0.010709,0.05141 0.0332,0.1006755 0.067473,0.1477985 0.034273,0.047125 0.082467,0.087823 0.1445855,0.1220942 0.062118,0.032131 0.138159,0.059977 0.2281238,0.083538 l 0.327727,0.089964 c 0.059975,0.017136 0.1081708,0.03106 0.1445855,0.041769 0.036413,0.010709 0.06533,0.020349 0.086751,0.028917 0.023561,0.00857 0.040697,0.016065 0.051409,0.022491 0.010709,0.00428 0.019277,0.00963 0.025704,0.016065 0.021419,0.019278 0.034271,0.039627 0.038556,0.061047 0.00643,0.021421 0.00963,0.043912 0.00963,0.067473 -1.1e-6,0.012853 -0.00107,0.029989 -0.00322,0.051409 -0.00214,0.019278 -0.011785,0.037485 -0.028917,0.054621 -0.017137,0.02142 -0.037486,0.035343 -0.061047,0.041769 -0.023563,0.00428 -0.044983,0.00643 -0.06426,0.00643 l -0.9574773,0 0,0.289171" />
    <path
       inkscape:connector-curvature="0"
       id="path5593-8-2-3"
       style="font-size:2.53816223px;font-style:normal;font-variant:normal;font-weight:normal;font-stretch:normal;text-align:start;line-height:125%;letter-spacing:0px;word-spacing:0px;writing-mode:lr-tb;text-anchor:start;fill:#000000;fill-opacity:1;stroke:none;font-family:MagistralC;-inkscape-font-specification:MagistralC"
       d="m 2.5127841,-5.266901 0.4755257,0 c 0.04284,0 0.08996,-0.00107 0.141372,-0.00322 0.05355,-0.00428 0.1071,-0.013923 0.160651,-0.028917 0.05569,-0.017136 0.108169,-0.041769 0.157437,-0.0739 0.05141,-0.034273 0.09746,-0.080325 0.13816,-0.1381594 0.02999,-0.04284 0.05355,-0.089964 0.07069,-0.1413725 0.01928,-0.051408 0.0332,-0.104958 0.04177,-0.1606506 0.01071,-0.055691 0.01713,-0.1124545 0.01928,-0.1702895 0.0021,-0.057833 0.0032,-0.1145964 0.0032,-0.1702896 -2e-6,-0.047124 -0.0011,-0.09746 -0.0032,-0.1510115 -0.0021,-0.055691 -0.0096,-0.1113836 -0.02249,-0.1670765 -0.01071,-0.055691 -0.02892,-0.1103127 -0.05462,-0.1638636 -0.02356,-0.053549 -0.05676,-0.1028148 -0.0996,-0.1477985 -0.0407,-0.042839 -0.08461,-0.07604 -0.131733,-0.099603 -0.04713,-0.025702 -0.09425,-0.044981 -0.141373,-0.057834 -0.04498,-0.01285 -0.08782,-0.020348 -0.12852,-0.022491 -0.03856,-0.00428 -0.07176,-0.00642 -0.0996,-0.00643 l -0.5944066,0 c -0.03213,1.8e-6 -0.067474,0.00322 -0.1060289,0.00963 -0.038556,0.00643 -0.0739,0.021421 -0.1060289,0.044982 -0.02142,0.017137 -0.04284,0.042841 -0.06426,0.077112 -0.02142,0.032132 -0.032131,0.076043 -0.032131,0.1317334 l 0,1.9856408 0.3759223,0 0,-0.5462119 m 0,-0.289171 0,-1.0442285 c -5e-7,-0.021419 0.00857,-0.040697 0.025704,-0.057834 0.00643,-0.00428 0.013922,-0.00857 0.022491,-0.012853 0.010709,-0.00643 0.020349,-0.00963 0.028917,-0.00963 l 0.3694961,0 c 0.08354,1.4e-6 0.153152,0.018208 0.208845,0.054621 0.05569,0.036416 0.09532,0.082468 0.118882,0.1381594 0.01071,0.023563 0.02035,0.062119 0.02892,0.1156685 0.01071,0.051409 0.01606,0.1349475 0.01607,0.2506148 -2e-6,0.1263792 -0.0075,0.2195564 -0.02249,0.2795321 -0.015,0.059976 -0.03106,0.1028161 -0.04819,0.1285203 -0.02142,0.034273 -0.05676,0.069616 -0.106029,0.1060289 -0.04927,0.034273 -0.121024,0.051409 -0.215271,0.051409 l -0.4273304,0" />
    <path
       inkscape:connector-curvature="0"
       style="font-size:2.53816223px;font-style:normal;font-variant:normal;font-weight:normal;font-stretch:normal;text-align:start;line-height:125%;letter-spacing:0px;word-spacing:0px;writing-mode:lr-tb;text-anchor:start;fill:#000000;fill-opacity:1;stroke:none;font-family:MagistralC;-inkscape-font-specification:MagistralC"
       d="m 3.9316298,-5.266901 0.375923,0 0,-1.7028957 -0.375923,0 0,1.7028957"
       id="path5658-5-6-3" />
    <path
       inkscape:connector-curvature="0"
       style="font-size:2.53816223px;font-style:normal;font-variant:normal;font-weight:normal;font-stretch:normal;text-align:start;line-height:125%;letter-spacing:0px;word-spacing:0px;writing-mode:lr-tb;text-anchor:start;fill:#000000;fill-opacity:1;stroke:none;font-family:MagistralC;-inkscape-font-specification:MagistralC"
       d="m 4.3075528,-7.2171986 0,-0.29881 -0.375923,0 0,0.29881 0.375923,0"
       id="path5595-1-4-6" />
    <path
       inkscape:connector-curvature="0"
       id="path5597-6-1-6"
       style="font-size:2.53816223px;font-style:normal;font-variant:normal;font-weight:normal;font-stretch:normal;text-align:start;line-height:125%;letter-spacing:0px;word-spacing:0px;writing-mode:lr-tb;text-anchor:start;fill:#000000;fill-opacity:1;stroke:none;font-family:MagistralC;-inkscape-font-specification:MagistralC"
       d="m 4.5654468,-5.266901 0.375922,0 0,-0.9606902 c -1e-6,-0.064259 0.0053,-0.1253057 0.01606,-0.1831417 0.01076,-0.057833 0.03427,-0.1081695 0.07069,-0.1510115 0.04498,-0.053549 0.09746,-0.08675 0.157438,-0.099603 0.05998,-0.012851 0.1146,-0.019277 0.163863,-0.019278 l 0.157437,0 0,-0.2891709 -0.253828,0 c -0.03213,1.7e-6 -0.06961,0.00107 -0.112448,0.00322 -0.04284,0.00214 -0.08783,0.00857 -0.134947,0.019278 -0.04498,0.00857 -0.09103,0.023563 -0.138159,0.044982 -0.04498,0.019279 -0.08675,0.046055 -0.12531,0.080325 -0.07283,0.062119 -0.121018,0.1370898 -0.144585,0.2249107 -0.02142,0.085681 -0.03213,0.1756458 -0.03213,0.269893 l 0,1.0602935" />
    <path
       inkscape:connector-curvature="0"
       id="path5599-4-9-0"
       style="font-size:2.53816223px;font-style:normal;font-variant:normal;font-weight:normal;font-stretch:normal;text-align:start;line-height:125%;letter-spacing:0px;word-spacing:0px;writing-mode:lr-tb;text-anchor:start;fill:#000000;fill-opacity:1;stroke:none;font-family:MagistralC;-inkscape-font-specification:MagistralC"
       d="m 7.1807868,-5.266901 0,-0.2891709 -0.83217,0 c -0.03427,2e-7 -0.06961,-0.00214 -0.10603,-0.00643 -0.03427,-0.00428 -0.06747,-0.012851 -0.0996,-0.025704 -0.03213,-0.014993 -0.05998,-0.035342 -0.08354,-0.061047 -0.02356,-0.027846 -0.04177,-0.06426 -0.05462,-0.1092417 -0.0065,-0.025704 -0.01177,-0.062118 -0.01606,-0.109243 -0.0043,-0.047124 -0.0065,-0.088893 -0.0065,-0.125307 l 0.989608,0 c 0.03427,7e-7 0.06639,-0.00428 0.0964,-0.012853 0.03213,-0.00857 0.06104,-0.025704 0.08675,-0.051409 0.03641,-0.036413 0.0589,-0.077111 0.06747,-0.1220942 0.0086,-0.047124 0.01285,-0.092105 0.01285,-0.1349465 -2e-6,-0.053549 -0.0032,-0.1060276 -0.0096,-0.1574374 -0.0065,-0.053549 -0.01928,-0.1038858 -0.03856,-0.1510116 -0.01714,-0.049264 -0.04177,-0.094247 -0.0739,-0.1349465 -0.02999,-0.040697 -0.06961,-0.077111 -0.118879,-0.1092429 -0.07926,-0.049264 -0.168149,-0.079253 -0.26668,-0.089964 -0.0964,-0.01285 -0.194923,-0.019277 -0.295598,-0.019278 -0.0407,1.7e-6 -0.08783,0.00107 -0.141372,0.00322 -0.05355,0.00214 -0.109245,0.00857 -0.167076,0.019278 -0.05784,0.00857 -0.115663,0.023563 -0.173503,0.044982 -0.0557,0.021421 -0.107106,0.052481 -0.154225,0.093178 -0.04713,0.040699 -0.08461,0.085681 -0.11246,0.1349464 -0.02571,0.049268 -0.04605,0.1038883 -0.06104,0.1638636 -0.01285,0.057836 -0.02142,0.1220955 -0.02571,0.1927806 -0.0022,0.068545 -0.0032,0.1424444 -0.0032,0.2216978 0,0.1135267 0.0065,0.2249114 0.01928,0.3341531 0.01285,0.109243 0.04713,0.2045621 0.102815,0.2859579 0.03427,0.049267 0.07283,0.088894 0.115664,0.1188814 0.04284,0.027847 0.08675,0.049267 0.131734,0.06426 0.04498,0.014994 0.09103,0.024633 0.138159,0.028917 0.04713,0.00214 0.09211,0.00322 0.134947,0.00322 l 0.944624,0 m -1.198481,-1.0153108 c 0.0022,-0.055691 0.0053,-0.1070999 0.0096,-0.1542246 0.0065,-0.049265 0.02891,-0.095318 0.06747,-0.1381593 0.0257,-0.027844 0.05355,-0.049264 0.08353,-0.06426 0.03213,-0.017135 0.06426,-0.028915 0.09638,-0.035343 0.03213,-0.00643 0.06319,-0.00963 0.09318,-0.00963 0.02999,-0.00214 0.05784,-0.00322 0.08353,-0.00322 0.05355,1.4e-6 0.10817,0.00429 0.163864,0.012853 0.05784,0.00643 0.110308,0.027847 0.157437,0.06426 0.02785,0.021421 0.05247,0.05141 0.0739,0.089964 0.02356,0.038557 0.03534,0.08461 0.03534,0.1381595 -2e-6,0.023563 -0.0053,0.046054 -0.01606,0.067473 -0.0086,0.021421 -0.03106,0.032131 -0.06747,0.032131 l -0.780761,0" />
    <path
       inkscape:connector-curvature="0"
       id="path5601-6-1-0"
       style="font-size:2.53816223px;font-style:normal;font-variant:normal;font-weight:normal;font-stretch:normal;text-align:start;line-height:125%;letter-spacing:0px;word-spacing:0px;writing-mode:lr-tb;text-anchor:start;fill:#000000;fill-opacity:1;stroke:none;font-family:MagistralC;-inkscape-font-specification:MagistralC"
       d="m 8.6089698,-7.5160086 0,0.5462119 -0.504442,0 c -0.03427,1.7e-6 -0.07604,0.00214 -0.125309,0.00643 -0.04713,0.00429 -0.09746,0.014996 -0.151012,0.032131 -0.05141,0.014996 -0.103891,0.039628 -0.157438,0.0739 -0.05141,0.034274 -0.09746,0.081397 -0.138159,0.1413724 -0.05784,0.083539 -0.09425,0.1777879 -0.109246,0.282745 -0.01499,0.1028174 -0.02249,0.1992076 -0.02249,0.289171 0,0.1413732 0.0086,0.2548995 0.02571,0.3405792 0.01714,0.083539 0.03641,0.1499409 0.05784,0.1992067 0.03213,0.074971 0.06961,0.1349465 0.112449,0.1799285 0.04498,0.04284 0.09211,0.076041 0.141372,0.099603 0.04927,0.023562 0.09854,0.039627 0.147799,0.048195 0.05141,0.00643 0.09854,0.00963 0.141372,0.00963 l 0.67152,0 c 0.03856,0 0.07926,-0.00428 0.122094,-0.012852 0.04498,-0.00857 0.08246,-0.033202 0.112461,-0.0739 0.01714,-0.023562 0.02999,-0.055693 0.03856,-0.096391 0.0086,-0.040698 0.01285,-0.079254 0.01285,-0.1156686 l 0,-1.9502976 -0.375922,0 m 0,0.8353828 0,0.9799683 c -10e-7,0.012853 -0.0011,0.033202 -0.0032,0.061047 -0.0022,0.025705 -0.01076,0.044982 -0.0257,0.057834 -0.01285,0.012852 -0.03106,0.020349 -0.05462,0.022491 -0.02142,0.00214 -0.03642,0.00322 -0.04498,0.00322 l -0.302022,0 c -0.02785,2e-7 -0.05784,-0.00214 -0.08997,-0.00643 -0.03213,-0.00428 -0.06426,-0.012851 -0.0964,-0.025704 -0.02999,-0.012851 -0.0589,-0.032129 -0.08675,-0.057834 -0.02785,-0.025704 -0.05141,-0.059976 -0.07069,-0.1028161 -0.0065,-0.014993 -0.01606,-0.049266 -0.02891,-0.1028161 -0.01076,-0.053549 -0.01606,-0.1467269 -0.01606,-0.2795319 0,-0.1156674 0.0075,-0.2034897 0.02249,-0.2634669 0.01499,-0.059975 0.03213,-0.1049567 0.05141,-0.1349466 0.0407,-0.066401 0.09103,-0.1081695 0.15101,-0.125307 0.05998,-0.017135 0.1146,-0.025702 0.163865,-0.025704 l 0.430542,0" />
    <path
       inkscape:connector-curvature="0"
       id="path5603-2-0-3"
       style="font-size:2.53816223px;font-style:normal;font-variant:normal;font-weight:normal;font-stretch:normal;text-align:start;line-height:125%;letter-spacing:0px;word-spacing:0px;writing-mode:lr-tb;text-anchor:start;fill:#000000;fill-opacity:1;stroke:none;font-family:MagistralC;-inkscape-font-specification:MagistralC"
       d="m 9.9874028,-7.5160086 0,1.9631497 c 0,0.034273 0.0043,0.070687 0.01285,0.1092417 0.0086,0.036414 0.02999,0.070687 0.06426,0.1028161 0.03856,0.036414 0.08032,0.057834 0.125309,0.06426 0.04713,0.00643 0.09532,0.00963 0.144585,0.00963 l 0.536573,0 c 0.04927,0 0.100676,-0.00322 0.154225,-0.00963 0.05569,-0.00643 0.109245,-0.019278 0.16065,-0.038556 0.05355,-0.02142 0.103891,-0.050338 0.151012,-0.086751 0.04712,-0.036414 0.08782,-0.084609 0.122095,-0.1445855 0.03427,-0.057834 0.06104,-0.130662 0.08032,-0.2184847 0.01928,-0.089964 0.02891,-0.204561 0.02891,-0.3437922 -2e-6,-0.1092417 -0.0075,-0.2131286 -0.02249,-0.311662 -0.01285,-0.1006729 -0.04284,-0.1906373 -0.08997,-0.269893 -0.03642,-0.062117 -0.07818,-0.1113823 -0.12531,-0.1477984 -0.04713,-0.036413 -0.09746,-0.064259 -0.151012,-0.083538 -0.05141,-0.019277 -0.104954,-0.032128 -0.16065,-0.038556 -0.05355,-0.00642 -0.106031,-0.00963 -0.157438,-0.00963 l -0.498016,0 0,-0.5462119 -0.3759262,0 m 0.3759262,0.8353828 0.414478,0 c 0.02785,1.4e-6 0.05784,0.00214 0.08997,0.00643 0.03427,0.00429 0.06641,0.013925 0.0964,0.028917 0.03213,0.012854 0.06104,0.032132 0.08675,0.057834 0.02785,0.023563 0.05141,0.054623 0.07069,0.093178 0.0065,0.012854 0.01714,0.049267 0.03213,0.109243 0.01714,0.059977 0.0257,0.1574385 0.0257,0.292384 -10e-7,0.1135267 -0.0075,0.1970654 -0.02249,0.2506149 -0.01285,0.051409 -0.02463,0.088894 -0.03534,0.1124558 -0.02142,0.042841 -0.04819,0.076042 -0.08032,0.099603 -0.02999,0.02142 -0.06105,0.038556 -0.09318,0.051409 -0.03213,0.010709 -0.06426,0.017136 -0.09638,0.019278 -0.03213,0.00214 -0.06105,0.00322 -0.08675,0.00322 l -0.273106,0 c -0.01928,3e-7 -0.03856,-0.00107 -0.05784,-0.00322 -0.01714,-0.00428 -0.03213,-0.012851 -0.04498,-0.025704 -0.01499,-0.017136 -0.02356,-0.035342 -0.02571,-0.054622 -10e-7,-0.02142 -10e-7,-0.040698 0,-0.057834 l 0,-0.9831814" />
    <path
       inkscape:connector-curvature="0"
       id="path5605-3-7-4"
       style="font-size:2.53816223px;font-style:normal;font-variant:normal;font-weight:normal;font-stretch:normal;text-align:start;line-height:125%;letter-spacing:0px;word-spacing:0px;writing-mode:lr-tb;text-anchor:start;fill:#000000;fill-opacity:1;stroke:none;font-family:MagistralC;-inkscape-font-specification:MagistralC"
       d="m 13.472215,-6.9633707 -0.382348,0 -0.578343,1.3012693 -0.546211,-1.3076953 -0.388775,0 0.758271,1.6964697 -0.260255,0.5558508 0.38235,0 1.015311,-2.2458945" />
    <path
       inkscape:connector-curvature="0"
       style="font-size:2.53816223px;font-style:normal;font-variant:normal;font-weight:normal;font-stretch:normal;text-align:start;line-height:125%;letter-spacing:0px;word-spacing:0px;writing-mode:lr-tb;text-anchor:start;fill:#000000;fill-opacity:1;stroke:none;font-family:MagistralC;-inkscape-font-specification:MagistralC"
       d="m 13.982982,-6.5649573 0,-0.4048394 -0.391987,0 0,0.4048394 0.391987,0"
       id="path5654-5-0-5" />
    <path
       inkscape:connector-curvature="0"
       id="path5610"
       style="font-size:2.79979992px;font-style:normal;font-variant:normal;font-weight:normal;font-stretch:normal;text-align:start;line-height:125%;letter-spacing:0px;word-spacing:0px;writing-mode:lr-tb;text-anchor:start;fill:#000000;fill-opacity:1;stroke:none;font-family:MagistralC;-inkscape-font-specification:MagistralC"
       d="m 10.156172,-3.8340318 c 0.005,-0.014938 0.01369,-0.032368 0.02615,-0.052291 0.01241,-0.022408 0.02489,-0.033614 0.03736,-0.033616 0.0075,2e-6 0.01618,0.00497 0.02615,0.01494 0.01241,0.00747 0.01867,0.028639 0.01867,0.063497 l -0.01494,2.035637 0.493034,0 0,-2.30083 c -3e-6,-0.1195215 -0.03984,-0.2066739 -0.119518,-0.261458 -0.07968,-0.05478 -0.180534,-0.082171 -0.302544,-0.082173 -0.04732,2.5e-6 -0.09213,0.00373 -0.134465,0.011205 -0.04233,0.00747 -0.08343,0.023658 -0.123254,0.048556 -0.03985,0.022414 -0.077184,0.056029 -0.1120476,0.1008484 -0.032375,0.042333 -0.062252,0.1008503 -0.089642,0.1755503 L 9.1850693,-2.369868 c -0.012446,0.027391 -0.024903,0.051047 -0.037349,0.070968 -0.010011,0.017431 -0.021161,0.026147 -0.033618,0.026147 -0.012446,5e-7 -0.024903,-0.00872 -0.037349,-0.026147 -0.010012,-0.01992 -0.021161,-0.043576 -0.033618,-0.070968 L 8.3670437,-4.1141665 c -0.01743,-0.04482 -0.037349,-0.08715 -0.059765,-0.1269936 -0.022405,-0.042329 -0.051049,-0.078435 -0.085911,-0.108318 -0.032375,-0.032369 -0.074708,-0.057269 -0.1269936,-0.074702 -0.049805,-0.017429 -0.1120552,-0.026144 -0.1867557,-0.026147 -0.019921,2.6e-6 -0.053537,0.0025 -0.1008483,0.00747 -0.044822,0.0025 -0.090888,0.014942 -0.1381993,0.037351 -0.047311,0.022414 -0.089643,0.057274 -0.1269936,0.1045822 -0.037351,0.044823 -0.056026,0.1095654 -0.056026,0.194226 l 0,2.30083 0.4930344,0 -0.011202,-2.035637 c -1.1e-6,-0.00497 0.00127,-0.018672 0.00369,-0.041087 0.00495,-0.024898 0.01743,-0.03735 0.037349,-0.037351 0.012446,2.1e-6 0.024903,0.011205 0.037349,0.033616 0.012446,0.019924 0.021161,0.037352 0.026147,0.052291 l 0.6685863,1.7442981 c 0.014934,0.042331 0.03112,0.082173 0.048552,0.1195242 0.017431,0.037351 0.039836,0.070967 0.067226,0.1008483 0.02739,0.027391 0.061009,0.049802 0.1008441,0.067231 0.042334,0.017431 0.094626,0.026147 0.1568749,0.026147 0.057267,0 0.1058268,-0.00747 0.1456701,-0.022412 0.039836,-0.012447 0.073455,-0.032372 0.1008442,-0.059763 0.02739,-0.027391 0.049795,-0.059762 0.067236,-0.097113 0.019918,-0.03984 0.039835,-0.084662 0.059765,-0.1344642 l 0.6685838,-1.7442979" />
    <path
       inkscape:connector-curvature="0"
       id="path5612"
       style="font-size:2.79979992px;font-style:normal;font-variant:normal;font-weight:normal;font-stretch:normal;text-align:start;line-height:125%;letter-spacing:0px;word-spacing:0px;writing-mode:lr-tb;text-anchor:start;fill:#000000;fill-opacity:1;stroke:none;font-family:MagistralC;-inkscape-font-specification:MagistralC"
       d="m 12.909652,-1.8058651 0,-0.3361601 -0.967396,0 c -0.03984,3e-7 -0.08093,-0.0025 -0.123255,-0.00747 -0.03984,-0.00497 -0.07844,-0.01494 -0.115783,-0.02988 -0.03735,-0.017429 -0.06971,-0.041085 -0.09712,-0.070968 -0.02739,-0.032372 -0.04856,-0.074702 -0.06351,-0.1269936 -0.0075,-0.02988 -0.0137,-0.072212 -0.01867,-0.1269934 -0.005,-0.054781 -0.0075,-0.1033366 -0.0075,-0.1456696 l 1.150416,0 c 0.03984,9e-7 0.07718,-0.00497 0.112048,-0.01494 0.03735,-0.00997 0.07096,-0.02988 0.100845,-0.059762 0.04233,-0.04233 0.06848,-0.089641 0.07844,-0.1419344 0.01001,-0.054781 0.01494,-0.107072 0.01494,-0.1568748 -1e-6,-0.062249 -0.0037,-0.1232569 -0.01121,-0.1830205 -0.0075,-0.062249 -0.02241,-0.1207675 -0.04482,-0.1755504 -0.01992,-0.05727 -0.04857,-0.1095613 -0.0859,-0.1568748 -0.03486,-0.04731 -0.08093,-0.089642 -0.1382,-0.1269937 -0.09213,-0.05727 -0.195472,-0.092131 -0.310014,-0.1045821 -0.112047,-0.014938 -0.2266,-0.022408 -0.34363,-0.022411 -0.04732,1.9e-6 -0.102099,0.00124 -0.164345,0.00373 -0.06225,0.0025 -0.126991,0.00997 -0.194227,0.022412 -0.06724,0.00997 -0.134465,0.027392 -0.201695,0.052291 -0.06474,0.024903 -0.12451,0.061009 -0.179286,0.108318 -0.05478,0.047313 -0.09836,0.099606 -0.130725,0.1568749 -0.02988,0.057273 -0.05354,0.1207701 -0.07097,0.1904907 -0.01494,0.067234 -0.0249,0.1419356 -0.02989,0.2241069 -0.0025,0.079684 -0.0037,0.1655911 -0.0037,0.2577228 0,0.131975 0.0075,0.2614588 0.02242,0.3884519 0.01494,0.1269949 0.05478,0.2378025 0.119519,0.3324251 0.03984,0.057271 0.08465,0.1033375 0.134464,0.1381992 0.0498,0.032372 0.100844,0.057271 0.153138,0.074702 0.05229,0.017431 0.105832,0.028636 0.160611,0.033616 0.05478,0.0025 0.107073,0.00373 0.156874,0.00373 l 1.098125,0 m -1.393198,-1.180296 c 0.0025,-0.064741 0.0062,-0.1245029 0.0112,-0.1792856 0.0075,-0.05727 0.03362,-0.1108073 0.07843,-0.1606098 0.02989,-0.03237 0.06225,-0.05727 0.09712,-0.074702 0.03735,-0.019919 0.07471,-0.033614 0.112049,-0.041087 0.03735,-0.00747 0.07346,-0.011205 0.108312,-0.011205 0.03486,-0.0025 0.06724,-0.00373 0.09712,-0.00373 0.06225,1.8e-6 0.125748,0.00497 0.190491,0.01494 0.06722,0.00747 0.128244,0.032373 0.18302,0.074702 0.03236,0.024903 0.06101,0.059764 0.08591,0.1045832 0.02739,0.044823 0.04109,0.098359 0.04109,0.1606099 -2e-6,0.027392 -0.0062,0.053537 -0.01867,0.078438 -0.01001,0.024902 -0.03612,0.037352 -0.07843,0.037351 l -0.907633,0" />
    <path
       inkscape:connector-curvature="0"
       id="path5614"
       style="font-size:2.79979992px;font-style:normal;font-variant:normal;font-weight:normal;font-stretch:normal;text-align:start;line-height:125%;letter-spacing:0px;word-spacing:0px;writing-mode:lr-tb;text-anchor:start;fill:#000000;fill-opacity:1;stroke:none;font-family:MagistralC;-inkscape-font-specification:MagistralC"
       d="m 13.217797,-1.8058651 0.437008,0 0,-2.6145796 -0.437008,0 0,2.6145796" />
    <path
       inkscape:connector-curvature="0"
       id="path5616"
       style="font-size:2.79979992px;font-style:normal;font-variant:normal;font-weight:normal;font-stretch:normal;text-align:start;line-height:125%;letter-spacing:0px;word-spacing:0px;writing-mode:lr-tb;text-anchor:start;fill:#000000;fill-opacity:1;stroke:none;font-family:MagistralC;-inkscape-font-specification:MagistralC"
       d="m 14.16751,-3.7854755 -0.45195,0 0.754494,1.8264708 c 0.01744,0.044822 0.03984,0.079683 0.06723,0.1045822 0.02739,0.022412 0.05478,0.038596 0.08218,0.048555 0.02989,0.012447 0.05851,0.018675 0.0859,0.018675 0.02739,0.0025 0.05103,0.00373 0.07097,0.00373 0.02739,0 0.05478,-0.00124 0.08218,-0.00373 0.02989,-0.0025 0.05727,-0.00872 0.08218,-0.018675 0.02739,-0.012447 0.05229,-0.02988 0.07471,-0.052291 0.0249,-0.024901 0.04607,-0.058516 0.06351,-0.1008484 l 0.754493,-1.8264707 -0.451949,0 -0.552797,1.4678998 c -0.005,0.014942 -0.01241,0.032372 -0.02242,0.052291 -0.01001,0.01743 -0.01992,0.026147 -0.02989,0.026147 -0.01001,5e-7 -0.01992,-0.00872 -0.02989,-0.026147 -0.01001,-0.019921 -0.01743,-0.037351 -0.02241,-0.052291 L 14.1675,-3.7854761" />
    <path
       inkscape:connector-curvature="0"
       id="path5618"
       style="font-size:2.79979992px;font-style:normal;font-variant:normal;font-weight:normal;font-stretch:normal;text-align:start;line-height:125%;letter-spacing:0px;word-spacing:0px;writing-mode:lr-tb;text-anchor:start;fill:#000000;fill-opacity:1;stroke:none;font-family:MagistralC;-inkscape-font-specification:MagistralC"
       d="m 15.988493,-3.7854755 0,0.3361603 0.974866,0 c 0.03486,1.7e-6 0.07097,0.00497 0.108312,0.01494 0.03984,0.00997 0.0747,0.033617 0.104575,0.070967 0.02489,0.029883 0.03984,0.061009 0.04482,0.093377 0.0075,0.032373 0.01121,0.063499 0.01121,0.093377 l 0,0.1381993 -0.859075,0 c -0.05229,1.3e-6 -0.110808,0.00623 -0.175551,0.018675 -0.06225,0.00997 -0.124508,0.042333 -0.186755,0.097113 -0.07471,0.064743 -0.122015,0.1394451 -0.141935,0.2241068 -0.01744,0.084664 -0.02615,0.170571 -0.02615,0.2577229 0,0.037352 0.0013,0.079683 0.0037,0.1269936 0.0025,0.047311 0.0087,0.095868 0.01867,0.1456694 0.01241,0.049802 0.02989,0.098358 0.05229,0.1456694 0.0249,0.044822 0.05727,0.084662 0.0971,0.1195242 0.05727,0.049802 0.117037,0.078438 0.179286,0.085907 0.06474,0.00747 0.124509,0.011205 0.179285,0.011205 l 0.944985,0 c 0.04731,0 0.09587,-0.00373 0.145669,-0.011205 0.04979,-0.00997 0.09213,-0.032372 0.12699,-0.067232 0.03486,-0.034861 0.05604,-0.077192 0.06351,-0.1269936 0.01001,-0.0498 0.01494,-0.092132 0.01494,-0.1269936 l 0,-1.0271564 c -2e-6,-0.1120521 -0.0137,-0.2066748 -0.04109,-0.2838686 -0.02739,-0.079681 -0.06225,-0.1406875 -0.104575,-0.1830206 -0.04482,-0.04731 -0.103342,-0.084661 -0.17555,-0.1120534 -0.07221,-0.027389 -0.150651,-0.041084 -0.235313,-0.041087 l -1.12427,0 m 1.243793,1.083183 0,0.4556839 c -1e-6,0.014941 -0.0013,0.029882 -0.0037,0.044822 -0.0025,0.012447 -0.0112,0.024902 -0.02614,0.037351 -0.01494,0.012447 -0.03237,0.019922 -0.05229,0.022412 -0.01744,4e-7 -0.03237,4e-7 -0.04482,0 l -0.608823,0 c -0.02739,4e-7 -0.05478,-0.00623 -0.08218,-0.018675 -0.0249,-0.012447 -0.04482,-0.026146 -0.05976,-0.041087 -0.02739,-0.02739 -0.04482,-0.063497 -0.05229,-0.1083181 -0.005,-0.044821 -0.0075,-0.082172 -0.0075,-0.1120534 0,-0.072212 0.0062,-0.1232582 0.01868,-0.1531397 0.01241,-0.02988 0.02241,-0.0498 0.02989,-0.059762 0.0249,-0.03237 0.05354,-0.051045 0.0859,-0.056026 0.03486,-0.00747 0.05976,-0.011205 0.07471,-0.011205 l 0.728347,0" />
    <path
       inkscape:connector-curvature="0"
       id="path5620"
       style="font-size:2.79979992px;font-style:normal;font-variant:normal;font-weight:normal;font-stretch:normal;text-align:start;line-height:125%;letter-spacing:0px;word-spacing:0px;writing-mode:lr-tb;text-anchor:start;fill:#000000;fill-opacity:1;stroke:none;font-family:MagistralC;-inkscape-font-specification:MagistralC"
       d="m 17.966938,-1.8058651 0.437008,0 0,-1.5388669 c -1e-6,-0.012447 -1e-6,-0.026145 0,-0.041087 0.0025,-0.014938 0.01001,-0.028635 0.02241,-0.041087 0.01241,-0.012447 0.02489,-0.018674 0.03735,-0.018675 0.01241,-0.0025 0.02489,-0.00373 0.03735,-0.00373 l 0.44448,0 c 0.07968,1.7e-6 0.143177,0.00997 0.190491,0.02988 0.04979,0.017432 0.09089,0.047313 0.123253,0.089643 0.03486,0.047312 0.05728,0.1020951 0.06723,0.164345 0.01001,0.059764 0.01494,0.1220149 0.01494,0.1867557 l 0,1.1728258 0.437008,0 0,-1.3035548 c -1e-6,-0.1369527 -0.01992,-0.2452708 -0.05976,-0.3249549 -0.03735,-0.079681 -0.08218,-0.1431775 -0.134464,-0.1904907 -0.07968,-0.072211 -0.165591,-0.1170323 -0.257723,-0.1344642 -0.09213,-0.017428 -0.190492,-0.026145 -0.295073,-0.026147 l -0.698467,0 c -0.04233,2e-6 -0.09339,0.00373 -0.153139,0.011205 -0.05727,0.00497 -0.107071,0.031128 -0.149405,0.078438 -0.02989,0.032373 -0.04856,0.068479 -0.05604,0.108318 -0.005,0.039843 -0.0075,0.074704 -0.0075,0.1045822 l 0,1.6770662" />
    <path
       inkscape:connector-curvature="0"
       id="path5622"
       style="font-size:2.79979992px;font-style:normal;font-variant:normal;font-weight:normal;font-stretch:normal;text-align:start;line-height:125%;letter-spacing:0px;word-spacing:0px;writing-mode:lr-tb;text-anchor:start;fill:#000000;fill-opacity:1;stroke:none;font-family:MagistralC;-inkscape-font-specification:MagistralC"
       d="m 20.161141,-1.1522201 0.933779,0 c 0.03486,-7e-7 0.07968,-0.0025 0.134464,-0.00747 0.05727,-0.00497 0.117037,-0.016186 0.179284,-0.033616 0.06225,-0.014942 0.12451,-0.038597 0.186757,-0.070967 0.06225,-0.029881 0.115783,-0.072213 0.160611,-0.1269937 0.06474,-0.079683 0.107072,-0.1743054 0.126989,-0.2838686 0.02241,-0.1095627 0.03362,-0.2278418 0.03362,-0.3548358 l 0,-1.3894625 c -10e-7,-0.04233 -0.0075,-0.089641 -0.02242,-0.1419342 -0.01241,-0.05478 -0.04359,-0.1033365 -0.09337,-0.1456696 -0.04732,-0.03735 -0.09836,-0.059759 -0.15314,-0.067231 -0.05478,-0.00747 -0.110808,-0.011205 -0.16808,-0.011205 l -0.638703,0 c -0.0498,2.1e-6 -0.100855,0.0025 -0.153141,0.00747 -0.05229,0.0025 -0.104595,0.011205 -0.156876,0.026147 -0.05229,0.012447 -0.103331,0.033618 -0.153138,0.063498 -0.04979,0.027392 -0.09836,0.067235 -0.145671,0.1195242 -0.08715,0.094625 -0.144424,0.2029428 -0.171814,0.3249548 -0.0249,0.122015 -0.03735,0.2614592 -0.03735,0.4183328 -3e-6,0.3511014 0.05103,0.6063339 0.153137,0.7656985 0.03735,0.059762 0.07968,0.1070732 0.126991,0.1419342 0.04979,0.032372 0.100844,0.057271 0.153137,0.074702 0.05229,0.01494 0.104575,0.0249 0.156876,0.02988 0.05478,0.00497 0.108313,0.00747 0.160609,0.00747 l 0.702203,0 c -0.01241,0.094622 -0.05104,0.17057 -0.115784,0.227842 -0.05229,0.042331 -0.114542,0.067231 -0.186755,0.074702 -0.07221,0.00997 -0.13198,0.01494 -0.179287,0.01494 l -0.832929,0 0,0.3361603 m 1.318494,-0.9898052 -0.51918,0 c -0.06474,4e-7 -0.130726,-0.00497 -0.197961,-0.01494 -0.06724,-0.00997 -0.125749,-0.043576 -0.175551,-0.1008483 -0.01241,-0.012447 -0.0249,-0.031125 -0.03735,-0.056026 -0.01241,-0.024901 -0.02489,-0.057271 -0.03735,-0.097113 -0.01001,-0.042332 -0.01868,-0.093376 -0.02614,-0.1531397 -0.0075,-0.062251 -0.01121,-0.1381983 -0.01121,-0.2278419 0,-0.022409 0,-0.056025 0,-0.1008484 0.0025,-0.04731 0.0075,-0.097111 0.01494,-0.1494045 0.0075,-0.05229 0.01868,-0.1033365 0.03362,-0.1531397 0.01742,-0.052289 0.04109,-0.095866 0.07097,-0.1307289 0.03486,-0.039839 0.08218,-0.069722 0.141932,-0.089642 0.05976,-0.022409 0.12575,-0.033614 0.197963,-0.033616 l 0.373512,0 c 0.01992,1.6e-6 0.0386,0.0025 0.05604,0.00747 0.01992,0.0025 0.03984,0.00997 0.05976,0.02241 0.02489,0.017432 0.03984,0.036107 0.04482,0.056026 0.0075,0.019922 0.01121,0.043578 0.01121,0.070968 l 0,1.1504151" />
    <path
       inkscape:connector-curvature="0"
       id="path5624"
       style="font-size:2.79979992px;font-style:normal;font-variant:normal;font-weight:normal;font-stretch:normal;text-align:start;line-height:125%;letter-spacing:0px;word-spacing:0px;writing-mode:lr-tb;text-anchor:start;fill:#000000;fill-opacity:1;stroke:none;font-family:MagistralC;-inkscape-font-specification:MagistralC"
       d="m 28.430507,-3.8340318 c 0.005,-0.014938 0.01369,-0.032368 0.02615,-0.052291 0.01241,-0.022408 0.02489,-0.033614 0.03735,-0.033616 0.0075,2e-6 0.01617,0.00497 0.02615,0.01494 0.01241,0.00747 0.01868,0.028639 0.01868,0.063497 l -0.01494,2.035637 0.493035,0 0,-2.30083 c -4e-6,-0.1195215 -0.03984,-0.2066739 -0.119518,-0.261458 -0.07968,-0.05478 -0.180535,-0.082171 -0.302543,-0.082173 -0.04732,2.5e-6 -0.09213,0.00373 -0.134464,0.011205 -0.04233,0.00747 -0.08343,0.023658 -0.123255,0.048556 -0.03985,0.022414 -0.07718,0.056029 -0.112048,0.1008484 -0.03237,0.042333 -0.06226,0.1008503 -0.08965,0.1755503 l -0.676055,1.7442981 c -0.01241,0.027391 -0.0249,0.051047 -0.03736,0.070968 -0.01002,0.017431 -0.02118,0.026147 -0.03362,0.026147 -0.01241,5e-7 -0.0249,-0.00872 -0.03735,-0.026147 -0.01001,-0.01992 -0.02118,-0.043576 -0.03362,-0.070968 l -0.676056,-1.7442981 c -0.01743,-0.04482 -0.03735,-0.08715 -0.05976,-0.1269937 -0.02241,-0.042329 -0.05103,-0.078435 -0.08591,-0.108318 -0.03237,-0.032369 -0.07471,-0.057269 -0.12699,-0.074702 -0.0498,-0.017428 -0.112061,-0.026143 -0.186756,-0.026147 -0.01992,2.6e-6 -0.05354,0.0025 -0.100844,0.00747 -0.04482,0.0025 -0.09089,0.014943 -0.138198,0.037351 -0.04731,0.022414 -0.08965,0.057275 -0.12699,0.1045832 -0.03736,0.044823 -0.05604,0.1095654 -0.05604,0.1942259 l 0,2.3008301 0.493036,0 -0.01121,-2.035637 c -1e-6,-0.00497 0.0013,-0.018673 0.0037,-0.041087 0.005,-0.024898 0.01743,-0.03735 0.03735,-0.037351 0.01241,2e-6 0.02489,0.011205 0.03735,0.033616 0.01241,0.019924 0.02116,0.037352 0.02614,0.052291 l 0.668586,1.7442982 c 0.01494,0.042331 0.03112,0.082173 0.04856,0.1195242 0.01742,0.037351 0.03983,0.070967 0.06723,0.1008483 0.02739,0.027391 0.06101,0.049802 0.100844,0.067232 0.04233,0.017431 0.09462,0.026147 0.156875,0.026147 0.05727,0 0.105831,-0.00747 0.145669,-0.022411 0.03984,-0.012447 0.07346,-0.032372 0.100844,-0.059762 0.02739,-0.027391 0.04979,-0.059762 0.06724,-0.097113 0.01992,-0.03984 0.03984,-0.084662 0.05976,-0.134464 l 0.668584,-1.7442981" />
    <path
       inkscape:connector-curvature="0"
       id="path5626"
       style="font-size:2.79979992px;font-style:normal;font-variant:normal;font-weight:normal;font-stretch:normal;text-align:start;line-height:125%;letter-spacing:0px;word-spacing:0px;writing-mode:lr-tb;text-anchor:start;fill:#000000;fill-opacity:1;stroke:none;font-family:MagistralC;-inkscape-font-specification:MagistralC"
       d="m 30.735773,-4.4503256 c -0.07968,2.5e-6 -0.165591,0.00124 -0.257722,0.00373 -0.08965,0.0025 -0.180533,0.012447 -0.272664,0.02988 -0.09213,0.017433 -0.183021,0.044823 -0.272663,0.082173 -0.08715,0.037354 -0.166836,0.090889 -0.239048,0.1606098 -0.07221,0.067235 -0.128243,0.1444267 -0.168079,0.2315771 -0.03984,0.084665 -0.06972,0.1743074 -0.08964,0.2689282 -0.01992,0.092135 -0.03237,0.1867574 -0.03735,0.2838687 -0.005,0.094624 -0.0075,0.1867571 -0.0075,0.2763983 0,0.074703 0.0013,0.1581211 0.0037,0.2502527 0.005,0.092135 0.01618,0.1867566 0.03362,0.2838686 0.01992,0.094624 0.04979,0.1880013 0.08964,0.2801337 0.04233,0.092133 0.100844,0.1743055 0.17555,0.2465174 0.07221,0.069723 0.151895,0.1232596 0.239048,0.1606099 0.08963,0.037351 0.180529,0.064742 0.272662,0.082173 0.09462,0.01743 0.186755,0.027391 0.276399,0.02988 0.09213,0.0025 0.176793,0.00373 0.253988,0.00373 0.0747,0 0.158119,-0.00124 0.250252,-0.00373 0.09213,-0.0025 0.184265,-0.012447 0.276399,-0.02988 0.09462,-0.017431 0.185509,-0.044822 0.272663,-0.082173 0.08963,-0.037351 0.170568,-0.090887 0.242782,-0.1606099 0.06723,-0.064741 0.12076,-0.1406888 0.160609,-0.227842 0.03984,-0.087151 0.06971,-0.1780396 0.08965,-0.2726632 0.01992,-0.094622 0.03236,-0.1892449 0.03736,-0.2838687 0.0075,-0.097111 0.01121,-0.1892445 0.01121,-0.2763985 -3e-6,-0.084661 -0.0025,-0.1755487 -0.0075,-0.2726632 -0.005,-0.097112 -0.01868,-0.1929792 -0.04109,-0.2876038 -0.01993,-0.094621 -0.04979,-0.1855085 -0.08965,-0.2726633 -0.03984,-0.08715 -0.09338,-0.1630978 -0.160608,-0.227842 -0.07221,-0.069719 -0.153143,-0.1232567 -0.242783,-0.1606098 -0.08715,-0.037349 -0.178042,-0.064739 -0.272662,-0.082173 -0.09213,-0.017429 -0.184268,-0.027389 -0.2764,-0.02988 -0.08965,-0.00248 -0.173061,-0.00373 -0.250252,-0.00373 m -0.836665,1.3371707 c -10e-7,-0.2016946 0.01368,-0.3573242 0.04109,-0.4668894 0.02989,-0.1120506 0.06971,-0.2004489 0.119518,-0.2651929 0.07718,-0.094621 0.174305,-0.1531375 0.291341,-0.1755504 0.117037,-0.024898 0.244025,-0.037349 0.380981,-0.037351 0.134462,2.2e-6 0.261456,0.012447 0.380982,0.037351 0.119518,0.022413 0.217879,0.080929 0.295073,0.1755504 0.01992,0.024903 0.03984,0.056027 0.05976,0.093377 0.01992,0.037352 0.03735,0.084665 0.05229,0.1419342 0.01494,0.057275 0.02614,0.1269949 0.03362,0.2091664 0.01001,0.079684 0.01494,0.1755518 0.01494,0.2876038 -1e-6,0.1045842 -0.005,0.1967171 -0.01494,0.2763984 -0.0075,0.079684 -0.01868,0.1481604 -0.03362,0.2054313 -0.01494,0.057272 -0.03237,0.1058287 -0.05229,0.1456694 -0.01744,0.039841 -0.03736,0.073458 -0.05976,0.1008484 -0.03984,0.049802 -0.08465,0.089643 -0.134463,0.1195242 -0.0498,0.027391 -0.104597,0.048558 -0.164346,0.063497 -0.05727,0.014942 -0.118279,0.024902 -0.18302,0.02988 -0.06226,0.0025 -0.127003,0.00373 -0.194226,0.00373 -0.06724,3e-7 -0.13322,-0.00124 -0.197961,-0.00373 -0.06474,-0.00497 -0.125749,-0.01494 -0.18302,-0.02988 -0.05727,-0.01494 -0.110808,-0.036106 -0.160611,-0.063497 -0.0498,-0.02988 -0.09339,-0.06972 -0.130726,-0.1195242 -0.02241,-0.02739 -0.04356,-0.05976 -0.06351,-0.097113 -0.01744,-0.03984 -0.03362,-0.088397 -0.04857,-0.1456696 -0.01494,-0.05976 -0.02739,-0.1282382 -0.03735,-0.2054312 -0.0075,-0.079681 -0.01121,-0.173059 -0.01121,-0.2801336" />
    <path
       inkscape:connector-curvature="0"
       id="path5628"
       style="font-size:2.79979992px;font-style:normal;font-variant:normal;font-weight:normal;font-stretch:normal;text-align:start;line-height:125%;letter-spacing:0px;word-spacing:0px;writing-mode:lr-tb;text-anchor:start;fill:#000000;fill-opacity:1;stroke:none;font-family:MagistralC;-inkscape-font-specification:MagistralC"
       d="m 34.46651,-1.8058651 0,-0.3921869 -1.546336,0 c -0.01241,4e-7 -0.02365,-0.0025 -0.03362,-0.00747 -0.0075,-0.00497 -0.01121,-0.016185 -0.01121,-0.033616 0,-0.01494 0.0037,-0.027391 0.01121,-0.037351 0.0075,-0.00997 0.01617,-0.01992 0.02615,-0.029881 l 1.44549,-1.5239259 c 0.03735,-0.039839 0.07095,-0.082171 0.100844,-0.1269936 0.03236,-0.044819 0.04857,-0.1095615 0.04857,-0.1942259 -2e-6,-0.052288 -0.0087,-0.095866 -0.02615,-0.130729 -0.01744,-0.03486 -0.03984,-0.062248 -0.06723,-0.082173 -0.02739,-0.022408 -0.05852,-0.037349 -0.09338,-0.044822 -0.03486,-0.00747 -0.07097,-0.011205 -0.108325,-0.011205 l -1.878763,0 0,0.3921869 1.460431,0 c 0.02989,2.3e-6 0.04857,0.00623 0.05604,0.018675 0.01001,0.012447 0.01494,0.022413 0.01494,0.02988 -2e-6,0.012447 -0.005,0.026148 -0.01494,0.041087 -0.0075,0.012447 -0.01744,0.024903 -0.02989,0.037351 l -1.426813,1.4753699 c -0.03735,0.039842 -0.07346,0.088398 -0.108313,0.1456694 -0.03486,0.057273 -0.05229,0.125749 -0.05229,0.2054313 0,0.064742 0.01241,0.1157887 0.03736,0.1531397 0.02739,0.034861 0.05976,0.061007 0.0971,0.078438 0.03735,0.01743 0.07596,0.028636 0.115784,0.033616 0.04233,0.0025 0.07844,0.00373 0.108312,0.00373 l 1.875027,0" />
    <path
       inkscape:connector-curvature="0"
       style="fill:#000000;fill-opacity:1;stroke:none;display:inline"
       d="m 24.262349,-3.2066319 c 0,0.239979 -0.194542,0.4345206 -0.434521,0.4345206 -0.239979,0 -0.43452,-0.1945416 -0.43452,-0.4345206 0,-0.239979 0.194541,-0.4345203 0.43452,-0.4345203 0.239979,0 0.434521,0.1945413 0.434521,0.4345203 z"
       id="path4592-2-8" />
    <path
       inkscape:connector-curvature="0"
       style="font-size:2.53816223px;font-style:normal;font-variant:normal;font-weight:normal;font-stretch:normal;text-align:start;line-height:125%;letter-spacing:0px;word-spacing:0px;writing-mode:lr-tb;text-anchor:start;fill:#000000;fill-opacity:1;stroke:none;font-family:MagistralC;-inkscape-font-specification:MagistralC"
       d="m 13.978162,-5.7143586 0,-0.3948817 -0.382346,0 0,0.3948817 0.382346,0"
       id="path5607-3-4" />
  </g>
  <g
     inkscape:groupmode="layer"
     id="layer39"
     inkscape:label="Paste"
     transform="translate(2.0049098,7.5160141)"
     style="display:inline" />
  <g
     inkscape:groupmode="layer"
     id="layer38"
     inkscape:label="Adhes"
     transform="translate(2.0049098,7.5160141)"
     style="display:inline" />
  <g
     inkscape:groupmode="layer"
     id="layer2"
     inkscape:label="Cu"
     style="display:inline"
     transform="translate(-88.282107,-142.72377)">
    <g
       inkscape:groupmode="layer"
       id="layer6"
       inkscape:label="Initials"
       style="display:inline" />
    <g
       inkscape:groupmode="layer"
       id="layer7"
       inkscape:label="border"
       style="display:inline" />
  </g>
</svg>
