<?xml version="1.0" encoding="UTF-8" standalone="no"?>
<!-- Created with Inkscape (http://www.inkscape.org/) -->

<svg
   xmlns:dc="http://purl.org/dc/elements/1.1/"
   xmlns:cc="http://creativecommons.org/ns#"
   xmlns:rdf="http://www.w3.org/1999/02/22-rdf-syntax-ns#"
   xmlns:svg="http://www.w3.org/2000/svg"
   xmlns="http://www.w3.org/2000/svg"
   xmlns:sodipodi="http://sodipodi.sourceforge.net/DTD/sodipodi-0.dtd"
   xmlns:inkscape="http://www.inkscape.org/namespaces/inkscape"
   inkscape:export-ydpi="10160"
   inkscape:export-xdpi="10160"
   inkscape:export-filename="/home/mike/git/keyboard-pcbs/amoeba/dt.copper.png"
   sodipodi:docname="osh-logo.svg"
   inkscape:version="0.48.5 r10040"
   version="1.1"
   id="svg3350"
   height="17.716539"
   width="19.587704">
  <defs
     id="defs3352" />
  <sodipodi:namedview
     id="base"
     pagecolor="#ffffff"
     bordercolor="#666666"
     borderopacity="1.0"
     inkscape:pageopacity="0.0"
     inkscape:pageshadow="2"
     inkscape:zoom="16"
     inkscape:cx="7.570788"
     inkscape:cy="10.791313"
     inkscape:document-units="px"
     inkscape:current-layer="layer1"
     showgrid="false"
     fit-margin-top="0"
     fit-margin-left="0"
     fit-margin-right="0"
     fit-margin-bottom="0"
     inkscape:window-width="1364"
     inkscape:window-height="747"
     inkscape:window-x="0"
     inkscape:window-y="19"
     inkscape:window-maximized="0"
     inkscape:snap-bbox="true"
     inkscape:snap-page="true"
     inkscape:snap-global="false"
     inkscape:object-paths="true"
     showborder="false"
     inkscape:showpageshadow="false"
     borderlayer="false">
    <inkscape:grid
       type="xygrid"
       id="grid8870"
       empspacing="5"
       visible="true"
       enabled="true"
       snapvisiblegridlinesonly="true"
       originx="-14.664759px"
       originy="2.500922px" />
  </sodipodi:namedview>
  <metadata
     id="metadata3355">
    <rdf:RDF>
      <cc:Work
         rdf:about="">
        <dc:format>image/svg+xml</dc:format>
        <dc:type
           rdf:resource="http://purl.org/dc/dcmitype/StillImage" />
        <dc:title />
      </cc:Work>
    </rdf:RDF>
  </metadata>
  <g
     inkscape:groupmode="layer"
     id="layer24"
     inkscape:label="Pretty"
     transform="translate(-15.550588,5.5912698)">
    <g
       inkscape:groupmode="layer"
       id="layer25"
       inkscape:label="Fab" />
    <g
       inkscape:groupmode="layer"
       id="layer26"
       inkscape:label="CrtYd" />
  </g>
  <g
     inkscape:groupmode="layer"
     id="layer17"
     inkscape:label="Legacy"
     transform="translate(-15.550588,5.5912698)">
    <g
       inkscape:groupmode="layer"
       id="layer23"
       inkscape:label="Edge.Cuts" />
    <g
       inkscape:groupmode="layer"
       id="layer18"
       inkscape:label="User">
      <g
         inkscape:groupmode="layer"
         id="layer19"
         inkscape:label="Eco2.User" />
      <g
         inkscape:groupmode="layer"
         id="layer20"
         inkscape:label="Eco1.User" />
      <g
         inkscape:groupmode="layer"
         id="layer21"
         inkscape:label="Cmts.User" />
      <g
         inkscape:groupmode="layer"
         id="layer22"
         inkscape:label="Dwgs.User" />
    </g>
  </g>
  <g
     inkscape:groupmode="layer"
     id="layer1"
     inkscape:label="Mask"
     style="display:inline"
     transform="translate(-15.550588,5.5912698)">
    <path
       style="fill:#f6e9ff;fill-opacity:1;display:inline"
       d="M 9.65625 0 C 9.4768139 0.013268148 9.2955718 0.06432 9.09375 0.09375 C 7.966094 0.2581869 7.602573 0.5503915 7.53125 1.34375 C 7.48786 1.8264477 7.551142 2.4136007 7.25 2.78125 C 7.094149 2.9715225 6.769201 3.1514715 6.5625 3.03125 C 5.914349 2.6542722 5.37604 1.9505234 4.59375 1.875 C 3.796972 1.798078 3.466797 2.4019272 2.96875 2.90625 C 2.616101 3.2633422 1.974645 3.7816491 1.90625 4.34375 C 1.80854 5.14676 2.445531 5.6899349 2.84375 6.28125 C 2.957357 6.4499459 3.060306 6.5687707 2.9375 6.78125 C 2.797781 7.022993 2.7687 7.3200917 2.40625 7.34375 C 1.663485 7.392233 0.673791 7.4360761 0.28125 8.15625 C -0.161889 8.9692554 0.03436 9.7338179 0.09375 10.8125 C 0.13692 11.59648 0.915252 12.08109 1.65625 12.125 C 1.987173 12.14461 2.452897 12.048454 2.65625 12.3125 C 2.871821 12.592414 3.132111 13.008418 2.78125 13.375 C 2.276984 13.90186 1.645386 14.678189 1.9375 15.4375 C 2.277982 16.322536 3.120865 16.863297 3.78125 17.5 C 4.342678 18.041295 5.362212 17.234588 6.0625 16.90625 C 6.304134 16.792957 6.469059 16.83164 7.25 16.84375 C 7.5159214 16.847873 7.7161703 16.840789 7.96875 16.84375 L 8.8125 14.84375 L 9.8125 12.46875 L 10.8125 14.84375 L 11.65625 16.875 C 11.747419 16.875752 11.845602 16.874147 11.9375 16.875 C 12.22792 16.8777 13.23142 16.85916 13.65625 16.96875 C 14.408355 17.162769 14.580702 17.917986 15.4375 17.65625 C 16.278022 17.399488 16.642366 16.732805 17.34375 16.03125 C 17.857303 15.517571 17.827094 14.651192 17.375 14.09375 C 17.110532 13.767656 16.667485 13.486024 16.65625 13.0625 C 16.64665 12.700228 16.837201 12.247357 17.3125 12.21875 C 18.063912 12.17352 19.076133 12.081465 19.40625 11.28125 C 19.725593 10.507151 19.51367 9.759901 19.53125 8.84375 C 19.54543 8.1050045 18.869381 7.5478209 18.15625 7.46875 C 17.742616 7.422887 17.19826 7.5474192 16.90625 7.25 C 16.705646 7.04568 16.458956 6.6816042 16.71875 6.375 C 17.232689 5.7684587 17.94917 4.9905416 17.65625 4.125 C 17.385203 3.3240934 16.481366 2.7052144 16.0625 2.28125 C 15.544933 1.7573828 14.666612 1.7754211 14.09375 2.25 C 13.754839 2.5307661 13.441762 3.0038263 13 3 C 12.741578 2.99776 12.313715 2.9518336 12.28125 2.59375 C 12.20621 1.7660571 12.271975 0.4689283 11.375 0.21875 C 10.670932 0.022376825 10.194558 -0.039804445 9.65625 0 z M 9.8125 8.3125 C 10.623668 8.3125 11.28125 8.970082 11.28125 9.78125 C 11.28125 10.592419 10.623668 11.25 9.8125 11.25 C 9.0013318 11.25 8.34375 10.592419 8.34375 9.78125 C 8.34375 8.970082 9.0013318 8.3125 9.8125 8.3125 z "
       transform="translate(15.550588,-5.5912698)"
       id="path3024-5" />
  </g>
  <g
     inkscape:groupmode="layer"
     id="layer6"
     inkscape:label="SilkS"
     style="display:inline"
     transform="translate(-15.550588,5.5912698)" />
  <g
     inkscape:groupmode="layer"
     id="layer10"
     inkscape:label="Paste"
     transform="translate(-15.550588,5.5912698)" />
  <g
     inkscape:groupmode="layer"
     id="layer5"
     inkscape:label="Adhes"
     style="display:inline"
     transform="translate(-15.550588,5.5912698)" />
  <g
     inkscape:groupmode="layer"
     id="layer2"
     inkscape:label="Cu"
     transform="translate(-13.77893,7.0476504)"
     style="display:inline">
    <path
       style="fill:#ffdb7c;fill-opacity:1"
       id="path3024-5-0"
       inkscape:connector-curvature="0"
       d="m 32.182594,1.5313094 -0.203943,-0.037999 c -0.05201,-0.00969 -0.137176,-0.025432 -0.189225,-0.035113 L 30.050614,1.1347737 c -0.05205,-0.00968 -0.10526,-0.05986 -0.126119,-0.1085134 l -0.653677,-1.52467098 c -0.02087,-0.0486802 -0.01971,-0.12117548 0.01029,-0.1648865 L 30.29727,-2.1440048 c 0.02996,-0.04365 0.07886,-0.1151353 0.108801,-0.1587298 l 0.117462,-0.1710432 c 0.02986,-0.043482 0.02367,-0.109856 -0.01376,-0.1472819 0,0 -0.09774,-0.097739 -0.146608,-0.1466086 -0.04534,-0.045342 -0.09068,-0.090684 -0.136027,-0.1360265 -0.141702,-0.1417021 -0.283404,-0.283405 -0.425106,-0.4251071 -0.04534,-0.045342 -0.09069,-0.090679 -0.136027,-0.1360265 -0.141654,-0.1416861 -0.28326,-0.2834211 -0.424914,-0.425107 -0.04537,-0.045379 -0.09074,-0.090756 -0.136124,-0.1361227 -0.04889,-0.048877 -0.146704,-0.1466085 -0.146704,-0.1466085 -0.03739,-0.037364 -0.103696,-0.043567 -0.147282,-0.01366 l -0.171043,0.1173639 c -0.0437,0.029985 -0.115006,0.078956 -0.158634,0.1088981 l -1.512454,1.0379962 c -0.04363,0.029943 -0.116681,0.032071 -0.165656,0.012025 l -1.47811,-0.6050007 c -0.04896,-0.020039 -0.09923,-0.072797 -0.108896,-0.1247718 l -0.337181,-1.8122122 c -0.0097,-0.05203 -0.02541,-0.137214 -0.03511,-0.1891292 l -0.0381,-0.2039432 c -0.0097,-0.051929 -0.0609,-0.094468 -0.113709,-0.094468 -0.06914,0 -0.138271,0 -0.207407,0 -0.06413,0 -0.128267,0 -0.1924,0 -0.200416,0 -0.400833,0 -0.601249,0 -0.06413,0 -0.128265,0 -0.192398,0 -0.200416,0 -0.400833,0 -0.601249,0 -0.06413,0 -0.128267,0 -0.1924,0 -0.0691,0 -0.138207,0 -0.207311,0 -0.05291,0 -0.104009,0.042535 -0.113708,0.094564 l -0.038,0.2038471 c -0.0097,0.051951 -0.02543,0.1370966 -0.03511,0.1891292 l -0.337277,1.8122122 c -0.0097,0.051954 -0.05985,0.1046954 -0.108897,0.1247712 l -1.478111,0.6050007 c -0.04897,0.020045 -0.122028,0.017917 -0.165656,-0.012025 l -1.512453,-1.0379962 c -0.0437,-0.029989 -0.115003,-0.07896 -0.158634,-0.1088981 l -0.171044,-0.1173639 c -0.04359,-0.029908 -0.109895,-0.023701 -0.147281,0.01366 0,0 -0.09782,0.097722 -0.146706,0.1466085 -0.04536,0.045359 -0.09068,0.090754 -0.136025,0.1361227 -0.141685,0.1417518 -0.283396,0.2834772 -0.425107,0.4252032 -0.04534,0.045345 -0.09069,0.090684 -0.136028,0.1360266 -0.14167,0.1416698 -0.28334,0.2833405 -0.42501,0.4250108 -0.04534,0.045342 -0.09068,0.090684 -0.136026,0.1360265 -0.04887,0.04887 -0.146609,0.1466086 -0.146609,0.1466086 -0.03742,0.037421 -0.04357,0.103695 -0.01366,0.1472819 l 0.117364,0.1710432 c 0.02992,0.043606 0.07885,0.1150786 0.108802,0.1587298 l 1.016159,1.48070762 c 0.03,0.0437157 0.03114,0.1162431 0.01029,0.1648865 L 17.265369,1.0262603 c -0.02087,0.048683 -0.07416,0.098832 -0.126214,0.1085134 l -1.738812,0.3234238 c -0.05205,0.00968 -0.137212,0.025422 -0.189225,0.035113 l -0.203944,0.037999 c -0.05206,0.0097 -0.09458,0.060894 -0.09456,0.1139006 0,0 6e-5,0.1382711 7.2e-5,0.2074067 1.1e-5,0.064133 0,0.1282664 0,0.1923996 0,0.2004163 0,0.4008326 0,0.6012489 0,0.064133 0,0.1282665 0,0.1923997 0,0.2003522 0,0.4007043 0,0.6010565 0,0.064133 0,0.1282664 0,0.1923996 0,0.069104 0,0.1382071 0,0.2073106 0,0.05291 0.04263,0.10413 0.09466,0.1138044 l 0.203847,0.037903 c 0.05205,0.00968 0.137176,0.02562 0.189226,0.035305 l 1.686479,0.3138039 c 0.05204,0.00968 0.103849,0.060229 0.123522,0.1093792 L 17.859573,6.07146 c 0.01963,0.049049 0.01772,0.1221199 -0.01222,0.1657522 L 16.89238,7.6288389 c -0.02998,0.043693 -0.07907,0.1150586 -0.108899,0.1585373 l -0.117459,0.1712356 c -0.02987,0.043545 -0.02377,0.1098733 0.01366,0.1472819 0,0 0.09781,0.097731 0.146704,0.1466083 0.04535,0.045335 0.09069,0.090685 0.136027,0.1360271 0.141766,0.1417664 0.283533,0.283533 0.425299,0.4252993 0.04534,0.045342 0.09068,0.090687 0.136027,0.1360265 0.14163,0.141614 0.283309,0.2831796 0.424914,0.4248186 0.04535,0.045364 0.09066,0.090771 0.136027,0.1361226 0.04891,0.048894 0.146802,0.1466083 0.146802,0.1466083 0.03735,0.037298 0.103691,0.043466 0.147281,0.013564 L 18.54971,9.553701 c 0.04359,-0.029903 0.115028,-0.078877 0.158634,-0.1088021 l 1.36142,-0.9342927 c 0.04359,-0.029911 0.116104,-0.031472 0.162096,-0.00558 l 0.282636,0.1591149 c 0.04606,0.025928 0.123265,0.06506 0.170369,0.089177 l 0.292736,0.1498789 c 0.04718,0.024158 0.102337,0.00378 0.122559,-0.045117 l 0.125636,-0.3037991 c 0.02022,-0.048902 0.05346,-0.1288807 0.07369,-0.1777777 l 1.181046,-2.8541524 c 0.02017,-0.048733 0.05351,-0.1287634 0.07369,-0.1775848 l 0.0836,-0.2022121 C 22.65804,5.09365 22.637746,5.0311596 22.592612,5.0035453 L 22.405976,4.8893559 c -0.03439,-0.021044 -0.07662,-0.063302 -0.117941,-0.090332 -0.669155,-0.4376718 -1.119862,-1.1854704 -1.119862,-2.0442462 0,-1.3402559 1.08648,-2.42673675 2.426641,-2.42673675 1.340255,0 2.426736,1.08648085 2.426736,2.42673675 0,0.858872 -0.450828,1.6065351 -1.119958,2.0442462 -0.04127,0.026995 -0.08344,0.069213 -0.11794,0.090332 l -0.186533,0.1141893 c -0.04504,0.027573 -0.06543,0.090148 -0.04521,0.1390086 l 0.08369,0.2022121 c 0.02022,0.048861 0.05335,0.1288838 0.0735,0.1775848 l 1.181045,2.8541524 c 0.02023,0.048897 0.05335,0.1289221 0.07359,0.1777777 l 0.125828,0.3037991 c 0.02025,0.04889 0.07539,0.069277 0.122559,0.045117 L 26.50476,8.753318 c 0.04725,-0.024201 0.124415,-0.063242 0.170468,-0.089177 l 0.282537,-0.1591149 c 0.04606,-0.02594 0.11861,-0.02433 0.162194,0.00558 l 1.36142,0.9342927 c 0.04354,0.02988 0.115062,0.079013 0.158537,0.1088021 l 0.17114,0.1172675 c 0.04361,0.02988 0.109956,0.023761 0.147282,-0.013564 0.03486,-0.034861 0.09774,-0.097739 0.146608,-0.1466083 0.04537,-0.045374 0.09075,-0.090746 0.136123,-0.1361226 0.141646,-0.1416621 0.283268,-0.2833488 0.424914,-0.4250109 0.04534,-0.045345 0.09068,-0.090689 0.136027,-0.1360264 0.141751,-0.1417183 0.28355,-0.2833881 0.4253,-0.4251071 0.04535,-0.045337 0.09067,-0.0907 0.136025,-0.1360271 0.04892,-0.048886 0.146802,-0.1466083 0.146802,-0.1466083 0.03735,-0.037298 0.04346,-0.1036874 0.01356,-0.1472819 L 30.406265,7.7873762 C 30.376413,7.7438476 30.327322,7.6724875 30.297366,7.6288389 L 29.342294,6.2372122 C 29.312382,6.1936284 29.31041,6.1205891 29.330074,6.07146 l 0.649157,-1.6218328 c 0.01968,-0.049177 0.07158,-0.099715 0.12352,-0.1093792 l 1.686575,-0.3138039 c 0.05205,-0.00968 0.137175,-0.025622 0.189225,-0.035305 l 0.203752,-0.037903 c 0.05203,-0.00968 0.09456,-0.060894 0.09456,-0.1138044 0,-0.069104 0,-0.1382071 0,-0.2073106 0,-0.064133 0,-0.1282664 0,-0.1923996 0,-0.2003522 0,-0.4007043 0,-0.6010565 0,-0.064133 -4e-6,-0.1282665 0,-0.1923997 1.2e-5,-0.2004163 6e-5,-0.4008326 7.2e-5,-0.6012489 4e-6,-0.064133 -1.1e-5,-0.1282665 0,-0.1923997 1.2e-5,-0.069136 7.3e-5,-0.2074067 7.3e-5,-0.2074067 1.9e-5,-0.053006 -0.04242,-0.1040882 -0.09447,-0.1139006"
       sodipodi:nodetypes="cssssssssssssssssssssssssssssssssssssssssssssssssssssssssssssssssssssssssssssssssssssssssssssssssssssssssssssssssssssssssssssssssssssssssssssssssssssssssc" />
  </g>
</svg>
