<?xml version="1.0" encoding="UTF-8" standalone="no"?>
<!-- Created with Inkscape (http://www.inkscape.org/) -->

<svg
   xmlns:dc="http://purl.org/dc/elements/1.1/"
   xmlns:cc="http://creativecommons.org/ns#"
   xmlns:rdf="http://www.w3.org/1999/02/22-rdf-syntax-ns#"
   xmlns:svg="http://www.w3.org/2000/svg"
   xmlns="http://www.w3.org/2000/svg"
   xmlns:sodipodi="http://sodipodi.sourceforge.net/DTD/sodipodi-0.dtd"
   xmlns:inkscape="http://www.inkscape.org/namespaces/inkscape"
   inkscape:export-ydpi="10160"
   inkscape:export-xdpi="10160"
   inkscape:export-filename="/home/mike/git/keyboard-pcbs/amoeba/dt.copper.png"
   sodipodi:docname="osh-logo.svg"
   inkscape:version="0.48.5 r10040"
   version="1.1"
   id="svg3350"
   height="17.716539"
   width="19.587704">
  <defs
     id="defs3352" />
  <sodipodi:namedview
     id="base"
     pagecolor="#ffffff"
     bordercolor="#666666"
     borderopacity="1.0"
     inkscape:pageopacity="0.0"
     inkscape:pageshadow="2"
     inkscape:zoom="32"
     inkscape:cx="13.523174"
     inkscape:cy="8.5946138"
     inkscape:document-units="px"
     inkscape:current-layer="layer1"
     showgrid="false"
     fit-margin-top="0"
     fit-margin-left="0"
     fit-margin-right="0"
     fit-margin-bottom="0"
     inkscape:window-width="1364"
     inkscape:window-height="747"
     inkscape:window-x="0"
     inkscape:window-y="19"
     inkscape:window-maximized="0"
     inkscape:snap-bbox="true"
     inkscape:snap-page="true"
     inkscape:snap-global="false"
     inkscape:object-paths="true"
     showborder="false"
     inkscape:showpageshadow="false"
     borderlayer="false">
    <inkscape:grid
       type="xygrid"
       id="grid8870"
       empspacing="5"
       visible="true"
       enabled="true"
       snapvisiblegridlinesonly="true"
       originx="-14.664759px"
       originy="2.500922px" />
  </sodipodi:namedview>
  <metadata
     id="metadata3355">
    <rdf:RDF>
      <cc:Work
         rdf:about="">
        <dc:format>image/svg+xml</dc:format>
        <dc:type
           rdf:resource="http://purl.org/dc/dcmitype/StillImage" />
        <dc:title></dc:title>
      </cc:Work>
    </rdf:RDF>
  </metadata>
  <g
     inkscape:groupmode="layer"
     id="layer24"
     inkscape:label="Pretty"
     transform="translate(-15.550588,5.5912698)">
    <g
       inkscape:groupmode="layer"
       id="layer25"
       inkscape:label="Fab" />
    <g
       inkscape:groupmode="layer"
       id="layer26"
       inkscape:label="CrtYd" />
  </g>
  <g
     inkscape:groupmode="layer"
     id="layer17"
     inkscape:label="Legacy"
     transform="translate(-15.550588,5.5912698)">
    <g
       inkscape:groupmode="layer"
       id="layer23"
       inkscape:label="Edge.Cuts" />
    <g
       inkscape:groupmode="layer"
       id="layer18"
       inkscape:label="User">
      <g
         inkscape:groupmode="layer"
         id="layer19"
         inkscape:label="Eco2.User" />
      <g
         inkscape:groupmode="layer"
         id="layer20"
         inkscape:label="Eco1.User" />
      <g
         inkscape:groupmode="layer"
         id="layer21"
         inkscape:label="Cmts.User" />
      <g
         inkscape:groupmode="layer"
         id="layer22"
         inkscape:label="Dwgs.User" />
    </g>
  </g>
  <g
     inkscape:groupmode="layer"
     id="layer1"
     inkscape:label="Mask"
     style="display:inline"
     transform="translate(-15.550588,5.5912698)">
    <path
       style="fill:#f6e9ff;fill-opacity:1;display:inline"
       d="m 24.630655,-5.5126206 c -1.127656,0.1644369 -1.475927,0.4692879 -1.54725,1.2626464 -0.04339,0.4826977 0.03235,1.0734388 -0.268792,1.4410881 -0.155851,0.1902725 -0.495773,0.3641675 -0.702474,0.243946 -0.648151,-0.3769778 -1.196383,-1.0741848 -1.978673,-1.1497082 -0.796778,-0.076922 -1.110189,0.5324474 -1.608236,1.0367702 -0.352649,0.3570922 -0.99548,0.8609172 -1.063875,1.4230181 -0.09771,0.80301003 0.533649,1.34911513 0.931868,1.94043023 0.113607,0.1686959 0.222276,0.2953561 0.09947,0.50783537 -0.139719,0.241743 -0.16423,0.537159 -0.52668,0.5608173 -0.742765,0.048483 -1.740683,0.092563 -2.133224,0.8127369 -0.443139,0.8130054 -0.246867,1.5911707 -0.187477,2.6698528 0.04317,0.78398 0.822064,1.259394 1.563062,1.303304 0.330923,0.01961 0.795018,-0.07431 0.998371,0.189736 0.215571,0.279914 0.483335,0.689357 0.132474,1.055939 -0.504266,0.52686 -1.13158,1.308613 -0.839466,2.067924 0.340482,0.8850364 1.18728,1.4052154 1.847665,2.0419184 0.561428,0.541295 1.552004,-0.242729 2.252292,-0.571067 0.241634,-0.113293 0.435024,-0.08408 1.215965,-0.07197 1.734347,0.02689 3.1519,0.02573 4.683603,0.03995 0.29042,0.0027 1.285094,-0.037 1.709924,0.07259 0.752105,0.194019 0.918542,0.968418 1.77534,0.706682 0.840522,-0.256762 1.205009,-0.942821 1.906393,-1.644376 0.513553,-0.5136794 0.488234,-1.3579864 0.03614,-1.9154284 -0.264468,-0.326094 -0.713827,-0.604211 -0.725062,-1.027735 -0.0096,-0.362272 0.182,-0.822945 0.657299,-0.851552 0.751412,-0.04523 1.763752,-0.139428 2.093869,-0.939643 0.319343,-0.774099 0.124722,-1.5391206 0.142302,-2.4552716 0.01418,-0.7387455 -0.680523,-1.2716688 -1.393654,-1.3507397 -0.413634,-0.045863 -0.943531,0.064767 -1.235541,-0.2326522 -0.200604,-0.20432 -0.456306,-0.5765705 -0.196512,-0.88317467 0.513939,-0.6065413 1.237081,-1.3774058 0.944161,-2.24294743 -0.271047,-0.8009066 -1.180335,-1.416924 -1.599201,-1.8408884 -0.517567,-0.5238672 -1.399034,-0.4971669 -1.971896,-0.022588 -0.338911,0.2807661 -0.665029,0.7537342 -1.106791,0.7499079 -0.258422,-0.00224 -0.660974,-0.066563 -0.693439,-0.4246466 -0.07504,-0.8276929 -0.02234,-2.1170012 -0.919315,-2.3671795 -0.938758,-0.2618309 -1.485353,-0.2532455 -2.29264,-0.1355255 z"
       id="path3024-5"
       inkscape:connector-curvature="0"
       sodipodi:nodetypes="ssssssssssssssssssssssssssssssssssssss" />
  </g>
  <g
     inkscape:groupmode="layer"
     id="layer6"
     inkscape:label="SilkS"
     style="display:inline"
     transform="translate(-15.550588,5.5912698)" />
  <g
     inkscape:groupmode="layer"
     id="layer10"
     inkscape:label="Paste"
     transform="translate(-15.550588,5.5912698)" />
  <g
     inkscape:groupmode="layer"
     id="layer5"
     inkscape:label="Adhes"
     style="display:inline"
     transform="translate(-15.550588,5.5912698)" />
  <g
     inkscape:groupmode="layer"
     id="layer2"
     inkscape:label="Cu"
     transform="translate(-13.77893,7.0476504)"
     style="display:inline">
    <path
       style="fill:#ffdb7c;fill-opacity:1"
       id="path3024-5-0"
       inkscape:connector-curvature="0"
       d="m 32.182594,1.5313094 -0.203943,-0.037999 c -0.05201,-0.00969 -0.137176,-0.025432 -0.189225,-0.035113 L 30.050614,1.1347737 c -0.05205,-0.00968 -0.10526,-0.05986 -0.126119,-0.1085134 l -0.653677,-1.52467098 c -0.02087,-0.0486802 -0.01971,-0.12117548 0.01029,-0.1648865 L 30.29727,-2.1440048 c 0.02996,-0.04365 0.07886,-0.1151353 0.108801,-0.1587298 l 0.117462,-0.1710432 c 0.02986,-0.043482 0.02367,-0.109856 -0.01376,-0.1472819 0,0 -0.09774,-0.097739 -0.146608,-0.1466086 -0.04534,-0.045342 -0.09068,-0.090684 -0.136027,-0.1360265 -0.141702,-0.1417021 -0.283404,-0.283405 -0.425106,-0.4251071 -0.04534,-0.045342 -0.09069,-0.090679 -0.136027,-0.1360265 -0.141654,-0.1416861 -0.28326,-0.2834211 -0.424914,-0.425107 -0.04537,-0.045379 -0.09074,-0.090756 -0.136124,-0.1361227 -0.04889,-0.048877 -0.146704,-0.1466085 -0.146704,-0.1466085 -0.03739,-0.037364 -0.103696,-0.043567 -0.147282,-0.01366 l -0.171043,0.1173639 c -0.0437,0.029985 -0.115006,0.078956 -0.158634,0.1088981 l -1.512454,1.0379962 c -0.04363,0.029943 -0.116681,0.032071 -0.165656,0.012025 l -1.47811,-0.6050007 c -0.04896,-0.020039 -0.09923,-0.072797 -0.108896,-0.1247718 l -0.337181,-1.8122122 c -0.0097,-0.05203 -0.02541,-0.137214 -0.03511,-0.1891292 l -0.0381,-0.2039432 c -0.0097,-0.051929 -0.0609,-0.094468 -0.113709,-0.094468 -0.06914,0 -0.138271,0 -0.207407,0 -0.06413,0 -0.128267,0 -0.1924,0 -0.200416,0 -0.400833,0 -0.601249,0 -0.06413,0 -0.128265,0 -0.192398,0 -0.200416,0 -0.400833,0 -0.601249,0 -0.06413,0 -0.128267,0 -0.1924,0 -0.0691,0 -0.138207,0 -0.207311,0 -0.05291,0 -0.104009,0.042535 -0.113708,0.094564 l -0.038,0.2038471 c -0.0097,0.051951 -0.02543,0.1370966 -0.03511,0.1891292 l -0.337277,1.8122122 c -0.0097,0.051954 -0.05985,0.1046954 -0.108897,0.1247712 l -1.478111,0.6050007 c -0.04897,0.020045 -0.122028,0.017917 -0.165656,-0.012025 l -1.512453,-1.0379962 c -0.0437,-0.029989 -0.115003,-0.07896 -0.158634,-0.1088981 l -0.171044,-0.1173639 c -0.04359,-0.029908 -0.109895,-0.023701 -0.147281,0.01366 0,0 -0.09782,0.097722 -0.146706,0.1466085 -0.04536,0.045359 -0.09068,0.090754 -0.136025,0.1361227 -0.141685,0.1417518 -0.283396,0.2834772 -0.425107,0.4252032 -0.04534,0.045345 -0.09069,0.090684 -0.136028,0.1360266 -0.14167,0.1416698 -0.28334,0.2833405 -0.42501,0.4250108 -0.04534,0.045342 -0.09068,0.090684 -0.136026,0.1360265 -0.04887,0.04887 -0.146609,0.1466086 -0.146609,0.1466086 -0.03742,0.037421 -0.04357,0.103695 -0.01366,0.1472819 l 0.117364,0.1710432 c 0.02992,0.043606 0.07885,0.1150786 0.108802,0.1587298 l 1.016159,1.48070762 c 0.03,0.0437157 0.03114,0.1162431 0.01029,0.1648865 L 17.265369,1.0262603 c -0.02087,0.048683 -0.07416,0.098832 -0.126214,0.1085134 l -1.738812,0.3234238 c -0.05205,0.00968 -0.137212,0.025422 -0.189225,0.035113 l -0.203944,0.037999 c -0.05206,0.0097 -0.09458,0.060894 -0.09456,0.1139006 0,0 6e-5,0.1382711 7.2e-5,0.2074067 1.1e-5,0.064133 0,0.1282664 0,0.1923996 0,0.2004163 0,0.4008326 0,0.6012489 0,0.064133 0,0.1282665 0,0.1923997 0,0.2003522 0,0.4007043 0,0.6010565 0,0.064133 0,0.1282664 0,0.1923996 0,0.069104 0,0.1382071 0,0.2073106 0,0.05291 0.04263,0.10413 0.09466,0.1138044 l 0.203847,0.037903 c 0.05205,0.00968 0.137176,0.02562 0.189226,0.035305 l 1.686479,0.3138039 c 0.05204,0.00968 0.103849,0.060229 0.123522,0.1093792 L 17.859573,6.07146 c 0.01963,0.049049 0.01772,0.1221199 -0.01222,0.1657522 L 16.89238,7.6288389 c -0.02998,0.043693 -0.07907,0.1150586 -0.108899,0.1585373 l -0.117459,0.1712356 c -0.02987,0.043545 -0.02377,0.1098733 0.01366,0.1472819 0,0 0.09781,0.097731 0.146704,0.1466083 0.04535,0.045335 0.09069,0.090685 0.136027,0.1360271 0.141766,0.1417664 0.283533,0.283533 0.425299,0.4252993 0.04534,0.045342 0.09068,0.090687 0.136027,0.1360265 0.14163,0.141614 0.283309,0.2831796 0.424914,0.4248186 0.04535,0.045364 0.09066,0.090771 0.136027,0.1361226 0.04891,0.048894 0.146802,0.1466083 0.146802,0.1466083 0.03735,0.037298 0.103691,0.043466 0.147281,0.013564 L 18.54971,9.553701 c 0.04359,-0.029903 0.115028,-0.078877 0.158634,-0.1088021 l 1.36142,-0.9342927 c 0.04359,-0.029911 0.116104,-0.031472 0.162096,-0.00558 l 0.282636,0.1591149 c 0.04606,0.025928 0.123265,0.06506 0.170369,0.089177 l 0.292736,0.1498789 c 0.04718,0.024158 0.102337,0.00378 0.122559,-0.045117 l 0.125636,-0.3037991 c 0.02022,-0.048902 0.05346,-0.1288807 0.07369,-0.1777777 l 1.181046,-2.8541524 c 0.02017,-0.048733 0.05351,-0.1287634 0.07369,-0.1775848 l 0.0836,-0.2022121 C 22.65804,5.09365 22.637746,5.0311596 22.592612,5.0035453 L 22.405976,4.8893559 c -0.03439,-0.021044 -0.07662,-0.063302 -0.117941,-0.090332 -0.669155,-0.4376718 -1.119862,-1.1854704 -1.119862,-2.0442462 0,-1.3402559 1.08648,-2.42673675 2.426641,-2.42673675 1.340255,0 2.426736,1.08648085 2.426736,2.42673675 0,0.858872 -0.450828,1.6065351 -1.119958,2.0442462 -0.04127,0.026995 -0.08344,0.069213 -0.11794,0.090332 l -0.186533,0.1141893 c -0.04504,0.027573 -0.06543,0.090148 -0.04521,0.1390086 l 0.08369,0.2022121 c 0.02022,0.048861 0.05335,0.1288838 0.0735,0.1775848 l 1.181045,2.8541524 c 0.02023,0.048897 0.05335,0.1289221 0.07359,0.1777777 l 0.125828,0.3037991 c 0.02025,0.04889 0.07539,0.069277 0.122559,0.045117 L 26.50476,8.753318 c 0.04725,-0.024201 0.124415,-0.063242 0.170468,-0.089177 l 0.282537,-0.1591149 c 0.04606,-0.02594 0.11861,-0.02433 0.162194,0.00558 l 1.36142,0.9342927 c 0.04354,0.02988 0.115062,0.079013 0.158537,0.1088021 l 0.17114,0.1172675 c 0.04361,0.02988 0.109956,0.023761 0.147282,-0.013564 0.03486,-0.034861 0.09774,-0.097739 0.146608,-0.1466083 0.04537,-0.045374 0.09075,-0.090746 0.136123,-0.1361226 0.141646,-0.1416621 0.283268,-0.2833488 0.424914,-0.4250109 0.04534,-0.045345 0.09068,-0.090689 0.136027,-0.1360264 0.141751,-0.1417183 0.28355,-0.2833881 0.4253,-0.4251071 0.04535,-0.045337 0.09067,-0.0907 0.136025,-0.1360271 0.04892,-0.048886 0.146802,-0.1466083 0.146802,-0.1466083 0.03735,-0.037298 0.04346,-0.1036874 0.01356,-0.1472819 L 30.406265,7.7873762 C 30.376413,7.7438476 30.327322,7.6724875 30.297366,7.6288389 L 29.342294,6.2372122 C 29.312382,6.1936284 29.31041,6.1205891 29.330074,6.07146 l 0.649157,-1.6218328 c 0.01968,-0.049177 0.07158,-0.099715 0.12352,-0.1093792 l 1.686575,-0.3138039 c 0.05205,-0.00968 0.137175,-0.025622 0.189225,-0.035305 l 0.203752,-0.037903 c 0.05203,-0.00968 0.09456,-0.060894 0.09456,-0.1138044 0,-0.069104 0,-0.1382071 0,-0.2073106 0,-0.064133 0,-0.1282664 0,-0.1923996 0,-0.2003522 0,-0.4007043 0,-0.6010565 0,-0.064133 -4e-6,-0.1282665 0,-0.1923997 1.2e-5,-0.2004163 6e-5,-0.4008326 7.2e-5,-0.6012489 4e-6,-0.064133 -1.1e-5,-0.1282665 0,-0.1923997 1.2e-5,-0.069136 7.3e-5,-0.2074067 7.3e-5,-0.2074067 1.9e-5,-0.053006 -0.04242,-0.1040882 -0.09447,-0.1139006"
       sodipodi:nodetypes="cssssssssssssssssssssssssssssssssssssssssssssssssssssssssssssssssssssssssssssssssssssssssssssssssssssssssssssssssssssssssssssssssssssssssssssssssssssssssc" />
  </g>
</svg>
