G04 (created by PCBNEW (2013-may-18)-stable) date Sun 23 Aug 2015 09:56:08 PM EDT*
%MOIN*%
G04 Gerber Fmt 3.4, Leading zero omitted, Abs format*
%FSLAX34Y34*%
G01*
G70*
G90*
G04 APERTURE LIST*
%ADD10C,0.00590551*%
%ADD11C,0.065*%
%ADD12C,0.0590551*%
%ADD13C,0.066*%
%ADD14R,0.055X0.055*%
%ADD15C,0.055*%
%ADD16C,0.09*%
%ADD17R,0.0551X0.0906*%
%ADD18C,0.035*%
%ADD19C,0.01*%
G04 APERTURE END LIST*
G54D10*
G54D11*
X96000Y-44500D03*
X100000Y-44500D03*
G54D12*
X98000Y-41500D03*
X97000Y-41500D03*
X95500Y-45500D03*
X95500Y-42000D03*
X95500Y-46500D03*
X96500Y-46500D03*
X108500Y-42000D03*
X108500Y-45500D03*
X102000Y-41500D03*
X103000Y-41500D03*
G54D13*
X97500Y-45500D03*
X98500Y-45500D03*
G54D14*
X99500Y-45500D03*
G54D15*
X96500Y-45500D03*
G54D16*
X99000Y-41500D03*
X96500Y-42500D03*
G54D12*
X100500Y-46500D03*
X99500Y-46500D03*
G54D17*
X104712Y-44740D03*
X106287Y-42260D03*
X104713Y-42260D03*
X106287Y-44740D03*
G54D18*
X99425Y-42475D03*
X99000Y-44500D03*
X97350Y-44500D03*
X96500Y-44000D03*
G54D19*
X99425Y-42475D02*
X99000Y-42900D01*
X99000Y-42900D02*
X99000Y-44500D01*
X98500Y-45500D02*
X99500Y-46500D01*
X95500Y-46500D02*
X96000Y-46000D01*
X98000Y-46000D02*
X96300Y-46000D01*
X98000Y-46000D02*
X98500Y-45500D01*
X96000Y-46000D02*
X96300Y-46000D01*
X100700Y-45750D02*
X101450Y-46500D01*
X99500Y-45000D02*
X99950Y-45000D01*
X99950Y-45000D02*
X100700Y-45750D01*
X107500Y-46500D02*
X108500Y-45500D01*
X101450Y-46500D02*
X107500Y-46500D01*
X96700Y-45000D02*
X99500Y-45000D01*
X96225Y-45000D02*
X96700Y-45000D01*
X99500Y-45000D02*
X100000Y-44500D01*
X95500Y-45475D02*
X95750Y-45475D01*
X95750Y-45475D02*
X96225Y-45000D01*
X98000Y-41500D02*
X98000Y-41650D01*
X97150Y-42500D02*
X96500Y-42500D01*
X98000Y-41650D02*
X97150Y-42500D01*
X96000Y-44500D02*
X97350Y-44500D01*
X103000Y-41500D02*
X103000Y-43028D01*
X103000Y-43028D02*
X104712Y-44740D01*
X102000Y-41500D02*
X102000Y-45250D01*
X105327Y-45700D02*
X106287Y-44740D01*
X102450Y-45700D02*
X105327Y-45700D01*
X102000Y-45250D02*
X102450Y-45700D01*
X96500Y-43650D02*
X96500Y-44000D01*
X98650Y-41500D02*
X96500Y-43650D01*
X99000Y-41500D02*
X98650Y-41500D01*
G54D10*
G36*
X95282Y-45999D02*
X95191Y-46037D01*
X95069Y-46159D01*
X95069Y-45840D01*
X95190Y-45961D01*
X95282Y-45999D01*
X95282Y-45999D01*
G37*
G54D19*
X95282Y-45999D02*
X95191Y-46037D01*
X95069Y-46159D01*
X95069Y-45840D01*
X95190Y-45961D01*
X95282Y-45999D01*
G54D10*
G36*
X96014Y-45700D02*
X96007Y-45700D01*
X96010Y-45691D01*
X96014Y-45700D01*
X96014Y-45700D01*
G37*
G54D19*
X96014Y-45700D02*
X96007Y-45700D01*
X96010Y-45691D01*
X96014Y-45700D01*
G54D10*
G36*
X96059Y-46830D02*
X95940Y-46830D01*
X95961Y-46809D01*
X95999Y-46717D01*
X96037Y-46808D01*
X96059Y-46830D01*
X96059Y-46830D01*
G37*
G54D19*
X96059Y-46830D02*
X95940Y-46830D01*
X95961Y-46809D01*
X95999Y-46717D01*
X96037Y-46808D01*
X96059Y-46830D01*
G54D10*
G36*
X96525Y-43200D02*
X96517Y-43208D01*
X96513Y-43200D01*
X96525Y-43200D01*
X96525Y-43200D01*
G37*
G54D19*
X96525Y-43200D02*
X96517Y-43208D01*
X96513Y-43200D01*
X96525Y-43200D01*
G54D10*
G36*
X96734Y-41019D02*
X96691Y-41037D01*
X96538Y-41190D01*
X96454Y-41391D01*
X96454Y-41607D01*
X96533Y-41800D01*
X96361Y-41799D01*
X96104Y-41906D01*
X96045Y-41964D01*
X96045Y-41892D01*
X95962Y-41691D01*
X95809Y-41538D01*
X95608Y-41454D01*
X95392Y-41454D01*
X95191Y-41537D01*
X95038Y-41690D01*
X94954Y-41891D01*
X94954Y-42107D01*
X95037Y-42308D01*
X95190Y-42461D01*
X95391Y-42545D01*
X95607Y-42545D01*
X95800Y-42466D01*
X95799Y-42638D01*
X95906Y-42896D01*
X95925Y-42914D01*
X95884Y-42914D01*
X95871Y-42920D01*
X95857Y-42920D01*
X95691Y-42989D01*
X95689Y-42995D01*
X95669Y-43003D01*
X95504Y-43168D01*
X95495Y-43189D01*
X95489Y-43191D01*
X95454Y-43287D01*
X95415Y-43383D01*
X95415Y-43396D01*
X95410Y-43409D01*
X95414Y-43512D01*
X95414Y-43615D01*
X95420Y-43628D01*
X95420Y-43642D01*
X95489Y-43808D01*
X95495Y-43810D01*
X95503Y-43830D01*
X95668Y-43995D01*
X95689Y-44004D01*
X95689Y-44006D01*
X95674Y-44012D01*
X95512Y-44173D01*
X95425Y-44385D01*
X95424Y-44613D01*
X95512Y-44825D01*
X95664Y-44977D01*
X95608Y-44954D01*
X95392Y-44954D01*
X95191Y-45037D01*
X95038Y-45190D01*
X94954Y-45391D01*
X94954Y-45418D01*
X94884Y-45314D01*
X94810Y-45239D01*
X94809Y-45239D01*
X94656Y-45137D01*
X94656Y-45136D01*
X94569Y-45100D01*
X94569Y-44154D01*
X94634Y-44127D01*
X94780Y-44030D01*
X94854Y-43955D01*
X94855Y-43955D01*
X94951Y-43810D01*
X94952Y-43809D01*
X94992Y-43712D01*
X95027Y-43540D01*
X95027Y-43540D01*
X95027Y-43539D01*
X95027Y-43487D01*
X95027Y-43435D01*
X95027Y-43434D01*
X95027Y-43434D01*
X94992Y-43262D01*
X94952Y-43165D01*
X94951Y-43164D01*
X94855Y-43019D01*
X94854Y-43019D01*
X94780Y-42944D01*
X94634Y-42847D01*
X94569Y-42820D01*
X94569Y-41924D01*
X94656Y-41888D01*
X94656Y-41887D01*
X94809Y-41785D01*
X94810Y-41785D01*
X94884Y-41710D01*
X94988Y-41556D01*
X95028Y-41459D01*
X95028Y-41458D01*
X95064Y-41277D01*
X95064Y-41253D01*
X95064Y-41252D01*
X95088Y-41132D01*
X95125Y-41076D01*
X95183Y-41038D01*
X95275Y-41019D01*
X96734Y-41019D01*
X96734Y-41019D01*
G37*
G54D19*
X96734Y-41019D02*
X96691Y-41037D01*
X96538Y-41190D01*
X96454Y-41391D01*
X96454Y-41607D01*
X96533Y-41800D01*
X96361Y-41799D01*
X96104Y-41906D01*
X96045Y-41964D01*
X96045Y-41892D01*
X95962Y-41691D01*
X95809Y-41538D01*
X95608Y-41454D01*
X95392Y-41454D01*
X95191Y-41537D01*
X95038Y-41690D01*
X94954Y-41891D01*
X94954Y-42107D01*
X95037Y-42308D01*
X95190Y-42461D01*
X95391Y-42545D01*
X95607Y-42545D01*
X95800Y-42466D01*
X95799Y-42638D01*
X95906Y-42896D01*
X95925Y-42914D01*
X95884Y-42914D01*
X95871Y-42920D01*
X95857Y-42920D01*
X95691Y-42989D01*
X95689Y-42995D01*
X95669Y-43003D01*
X95504Y-43168D01*
X95495Y-43189D01*
X95489Y-43191D01*
X95454Y-43287D01*
X95415Y-43383D01*
X95415Y-43396D01*
X95410Y-43409D01*
X95414Y-43512D01*
X95414Y-43615D01*
X95420Y-43628D01*
X95420Y-43642D01*
X95489Y-43808D01*
X95495Y-43810D01*
X95503Y-43830D01*
X95668Y-43995D01*
X95689Y-44004D01*
X95689Y-44006D01*
X95674Y-44012D01*
X95512Y-44173D01*
X95425Y-44385D01*
X95424Y-44613D01*
X95512Y-44825D01*
X95664Y-44977D01*
X95608Y-44954D01*
X95392Y-44954D01*
X95191Y-45037D01*
X95038Y-45190D01*
X94954Y-45391D01*
X94954Y-45418D01*
X94884Y-45314D01*
X94810Y-45239D01*
X94809Y-45239D01*
X94656Y-45137D01*
X94656Y-45136D01*
X94569Y-45100D01*
X94569Y-44154D01*
X94634Y-44127D01*
X94780Y-44030D01*
X94854Y-43955D01*
X94855Y-43955D01*
X94951Y-43810D01*
X94952Y-43809D01*
X94992Y-43712D01*
X95027Y-43540D01*
X95027Y-43540D01*
X95027Y-43539D01*
X95027Y-43487D01*
X95027Y-43435D01*
X95027Y-43434D01*
X95027Y-43434D01*
X94992Y-43262D01*
X94952Y-43165D01*
X94951Y-43164D01*
X94855Y-43019D01*
X94854Y-43019D01*
X94780Y-42944D01*
X94634Y-42847D01*
X94569Y-42820D01*
X94569Y-41924D01*
X94656Y-41888D01*
X94656Y-41887D01*
X94809Y-41785D01*
X94810Y-41785D01*
X94884Y-41710D01*
X94988Y-41556D01*
X95028Y-41459D01*
X95028Y-41458D01*
X95064Y-41277D01*
X95064Y-41253D01*
X95064Y-41252D01*
X95088Y-41132D01*
X95125Y-41076D01*
X95183Y-41038D01*
X95275Y-41019D01*
X96734Y-41019D01*
G54D10*
G36*
X97156Y-44120D02*
X97109Y-44139D01*
X97048Y-44200D01*
X96877Y-44200D01*
X96924Y-44084D01*
X96925Y-43915D01*
X96860Y-43759D01*
X96837Y-43736D01*
X96964Y-43609D01*
X96964Y-43704D01*
X96966Y-43709D01*
X96966Y-43714D01*
X97117Y-44079D01*
X97119Y-44080D01*
X97122Y-44085D01*
X97156Y-44120D01*
X97156Y-44120D01*
G37*
G54D19*
X97156Y-44120D02*
X97109Y-44139D01*
X97048Y-44200D01*
X96877Y-44200D01*
X96924Y-44084D01*
X96925Y-43915D01*
X96860Y-43759D01*
X96837Y-43736D01*
X96964Y-43609D01*
X96964Y-43704D01*
X96966Y-43709D01*
X96966Y-43714D01*
X97117Y-44079D01*
X97119Y-44080D01*
X97122Y-44085D01*
X97156Y-44120D01*
G54D10*
G36*
X97231Y-41994D02*
X97101Y-42123D01*
X97093Y-42104D01*
X97035Y-42045D01*
X97107Y-42045D01*
X97231Y-41994D01*
X97231Y-41994D01*
G37*
G54D19*
X97231Y-41994D02*
X97101Y-42123D01*
X97093Y-42104D01*
X97035Y-42045D01*
X97107Y-42045D01*
X97231Y-41994D01*
G54D10*
G36*
X97502Y-41723D02*
X97494Y-41731D01*
X97499Y-41717D01*
X97502Y-41723D01*
X97502Y-41723D01*
G37*
G54D19*
X97502Y-41723D02*
X97494Y-41731D01*
X97499Y-41717D01*
X97502Y-41723D01*
G54D10*
G36*
X97734Y-41019D02*
X97691Y-41037D01*
X97538Y-41190D01*
X97500Y-41282D01*
X97462Y-41191D01*
X97309Y-41038D01*
X97265Y-41019D01*
X97734Y-41019D01*
X97734Y-41019D01*
G37*
G54D19*
X97734Y-41019D02*
X97691Y-41037D01*
X97538Y-41190D01*
X97500Y-41282D01*
X97462Y-41191D01*
X97309Y-41038D01*
X97265Y-41019D01*
X97734Y-41019D01*
G54D10*
G36*
X98490Y-41019D02*
X98406Y-41102D01*
X98397Y-41126D01*
X98309Y-41038D01*
X98265Y-41019D01*
X98490Y-41019D01*
X98490Y-41019D01*
G37*
G54D19*
X98490Y-41019D02*
X98406Y-41102D01*
X98397Y-41126D01*
X98309Y-41038D01*
X98265Y-41019D01*
X98490Y-41019D01*
G54D10*
G36*
X98622Y-44700D02*
X97727Y-44700D01*
X97774Y-44584D01*
X97774Y-44527D01*
X97793Y-44534D01*
X97798Y-44534D01*
X97802Y-44536D01*
X98003Y-44535D01*
X98204Y-44535D01*
X98209Y-44533D01*
X98214Y-44533D01*
X98579Y-44382D01*
X98580Y-44380D01*
X98585Y-44377D01*
X98594Y-44369D01*
X98575Y-44415D01*
X98574Y-44584D01*
X98622Y-44700D01*
X98622Y-44700D01*
G37*
G54D19*
X98622Y-44700D02*
X97727Y-44700D01*
X97774Y-44584D01*
X97774Y-44527D01*
X97793Y-44534D01*
X97798Y-44534D01*
X97802Y-44536D01*
X98003Y-44535D01*
X98204Y-44535D01*
X98209Y-44533D01*
X98214Y-44533D01*
X98579Y-44382D01*
X98580Y-44380D01*
X98585Y-44377D01*
X98594Y-44369D01*
X98575Y-44415D01*
X98574Y-44584D01*
X98622Y-44700D01*
G54D10*
G36*
X99059Y-46830D02*
X96940Y-46830D01*
X96961Y-46809D01*
X97045Y-46608D01*
X97045Y-46392D01*
X97007Y-46300D01*
X98000Y-46300D01*
X98000Y-46299D01*
X98114Y-46277D01*
X98114Y-46277D01*
X98212Y-46212D01*
X98356Y-46068D01*
X98384Y-46079D01*
X98614Y-46080D01*
X98643Y-46068D01*
X98958Y-46382D01*
X98954Y-46391D01*
X98954Y-46607D01*
X99037Y-46808D01*
X99059Y-46830D01*
X99059Y-46830D01*
G37*
G54D19*
X99059Y-46830D02*
X96940Y-46830D01*
X96961Y-46809D01*
X97045Y-46608D01*
X97045Y-46392D01*
X97007Y-46300D01*
X98000Y-46300D01*
X98000Y-46299D01*
X98114Y-46277D01*
X98114Y-46277D01*
X98212Y-46212D01*
X98356Y-46068D01*
X98384Y-46079D01*
X98614Y-46080D01*
X98643Y-46068D01*
X98958Y-46382D01*
X98954Y-46391D01*
X98954Y-46607D01*
X99037Y-46808D01*
X99059Y-46830D01*
G54D10*
G36*
X99098Y-42200D02*
X99064Y-42233D01*
X99000Y-42390D01*
X98999Y-42475D01*
X98787Y-42687D01*
X98733Y-42769D01*
X98587Y-42623D01*
X98580Y-42620D01*
X98579Y-42617D01*
X98392Y-42542D01*
X98206Y-42465D01*
X98201Y-42465D01*
X98197Y-42463D01*
X98110Y-42464D01*
X98542Y-42032D01*
X98602Y-42093D01*
X98860Y-42199D01*
X99098Y-42200D01*
X99098Y-42200D01*
G37*
G54D19*
X99098Y-42200D02*
X99064Y-42233D01*
X99000Y-42390D01*
X98999Y-42475D01*
X98787Y-42687D01*
X98733Y-42769D01*
X98587Y-42623D01*
X98580Y-42620D01*
X98579Y-42617D01*
X98392Y-42542D01*
X98206Y-42465D01*
X98201Y-42465D01*
X98197Y-42463D01*
X98110Y-42464D01*
X98542Y-42032D01*
X98602Y-42093D01*
X98860Y-42199D01*
X99098Y-42200D01*
G54D10*
G36*
X99435Y-44640D02*
X99378Y-44697D01*
X99424Y-44584D01*
X99424Y-44613D01*
X99435Y-44640D01*
X99435Y-44640D01*
G37*
G54D19*
X99435Y-44640D02*
X99378Y-44697D01*
X99424Y-44584D01*
X99424Y-44613D01*
X99435Y-44640D01*
G54D10*
G36*
X100059Y-46830D02*
X99940Y-46830D01*
X99961Y-46809D01*
X99999Y-46717D01*
X100037Y-46808D01*
X100059Y-46830D01*
X100059Y-46830D01*
G37*
G54D19*
X100059Y-46830D02*
X99940Y-46830D01*
X99961Y-46809D01*
X99999Y-46717D01*
X100037Y-46808D01*
X100059Y-46830D01*
G54D10*
G36*
X100480Y-45954D02*
X100392Y-45954D01*
X100191Y-46037D01*
X100038Y-46190D01*
X100000Y-46282D01*
X99962Y-46191D01*
X99809Y-46038D01*
X99778Y-46025D01*
X99824Y-46025D01*
X99916Y-45987D01*
X99986Y-45916D01*
X100024Y-45824D01*
X100025Y-45725D01*
X100025Y-45499D01*
X100480Y-45954D01*
X100480Y-45954D01*
G37*
G54D19*
X100480Y-45954D02*
X100392Y-45954D01*
X100191Y-46037D01*
X100038Y-46190D01*
X100000Y-46282D01*
X99962Y-46191D01*
X99809Y-46038D01*
X99778Y-46025D01*
X99824Y-46025D01*
X99916Y-45987D01*
X99986Y-45916D01*
X100024Y-45824D01*
X100025Y-45725D01*
X100025Y-45499D01*
X100480Y-45954D01*
G54D10*
G36*
X102734Y-41019D02*
X102691Y-41037D01*
X102538Y-41190D01*
X102500Y-41282D01*
X102462Y-41191D01*
X102309Y-41038D01*
X102265Y-41019D01*
X102734Y-41019D01*
X102734Y-41019D01*
G37*
G54D19*
X102734Y-41019D02*
X102691Y-41037D01*
X102538Y-41190D01*
X102500Y-41282D01*
X102462Y-41191D01*
X102309Y-41038D01*
X102265Y-41019D01*
X102734Y-41019D01*
G54D10*
G36*
X104289Y-45400D02*
X102574Y-45400D01*
X102300Y-45125D01*
X102300Y-41966D01*
X102308Y-41962D01*
X102461Y-41809D01*
X102499Y-41717D01*
X102537Y-41808D01*
X102690Y-41961D01*
X102700Y-41965D01*
X102700Y-43028D01*
X102722Y-43142D01*
X102787Y-43240D01*
X104186Y-44638D01*
X104186Y-45242D01*
X104224Y-45334D01*
X104289Y-45400D01*
X104289Y-45400D01*
G37*
G54D19*
X104289Y-45400D02*
X102574Y-45400D01*
X102300Y-45125D01*
X102300Y-41966D01*
X102308Y-41962D01*
X102461Y-41809D01*
X102499Y-41717D01*
X102537Y-41808D01*
X102690Y-41961D01*
X102700Y-41965D01*
X102700Y-43028D01*
X102722Y-43142D01*
X102787Y-43240D01*
X104186Y-44638D01*
X104186Y-45242D01*
X104224Y-45334D01*
X104289Y-45400D01*
G54D10*
G36*
X108880Y-46572D02*
X108857Y-46685D01*
X108808Y-46759D01*
X108735Y-46808D01*
X108623Y-46830D01*
X100940Y-46830D01*
X100961Y-46809D01*
X101045Y-46608D01*
X101045Y-46519D01*
X101237Y-46712D01*
X101237Y-46712D01*
X101335Y-46777D01*
X101449Y-46799D01*
X101450Y-46800D01*
X107500Y-46800D01*
X107500Y-46799D01*
X107614Y-46777D01*
X107614Y-46777D01*
X107712Y-46712D01*
X108382Y-46041D01*
X108391Y-46045D01*
X108607Y-46045D01*
X108808Y-45962D01*
X108880Y-45890D01*
X108880Y-46572D01*
X108880Y-46572D01*
G37*
G54D19*
X108880Y-46572D02*
X108857Y-46685D01*
X108808Y-46759D01*
X108735Y-46808D01*
X108623Y-46830D01*
X100940Y-46830D01*
X100961Y-46809D01*
X101045Y-46608D01*
X101045Y-46519D01*
X101237Y-46712D01*
X101237Y-46712D01*
X101335Y-46777D01*
X101449Y-46799D01*
X101450Y-46800D01*
X107500Y-46800D01*
X107500Y-46799D01*
X107614Y-46777D01*
X107614Y-46777D01*
X107712Y-46712D01*
X108382Y-46041D01*
X108391Y-46045D01*
X108607Y-46045D01*
X108808Y-45962D01*
X108880Y-45890D01*
X108880Y-46572D01*
G54D10*
G36*
X109330Y-45088D02*
X109277Y-45110D01*
X109277Y-45110D01*
X109132Y-45207D01*
X109131Y-45207D01*
X109057Y-45282D01*
X109021Y-45335D01*
X108962Y-45191D01*
X108809Y-45038D01*
X108608Y-44954D01*
X108392Y-44954D01*
X108191Y-45037D01*
X108038Y-45190D01*
X107954Y-45391D01*
X107954Y-45607D01*
X107958Y-45617D01*
X107375Y-46200D01*
X101574Y-46200D01*
X100912Y-45537D01*
X100912Y-45537D01*
X100912Y-45537D01*
X100343Y-44969D01*
X100487Y-44826D01*
X100574Y-44614D01*
X100575Y-44386D01*
X100487Y-44174D01*
X100326Y-44012D01*
X100310Y-44006D01*
X100310Y-44004D01*
X100330Y-43996D01*
X100495Y-43831D01*
X100504Y-43810D01*
X100510Y-43808D01*
X100545Y-43712D01*
X100584Y-43616D01*
X100584Y-43603D01*
X100589Y-43590D01*
X100585Y-43487D01*
X100585Y-43384D01*
X100579Y-43371D01*
X100579Y-43357D01*
X100510Y-43191D01*
X100504Y-43189D01*
X100496Y-43169D01*
X100331Y-43004D01*
X100310Y-42995D01*
X100308Y-42989D01*
X100212Y-42954D01*
X100116Y-42915D01*
X100103Y-42915D01*
X100090Y-42910D01*
X99987Y-42914D01*
X99884Y-42914D01*
X99871Y-42920D01*
X99857Y-42920D01*
X99691Y-42989D01*
X99689Y-42995D01*
X99669Y-43003D01*
X99504Y-43168D01*
X99495Y-43189D01*
X99489Y-43191D01*
X99454Y-43287D01*
X99415Y-43383D01*
X99415Y-43396D01*
X99410Y-43409D01*
X99414Y-43512D01*
X99414Y-43615D01*
X99420Y-43628D01*
X99420Y-43642D01*
X99489Y-43808D01*
X99495Y-43810D01*
X99503Y-43830D01*
X99668Y-43995D01*
X99689Y-44004D01*
X99689Y-44006D01*
X99674Y-44012D01*
X99512Y-44173D01*
X99425Y-44385D01*
X99425Y-44415D01*
X99360Y-44259D01*
X99300Y-44198D01*
X99300Y-43024D01*
X99424Y-42899D01*
X99509Y-42900D01*
X99665Y-42835D01*
X99785Y-42716D01*
X99849Y-42559D01*
X99850Y-42390D01*
X99785Y-42234D01*
X99666Y-42114D01*
X99509Y-42050D01*
X99439Y-42050D01*
X99593Y-41897D01*
X99699Y-41639D01*
X99700Y-41361D01*
X99593Y-41104D01*
X99509Y-41019D01*
X101734Y-41019D01*
X101691Y-41037D01*
X101538Y-41190D01*
X101454Y-41391D01*
X101454Y-41607D01*
X101537Y-41808D01*
X101690Y-41961D01*
X101700Y-41965D01*
X101700Y-45250D01*
X101722Y-45364D01*
X101787Y-45462D01*
X102237Y-45912D01*
X102335Y-45977D01*
X102450Y-46000D01*
X105327Y-46000D01*
X105327Y-45999D01*
X105441Y-45977D01*
X105441Y-45977D01*
X105539Y-45912D01*
X106008Y-45442D01*
X106061Y-45443D01*
X106612Y-45443D01*
X106703Y-45405D01*
X106774Y-45334D01*
X106812Y-45242D01*
X106812Y-45143D01*
X106812Y-44237D01*
X106812Y-42762D01*
X106812Y-42674D01*
X106812Y-42663D01*
X106812Y-41757D01*
X106774Y-41665D01*
X106704Y-41595D01*
X106612Y-41557D01*
X106512Y-41556D01*
X106061Y-41556D01*
X105961Y-41556D01*
X105961Y-41557D01*
X105961Y-41557D01*
X105915Y-41576D01*
X105870Y-41594D01*
X105869Y-41595D01*
X105869Y-41595D01*
X105834Y-41630D01*
X105799Y-41665D01*
X105799Y-41665D01*
X105799Y-41665D01*
X105780Y-41711D01*
X105761Y-41757D01*
X105761Y-41757D01*
X105761Y-41757D01*
X105761Y-41845D01*
X105761Y-41856D01*
X105761Y-42762D01*
X105799Y-42854D01*
X105869Y-42924D01*
X105961Y-42962D01*
X106061Y-42963D01*
X106512Y-42963D01*
X106612Y-42963D01*
X106612Y-42962D01*
X106612Y-42962D01*
X106658Y-42943D01*
X106703Y-42925D01*
X106704Y-42924D01*
X106704Y-42924D01*
X106739Y-42889D01*
X106774Y-42854D01*
X106774Y-42854D01*
X106774Y-42854D01*
X106793Y-42808D01*
X106812Y-42762D01*
X106812Y-42762D01*
X106812Y-42762D01*
X106812Y-44237D01*
X106774Y-44145D01*
X106704Y-44075D01*
X106612Y-44037D01*
X106512Y-44036D01*
X105961Y-44036D01*
X105870Y-44074D01*
X105799Y-44145D01*
X105761Y-44237D01*
X105761Y-44336D01*
X105761Y-44841D01*
X105238Y-45364D01*
X105238Y-42762D01*
X105238Y-42674D01*
X105238Y-42663D01*
X105238Y-41757D01*
X105200Y-41665D01*
X105130Y-41595D01*
X105038Y-41557D01*
X104938Y-41556D01*
X104487Y-41556D01*
X104387Y-41556D01*
X104387Y-41557D01*
X104387Y-41557D01*
X104341Y-41576D01*
X104296Y-41594D01*
X104295Y-41595D01*
X104295Y-41595D01*
X104260Y-41630D01*
X104225Y-41665D01*
X104225Y-41665D01*
X104225Y-41665D01*
X104206Y-41711D01*
X104187Y-41757D01*
X104187Y-41757D01*
X104187Y-41757D01*
X104187Y-41845D01*
X104187Y-41856D01*
X104187Y-42762D01*
X104225Y-42854D01*
X104295Y-42924D01*
X104387Y-42962D01*
X104487Y-42963D01*
X104938Y-42963D01*
X105038Y-42963D01*
X105038Y-42962D01*
X105038Y-42962D01*
X105084Y-42943D01*
X105129Y-42925D01*
X105130Y-42924D01*
X105130Y-42924D01*
X105165Y-42889D01*
X105200Y-42854D01*
X105200Y-42854D01*
X105200Y-42854D01*
X105219Y-42808D01*
X105238Y-42762D01*
X105238Y-42762D01*
X105238Y-42762D01*
X105238Y-45364D01*
X105202Y-45400D01*
X105134Y-45400D01*
X105199Y-45334D01*
X105237Y-45242D01*
X105237Y-45143D01*
X105237Y-44237D01*
X105199Y-44145D01*
X105129Y-44075D01*
X105037Y-44037D01*
X104937Y-44036D01*
X104433Y-44036D01*
X103300Y-42903D01*
X103300Y-41966D01*
X103308Y-41962D01*
X103461Y-41809D01*
X103545Y-41608D01*
X103545Y-41392D01*
X103462Y-41191D01*
X103309Y-41038D01*
X103265Y-41019D01*
X108623Y-41019D01*
X108735Y-41041D01*
X108808Y-41090D01*
X108857Y-41164D01*
X108885Y-41302D01*
X108885Y-41303D01*
X108919Y-41473D01*
X108919Y-41474D01*
X108959Y-41571D01*
X109057Y-41717D01*
X109131Y-41792D01*
X109132Y-41792D01*
X109277Y-41889D01*
X109277Y-41889D01*
X109330Y-41911D01*
X109330Y-42838D01*
X109277Y-42860D01*
X109277Y-42860D01*
X109132Y-42957D01*
X109131Y-42957D01*
X109057Y-43032D01*
X109045Y-43049D01*
X109045Y-41892D01*
X108962Y-41691D01*
X108809Y-41538D01*
X108608Y-41454D01*
X108392Y-41454D01*
X108191Y-41537D01*
X108038Y-41690D01*
X107954Y-41891D01*
X107954Y-42107D01*
X108037Y-42308D01*
X108190Y-42461D01*
X108391Y-42545D01*
X108607Y-42545D01*
X108808Y-42462D01*
X108961Y-42309D01*
X109045Y-42108D01*
X109045Y-41892D01*
X109045Y-43049D01*
X108959Y-43178D01*
X108919Y-43275D01*
X108919Y-43276D01*
X108885Y-43447D01*
X108885Y-43447D01*
X108885Y-43447D01*
X108885Y-43500D01*
X108885Y-43552D01*
X108885Y-43552D01*
X108885Y-43552D01*
X108919Y-43723D01*
X108919Y-43724D01*
X108959Y-43821D01*
X109057Y-43967D01*
X109131Y-44042D01*
X109132Y-44042D01*
X109277Y-44139D01*
X109277Y-44139D01*
X109330Y-44161D01*
X109330Y-45088D01*
X109330Y-45088D01*
G37*
G54D19*
X109330Y-45088D02*
X109277Y-45110D01*
X109277Y-45110D01*
X109132Y-45207D01*
X109131Y-45207D01*
X109057Y-45282D01*
X109021Y-45335D01*
X108962Y-45191D01*
X108809Y-45038D01*
X108608Y-44954D01*
X108392Y-44954D01*
X108191Y-45037D01*
X108038Y-45190D01*
X107954Y-45391D01*
X107954Y-45607D01*
X107958Y-45617D01*
X107375Y-46200D01*
X101574Y-46200D01*
X100912Y-45537D01*
X100912Y-45537D01*
X100912Y-45537D01*
X100343Y-44969D01*
X100487Y-44826D01*
X100574Y-44614D01*
X100575Y-44386D01*
X100487Y-44174D01*
X100326Y-44012D01*
X100310Y-44006D01*
X100310Y-44004D01*
X100330Y-43996D01*
X100495Y-43831D01*
X100504Y-43810D01*
X100510Y-43808D01*
X100545Y-43712D01*
X100584Y-43616D01*
X100584Y-43603D01*
X100589Y-43590D01*
X100585Y-43487D01*
X100585Y-43384D01*
X100579Y-43371D01*
X100579Y-43357D01*
X100510Y-43191D01*
X100504Y-43189D01*
X100496Y-43169D01*
X100331Y-43004D01*
X100310Y-42995D01*
X100308Y-42989D01*
X100212Y-42954D01*
X100116Y-42915D01*
X100103Y-42915D01*
X100090Y-42910D01*
X99987Y-42914D01*
X99884Y-42914D01*
X99871Y-42920D01*
X99857Y-42920D01*
X99691Y-42989D01*
X99689Y-42995D01*
X99669Y-43003D01*
X99504Y-43168D01*
X99495Y-43189D01*
X99489Y-43191D01*
X99454Y-43287D01*
X99415Y-43383D01*
X99415Y-43396D01*
X99410Y-43409D01*
X99414Y-43512D01*
X99414Y-43615D01*
X99420Y-43628D01*
X99420Y-43642D01*
X99489Y-43808D01*
X99495Y-43810D01*
X99503Y-43830D01*
X99668Y-43995D01*
X99689Y-44004D01*
X99689Y-44006D01*
X99674Y-44012D01*
X99512Y-44173D01*
X99425Y-44385D01*
X99425Y-44415D01*
X99360Y-44259D01*
X99300Y-44198D01*
X99300Y-43024D01*
X99424Y-42899D01*
X99509Y-42900D01*
X99665Y-42835D01*
X99785Y-42716D01*
X99849Y-42559D01*
X99850Y-42390D01*
X99785Y-42234D01*
X99666Y-42114D01*
X99509Y-42050D01*
X99439Y-42050D01*
X99593Y-41897D01*
X99699Y-41639D01*
X99700Y-41361D01*
X99593Y-41104D01*
X99509Y-41019D01*
X101734Y-41019D01*
X101691Y-41037D01*
X101538Y-41190D01*
X101454Y-41391D01*
X101454Y-41607D01*
X101537Y-41808D01*
X101690Y-41961D01*
X101700Y-41965D01*
X101700Y-45250D01*
X101722Y-45364D01*
X101787Y-45462D01*
X102237Y-45912D01*
X102335Y-45977D01*
X102450Y-46000D01*
X105327Y-46000D01*
X105327Y-45999D01*
X105441Y-45977D01*
X105441Y-45977D01*
X105539Y-45912D01*
X106008Y-45442D01*
X106061Y-45443D01*
X106612Y-45443D01*
X106703Y-45405D01*
X106774Y-45334D01*
X106812Y-45242D01*
X106812Y-45143D01*
X106812Y-44237D01*
X106812Y-42762D01*
X106812Y-42674D01*
X106812Y-42663D01*
X106812Y-41757D01*
X106774Y-41665D01*
X106704Y-41595D01*
X106612Y-41557D01*
X106512Y-41556D01*
X106061Y-41556D01*
X105961Y-41556D01*
X105961Y-41557D01*
X105961Y-41557D01*
X105915Y-41576D01*
X105870Y-41594D01*
X105869Y-41595D01*
X105869Y-41595D01*
X105834Y-41630D01*
X105799Y-41665D01*
X105799Y-41665D01*
X105799Y-41665D01*
X105780Y-41711D01*
X105761Y-41757D01*
X105761Y-41757D01*
X105761Y-41757D01*
X105761Y-41845D01*
X105761Y-41856D01*
X105761Y-42762D01*
X105799Y-42854D01*
X105869Y-42924D01*
X105961Y-42962D01*
X106061Y-42963D01*
X106512Y-42963D01*
X106612Y-42963D01*
X106612Y-42962D01*
X106612Y-42962D01*
X106658Y-42943D01*
X106703Y-42925D01*
X106704Y-42924D01*
X106704Y-42924D01*
X106739Y-42889D01*
X106774Y-42854D01*
X106774Y-42854D01*
X106774Y-42854D01*
X106793Y-42808D01*
X106812Y-42762D01*
X106812Y-42762D01*
X106812Y-42762D01*
X106812Y-44237D01*
X106774Y-44145D01*
X106704Y-44075D01*
X106612Y-44037D01*
X106512Y-44036D01*
X105961Y-44036D01*
X105870Y-44074D01*
X105799Y-44145D01*
X105761Y-44237D01*
X105761Y-44336D01*
X105761Y-44841D01*
X105238Y-45364D01*
X105238Y-42762D01*
X105238Y-42674D01*
X105238Y-42663D01*
X105238Y-41757D01*
X105200Y-41665D01*
X105130Y-41595D01*
X105038Y-41557D01*
X104938Y-41556D01*
X104487Y-41556D01*
X104387Y-41556D01*
X104387Y-41557D01*
X104387Y-41557D01*
X104341Y-41576D01*
X104296Y-41594D01*
X104295Y-41595D01*
X104295Y-41595D01*
X104260Y-41630D01*
X104225Y-41665D01*
X104225Y-41665D01*
X104225Y-41665D01*
X104206Y-41711D01*
X104187Y-41757D01*
X104187Y-41757D01*
X104187Y-41757D01*
X104187Y-41845D01*
X104187Y-41856D01*
X104187Y-42762D01*
X104225Y-42854D01*
X104295Y-42924D01*
X104387Y-42962D01*
X104487Y-42963D01*
X104938Y-42963D01*
X105038Y-42963D01*
X105038Y-42962D01*
X105038Y-42962D01*
X105084Y-42943D01*
X105129Y-42925D01*
X105130Y-42924D01*
X105130Y-42924D01*
X105165Y-42889D01*
X105200Y-42854D01*
X105200Y-42854D01*
X105200Y-42854D01*
X105219Y-42808D01*
X105238Y-42762D01*
X105238Y-42762D01*
X105238Y-42762D01*
X105238Y-45364D01*
X105202Y-45400D01*
X105134Y-45400D01*
X105199Y-45334D01*
X105237Y-45242D01*
X105237Y-45143D01*
X105237Y-44237D01*
X105199Y-44145D01*
X105129Y-44075D01*
X105037Y-44037D01*
X104937Y-44036D01*
X104433Y-44036D01*
X103300Y-42903D01*
X103300Y-41966D01*
X103308Y-41962D01*
X103461Y-41809D01*
X103545Y-41608D01*
X103545Y-41392D01*
X103462Y-41191D01*
X103309Y-41038D01*
X103265Y-41019D01*
X108623Y-41019D01*
X108735Y-41041D01*
X108808Y-41090D01*
X108857Y-41164D01*
X108885Y-41302D01*
X108885Y-41303D01*
X108919Y-41473D01*
X108919Y-41474D01*
X108959Y-41571D01*
X109057Y-41717D01*
X109131Y-41792D01*
X109132Y-41792D01*
X109277Y-41889D01*
X109277Y-41889D01*
X109330Y-41911D01*
X109330Y-42838D01*
X109277Y-42860D01*
X109277Y-42860D01*
X109132Y-42957D01*
X109131Y-42957D01*
X109057Y-43032D01*
X109045Y-43049D01*
X109045Y-41892D01*
X108962Y-41691D01*
X108809Y-41538D01*
X108608Y-41454D01*
X108392Y-41454D01*
X108191Y-41537D01*
X108038Y-41690D01*
X107954Y-41891D01*
X107954Y-42107D01*
X108037Y-42308D01*
X108190Y-42461D01*
X108391Y-42545D01*
X108607Y-42545D01*
X108808Y-42462D01*
X108961Y-42309D01*
X109045Y-42108D01*
X109045Y-41892D01*
X109045Y-43049D01*
X108959Y-43178D01*
X108919Y-43275D01*
X108919Y-43276D01*
X108885Y-43447D01*
X108885Y-43447D01*
X108885Y-43447D01*
X108885Y-43500D01*
X108885Y-43552D01*
X108885Y-43552D01*
X108885Y-43552D01*
X108919Y-43723D01*
X108919Y-43724D01*
X108959Y-43821D01*
X109057Y-43967D01*
X109131Y-44042D01*
X109132Y-44042D01*
X109277Y-44139D01*
X109277Y-44139D01*
X109330Y-44161D01*
X109330Y-45088D01*
M02*
