G04 (created by PCBNEW (2013-may-18)-stable) date Sun 23 Aug 2015 06:19:44 PM EDT*
%MOIN*%
G04 Gerber Fmt 3.4, Leading zero omitted, Abs format*
%FSLAX34Y34*%
G01*
G70*
G90*
G04 APERTURE LIST*
%ADD10C,0.00590551*%
%ADD11C,0.00787402*%
%ADD12C,0.00984252*%
%ADD13C,0.00393701*%
%ADD14C,0.00492126*%
%ADD15C,0.015*%
%ADD16C,0.012*%
G04 APERTURE END LIST*
G54D10*
G54D11*
X108275Y-42025D02*
X107475Y-42025D01*
X103339Y-42027D02*
X103369Y-42012D01*
X103414Y-42012D01*
X103459Y-42027D01*
X103489Y-42057D01*
X103504Y-42087D01*
X103519Y-42147D01*
X103519Y-42192D01*
X103504Y-42252D01*
X103489Y-42282D01*
X103459Y-42312D01*
X103414Y-42327D01*
X103384Y-42327D01*
X103339Y-42312D01*
X103324Y-42297D01*
X103324Y-42192D01*
X103384Y-42192D01*
X103189Y-42327D02*
X103189Y-42012D01*
X103010Y-42327D01*
X103010Y-42012D01*
X102860Y-42327D02*
X102860Y-42012D01*
X102785Y-42012D01*
X102740Y-42027D01*
X102710Y-42057D01*
X102695Y-42087D01*
X102680Y-42147D01*
X102680Y-42192D01*
X102695Y-42252D01*
X102710Y-42282D01*
X102740Y-42312D01*
X102785Y-42327D01*
X102860Y-42327D01*
X102072Y-42327D02*
X102177Y-42177D01*
X102252Y-42327D02*
X102252Y-42012D01*
X102132Y-42012D01*
X102102Y-42027D01*
X102087Y-42042D01*
X102072Y-42072D01*
X102072Y-42117D01*
X102087Y-42147D01*
X102102Y-42162D01*
X102132Y-42177D01*
X102252Y-42177D01*
X101952Y-42312D02*
X101907Y-42327D01*
X101832Y-42327D01*
X101802Y-42312D01*
X101787Y-42297D01*
X101772Y-42267D01*
X101772Y-42237D01*
X101787Y-42207D01*
X101802Y-42192D01*
X101832Y-42177D01*
X101892Y-42162D01*
X101922Y-42147D01*
X101937Y-42132D01*
X101952Y-42102D01*
X101952Y-42072D01*
X101937Y-42042D01*
X101922Y-42027D01*
X101892Y-42012D01*
X101817Y-42012D01*
X101772Y-42027D01*
X101682Y-42012D02*
X101502Y-42012D01*
X101592Y-42327D02*
X101592Y-42012D01*
G54D12*
X99758Y-42490D02*
X99683Y-42490D01*
X99648Y-42509D01*
X99615Y-42546D01*
X99605Y-42621D01*
X99622Y-42753D01*
X99650Y-42828D01*
X99692Y-42865D01*
X99732Y-42884D01*
X99807Y-42884D01*
X99842Y-42865D01*
X99875Y-42828D01*
X99884Y-42753D01*
X99868Y-42621D01*
X99840Y-42546D01*
X99798Y-42509D01*
X99758Y-42490D01*
X100501Y-43009D02*
X100451Y-42615D01*
X100355Y-42896D01*
X100189Y-42615D01*
X100238Y-43009D01*
X98374Y-42371D02*
X98187Y-42371D01*
X98426Y-42484D02*
X98245Y-42090D01*
X98163Y-42484D01*
X100949Y-43246D02*
X100762Y-43246D01*
X101001Y-43359D02*
X100820Y-42965D01*
X100738Y-43359D01*
X99353Y-42903D02*
X99222Y-42903D01*
X99191Y-43109D02*
X99379Y-43109D01*
X99330Y-42715D01*
X99142Y-42715D01*
X98766Y-42603D02*
X98712Y-42621D01*
X98695Y-42640D01*
X98681Y-42678D01*
X98688Y-42734D01*
X98712Y-42771D01*
X98733Y-42790D01*
X98773Y-42809D01*
X98923Y-42809D01*
X98873Y-42415D01*
X98742Y-42415D01*
X98707Y-42434D01*
X98691Y-42453D01*
X98676Y-42490D01*
X98681Y-42528D01*
X98705Y-42565D01*
X98726Y-42584D01*
X98766Y-42603D01*
X98897Y-42603D01*
G54D11*
X101264Y-41367D02*
X101215Y-41577D01*
X101114Y-41367D01*
X100855Y-41577D02*
X101035Y-41577D01*
X100945Y-41577D02*
X100906Y-41262D01*
X100942Y-41307D01*
X100975Y-41337D01*
X101007Y-41352D01*
X100717Y-41547D02*
X100704Y-41562D01*
X100720Y-41577D01*
X100734Y-41562D01*
X100717Y-41547D01*
X100720Y-41577D01*
X100471Y-41262D02*
X100441Y-41262D01*
X100413Y-41277D01*
X100400Y-41292D01*
X100389Y-41322D01*
X100381Y-41382D01*
X100390Y-41457D01*
X100413Y-41517D01*
X100432Y-41547D01*
X100449Y-41562D01*
X100480Y-41577D01*
X100510Y-41577D01*
X100539Y-41562D01*
X100552Y-41547D01*
X100563Y-41517D01*
X100570Y-41457D01*
X100561Y-41382D01*
X100539Y-41322D01*
X100520Y-41292D01*
X100503Y-41277D01*
X100471Y-41262D01*
X100267Y-41547D02*
X100254Y-41562D01*
X100270Y-41577D01*
X100284Y-41562D01*
X100267Y-41547D01*
X100270Y-41577D01*
X100021Y-41262D02*
X99991Y-41262D01*
X99963Y-41277D01*
X99950Y-41292D01*
X99939Y-41322D01*
X99931Y-41382D01*
X99941Y-41457D01*
X99963Y-41517D01*
X99982Y-41547D01*
X99999Y-41562D01*
X100031Y-41577D01*
X100061Y-41577D01*
X100089Y-41562D01*
X100102Y-41547D01*
X100113Y-41517D01*
X100120Y-41457D01*
X100111Y-41382D01*
X100089Y-41322D01*
X100070Y-41292D01*
X100053Y-41277D01*
X100021Y-41262D01*
G54D13*
X98500Y-45700D02*
X98500Y-46200D01*
X97500Y-45700D02*
X97500Y-46200D01*
G54D14*
X96546Y-44998D02*
X96453Y-44998D01*
X96565Y-45054D02*
X96499Y-44857D01*
X96434Y-45054D01*
G54D13*
X96350Y-44900D02*
X96350Y-45400D01*
X99650Y-44900D02*
X99650Y-45400D01*
G54D11*
X96075Y-41300D02*
X97025Y-41300D01*
X95525Y-42900D02*
X95525Y-42225D01*
G54D10*
X99893Y-46145D02*
X99893Y-45909D01*
X99837Y-45909D01*
X99803Y-45920D01*
X99781Y-45943D01*
X99770Y-45965D01*
X99758Y-46010D01*
X99758Y-46044D01*
X99770Y-46089D01*
X99781Y-46111D01*
X99803Y-46134D01*
X99837Y-46145D01*
X99893Y-46145D01*
G54D13*
X99675Y-46050D02*
X99675Y-45650D01*
X96325Y-46025D02*
X96325Y-45625D01*
G54D10*
X96218Y-46070D02*
X96218Y-45834D01*
X96162Y-45834D01*
X96128Y-45845D01*
X96106Y-45868D01*
X96095Y-45890D01*
X96083Y-45935D01*
X96083Y-45969D01*
X96095Y-46014D01*
X96106Y-46036D01*
X96128Y-46059D01*
X96162Y-46070D01*
X96218Y-46070D01*
G54D11*
X95275Y-44500D02*
X95900Y-44500D01*
X95295Y-44377D02*
X95400Y-44227D01*
X95475Y-44377D02*
X95475Y-44062D01*
X95355Y-44062D01*
X95325Y-44077D01*
X95310Y-44092D01*
X95295Y-44122D01*
X95295Y-44167D01*
X95310Y-44197D01*
X95325Y-44212D01*
X95355Y-44227D01*
X95475Y-44227D01*
X100700Y-44500D02*
X100250Y-44500D01*
X100520Y-44377D02*
X100625Y-44227D01*
X100700Y-44377D02*
X100700Y-44062D01*
X100580Y-44062D01*
X100550Y-44077D01*
X100535Y-44092D01*
X100520Y-44122D01*
X100520Y-44167D01*
X100535Y-44197D01*
X100550Y-44212D01*
X100580Y-44227D01*
X100700Y-44227D01*
G54D14*
X97396Y-46148D02*
X97303Y-46148D01*
X97415Y-46204D02*
X97349Y-46007D01*
X97284Y-46204D01*
X98589Y-46185D02*
X98598Y-46195D01*
X98626Y-46204D01*
X98645Y-46204D01*
X98673Y-46195D01*
X98692Y-46176D01*
X98701Y-46157D01*
X98710Y-46120D01*
X98710Y-46092D01*
X98701Y-46054D01*
X98692Y-46035D01*
X98673Y-46017D01*
X98645Y-46007D01*
X98626Y-46007D01*
X98598Y-46017D01*
X98589Y-46026D01*
X99439Y-45035D02*
X99448Y-45045D01*
X99476Y-45054D01*
X99495Y-45054D01*
X99523Y-45045D01*
X99542Y-45026D01*
X99551Y-45007D01*
X99560Y-44970D01*
X99560Y-44942D01*
X99551Y-44904D01*
X99542Y-44885D01*
X99523Y-44867D01*
X99495Y-44857D01*
X99476Y-44857D01*
X99448Y-44867D01*
X99439Y-44876D01*
G54D11*
X97475Y-46375D02*
X96500Y-46375D01*
X98125Y-46075D02*
X98125Y-46600D01*
G54D13*
X97775Y-42150D02*
X97775Y-41500D01*
G54D11*
X101125Y-46250D02*
X100500Y-46250D01*
X94900Y-46250D02*
X95500Y-46250D01*
X94700Y-45250D02*
X95500Y-45250D01*
X108325Y-45675D02*
X107525Y-45675D01*
X98575Y-46375D02*
X99450Y-46375D01*
X97862Y-46587D02*
X97862Y-46462D01*
X98112Y-46337D02*
X97862Y-46587D01*
X97862Y-46087D02*
X98112Y-46337D01*
X97862Y-46487D02*
X97862Y-46087D01*
X95390Y-42887D02*
X95345Y-42902D01*
X95270Y-42902D01*
X95240Y-42887D01*
X95225Y-42872D01*
X95210Y-42842D01*
X95210Y-42812D01*
X95225Y-42782D01*
X95240Y-42767D01*
X95270Y-42752D01*
X95330Y-42737D01*
X95360Y-42722D01*
X95375Y-42707D01*
X95390Y-42677D01*
X95390Y-42647D01*
X95375Y-42617D01*
X95360Y-42602D01*
X95330Y-42587D01*
X95255Y-42587D01*
X95210Y-42602D01*
X94895Y-42902D02*
X95000Y-42752D01*
X95075Y-42902D02*
X95075Y-42587D01*
X94955Y-42587D01*
X94925Y-42602D01*
X94910Y-42617D01*
X94895Y-42647D01*
X94895Y-42692D01*
X94910Y-42722D01*
X94925Y-42737D01*
X94955Y-42752D01*
X95075Y-42752D01*
G54D10*
X97680Y-42134D02*
X97646Y-42145D01*
X97590Y-42145D01*
X97567Y-42134D01*
X97556Y-42123D01*
X97545Y-42100D01*
X97545Y-42078D01*
X97556Y-42055D01*
X97567Y-42044D01*
X97590Y-42033D01*
X97635Y-42021D01*
X97657Y-42010D01*
X97668Y-41999D01*
X97680Y-41976D01*
X97680Y-41954D01*
X97668Y-41931D01*
X97657Y-41920D01*
X97635Y-41909D01*
X97578Y-41909D01*
X97545Y-41920D01*
X97308Y-42123D02*
X97320Y-42134D01*
X97353Y-42145D01*
X97376Y-42145D01*
X97410Y-42134D01*
X97432Y-42111D01*
X97443Y-42089D01*
X97455Y-42044D01*
X97455Y-42010D01*
X97443Y-41965D01*
X97432Y-41943D01*
X97410Y-41920D01*
X97376Y-41909D01*
X97353Y-41909D01*
X97320Y-41920D01*
X97308Y-41931D01*
X101130Y-46109D02*
X101096Y-46120D01*
X101040Y-46120D01*
X101017Y-46109D01*
X101006Y-46098D01*
X100995Y-46075D01*
X100995Y-46053D01*
X101006Y-46030D01*
X101017Y-46019D01*
X101040Y-46008D01*
X101085Y-45996D01*
X101107Y-45985D01*
X101118Y-45974D01*
X101130Y-45951D01*
X101130Y-45929D01*
X101118Y-45906D01*
X101107Y-45895D01*
X101085Y-45884D01*
X101028Y-45884D01*
X100995Y-45895D01*
X100758Y-46098D02*
X100770Y-46109D01*
X100803Y-46120D01*
X100826Y-46120D01*
X100860Y-46109D01*
X100882Y-46086D01*
X100893Y-46064D01*
X100905Y-46019D01*
X100905Y-45985D01*
X100893Y-45940D01*
X100882Y-45918D01*
X100860Y-45895D01*
X100826Y-45884D01*
X100803Y-45884D01*
X100770Y-45895D01*
X100758Y-45906D01*
G54D11*
X98850Y-46827D02*
X99000Y-46827D01*
X99000Y-46512D01*
X98565Y-46797D02*
X98580Y-46812D01*
X98625Y-46827D01*
X98655Y-46827D01*
X98700Y-46812D01*
X98730Y-46782D01*
X98745Y-46752D01*
X98760Y-46692D01*
X98760Y-46647D01*
X98745Y-46587D01*
X98730Y-46557D01*
X98700Y-46527D01*
X98655Y-46512D01*
X98625Y-46512D01*
X98580Y-46527D01*
X98565Y-46542D01*
G54D10*
X95131Y-46120D02*
X95243Y-46120D01*
X95243Y-45884D01*
X94917Y-46098D02*
X94928Y-46109D01*
X94962Y-46120D01*
X94985Y-46120D01*
X95018Y-46109D01*
X95041Y-46086D01*
X95052Y-46064D01*
X95063Y-46019D01*
X95063Y-45985D01*
X95052Y-45940D01*
X95041Y-45918D01*
X95018Y-45895D01*
X94985Y-45884D01*
X94962Y-45884D01*
X94928Y-45895D01*
X94917Y-45906D01*
G54D11*
X107825Y-45527D02*
X107975Y-45527D01*
X107975Y-45212D01*
X107540Y-45527D02*
X107645Y-45377D01*
X107720Y-45527D02*
X107720Y-45212D01*
X107600Y-45212D01*
X107570Y-45227D01*
X107555Y-45242D01*
X107540Y-45272D01*
X107540Y-45317D01*
X107555Y-45347D01*
X107570Y-45362D01*
X107600Y-45377D01*
X107720Y-45377D01*
G54D10*
X107990Y-41912D02*
X107945Y-41927D01*
X107870Y-41927D01*
X107840Y-41912D01*
X107825Y-41897D01*
X107810Y-41867D01*
X107810Y-41837D01*
X107825Y-41807D01*
X107840Y-41792D01*
X107870Y-41777D01*
X107930Y-41762D01*
X107960Y-41747D01*
X107975Y-41732D01*
X107990Y-41702D01*
X107990Y-41672D01*
X107975Y-41642D01*
X107960Y-41627D01*
X107930Y-41612D01*
X107855Y-41612D01*
X107810Y-41627D01*
X107495Y-41927D02*
X107600Y-41777D01*
X107675Y-41927D02*
X107675Y-41612D01*
X107555Y-41612D01*
X107525Y-41627D01*
X107510Y-41642D01*
X107495Y-41672D01*
X107495Y-41717D01*
X107510Y-41747D01*
X107525Y-41762D01*
X107555Y-41777D01*
X107675Y-41777D01*
G54D11*
X97465Y-46812D02*
X97420Y-46827D01*
X97345Y-46827D01*
X97315Y-46812D01*
X97300Y-46797D01*
X97285Y-46767D01*
X97285Y-46737D01*
X97300Y-46707D01*
X97315Y-46692D01*
X97345Y-46677D01*
X97405Y-46662D01*
X97435Y-46647D01*
X97450Y-46632D01*
X97465Y-46602D01*
X97465Y-46572D01*
X97450Y-46542D01*
X97435Y-46527D01*
X97405Y-46512D01*
X97330Y-46512D01*
X97285Y-46527D01*
X96970Y-46797D02*
X96985Y-46812D01*
X97030Y-46827D01*
X97060Y-46827D01*
X97105Y-46812D01*
X97135Y-46782D01*
X97150Y-46752D01*
X97165Y-46692D01*
X97165Y-46647D01*
X97150Y-46587D01*
X97135Y-46557D01*
X97105Y-46527D01*
X97060Y-46512D01*
X97030Y-46512D01*
X96985Y-46527D01*
X96970Y-46542D01*
X96350Y-41752D02*
X96500Y-41752D01*
X96500Y-41437D01*
X96065Y-41722D02*
X96080Y-41737D01*
X96125Y-41752D01*
X96155Y-41752D01*
X96200Y-41737D01*
X96230Y-41707D01*
X96245Y-41677D01*
X96260Y-41617D01*
X96260Y-41572D01*
X96245Y-41512D01*
X96230Y-41482D01*
X96200Y-41452D01*
X96155Y-41437D01*
X96125Y-41437D01*
X96080Y-41452D01*
X96065Y-41467D01*
X95000Y-45102D02*
X95150Y-45102D01*
X95150Y-44787D01*
X94715Y-45102D02*
X94820Y-44952D01*
X94895Y-45102D02*
X94895Y-44787D01*
X94775Y-44787D01*
X94745Y-44802D01*
X94730Y-44817D01*
X94715Y-44847D01*
X94715Y-44892D01*
X94730Y-44922D01*
X94745Y-44937D01*
X94775Y-44952D01*
X94895Y-44952D01*
G54D15*
X96750Y-45000D02*
X99250Y-45000D01*
X99250Y-45000D02*
X99250Y-44000D01*
X99250Y-44000D02*
X96750Y-44000D01*
X96750Y-44000D02*
X96750Y-45000D01*
X100000Y-44500D02*
X99250Y-44500D01*
X96000Y-44500D02*
X96750Y-44500D01*
G54D16*
X99500Y-45500D02*
X99200Y-45500D01*
X99200Y-45500D02*
X99200Y-45900D01*
X99200Y-45900D02*
X96800Y-45900D01*
X96800Y-45900D02*
X96800Y-45500D01*
X96800Y-45500D02*
X96500Y-45500D01*
X96800Y-45500D02*
X96800Y-45100D01*
X96800Y-45100D02*
X99200Y-45100D01*
X99200Y-45100D02*
X99200Y-45500D01*
X99000Y-45900D02*
X99000Y-45100D01*
X98900Y-45100D02*
X98900Y-45900D01*
M02*
