G04 #@! TF.GenerationSoftware,KiCad,Pcbnew,5.1.5-52549c5~84~ubuntu18.04.1*
G04 #@! TF.CreationDate,2020-04-11T16:09:32-04:00*
G04 #@! TF.ProjectId,amoeba-royale,616d6f65-6261-42d7-926f-79616c652e6b,rev?*
G04 #@! TF.SameCoordinates,Original*
G04 #@! TF.FileFunction,Profile,NP*
%FSLAX46Y46*%
G04 Gerber Fmt 4.6, Leading zero omitted, Abs format (unit mm)*
G04 Created by KiCad (PCBNEW 5.1.5-52549c5~84~ubuntu18.04.1) date 2020-04-11 16:09:32*
%MOMM*%
%LPD*%
G04 APERTURE LIST*
%ADD10C,0.100000*%
G04 APERTURE END LIST*
D10*
X258318000Y-110236000D02*
G75*
G03X257048000Y-111506000I0J-1270000D01*
G01*
X257048000Y-111506000D02*
G75*
G03X258318000Y-112776000I1270000J0D01*
G01*
X258318000Y-112776000D02*
X258318000Y-114617500D01*
X257683000Y-115252500D02*
G75*
G02X258000500Y-114935000I317500J0D01*
G01*
X257683000Y-107759500D02*
G75*
G03X258000500Y-108077000I317500J0D01*
G01*
X257683000Y-118491000D02*
X257683000Y-115252500D01*
X258318000Y-110236000D02*
X258318000Y-108394500D01*
X258318000Y-114617500D02*
G75*
G02X258000500Y-114935000I-317500J0D01*
G01*
X258318000Y-108394500D02*
G75*
G03X258000500Y-108077000I-317500J0D01*
G01*
X257683000Y-102679500D02*
X257683000Y-107759500D01*
X240157000Y-115252500D02*
G75*
G03X239839500Y-114935000I-317500J0D01*
G01*
X239522000Y-112776000D02*
X239522000Y-114617500D01*
X239522000Y-114617500D02*
G75*
G03X239839500Y-114935000I317500J0D01*
G01*
X240157000Y-118491000D02*
X240157000Y-115252500D01*
X239522000Y-108394500D02*
G75*
G02X239839500Y-108077000I317500J0D01*
G01*
X240157000Y-107759500D02*
G75*
G02X239839500Y-108077000I-317500J0D01*
G01*
X239522000Y-110236000D02*
X239522000Y-108394500D01*
X241300000Y-101536500D02*
X256540000Y-101536500D01*
X257683000Y-102679500D02*
G75*
G03X256540000Y-101536500I-1143000J0D01*
G01*
X250825000Y-113728500D02*
X250825000Y-117157500D01*
X247078500Y-113601500D02*
X250698000Y-113601500D01*
X246951500Y-117157500D02*
X246951500Y-113728500D01*
X250698000Y-117284500D02*
X247078500Y-117284500D01*
X247078500Y-117284500D02*
G75*
G02X246951500Y-117157500I0J127000D01*
G01*
X250698000Y-113601500D02*
G75*
G02X250825000Y-113728500I0J-127000D01*
G01*
X250825000Y-117157500D02*
G75*
G02X250698000Y-117284500I-127000J0D01*
G01*
X246951500Y-113728500D02*
G75*
G02X247078500Y-113601500I127000J0D01*
G01*
X240157000Y-102679500D02*
X240157000Y-107759500D01*
X241300000Y-119634000D02*
X256540000Y-119634000D01*
X241300000Y-101536500D02*
G75*
G03X240157000Y-102679500I0J-1143000D01*
G01*
X241300000Y-119634000D02*
G75*
G02X240157000Y-118491000I0J1143000D01*
G01*
X256540000Y-119634000D02*
G75*
G03X257683000Y-118491000I0J1143000D01*
G01*
X239522000Y-112776000D02*
G75*
G03X240792000Y-111506000I0J1270000D01*
G01*
X240792000Y-111506000D02*
G75*
G03X239522000Y-110236000I-1270000J0D01*
G01*
M02*
