G04 #@! TF.GenerationSoftware,KiCad,Pcbnew,5.1.5-52549c5~84~ubuntu18.04.1*
G04 #@! TF.CreationDate,2020-04-11T16:09:32-04:00*
G04 #@! TF.ProjectId,amoeba-royale,616d6f65-6261-42d7-926f-79616c652e6b,rev?*
G04 #@! TF.SameCoordinates,Original*
G04 #@! TF.FileFunction,Legend,Top*
G04 #@! TF.FilePolarity,Positive*
%FSLAX46Y46*%
G04 Gerber Fmt 4.6, Leading zero omitted, Abs format (unit mm)*
G04 Created by KiCad (PCBNEW 5.1.5-52549c5~84~ubuntu18.04.1) date 2020-04-11 16:09:32*
%MOMM*%
%LPD*%
G04 APERTURE LIST*
%ADD10C,0.150000*%
%ADD11C,0.100000*%
%ADD12C,0.120000*%
G04 APERTURE END LIST*
D10*
X243424666Y-105853666D02*
X243191333Y-105520333D01*
X243024666Y-105853666D02*
X243024666Y-105153666D01*
X243291333Y-105153666D01*
X243358000Y-105187000D01*
X243391333Y-105220333D01*
X243424666Y-105287000D01*
X243424666Y-105387000D01*
X243391333Y-105453666D01*
X243358000Y-105487000D01*
X243291333Y-105520333D01*
X243024666Y-105520333D01*
X243824666Y-105853666D02*
X243758000Y-105820333D01*
X243724666Y-105787000D01*
X243691333Y-105720333D01*
X243691333Y-105520333D01*
X243724666Y-105453666D01*
X243758000Y-105420333D01*
X243824666Y-105387000D01*
X243924666Y-105387000D01*
X243991333Y-105420333D01*
X244024666Y-105453666D01*
X244058000Y-105520333D01*
X244058000Y-105720333D01*
X244024666Y-105787000D01*
X243991333Y-105820333D01*
X243924666Y-105853666D01*
X243824666Y-105853666D01*
X244291333Y-105387000D02*
X244458000Y-105853666D01*
X244624666Y-105387000D02*
X244458000Y-105853666D01*
X244391333Y-106020333D01*
X244358000Y-106053666D01*
X244291333Y-106087000D01*
X245191333Y-105853666D02*
X245191333Y-105487000D01*
X245158000Y-105420333D01*
X245091333Y-105387000D01*
X244958000Y-105387000D01*
X244891333Y-105420333D01*
X245191333Y-105820333D02*
X245124666Y-105853666D01*
X244958000Y-105853666D01*
X244891333Y-105820333D01*
X244858000Y-105753666D01*
X244858000Y-105687000D01*
X244891333Y-105620333D01*
X244958000Y-105587000D01*
X245124666Y-105587000D01*
X245191333Y-105553666D01*
X245624666Y-105853666D02*
X245558000Y-105820333D01*
X245524666Y-105753666D01*
X245524666Y-105153666D01*
X246158000Y-105820333D02*
X246091333Y-105853666D01*
X245958000Y-105853666D01*
X245891333Y-105820333D01*
X245858000Y-105753666D01*
X245858000Y-105487000D01*
X245891333Y-105420333D01*
X245958000Y-105387000D01*
X246091333Y-105387000D01*
X246158000Y-105420333D01*
X246191333Y-105487000D01*
X246191333Y-105553666D01*
X245858000Y-105620333D01*
X243054833Y-104574166D02*
X243388166Y-104574166D01*
X242988166Y-104774166D02*
X243221500Y-104074166D01*
X243454833Y-104774166D01*
X243688166Y-104774166D02*
X243688166Y-104074166D01*
X243921500Y-104574166D01*
X244154833Y-104074166D01*
X244154833Y-104774166D01*
X244621500Y-104074166D02*
X244754833Y-104074166D01*
X244821500Y-104107500D01*
X244888166Y-104174166D01*
X244921500Y-104307500D01*
X244921500Y-104540833D01*
X244888166Y-104674166D01*
X244821500Y-104740833D01*
X244754833Y-104774166D01*
X244621500Y-104774166D01*
X244554833Y-104740833D01*
X244488166Y-104674166D01*
X244454833Y-104540833D01*
X244454833Y-104307500D01*
X244488166Y-104174166D01*
X244554833Y-104107500D01*
X244621500Y-104074166D01*
X245221500Y-104407500D02*
X245454833Y-104407500D01*
X245554833Y-104774166D02*
X245221500Y-104774166D01*
X245221500Y-104074166D01*
X245554833Y-104074166D01*
X246088166Y-104407500D02*
X246188166Y-104440833D01*
X246221500Y-104474166D01*
X246254833Y-104540833D01*
X246254833Y-104640833D01*
X246221500Y-104707500D01*
X246188166Y-104740833D01*
X246121500Y-104774166D01*
X245854833Y-104774166D01*
X245854833Y-104074166D01*
X246088166Y-104074166D01*
X246154833Y-104107500D01*
X246188166Y-104140833D01*
X246221500Y-104207500D01*
X246221500Y-104274166D01*
X246188166Y-104340833D01*
X246154833Y-104374166D01*
X246088166Y-104407500D01*
X245854833Y-104407500D01*
X246521500Y-104574166D02*
X246854833Y-104574166D01*
X246454833Y-104774166D02*
X246688166Y-104074166D01*
X246921500Y-104774166D01*
D11*
G36*
X246634000Y-113665000D02*
G01*
X246634000Y-113284000D01*
X247015000Y-113284000D01*
X246634000Y-113665000D01*
G37*
X246634000Y-113665000D02*
X246634000Y-113284000D01*
X247015000Y-113284000D01*
X246634000Y-113665000D01*
D12*
X249887125Y-107650000D02*
X249995458Y-108116666D01*
X250220458Y-107650000D01*
X250474625Y-107483333D02*
X250512125Y-107450000D01*
X250582958Y-107416666D01*
X250749625Y-107416666D01*
X250812125Y-107450000D01*
X250841291Y-107483333D01*
X250866291Y-107550000D01*
X250857958Y-107616666D01*
X250812125Y-107716666D01*
X250362125Y-108116666D01*
X250795458Y-108116666D01*
X251103791Y-108050000D02*
X251132958Y-108083333D01*
X251095458Y-108116666D01*
X251066291Y-108083333D01*
X251103791Y-108050000D01*
X251095458Y-108116666D01*
X251649625Y-107416666D02*
X251716291Y-107416666D01*
X251778791Y-107450000D01*
X251807958Y-107483333D01*
X251832958Y-107550000D01*
X251849625Y-107683333D01*
X251828791Y-107850000D01*
X251778791Y-107983333D01*
X251737125Y-108050000D01*
X251699625Y-108083333D01*
X251628791Y-108116666D01*
X251562125Y-108116666D01*
X251499625Y-108083333D01*
X251470458Y-108050000D01*
X251445458Y-107983333D01*
X251428791Y-107850000D01*
X251449625Y-107683333D01*
X251499625Y-107550000D01*
X251541291Y-107483333D01*
X251578791Y-107450000D01*
X251649625Y-107416666D01*
D10*
X251660000Y-117029666D02*
X251260000Y-117029666D01*
X251460000Y-117029666D02*
X251460000Y-116329666D01*
X251393333Y-116429666D01*
X251326666Y-116496333D01*
X251260000Y-116529666D01*
M02*
