G04 #@! TF.GenerationSoftware,KiCad,Pcbnew,5.1.5-52549c5~84~ubuntu18.04.1*
G04 #@! TF.CreationDate,2020-04-11T16:09:32-04:00*
G04 #@! TF.ProjectId,amoeba-royale,616d6f65-6261-42d7-926f-79616c652e6b,rev?*
G04 #@! TF.SameCoordinates,Original*
G04 #@! TF.FileFunction,Copper,L1,Top*
G04 #@! TF.FilePolarity,Positive*
%FSLAX46Y46*%
G04 Gerber Fmt 4.6, Leading zero omitted, Abs format (unit mm)*
G04 Created by KiCad (PCBNEW 5.1.5-52549c5~84~ubuntu18.04.1) date 2020-04-11 16:09:32*
%MOMM*%
%LPD*%
G04 APERTURE LIST*
%ADD10C,0.002540*%
%ADD11C,0.150000*%
%ADD12C,0.094155*%
%ADD13R,1.500000X1.500000*%
%ADD14C,1.500000*%
%ADD15R,1.600000X1.600000*%
%ADD16O,1.600000X1.600000*%
%ADD17C,0.889000*%
%ADD18C,0.254000*%
G04 APERTURE END LIST*
D10*
G36*
X256566500Y-113209002D02*
G01*
X256558343Y-113259574D01*
X256535629Y-113303496D01*
X256500994Y-113338131D01*
X256457072Y-113360845D01*
X256406500Y-113369003D01*
X256355928Y-113360845D01*
X256312006Y-113338131D01*
X256277371Y-113303496D01*
X256254656Y-113259574D01*
X256246499Y-113209002D01*
X256254656Y-113158429D01*
X256277371Y-113114508D01*
X256312006Y-113079873D01*
X256355928Y-113057159D01*
X256406500Y-113049002D01*
X256457072Y-113057159D01*
X256500994Y-113079873D01*
X256535629Y-113114508D01*
X256558343Y-113158429D01*
X256566500Y-113209002D01*
G37*
X256566500Y-113209002D02*
X256558343Y-113259574D01*
X256535629Y-113303496D01*
X256500994Y-113338131D01*
X256457072Y-113360845D01*
X256406500Y-113369003D01*
X256355928Y-113360845D01*
X256312006Y-113338131D01*
X256277371Y-113303496D01*
X256254656Y-113259574D01*
X256246499Y-113209002D01*
X256254656Y-113158429D01*
X256277371Y-113114508D01*
X256312006Y-113079873D01*
X256355928Y-113057159D01*
X256406500Y-113049002D01*
X256457072Y-113057159D01*
X256500994Y-113079873D01*
X256535629Y-113114508D01*
X256558343Y-113158429D01*
X256566500Y-113209002D01*
G36*
X256566500Y-112729004D02*
G01*
X256558343Y-112779576D01*
X256535629Y-112823498D01*
X256500994Y-112858133D01*
X256457072Y-112880847D01*
X256406500Y-112889005D01*
X256355928Y-112880847D01*
X256312006Y-112858133D01*
X256277371Y-112823498D01*
X256254656Y-112779576D01*
X256246499Y-112729004D01*
X256254656Y-112678432D01*
X256277371Y-112634510D01*
X256312006Y-112599875D01*
X256355928Y-112577161D01*
X256406500Y-112569004D01*
X256457072Y-112577161D01*
X256500994Y-112599875D01*
X256535629Y-112634510D01*
X256558343Y-112678432D01*
X256566500Y-112729004D01*
G37*
X256566500Y-112729004D02*
X256558343Y-112779576D01*
X256535629Y-112823498D01*
X256500994Y-112858133D01*
X256457072Y-112880847D01*
X256406500Y-112889005D01*
X256355928Y-112880847D01*
X256312006Y-112858133D01*
X256277371Y-112823498D01*
X256254656Y-112779576D01*
X256246499Y-112729004D01*
X256254656Y-112678432D01*
X256277371Y-112634510D01*
X256312006Y-112599875D01*
X256355928Y-112577161D01*
X256406500Y-112569004D01*
X256457072Y-112577161D01*
X256500994Y-112599875D01*
X256535629Y-112634510D01*
X256558343Y-112678432D01*
X256566500Y-112729004D01*
G36*
X256566500Y-112249004D02*
G01*
X256558343Y-112299575D01*
X256535629Y-112343497D01*
X256500994Y-112378133D01*
X256457072Y-112400847D01*
X256406500Y-112409004D01*
X256355928Y-112400847D01*
X256312006Y-112378133D01*
X256277371Y-112343497D01*
X256254656Y-112299575D01*
X256246499Y-112249004D01*
X256254656Y-112198431D01*
X256277371Y-112154509D01*
X256312006Y-112119874D01*
X256355928Y-112097160D01*
X256406500Y-112089003D01*
X256457072Y-112097160D01*
X256500994Y-112119874D01*
X256535629Y-112154509D01*
X256558343Y-112198431D01*
X256566500Y-112249004D01*
G37*
X256566500Y-112249004D02*
X256558343Y-112299575D01*
X256535629Y-112343497D01*
X256500994Y-112378133D01*
X256457072Y-112400847D01*
X256406500Y-112409004D01*
X256355928Y-112400847D01*
X256312006Y-112378133D01*
X256277371Y-112343497D01*
X256254656Y-112299575D01*
X256246499Y-112249004D01*
X256254656Y-112198431D01*
X256277371Y-112154509D01*
X256312006Y-112119874D01*
X256355928Y-112097160D01*
X256406500Y-112089003D01*
X256457072Y-112097160D01*
X256500994Y-112119874D01*
X256535629Y-112154509D01*
X256558343Y-112198431D01*
X256566500Y-112249004D01*
G36*
X255926499Y-112729004D02*
G01*
X255918342Y-112779576D01*
X255895628Y-112823498D01*
X255860993Y-112858133D01*
X255817071Y-112880847D01*
X255766499Y-112889005D01*
X255715927Y-112880847D01*
X255672005Y-112858133D01*
X255637370Y-112823498D01*
X255614655Y-112779576D01*
X255606498Y-112729004D01*
X255614655Y-112678432D01*
X255637370Y-112634510D01*
X255672005Y-112599875D01*
X255715927Y-112577161D01*
X255766499Y-112569004D01*
X255817071Y-112577161D01*
X255860993Y-112599875D01*
X255895628Y-112634510D01*
X255918342Y-112678432D01*
X255926499Y-112729004D01*
G37*
X255926499Y-112729004D02*
X255918342Y-112779576D01*
X255895628Y-112823498D01*
X255860993Y-112858133D01*
X255817071Y-112880847D01*
X255766499Y-112889005D01*
X255715927Y-112880847D01*
X255672005Y-112858133D01*
X255637370Y-112823498D01*
X255614655Y-112779576D01*
X255606498Y-112729004D01*
X255614655Y-112678432D01*
X255637370Y-112634510D01*
X255672005Y-112599875D01*
X255715927Y-112577161D01*
X255766499Y-112569004D01*
X255817071Y-112577161D01*
X255860993Y-112599875D01*
X255895628Y-112634510D01*
X255918342Y-112678432D01*
X255926499Y-112729004D01*
G36*
X255926499Y-112249004D02*
G01*
X255918342Y-112299575D01*
X255895628Y-112343497D01*
X255860993Y-112378133D01*
X255817071Y-112400847D01*
X255766499Y-112409004D01*
X255715927Y-112400847D01*
X255672005Y-112378133D01*
X255637370Y-112343497D01*
X255614655Y-112299575D01*
X255606498Y-112249004D01*
X255614655Y-112198431D01*
X255637370Y-112154509D01*
X255672005Y-112119874D01*
X255715927Y-112097160D01*
X255766499Y-112089003D01*
X255817071Y-112097160D01*
X255860993Y-112119874D01*
X255895628Y-112154509D01*
X255918342Y-112198431D01*
X255926499Y-112249004D01*
G37*
X255926499Y-112249004D02*
X255918342Y-112299575D01*
X255895628Y-112343497D01*
X255860993Y-112378133D01*
X255817071Y-112400847D01*
X255766499Y-112409004D01*
X255715927Y-112400847D01*
X255672005Y-112378133D01*
X255637370Y-112343497D01*
X255614655Y-112299575D01*
X255606498Y-112249004D01*
X255614655Y-112198431D01*
X255637370Y-112154509D01*
X255672005Y-112119874D01*
X255715927Y-112097160D01*
X255766499Y-112089003D01*
X255817071Y-112097160D01*
X255860993Y-112119874D01*
X255895628Y-112154509D01*
X255918342Y-112198431D01*
X255926499Y-112249004D01*
G36*
X255446498Y-113209002D02*
G01*
X255438341Y-113259574D01*
X255415628Y-113303496D01*
X255380992Y-113338131D01*
X255337071Y-113360845D01*
X255286498Y-113369003D01*
X255235926Y-113360845D01*
X255192005Y-113338131D01*
X255157369Y-113303496D01*
X255134655Y-113259574D01*
X255126498Y-113209002D01*
X255134655Y-113158429D01*
X255157369Y-113114508D01*
X255192005Y-113079873D01*
X255235926Y-113057159D01*
X255286498Y-113049002D01*
X255337071Y-113057159D01*
X255380992Y-113079873D01*
X255415628Y-113114508D01*
X255438341Y-113158429D01*
X255446498Y-113209002D01*
G37*
X255446498Y-113209002D02*
X255438341Y-113259574D01*
X255415628Y-113303496D01*
X255380992Y-113338131D01*
X255337071Y-113360845D01*
X255286498Y-113369003D01*
X255235926Y-113360845D01*
X255192005Y-113338131D01*
X255157369Y-113303496D01*
X255134655Y-113259574D01*
X255126498Y-113209002D01*
X255134655Y-113158429D01*
X255157369Y-113114508D01*
X255192005Y-113079873D01*
X255235926Y-113057159D01*
X255286498Y-113049002D01*
X255337071Y-113057159D01*
X255380992Y-113079873D01*
X255415628Y-113114508D01*
X255438341Y-113158429D01*
X255446498Y-113209002D01*
G36*
X255446498Y-112729004D02*
G01*
X255438341Y-112779576D01*
X255415628Y-112823498D01*
X255380992Y-112858133D01*
X255337071Y-112880847D01*
X255286498Y-112889005D01*
X255235926Y-112880847D01*
X255192005Y-112858133D01*
X255157369Y-112823498D01*
X255134655Y-112779576D01*
X255126498Y-112729004D01*
X255134655Y-112678432D01*
X255157369Y-112634510D01*
X255192005Y-112599875D01*
X255235926Y-112577161D01*
X255286498Y-112569004D01*
X255337071Y-112577161D01*
X255380992Y-112599875D01*
X255415628Y-112634510D01*
X255438341Y-112678432D01*
X255446498Y-112729004D01*
G37*
X255446498Y-112729004D02*
X255438341Y-112779576D01*
X255415628Y-112823498D01*
X255380992Y-112858133D01*
X255337071Y-112880847D01*
X255286498Y-112889005D01*
X255235926Y-112880847D01*
X255192005Y-112858133D01*
X255157369Y-112823498D01*
X255134655Y-112779576D01*
X255126498Y-112729004D01*
X255134655Y-112678432D01*
X255157369Y-112634510D01*
X255192005Y-112599875D01*
X255235926Y-112577161D01*
X255286498Y-112569004D01*
X255337071Y-112577161D01*
X255380992Y-112599875D01*
X255415628Y-112634510D01*
X255438341Y-112678432D01*
X255446498Y-112729004D01*
G36*
X254806497Y-112249004D02*
G01*
X254798340Y-112299575D01*
X254775626Y-112343497D01*
X254740991Y-112378133D01*
X254697070Y-112400847D01*
X254646497Y-112409004D01*
X254595925Y-112400847D01*
X254552004Y-112378133D01*
X254517368Y-112343497D01*
X254494654Y-112299575D01*
X254486497Y-112249004D01*
X254494654Y-112198431D01*
X254517368Y-112154509D01*
X254552004Y-112119874D01*
X254595925Y-112097160D01*
X254646497Y-112089003D01*
X254697070Y-112097160D01*
X254740991Y-112119874D01*
X254775626Y-112154509D01*
X254798340Y-112198431D01*
X254806497Y-112249004D01*
G37*
X254806497Y-112249004D02*
X254798340Y-112299575D01*
X254775626Y-112343497D01*
X254740991Y-112378133D01*
X254697070Y-112400847D01*
X254646497Y-112409004D01*
X254595925Y-112400847D01*
X254552004Y-112378133D01*
X254517368Y-112343497D01*
X254494654Y-112299575D01*
X254486497Y-112249004D01*
X254494654Y-112198431D01*
X254517368Y-112154509D01*
X254552004Y-112119874D01*
X254595925Y-112097160D01*
X254646497Y-112089003D01*
X254697070Y-112097160D01*
X254740991Y-112119874D01*
X254775626Y-112154509D01*
X254798340Y-112198431D01*
X254806497Y-112249004D01*
G36*
X254326500Y-113209002D02*
G01*
X254318343Y-113259574D01*
X254295629Y-113303496D01*
X254260993Y-113338131D01*
X254217072Y-113360845D01*
X254166500Y-113369003D01*
X254115927Y-113360845D01*
X254072006Y-113338131D01*
X254037370Y-113303496D01*
X254014656Y-113259574D01*
X254006500Y-113209002D01*
X254014656Y-113158429D01*
X254037370Y-113114508D01*
X254072006Y-113079873D01*
X254115927Y-113057159D01*
X254166500Y-113049002D01*
X254217072Y-113057159D01*
X254260993Y-113079873D01*
X254295629Y-113114508D01*
X254318343Y-113158429D01*
X254326500Y-113209002D01*
G37*
X254326500Y-113209002D02*
X254318343Y-113259574D01*
X254295629Y-113303496D01*
X254260993Y-113338131D01*
X254217072Y-113360845D01*
X254166500Y-113369003D01*
X254115927Y-113360845D01*
X254072006Y-113338131D01*
X254037370Y-113303496D01*
X254014656Y-113259574D01*
X254006500Y-113209002D01*
X254014656Y-113158429D01*
X254037370Y-113114508D01*
X254072006Y-113079873D01*
X254115927Y-113057159D01*
X254166500Y-113049002D01*
X254217072Y-113057159D01*
X254260993Y-113079873D01*
X254295629Y-113114508D01*
X254318343Y-113158429D01*
X254326500Y-113209002D01*
G36*
X254326500Y-112249004D02*
G01*
X254318343Y-112299575D01*
X254295629Y-112343497D01*
X254260993Y-112378133D01*
X254217072Y-112400847D01*
X254166500Y-112409004D01*
X254115927Y-112400847D01*
X254072006Y-112378133D01*
X254037370Y-112343497D01*
X254014656Y-112299575D01*
X254006500Y-112249004D01*
X254014656Y-112198431D01*
X254037370Y-112154509D01*
X254072006Y-112119874D01*
X254115927Y-112097160D01*
X254166500Y-112089003D01*
X254217072Y-112097160D01*
X254260993Y-112119874D01*
X254295629Y-112154509D01*
X254318343Y-112198431D01*
X254326500Y-112249004D01*
G37*
X254326500Y-112249004D02*
X254318343Y-112299575D01*
X254295629Y-112343497D01*
X254260993Y-112378133D01*
X254217072Y-112400847D01*
X254166500Y-112409004D01*
X254115927Y-112400847D01*
X254072006Y-112378133D01*
X254037370Y-112343497D01*
X254014656Y-112299575D01*
X254006500Y-112249004D01*
X254014656Y-112198431D01*
X254037370Y-112154509D01*
X254072006Y-112119874D01*
X254115927Y-112097160D01*
X254166500Y-112089003D01*
X254217072Y-112097160D01*
X254260993Y-112119874D01*
X254295629Y-112154509D01*
X254318343Y-112198431D01*
X254326500Y-112249004D01*
D11*
G36*
X254684164Y-104086420D02*
G01*
X254706754Y-104665967D01*
X254837618Y-104665967D01*
X254845857Y-104676949D01*
X254844936Y-104796831D01*
X254890694Y-104796831D01*
X254897101Y-104815136D01*
X254950177Y-104816051D01*
X254957498Y-104820396D01*
X254962991Y-104827948D01*
X255038945Y-105000910D01*
X255020638Y-105008228D01*
X255021559Y-105037515D01*
X255026137Y-105036601D01*
X255026137Y-105092425D01*
X254997766Y-105201326D01*
X254910175Y-105201326D01*
X254910175Y-105213222D01*
X254832391Y-105213222D01*
X254832391Y-105318463D01*
X254814087Y-105336763D01*
X254793957Y-105318463D01*
X254794878Y-105280029D01*
X254767421Y-105317549D01*
X254669502Y-105317549D01*
X254649367Y-105280944D01*
X254650287Y-105214137D01*
X254600871Y-105214137D01*
X254601791Y-105319378D01*
X254581656Y-105337678D01*
X254560612Y-105319378D01*
X254560612Y-105213222D01*
X254528581Y-105213222D01*
X254528581Y-105199496D01*
X254496549Y-105201325D01*
X254464523Y-105091505D01*
X254465444Y-105039344D01*
X254470019Y-105038430D01*
X254469098Y-105008228D01*
X254461773Y-105008228D01*
X254452626Y-105001824D01*
X254532240Y-104822459D01*
X254536589Y-104818109D01*
X254542307Y-104816051D01*
X254593554Y-104816051D01*
X254602707Y-104795917D01*
X254646608Y-104795917D01*
X254646608Y-104676035D01*
X254706754Y-104665967D01*
X254684164Y-104086420D01*
X254657022Y-104087450D01*
X254629972Y-104090539D01*
X254603013Y-104095689D01*
X254576146Y-104102898D01*
X254549370Y-104112166D01*
X254522685Y-104123494D01*
X254496092Y-104136882D01*
X254469591Y-104152330D01*
X254443182Y-104169837D01*
X254419940Y-104188458D01*
X254397767Y-104210348D01*
X254376807Y-104234600D01*
X254357209Y-104260303D01*
X254339116Y-104286550D01*
X254322675Y-104312432D01*
X254308033Y-104337039D01*
X254295334Y-104359464D01*
X254284725Y-104378797D01*
X254276352Y-104394130D01*
X254254263Y-104433034D01*
X254232059Y-104470140D01*
X254209761Y-104505507D01*
X254187391Y-104539190D01*
X254164968Y-104571248D01*
X254142513Y-104601739D01*
X254120047Y-104630719D01*
X254097590Y-104658246D01*
X254075163Y-104684378D01*
X254052787Y-104709173D01*
X254030482Y-104732687D01*
X254008268Y-104754979D01*
X253986168Y-104776105D01*
X253964200Y-104796123D01*
X253942386Y-104815092D01*
X253920746Y-104833067D01*
X253899301Y-104850108D01*
X253878072Y-104866271D01*
X253857079Y-104881613D01*
X253836342Y-104896193D01*
X253815883Y-104910068D01*
X253795722Y-104923295D01*
X253775879Y-104935931D01*
X253756376Y-104948036D01*
X253737233Y-104959664D01*
X253718470Y-104970876D01*
X253700108Y-104981727D01*
X253682168Y-104992275D01*
X253664670Y-105002579D01*
X253647635Y-105012694D01*
X253631084Y-105022680D01*
X253615036Y-105032593D01*
X253599514Y-105042490D01*
X253584537Y-105052431D01*
X253570126Y-105062471D01*
X253556301Y-105072668D01*
X253543084Y-105083080D01*
X253530494Y-105093765D01*
X253518554Y-105104779D01*
X253507282Y-105116181D01*
X253496700Y-105128028D01*
X253486828Y-105140377D01*
X253477687Y-105153286D01*
X253469298Y-105166813D01*
X253461680Y-105181014D01*
X253454856Y-105195948D01*
X253448845Y-105211672D01*
X253443668Y-105228243D01*
X253439346Y-105245719D01*
X253435899Y-105264158D01*
X253433348Y-105283617D01*
X253431713Y-105304153D01*
X253431016Y-105325824D01*
X253431284Y-105351076D01*
X253432577Y-105374471D01*
X253434843Y-105396107D01*
X253438028Y-105416083D01*
X253442082Y-105434498D01*
X253446951Y-105451450D01*
X253452583Y-105467039D01*
X253458925Y-105481363D01*
X253465926Y-105494521D01*
X253473533Y-105506612D01*
X253481693Y-105517734D01*
X253490355Y-105527987D01*
X253499466Y-105537470D01*
X253508973Y-105546280D01*
X253518824Y-105554518D01*
X253528967Y-105562282D01*
X253539349Y-105569670D01*
X253549919Y-105576781D01*
X253560623Y-105583715D01*
X253571410Y-105590571D01*
X253582226Y-105597446D01*
X253593021Y-105604440D01*
X253603740Y-105611651D01*
X253614332Y-105619179D01*
X253624745Y-105627122D01*
X253634926Y-105635580D01*
X253644823Y-105644650D01*
X253654384Y-105654432D01*
X253663555Y-105665025D01*
X253672285Y-105676527D01*
X253680522Y-105689037D01*
X253688212Y-105702654D01*
X253695304Y-105717478D01*
X253701746Y-105733605D01*
X253707484Y-105751137D01*
X253712467Y-105770171D01*
X253716642Y-105790806D01*
X253719958Y-105813141D01*
X253722360Y-105837275D01*
X253723798Y-105863306D01*
X253724218Y-105891334D01*
X253723569Y-105921458D01*
X253721798Y-105953775D01*
X253718852Y-105988386D01*
X253714680Y-106025388D01*
X253710232Y-106062360D01*
X253706996Y-106095396D01*
X253705372Y-106125200D01*
X253705756Y-106152477D01*
X253708547Y-106177932D01*
X253714144Y-106202271D01*
X253722945Y-106226198D01*
X253735348Y-106250418D01*
X253751752Y-106275635D01*
X253770586Y-106299756D01*
X253790840Y-106321040D01*
X253812512Y-106339485D01*
X253835604Y-106355093D01*
X253860114Y-106367863D01*
X253886043Y-106377795D01*
X253913391Y-106384890D01*
X253942158Y-106389147D01*
X253972343Y-106390566D01*
X254013125Y-106390566D01*
X254042784Y-106389431D01*
X254071384Y-106386026D01*
X254098924Y-106380352D01*
X254125405Y-106372407D01*
X254150827Y-106362193D01*
X254175190Y-106349710D01*
X254198493Y-106334956D01*
X254222746Y-106316625D01*
X254243600Y-106296233D01*
X254261056Y-106273782D01*
X254275113Y-106249271D01*
X254285772Y-106222701D01*
X254293032Y-106194071D01*
X254293106Y-106190829D01*
X254293501Y-106181553D01*
X254294473Y-106166918D01*
X254296283Y-106147600D01*
X254299188Y-106124273D01*
X254303446Y-106097612D01*
X254309317Y-106068293D01*
X254317058Y-106036990D01*
X254326928Y-106004380D01*
X254339185Y-105971136D01*
X254354087Y-105937935D01*
X254371893Y-105905450D01*
X254392862Y-105874358D01*
X254417251Y-105845333D01*
X254445319Y-105819051D01*
X254467561Y-105802294D01*
X254491335Y-105787285D01*
X254516481Y-105774015D01*
X254542838Y-105762479D01*
X254570247Y-105752668D01*
X254598548Y-105744574D01*
X254627581Y-105738191D01*
X254657185Y-105733512D01*
X254687201Y-105730528D01*
X254717468Y-105729233D01*
X254747827Y-105729620D01*
X254778118Y-105731680D01*
X254808181Y-105735406D01*
X254837854Y-105740792D01*
X254866980Y-105747829D01*
X254895397Y-105756511D01*
X254922945Y-105766830D01*
X254949466Y-105778778D01*
X254974797Y-105792349D01*
X254998780Y-105807535D01*
X255021254Y-105824328D01*
X255049713Y-105850568D01*
X255074582Y-105879569D01*
X255096103Y-105910655D01*
X255114517Y-105943147D01*
X255130065Y-105976369D01*
X255142988Y-106009642D01*
X255153528Y-106042290D01*
X255161924Y-106073634D01*
X255168419Y-106102997D01*
X255173253Y-106129702D01*
X255176668Y-106153070D01*
X255178904Y-106172425D01*
X255180203Y-106187089D01*
X255180805Y-106196384D01*
X255180952Y-106199633D01*
X255187698Y-106226049D01*
X255198048Y-106250919D01*
X255212002Y-106274246D01*
X255229561Y-106296027D01*
X255250724Y-106316263D01*
X255275492Y-106334955D01*
X255300568Y-106351947D01*
X255326366Y-106365849D01*
X255352884Y-106376662D01*
X255380122Y-106384386D01*
X255408082Y-106389020D01*
X255436763Y-106390565D01*
X255477545Y-106390565D01*
X255507410Y-106389100D01*
X255536040Y-106384706D01*
X255563433Y-106377383D01*
X255589591Y-106367130D01*
X255614513Y-106353949D01*
X255638199Y-106337838D01*
X255660649Y-106318797D01*
X255681864Y-106296828D01*
X255701843Y-106271929D01*
X255718744Y-106247909D01*
X255733010Y-106226066D01*
X255744357Y-106205106D01*
X255752499Y-106183734D01*
X255757153Y-106160656D01*
X255758036Y-106134577D01*
X255754862Y-106104202D01*
X255747347Y-106068237D01*
X255735208Y-106025387D01*
X255719834Y-105974619D01*
X255705743Y-105925264D01*
X255692897Y-105877295D01*
X255681261Y-105830687D01*
X255670797Y-105785412D01*
X255661469Y-105741444D01*
X255653240Y-105698756D01*
X255646073Y-105657322D01*
X255639932Y-105617116D01*
X255634780Y-105578110D01*
X255630580Y-105540279D01*
X255627296Y-105503595D01*
X255624890Y-105468033D01*
X255623327Y-105433565D01*
X255622570Y-105400166D01*
X255622581Y-105367809D01*
X255623324Y-105336466D01*
X255624763Y-105306112D01*
X255626860Y-105276720D01*
X255629579Y-105248264D01*
X255632884Y-105220717D01*
X255636737Y-105194053D01*
X255641102Y-105168244D01*
X255645942Y-105143265D01*
X255651221Y-105119089D01*
X255656901Y-105095689D01*
X255662947Y-105073039D01*
X255669321Y-105051112D01*
X255675987Y-105029882D01*
X255682907Y-105009323D01*
X255690046Y-104989407D01*
X255697367Y-104970109D01*
X255704832Y-104951401D01*
X255712406Y-104933257D01*
X255720051Y-104915651D01*
X255727731Y-104898556D01*
X255735409Y-104881946D01*
X255743049Y-104865794D01*
X255750613Y-104850073D01*
X255758065Y-104834757D01*
X255765368Y-104819820D01*
X255772486Y-104805235D01*
X255779382Y-104790975D01*
X255786019Y-104777014D01*
X255792361Y-104763326D01*
X255798370Y-104749883D01*
X255804011Y-104736660D01*
X255809246Y-104723629D01*
X255814038Y-104710765D01*
X255818352Y-104698041D01*
X255822150Y-104685429D01*
X255825396Y-104672905D01*
X255828052Y-104660440D01*
X255830083Y-104648009D01*
X255831451Y-104635585D01*
X255832120Y-104623142D01*
X255832053Y-104610653D01*
X255831214Y-104598091D01*
X255829565Y-104585431D01*
X255827070Y-104572644D01*
X255823693Y-104559706D01*
X255819396Y-104546589D01*
X255809629Y-104523289D01*
X255798305Y-104502929D01*
X255785510Y-104485337D01*
X255771331Y-104470341D01*
X255755851Y-104457766D01*
X255739159Y-104447439D01*
X255721339Y-104439189D01*
X255702478Y-104432842D01*
X255682662Y-104428225D01*
X255661976Y-104425165D01*
X255640506Y-104423489D01*
X255618339Y-104423024D01*
X255595560Y-104423597D01*
X255572255Y-104425035D01*
X255548511Y-104427166D01*
X255524413Y-104429816D01*
X255500047Y-104432812D01*
X255475499Y-104435982D01*
X255450854Y-104439152D01*
X255426200Y-104442150D01*
X255401622Y-104444802D01*
X255377205Y-104446935D01*
X255353036Y-104448377D01*
X255329201Y-104448955D01*
X255305786Y-104448496D01*
X255282876Y-104446826D01*
X255260557Y-104443772D01*
X255238916Y-104439163D01*
X255218039Y-104432824D01*
X255198010Y-104424583D01*
X255178917Y-104414267D01*
X255160845Y-104401703D01*
X255143881Y-104386718D01*
X255131919Y-104372337D01*
X255118398Y-104352320D01*
X255103279Y-104328041D01*
X255086529Y-104300875D01*
X255068111Y-104272196D01*
X255047990Y-104243378D01*
X255026129Y-104215796D01*
X255002493Y-104190824D01*
X254977047Y-104169837D01*
X254950271Y-104152330D01*
X254923496Y-104136882D01*
X254896720Y-104123494D01*
X254869945Y-104112166D01*
X254843170Y-104102897D01*
X254816395Y-104095688D01*
X254789619Y-104090539D01*
X254762844Y-104087450D01*
X254736069Y-104086420D01*
X254684164Y-104086420D01*
G37*
G36*
X243664486Y-111416743D02*
G01*
X243640861Y-111418637D01*
X243618444Y-111424123D01*
X243597538Y-111432906D01*
X243578443Y-111444692D01*
X243561460Y-111459185D01*
X243546890Y-111476092D01*
X243535034Y-111495117D01*
X243526193Y-111515965D01*
X243520668Y-111538342D01*
X243518759Y-111561954D01*
X243520735Y-111585726D01*
X243526448Y-111608116D01*
X243535573Y-111628854D01*
X243547786Y-111647672D01*
X243562762Y-111664301D01*
X243580178Y-111678471D01*
X243599708Y-111689915D01*
X243621029Y-111698363D01*
X243643816Y-111703547D01*
X243641341Y-111731446D01*
X243638780Y-111759645D01*
X243636119Y-111788101D01*
X243633349Y-111816773D01*
X243630459Y-111845618D01*
X243627438Y-111874593D01*
X243624275Y-111903655D01*
X243620958Y-111932764D01*
X243617478Y-111961875D01*
X243613823Y-111990947D01*
X243609983Y-112019936D01*
X243605946Y-112048802D01*
X243601702Y-112077500D01*
X243597239Y-112105989D01*
X243592547Y-112134227D01*
X243587615Y-112162170D01*
X243582432Y-112189777D01*
X243576988Y-112217004D01*
X243571270Y-112243810D01*
X243565269Y-112270152D01*
X243558973Y-112295987D01*
X243552372Y-112321274D01*
X243545454Y-112345969D01*
X243538210Y-112370030D01*
X243530627Y-112393415D01*
X243522695Y-112416082D01*
X243514403Y-112437987D01*
X243505740Y-112459088D01*
X243496696Y-112479343D01*
X243487259Y-112498710D01*
X243477419Y-112517146D01*
X243467164Y-112534608D01*
X243456484Y-112551054D01*
X243445368Y-112566442D01*
X243433805Y-112580730D01*
X243421784Y-112593873D01*
X243409294Y-112605832D01*
X243396324Y-112616561D01*
X243382864Y-112626021D01*
X243368902Y-112634167D01*
X243354428Y-112640958D01*
X243337414Y-112647060D01*
X243319666Y-112651321D01*
X243301232Y-112653816D01*
X243282158Y-112654618D01*
X243262491Y-112653800D01*
X243242278Y-112651438D01*
X243221566Y-112647603D01*
X243200402Y-112642371D01*
X243178831Y-112635814D01*
X243156903Y-112628007D01*
X243134662Y-112619023D01*
X243112156Y-112608937D01*
X243089433Y-112597821D01*
X243066538Y-112585750D01*
X243043518Y-112572798D01*
X243020422Y-112559037D01*
X242997294Y-112544543D01*
X242974183Y-112529389D01*
X242951135Y-112513648D01*
X242928196Y-112497394D01*
X242905415Y-112480701D01*
X242882837Y-112463643D01*
X242860510Y-112446294D01*
X242838480Y-112428727D01*
X242816794Y-112411016D01*
X242795499Y-112393235D01*
X242774642Y-112375457D01*
X242754270Y-112357757D01*
X242734430Y-112340208D01*
X242715168Y-112322884D01*
X242696531Y-112305859D01*
X242678567Y-112289206D01*
X242661322Y-112272999D01*
X242644842Y-112257313D01*
X242629176Y-112242220D01*
X242614369Y-112227794D01*
X242600469Y-112214110D01*
X242614253Y-112197790D01*
X242625038Y-112179276D01*
X242632064Y-112158801D01*
X242634575Y-112136596D01*
X242632302Y-112113940D01*
X242625779Y-112092816D01*
X242615455Y-112073683D01*
X242601775Y-112057000D01*
X242585186Y-112043225D01*
X242566136Y-112032818D01*
X242545071Y-112026237D01*
X242522437Y-112023941D01*
X242499782Y-112026237D01*
X242478658Y-112032818D01*
X242459525Y-112043225D01*
X242442841Y-112057000D01*
X242429067Y-112073683D01*
X242418659Y-112092816D01*
X242412078Y-112113940D01*
X242409783Y-112136596D01*
X242412078Y-112159229D01*
X242418659Y-112180294D01*
X242429067Y-112199345D01*
X242442841Y-112215933D01*
X242459525Y-112229613D01*
X242478658Y-112239938D01*
X242499782Y-112246460D01*
X242522437Y-112248734D01*
X242543553Y-112249147D01*
X242558475Y-112244838D01*
X242573080Y-112236331D01*
X242788571Y-112599100D01*
X242803930Y-112628325D01*
X242818190Y-112656800D01*
X242831367Y-112684522D01*
X242843481Y-112711488D01*
X242854548Y-112737697D01*
X242864587Y-112763146D01*
X242873615Y-112787833D01*
X242881651Y-112811756D01*
X242888711Y-112834914D01*
X242894814Y-112857302D01*
X242899978Y-112878921D01*
X242904220Y-112899766D01*
X242907558Y-112919837D01*
X242910010Y-112939131D01*
X242931745Y-112932671D01*
X242953839Y-112926384D01*
X242976282Y-112920275D01*
X242999068Y-112914350D01*
X243022187Y-112908613D01*
X243045633Y-112903072D01*
X243069397Y-112897730D01*
X243093470Y-112892595D01*
X243117845Y-112887670D01*
X243142514Y-112882962D01*
X243167468Y-112878476D01*
X243192699Y-112874218D01*
X243218200Y-112870193D01*
X243243961Y-112866406D01*
X243269976Y-112862863D01*
X243296236Y-112859571D01*
X243322733Y-112856533D01*
X243349458Y-112853756D01*
X243376404Y-112851245D01*
X243403563Y-112849005D01*
X243430926Y-112847043D01*
X243458485Y-112845363D01*
X243486233Y-112843971D01*
X243514160Y-112842873D01*
X243542260Y-112842074D01*
X243570524Y-112841580D01*
X243598944Y-112841395D01*
X243627511Y-112841527D01*
X243656218Y-112841979D01*
X243685281Y-112842295D01*
X243714136Y-112842894D01*
X243742780Y-112843774D01*
X243771209Y-112844932D01*
X243799419Y-112846362D01*
X243827406Y-112848063D01*
X243855165Y-112850030D01*
X243882694Y-112852260D01*
X243909987Y-112854750D01*
X243937041Y-112857495D01*
X243963853Y-112860493D01*
X243990417Y-112863740D01*
X244016730Y-112867232D01*
X244042789Y-112870965D01*
X244068588Y-112874937D01*
X244094124Y-112879144D01*
X244119394Y-112883583D01*
X244144392Y-112888249D01*
X244169116Y-112893139D01*
X244193561Y-112898250D01*
X244217723Y-112903578D01*
X244241598Y-112909120D01*
X244265183Y-112914872D01*
X244288472Y-112920830D01*
X244311463Y-112926992D01*
X244334151Y-112933353D01*
X244356532Y-112939911D01*
X244378603Y-112946661D01*
X244400359Y-112953600D01*
X244403577Y-112934104D01*
X244407417Y-112913966D01*
X244411952Y-112893176D01*
X244417261Y-112871719D01*
X244423418Y-112849583D01*
X244430500Y-112826755D01*
X244438582Y-112803223D01*
X244447740Y-112778974D01*
X244458051Y-112753994D01*
X244469591Y-112728272D01*
X244482434Y-112701795D01*
X244496658Y-112674550D01*
X244512338Y-112646523D01*
X244529550Y-112617703D01*
X244745557Y-112248217D01*
X244761722Y-112256202D01*
X244779051Y-112262315D01*
X244797234Y-112264753D01*
X244819889Y-112262480D01*
X244841013Y-112255957D01*
X244860146Y-112245633D01*
X244876830Y-112231953D01*
X244890604Y-112215364D01*
X244901012Y-112196314D01*
X244907593Y-112175249D01*
X244909888Y-112152615D01*
X244907593Y-112129960D01*
X244901012Y-112108836D01*
X244890604Y-112089703D01*
X244876830Y-112073020D01*
X244860146Y-112059245D01*
X244841013Y-112048837D01*
X244819889Y-112042256D01*
X244797234Y-112039961D01*
X244774600Y-112042256D01*
X244753535Y-112048837D01*
X244734485Y-112059245D01*
X244717896Y-112073020D01*
X244704216Y-112089703D01*
X244693892Y-112108836D01*
X244687369Y-112129960D01*
X244685096Y-112152615D01*
X244687852Y-112173154D01*
X244695245Y-112193406D01*
X244705961Y-112212512D01*
X244718686Y-112229613D01*
X244704981Y-112242688D01*
X244690325Y-112256533D01*
X244674766Y-112271071D01*
X244658354Y-112286228D01*
X244641136Y-112301929D01*
X244623162Y-112318099D01*
X244604480Y-112334662D01*
X244585139Y-112351543D01*
X244565188Y-112368669D01*
X244544675Y-112385962D01*
X244523649Y-112403348D01*
X244502158Y-112420753D01*
X244480253Y-112438100D01*
X244457980Y-112455315D01*
X244435389Y-112472322D01*
X244412529Y-112489047D01*
X244389447Y-112505415D01*
X244366194Y-112521350D01*
X244342818Y-112536777D01*
X244319366Y-112551621D01*
X244295889Y-112565807D01*
X244272435Y-112579260D01*
X244249052Y-112591904D01*
X244225789Y-112603665D01*
X244202694Y-112614468D01*
X244179818Y-112624237D01*
X244157207Y-112632897D01*
X244134912Y-112640373D01*
X244112980Y-112646591D01*
X244091460Y-112651474D01*
X244070402Y-112654948D01*
X244049853Y-112656937D01*
X244029862Y-112657368D01*
X244010479Y-112656163D01*
X243991751Y-112653249D01*
X243973728Y-112648550D01*
X243956458Y-112641991D01*
X243941635Y-112621894D01*
X243927404Y-112601369D01*
X243913752Y-112580432D01*
X243900664Y-112559102D01*
X243888127Y-112537397D01*
X243876126Y-112515333D01*
X243864649Y-112492928D01*
X243853681Y-112470201D01*
X243843208Y-112447168D01*
X243833218Y-112423847D01*
X243823694Y-112400256D01*
X243814625Y-112376413D01*
X243805996Y-112352334D01*
X243797794Y-112328038D01*
X243790003Y-112303543D01*
X243782612Y-112278865D01*
X243775605Y-112254022D01*
X243768969Y-112229033D01*
X243762691Y-112203914D01*
X243756756Y-112178684D01*
X243751150Y-112153359D01*
X243745860Y-112127958D01*
X243740872Y-112102498D01*
X243736172Y-112076996D01*
X243731747Y-112051471D01*
X243727582Y-112025940D01*
X243723663Y-112000420D01*
X243719977Y-111974929D01*
X243716510Y-111949484D01*
X243713248Y-111924104D01*
X243710178Y-111898806D01*
X243707285Y-111873607D01*
X243704555Y-111848526D01*
X243701976Y-111823579D01*
X243699532Y-111798784D01*
X243697211Y-111774159D01*
X243694998Y-111749722D01*
X243692879Y-111725490D01*
X243690841Y-111701480D01*
X243715129Y-111697346D01*
X243731084Y-111692964D01*
X243747426Y-111684131D01*
X243763381Y-111671281D01*
X243778174Y-111654848D01*
X243791028Y-111635264D01*
X243801170Y-111612965D01*
X243807824Y-111588384D01*
X243810214Y-111561954D01*
X243808305Y-111538342D01*
X243802780Y-111515965D01*
X243793939Y-111495117D01*
X243782083Y-111476092D01*
X243767513Y-111459185D01*
X243750530Y-111444692D01*
X243731435Y-111432906D01*
X243710529Y-111424123D01*
X243688112Y-111418637D01*
X243664486Y-111416743D01*
G37*
D12*
G36*
X243660381Y-112919736D02*
G01*
X243632083Y-112919648D01*
X243603922Y-112919826D01*
X243575908Y-112920270D01*
X243548050Y-112920980D01*
X243520357Y-112921955D01*
X243492839Y-112923193D01*
X243465505Y-112924696D01*
X243438365Y-112926461D01*
X243411429Y-112928489D01*
X243384705Y-112930779D01*
X243358204Y-112933330D01*
X243331934Y-112936142D01*
X243305905Y-112939214D01*
X243280127Y-112942545D01*
X243254608Y-112946135D01*
X243229360Y-112949984D01*
X243204390Y-112954090D01*
X243179708Y-112958454D01*
X243155324Y-112963074D01*
X243131248Y-112967950D01*
X243107488Y-112973081D01*
X243084054Y-112978467D01*
X243060956Y-112984108D01*
X243038203Y-112990002D01*
X243015805Y-112996149D01*
X242993771Y-113002548D01*
X242972109Y-113009200D01*
X242950831Y-113016102D01*
X242929945Y-113023256D01*
X242937552Y-113047418D01*
X242943396Y-113070391D01*
X242947693Y-113092729D01*
X242950656Y-113114986D01*
X242952499Y-113137717D01*
X242973783Y-113131510D01*
X242995426Y-113125465D01*
X243017418Y-113119587D01*
X243039754Y-113113882D01*
X243062426Y-113108355D01*
X243085427Y-113103012D01*
X243108751Y-113097858D01*
X243132390Y-113092900D01*
X243156336Y-113088142D01*
X243180584Y-113083591D01*
X243205126Y-113079252D01*
X243229955Y-113075130D01*
X243255063Y-113071232D01*
X243280445Y-113067562D01*
X243306092Y-113064127D01*
X243331998Y-113060933D01*
X243358156Y-113057984D01*
X243384558Y-113055286D01*
X243411198Y-113052846D01*
X243438069Y-113050668D01*
X243465163Y-113048758D01*
X243492474Y-113047123D01*
X243519994Y-113045767D01*
X243547716Y-113044696D01*
X243575634Y-113043916D01*
X243603741Y-113043432D01*
X243632028Y-113043251D01*
X243660490Y-113043377D01*
X243688941Y-113043796D01*
X243717196Y-113044491D01*
X243745251Y-113045459D01*
X243773101Y-113046697D01*
X243800738Y-113048202D01*
X243828159Y-113049970D01*
X243855358Y-113052000D01*
X243882330Y-113054287D01*
X243909068Y-113056830D01*
X243935568Y-113059625D01*
X243961824Y-113062669D01*
X243987831Y-113065959D01*
X244013583Y-113069493D01*
X244039075Y-113073267D01*
X244064302Y-113077279D01*
X244089257Y-113081524D01*
X244113937Y-113086002D01*
X244138334Y-113090708D01*
X244162445Y-113095640D01*
X244186263Y-113100794D01*
X244209783Y-113106169D01*
X244233000Y-113111760D01*
X244255908Y-113117565D01*
X244278502Y-113123581D01*
X244300776Y-113129804D01*
X244322725Y-113136233D01*
X244344344Y-113142865D01*
X244365627Y-113149695D01*
X244367537Y-113128718D01*
X244371083Y-113107430D01*
X244376084Y-113085670D01*
X244382358Y-113063278D01*
X244389725Y-113040094D01*
X244369075Y-113032696D01*
X244348035Y-113025517D01*
X244326612Y-113018558D01*
X244304813Y-113011820D01*
X244282648Y-113005305D01*
X244260122Y-112999014D01*
X244237244Y-112992949D01*
X244214022Y-112987112D01*
X244190463Y-112981503D01*
X244166576Y-112976125D01*
X244142366Y-112970979D01*
X244117843Y-112966067D01*
X244093014Y-112961389D01*
X244067887Y-112956948D01*
X244042468Y-112952745D01*
X244016767Y-112948781D01*
X243990790Y-112945059D01*
X243964546Y-112941579D01*
X243938041Y-112938342D01*
X243911284Y-112935352D01*
X243884283Y-112932608D01*
X243857044Y-112930114D01*
X243829576Y-112927869D01*
X243801887Y-112925875D01*
X243773983Y-112924135D01*
X243745873Y-112922650D01*
X243717564Y-112921420D01*
X243689064Y-112920449D01*
X243660381Y-112919736D01*
G37*
X243660381Y-112919736D02*
X243632083Y-112919648D01*
X243603922Y-112919826D01*
X243575908Y-112920270D01*
X243548050Y-112920980D01*
X243520357Y-112921955D01*
X243492839Y-112923193D01*
X243465505Y-112924696D01*
X243438365Y-112926461D01*
X243411429Y-112928489D01*
X243384705Y-112930779D01*
X243358204Y-112933330D01*
X243331934Y-112936142D01*
X243305905Y-112939214D01*
X243280127Y-112942545D01*
X243254608Y-112946135D01*
X243229360Y-112949984D01*
X243204390Y-112954090D01*
X243179708Y-112958454D01*
X243155324Y-112963074D01*
X243131248Y-112967950D01*
X243107488Y-112973081D01*
X243084054Y-112978467D01*
X243060956Y-112984108D01*
X243038203Y-112990002D01*
X243015805Y-112996149D01*
X242993771Y-113002548D01*
X242972109Y-113009200D01*
X242950831Y-113016102D01*
X242929945Y-113023256D01*
X242937552Y-113047418D01*
X242943396Y-113070391D01*
X242947693Y-113092729D01*
X242950656Y-113114986D01*
X242952499Y-113137717D01*
X242973783Y-113131510D01*
X242995426Y-113125465D01*
X243017418Y-113119587D01*
X243039754Y-113113882D01*
X243062426Y-113108355D01*
X243085427Y-113103012D01*
X243108751Y-113097858D01*
X243132390Y-113092900D01*
X243156336Y-113088142D01*
X243180584Y-113083591D01*
X243205126Y-113079252D01*
X243229955Y-113075130D01*
X243255063Y-113071232D01*
X243280445Y-113067562D01*
X243306092Y-113064127D01*
X243331998Y-113060933D01*
X243358156Y-113057984D01*
X243384558Y-113055286D01*
X243411198Y-113052846D01*
X243438069Y-113050668D01*
X243465163Y-113048758D01*
X243492474Y-113047123D01*
X243519994Y-113045767D01*
X243547716Y-113044696D01*
X243575634Y-113043916D01*
X243603741Y-113043432D01*
X243632028Y-113043251D01*
X243660490Y-113043377D01*
X243688941Y-113043796D01*
X243717196Y-113044491D01*
X243745251Y-113045459D01*
X243773101Y-113046697D01*
X243800738Y-113048202D01*
X243828159Y-113049970D01*
X243855358Y-113052000D01*
X243882330Y-113054287D01*
X243909068Y-113056830D01*
X243935568Y-113059625D01*
X243961824Y-113062669D01*
X243987831Y-113065959D01*
X244013583Y-113069493D01*
X244039075Y-113073267D01*
X244064302Y-113077279D01*
X244089257Y-113081524D01*
X244113937Y-113086002D01*
X244138334Y-113090708D01*
X244162445Y-113095640D01*
X244186263Y-113100794D01*
X244209783Y-113106169D01*
X244233000Y-113111760D01*
X244255908Y-113117565D01*
X244278502Y-113123581D01*
X244300776Y-113129804D01*
X244322725Y-113136233D01*
X244344344Y-113142865D01*
X244365627Y-113149695D01*
X244367537Y-113128718D01*
X244371083Y-113107430D01*
X244376084Y-113085670D01*
X244382358Y-113063278D01*
X244389725Y-113040094D01*
X244369075Y-113032696D01*
X244348035Y-113025517D01*
X244326612Y-113018558D01*
X244304813Y-113011820D01*
X244282648Y-113005305D01*
X244260122Y-112999014D01*
X244237244Y-112992949D01*
X244214022Y-112987112D01*
X244190463Y-112981503D01*
X244166576Y-112976125D01*
X244142366Y-112970979D01*
X244117843Y-112966067D01*
X244093014Y-112961389D01*
X244067887Y-112956948D01*
X244042468Y-112952745D01*
X244016767Y-112948781D01*
X243990790Y-112945059D01*
X243964546Y-112941579D01*
X243938041Y-112938342D01*
X243911284Y-112935352D01*
X243884283Y-112932608D01*
X243857044Y-112930114D01*
X243829576Y-112927869D01*
X243801887Y-112925875D01*
X243773983Y-112924135D01*
X243745873Y-112922650D01*
X243717564Y-112921420D01*
X243689064Y-112920449D01*
X243660381Y-112919736D01*
D13*
X243649500Y-118364000D03*
X243776500Y-102870000D03*
D14*
X246316500Y-102870000D03*
D15*
X254381000Y-118364000D03*
D16*
X254381000Y-108204000D03*
D14*
X256286000Y-118364000D03*
D13*
X253492000Y-102870000D03*
X252285500Y-118364000D03*
X241554000Y-102870000D03*
X256286000Y-102870000D03*
D14*
X241554000Y-116459000D03*
X250507500Y-102806500D03*
X256286000Y-116459000D03*
X250126500Y-118364000D03*
X241554000Y-114554000D03*
X248412000Y-102806500D03*
X256286000Y-114554000D03*
X247967500Y-118364000D03*
X256476500Y-108204000D03*
X241554000Y-105219500D03*
X241554000Y-118364000D03*
X245808500Y-118364000D03*
D17*
X253143448Y-115606877D03*
X253111000Y-107188000D03*
X252730009Y-113220500D03*
X247496031Y-107302964D03*
X247762479Y-105473500D03*
X246963988Y-106291340D03*
X252222000Y-114930574D03*
X251274554Y-112207351D03*
X245554500Y-110172500D03*
X248615353Y-107534419D03*
X244380320Y-115823991D03*
X243323908Y-115387592D03*
X252068842Y-109253453D03*
X252222000Y-116332000D03*
X254837497Y-116357499D03*
X240982490Y-109905556D03*
X245606620Y-114645185D03*
D18*
X253047501Y-115510930D02*
X253143448Y-115606877D01*
X253174508Y-115575817D02*
X253143448Y-115606877D01*
X252734692Y-107315000D02*
X252861692Y-107188000D01*
X250618118Y-107315000D02*
X252734692Y-107315000D01*
X249221117Y-105917999D02*
X250618118Y-107315000D01*
X252861692Y-107188000D02*
X253111000Y-107188000D01*
X247496031Y-108357969D02*
X247496031Y-107302964D01*
X246380000Y-109474000D02*
X247496031Y-108357969D01*
X246380000Y-112649000D02*
X246380000Y-109474000D01*
X246062509Y-112967554D02*
X246062509Y-112966491D01*
X244729000Y-114935000D02*
X244729000Y-114301063D01*
X243840000Y-118364000D02*
X243840000Y-117360000D01*
X246062509Y-112966491D02*
X246380000Y-112649000D01*
X244729000Y-114301063D02*
X246062509Y-112967554D01*
X244042500Y-117157500D02*
X244983000Y-117157500D01*
X243840000Y-117360000D02*
X244042500Y-117157500D01*
X245363990Y-116776510D02*
X245363990Y-115569990D01*
X244983000Y-117157500D02*
X245363990Y-116776510D01*
X245363990Y-115569990D02*
X244729000Y-114935000D01*
X253143448Y-114630280D02*
X253143448Y-115606877D01*
X252730009Y-113220500D02*
X252730009Y-114216841D01*
X252730009Y-114216841D02*
X253143448Y-114630280D01*
X249221117Y-105917999D02*
X248206978Y-105917999D01*
X248206978Y-105917999D02*
X247762479Y-105473500D01*
X256286000Y-102870000D02*
X256286000Y-102927795D01*
X254000000Y-108585000D02*
X254381000Y-108204000D01*
X257048000Y-103632000D02*
X256286000Y-102870000D01*
X257048000Y-106807000D02*
X257048000Y-103632000D01*
X254381000Y-108204000D02*
X255397000Y-107188000D01*
X257048000Y-106807000D02*
X256349500Y-106807000D01*
X255968500Y-107188000D02*
X255397000Y-107188000D01*
X256349500Y-106807000D02*
X255968500Y-107188000D01*
X254381000Y-108204000D02*
X252905258Y-108204000D01*
X252905258Y-108204000D02*
X252524268Y-107823010D01*
X250407694Y-107823010D02*
X249062147Y-106477463D01*
X252524268Y-107823010D02*
X250407694Y-107823010D01*
X248348509Y-106426009D02*
X247727274Y-106426009D01*
X248399963Y-106477463D02*
X248348509Y-106426009D01*
X247592605Y-106291340D02*
X246963988Y-106291340D01*
X247727274Y-106426009D02*
X247592605Y-106291340D01*
X249062147Y-106477463D02*
X248399963Y-106477463D01*
X251972426Y-114681000D02*
X252222000Y-114930574D01*
X251904509Y-114681000D02*
X251972426Y-114681000D01*
X251904509Y-112966509D02*
X251904509Y-114681000D01*
X251904509Y-112966509D02*
X251904509Y-112837306D01*
X251904509Y-112837306D02*
X251274554Y-112207351D01*
X241554000Y-118364000D02*
X243726406Y-116191594D01*
X255587500Y-109093000D02*
X256476500Y-108204000D01*
X249399081Y-107534419D02*
X249399875Y-107533625D01*
X249399875Y-107533625D02*
X250197270Y-108331020D01*
X248615353Y-107534419D02*
X249399081Y-107534419D01*
X250197270Y-108331020D02*
X252313844Y-108331020D01*
X252313844Y-108331020D02*
X252894343Y-108911519D01*
X252894343Y-109649694D02*
X252285500Y-110258537D01*
X252894343Y-108911519D02*
X252894343Y-109649694D01*
X243726406Y-116191594D02*
X244012717Y-116191594D01*
X244012717Y-116191594D02*
X244380320Y-115823991D01*
X244380320Y-115304754D02*
X244380320Y-115823991D01*
X244220990Y-115145424D02*
X244380320Y-115304754D01*
X244220991Y-114090638D02*
X244220990Y-115145424D01*
X245554500Y-110172500D02*
X245554500Y-112757129D01*
X245554500Y-112757129D02*
X244220991Y-114090638D01*
X255587500Y-110724382D02*
X255587500Y-109093000D01*
X254590881Y-111721001D02*
X255587500Y-110724382D01*
X253409119Y-111721001D02*
X254590881Y-111721001D01*
X252285500Y-110597382D02*
X253409119Y-111721001D01*
X252285500Y-110258537D02*
X252285500Y-110597382D01*
X249936000Y-118364000D02*
X250316940Y-118364000D01*
X241681000Y-116332000D02*
X241554000Y-116459000D01*
X255562001Y-117182999D02*
X256286000Y-116459000D01*
X241554000Y-116459000D02*
X241935000Y-116459000D01*
X241554000Y-116459000D02*
X241871500Y-116459000D01*
X251123177Y-117564942D02*
X251240338Y-117313662D01*
X250126500Y-118364000D02*
X250324119Y-118364000D01*
X250324119Y-118364000D02*
X251123177Y-117564942D01*
X251371001Y-117182999D02*
X255562001Y-117182999D01*
X251240338Y-117313662D02*
X251371001Y-117182999D01*
X242625408Y-115387592D02*
X241554000Y-116459000D01*
X243323908Y-115387592D02*
X242625408Y-115387592D01*
X256286000Y-116459000D02*
X256160740Y-116459000D01*
X252222002Y-109406613D02*
X252068842Y-109253453D01*
X243205000Y-106636434D02*
X244792500Y-105048934D01*
X243323908Y-115387592D02*
X243323908Y-114650026D01*
X245237000Y-104584500D02*
X248729500Y-104584500D01*
X244792500Y-105048934D02*
X244792500Y-105029000D01*
X243205000Y-108966000D02*
X243205000Y-106636434D01*
X243323908Y-114650026D02*
X241957882Y-113284000D01*
X241957882Y-110893882D02*
X242316000Y-110535764D01*
X241957882Y-113284000D02*
X241957882Y-110893882D01*
X242316000Y-110535764D02*
X242316000Y-109855000D01*
X248729500Y-104584500D02*
X250507500Y-102806500D01*
X244792500Y-105029000D02*
X245237000Y-104584500D01*
X242316000Y-109855000D02*
X243205000Y-108966000D01*
X252068842Y-109436658D02*
X252068842Y-109253453D01*
X251624343Y-109697952D02*
X252068842Y-109253453D01*
X256286000Y-116459000D02*
X256286000Y-116347231D01*
X252259027Y-111289343D02*
X251624343Y-111289343D01*
X256286000Y-116347231D02*
X253555510Y-113616741D01*
X253555510Y-113616741D02*
X253555510Y-112585826D01*
X253555510Y-112585826D02*
X252259027Y-111289343D01*
X251624343Y-111289343D02*
X251624343Y-109697952D01*
X241554000Y-113982500D02*
X241554000Y-114554000D01*
X245026575Y-104076491D02*
X244284491Y-104818575D01*
X248412000Y-102806500D02*
X247142010Y-104076490D01*
X247142010Y-104076490D02*
X245026575Y-104076491D01*
X241449872Y-114449872D02*
X241554000Y-114554000D01*
X241807990Y-110325340D02*
X241449872Y-110683458D01*
X241807990Y-109644576D02*
X241807990Y-110325340D01*
X242696991Y-108755575D02*
X241807990Y-109644576D01*
X241449872Y-110683458D02*
X241449872Y-114449872D01*
X242696991Y-106743509D02*
X242696991Y-108755575D01*
X244284491Y-104818575D02*
X244284491Y-104838509D01*
X244284491Y-104838509D02*
X242697000Y-106426000D01*
X242697000Y-106743500D02*
X242696991Y-106743509D01*
X242697000Y-106426000D02*
X242697000Y-106743500D01*
X252222000Y-116332000D02*
X252564989Y-116674989D01*
X252564989Y-116674989D02*
X254520007Y-116674989D01*
X254520007Y-116674989D02*
X254837497Y-116357499D01*
X242189000Y-105854500D02*
X241554000Y-105219500D01*
X240982490Y-109855010D02*
X241299981Y-109537519D01*
X240982490Y-109905556D02*
X240982490Y-109855010D01*
X242188981Y-108545151D02*
X242188982Y-106640150D01*
X242189000Y-106640132D02*
X242189000Y-105854500D01*
X241299982Y-109434150D02*
X242188981Y-108545151D01*
X241299981Y-109537519D02*
X241299982Y-109434150D01*
X242188982Y-106640150D02*
X242189000Y-106640132D01*
X246051119Y-114200686D02*
X245606620Y-114645185D01*
X251396499Y-115506499D02*
X251396499Y-113220499D01*
X251396499Y-113220499D02*
X251206000Y-113030000D01*
X252222000Y-116332000D02*
X251396499Y-115506499D01*
X246051119Y-113967418D02*
X246051119Y-114200686D01*
X251206000Y-113030000D02*
X246988537Y-113030000D01*
X246988537Y-113030000D02*
X246051119Y-113967418D01*
X245808500Y-117769738D02*
X245808500Y-118364000D01*
X246051119Y-117527119D02*
X245808500Y-117769738D01*
X245606620Y-114645185D02*
X246051119Y-115089684D01*
X246051119Y-115089684D02*
X246051119Y-117527119D01*
G36*
X254287698Y-115426560D02*
G01*
X254217552Y-115473430D01*
X254188496Y-115327358D01*
X254287698Y-115426560D01*
G37*
X254287698Y-115426560D02*
X254217552Y-115473430D01*
X254188496Y-115327358D01*
X254287698Y-115426560D01*
G36*
X257233955Y-113128998D02*
G01*
X257285193Y-113164081D01*
X257293606Y-113168630D01*
X257512454Y-113284993D01*
X257569859Y-113308653D01*
X257626916Y-113333108D01*
X257633000Y-113334991D01*
X257633001Y-114226556D01*
X257617775Y-114150011D01*
X257513371Y-113897957D01*
X257361799Y-113671114D01*
X257168886Y-113478201D01*
X257157000Y-113470259D01*
X257159188Y-113462403D01*
X257169517Y-113436506D01*
X257175802Y-113402747D01*
X257185019Y-113369652D01*
X257186494Y-113360892D01*
X257194652Y-113310319D01*
X257196835Y-113275254D01*
X257201990Y-113240501D01*
X257200684Y-113213425D01*
X257202367Y-113186381D01*
X257197699Y-113151564D01*
X257196005Y-113116467D01*
X257194652Y-113107687D01*
X257193785Y-113102309D01*
X257233955Y-113128998D01*
G37*
X257233955Y-113128998D02*
X257285193Y-113164081D01*
X257293606Y-113168630D01*
X257512454Y-113284993D01*
X257569859Y-113308653D01*
X257626916Y-113333108D01*
X257633000Y-113334991D01*
X257633001Y-114226556D01*
X257617775Y-114150011D01*
X257513371Y-113897957D01*
X257361799Y-113671114D01*
X257168886Y-113478201D01*
X257157000Y-113470259D01*
X257159188Y-113462403D01*
X257169517Y-113436506D01*
X257175802Y-113402747D01*
X257185019Y-113369652D01*
X257186494Y-113360892D01*
X257194652Y-113310319D01*
X257196835Y-113275254D01*
X257201990Y-113240501D01*
X257200684Y-113213425D01*
X257202367Y-113186381D01*
X257197699Y-113151564D01*
X257196005Y-113116467D01*
X257194652Y-113107687D01*
X257193785Y-113102309D01*
X257233955Y-113128998D01*
G36*
X240687873Y-113467003D02*
G01*
X240671114Y-113478201D01*
X240478201Y-113671114D01*
X240326629Y-113897957D01*
X240222225Y-114150011D01*
X240207000Y-114226552D01*
X240207000Y-113334136D01*
X240216707Y-113331131D01*
X240273929Y-113307077D01*
X240331502Y-113283816D01*
X240339947Y-113279326D01*
X240557977Y-113161438D01*
X240609483Y-113126696D01*
X240661400Y-113092723D01*
X240668811Y-113086679D01*
X240687873Y-113070910D01*
X240687873Y-113467003D01*
G37*
X240687873Y-113467003D02*
X240671114Y-113478201D01*
X240478201Y-113671114D01*
X240326629Y-113897957D01*
X240222225Y-114150011D01*
X240207000Y-114226552D01*
X240207000Y-113334136D01*
X240216707Y-113331131D01*
X240273929Y-113307077D01*
X240331502Y-113283816D01*
X240339947Y-113279326D01*
X240557977Y-113161438D01*
X240609483Y-113126696D01*
X240661400Y-113092723D01*
X240668811Y-113086679D01*
X240687873Y-113070910D01*
X240687873Y-113467003D01*
G36*
X254943647Y-113926011D02*
G01*
X254975551Y-113938737D01*
X255006211Y-113954200D01*
X255032320Y-113961472D01*
X255016373Y-113999973D01*
X254941086Y-113924686D01*
X254943647Y-113926011D01*
G37*
X254943647Y-113926011D02*
X254975551Y-113938737D01*
X255006211Y-113954200D01*
X255032320Y-113961472D01*
X255016373Y-113999973D01*
X254941086Y-113924686D01*
X254943647Y-113926011D01*
G36*
X243525971Y-113774459D02*
G01*
X243482863Y-113731351D01*
X243489606Y-113730804D01*
X243509484Y-113729403D01*
X243529592Y-113728199D01*
X243549947Y-113727196D01*
X243551261Y-113727145D01*
X243525971Y-113774459D01*
G37*
X243525971Y-113774459D02*
X243482863Y-113731351D01*
X243489606Y-113730804D01*
X243509484Y-113729403D01*
X243529592Y-113728199D01*
X243549947Y-113727196D01*
X243551261Y-113727145D01*
X243525971Y-113774459D01*
G36*
X257633000Y-109677864D02*
G01*
X257623294Y-109680869D01*
X257566084Y-109704918D01*
X257508498Y-109728184D01*
X257500053Y-109732674D01*
X257282023Y-109850562D01*
X257230532Y-109885293D01*
X257178600Y-109919277D01*
X257171188Y-109925321D01*
X256980209Y-110083314D01*
X256936462Y-110127367D01*
X256892104Y-110170806D01*
X256886008Y-110178175D01*
X256729353Y-110370253D01*
X256695002Y-110421956D01*
X256659919Y-110473193D01*
X256655370Y-110481607D01*
X256539007Y-110700454D01*
X256515347Y-110757859D01*
X256490892Y-110814916D01*
X256488064Y-110824053D01*
X256416424Y-111061334D01*
X256404370Y-111122213D01*
X256391456Y-111182966D01*
X256390456Y-111192478D01*
X256366269Y-111439156D01*
X256366269Y-111455497D01*
X256349065Y-111457804D01*
X256313963Y-111459498D01*
X256305183Y-111460851D01*
X256254610Y-111469009D01*
X256221403Y-111477759D01*
X256187547Y-111483574D01*
X256161495Y-111493546D01*
X256134532Y-111500651D01*
X256103657Y-111515684D01*
X256085697Y-111522559D01*
X256077445Y-111519267D01*
X256046775Y-111503800D01*
X256019900Y-111496315D01*
X255994003Y-111485986D01*
X255960247Y-111479702D01*
X255927150Y-111470484D01*
X255920199Y-111469314D01*
X256099853Y-111289660D01*
X256128922Y-111265804D01*
X256224145Y-111149774D01*
X256294902Y-111017397D01*
X256338474Y-110873760D01*
X256349500Y-110761808D01*
X256349500Y-110761806D01*
X256353186Y-110724383D01*
X256349500Y-110686960D01*
X256349500Y-109589000D01*
X256612911Y-109589000D01*
X256880489Y-109535775D01*
X257132543Y-109431371D01*
X257359386Y-109279799D01*
X257552299Y-109086886D01*
X257633001Y-108966108D01*
X257633000Y-109677864D01*
G37*
X257633000Y-109677864D02*
X257623294Y-109680869D01*
X257566084Y-109704918D01*
X257508498Y-109728184D01*
X257500053Y-109732674D01*
X257282023Y-109850562D01*
X257230532Y-109885293D01*
X257178600Y-109919277D01*
X257171188Y-109925321D01*
X256980209Y-110083314D01*
X256936462Y-110127367D01*
X256892104Y-110170806D01*
X256886008Y-110178175D01*
X256729353Y-110370253D01*
X256695002Y-110421956D01*
X256659919Y-110473193D01*
X256655370Y-110481607D01*
X256539007Y-110700454D01*
X256515347Y-110757859D01*
X256490892Y-110814916D01*
X256488064Y-110824053D01*
X256416424Y-111061334D01*
X256404370Y-111122213D01*
X256391456Y-111182966D01*
X256390456Y-111192478D01*
X256366269Y-111439156D01*
X256366269Y-111455497D01*
X256349065Y-111457804D01*
X256313963Y-111459498D01*
X256305183Y-111460851D01*
X256254610Y-111469009D01*
X256221403Y-111477759D01*
X256187547Y-111483574D01*
X256161495Y-111493546D01*
X256134532Y-111500651D01*
X256103657Y-111515684D01*
X256085697Y-111522559D01*
X256077445Y-111519267D01*
X256046775Y-111503800D01*
X256019900Y-111496315D01*
X255994003Y-111485986D01*
X255960247Y-111479702D01*
X255927150Y-111470484D01*
X255920199Y-111469314D01*
X256099853Y-111289660D01*
X256128922Y-111265804D01*
X256224145Y-111149774D01*
X256294902Y-111017397D01*
X256338474Y-110873760D01*
X256349500Y-110761808D01*
X256349500Y-110761806D01*
X256353186Y-110724383D01*
X256349500Y-110686960D01*
X256349500Y-109589000D01*
X256612911Y-109589000D01*
X256880489Y-109535775D01*
X257132543Y-109431371D01*
X257359386Y-109279799D01*
X257552299Y-109086886D01*
X257633001Y-108966108D01*
X257633000Y-109677864D01*
G36*
X240897957Y-106446871D02*
G01*
X241150011Y-106551275D01*
X241417589Y-106604500D01*
X241426807Y-106604500D01*
X241423296Y-106640150D01*
X241426983Y-106677583D01*
X241426981Y-108229520D01*
X240819093Y-108837409D01*
X240667612Y-108867541D01*
X240471155Y-108948916D01*
X240294349Y-109067054D01*
X240207000Y-109154403D01*
X240207000Y-108688943D01*
X240222378Y-108682479D01*
X240279899Y-108659238D01*
X240288344Y-108654748D01*
X240342852Y-108625275D01*
X240394305Y-108590569D01*
X240446267Y-108556566D01*
X240453679Y-108550521D01*
X240501424Y-108511023D01*
X240545192Y-108466948D01*
X240589531Y-108423528D01*
X240595628Y-108416159D01*
X240634791Y-108368140D01*
X240669157Y-108316414D01*
X240704221Y-108265204D01*
X240708771Y-108256791D01*
X240737861Y-108202079D01*
X240761501Y-108144724D01*
X240785979Y-108087613D01*
X240788807Y-108078476D01*
X240806717Y-108019155D01*
X240818784Y-107958212D01*
X240831683Y-107897528D01*
X240832071Y-107893840D01*
X240832088Y-107893783D01*
X240832255Y-107892091D01*
X240832683Y-107888017D01*
X240832684Y-107888012D01*
X240832684Y-107888007D01*
X240838730Y-107826347D01*
X240842000Y-107793147D01*
X240842000Y-106409482D01*
X240897957Y-106446871D01*
G37*
X240897957Y-106446871D02*
X241150011Y-106551275D01*
X241417589Y-106604500D01*
X241426807Y-106604500D01*
X241423296Y-106640150D01*
X241426983Y-106677583D01*
X241426981Y-108229520D01*
X240819093Y-108837409D01*
X240667612Y-108867541D01*
X240471155Y-108948916D01*
X240294349Y-109067054D01*
X240207000Y-109154403D01*
X240207000Y-108688943D01*
X240222378Y-108682479D01*
X240279899Y-108659238D01*
X240288344Y-108654748D01*
X240342852Y-108625275D01*
X240394305Y-108590569D01*
X240446267Y-108556566D01*
X240453679Y-108550521D01*
X240501424Y-108511023D01*
X240545192Y-108466948D01*
X240589531Y-108423528D01*
X240595628Y-108416159D01*
X240634791Y-108368140D01*
X240669157Y-108316414D01*
X240704221Y-108265204D01*
X240708771Y-108256791D01*
X240737861Y-108202079D01*
X240761501Y-108144724D01*
X240785979Y-108087613D01*
X240788807Y-108078476D01*
X240806717Y-108019155D01*
X240818784Y-107958212D01*
X240831683Y-107897528D01*
X240832071Y-107893840D01*
X240832088Y-107893783D01*
X240832255Y-107892091D01*
X240832683Y-107888017D01*
X240832684Y-107888012D01*
X240832684Y-107888007D01*
X240838730Y-107826347D01*
X240842000Y-107793147D01*
X240842000Y-106409482D01*
X240897957Y-106446871D01*
G36*
X246275847Y-105452838D02*
G01*
X246125486Y-105603199D01*
X246007348Y-105780005D01*
X245925973Y-105976462D01*
X245920887Y-106002033D01*
X245725464Y-105921086D01*
X245317817Y-105840000D01*
X245079065Y-105840000D01*
X245304853Y-105614212D01*
X245333922Y-105590356D01*
X245429145Y-105474326D01*
X245434130Y-105465000D01*
X245552630Y-105346500D01*
X246434993Y-105346500D01*
X246275847Y-105452838D01*
G37*
X246275847Y-105452838D02*
X246125486Y-105603199D01*
X246007348Y-105780005D01*
X245925973Y-105976462D01*
X245920887Y-106002033D01*
X245725464Y-105921086D01*
X245317817Y-105840000D01*
X245079065Y-105840000D01*
X245304853Y-105614212D01*
X245333922Y-105590356D01*
X245429145Y-105474326D01*
X245434130Y-105465000D01*
X245552630Y-105346500D01*
X246434993Y-105346500D01*
X246275847Y-105452838D01*
G36*
X249357253Y-105165721D02*
G01*
X249258543Y-105155999D01*
X249258540Y-105155999D01*
X249236873Y-105153865D01*
X249270922Y-105125922D01*
X249294784Y-105096846D01*
X249389866Y-105001764D01*
X249357253Y-105165721D01*
G37*
X249357253Y-105165721D02*
X249258543Y-105155999D01*
X249258540Y-105155999D01*
X249236873Y-105153865D01*
X249270922Y-105125922D01*
X249294784Y-105096846D01*
X249389866Y-105001764D01*
X249357253Y-105165721D01*
G36*
X242672006Y-104150537D02*
G01*
X242782320Y-104209502D01*
X242902018Y-104245812D01*
X243026500Y-104258072D01*
X243766319Y-104258072D01*
X243743069Y-104277153D01*
X243693720Y-104337286D01*
X243647846Y-104393183D01*
X243642863Y-104402507D01*
X242939000Y-105106370D01*
X242939000Y-105083089D01*
X242885775Y-104815511D01*
X242781371Y-104563457D01*
X242629799Y-104336614D01*
X242513275Y-104220090D01*
X242548180Y-104209502D01*
X242658494Y-104150537D01*
X242665250Y-104144993D01*
X242672006Y-104150537D01*
G37*
X242672006Y-104150537D02*
X242782320Y-104209502D01*
X242902018Y-104245812D01*
X243026500Y-104258072D01*
X243766319Y-104258072D01*
X243743069Y-104277153D01*
X243693720Y-104337286D01*
X243647846Y-104393183D01*
X243642863Y-104402507D01*
X242939000Y-105106370D01*
X242939000Y-105083089D01*
X242885775Y-104815511D01*
X242781371Y-104563457D01*
X242629799Y-104336614D01*
X242513275Y-104220090D01*
X242548180Y-104209502D01*
X242658494Y-104150537D01*
X242665250Y-104144993D01*
X242672006Y-104150537D01*
G36*
X253288586Y-104348774D02*
G01*
X253227981Y-104258072D01*
X253365116Y-104258072D01*
X253288586Y-104348774D01*
G37*
X253288586Y-104348774D02*
X253227981Y-104258072D01*
X253365116Y-104258072D01*
X253288586Y-104348774D01*
G36*
X252103928Y-103392876D02*
G01*
X252075464Y-103381086D01*
X251791969Y-103324695D01*
X251839275Y-103210489D01*
X251892500Y-102942911D01*
X251892500Y-102670089D01*
X251839275Y-102402511D01*
X251764298Y-102221500D01*
X252103928Y-102221500D01*
X252103928Y-103392876D01*
G37*
X252103928Y-103392876D02*
X252075464Y-103381086D01*
X251791969Y-103324695D01*
X251839275Y-103210489D01*
X251892500Y-102942911D01*
X251892500Y-102670089D01*
X251839275Y-102402511D01*
X251764298Y-102221500D01*
X252103928Y-102221500D01*
X252103928Y-103392876D01*
G36*
X254897928Y-103353050D02*
G01*
X254880072Y-103344680D01*
X254880072Y-102221500D01*
X254897928Y-102221500D01*
X254897928Y-103353050D01*
G37*
X254897928Y-103353050D02*
X254880072Y-103344680D01*
X254880072Y-102221500D01*
X254897928Y-102221500D01*
X254897928Y-103353050D01*
M02*
