G04 #@! TF.GenerationSoftware,KiCad,Pcbnew,5.1.5-52549c5~84~ubuntu18.04.1*
G04 #@! TF.CreationDate,2020-04-11T16:09:32-04:00*
G04 #@! TF.ProjectId,amoeba-royale,616d6f65-6261-42d7-926f-79616c652e6b,rev?*
G04 #@! TF.SameCoordinates,Original*
G04 #@! TF.FileFunction,Soldermask,Top*
G04 #@! TF.FilePolarity,Negative*
%FSLAX46Y46*%
G04 Gerber Fmt 4.6, Leading zero omitted, Abs format (unit mm)*
G04 Created by KiCad (PCBNEW 5.1.5-52549c5~84~ubuntu18.04.1) date 2020-04-11 16:09:32*
%MOMM*%
%LPD*%
G04 APERTURE LIST*
%ADD10C,0.002540*%
%ADD11C,0.150000*%
%ADD12C,0.131817*%
%ADD13C,1.700000*%
%ADD14C,2.950000*%
%ADD15C,3.980180*%
%ADD16R,1.500000X1.500000*%
%ADD17C,1.500000*%
%ADD18R,1.600000X1.600000*%
%ADD19O,1.600000X1.600000*%
G04 APERTURE END LIST*
D10*
G36*
X254416500Y-113208999D02*
G01*
X254411420Y-113259383D01*
X254396853Y-113306310D01*
X254373803Y-113348776D01*
X254343276Y-113385776D01*
X254306277Y-113416303D01*
X254263811Y-113439354D01*
X254216883Y-113453921D01*
X254166500Y-113459000D01*
X254116116Y-113453921D01*
X254069188Y-113439354D01*
X254026722Y-113416303D01*
X253989723Y-113385776D01*
X253959196Y-113348776D01*
X253936146Y-113306310D01*
X253921579Y-113259383D01*
X253916499Y-113208999D01*
X253921579Y-113158617D01*
X253936146Y-113111690D01*
X253959196Y-113069225D01*
X253989723Y-113032226D01*
X254026722Y-113001699D01*
X254069188Y-112978650D01*
X254116116Y-112964083D01*
X254166500Y-112959004D01*
X254216883Y-112964083D01*
X254263811Y-112978650D01*
X254306277Y-113001699D01*
X254343276Y-113032226D01*
X254373803Y-113069225D01*
X254396853Y-113111690D01*
X254411420Y-113158617D01*
X254416500Y-113208999D01*
G37*
X254416500Y-113208999D02*
X254411420Y-113259383D01*
X254396853Y-113306310D01*
X254373803Y-113348776D01*
X254343276Y-113385776D01*
X254306277Y-113416303D01*
X254263811Y-113439354D01*
X254216883Y-113453921D01*
X254166500Y-113459000D01*
X254116116Y-113453921D01*
X254069188Y-113439354D01*
X254026722Y-113416303D01*
X253989723Y-113385776D01*
X253959196Y-113348776D01*
X253936146Y-113306310D01*
X253921579Y-113259383D01*
X253916499Y-113208999D01*
X253921579Y-113158617D01*
X253936146Y-113111690D01*
X253959196Y-113069225D01*
X253989723Y-113032226D01*
X254026722Y-113001699D01*
X254069188Y-112978650D01*
X254116116Y-112964083D01*
X254166500Y-112959004D01*
X254216883Y-112964083D01*
X254263811Y-112978650D01*
X254306277Y-113001699D01*
X254343276Y-113032226D01*
X254373803Y-113069225D01*
X254396853Y-113111690D01*
X254411420Y-113158617D01*
X254416500Y-113208999D01*
G36*
X254896498Y-112249001D02*
G01*
X254891419Y-112299384D01*
X254876851Y-112346311D01*
X254853801Y-112388777D01*
X254823274Y-112425777D01*
X254786275Y-112456305D01*
X254743808Y-112479355D01*
X254696881Y-112493922D01*
X254646497Y-112499002D01*
X254596113Y-112493922D01*
X254549186Y-112479355D01*
X254506720Y-112456305D01*
X254469721Y-112425777D01*
X254439193Y-112388777D01*
X254416143Y-112346311D01*
X254401576Y-112299384D01*
X254396497Y-112249001D01*
X254401576Y-112198618D01*
X254416143Y-112151691D01*
X254439193Y-112109226D01*
X254469721Y-112072227D01*
X254506720Y-112041701D01*
X254549186Y-112018651D01*
X254596113Y-112004085D01*
X254646497Y-111999006D01*
X254696881Y-112004085D01*
X254743808Y-112018651D01*
X254786275Y-112041701D01*
X254823274Y-112072227D01*
X254853801Y-112109226D01*
X254876851Y-112151691D01*
X254891419Y-112198618D01*
X254896498Y-112249001D01*
G37*
X254896498Y-112249001D02*
X254891419Y-112299384D01*
X254876851Y-112346311D01*
X254853801Y-112388777D01*
X254823274Y-112425777D01*
X254786275Y-112456305D01*
X254743808Y-112479355D01*
X254696881Y-112493922D01*
X254646497Y-112499002D01*
X254596113Y-112493922D01*
X254549186Y-112479355D01*
X254506720Y-112456305D01*
X254469721Y-112425777D01*
X254439193Y-112388777D01*
X254416143Y-112346311D01*
X254401576Y-112299384D01*
X254396497Y-112249001D01*
X254401576Y-112198618D01*
X254416143Y-112151691D01*
X254439193Y-112109226D01*
X254469721Y-112072227D01*
X254506720Y-112041701D01*
X254549186Y-112018651D01*
X254596113Y-112004085D01*
X254646497Y-111999006D01*
X254696881Y-112004085D01*
X254743808Y-112018651D01*
X254786275Y-112041701D01*
X254823274Y-112072227D01*
X254853801Y-112109226D01*
X254876851Y-112151691D01*
X254891419Y-112198618D01*
X254896498Y-112249001D01*
G36*
X254416500Y-112249001D02*
G01*
X254411420Y-112299384D01*
X254396853Y-112346311D01*
X254373803Y-112388777D01*
X254343276Y-112425777D01*
X254306277Y-112456305D01*
X254263811Y-112479355D01*
X254216883Y-112493922D01*
X254166500Y-112499002D01*
X254116116Y-112493922D01*
X254069188Y-112479355D01*
X254026722Y-112456305D01*
X253989723Y-112425777D01*
X253959196Y-112388777D01*
X253936146Y-112346311D01*
X253921579Y-112299384D01*
X253916499Y-112249001D01*
X253921579Y-112198618D01*
X253936146Y-112151691D01*
X253959196Y-112109226D01*
X253989723Y-112072227D01*
X254026722Y-112041701D01*
X254069188Y-112018651D01*
X254116116Y-112004085D01*
X254166500Y-111999006D01*
X254216883Y-112004085D01*
X254263811Y-112018651D01*
X254306277Y-112041701D01*
X254343276Y-112072227D01*
X254373803Y-112109226D01*
X254396853Y-112151691D01*
X254411420Y-112198618D01*
X254416500Y-112249001D01*
G37*
X254416500Y-112249001D02*
X254411420Y-112299384D01*
X254396853Y-112346311D01*
X254373803Y-112388777D01*
X254343276Y-112425777D01*
X254306277Y-112456305D01*
X254263811Y-112479355D01*
X254216883Y-112493922D01*
X254166500Y-112499002D01*
X254116116Y-112493922D01*
X254069188Y-112479355D01*
X254026722Y-112456305D01*
X253989723Y-112425777D01*
X253959196Y-112388777D01*
X253936146Y-112346311D01*
X253921579Y-112299384D01*
X253916499Y-112249001D01*
X253921579Y-112198618D01*
X253936146Y-112151691D01*
X253959196Y-112109226D01*
X253989723Y-112072227D01*
X254026722Y-112041701D01*
X254069188Y-112018651D01*
X254116116Y-112004085D01*
X254166500Y-111999006D01*
X254216883Y-112004085D01*
X254263811Y-112018651D01*
X254306277Y-112041701D01*
X254343276Y-112072227D01*
X254373803Y-112109226D01*
X254396853Y-112151691D01*
X254411420Y-112198618D01*
X254416500Y-112249001D01*
G36*
X256656500Y-113208999D02*
G01*
X256651421Y-113259383D01*
X256636854Y-113306310D01*
X256613804Y-113348776D01*
X256583276Y-113385776D01*
X256546277Y-113416303D01*
X256503811Y-113439354D01*
X256456885Y-113453921D01*
X256406502Y-113459000D01*
X256356119Y-113453921D01*
X256309191Y-113439354D01*
X256266725Y-113416303D01*
X256229725Y-113385776D01*
X256199198Y-113348776D01*
X256176148Y-113306310D01*
X256161581Y-113259383D01*
X256156501Y-113208999D01*
X256161581Y-113158617D01*
X256176148Y-113111690D01*
X256199198Y-113069225D01*
X256229725Y-113032226D01*
X256266725Y-113001699D01*
X256309191Y-112978650D01*
X256356119Y-112964083D01*
X256406502Y-112959004D01*
X256456885Y-112964083D01*
X256503812Y-112978650D01*
X256546278Y-113001699D01*
X256583277Y-113032226D01*
X256613804Y-113069225D01*
X256636854Y-113111690D01*
X256651421Y-113158617D01*
X256656500Y-113208999D01*
G37*
X256656500Y-113208999D02*
X256651421Y-113259383D01*
X256636854Y-113306310D01*
X256613804Y-113348776D01*
X256583276Y-113385776D01*
X256546277Y-113416303D01*
X256503811Y-113439354D01*
X256456885Y-113453921D01*
X256406502Y-113459000D01*
X256356119Y-113453921D01*
X256309191Y-113439354D01*
X256266725Y-113416303D01*
X256229725Y-113385776D01*
X256199198Y-113348776D01*
X256176148Y-113306310D01*
X256161581Y-113259383D01*
X256156501Y-113208999D01*
X256161581Y-113158617D01*
X256176148Y-113111690D01*
X256199198Y-113069225D01*
X256229725Y-113032226D01*
X256266725Y-113001699D01*
X256309191Y-112978650D01*
X256356119Y-112964083D01*
X256406502Y-112959004D01*
X256456885Y-112964083D01*
X256503812Y-112978650D01*
X256546278Y-113001699D01*
X256583277Y-113032226D01*
X256613804Y-113069225D01*
X256636854Y-113111690D01*
X256651421Y-113158617D01*
X256656500Y-113208999D01*
G36*
X256656500Y-112729002D02*
G01*
X256651421Y-112779385D01*
X256636854Y-112826312D01*
X256613803Y-112868778D01*
X256583276Y-112905778D01*
X256546276Y-112936305D01*
X256503810Y-112959356D01*
X256456883Y-112973923D01*
X256406500Y-112979002D01*
X256356116Y-112973923D01*
X256309188Y-112959356D01*
X256266723Y-112936305D01*
X256229724Y-112905778D01*
X256199197Y-112868778D01*
X256176147Y-112826312D01*
X256161580Y-112779385D01*
X256156501Y-112729002D01*
X256161580Y-112678619D01*
X256176147Y-112631692D01*
X256199197Y-112589227D01*
X256229724Y-112552228D01*
X256266723Y-112521701D01*
X256309188Y-112498652D01*
X256356116Y-112484085D01*
X256406500Y-112479006D01*
X256456883Y-112484085D01*
X256503811Y-112498652D01*
X256546277Y-112521701D01*
X256583277Y-112552228D01*
X256613804Y-112589227D01*
X256636854Y-112631692D01*
X256651421Y-112678619D01*
X256656500Y-112729002D01*
G37*
X256656500Y-112729002D02*
X256651421Y-112779385D01*
X256636854Y-112826312D01*
X256613803Y-112868778D01*
X256583276Y-112905778D01*
X256546276Y-112936305D01*
X256503810Y-112959356D01*
X256456883Y-112973923D01*
X256406500Y-112979002D01*
X256356116Y-112973923D01*
X256309188Y-112959356D01*
X256266723Y-112936305D01*
X256229724Y-112905778D01*
X256199197Y-112868778D01*
X256176147Y-112826312D01*
X256161580Y-112779385D01*
X256156501Y-112729002D01*
X256161580Y-112678619D01*
X256176147Y-112631692D01*
X256199197Y-112589227D01*
X256229724Y-112552228D01*
X256266723Y-112521701D01*
X256309188Y-112498652D01*
X256356116Y-112484085D01*
X256406500Y-112479006D01*
X256456883Y-112484085D01*
X256503811Y-112498652D01*
X256546277Y-112521701D01*
X256583277Y-112552228D01*
X256613804Y-112589227D01*
X256636854Y-112631692D01*
X256651421Y-112678619D01*
X256656500Y-112729002D01*
G36*
X256656500Y-112249001D02*
G01*
X256651421Y-112299384D01*
X256636854Y-112346311D01*
X256613804Y-112388777D01*
X256583277Y-112425777D01*
X256546277Y-112456305D01*
X256503811Y-112479355D01*
X256456883Y-112493922D01*
X256406500Y-112499002D01*
X256356116Y-112493922D01*
X256309188Y-112479355D01*
X256266722Y-112456305D01*
X256229722Y-112425777D01*
X256199195Y-112388777D01*
X256176145Y-112346311D01*
X256161578Y-112299384D01*
X256156499Y-112249001D01*
X256161578Y-112198618D01*
X256176145Y-112151691D01*
X256199195Y-112109226D01*
X256229722Y-112072227D01*
X256266722Y-112041701D01*
X256309188Y-112018651D01*
X256356116Y-112004085D01*
X256406500Y-111999006D01*
X256456883Y-112004085D01*
X256503811Y-112018651D01*
X256546277Y-112041701D01*
X256583277Y-112072227D01*
X256613804Y-112109226D01*
X256636854Y-112151691D01*
X256651421Y-112198618D01*
X256656500Y-112249001D01*
G37*
X256656500Y-112249001D02*
X256651421Y-112299384D01*
X256636854Y-112346311D01*
X256613804Y-112388777D01*
X256583277Y-112425777D01*
X256546277Y-112456305D01*
X256503811Y-112479355D01*
X256456883Y-112493922D01*
X256406500Y-112499002D01*
X256356116Y-112493922D01*
X256309188Y-112479355D01*
X256266722Y-112456305D01*
X256229722Y-112425777D01*
X256199195Y-112388777D01*
X256176145Y-112346311D01*
X256161578Y-112299384D01*
X256156499Y-112249001D01*
X256161578Y-112198618D01*
X256176145Y-112151691D01*
X256199195Y-112109226D01*
X256229722Y-112072227D01*
X256266722Y-112041701D01*
X256309188Y-112018651D01*
X256356116Y-112004085D01*
X256406500Y-111999006D01*
X256456883Y-112004085D01*
X256503811Y-112018651D01*
X256546277Y-112041701D01*
X256583277Y-112072227D01*
X256613804Y-112109226D01*
X256636854Y-112151691D01*
X256651421Y-112198618D01*
X256656500Y-112249001D01*
G36*
X256016500Y-112249001D02*
G01*
X256011420Y-112299384D01*
X255996853Y-112346311D01*
X255973803Y-112388777D01*
X255943276Y-112425777D01*
X255906276Y-112456305D01*
X255863810Y-112479355D01*
X255816882Y-112493922D01*
X255766499Y-112499002D01*
X255716115Y-112493922D01*
X255669187Y-112479355D01*
X255626721Y-112456305D01*
X255589721Y-112425777D01*
X255559194Y-112388777D01*
X255536144Y-112346311D01*
X255521577Y-112299384D01*
X255516498Y-112249001D01*
X255521577Y-112198618D01*
X255536144Y-112151691D01*
X255559194Y-112109226D01*
X255589721Y-112072227D01*
X255626721Y-112041701D01*
X255669187Y-112018651D01*
X255716115Y-112004085D01*
X255766499Y-111999006D01*
X255816882Y-112004085D01*
X255863810Y-112018651D01*
X255906276Y-112041701D01*
X255943276Y-112072227D01*
X255973803Y-112109226D01*
X255996853Y-112151691D01*
X256011420Y-112198618D01*
X256016500Y-112249001D01*
G37*
X256016500Y-112249001D02*
X256011420Y-112299384D01*
X255996853Y-112346311D01*
X255973803Y-112388777D01*
X255943276Y-112425777D01*
X255906276Y-112456305D01*
X255863810Y-112479355D01*
X255816882Y-112493922D01*
X255766499Y-112499002D01*
X255716115Y-112493922D01*
X255669187Y-112479355D01*
X255626721Y-112456305D01*
X255589721Y-112425777D01*
X255559194Y-112388777D01*
X255536144Y-112346311D01*
X255521577Y-112299384D01*
X255516498Y-112249001D01*
X255521577Y-112198618D01*
X255536144Y-112151691D01*
X255559194Y-112109226D01*
X255589721Y-112072227D01*
X255626721Y-112041701D01*
X255669187Y-112018651D01*
X255716115Y-112004085D01*
X255766499Y-111999006D01*
X255816882Y-112004085D01*
X255863810Y-112018651D01*
X255906276Y-112041701D01*
X255943276Y-112072227D01*
X255973803Y-112109226D01*
X255996853Y-112151691D01*
X256011420Y-112198618D01*
X256016500Y-112249001D01*
G36*
X256016497Y-112729002D02*
G01*
X256011418Y-112779385D01*
X255996850Y-112826312D01*
X255973801Y-112868778D01*
X255943273Y-112905778D01*
X255906274Y-112936305D01*
X255863809Y-112959356D01*
X255816882Y-112973923D01*
X255766499Y-112979002D01*
X255716115Y-112973923D01*
X255669187Y-112959356D01*
X255626722Y-112936305D01*
X255589723Y-112905778D01*
X255559196Y-112868778D01*
X255536146Y-112826312D01*
X255521580Y-112779385D01*
X255516501Y-112729002D01*
X255521580Y-112678619D01*
X255536147Y-112631692D01*
X255559197Y-112589227D01*
X255589724Y-112552228D01*
X255626723Y-112521701D01*
X255669189Y-112498652D01*
X255716116Y-112484085D01*
X255766499Y-112479006D01*
X255816882Y-112484085D01*
X255863810Y-112498652D01*
X255906276Y-112521701D01*
X255943274Y-112552228D01*
X255973801Y-112589227D01*
X255996851Y-112631692D01*
X256011418Y-112678619D01*
X256016497Y-112729002D01*
G37*
X256016497Y-112729002D02*
X256011418Y-112779385D01*
X255996850Y-112826312D01*
X255973801Y-112868778D01*
X255943273Y-112905778D01*
X255906274Y-112936305D01*
X255863809Y-112959356D01*
X255816882Y-112973923D01*
X255766499Y-112979002D01*
X255716115Y-112973923D01*
X255669187Y-112959356D01*
X255626722Y-112936305D01*
X255589723Y-112905778D01*
X255559196Y-112868778D01*
X255536146Y-112826312D01*
X255521580Y-112779385D01*
X255516501Y-112729002D01*
X255521580Y-112678619D01*
X255536147Y-112631692D01*
X255559197Y-112589227D01*
X255589724Y-112552228D01*
X255626723Y-112521701D01*
X255669189Y-112498652D01*
X255716116Y-112484085D01*
X255766499Y-112479006D01*
X255816882Y-112484085D01*
X255863810Y-112498652D01*
X255906276Y-112521701D01*
X255943274Y-112552228D01*
X255973801Y-112589227D01*
X255996851Y-112631692D01*
X256011418Y-112678619D01*
X256016497Y-112729002D01*
G36*
X255536496Y-113208999D02*
G01*
X255531417Y-113259383D01*
X255516850Y-113306310D01*
X255493800Y-113348776D01*
X255463273Y-113385776D01*
X255426274Y-113416303D01*
X255383809Y-113439354D01*
X255336883Y-113453921D01*
X255286501Y-113459000D01*
X255236116Y-113453921D01*
X255189188Y-113439354D01*
X255146722Y-113416303D01*
X255109722Y-113385776D01*
X255079195Y-113348776D01*
X255056146Y-113306310D01*
X255041579Y-113259383D01*
X255036500Y-113208999D01*
X255041579Y-113158617D01*
X255056146Y-113111690D01*
X255079196Y-113069225D01*
X255109723Y-113032226D01*
X255146723Y-113001699D01*
X255189189Y-112978650D01*
X255236117Y-112964083D01*
X255286501Y-112959004D01*
X255336884Y-112964083D01*
X255383810Y-112978650D01*
X255426275Y-113001699D01*
X255463274Y-113032226D01*
X255493801Y-113069225D01*
X255516850Y-113111690D01*
X255531417Y-113158617D01*
X255536496Y-113208999D01*
G37*
X255536496Y-113208999D02*
X255531417Y-113259383D01*
X255516850Y-113306310D01*
X255493800Y-113348776D01*
X255463273Y-113385776D01*
X255426274Y-113416303D01*
X255383809Y-113439354D01*
X255336883Y-113453921D01*
X255286501Y-113459000D01*
X255236116Y-113453921D01*
X255189188Y-113439354D01*
X255146722Y-113416303D01*
X255109722Y-113385776D01*
X255079195Y-113348776D01*
X255056146Y-113306310D01*
X255041579Y-113259383D01*
X255036500Y-113208999D01*
X255041579Y-113158617D01*
X255056146Y-113111690D01*
X255079196Y-113069225D01*
X255109723Y-113032226D01*
X255146723Y-113001699D01*
X255189189Y-112978650D01*
X255236117Y-112964083D01*
X255286501Y-112959004D01*
X255336884Y-112964083D01*
X255383810Y-112978650D01*
X255426275Y-113001699D01*
X255463274Y-113032226D01*
X255493801Y-113069225D01*
X255516850Y-113111690D01*
X255531417Y-113158617D01*
X255536496Y-113208999D01*
G36*
X255536496Y-112729002D02*
G01*
X255531417Y-112779385D01*
X255516850Y-112826312D01*
X255493800Y-112868778D01*
X255463272Y-112905778D01*
X255426273Y-112936305D01*
X255383807Y-112959356D01*
X255336879Y-112973923D01*
X255286495Y-112979002D01*
X255236112Y-112973923D01*
X255189186Y-112959356D01*
X255146720Y-112936305D01*
X255109722Y-112905778D01*
X255079195Y-112868778D01*
X255056146Y-112826312D01*
X255041579Y-112779385D01*
X255036500Y-112729002D01*
X255041579Y-112678619D01*
X255056146Y-112631692D01*
X255079196Y-112589227D01*
X255109723Y-112552228D01*
X255146721Y-112521701D01*
X255189187Y-112498652D01*
X255236113Y-112484085D01*
X255286495Y-112479006D01*
X255336880Y-112484085D01*
X255383808Y-112498652D01*
X255426274Y-112521701D01*
X255463273Y-112552228D01*
X255493800Y-112589227D01*
X255516850Y-112631692D01*
X255531417Y-112678619D01*
X255536496Y-112729002D01*
G37*
X255536496Y-112729002D02*
X255531417Y-112779385D01*
X255516850Y-112826312D01*
X255493800Y-112868778D01*
X255463272Y-112905778D01*
X255426273Y-112936305D01*
X255383807Y-112959356D01*
X255336879Y-112973923D01*
X255286495Y-112979002D01*
X255236112Y-112973923D01*
X255189186Y-112959356D01*
X255146720Y-112936305D01*
X255109722Y-112905778D01*
X255079195Y-112868778D01*
X255056146Y-112826312D01*
X255041579Y-112779385D01*
X255036500Y-112729002D01*
X255041579Y-112678619D01*
X255056146Y-112631692D01*
X255079196Y-112589227D01*
X255109723Y-112552228D01*
X255146721Y-112521701D01*
X255189187Y-112498652D01*
X255236113Y-112484085D01*
X255286495Y-112479006D01*
X255336880Y-112484085D01*
X255383808Y-112498652D01*
X255426274Y-112521701D01*
X255463273Y-112552228D01*
X255493800Y-112589227D01*
X255516850Y-112631692D01*
X255531417Y-112678619D01*
X255536496Y-112729002D01*
D11*
G36*
X254593768Y-103524389D02*
G01*
X254564670Y-103525098D01*
X254535635Y-103527226D01*
X254506663Y-103530773D01*
X254477753Y-103535738D01*
X254448907Y-103542122D01*
X254420124Y-103549925D01*
X254391404Y-103559146D01*
X254362747Y-103569786D01*
X254334153Y-103581845D01*
X254305622Y-103595322D01*
X254277155Y-103610218D01*
X254248750Y-103626533D01*
X254220409Y-103644266D01*
X254192130Y-103663417D01*
X254167725Y-103682094D01*
X254143979Y-103703122D01*
X254120952Y-103726130D01*
X254098704Y-103750749D01*
X254077295Y-103776609D01*
X254056782Y-103803341D01*
X254037227Y-103830574D01*
X254018687Y-103857939D01*
X254001224Y-103885067D01*
X253984895Y-103911587D01*
X253969760Y-103937129D01*
X253955879Y-103961324D01*
X253943312Y-103983803D01*
X253932116Y-104004194D01*
X253922353Y-104022129D01*
X253914081Y-104037238D01*
X253890763Y-104078902D01*
X253867692Y-104119149D01*
X253844868Y-104158010D01*
X253822292Y-104195514D01*
X253799965Y-104231691D01*
X253777888Y-104266569D01*
X253756061Y-104300178D01*
X253734486Y-104332548D01*
X253713162Y-104363707D01*
X253692092Y-104393686D01*
X253671276Y-104422514D01*
X253650714Y-104450220D01*
X253630408Y-104476833D01*
X253610358Y-104502384D01*
X253590565Y-104526900D01*
X253571030Y-104550412D01*
X253551753Y-104572950D01*
X253532736Y-104594542D01*
X253513980Y-104615218D01*
X253495485Y-104635007D01*
X253477251Y-104653939D01*
X253459281Y-104672043D01*
X253441574Y-104689348D01*
X253424131Y-104705885D01*
X253406954Y-104721681D01*
X253390043Y-104736768D01*
X253373399Y-104751173D01*
X253357022Y-104764927D01*
X253340914Y-104778059D01*
X253325075Y-104790598D01*
X253309507Y-104802574D01*
X253294209Y-104814016D01*
X253279184Y-104824954D01*
X253264430Y-104835416D01*
X253249951Y-104845433D01*
X253235745Y-104855033D01*
X253221815Y-104864246D01*
X253208161Y-104873102D01*
X253194783Y-104881630D01*
X253181683Y-104889859D01*
X253168861Y-104897819D01*
X253156318Y-104905539D01*
X253144055Y-104913048D01*
X253132073Y-104920376D01*
X253120373Y-104927553D01*
X253108955Y-104934607D01*
X253097820Y-104941568D01*
X253086970Y-104948466D01*
X253076404Y-104955330D01*
X253066124Y-104962188D01*
X253056130Y-104969072D01*
X253046424Y-104976009D01*
X253037006Y-104983030D01*
X253027877Y-104990164D01*
X253019038Y-104997440D01*
X253010489Y-105004888D01*
X253002232Y-105012537D01*
X252994267Y-105020416D01*
X252986595Y-105028556D01*
X252979217Y-105036984D01*
X252972134Y-105045731D01*
X252965346Y-105054826D01*
X252958855Y-105064299D01*
X252952660Y-105074178D01*
X252946764Y-105084494D01*
X252941167Y-105095275D01*
X252935869Y-105106552D01*
X252930871Y-105118352D01*
X252926175Y-105130707D01*
X252921781Y-105143645D01*
X252917689Y-105157196D01*
X252913902Y-105171388D01*
X252910418Y-105186252D01*
X252907241Y-105201817D01*
X252904369Y-105218112D01*
X252901804Y-105235167D01*
X252899547Y-105253010D01*
X252897599Y-105271673D01*
X252895960Y-105291183D01*
X252894631Y-105311570D01*
X252893614Y-105332864D01*
X252892908Y-105355093D01*
X252892515Y-105378289D01*
X252892906Y-105396251D01*
X252894022Y-105413083D01*
X252895839Y-105428826D01*
X252898335Y-105443521D01*
X252901486Y-105457210D01*
X252905268Y-105469936D01*
X252909660Y-105481739D01*
X252914638Y-105492661D01*
X252920179Y-105502744D01*
X252926260Y-105512030D01*
X252932857Y-105520560D01*
X252939948Y-105528377D01*
X252947510Y-105535521D01*
X252955519Y-105542034D01*
X252963952Y-105547959D01*
X252972787Y-105553337D01*
X252982000Y-105558209D01*
X252991569Y-105562618D01*
X253001469Y-105566604D01*
X253011679Y-105570211D01*
X253022174Y-105573478D01*
X253032932Y-105576449D01*
X253043931Y-105579164D01*
X253055146Y-105581666D01*
X253066554Y-105583996D01*
X253078133Y-105586195D01*
X253089860Y-105588307D01*
X253101711Y-105590371D01*
X253113663Y-105592431D01*
X253125693Y-105594527D01*
X253137779Y-105596701D01*
X253149897Y-105598996D01*
X253162024Y-105601452D01*
X253174137Y-105604111D01*
X253186212Y-105607016D01*
X253198228Y-105610207D01*
X253210160Y-105613727D01*
X253221985Y-105617617D01*
X253233682Y-105621919D01*
X253245225Y-105626675D01*
X253256594Y-105631926D01*
X253267763Y-105637714D01*
X253278711Y-105644080D01*
X253289413Y-105651067D01*
X253299848Y-105658716D01*
X253309992Y-105667069D01*
X253319822Y-105676167D01*
X253329314Y-105686052D01*
X253338447Y-105696766D01*
X253347196Y-105708351D01*
X253355538Y-105720848D01*
X253363452Y-105734299D01*
X253370912Y-105748746D01*
X253377897Y-105764230D01*
X253384383Y-105780792D01*
X253390348Y-105798476D01*
X253395767Y-105817322D01*
X253400619Y-105837372D01*
X253404880Y-105858668D01*
X253408526Y-105881252D01*
X253411535Y-105905165D01*
X253413884Y-105930448D01*
X253415550Y-105957144D01*
X253416509Y-105985295D01*
X253416739Y-106014941D01*
X253416216Y-106046126D01*
X253414918Y-106078889D01*
X253412821Y-106113274D01*
X253409902Y-106149321D01*
X253406138Y-106187073D01*
X253401506Y-106226571D01*
X253396853Y-106264396D01*
X253392831Y-106299690D01*
X253389585Y-106332707D01*
X253387257Y-106363700D01*
X253385992Y-106392924D01*
X253385931Y-106420631D01*
X253387220Y-106447076D01*
X253390000Y-106472513D01*
X253394417Y-106497195D01*
X253400612Y-106521376D01*
X253408730Y-106545310D01*
X253418913Y-106569250D01*
X253431306Y-106593451D01*
X253446051Y-106618167D01*
X253463292Y-106643650D01*
X253481843Y-106668338D01*
X253501245Y-106691324D01*
X253521499Y-106712607D01*
X253542604Y-106732188D01*
X253564560Y-106750066D01*
X253587367Y-106766241D01*
X253611026Y-106780714D01*
X253635536Y-106793484D01*
X253660898Y-106804552D01*
X253687111Y-106813916D01*
X253714175Y-106821578D01*
X253742090Y-106827538D01*
X253770857Y-106831795D01*
X253800475Y-106834349D01*
X253830945Y-106835200D01*
X253898915Y-106835200D01*
X253930576Y-106834434D01*
X253961522Y-106832136D01*
X253991752Y-106828307D01*
X254021268Y-106822945D01*
X254050069Y-106816051D01*
X254078155Y-106807626D01*
X254105526Y-106797668D01*
X254132182Y-106786178D01*
X254158123Y-106773157D01*
X254183350Y-106758603D01*
X254207862Y-106742517D01*
X254232794Y-106724598D01*
X254255687Y-106705443D01*
X254276541Y-106685051D01*
X254295357Y-106663424D01*
X254312133Y-106640561D01*
X254326870Y-106616462D01*
X254339568Y-106591127D01*
X254350226Y-106564557D01*
X254358846Y-106536751D01*
X254365427Y-106507709D01*
X254390078Y-106492185D01*
X254415000Y-106477814D01*
X254440176Y-106464599D01*
X254465590Y-106452542D01*
X254491227Y-106441648D01*
X254517071Y-106431918D01*
X254543107Y-106423354D01*
X254569317Y-106415960D01*
X254595687Y-106409739D01*
X254622201Y-106404692D01*
X254648843Y-106400824D01*
X254675598Y-106398135D01*
X254702449Y-106396630D01*
X254729380Y-106396310D01*
X254756377Y-106397179D01*
X254783423Y-106399239D01*
X254810502Y-106402493D01*
X254837599Y-106406944D01*
X254864698Y-106412593D01*
X254891783Y-106419445D01*
X254918838Y-106427501D01*
X254945848Y-106436765D01*
X254972796Y-106447238D01*
X254999668Y-106458924D01*
X255026447Y-106471826D01*
X255053117Y-106485945D01*
X255079663Y-106501286D01*
X255106069Y-106517850D01*
X255132319Y-106535640D01*
X255158397Y-106554658D01*
X255184288Y-106574909D01*
X255209976Y-106596393D01*
X255216001Y-106623118D01*
X255224189Y-106648915D01*
X255234539Y-106673786D01*
X255247052Y-106697730D01*
X255261727Y-106720747D01*
X255278564Y-106742837D01*
X255297565Y-106764001D01*
X255318727Y-106784237D01*
X255342053Y-106803547D01*
X255367541Y-106821930D01*
X255392474Y-106839539D01*
X255417838Y-106855295D01*
X255443635Y-106869198D01*
X255469865Y-106881247D01*
X255496527Y-106891442D01*
X255523622Y-106899783D01*
X255551150Y-106906271D01*
X255579109Y-106910905D01*
X255607502Y-106913685D01*
X255636327Y-106914612D01*
X255704297Y-106914612D01*
X255734409Y-106913733D01*
X255763780Y-106911097D01*
X255792409Y-106906703D01*
X255820297Y-106900552D01*
X255847444Y-106892643D01*
X255873849Y-106882976D01*
X255899512Y-106871552D01*
X255924434Y-106858370D01*
X255948614Y-106843431D01*
X255972053Y-106826734D01*
X255994751Y-106808279D01*
X256016707Y-106788067D01*
X256037921Y-106766098D01*
X256058395Y-106742370D01*
X256078126Y-106716886D01*
X256095529Y-106692309D01*
X256111418Y-106669350D01*
X256125691Y-106647542D01*
X256138247Y-106626419D01*
X256148983Y-106605515D01*
X256157796Y-106584364D01*
X256164585Y-106562499D01*
X256169247Y-106539455D01*
X256171680Y-106514766D01*
X256171781Y-106487966D01*
X256169449Y-106458588D01*
X256164580Y-106426167D01*
X256157073Y-106390237D01*
X256146826Y-106350331D01*
X256133736Y-106305983D01*
X256118362Y-106255873D01*
X256103777Y-106206866D01*
X256089968Y-106158948D01*
X256076922Y-106112103D01*
X256064626Y-106066319D01*
X256053066Y-106021579D01*
X256042229Y-105977871D01*
X256032102Y-105935178D01*
X256022671Y-105893488D01*
X256013923Y-105852784D01*
X256005845Y-105813054D01*
X255998424Y-105774283D01*
X255991646Y-105736455D01*
X255985498Y-105699557D01*
X255979967Y-105663574D01*
X255975039Y-105628491D01*
X255970702Y-105594295D01*
X255966941Y-105560971D01*
X255963744Y-105528504D01*
X255961097Y-105496880D01*
X255958988Y-105466084D01*
X255957402Y-105436102D01*
X255956327Y-105406920D01*
X255955749Y-105378523D01*
X255955655Y-105350896D01*
X255956032Y-105324026D01*
X255956866Y-105297897D01*
X255958144Y-105272496D01*
X255959853Y-105247807D01*
X255961980Y-105223817D01*
X255964511Y-105200510D01*
X255967432Y-105177873D01*
X255970732Y-105155891D01*
X255974396Y-105134549D01*
X255978412Y-105113834D01*
X255982765Y-105093730D01*
X255987443Y-105074223D01*
X255992432Y-105055299D01*
X255997719Y-105036943D01*
X256003291Y-105019141D01*
X256009135Y-105001878D01*
X256015236Y-104985140D01*
X256021583Y-104968913D01*
X256028161Y-104953182D01*
X256034958Y-104937932D01*
X256041960Y-104923149D01*
X256049154Y-104908819D01*
X256056526Y-104894927D01*
X256064064Y-104881458D01*
X256071753Y-104868399D01*
X256079582Y-104855735D01*
X256087535Y-104843451D01*
X256095601Y-104831533D01*
X256103766Y-104819967D01*
X256112016Y-104808737D01*
X256120339Y-104797831D01*
X256128721Y-104787232D01*
X256137148Y-104776926D01*
X256145608Y-104766900D01*
X256154088Y-104757139D01*
X256162573Y-104747628D01*
X256171051Y-104738353D01*
X256179508Y-104729299D01*
X256187931Y-104720452D01*
X256196307Y-104711798D01*
X256204623Y-104703321D01*
X256212865Y-104695008D01*
X256221020Y-104686845D01*
X256229074Y-104678815D01*
X256237015Y-104670907D01*
X256244830Y-104663103D01*
X256252504Y-104655391D01*
X256260024Y-104647756D01*
X256267378Y-104640184D01*
X256274552Y-104632659D01*
X256281533Y-104625168D01*
X256288307Y-104617695D01*
X256294862Y-104610228D01*
X256301183Y-104602750D01*
X256307258Y-104595248D01*
X256313074Y-104587708D01*
X256318616Y-104580114D01*
X256323872Y-104572452D01*
X256328829Y-104564708D01*
X256333473Y-104556868D01*
X256337791Y-104548916D01*
X256341770Y-104540839D01*
X256345396Y-104532623D01*
X256348656Y-104524251D01*
X256351537Y-104515711D01*
X256354026Y-104506988D01*
X256356109Y-104498066D01*
X256357773Y-104488933D01*
X256359005Y-104479572D01*
X256359791Y-104469971D01*
X256360118Y-104460114D01*
X256359973Y-104449987D01*
X256359343Y-104439576D01*
X256358215Y-104428865D01*
X256356574Y-104417841D01*
X256354408Y-104406490D01*
X256351704Y-104394796D01*
X256348447Y-104382745D01*
X256344626Y-104370323D01*
X256340227Y-104357515D01*
X256329954Y-104331242D01*
X256318865Y-104306995D01*
X256306988Y-104284695D01*
X256294348Y-104264268D01*
X256280974Y-104245637D01*
X256266893Y-104228725D01*
X256252131Y-104213455D01*
X256236716Y-104199752D01*
X256220676Y-104187538D01*
X256204037Y-104176736D01*
X256186827Y-104167272D01*
X256169073Y-104159067D01*
X256150802Y-104152046D01*
X256132041Y-104146132D01*
X256112817Y-104141248D01*
X256093158Y-104137318D01*
X256073091Y-104134266D01*
X256052643Y-104132014D01*
X256031842Y-104130487D01*
X256010714Y-104129607D01*
X255989286Y-104129298D01*
X255967587Y-104129485D01*
X255945642Y-104130089D01*
X255923480Y-104131036D01*
X255901127Y-104132247D01*
X255878611Y-104133647D01*
X255855959Y-104135159D01*
X255833198Y-104136707D01*
X255810355Y-104138214D01*
X255787458Y-104139604D01*
X255764534Y-104140799D01*
X255741609Y-104141724D01*
X255718712Y-104142302D01*
X255695868Y-104142457D01*
X255673107Y-104142111D01*
X255650454Y-104141189D01*
X255627937Y-104139614D01*
X255605583Y-104137309D01*
X255583419Y-104134198D01*
X255561473Y-104130204D01*
X255539772Y-104125251D01*
X255518343Y-104119262D01*
X255497213Y-104112162D01*
X255476409Y-104103872D01*
X255455958Y-104094317D01*
X255435889Y-104083420D01*
X255416227Y-104071105D01*
X255397001Y-104057295D01*
X255378237Y-104041914D01*
X255359962Y-104024885D01*
X255348309Y-104011759D01*
X255335729Y-103994922D01*
X255322208Y-103974869D01*
X255307734Y-103952093D01*
X255292293Y-103927090D01*
X255275873Y-103900355D01*
X255258461Y-103872382D01*
X255240044Y-103843666D01*
X255220609Y-103814702D01*
X255200143Y-103785985D01*
X255178634Y-103758009D01*
X255156068Y-103731270D01*
X255132434Y-103706261D01*
X255107717Y-103683479D01*
X255081905Y-103663416D01*
X255053217Y-103644265D01*
X255024529Y-103626532D01*
X254995841Y-103610217D01*
X254967153Y-103595321D01*
X254938465Y-103581844D01*
X254909777Y-103569785D01*
X254881090Y-103559145D01*
X254852402Y-103549924D01*
X254823714Y-103542121D01*
X254795027Y-103535737D01*
X254766339Y-103530772D01*
X254737651Y-103527225D01*
X254708963Y-103525097D01*
X254680275Y-103524388D01*
X254593768Y-103524389D01*
G37*
D12*
G36*
X243655701Y-111241386D02*
G01*
X243631327Y-111242281D01*
X243607440Y-111244927D01*
X243584102Y-111249258D01*
X243561376Y-111255213D01*
X243539327Y-111262728D01*
X243518017Y-111271740D01*
X243497509Y-111282186D01*
X243477867Y-111294002D01*
X243459153Y-111307126D01*
X243441431Y-111321494D01*
X243424764Y-111337043D01*
X243409215Y-111353710D01*
X243394847Y-111371432D01*
X243381723Y-111390146D01*
X243369906Y-111409789D01*
X243359461Y-111430296D01*
X243350449Y-111451607D01*
X243342934Y-111473656D01*
X243336979Y-111496381D01*
X243332647Y-111519719D01*
X243330002Y-111543607D01*
X243329106Y-111567981D01*
X243330162Y-111593993D01*
X243333263Y-111619696D01*
X243338368Y-111644976D01*
X243345433Y-111669720D01*
X243354417Y-111693813D01*
X243365277Y-111717142D01*
X243377970Y-111739593D01*
X243392455Y-111761052D01*
X243408688Y-111781404D01*
X243402954Y-111808238D01*
X243397166Y-111835141D01*
X243391265Y-111862026D01*
X243385191Y-111888810D01*
X243378884Y-111915406D01*
X243372284Y-111941728D01*
X243365332Y-111967691D01*
X243357969Y-111993209D01*
X243350134Y-112018196D01*
X243341767Y-112042568D01*
X243332810Y-112066237D01*
X243323203Y-112089120D01*
X243312885Y-112111129D01*
X243301796Y-112132179D01*
X243289879Y-112152185D01*
X243277072Y-112171062D01*
X243263316Y-112188722D01*
X243248551Y-112205082D01*
X243232718Y-112220054D01*
X243215757Y-112233554D01*
X243197608Y-112245496D01*
X243178211Y-112255794D01*
X243143867Y-112267126D01*
X243111951Y-112275150D01*
X243082327Y-112280124D01*
X243054857Y-112282306D01*
X243029405Y-112281953D01*
X243005833Y-112279322D01*
X242984005Y-112274672D01*
X242963784Y-112268259D01*
X242945032Y-112260340D01*
X242927613Y-112251175D01*
X242911389Y-112241019D01*
X242896225Y-112230130D01*
X242881982Y-112218766D01*
X242868523Y-112207185D01*
X242855713Y-112195644D01*
X242843413Y-112184399D01*
X242831486Y-112173710D01*
X242819797Y-112163832D01*
X242808207Y-112155025D01*
X242807207Y-112130273D01*
X242804257Y-112106073D01*
X242799436Y-112082501D01*
X242792822Y-112059636D01*
X242784491Y-112037555D01*
X242774522Y-112016335D01*
X242762992Y-111996055D01*
X242749979Y-111976792D01*
X242735561Y-111958623D01*
X242719815Y-111941627D01*
X242702819Y-111925881D01*
X242684650Y-111911463D01*
X242665387Y-111898450D01*
X242645107Y-111886920D01*
X242623887Y-111876951D01*
X242601806Y-111868620D01*
X242578941Y-111862005D01*
X242555369Y-111857185D01*
X242531168Y-111854235D01*
X242506417Y-111853235D01*
X242481665Y-111854235D01*
X242457465Y-111857185D01*
X242433893Y-111862005D01*
X242411028Y-111868620D01*
X242388946Y-111876951D01*
X242367727Y-111886920D01*
X242347447Y-111898450D01*
X242328183Y-111911463D01*
X242310015Y-111925881D01*
X242293019Y-111941627D01*
X242277273Y-111958623D01*
X242262855Y-111976792D01*
X242249842Y-111996055D01*
X242238312Y-112016335D01*
X242228343Y-112037555D01*
X242220012Y-112059636D01*
X242213397Y-112082501D01*
X242208576Y-112106073D01*
X242205627Y-112130273D01*
X242204627Y-112155025D01*
X242205627Y-112179776D01*
X242208576Y-112203977D01*
X242213397Y-112227549D01*
X242220012Y-112250414D01*
X242228343Y-112272495D01*
X242238312Y-112293715D01*
X242249842Y-112313995D01*
X242262855Y-112333258D01*
X242277273Y-112351427D01*
X242293019Y-112368423D01*
X242310015Y-112384169D01*
X242328183Y-112398587D01*
X242347447Y-112411600D01*
X242367727Y-112423130D01*
X242388946Y-112433099D01*
X242411028Y-112441430D01*
X242433893Y-112448045D01*
X242457465Y-112452865D01*
X242481665Y-112455815D01*
X242506417Y-112456815D01*
X242521663Y-112488810D01*
X242533309Y-112515336D01*
X242541917Y-112537256D01*
X242548048Y-112555437D01*
X242552265Y-112570743D01*
X242555128Y-112584039D01*
X242557199Y-112596191D01*
X242559040Y-112608062D01*
X242561213Y-112620518D01*
X242564278Y-112634425D01*
X242568798Y-112650646D01*
X242575334Y-112670047D01*
X242584448Y-112693493D01*
X242589266Y-112719101D01*
X242594529Y-112745425D01*
X242600197Y-112772381D01*
X242606228Y-112799884D01*
X242612582Y-112827850D01*
X242619216Y-112856192D01*
X242626090Y-112884827D01*
X242633163Y-112913669D01*
X242640393Y-112942634D01*
X242647739Y-112971636D01*
X242655159Y-113000592D01*
X242662613Y-113029415D01*
X242670059Y-113058021D01*
X242677456Y-113086326D01*
X242684763Y-113114244D01*
X242691938Y-113141690D01*
X242698940Y-113168580D01*
X242705728Y-113194829D01*
X242712261Y-113220351D01*
X242718497Y-113245063D01*
X242724395Y-113268878D01*
X242729914Y-113291713D01*
X242735012Y-113313482D01*
X242739649Y-113334100D01*
X242743783Y-113353483D01*
X242747372Y-113371546D01*
X242750377Y-113388203D01*
X242752754Y-113403371D01*
X242754464Y-113416963D01*
X242779244Y-113409415D01*
X242803606Y-113401958D01*
X242827592Y-113394601D01*
X242851240Y-113387354D01*
X242874591Y-113380225D01*
X242897684Y-113373222D01*
X242920558Y-113366355D01*
X242943255Y-113359633D01*
X242965813Y-113353064D01*
X242988272Y-113346657D01*
X243010672Y-113340421D01*
X243033053Y-113334366D01*
X243055455Y-113328498D01*
X243077917Y-113322829D01*
X243100479Y-113317365D01*
X243123181Y-113312117D01*
X243146062Y-113307093D01*
X243169163Y-113302302D01*
X243192523Y-113297752D01*
X243216183Y-113293453D01*
X243240181Y-113289413D01*
X243264557Y-113285642D01*
X243289352Y-113282147D01*
X243314605Y-113278939D01*
X243340356Y-113276025D01*
X243366644Y-113273414D01*
X243393510Y-113271116D01*
X243420993Y-113269139D01*
X243449133Y-113267492D01*
X243477970Y-113266184D01*
X243507543Y-113265223D01*
X243537893Y-113264619D01*
X243569058Y-113264381D01*
X243601080Y-113264516D01*
X243633997Y-113265035D01*
X243665680Y-113265347D01*
X243696740Y-113265906D01*
X243727200Y-113266709D01*
X243757083Y-113267754D01*
X243786410Y-113269037D01*
X243815206Y-113270556D01*
X243843492Y-113272310D01*
X243871292Y-113274295D01*
X243898629Y-113276510D01*
X243925525Y-113278951D01*
X243952002Y-113281616D01*
X243978084Y-113284503D01*
X244003794Y-113287610D01*
X244029154Y-113290933D01*
X244054187Y-113294471D01*
X244078916Y-113298221D01*
X244103364Y-113302181D01*
X244127552Y-113306348D01*
X244151506Y-113310719D01*
X244175246Y-113315292D01*
X244198795Y-113320066D01*
X244222178Y-113325037D01*
X244245415Y-113330202D01*
X244268531Y-113335560D01*
X244291548Y-113341108D01*
X244314488Y-113346844D01*
X244337375Y-113352765D01*
X244360231Y-113358868D01*
X244383078Y-113365152D01*
X244405941Y-113371613D01*
X244428841Y-113378250D01*
X244451802Y-113385059D01*
X244474845Y-113392039D01*
X244497995Y-113399187D01*
X244521273Y-113406501D01*
X244544703Y-113413977D01*
X244568307Y-113421614D01*
X244570835Y-113407436D01*
X244574271Y-113391807D01*
X244578551Y-113374805D01*
X244583612Y-113356511D01*
X244589389Y-113337004D01*
X244595820Y-113316363D01*
X244602840Y-113294667D01*
X244610387Y-113271996D01*
X244618397Y-113248429D01*
X244626805Y-113224045D01*
X244635550Y-113198924D01*
X244644566Y-113173144D01*
X244653791Y-113146785D01*
X244663161Y-113119927D01*
X244672612Y-113092649D01*
X244682082Y-113065030D01*
X244691505Y-113037149D01*
X244700820Y-113009086D01*
X244709962Y-112980919D01*
X244718867Y-112952729D01*
X244727473Y-112924594D01*
X244735715Y-112896595D01*
X244743530Y-112868809D01*
X244750855Y-112841317D01*
X244757626Y-112814197D01*
X244763779Y-112787530D01*
X244769251Y-112761394D01*
X244773979Y-112735868D01*
X244781097Y-112703679D01*
X244788165Y-112673840D01*
X244795194Y-112646231D01*
X244802192Y-112620733D01*
X244809171Y-112597227D01*
X244816140Y-112575594D01*
X244823110Y-112555714D01*
X244830090Y-112537470D01*
X244837091Y-112520740D01*
X244844122Y-112505407D01*
X244851194Y-112491351D01*
X244858317Y-112478453D01*
X244865501Y-112466593D01*
X244872756Y-112455653D01*
X244880091Y-112445514D01*
X244887518Y-112436056D01*
X244895047Y-112427160D01*
X244902686Y-112418707D01*
X244910447Y-112410577D01*
X244918340Y-112402653D01*
X244926373Y-112394813D01*
X244934559Y-112386941D01*
X244942906Y-112378915D01*
X244951425Y-112370617D01*
X244960126Y-112361928D01*
X244969019Y-112352729D01*
X244978114Y-112342900D01*
X244987421Y-112332323D01*
X244996950Y-112320878D01*
X245006711Y-112308446D01*
X245016715Y-112294907D01*
X245026971Y-112280144D01*
X245037490Y-112264036D01*
X245048281Y-112246464D01*
X245059355Y-112227310D01*
X245070722Y-112206454D01*
X245082391Y-112183777D01*
X245094373Y-112159159D01*
X245093373Y-112134408D01*
X245090424Y-112110207D01*
X245085603Y-112086635D01*
X245078988Y-112063770D01*
X245070657Y-112041689D01*
X245060688Y-112020469D01*
X245049158Y-112000189D01*
X245036145Y-111980926D01*
X245021727Y-111962757D01*
X245005981Y-111945761D01*
X244988985Y-111930015D01*
X244970817Y-111915597D01*
X244951553Y-111902584D01*
X244931273Y-111891054D01*
X244910054Y-111881085D01*
X244887972Y-111872754D01*
X244865107Y-111866140D01*
X244841535Y-111861319D01*
X244817335Y-111858369D01*
X244792583Y-111857369D01*
X244767832Y-111858369D01*
X244743631Y-111861319D01*
X244720059Y-111866140D01*
X244697194Y-111872754D01*
X244675113Y-111881085D01*
X244653893Y-111891054D01*
X244633613Y-111902584D01*
X244614350Y-111915597D01*
X244596181Y-111930015D01*
X244579185Y-111945761D01*
X244563439Y-111962757D01*
X244549021Y-111980926D01*
X244536008Y-112000189D01*
X244524478Y-112020469D01*
X244514509Y-112041689D01*
X244506178Y-112063770D01*
X244499564Y-112086635D01*
X244494743Y-112110207D01*
X244491793Y-112134408D01*
X244490793Y-112159159D01*
X244489698Y-112183804D01*
X244486079Y-112205460D01*
X244480096Y-112224297D01*
X244471912Y-112240489D01*
X244461686Y-112254206D01*
X244449579Y-112265620D01*
X244435753Y-112274904D01*
X244420368Y-112282228D01*
X244403586Y-112287766D01*
X244385567Y-112291689D01*
X244366472Y-112294168D01*
X244346463Y-112295375D01*
X244325699Y-112295483D01*
X244304343Y-112294663D01*
X244282554Y-112293087D01*
X244260494Y-112290927D01*
X244238325Y-112288354D01*
X244216206Y-112285541D01*
X244194298Y-112282659D01*
X244172764Y-112279880D01*
X244151762Y-112277376D01*
X244131456Y-112275319D01*
X244112005Y-112273881D01*
X244093484Y-112263319D01*
X244076237Y-112251225D01*
X244060202Y-112237678D01*
X244045321Y-112222754D01*
X244031535Y-112206532D01*
X244018783Y-112189089D01*
X244007007Y-112170503D01*
X243996147Y-112150850D01*
X243986143Y-112130209D01*
X243976936Y-112108658D01*
X243968466Y-112086273D01*
X243960675Y-112063132D01*
X243953502Y-112039313D01*
X243946888Y-112014893D01*
X243940774Y-111989951D01*
X243935100Y-111964563D01*
X243929807Y-111938807D01*
X243924836Y-111912761D01*
X243920126Y-111886501D01*
X243915618Y-111860107D01*
X243911254Y-111833655D01*
X243906972Y-111807223D01*
X243902715Y-111780888D01*
X243918914Y-111760582D01*
X243933372Y-111739175D01*
X243946047Y-111716780D01*
X243956897Y-111693509D01*
X243965881Y-111669476D01*
X243972955Y-111644793D01*
X243978077Y-111619575D01*
X243981205Y-111593933D01*
X243982297Y-111567981D01*
X243981401Y-111543607D01*
X243978756Y-111519719D01*
X243974424Y-111496381D01*
X243968469Y-111473656D01*
X243960954Y-111451607D01*
X243951942Y-111430296D01*
X243941497Y-111409789D01*
X243929680Y-111390146D01*
X243916557Y-111371432D01*
X243902189Y-111353710D01*
X243886639Y-111337043D01*
X243869972Y-111321494D01*
X243852250Y-111307126D01*
X243833536Y-111294002D01*
X243813894Y-111282186D01*
X243793386Y-111271740D01*
X243772076Y-111262728D01*
X243750027Y-111255213D01*
X243727302Y-111249258D01*
X243703964Y-111244927D01*
X243680076Y-111242281D01*
X243655702Y-111241386D01*
X243655701Y-111241386D01*
G37*
X243655701Y-111241386D02*
X243631327Y-111242281D01*
X243607440Y-111244927D01*
X243584102Y-111249258D01*
X243561376Y-111255213D01*
X243539327Y-111262728D01*
X243518017Y-111271740D01*
X243497509Y-111282186D01*
X243477867Y-111294002D01*
X243459153Y-111307126D01*
X243441431Y-111321494D01*
X243424764Y-111337043D01*
X243409215Y-111353710D01*
X243394847Y-111371432D01*
X243381723Y-111390146D01*
X243369906Y-111409789D01*
X243359461Y-111430296D01*
X243350449Y-111451607D01*
X243342934Y-111473656D01*
X243336979Y-111496381D01*
X243332647Y-111519719D01*
X243330002Y-111543607D01*
X243329106Y-111567981D01*
X243330162Y-111593993D01*
X243333263Y-111619696D01*
X243338368Y-111644976D01*
X243345433Y-111669720D01*
X243354417Y-111693813D01*
X243365277Y-111717142D01*
X243377970Y-111739593D01*
X243392455Y-111761052D01*
X243408688Y-111781404D01*
X243402954Y-111808238D01*
X243397166Y-111835141D01*
X243391265Y-111862026D01*
X243385191Y-111888810D01*
X243378884Y-111915406D01*
X243372284Y-111941728D01*
X243365332Y-111967691D01*
X243357969Y-111993209D01*
X243350134Y-112018196D01*
X243341767Y-112042568D01*
X243332810Y-112066237D01*
X243323203Y-112089120D01*
X243312885Y-112111129D01*
X243301796Y-112132179D01*
X243289879Y-112152185D01*
X243277072Y-112171062D01*
X243263316Y-112188722D01*
X243248551Y-112205082D01*
X243232718Y-112220054D01*
X243215757Y-112233554D01*
X243197608Y-112245496D01*
X243178211Y-112255794D01*
X243143867Y-112267126D01*
X243111951Y-112275150D01*
X243082327Y-112280124D01*
X243054857Y-112282306D01*
X243029405Y-112281953D01*
X243005833Y-112279322D01*
X242984005Y-112274672D01*
X242963784Y-112268259D01*
X242945032Y-112260340D01*
X242927613Y-112251175D01*
X242911389Y-112241019D01*
X242896225Y-112230130D01*
X242881982Y-112218766D01*
X242868523Y-112207185D01*
X242855713Y-112195644D01*
X242843413Y-112184399D01*
X242831486Y-112173710D01*
X242819797Y-112163832D01*
X242808207Y-112155025D01*
X242807207Y-112130273D01*
X242804257Y-112106073D01*
X242799436Y-112082501D01*
X242792822Y-112059636D01*
X242784491Y-112037555D01*
X242774522Y-112016335D01*
X242762992Y-111996055D01*
X242749979Y-111976792D01*
X242735561Y-111958623D01*
X242719815Y-111941627D01*
X242702819Y-111925881D01*
X242684650Y-111911463D01*
X242665387Y-111898450D01*
X242645107Y-111886920D01*
X242623887Y-111876951D01*
X242601806Y-111868620D01*
X242578941Y-111862005D01*
X242555369Y-111857185D01*
X242531168Y-111854235D01*
X242506417Y-111853235D01*
X242481665Y-111854235D01*
X242457465Y-111857185D01*
X242433893Y-111862005D01*
X242411028Y-111868620D01*
X242388946Y-111876951D01*
X242367727Y-111886920D01*
X242347447Y-111898450D01*
X242328183Y-111911463D01*
X242310015Y-111925881D01*
X242293019Y-111941627D01*
X242277273Y-111958623D01*
X242262855Y-111976792D01*
X242249842Y-111996055D01*
X242238312Y-112016335D01*
X242228343Y-112037555D01*
X242220012Y-112059636D01*
X242213397Y-112082501D01*
X242208576Y-112106073D01*
X242205627Y-112130273D01*
X242204627Y-112155025D01*
X242205627Y-112179776D01*
X242208576Y-112203977D01*
X242213397Y-112227549D01*
X242220012Y-112250414D01*
X242228343Y-112272495D01*
X242238312Y-112293715D01*
X242249842Y-112313995D01*
X242262855Y-112333258D01*
X242277273Y-112351427D01*
X242293019Y-112368423D01*
X242310015Y-112384169D01*
X242328183Y-112398587D01*
X242347447Y-112411600D01*
X242367727Y-112423130D01*
X242388946Y-112433099D01*
X242411028Y-112441430D01*
X242433893Y-112448045D01*
X242457465Y-112452865D01*
X242481665Y-112455815D01*
X242506417Y-112456815D01*
X242521663Y-112488810D01*
X242533309Y-112515336D01*
X242541917Y-112537256D01*
X242548048Y-112555437D01*
X242552265Y-112570743D01*
X242555128Y-112584039D01*
X242557199Y-112596191D01*
X242559040Y-112608062D01*
X242561213Y-112620518D01*
X242564278Y-112634425D01*
X242568798Y-112650646D01*
X242575334Y-112670047D01*
X242584448Y-112693493D01*
X242589266Y-112719101D01*
X242594529Y-112745425D01*
X242600197Y-112772381D01*
X242606228Y-112799884D01*
X242612582Y-112827850D01*
X242619216Y-112856192D01*
X242626090Y-112884827D01*
X242633163Y-112913669D01*
X242640393Y-112942634D01*
X242647739Y-112971636D01*
X242655159Y-113000592D01*
X242662613Y-113029415D01*
X242670059Y-113058021D01*
X242677456Y-113086326D01*
X242684763Y-113114244D01*
X242691938Y-113141690D01*
X242698940Y-113168580D01*
X242705728Y-113194829D01*
X242712261Y-113220351D01*
X242718497Y-113245063D01*
X242724395Y-113268878D01*
X242729914Y-113291713D01*
X242735012Y-113313482D01*
X242739649Y-113334100D01*
X242743783Y-113353483D01*
X242747372Y-113371546D01*
X242750377Y-113388203D01*
X242752754Y-113403371D01*
X242754464Y-113416963D01*
X242779244Y-113409415D01*
X242803606Y-113401958D01*
X242827592Y-113394601D01*
X242851240Y-113387354D01*
X242874591Y-113380225D01*
X242897684Y-113373222D01*
X242920558Y-113366355D01*
X242943255Y-113359633D01*
X242965813Y-113353064D01*
X242988272Y-113346657D01*
X243010672Y-113340421D01*
X243033053Y-113334366D01*
X243055455Y-113328498D01*
X243077917Y-113322829D01*
X243100479Y-113317365D01*
X243123181Y-113312117D01*
X243146062Y-113307093D01*
X243169163Y-113302302D01*
X243192523Y-113297752D01*
X243216183Y-113293453D01*
X243240181Y-113289413D01*
X243264557Y-113285642D01*
X243289352Y-113282147D01*
X243314605Y-113278939D01*
X243340356Y-113276025D01*
X243366644Y-113273414D01*
X243393510Y-113271116D01*
X243420993Y-113269139D01*
X243449133Y-113267492D01*
X243477970Y-113266184D01*
X243507543Y-113265223D01*
X243537893Y-113264619D01*
X243569058Y-113264381D01*
X243601080Y-113264516D01*
X243633997Y-113265035D01*
X243665680Y-113265347D01*
X243696740Y-113265906D01*
X243727200Y-113266709D01*
X243757083Y-113267754D01*
X243786410Y-113269037D01*
X243815206Y-113270556D01*
X243843492Y-113272310D01*
X243871292Y-113274295D01*
X243898629Y-113276510D01*
X243925525Y-113278951D01*
X243952002Y-113281616D01*
X243978084Y-113284503D01*
X244003794Y-113287610D01*
X244029154Y-113290933D01*
X244054187Y-113294471D01*
X244078916Y-113298221D01*
X244103364Y-113302181D01*
X244127552Y-113306348D01*
X244151506Y-113310719D01*
X244175246Y-113315292D01*
X244198795Y-113320066D01*
X244222178Y-113325037D01*
X244245415Y-113330202D01*
X244268531Y-113335560D01*
X244291548Y-113341108D01*
X244314488Y-113346844D01*
X244337375Y-113352765D01*
X244360231Y-113358868D01*
X244383078Y-113365152D01*
X244405941Y-113371613D01*
X244428841Y-113378250D01*
X244451802Y-113385059D01*
X244474845Y-113392039D01*
X244497995Y-113399187D01*
X244521273Y-113406501D01*
X244544703Y-113413977D01*
X244568307Y-113421614D01*
X244570835Y-113407436D01*
X244574271Y-113391807D01*
X244578551Y-113374805D01*
X244583612Y-113356511D01*
X244589389Y-113337004D01*
X244595820Y-113316363D01*
X244602840Y-113294667D01*
X244610387Y-113271996D01*
X244618397Y-113248429D01*
X244626805Y-113224045D01*
X244635550Y-113198924D01*
X244644566Y-113173144D01*
X244653791Y-113146785D01*
X244663161Y-113119927D01*
X244672612Y-113092649D01*
X244682082Y-113065030D01*
X244691505Y-113037149D01*
X244700820Y-113009086D01*
X244709962Y-112980919D01*
X244718867Y-112952729D01*
X244727473Y-112924594D01*
X244735715Y-112896595D01*
X244743530Y-112868809D01*
X244750855Y-112841317D01*
X244757626Y-112814197D01*
X244763779Y-112787530D01*
X244769251Y-112761394D01*
X244773979Y-112735868D01*
X244781097Y-112703679D01*
X244788165Y-112673840D01*
X244795194Y-112646231D01*
X244802192Y-112620733D01*
X244809171Y-112597227D01*
X244816140Y-112575594D01*
X244823110Y-112555714D01*
X244830090Y-112537470D01*
X244837091Y-112520740D01*
X244844122Y-112505407D01*
X244851194Y-112491351D01*
X244858317Y-112478453D01*
X244865501Y-112466593D01*
X244872756Y-112455653D01*
X244880091Y-112445514D01*
X244887518Y-112436056D01*
X244895047Y-112427160D01*
X244902686Y-112418707D01*
X244910447Y-112410577D01*
X244918340Y-112402653D01*
X244926373Y-112394813D01*
X244934559Y-112386941D01*
X244942906Y-112378915D01*
X244951425Y-112370617D01*
X244960126Y-112361928D01*
X244969019Y-112352729D01*
X244978114Y-112342900D01*
X244987421Y-112332323D01*
X244996950Y-112320878D01*
X245006711Y-112308446D01*
X245016715Y-112294907D01*
X245026971Y-112280144D01*
X245037490Y-112264036D01*
X245048281Y-112246464D01*
X245059355Y-112227310D01*
X245070722Y-112206454D01*
X245082391Y-112183777D01*
X245094373Y-112159159D01*
X245093373Y-112134408D01*
X245090424Y-112110207D01*
X245085603Y-112086635D01*
X245078988Y-112063770D01*
X245070657Y-112041689D01*
X245060688Y-112020469D01*
X245049158Y-112000189D01*
X245036145Y-111980926D01*
X245021727Y-111962757D01*
X245005981Y-111945761D01*
X244988985Y-111930015D01*
X244970817Y-111915597D01*
X244951553Y-111902584D01*
X244931273Y-111891054D01*
X244910054Y-111881085D01*
X244887972Y-111872754D01*
X244865107Y-111866140D01*
X244841535Y-111861319D01*
X244817335Y-111858369D01*
X244792583Y-111857369D01*
X244767832Y-111858369D01*
X244743631Y-111861319D01*
X244720059Y-111866140D01*
X244697194Y-111872754D01*
X244675113Y-111881085D01*
X244653893Y-111891054D01*
X244633613Y-111902584D01*
X244614350Y-111915597D01*
X244596181Y-111930015D01*
X244579185Y-111945761D01*
X244563439Y-111962757D01*
X244549021Y-111980926D01*
X244536008Y-112000189D01*
X244524478Y-112020469D01*
X244514509Y-112041689D01*
X244506178Y-112063770D01*
X244499564Y-112086635D01*
X244494743Y-112110207D01*
X244491793Y-112134408D01*
X244490793Y-112159159D01*
X244489698Y-112183804D01*
X244486079Y-112205460D01*
X244480096Y-112224297D01*
X244471912Y-112240489D01*
X244461686Y-112254206D01*
X244449579Y-112265620D01*
X244435753Y-112274904D01*
X244420368Y-112282228D01*
X244403586Y-112287766D01*
X244385567Y-112291689D01*
X244366472Y-112294168D01*
X244346463Y-112295375D01*
X244325699Y-112295483D01*
X244304343Y-112294663D01*
X244282554Y-112293087D01*
X244260494Y-112290927D01*
X244238325Y-112288354D01*
X244216206Y-112285541D01*
X244194298Y-112282659D01*
X244172764Y-112279880D01*
X244151762Y-112277376D01*
X244131456Y-112275319D01*
X244112005Y-112273881D01*
X244093484Y-112263319D01*
X244076237Y-112251225D01*
X244060202Y-112237678D01*
X244045321Y-112222754D01*
X244031535Y-112206532D01*
X244018783Y-112189089D01*
X244007007Y-112170503D01*
X243996147Y-112150850D01*
X243986143Y-112130209D01*
X243976936Y-112108658D01*
X243968466Y-112086273D01*
X243960675Y-112063132D01*
X243953502Y-112039313D01*
X243946888Y-112014893D01*
X243940774Y-111989951D01*
X243935100Y-111964563D01*
X243929807Y-111938807D01*
X243924836Y-111912761D01*
X243920126Y-111886501D01*
X243915618Y-111860107D01*
X243911254Y-111833655D01*
X243906972Y-111807223D01*
X243902715Y-111780888D01*
X243918914Y-111760582D01*
X243933372Y-111739175D01*
X243946047Y-111716780D01*
X243956897Y-111693509D01*
X243965881Y-111669476D01*
X243972955Y-111644793D01*
X243978077Y-111619575D01*
X243981205Y-111593933D01*
X243982297Y-111567981D01*
X243981401Y-111543607D01*
X243978756Y-111519719D01*
X243974424Y-111496381D01*
X243968469Y-111473656D01*
X243960954Y-111451607D01*
X243951942Y-111430296D01*
X243941497Y-111409789D01*
X243929680Y-111390146D01*
X243916557Y-111371432D01*
X243902189Y-111353710D01*
X243886639Y-111337043D01*
X243869972Y-111321494D01*
X243852250Y-111307126D01*
X243833536Y-111294002D01*
X243813894Y-111282186D01*
X243793386Y-111271740D01*
X243772076Y-111262728D01*
X243750027Y-111255213D01*
X243727302Y-111249258D01*
X243703964Y-111244927D01*
X243680076Y-111242281D01*
X243655702Y-111241386D01*
X243655701Y-111241386D01*
D13*
X243840000Y-110490000D03*
X254000000Y-110490000D03*
D14*
X245110000Y-107950000D03*
X251460000Y-105410000D03*
D15*
X248920000Y-110490000D03*
D16*
X243649500Y-118364000D03*
X243776500Y-102870000D03*
D17*
X246316500Y-102870000D03*
D18*
X254381000Y-118364000D03*
D19*
X254381000Y-108204000D03*
D17*
X256286000Y-118364000D03*
D16*
X253492000Y-102870000D03*
X252285500Y-118364000D03*
X241554000Y-102870000D03*
X256286000Y-102870000D03*
D17*
X241554000Y-116459000D03*
X250507500Y-102806500D03*
X256286000Y-116459000D03*
X250126500Y-118364000D03*
X241554000Y-114554000D03*
X248412000Y-102806500D03*
X256286000Y-114554000D03*
X247967500Y-118364000D03*
X256476500Y-108204000D03*
X241554000Y-105219500D03*
X241554000Y-118364000D03*
X245808500Y-118364000D03*
M02*
