M48
; DRILL file {KiCad 5.1.5-52549c5~84~ubuntu18.04.1} date Sat 11 Apr 2020 04:07:38 PM EDT
; FORMAT={-:-/ absolute / inch / decimal}
; #@! TF.CreationDate,2020-04-11T16:07:38-04:00
; #@! TF.GenerationSoftware,Kicad,Pcbnew,5.1.5-52549c5~84~ubuntu18.04.1
FMAT,2
INCH
T1C0.0250
T2C0.0315
T3C0.0354
T4C0.0669
T5C0.1161
T6C0.1567
%
G90
G05
T1
X9.4875Y-4.327
X9.5797Y-4.5428
X9.6213Y-4.56
X9.6675Y-4.3375
X9.6696Y-4.5136
X9.723Y-4.1847
X9.7439Y-4.2245
X9.7544Y-4.1525
X9.788Y-4.2336
X9.8927Y-4.4176
X9.924Y-4.3013
X9.93Y-4.5248
X9.93Y-4.58
X9.95Y-4.4575
X9.965Y-4.22
X9.9663Y-4.5515
X10.033Y-4.581
T2
X10.015Y-4.26
X10.015Y-4.66
T3
X9.5975Y-4.05
X9.51Y-4.1425
X9.78Y-4.0475
X9.51Y-4.51
X10.0975Y-4.26
X9.7625Y-4.66
X10.09Y-4.51
X9.98Y-4.05
X9.6775Y-4.66
X9.9325Y-4.66
X9.6975Y-4.05
X10.09Y-4.66
X10.09Y-4.05
X9.5925Y-4.66
X9.51Y-4.585
X9.8475Y-4.66
X10.09Y-4.585
X9.51Y-4.05
X9.51Y-4.66
X9.8625Y-4.0475
T4
X9.6Y-4.35
X10.0Y-4.35
T5
X9.65Y-4.25
X9.9Y-4.15
T6
X9.8Y-4.35
T0
M30
