G04 (created by PCBNEW (2013-may-18)-stable) date Sat 22 Aug 2015 11:35:59 PM EDT*
%MOIN*%
G04 Gerber Fmt 3.4, Leading zero omitted, Abs format*
%FSLAX34Y34*%
G01*
G70*
G90*
G04 APERTURE LIST*
%ADD10C,0.00590551*%
%ADD11C,0.065*%
%ADD12C,0.0590551*%
%ADD13C,0.066*%
%ADD14R,0.055X0.055*%
%ADD15C,0.055*%
%ADD16C,0.09*%
%ADD17C,0.035*%
%ADD18C,0.01*%
G04 APERTURE END LIST*
G54D10*
G54D11*
X55500Y-52000D03*
X55500Y-56000D03*
X50000Y-56000D03*
X50000Y-52000D03*
X51500Y-44500D03*
X51500Y-48500D03*
X42500Y-56000D03*
X42500Y-52000D03*
X46000Y-48500D03*
X46000Y-44500D03*
G54D12*
X59050Y-56000D03*
X39500Y-56000D03*
X39500Y-54000D03*
X54000Y-56900D03*
X48000Y-57000D03*
X53000Y-56900D03*
X50000Y-57000D03*
X58500Y-51950D03*
X49000Y-44500D03*
X59050Y-52600D03*
X42500Y-44500D03*
X44000Y-44500D03*
X42500Y-48500D03*
X41950Y-45150D03*
X42500Y-57000D03*
X55050Y-49500D03*
X48000Y-44500D03*
X55050Y-48500D03*
X54600Y-45200D03*
X40500Y-57000D03*
G54D13*
X43500Y-54500D03*
X43500Y-53500D03*
X50500Y-46000D03*
X50500Y-47000D03*
X47000Y-47000D03*
X47000Y-46000D03*
X51000Y-54500D03*
X51000Y-53500D03*
X54500Y-53500D03*
X54500Y-54500D03*
G54D14*
X43500Y-52500D03*
G54D15*
X43500Y-55500D03*
G54D14*
X50500Y-48000D03*
G54D15*
X50500Y-45000D03*
G54D14*
X51000Y-52500D03*
G54D15*
X51000Y-55500D03*
G54D14*
X47000Y-45000D03*
G54D15*
X47000Y-48000D03*
G54D14*
X54500Y-55500D03*
G54D15*
X54500Y-52500D03*
G54D16*
X39500Y-53000D03*
X40500Y-55500D03*
X54500Y-47500D03*
X53500Y-45000D03*
X47000Y-53000D03*
X48000Y-55500D03*
X58500Y-55000D03*
X57500Y-52500D03*
X43000Y-45500D03*
X44000Y-48000D03*
G54D12*
X45800Y-56700D03*
X52500Y-50700D03*
X43000Y-49700D03*
X45000Y-49700D03*
X47000Y-49700D03*
X50500Y-49700D03*
X52500Y-49700D03*
X50500Y-50700D03*
X47000Y-50700D03*
X45000Y-50700D03*
X43000Y-50700D03*
X44700Y-56700D03*
G54D17*
X51950Y-53200D03*
X46100Y-52400D03*
X42700Y-53450D03*
X55250Y-54000D03*
X43000Y-47250D03*
G54D18*
X48300Y-50450D02*
X48300Y-52300D01*
X50200Y-53500D02*
X49450Y-52750D01*
X49450Y-52750D02*
X48750Y-52750D01*
X48750Y-52750D02*
X48300Y-52300D01*
X51000Y-53500D02*
X50200Y-53500D01*
X49550Y-47950D02*
X49550Y-49200D01*
X49550Y-49200D02*
X48300Y-50450D01*
X49550Y-47950D02*
X50500Y-47000D01*
X50000Y-52000D02*
X50500Y-51500D01*
X50500Y-51500D02*
X51400Y-51500D01*
X51400Y-51500D02*
X51950Y-52050D01*
X51950Y-52050D02*
X51950Y-53200D01*
X59050Y-56000D02*
X57800Y-56000D01*
X57800Y-56000D02*
X57000Y-55200D01*
X57000Y-55200D02*
X56300Y-55200D01*
X56300Y-55200D02*
X55500Y-56000D01*
X39500Y-56000D02*
X39500Y-55250D01*
X41700Y-52800D02*
X42500Y-52000D01*
X40700Y-52800D02*
X41700Y-52800D01*
X39950Y-52050D02*
X40700Y-52800D01*
X39150Y-52050D02*
X39950Y-52050D01*
X38700Y-52500D02*
X39150Y-52050D01*
X38700Y-54450D02*
X38700Y-52500D01*
X39500Y-55250D02*
X38700Y-54450D01*
X49000Y-44500D02*
X50700Y-44500D01*
X53250Y-45250D02*
X53500Y-45000D01*
X51450Y-45250D02*
X53250Y-45250D01*
X50700Y-44500D02*
X51450Y-45250D01*
X47850Y-50000D02*
X48750Y-49100D01*
X48000Y-54500D02*
X47850Y-54350D01*
X47850Y-54350D02*
X47850Y-50000D01*
X49000Y-44500D02*
X49700Y-45200D01*
X48000Y-54500D02*
X48000Y-55500D01*
X49700Y-46900D02*
X49700Y-45200D01*
X48750Y-47850D02*
X49700Y-46900D01*
X48750Y-49100D02*
X48750Y-47850D01*
X48000Y-57000D02*
X48000Y-55500D01*
X41950Y-45150D02*
X41950Y-45700D01*
X46750Y-45250D02*
X47000Y-45000D01*
X44450Y-45250D02*
X46750Y-45250D01*
X43300Y-46400D02*
X44450Y-45250D01*
X42650Y-46400D02*
X43300Y-46400D01*
X41950Y-45700D02*
X42650Y-46400D01*
X47800Y-48000D02*
X47800Y-46800D01*
X46200Y-49600D02*
X47800Y-48000D01*
X46200Y-52300D02*
X46200Y-49600D01*
X46100Y-52400D02*
X46200Y-52300D01*
X47800Y-46800D02*
X47000Y-46000D01*
X44000Y-48000D02*
X44000Y-51100D01*
X43050Y-53100D02*
X42700Y-53450D01*
X43050Y-52050D02*
X43050Y-53100D01*
X44000Y-51100D02*
X43050Y-52050D01*
X55050Y-49500D02*
X53700Y-50850D01*
X53700Y-53700D02*
X54500Y-54500D01*
X53700Y-50850D02*
X53700Y-53700D01*
X54500Y-54500D02*
X53000Y-56000D01*
X53000Y-56000D02*
X53000Y-56900D01*
X54000Y-56900D02*
X55000Y-55900D01*
X55250Y-54650D02*
X55250Y-54000D01*
X55000Y-54900D02*
X55250Y-54650D01*
X55000Y-55900D02*
X55000Y-54900D01*
X58500Y-51950D02*
X58050Y-51950D01*
X58050Y-51950D02*
X57500Y-52500D01*
X45800Y-56700D02*
X46100Y-56400D01*
X45600Y-50300D02*
X45000Y-49700D01*
X45600Y-52700D02*
X45600Y-50300D01*
X46100Y-53200D02*
X45600Y-52700D01*
X46100Y-56400D02*
X46100Y-53200D01*
X44700Y-56700D02*
X44400Y-56400D01*
X45000Y-52700D02*
X45000Y-50700D01*
X44400Y-53300D02*
X45000Y-52700D01*
X44400Y-56400D02*
X44400Y-53300D01*
X50500Y-45000D02*
X51300Y-45800D01*
X54300Y-47700D02*
X54500Y-47500D01*
X51800Y-47700D02*
X54300Y-47700D01*
X51300Y-47200D02*
X51800Y-47700D01*
X51300Y-45800D02*
X51300Y-47200D01*
X39500Y-53000D02*
X40300Y-53800D01*
X43250Y-55250D02*
X43500Y-55500D01*
X41300Y-55250D02*
X43250Y-55250D01*
X40300Y-54250D02*
X41300Y-55250D01*
X40300Y-53800D02*
X40300Y-54250D01*
X51000Y-54500D02*
X50000Y-55500D01*
X50000Y-55500D02*
X50000Y-56000D01*
X58500Y-55000D02*
X58500Y-54550D01*
X54800Y-52800D02*
X54500Y-52500D01*
X56750Y-52800D02*
X54800Y-52800D01*
X58500Y-54550D02*
X56750Y-52800D01*
X46700Y-47700D02*
X47000Y-48000D01*
X44650Y-47700D02*
X46700Y-47700D01*
X44200Y-47250D02*
X44650Y-47700D01*
X43000Y-47250D02*
X44200Y-47250D01*
G54D10*
G36*
X39126Y-53602D02*
X39038Y-53690D01*
X39000Y-53782D01*
X39000Y-53489D01*
X39102Y-53593D01*
X39126Y-53602D01*
X39126Y-53602D01*
G37*
G54D18*
X39126Y-53602D02*
X39038Y-53690D01*
X39000Y-53782D01*
X39000Y-53489D01*
X39102Y-53593D01*
X39126Y-53602D01*
G54D10*
G36*
X39872Y-52396D02*
X39759Y-52350D01*
X39825Y-52350D01*
X39872Y-52396D01*
X39872Y-52396D01*
G37*
G54D18*
X39872Y-52396D02*
X39759Y-52350D01*
X39825Y-52350D01*
X39872Y-52396D01*
G54D10*
G36*
X40425Y-54799D02*
X40361Y-54799D01*
X40104Y-54906D01*
X39906Y-55102D01*
X39800Y-55360D01*
X39800Y-55499D01*
X39800Y-55250D01*
X39799Y-55249D01*
X39777Y-55135D01*
X39712Y-55037D01*
X39712Y-55037D01*
X39000Y-54325D01*
X39000Y-54217D01*
X39037Y-54308D01*
X39190Y-54461D01*
X39391Y-54545D01*
X39607Y-54545D01*
X39808Y-54462D01*
X39961Y-54309D01*
X40000Y-54217D01*
X40000Y-54250D01*
X40022Y-54364D01*
X40087Y-54462D01*
X40425Y-54799D01*
X40425Y-54799D01*
G37*
G54D18*
X40425Y-54799D02*
X40361Y-54799D01*
X40104Y-54906D01*
X39906Y-55102D01*
X39800Y-55360D01*
X39800Y-55499D01*
X39800Y-55250D01*
X39799Y-55249D01*
X39777Y-55135D01*
X39712Y-55037D01*
X39712Y-55037D01*
X39000Y-54325D01*
X39000Y-54217D01*
X39037Y-54308D01*
X39190Y-54461D01*
X39391Y-54545D01*
X39607Y-54545D01*
X39808Y-54462D01*
X39961Y-54309D01*
X40000Y-54217D01*
X40000Y-54250D01*
X40022Y-54364D01*
X40087Y-54462D01*
X40425Y-54799D01*
G54D10*
G36*
X40963Y-53100D02*
X40920Y-53117D01*
X40919Y-53119D01*
X40914Y-53122D01*
X40623Y-53412D01*
X40620Y-53419D01*
X40617Y-53420D01*
X40542Y-53607D01*
X40535Y-53623D01*
X40512Y-53587D01*
X40512Y-53587D01*
X40160Y-53235D01*
X40199Y-53139D01*
X40200Y-52861D01*
X40103Y-52627D01*
X40487Y-53012D01*
X40487Y-53012D01*
X40585Y-53077D01*
X40699Y-53099D01*
X40700Y-53100D01*
X40963Y-53100D01*
X40963Y-53100D01*
G37*
G54D18*
X40963Y-53100D02*
X40920Y-53117D01*
X40919Y-53119D01*
X40914Y-53122D01*
X40623Y-53412D01*
X40620Y-53419D01*
X40617Y-53420D01*
X40542Y-53607D01*
X40535Y-53623D01*
X40512Y-53587D01*
X40512Y-53587D01*
X40160Y-53235D01*
X40199Y-53139D01*
X40200Y-52861D01*
X40103Y-52627D01*
X40487Y-53012D01*
X40487Y-53012D01*
X40585Y-53077D01*
X40699Y-53099D01*
X40700Y-53100D01*
X40963Y-53100D01*
G54D10*
G36*
X41178Y-52500D02*
X40824Y-52500D01*
X40162Y-51837D01*
X40064Y-51772D01*
X39950Y-51750D01*
X39150Y-51750D01*
X39035Y-51772D01*
X38937Y-51837D01*
X38487Y-52287D01*
X38422Y-52385D01*
X38400Y-52500D01*
X38400Y-53587D01*
X38355Y-53519D01*
X38354Y-53519D01*
X38280Y-53444D01*
X38134Y-53347D01*
X38069Y-53320D01*
X38069Y-52424D01*
X38156Y-52388D01*
X38156Y-52387D01*
X38309Y-52285D01*
X38310Y-52285D01*
X38384Y-52210D01*
X38488Y-52056D01*
X38528Y-51959D01*
X38528Y-51958D01*
X38564Y-51777D01*
X38564Y-51753D01*
X38564Y-51752D01*
X38588Y-51632D01*
X38625Y-51576D01*
X38683Y-51538D01*
X38775Y-51519D01*
X41153Y-51519D01*
X41004Y-51668D01*
X40995Y-51689D01*
X40989Y-51691D01*
X40954Y-51787D01*
X40915Y-51883D01*
X40915Y-51896D01*
X40910Y-51909D01*
X40914Y-52012D01*
X40914Y-52115D01*
X40920Y-52128D01*
X40920Y-52142D01*
X40989Y-52308D01*
X40995Y-52310D01*
X41003Y-52330D01*
X41168Y-52495D01*
X41178Y-52500D01*
X41178Y-52500D01*
G37*
G54D18*
X41178Y-52500D02*
X40824Y-52500D01*
X40162Y-51837D01*
X40064Y-51772D01*
X39950Y-51750D01*
X39150Y-51750D01*
X39035Y-51772D01*
X38937Y-51837D01*
X38487Y-52287D01*
X38422Y-52385D01*
X38400Y-52500D01*
X38400Y-53587D01*
X38355Y-53519D01*
X38354Y-53519D01*
X38280Y-53444D01*
X38134Y-53347D01*
X38069Y-53320D01*
X38069Y-52424D01*
X38156Y-52388D01*
X38156Y-52387D01*
X38309Y-52285D01*
X38310Y-52285D01*
X38384Y-52210D01*
X38488Y-52056D01*
X38528Y-51959D01*
X38528Y-51958D01*
X38564Y-51777D01*
X38564Y-51753D01*
X38564Y-51752D01*
X38588Y-51632D01*
X38625Y-51576D01*
X38683Y-51538D01*
X38775Y-51519D01*
X41153Y-51519D01*
X41004Y-51668D01*
X40995Y-51689D01*
X40989Y-51691D01*
X40954Y-51787D01*
X40915Y-51883D01*
X40915Y-51896D01*
X40910Y-51909D01*
X40914Y-52012D01*
X40914Y-52115D01*
X40920Y-52128D01*
X40920Y-52142D01*
X40989Y-52308D01*
X40995Y-52310D01*
X41003Y-52330D01*
X41168Y-52495D01*
X41178Y-52500D01*
G54D10*
G36*
X41750Y-45925D02*
X41634Y-45847D01*
X41569Y-45820D01*
X41569Y-45540D01*
X41640Y-45611D01*
X41650Y-45615D01*
X41650Y-45700D01*
X41672Y-45814D01*
X41737Y-45912D01*
X41750Y-45925D01*
X41750Y-45925D01*
G37*
G54D18*
X41750Y-45925D02*
X41634Y-45847D01*
X41569Y-45820D01*
X41569Y-45540D01*
X41640Y-45611D01*
X41650Y-45615D01*
X41650Y-45700D01*
X41672Y-45814D01*
X41737Y-45912D01*
X41750Y-45925D01*
G54D10*
G36*
X42136Y-55550D02*
X42012Y-55673D01*
X42006Y-55689D01*
X42004Y-55689D01*
X41996Y-55669D01*
X41877Y-55550D01*
X42136Y-55550D01*
X42136Y-55550D01*
G37*
G54D18*
X42136Y-55550D02*
X42012Y-55673D01*
X42006Y-55689D01*
X42004Y-55689D01*
X41996Y-55669D01*
X41877Y-55550D01*
X42136Y-55550D01*
G54D10*
G36*
X42195Y-44035D02*
X42191Y-44037D01*
X42086Y-44142D01*
X42088Y-44132D01*
X42125Y-44076D01*
X42183Y-44038D01*
X42195Y-44035D01*
X42195Y-44035D01*
G37*
G54D18*
X42195Y-44035D02*
X42191Y-44037D01*
X42086Y-44142D01*
X42088Y-44132D01*
X42125Y-44076D01*
X42183Y-44038D01*
X42195Y-44035D01*
G54D10*
G36*
X42243Y-56516D02*
X42191Y-56537D01*
X42038Y-56690D01*
X41954Y-56891D01*
X41954Y-57107D01*
X42037Y-57308D01*
X42059Y-57330D01*
X40940Y-57330D01*
X40961Y-57309D01*
X41045Y-57108D01*
X41045Y-56892D01*
X40962Y-56691D01*
X40809Y-56538D01*
X40608Y-56454D01*
X40392Y-56454D01*
X40191Y-56537D01*
X40038Y-56690D01*
X39954Y-56891D01*
X39954Y-57107D01*
X40037Y-57308D01*
X40059Y-57330D01*
X38775Y-57330D01*
X38683Y-57311D01*
X38625Y-57273D01*
X38588Y-57217D01*
X38569Y-57123D01*
X38569Y-56300D01*
X38564Y-56273D01*
X38564Y-56247D01*
X38528Y-56066D01*
X38528Y-56065D01*
X38488Y-55968D01*
X38384Y-55814D01*
X38310Y-55739D01*
X38309Y-55739D01*
X38156Y-55637D01*
X38156Y-55636D01*
X38069Y-55600D01*
X38069Y-54654D01*
X38134Y-54627D01*
X38280Y-54530D01*
X38354Y-54455D01*
X38355Y-54455D01*
X38400Y-54387D01*
X38400Y-54450D01*
X38422Y-54564D01*
X38487Y-54662D01*
X39200Y-55374D01*
X39200Y-55533D01*
X39191Y-55537D01*
X39038Y-55690D01*
X38954Y-55891D01*
X38954Y-56107D01*
X39037Y-56308D01*
X39190Y-56461D01*
X39391Y-56545D01*
X39607Y-56545D01*
X39808Y-56462D01*
X39961Y-56309D01*
X40045Y-56108D01*
X40045Y-56035D01*
X40102Y-56093D01*
X40360Y-56199D01*
X40638Y-56200D01*
X40896Y-56093D01*
X40914Y-56074D01*
X40914Y-56115D01*
X40920Y-56128D01*
X40920Y-56142D01*
X40989Y-56308D01*
X40995Y-56310D01*
X41003Y-56330D01*
X41168Y-56495D01*
X41189Y-56504D01*
X41191Y-56510D01*
X41287Y-56545D01*
X41383Y-56584D01*
X41396Y-56584D01*
X41409Y-56589D01*
X41512Y-56585D01*
X41615Y-56585D01*
X41628Y-56579D01*
X41642Y-56579D01*
X41808Y-56510D01*
X41810Y-56504D01*
X41830Y-56496D01*
X41995Y-56331D01*
X42004Y-56310D01*
X42006Y-56310D01*
X42012Y-56325D01*
X42173Y-56487D01*
X42243Y-56516D01*
X42243Y-56516D01*
G37*
G54D18*
X42243Y-56516D02*
X42191Y-56537D01*
X42038Y-56690D01*
X41954Y-56891D01*
X41954Y-57107D01*
X42037Y-57308D01*
X42059Y-57330D01*
X40940Y-57330D01*
X40961Y-57309D01*
X41045Y-57108D01*
X41045Y-56892D01*
X40962Y-56691D01*
X40809Y-56538D01*
X40608Y-56454D01*
X40392Y-56454D01*
X40191Y-56537D01*
X40038Y-56690D01*
X39954Y-56891D01*
X39954Y-57107D01*
X40037Y-57308D01*
X40059Y-57330D01*
X38775Y-57330D01*
X38683Y-57311D01*
X38625Y-57273D01*
X38588Y-57217D01*
X38569Y-57123D01*
X38569Y-56300D01*
X38564Y-56273D01*
X38564Y-56247D01*
X38528Y-56066D01*
X38528Y-56065D01*
X38488Y-55968D01*
X38384Y-55814D01*
X38310Y-55739D01*
X38309Y-55739D01*
X38156Y-55637D01*
X38156Y-55636D01*
X38069Y-55600D01*
X38069Y-54654D01*
X38134Y-54627D01*
X38280Y-54530D01*
X38354Y-54455D01*
X38355Y-54455D01*
X38400Y-54387D01*
X38400Y-54450D01*
X38422Y-54564D01*
X38487Y-54662D01*
X39200Y-55374D01*
X39200Y-55533D01*
X39191Y-55537D01*
X39038Y-55690D01*
X38954Y-55891D01*
X38954Y-56107D01*
X39037Y-56308D01*
X39190Y-56461D01*
X39391Y-56545D01*
X39607Y-56545D01*
X39808Y-56462D01*
X39961Y-56309D01*
X40045Y-56108D01*
X40045Y-56035D01*
X40102Y-56093D01*
X40360Y-56199D01*
X40638Y-56200D01*
X40896Y-56093D01*
X40914Y-56074D01*
X40914Y-56115D01*
X40920Y-56128D01*
X40920Y-56142D01*
X40989Y-56308D01*
X40995Y-56310D01*
X41003Y-56330D01*
X41168Y-56495D01*
X41189Y-56504D01*
X41191Y-56510D01*
X41287Y-56545D01*
X41383Y-56584D01*
X41396Y-56584D01*
X41409Y-56589D01*
X41512Y-56585D01*
X41615Y-56585D01*
X41628Y-56579D01*
X41642Y-56579D01*
X41808Y-56510D01*
X41810Y-56504D01*
X41830Y-56496D01*
X41995Y-56331D01*
X42004Y-56310D01*
X42006Y-56310D01*
X42012Y-56325D01*
X42173Y-56487D01*
X42243Y-56516D01*
G54D10*
G36*
X42299Y-45571D02*
X42299Y-45625D01*
X42272Y-45598D01*
X42299Y-45571D01*
X42299Y-45571D01*
G37*
G54D18*
X42299Y-45571D02*
X42299Y-45625D01*
X42272Y-45598D01*
X42299Y-45571D01*
G54D10*
G36*
X42750Y-52975D02*
X42700Y-53025D01*
X42615Y-53024D01*
X42459Y-53089D01*
X42339Y-53208D01*
X42290Y-53327D01*
X42087Y-53123D01*
X42080Y-53120D01*
X42079Y-53117D01*
X41892Y-53042D01*
X41876Y-53035D01*
X41912Y-53012D01*
X42359Y-52564D01*
X42385Y-52574D01*
X42613Y-52575D01*
X42750Y-52518D01*
X42750Y-52975D01*
X42750Y-52975D01*
G37*
G54D18*
X42750Y-52975D02*
X42700Y-53025D01*
X42615Y-53024D01*
X42459Y-53089D01*
X42339Y-53208D01*
X42290Y-53327D01*
X42087Y-53123D01*
X42080Y-53120D01*
X42079Y-53117D01*
X41892Y-53042D01*
X41876Y-53035D01*
X41912Y-53012D01*
X42359Y-52564D01*
X42385Y-52574D01*
X42613Y-52575D01*
X42750Y-52518D01*
X42750Y-52975D01*
G54D10*
G36*
X43191Y-53999D02*
X43171Y-54008D01*
X43008Y-54171D01*
X42920Y-54384D01*
X42919Y-54614D01*
X43008Y-54828D01*
X43129Y-54950D01*
X41915Y-54950D01*
X42079Y-54882D01*
X42080Y-54880D01*
X42085Y-54877D01*
X42376Y-54587D01*
X42379Y-54580D01*
X42382Y-54579D01*
X42457Y-54392D01*
X42534Y-54206D01*
X42534Y-54201D01*
X42536Y-54197D01*
X42535Y-53996D01*
X42535Y-53841D01*
X42615Y-53874D01*
X42784Y-53875D01*
X42940Y-53810D01*
X42983Y-53767D01*
X43008Y-53828D01*
X43171Y-53991D01*
X43191Y-53999D01*
X43191Y-53999D01*
G37*
G54D18*
X43191Y-53999D02*
X43171Y-54008D01*
X43008Y-54171D01*
X42920Y-54384D01*
X42919Y-54614D01*
X43008Y-54828D01*
X43129Y-54950D01*
X41915Y-54950D01*
X42079Y-54882D01*
X42080Y-54880D01*
X42085Y-54877D01*
X42376Y-54587D01*
X42379Y-54580D01*
X42382Y-54579D01*
X42457Y-54392D01*
X42534Y-54206D01*
X42534Y-54201D01*
X42536Y-54197D01*
X42535Y-53996D01*
X42535Y-53841D01*
X42615Y-53874D01*
X42784Y-53875D01*
X42940Y-53810D01*
X42983Y-53767D01*
X43008Y-53828D01*
X43171Y-53991D01*
X43191Y-53999D01*
G54D10*
G36*
X44064Y-46950D02*
X43301Y-46950D01*
X43241Y-46889D01*
X43084Y-46825D01*
X42915Y-46824D01*
X42759Y-46889D01*
X42639Y-47008D01*
X42575Y-47165D01*
X42574Y-47334D01*
X42639Y-47490D01*
X42758Y-47610D01*
X42915Y-47674D01*
X43084Y-47675D01*
X43240Y-47610D01*
X43301Y-47550D01*
X43459Y-47550D01*
X43406Y-47602D01*
X43300Y-47860D01*
X43299Y-48138D01*
X43406Y-48396D01*
X43602Y-48593D01*
X43700Y-48633D01*
X43700Y-50975D01*
X43545Y-51130D01*
X43545Y-50592D01*
X43462Y-50391D01*
X43309Y-50238D01*
X43217Y-50200D01*
X43308Y-50162D01*
X43461Y-50009D01*
X43545Y-49808D01*
X43545Y-49592D01*
X43462Y-49391D01*
X43309Y-49238D01*
X43108Y-49154D01*
X42892Y-49154D01*
X42691Y-49237D01*
X42538Y-49390D01*
X42454Y-49591D01*
X42454Y-49807D01*
X42537Y-50008D01*
X42690Y-50161D01*
X42782Y-50199D01*
X42691Y-50237D01*
X42538Y-50390D01*
X42454Y-50591D01*
X42454Y-50807D01*
X42537Y-51008D01*
X42690Y-51161D01*
X42891Y-51245D01*
X43107Y-51245D01*
X43308Y-51162D01*
X43461Y-51009D01*
X43545Y-50808D01*
X43545Y-50592D01*
X43545Y-51130D01*
X42991Y-51684D01*
X42987Y-51674D01*
X42826Y-51512D01*
X42614Y-51425D01*
X42386Y-51424D01*
X42174Y-51512D01*
X42012Y-51673D01*
X42006Y-51689D01*
X42004Y-51689D01*
X41996Y-51669D01*
X41831Y-51504D01*
X41810Y-51495D01*
X41808Y-51489D01*
X41712Y-51454D01*
X41662Y-51434D01*
X41809Y-51335D01*
X41810Y-51335D01*
X41884Y-51260D01*
X41988Y-51106D01*
X42028Y-51009D01*
X42028Y-51008D01*
X42064Y-50827D01*
X42064Y-50776D01*
X42069Y-50750D01*
X42069Y-48840D01*
X42190Y-48961D01*
X42391Y-49045D01*
X42607Y-49045D01*
X42808Y-48962D01*
X42961Y-48809D01*
X43045Y-48608D01*
X43045Y-48392D01*
X42962Y-48191D01*
X42809Y-48038D01*
X42608Y-47954D01*
X42392Y-47954D01*
X42191Y-48037D01*
X42038Y-48190D01*
X41954Y-48391D01*
X41954Y-48418D01*
X41884Y-48314D01*
X41810Y-48239D01*
X41809Y-48239D01*
X41656Y-48137D01*
X41656Y-48136D01*
X41569Y-48100D01*
X41569Y-47154D01*
X41634Y-47127D01*
X41780Y-47030D01*
X41854Y-46955D01*
X41855Y-46955D01*
X41951Y-46810D01*
X41952Y-46809D01*
X41992Y-46712D01*
X42027Y-46540D01*
X42027Y-46540D01*
X42027Y-46539D01*
X42027Y-46487D01*
X42027Y-46435D01*
X42027Y-46434D01*
X42027Y-46434D01*
X41992Y-46262D01*
X41952Y-46165D01*
X41951Y-46164D01*
X41874Y-46048D01*
X42437Y-46612D01*
X42437Y-46612D01*
X42535Y-46677D01*
X42649Y-46699D01*
X42650Y-46700D01*
X43300Y-46700D01*
X43300Y-46699D01*
X43414Y-46677D01*
X43414Y-46677D01*
X43512Y-46612D01*
X44059Y-46064D01*
X44042Y-46107D01*
X43965Y-46293D01*
X43965Y-46298D01*
X43963Y-46302D01*
X43964Y-46503D01*
X43964Y-46704D01*
X43966Y-46709D01*
X43966Y-46714D01*
X44064Y-46950D01*
X44064Y-46950D01*
G37*
G54D18*
X44064Y-46950D02*
X43301Y-46950D01*
X43241Y-46889D01*
X43084Y-46825D01*
X42915Y-46824D01*
X42759Y-46889D01*
X42639Y-47008D01*
X42575Y-47165D01*
X42574Y-47334D01*
X42639Y-47490D01*
X42758Y-47610D01*
X42915Y-47674D01*
X43084Y-47675D01*
X43240Y-47610D01*
X43301Y-47550D01*
X43459Y-47550D01*
X43406Y-47602D01*
X43300Y-47860D01*
X43299Y-48138D01*
X43406Y-48396D01*
X43602Y-48593D01*
X43700Y-48633D01*
X43700Y-50975D01*
X43545Y-51130D01*
X43545Y-50592D01*
X43462Y-50391D01*
X43309Y-50238D01*
X43217Y-50200D01*
X43308Y-50162D01*
X43461Y-50009D01*
X43545Y-49808D01*
X43545Y-49592D01*
X43462Y-49391D01*
X43309Y-49238D01*
X43108Y-49154D01*
X42892Y-49154D01*
X42691Y-49237D01*
X42538Y-49390D01*
X42454Y-49591D01*
X42454Y-49807D01*
X42537Y-50008D01*
X42690Y-50161D01*
X42782Y-50199D01*
X42691Y-50237D01*
X42538Y-50390D01*
X42454Y-50591D01*
X42454Y-50807D01*
X42537Y-51008D01*
X42690Y-51161D01*
X42891Y-51245D01*
X43107Y-51245D01*
X43308Y-51162D01*
X43461Y-51009D01*
X43545Y-50808D01*
X43545Y-50592D01*
X43545Y-51130D01*
X42991Y-51684D01*
X42987Y-51674D01*
X42826Y-51512D01*
X42614Y-51425D01*
X42386Y-51424D01*
X42174Y-51512D01*
X42012Y-51673D01*
X42006Y-51689D01*
X42004Y-51689D01*
X41996Y-51669D01*
X41831Y-51504D01*
X41810Y-51495D01*
X41808Y-51489D01*
X41712Y-51454D01*
X41662Y-51434D01*
X41809Y-51335D01*
X41810Y-51335D01*
X41884Y-51260D01*
X41988Y-51106D01*
X42028Y-51009D01*
X42028Y-51008D01*
X42064Y-50827D01*
X42064Y-50776D01*
X42069Y-50750D01*
X42069Y-48840D01*
X42190Y-48961D01*
X42391Y-49045D01*
X42607Y-49045D01*
X42808Y-48962D01*
X42961Y-48809D01*
X43045Y-48608D01*
X43045Y-48392D01*
X42962Y-48191D01*
X42809Y-48038D01*
X42608Y-47954D01*
X42392Y-47954D01*
X42191Y-48037D01*
X42038Y-48190D01*
X41954Y-48391D01*
X41954Y-48418D01*
X41884Y-48314D01*
X41810Y-48239D01*
X41809Y-48239D01*
X41656Y-48137D01*
X41656Y-48136D01*
X41569Y-48100D01*
X41569Y-47154D01*
X41634Y-47127D01*
X41780Y-47030D01*
X41854Y-46955D01*
X41855Y-46955D01*
X41951Y-46810D01*
X41952Y-46809D01*
X41992Y-46712D01*
X42027Y-46540D01*
X42027Y-46540D01*
X42027Y-46539D01*
X42027Y-46487D01*
X42027Y-46435D01*
X42027Y-46434D01*
X42027Y-46434D01*
X41992Y-46262D01*
X41952Y-46165D01*
X41951Y-46164D01*
X41874Y-46048D01*
X42437Y-46612D01*
X42437Y-46612D01*
X42535Y-46677D01*
X42649Y-46699D01*
X42650Y-46700D01*
X43300Y-46700D01*
X43300Y-46699D01*
X43414Y-46677D01*
X43414Y-46677D01*
X43512Y-46612D01*
X44059Y-46064D01*
X44042Y-46107D01*
X43965Y-46293D01*
X43965Y-46298D01*
X43963Y-46302D01*
X43964Y-46503D01*
X43964Y-46704D01*
X43966Y-46709D01*
X43966Y-46714D01*
X44064Y-46950D01*
G54D10*
G36*
X44584Y-45550D02*
X44566Y-45557D01*
X44574Y-45550D01*
X44584Y-45550D01*
X44584Y-45550D01*
G37*
G54D18*
X44584Y-45550D02*
X44566Y-45557D01*
X44574Y-45550D01*
X44584Y-45550D01*
G54D10*
G36*
X44622Y-44950D02*
X44450Y-44950D01*
X44335Y-44972D01*
X44237Y-45037D01*
X43699Y-45575D01*
X43700Y-45361D01*
X43593Y-45104D01*
X43397Y-44906D01*
X43139Y-44800D01*
X42965Y-44799D01*
X43045Y-44608D01*
X43045Y-44392D01*
X42962Y-44191D01*
X42809Y-44038D01*
X42765Y-44019D01*
X43734Y-44019D01*
X43691Y-44037D01*
X43538Y-44190D01*
X43454Y-44391D01*
X43454Y-44607D01*
X43537Y-44808D01*
X43690Y-44961D01*
X43891Y-45045D01*
X44107Y-45045D01*
X44308Y-44962D01*
X44461Y-44809D01*
X44475Y-44775D01*
X44489Y-44808D01*
X44495Y-44810D01*
X44503Y-44830D01*
X44622Y-44950D01*
X44622Y-44950D01*
G37*
G54D18*
X44622Y-44950D02*
X44450Y-44950D01*
X44335Y-44972D01*
X44237Y-45037D01*
X43699Y-45575D01*
X43700Y-45361D01*
X43593Y-45104D01*
X43397Y-44906D01*
X43139Y-44800D01*
X42965Y-44799D01*
X43045Y-44608D01*
X43045Y-44392D01*
X42962Y-44191D01*
X42809Y-44038D01*
X42765Y-44019D01*
X43734Y-44019D01*
X43691Y-44037D01*
X43538Y-44190D01*
X43454Y-44391D01*
X43454Y-44607D01*
X43537Y-44808D01*
X43690Y-44961D01*
X43891Y-45045D01*
X44107Y-45045D01*
X44308Y-44962D01*
X44461Y-44809D01*
X44475Y-44775D01*
X44489Y-44808D01*
X44495Y-44810D01*
X44503Y-44830D01*
X44622Y-44950D01*
G54D10*
G36*
X44653Y-44019D02*
X44504Y-44168D01*
X44495Y-44189D01*
X44489Y-44191D01*
X44476Y-44226D01*
X44462Y-44191D01*
X44309Y-44038D01*
X44265Y-44019D01*
X44653Y-44019D01*
X44653Y-44019D01*
G37*
G54D18*
X44653Y-44019D02*
X44504Y-44168D01*
X44495Y-44189D01*
X44489Y-44191D01*
X44476Y-44226D01*
X44462Y-44191D01*
X44309Y-44038D01*
X44265Y-44019D01*
X44653Y-44019D01*
G54D10*
G36*
X45636Y-44950D02*
X45377Y-44950D01*
X45495Y-44831D01*
X45504Y-44810D01*
X45506Y-44810D01*
X45512Y-44825D01*
X45636Y-44950D01*
X45636Y-44950D01*
G37*
G54D18*
X45636Y-44950D02*
X45377Y-44950D01*
X45495Y-44831D01*
X45504Y-44810D01*
X45506Y-44810D01*
X45512Y-44825D01*
X45636Y-44950D01*
G54D10*
G36*
X45667Y-44019D02*
X45512Y-44173D01*
X45506Y-44189D01*
X45504Y-44189D01*
X45496Y-44169D01*
X45347Y-44019D01*
X45667Y-44019D01*
X45667Y-44019D01*
G37*
G54D18*
X45667Y-44019D02*
X45512Y-44173D01*
X45506Y-44189D01*
X45504Y-44189D01*
X45496Y-44169D01*
X45347Y-44019D01*
X45667Y-44019D01*
G54D10*
G36*
X45704Y-48000D02*
X45674Y-48012D01*
X45512Y-48173D01*
X45506Y-48189D01*
X45504Y-48189D01*
X45496Y-48169D01*
X45331Y-48004D01*
X45321Y-48000D01*
X45704Y-48000D01*
X45704Y-48000D01*
G37*
G54D18*
X45704Y-48000D02*
X45674Y-48012D01*
X45512Y-48173D01*
X45506Y-48189D01*
X45504Y-48189D01*
X45496Y-48169D01*
X45331Y-48004D01*
X45321Y-48000D01*
X45704Y-48000D01*
G54D10*
G36*
X45800Y-53584D02*
X45637Y-53421D01*
X45386Y-53317D01*
X45114Y-53316D01*
X44863Y-53420D01*
X44700Y-53583D01*
X44700Y-53424D01*
X45212Y-52912D01*
X45212Y-52912D01*
X45277Y-52814D01*
X45299Y-52700D01*
X45300Y-52700D01*
X45322Y-52814D01*
X45387Y-52912D01*
X45800Y-53324D01*
X45800Y-53584D01*
X45800Y-53584D01*
G37*
G54D18*
X45800Y-53584D02*
X45637Y-53421D01*
X45386Y-53317D01*
X45114Y-53316D01*
X44863Y-53420D01*
X44700Y-53583D01*
X44700Y-53424D01*
X45212Y-52912D01*
X45212Y-52912D01*
X45277Y-52814D01*
X45299Y-52700D01*
X45300Y-52700D01*
X45322Y-52814D01*
X45387Y-52912D01*
X45800Y-53324D01*
X45800Y-53584D01*
G54D10*
G36*
X46342Y-52758D02*
X46300Y-52860D01*
X46300Y-52975D01*
X46149Y-52825D01*
X46184Y-52825D01*
X46340Y-52760D01*
X46342Y-52758D01*
X46342Y-52758D01*
G37*
G54D18*
X46342Y-52758D02*
X46300Y-52860D01*
X46300Y-52975D01*
X46149Y-52825D01*
X46184Y-52825D01*
X46340Y-52760D01*
X46342Y-52758D01*
G54D10*
G36*
X46474Y-44950D02*
X46363Y-44950D01*
X46474Y-44838D01*
X46474Y-44950D01*
X46474Y-44950D01*
G37*
G54D18*
X46474Y-44950D02*
X46363Y-44950D01*
X46474Y-44838D01*
X46474Y-44950D01*
G54D10*
G36*
X46691Y-46499D02*
X46671Y-46508D01*
X46508Y-46671D01*
X46420Y-46884D01*
X46419Y-47114D01*
X46508Y-47328D01*
X46579Y-47400D01*
X45536Y-47400D01*
X45579Y-47382D01*
X45580Y-47380D01*
X45585Y-47377D01*
X45876Y-47087D01*
X45879Y-47080D01*
X45882Y-47079D01*
X45957Y-46892D01*
X46034Y-46706D01*
X46034Y-46701D01*
X46036Y-46697D01*
X46035Y-46496D01*
X46035Y-46295D01*
X46033Y-46290D01*
X46033Y-46285D01*
X45882Y-45920D01*
X45880Y-45919D01*
X45877Y-45914D01*
X45587Y-45623D01*
X45580Y-45620D01*
X45579Y-45617D01*
X45411Y-45550D01*
X46629Y-45550D01*
X46508Y-45671D01*
X46420Y-45884D01*
X46419Y-46114D01*
X46508Y-46328D01*
X46671Y-46491D01*
X46691Y-46499D01*
X46691Y-46499D01*
G37*
G54D18*
X46691Y-46499D02*
X46671Y-46508D01*
X46508Y-46671D01*
X46420Y-46884D01*
X46419Y-47114D01*
X46508Y-47328D01*
X46579Y-47400D01*
X45536Y-47400D01*
X45579Y-47382D01*
X45580Y-47380D01*
X45585Y-47377D01*
X45876Y-47087D01*
X45879Y-47080D01*
X45882Y-47079D01*
X45957Y-46892D01*
X46034Y-46706D01*
X46034Y-46701D01*
X46036Y-46697D01*
X46035Y-46496D01*
X46035Y-46295D01*
X46033Y-46290D01*
X46033Y-46285D01*
X45882Y-45920D01*
X45880Y-45919D01*
X45877Y-45914D01*
X45587Y-45623D01*
X45580Y-45620D01*
X45579Y-45617D01*
X45411Y-45550D01*
X46629Y-45550D01*
X46508Y-45671D01*
X46420Y-45884D01*
X46419Y-46114D01*
X46508Y-46328D01*
X46671Y-46491D01*
X46691Y-46499D01*
G54D10*
G36*
X46782Y-50199D02*
X46691Y-50237D01*
X46538Y-50390D01*
X46500Y-50482D01*
X46500Y-49917D01*
X46537Y-50008D01*
X46690Y-50161D01*
X46782Y-50199D01*
X46782Y-50199D01*
G37*
G54D18*
X46782Y-50199D02*
X46691Y-50237D01*
X46538Y-50390D01*
X46500Y-50482D01*
X46500Y-49917D01*
X46537Y-50008D01*
X46690Y-50161D01*
X46782Y-50199D01*
G54D10*
G36*
X47500Y-47835D02*
X47445Y-47703D01*
X47297Y-47555D01*
X47236Y-47529D01*
X47328Y-47491D01*
X47491Y-47328D01*
X47500Y-47308D01*
X47500Y-47835D01*
X47500Y-47835D01*
G37*
G54D18*
X47500Y-47835D02*
X47445Y-47703D01*
X47297Y-47555D01*
X47236Y-47529D01*
X47328Y-47491D01*
X47491Y-47328D01*
X47500Y-47308D01*
X47500Y-47835D01*
G54D10*
G36*
X47700Y-56533D02*
X47691Y-56537D01*
X47538Y-56690D01*
X47454Y-56891D01*
X47454Y-57107D01*
X47537Y-57308D01*
X47559Y-57330D01*
X42940Y-57330D01*
X42961Y-57309D01*
X43045Y-57108D01*
X43045Y-56892D01*
X42962Y-56691D01*
X42809Y-56538D01*
X42756Y-56516D01*
X42825Y-56487D01*
X42987Y-56326D01*
X43074Y-56114D01*
X43075Y-55886D01*
X42987Y-55674D01*
X42863Y-55550D01*
X42974Y-55550D01*
X42974Y-55603D01*
X43054Y-55797D01*
X43202Y-55944D01*
X43395Y-56024D01*
X43603Y-56025D01*
X43797Y-55945D01*
X43944Y-55797D01*
X44024Y-55604D01*
X44025Y-55396D01*
X43945Y-55203D01*
X43797Y-55055D01*
X43736Y-55029D01*
X43828Y-54991D01*
X43991Y-54828D01*
X44079Y-54615D01*
X44080Y-54385D01*
X43991Y-54171D01*
X43828Y-54008D01*
X43808Y-54000D01*
X43828Y-53991D01*
X43991Y-53828D01*
X44079Y-53615D01*
X44080Y-53385D01*
X43991Y-53171D01*
X43839Y-53018D01*
X43916Y-52987D01*
X43986Y-52916D01*
X44024Y-52824D01*
X44025Y-52725D01*
X44025Y-52175D01*
X43987Y-52083D01*
X43916Y-52013D01*
X43824Y-51975D01*
X43725Y-51974D01*
X43549Y-51974D01*
X44212Y-51312D01*
X44212Y-51312D01*
X44277Y-51214D01*
X44299Y-51100D01*
X44300Y-51100D01*
X44300Y-48633D01*
X44396Y-48593D01*
X44414Y-48574D01*
X44414Y-48615D01*
X44420Y-48628D01*
X44420Y-48642D01*
X44489Y-48808D01*
X44495Y-48810D01*
X44503Y-48830D01*
X44668Y-48995D01*
X44689Y-49004D01*
X44691Y-49010D01*
X44787Y-49045D01*
X44883Y-49084D01*
X44896Y-49084D01*
X44909Y-49089D01*
X45012Y-49085D01*
X45115Y-49085D01*
X45128Y-49079D01*
X45142Y-49079D01*
X45308Y-49010D01*
X45310Y-49004D01*
X45330Y-48996D01*
X45495Y-48831D01*
X45504Y-48810D01*
X45506Y-48810D01*
X45512Y-48825D01*
X45673Y-48987D01*
X45885Y-49074D01*
X46113Y-49075D01*
X46325Y-48987D01*
X46487Y-48826D01*
X46574Y-48614D01*
X46575Y-48386D01*
X46487Y-48174D01*
X46326Y-48012D01*
X46295Y-48000D01*
X46475Y-48000D01*
X46474Y-48103D01*
X46554Y-48297D01*
X46702Y-48444D01*
X46863Y-48511D01*
X45987Y-49387D01*
X45922Y-49485D01*
X45900Y-49600D01*
X45900Y-50300D01*
X45877Y-50185D01*
X45812Y-50087D01*
X45812Y-50087D01*
X45541Y-49817D01*
X45545Y-49808D01*
X45545Y-49592D01*
X45462Y-49391D01*
X45309Y-49238D01*
X45108Y-49154D01*
X44892Y-49154D01*
X44691Y-49237D01*
X44538Y-49390D01*
X44454Y-49591D01*
X44454Y-49807D01*
X44537Y-50008D01*
X44690Y-50161D01*
X44782Y-50199D01*
X44691Y-50237D01*
X44538Y-50390D01*
X44454Y-50591D01*
X44454Y-50807D01*
X44537Y-51008D01*
X44690Y-51161D01*
X44700Y-51165D01*
X44700Y-52575D01*
X44187Y-53087D01*
X44122Y-53185D01*
X44100Y-53300D01*
X44100Y-56400D01*
X44122Y-56514D01*
X44162Y-56573D01*
X44154Y-56591D01*
X44154Y-56807D01*
X44237Y-57008D01*
X44390Y-57161D01*
X44591Y-57245D01*
X44807Y-57245D01*
X45008Y-57162D01*
X45161Y-57009D01*
X45245Y-56808D01*
X45245Y-56592D01*
X45162Y-56391D01*
X45009Y-56238D01*
X44808Y-56154D01*
X44700Y-56154D01*
X44700Y-54415D01*
X44862Y-54578D01*
X45113Y-54682D01*
X45385Y-54683D01*
X45636Y-54579D01*
X45800Y-54416D01*
X45800Y-56154D01*
X45692Y-56154D01*
X45491Y-56237D01*
X45338Y-56390D01*
X45254Y-56591D01*
X45254Y-56807D01*
X45337Y-57008D01*
X45490Y-57161D01*
X45691Y-57245D01*
X45907Y-57245D01*
X46108Y-57162D01*
X46261Y-57009D01*
X46345Y-56808D01*
X46345Y-56592D01*
X46337Y-56573D01*
X46377Y-56514D01*
X46399Y-56400D01*
X46400Y-56400D01*
X46400Y-53380D01*
X46406Y-53396D01*
X46602Y-53593D01*
X46860Y-53699D01*
X47138Y-53700D01*
X47396Y-53593D01*
X47550Y-53440D01*
X47550Y-54350D01*
X47572Y-54464D01*
X47637Y-54562D01*
X47700Y-54624D01*
X47700Y-54866D01*
X47604Y-54906D01*
X47406Y-55102D01*
X47300Y-55360D01*
X47299Y-55638D01*
X47406Y-55896D01*
X47602Y-56093D01*
X47700Y-56133D01*
X47700Y-56533D01*
X47700Y-56533D01*
G37*
G54D18*
X47700Y-56533D02*
X47691Y-56537D01*
X47538Y-56690D01*
X47454Y-56891D01*
X47454Y-57107D01*
X47537Y-57308D01*
X47559Y-57330D01*
X42940Y-57330D01*
X42961Y-57309D01*
X43045Y-57108D01*
X43045Y-56892D01*
X42962Y-56691D01*
X42809Y-56538D01*
X42756Y-56516D01*
X42825Y-56487D01*
X42987Y-56326D01*
X43074Y-56114D01*
X43075Y-55886D01*
X42987Y-55674D01*
X42863Y-55550D01*
X42974Y-55550D01*
X42974Y-55603D01*
X43054Y-55797D01*
X43202Y-55944D01*
X43395Y-56024D01*
X43603Y-56025D01*
X43797Y-55945D01*
X43944Y-55797D01*
X44024Y-55604D01*
X44025Y-55396D01*
X43945Y-55203D01*
X43797Y-55055D01*
X43736Y-55029D01*
X43828Y-54991D01*
X43991Y-54828D01*
X44079Y-54615D01*
X44080Y-54385D01*
X43991Y-54171D01*
X43828Y-54008D01*
X43808Y-54000D01*
X43828Y-53991D01*
X43991Y-53828D01*
X44079Y-53615D01*
X44080Y-53385D01*
X43991Y-53171D01*
X43839Y-53018D01*
X43916Y-52987D01*
X43986Y-52916D01*
X44024Y-52824D01*
X44025Y-52725D01*
X44025Y-52175D01*
X43987Y-52083D01*
X43916Y-52013D01*
X43824Y-51975D01*
X43725Y-51974D01*
X43549Y-51974D01*
X44212Y-51312D01*
X44212Y-51312D01*
X44277Y-51214D01*
X44299Y-51100D01*
X44300Y-51100D01*
X44300Y-48633D01*
X44396Y-48593D01*
X44414Y-48574D01*
X44414Y-48615D01*
X44420Y-48628D01*
X44420Y-48642D01*
X44489Y-48808D01*
X44495Y-48810D01*
X44503Y-48830D01*
X44668Y-48995D01*
X44689Y-49004D01*
X44691Y-49010D01*
X44787Y-49045D01*
X44883Y-49084D01*
X44896Y-49084D01*
X44909Y-49089D01*
X45012Y-49085D01*
X45115Y-49085D01*
X45128Y-49079D01*
X45142Y-49079D01*
X45308Y-49010D01*
X45310Y-49004D01*
X45330Y-48996D01*
X45495Y-48831D01*
X45504Y-48810D01*
X45506Y-48810D01*
X45512Y-48825D01*
X45673Y-48987D01*
X45885Y-49074D01*
X46113Y-49075D01*
X46325Y-48987D01*
X46487Y-48826D01*
X46574Y-48614D01*
X46575Y-48386D01*
X46487Y-48174D01*
X46326Y-48012D01*
X46295Y-48000D01*
X46475Y-48000D01*
X46474Y-48103D01*
X46554Y-48297D01*
X46702Y-48444D01*
X46863Y-48511D01*
X45987Y-49387D01*
X45922Y-49485D01*
X45900Y-49600D01*
X45900Y-50300D01*
X45877Y-50185D01*
X45812Y-50087D01*
X45812Y-50087D01*
X45541Y-49817D01*
X45545Y-49808D01*
X45545Y-49592D01*
X45462Y-49391D01*
X45309Y-49238D01*
X45108Y-49154D01*
X44892Y-49154D01*
X44691Y-49237D01*
X44538Y-49390D01*
X44454Y-49591D01*
X44454Y-49807D01*
X44537Y-50008D01*
X44690Y-50161D01*
X44782Y-50199D01*
X44691Y-50237D01*
X44538Y-50390D01*
X44454Y-50591D01*
X44454Y-50807D01*
X44537Y-51008D01*
X44690Y-51161D01*
X44700Y-51165D01*
X44700Y-52575D01*
X44187Y-53087D01*
X44122Y-53185D01*
X44100Y-53300D01*
X44100Y-56400D01*
X44122Y-56514D01*
X44162Y-56573D01*
X44154Y-56591D01*
X44154Y-56807D01*
X44237Y-57008D01*
X44390Y-57161D01*
X44591Y-57245D01*
X44807Y-57245D01*
X45008Y-57162D01*
X45161Y-57009D01*
X45245Y-56808D01*
X45245Y-56592D01*
X45162Y-56391D01*
X45009Y-56238D01*
X44808Y-56154D01*
X44700Y-56154D01*
X44700Y-54415D01*
X44862Y-54578D01*
X45113Y-54682D01*
X45385Y-54683D01*
X45636Y-54579D01*
X45800Y-54416D01*
X45800Y-56154D01*
X45692Y-56154D01*
X45491Y-56237D01*
X45338Y-56390D01*
X45254Y-56591D01*
X45254Y-56807D01*
X45337Y-57008D01*
X45490Y-57161D01*
X45691Y-57245D01*
X45907Y-57245D01*
X46108Y-57162D01*
X46261Y-57009D01*
X46345Y-56808D01*
X46345Y-56592D01*
X46337Y-56573D01*
X46377Y-56514D01*
X46399Y-56400D01*
X46400Y-56400D01*
X46400Y-53380D01*
X46406Y-53396D01*
X46602Y-53593D01*
X46860Y-53699D01*
X47138Y-53700D01*
X47396Y-53593D01*
X47550Y-53440D01*
X47550Y-54350D01*
X47572Y-54464D01*
X47637Y-54562D01*
X47700Y-54624D01*
X47700Y-54866D01*
X47604Y-54906D01*
X47406Y-55102D01*
X47300Y-55360D01*
X47299Y-55638D01*
X47406Y-55896D01*
X47602Y-56093D01*
X47700Y-56133D01*
X47700Y-56533D01*
G54D10*
G36*
X47734Y-44019D02*
X47691Y-44037D01*
X47538Y-44190D01*
X47454Y-44391D01*
X47454Y-44551D01*
X47416Y-44513D01*
X47324Y-44475D01*
X47225Y-44474D01*
X46675Y-44474D01*
X46583Y-44512D01*
X46574Y-44521D01*
X46575Y-44386D01*
X46487Y-44174D01*
X46332Y-44019D01*
X47734Y-44019D01*
X47734Y-44019D01*
G37*
G54D18*
X47734Y-44019D02*
X47691Y-44037D01*
X47538Y-44190D01*
X47454Y-44391D01*
X47454Y-44551D01*
X47416Y-44513D01*
X47324Y-44475D01*
X47225Y-44474D01*
X46675Y-44474D01*
X46583Y-44512D01*
X46574Y-44521D01*
X46575Y-44386D01*
X46487Y-44174D01*
X46332Y-44019D01*
X47734Y-44019D01*
G54D10*
G36*
X48638Y-53027D02*
X48420Y-53117D01*
X48419Y-53119D01*
X48414Y-53122D01*
X48150Y-53386D01*
X48150Y-52574D01*
X48537Y-52962D01*
X48635Y-53027D01*
X48638Y-53027D01*
X48638Y-53027D01*
G37*
G54D18*
X48638Y-53027D02*
X48420Y-53117D01*
X48419Y-53119D01*
X48414Y-53122D01*
X48150Y-53386D01*
X48150Y-52574D01*
X48537Y-52962D01*
X48635Y-53027D01*
X48638Y-53027D01*
G54D10*
G36*
X48734Y-44019D02*
X48691Y-44037D01*
X48538Y-44190D01*
X48500Y-44282D01*
X48462Y-44191D01*
X48309Y-44038D01*
X48265Y-44019D01*
X48734Y-44019D01*
X48734Y-44019D01*
G37*
G54D18*
X48734Y-44019D02*
X48691Y-44037D01*
X48538Y-44190D01*
X48500Y-44282D01*
X48462Y-44191D01*
X48309Y-44038D01*
X48265Y-44019D01*
X48734Y-44019D01*
G54D10*
G36*
X49400Y-46284D02*
X49329Y-46113D01*
X49137Y-45921D01*
X48886Y-45817D01*
X48614Y-45816D01*
X48363Y-45920D01*
X48171Y-46112D01*
X48067Y-46363D01*
X48066Y-46635D01*
X48170Y-46886D01*
X48362Y-47078D01*
X48613Y-47182D01*
X48885Y-47183D01*
X49068Y-47107D01*
X48537Y-47637D01*
X48472Y-47735D01*
X48450Y-47850D01*
X48450Y-48975D01*
X47637Y-49787D01*
X47572Y-49885D01*
X47550Y-50000D01*
X47550Y-52560D01*
X47397Y-52406D01*
X47139Y-52300D01*
X46861Y-52299D01*
X46604Y-52406D01*
X46524Y-52485D01*
X46524Y-52484D01*
X46525Y-52315D01*
X46500Y-52255D01*
X46500Y-50917D01*
X46537Y-51008D01*
X46690Y-51161D01*
X46891Y-51245D01*
X47107Y-51245D01*
X47308Y-51162D01*
X47461Y-51009D01*
X47545Y-50808D01*
X47545Y-50592D01*
X47462Y-50391D01*
X47309Y-50238D01*
X47217Y-50200D01*
X47308Y-50162D01*
X47461Y-50009D01*
X47545Y-49808D01*
X47545Y-49592D01*
X47462Y-49391D01*
X47309Y-49238D01*
X47108Y-49154D01*
X47069Y-49154D01*
X48012Y-48212D01*
X48012Y-48212D01*
X48077Y-48114D01*
X48099Y-48000D01*
X48100Y-48000D01*
X48100Y-46800D01*
X48099Y-46799D01*
X48077Y-46685D01*
X48012Y-46587D01*
X48012Y-46587D01*
X47568Y-46143D01*
X47579Y-46115D01*
X47580Y-45885D01*
X47491Y-45671D01*
X47339Y-45518D01*
X47416Y-45487D01*
X47486Y-45416D01*
X47524Y-45324D01*
X47525Y-45225D01*
X47525Y-44778D01*
X47537Y-44808D01*
X47690Y-44961D01*
X47891Y-45045D01*
X48107Y-45045D01*
X48308Y-44962D01*
X48461Y-44809D01*
X48499Y-44717D01*
X48537Y-44808D01*
X48690Y-44961D01*
X48891Y-45045D01*
X49107Y-45045D01*
X49117Y-45041D01*
X49400Y-45324D01*
X49400Y-46284D01*
X49400Y-46284D01*
G37*
G54D18*
X49400Y-46284D02*
X49329Y-46113D01*
X49137Y-45921D01*
X48886Y-45817D01*
X48614Y-45816D01*
X48363Y-45920D01*
X48171Y-46112D01*
X48067Y-46363D01*
X48066Y-46635D01*
X48170Y-46886D01*
X48362Y-47078D01*
X48613Y-47182D01*
X48885Y-47183D01*
X49068Y-47107D01*
X48537Y-47637D01*
X48472Y-47735D01*
X48450Y-47850D01*
X48450Y-48975D01*
X47637Y-49787D01*
X47572Y-49885D01*
X47550Y-50000D01*
X47550Y-52560D01*
X47397Y-52406D01*
X47139Y-52300D01*
X46861Y-52299D01*
X46604Y-52406D01*
X46524Y-52485D01*
X46524Y-52484D01*
X46525Y-52315D01*
X46500Y-52255D01*
X46500Y-50917D01*
X46537Y-51008D01*
X46690Y-51161D01*
X46891Y-51245D01*
X47107Y-51245D01*
X47308Y-51162D01*
X47461Y-51009D01*
X47545Y-50808D01*
X47545Y-50592D01*
X47462Y-50391D01*
X47309Y-50238D01*
X47217Y-50200D01*
X47308Y-50162D01*
X47461Y-50009D01*
X47545Y-49808D01*
X47545Y-49592D01*
X47462Y-49391D01*
X47309Y-49238D01*
X47108Y-49154D01*
X47069Y-49154D01*
X48012Y-48212D01*
X48012Y-48212D01*
X48077Y-48114D01*
X48099Y-48000D01*
X48100Y-48000D01*
X48100Y-46800D01*
X48099Y-46799D01*
X48077Y-46685D01*
X48012Y-46587D01*
X48012Y-46587D01*
X47568Y-46143D01*
X47579Y-46115D01*
X47580Y-45885D01*
X47491Y-45671D01*
X47339Y-45518D01*
X47416Y-45487D01*
X47486Y-45416D01*
X47524Y-45324D01*
X47525Y-45225D01*
X47525Y-44778D01*
X47537Y-44808D01*
X47690Y-44961D01*
X47891Y-45045D01*
X48107Y-45045D01*
X48308Y-44962D01*
X48461Y-44809D01*
X48499Y-44717D01*
X48537Y-44808D01*
X48690Y-44961D01*
X48891Y-45045D01*
X49107Y-45045D01*
X49117Y-45041D01*
X49400Y-45324D01*
X49400Y-46284D01*
G54D10*
G36*
X49400Y-46775D02*
X49357Y-46818D01*
X49400Y-46715D01*
X49400Y-46775D01*
X49400Y-46775D01*
G37*
G54D18*
X49400Y-46775D02*
X49357Y-46818D01*
X49400Y-46715D01*
X49400Y-46775D01*
G54D10*
G36*
X49743Y-56516D02*
X49691Y-56537D01*
X49538Y-56690D01*
X49454Y-56891D01*
X49454Y-57107D01*
X49537Y-57308D01*
X49559Y-57330D01*
X48440Y-57330D01*
X48461Y-57309D01*
X48545Y-57108D01*
X48545Y-56892D01*
X48462Y-56691D01*
X48309Y-56538D01*
X48300Y-56534D01*
X48300Y-56133D01*
X48396Y-56093D01*
X48414Y-56074D01*
X48414Y-56115D01*
X48420Y-56128D01*
X48420Y-56142D01*
X48489Y-56308D01*
X48495Y-56310D01*
X48503Y-56330D01*
X48668Y-56495D01*
X48689Y-56504D01*
X48691Y-56510D01*
X48787Y-56545D01*
X48883Y-56584D01*
X48896Y-56584D01*
X48909Y-56589D01*
X49012Y-56585D01*
X49115Y-56585D01*
X49128Y-56579D01*
X49142Y-56579D01*
X49308Y-56510D01*
X49310Y-56504D01*
X49330Y-56496D01*
X49495Y-56331D01*
X49504Y-56310D01*
X49506Y-56310D01*
X49512Y-56325D01*
X49673Y-56487D01*
X49743Y-56516D01*
X49743Y-56516D01*
G37*
G54D18*
X49743Y-56516D02*
X49691Y-56537D01*
X49538Y-56690D01*
X49454Y-56891D01*
X49454Y-57107D01*
X49537Y-57308D01*
X49559Y-57330D01*
X48440Y-57330D01*
X48461Y-57309D01*
X48545Y-57108D01*
X48545Y-56892D01*
X48462Y-56691D01*
X48309Y-56538D01*
X48300Y-56534D01*
X48300Y-56133D01*
X48396Y-56093D01*
X48414Y-56074D01*
X48414Y-56115D01*
X48420Y-56128D01*
X48420Y-56142D01*
X48489Y-56308D01*
X48495Y-56310D01*
X48503Y-56330D01*
X48668Y-56495D01*
X48689Y-56504D01*
X48691Y-56510D01*
X48787Y-56545D01*
X48883Y-56584D01*
X48896Y-56584D01*
X48909Y-56589D01*
X49012Y-56585D01*
X49115Y-56585D01*
X49128Y-56579D01*
X49142Y-56579D01*
X49308Y-56510D01*
X49310Y-56504D01*
X49330Y-56496D01*
X49495Y-56331D01*
X49504Y-56310D01*
X49506Y-56310D01*
X49512Y-56325D01*
X49673Y-56487D01*
X49743Y-56516D01*
G54D10*
G36*
X49931Y-47143D02*
X49337Y-47737D01*
X49272Y-47835D01*
X49250Y-47950D01*
X49250Y-49075D01*
X48150Y-50175D01*
X48150Y-50124D01*
X48962Y-49312D01*
X48962Y-49312D01*
X49027Y-49214D01*
X49049Y-49100D01*
X49050Y-49100D01*
X49050Y-47974D01*
X49912Y-47112D01*
X49912Y-47112D01*
X49919Y-47100D01*
X49919Y-47114D01*
X49931Y-47143D01*
X49931Y-47143D01*
G37*
G54D18*
X49931Y-47143D02*
X49337Y-47737D01*
X49272Y-47835D01*
X49250Y-47950D01*
X49250Y-49075D01*
X48150Y-50175D01*
X48150Y-50124D01*
X48962Y-49312D01*
X48962Y-49312D01*
X49027Y-49214D01*
X49049Y-49100D01*
X49050Y-49100D01*
X49050Y-47974D01*
X49912Y-47112D01*
X49912Y-47112D01*
X49919Y-47100D01*
X49919Y-47114D01*
X49931Y-47143D01*
G54D10*
G36*
X50014Y-44800D02*
X49975Y-44895D01*
X49974Y-45081D01*
X49912Y-44987D01*
X49912Y-44987D01*
X49724Y-44800D01*
X50014Y-44800D01*
X50014Y-44800D01*
G37*
G54D18*
X50014Y-44800D02*
X49975Y-44895D01*
X49974Y-45081D01*
X49912Y-44987D01*
X49912Y-44987D01*
X49724Y-44800D01*
X50014Y-44800D01*
G54D10*
G36*
X50191Y-46499D02*
X50171Y-46508D01*
X50008Y-46671D01*
X50000Y-46691D01*
X50000Y-46308D01*
X50008Y-46328D01*
X50171Y-46491D01*
X50191Y-46499D01*
X50191Y-46499D01*
G37*
G54D18*
X50191Y-46499D02*
X50171Y-46508D01*
X50008Y-46671D01*
X50000Y-46691D01*
X50000Y-46308D01*
X50008Y-46328D01*
X50171Y-46491D01*
X50191Y-46499D01*
G54D10*
G36*
X50263Y-45470D02*
X50171Y-45508D01*
X50008Y-45671D01*
X50000Y-45691D01*
X50000Y-45200D01*
X49999Y-45199D01*
X49986Y-45131D01*
X50054Y-45297D01*
X50202Y-45444D01*
X50263Y-45470D01*
X50263Y-45470D01*
G37*
G54D18*
X50263Y-45470D02*
X50171Y-45508D01*
X50008Y-45671D01*
X50000Y-45691D01*
X50000Y-45200D01*
X49999Y-45199D01*
X49986Y-45131D01*
X50054Y-45297D01*
X50202Y-45444D01*
X50263Y-45470D01*
G54D10*
G36*
X50660Y-53019D02*
X50508Y-53171D01*
X50496Y-53200D01*
X50324Y-53200D01*
X49662Y-52537D01*
X49564Y-52472D01*
X49450Y-52450D01*
X49377Y-52450D01*
X49495Y-52331D01*
X49504Y-52310D01*
X49506Y-52310D01*
X49512Y-52325D01*
X49673Y-52487D01*
X49885Y-52574D01*
X50113Y-52575D01*
X50325Y-52487D01*
X50474Y-52338D01*
X50474Y-52824D01*
X50512Y-52916D01*
X50583Y-52986D01*
X50660Y-53019D01*
X50660Y-53019D01*
G37*
G54D18*
X50660Y-53019D02*
X50508Y-53171D01*
X50496Y-53200D01*
X50324Y-53200D01*
X49662Y-52537D01*
X49564Y-52472D01*
X49450Y-52450D01*
X49377Y-52450D01*
X49495Y-52331D01*
X49504Y-52310D01*
X49506Y-52310D01*
X49512Y-52325D01*
X49673Y-52487D01*
X49885Y-52574D01*
X50113Y-52575D01*
X50325Y-52487D01*
X50474Y-52338D01*
X50474Y-52824D01*
X50512Y-52916D01*
X50583Y-52986D01*
X50660Y-53019D01*
G54D10*
G36*
X50691Y-53999D02*
X50671Y-54008D01*
X50508Y-54171D01*
X50420Y-54384D01*
X50419Y-54614D01*
X50431Y-54643D01*
X49787Y-55287D01*
X49722Y-55385D01*
X49700Y-55500D01*
X49700Y-55501D01*
X49674Y-55512D01*
X49512Y-55673D01*
X49506Y-55689D01*
X49504Y-55689D01*
X49496Y-55669D01*
X49331Y-55504D01*
X49310Y-55495D01*
X49308Y-55489D01*
X49212Y-55454D01*
X49116Y-55415D01*
X49103Y-55415D01*
X49090Y-55410D01*
X48987Y-55414D01*
X48884Y-55414D01*
X48871Y-55420D01*
X48857Y-55420D01*
X48700Y-55486D01*
X48700Y-55361D01*
X48593Y-55104D01*
X48397Y-54906D01*
X48300Y-54866D01*
X48300Y-54763D01*
X48412Y-54876D01*
X48419Y-54879D01*
X48420Y-54882D01*
X48607Y-54957D01*
X48793Y-55034D01*
X48798Y-55034D01*
X48802Y-55036D01*
X49003Y-55035D01*
X49204Y-55035D01*
X49209Y-55033D01*
X49214Y-55033D01*
X49579Y-54882D01*
X49580Y-54880D01*
X49585Y-54877D01*
X49876Y-54587D01*
X49879Y-54580D01*
X49882Y-54579D01*
X49957Y-54392D01*
X50034Y-54206D01*
X50034Y-54201D01*
X50036Y-54197D01*
X50035Y-53996D01*
X50035Y-53795D01*
X50033Y-53790D01*
X50033Y-53785D01*
X50008Y-53725D01*
X50085Y-53777D01*
X50199Y-53799D01*
X50200Y-53800D01*
X50496Y-53800D01*
X50508Y-53828D01*
X50671Y-53991D01*
X50691Y-53999D01*
X50691Y-53999D01*
G37*
G54D18*
X50691Y-53999D02*
X50671Y-54008D01*
X50508Y-54171D01*
X50420Y-54384D01*
X50419Y-54614D01*
X50431Y-54643D01*
X49787Y-55287D01*
X49722Y-55385D01*
X49700Y-55500D01*
X49700Y-55501D01*
X49674Y-55512D01*
X49512Y-55673D01*
X49506Y-55689D01*
X49504Y-55689D01*
X49496Y-55669D01*
X49331Y-55504D01*
X49310Y-55495D01*
X49308Y-55489D01*
X49212Y-55454D01*
X49116Y-55415D01*
X49103Y-55415D01*
X49090Y-55410D01*
X48987Y-55414D01*
X48884Y-55414D01*
X48871Y-55420D01*
X48857Y-55420D01*
X48700Y-55486D01*
X48700Y-55361D01*
X48593Y-55104D01*
X48397Y-54906D01*
X48300Y-54866D01*
X48300Y-54763D01*
X48412Y-54876D01*
X48419Y-54879D01*
X48420Y-54882D01*
X48607Y-54957D01*
X48793Y-55034D01*
X48798Y-55034D01*
X48802Y-55036D01*
X49003Y-55035D01*
X49204Y-55035D01*
X49209Y-55033D01*
X49214Y-55033D01*
X49579Y-54882D01*
X49580Y-54880D01*
X49585Y-54877D01*
X49876Y-54587D01*
X49879Y-54580D01*
X49882Y-54579D01*
X49957Y-54392D01*
X50034Y-54206D01*
X50034Y-54201D01*
X50036Y-54197D01*
X50035Y-53996D01*
X50035Y-53795D01*
X50033Y-53790D01*
X50033Y-53785D01*
X50008Y-53725D01*
X50085Y-53777D01*
X50199Y-53799D01*
X50200Y-53800D01*
X50496Y-53800D01*
X50508Y-53828D01*
X50671Y-53991D01*
X50691Y-53999D01*
G54D10*
G36*
X51000Y-46691D02*
X50991Y-46671D01*
X50828Y-46508D01*
X50808Y-46500D01*
X50828Y-46491D01*
X50991Y-46328D01*
X51000Y-46308D01*
X51000Y-46691D01*
X51000Y-46691D01*
G37*
G54D18*
X51000Y-46691D02*
X50991Y-46671D01*
X50828Y-46508D01*
X50808Y-46500D01*
X50828Y-46491D01*
X50991Y-46328D01*
X51000Y-46308D01*
X51000Y-46691D01*
G54D10*
G36*
X51167Y-44019D02*
X51012Y-44173D01*
X50949Y-44325D01*
X50912Y-44287D01*
X50814Y-44222D01*
X50700Y-44200D01*
X49466Y-44200D01*
X49462Y-44191D01*
X49309Y-44038D01*
X49265Y-44019D01*
X51167Y-44019D01*
X51167Y-44019D01*
G37*
G54D18*
X51167Y-44019D02*
X51012Y-44173D01*
X50949Y-44325D01*
X50912Y-44287D01*
X50814Y-44222D01*
X50700Y-44200D01*
X49466Y-44200D01*
X49462Y-44191D01*
X49309Y-44038D01*
X49265Y-44019D01*
X51167Y-44019D01*
G54D10*
G36*
X51607Y-47925D02*
X51386Y-47924D01*
X51174Y-48012D01*
X51025Y-48161D01*
X51025Y-47675D01*
X50987Y-47583D01*
X50916Y-47513D01*
X50839Y-47480D01*
X50991Y-47328D01*
X51014Y-47273D01*
X51022Y-47314D01*
X51087Y-47412D01*
X51587Y-47912D01*
X51587Y-47912D01*
X51607Y-47925D01*
X51607Y-47925D01*
G37*
G54D18*
X51607Y-47925D02*
X51386Y-47924D01*
X51174Y-48012D01*
X51025Y-48161D01*
X51025Y-47675D01*
X50987Y-47583D01*
X50916Y-47513D01*
X50839Y-47480D01*
X50991Y-47328D01*
X51014Y-47273D01*
X51022Y-47314D01*
X51087Y-47412D01*
X51587Y-47912D01*
X51587Y-47912D01*
X51607Y-47925D01*
G54D10*
G36*
X51650Y-52898D02*
X51589Y-52958D01*
X51525Y-53115D01*
X51524Y-53251D01*
X51491Y-53171D01*
X51339Y-53018D01*
X51416Y-52987D01*
X51486Y-52916D01*
X51524Y-52824D01*
X51525Y-52725D01*
X51525Y-52175D01*
X51487Y-52083D01*
X51416Y-52013D01*
X51324Y-51975D01*
X51225Y-51974D01*
X50675Y-51974D01*
X50583Y-52012D01*
X50574Y-52021D01*
X50575Y-51886D01*
X50564Y-51859D01*
X50624Y-51800D01*
X51275Y-51800D01*
X51650Y-52174D01*
X51650Y-52898D01*
X51650Y-52898D01*
G37*
G54D18*
X51650Y-52898D02*
X51589Y-52958D01*
X51525Y-53115D01*
X51524Y-53251D01*
X51491Y-53171D01*
X51339Y-53018D01*
X51416Y-52987D01*
X51486Y-52916D01*
X51524Y-52824D01*
X51525Y-52725D01*
X51525Y-52175D01*
X51487Y-52083D01*
X51416Y-52013D01*
X51324Y-51975D01*
X51225Y-51974D01*
X50675Y-51974D01*
X50583Y-52012D01*
X50574Y-52021D01*
X50575Y-51886D01*
X50564Y-51859D01*
X50624Y-51800D01*
X51275Y-51800D01*
X51650Y-52174D01*
X51650Y-52898D01*
G54D10*
G36*
X51964Y-47400D02*
X51924Y-47400D01*
X51600Y-47075D01*
X51600Y-47036D01*
X51617Y-47079D01*
X51619Y-47080D01*
X51622Y-47085D01*
X51912Y-47376D01*
X51919Y-47379D01*
X51920Y-47382D01*
X51964Y-47400D01*
X51964Y-47400D01*
G37*
G54D18*
X51964Y-47400D02*
X51924Y-47400D01*
X51600Y-47075D01*
X51600Y-47036D01*
X51617Y-47079D01*
X51619Y-47080D01*
X51622Y-47085D01*
X51912Y-47376D01*
X51919Y-47379D01*
X51920Y-47382D01*
X51964Y-47400D01*
G54D10*
G36*
X52084Y-45550D02*
X51920Y-45617D01*
X51919Y-45619D01*
X51914Y-45622D01*
X51623Y-45912D01*
X51620Y-45919D01*
X51617Y-45920D01*
X51600Y-45964D01*
X51600Y-45800D01*
X51599Y-45799D01*
X51577Y-45685D01*
X51512Y-45587D01*
X51512Y-45587D01*
X51474Y-45550D01*
X52084Y-45550D01*
X52084Y-45550D01*
G37*
G54D18*
X52084Y-45550D02*
X51920Y-45617D01*
X51919Y-45619D01*
X51914Y-45622D01*
X51623Y-45912D01*
X51620Y-45919D01*
X51617Y-45920D01*
X51600Y-45964D01*
X51600Y-45800D01*
X51599Y-45799D01*
X51577Y-45685D01*
X51512Y-45587D01*
X51512Y-45587D01*
X51474Y-45550D01*
X52084Y-45550D01*
G54D10*
G36*
X52122Y-44950D02*
X51863Y-44950D01*
X51987Y-44826D01*
X51993Y-44810D01*
X51995Y-44810D01*
X52003Y-44830D01*
X52122Y-44950D01*
X52122Y-44950D01*
G37*
G54D18*
X52122Y-44950D02*
X51863Y-44950D01*
X51987Y-44826D01*
X51993Y-44810D01*
X51995Y-44810D01*
X52003Y-44830D01*
X52122Y-44950D01*
G54D10*
G36*
X52153Y-44019D02*
X52004Y-44168D01*
X51995Y-44189D01*
X51993Y-44189D01*
X51987Y-44174D01*
X51832Y-44019D01*
X52153Y-44019D01*
X52153Y-44019D01*
G37*
G54D18*
X52153Y-44019D02*
X52004Y-44168D01*
X51995Y-44189D01*
X51993Y-44189D01*
X51987Y-44174D01*
X51832Y-44019D01*
X52153Y-44019D01*
G54D10*
G36*
X52178Y-48000D02*
X52169Y-48003D01*
X52004Y-48168D01*
X51995Y-48189D01*
X51993Y-48189D01*
X51987Y-48174D01*
X51826Y-48012D01*
X51790Y-47998D01*
X51800Y-48000D01*
X52178Y-48000D01*
X52178Y-48000D01*
G37*
G54D18*
X52178Y-48000D02*
X52169Y-48003D01*
X52004Y-48168D01*
X51995Y-48189D01*
X51993Y-48189D01*
X51987Y-48174D01*
X51826Y-48012D01*
X51790Y-47998D01*
X51800Y-48000D01*
X52178Y-48000D01*
G54D10*
G36*
X53659Y-57330D02*
X53340Y-57330D01*
X53461Y-57209D01*
X53499Y-57117D01*
X53537Y-57208D01*
X53659Y-57330D01*
X53659Y-57330D01*
G37*
G54D18*
X53659Y-57330D02*
X53340Y-57330D01*
X53461Y-57209D01*
X53499Y-57117D01*
X53537Y-57208D01*
X53659Y-57330D01*
G54D10*
G36*
X54263Y-52970D02*
X54171Y-53008D01*
X54008Y-53171D01*
X54000Y-53191D01*
X54000Y-52664D01*
X54054Y-52797D01*
X54202Y-52944D01*
X54263Y-52970D01*
X54263Y-52970D01*
G37*
G54D18*
X54263Y-52970D02*
X54171Y-53008D01*
X54008Y-53171D01*
X54000Y-53191D01*
X54000Y-52664D01*
X54054Y-52797D01*
X54202Y-52944D01*
X54263Y-52970D01*
G54D10*
G36*
X54450Y-56025D02*
X54117Y-56358D01*
X54108Y-56354D01*
X53892Y-56354D01*
X53691Y-56437D01*
X53538Y-56590D01*
X53500Y-56682D01*
X53462Y-56591D01*
X53309Y-56438D01*
X53300Y-56434D01*
X53300Y-56124D01*
X53974Y-55449D01*
X53974Y-55824D01*
X54012Y-55916D01*
X54083Y-55986D01*
X54175Y-56024D01*
X54274Y-56025D01*
X54450Y-56025D01*
X54450Y-56025D01*
G37*
G54D18*
X54450Y-56025D02*
X54117Y-56358D01*
X54108Y-56354D01*
X53892Y-56354D01*
X53691Y-56437D01*
X53538Y-56590D01*
X53500Y-56682D01*
X53462Y-56591D01*
X53309Y-56438D01*
X53300Y-56434D01*
X53300Y-56124D01*
X53974Y-55449D01*
X53974Y-55824D01*
X54012Y-55916D01*
X54083Y-55986D01*
X54175Y-56024D01*
X54274Y-56025D01*
X54450Y-56025D01*
G54D10*
G36*
X54825Y-53993D02*
X54824Y-54006D01*
X54808Y-54000D01*
X54825Y-53993D01*
X54825Y-53993D01*
G37*
G54D18*
X54825Y-53993D02*
X54824Y-54006D01*
X54808Y-54000D01*
X54825Y-53993D01*
G54D10*
G36*
X54832Y-48999D02*
X54741Y-49037D01*
X54588Y-49190D01*
X54504Y-49391D01*
X54504Y-49607D01*
X54508Y-49617D01*
X53487Y-50637D01*
X53422Y-50735D01*
X53400Y-50850D01*
X53400Y-53700D01*
X53422Y-53814D01*
X53487Y-53912D01*
X53931Y-54356D01*
X53920Y-54384D01*
X53919Y-54614D01*
X53931Y-54643D01*
X53433Y-55142D01*
X53433Y-53864D01*
X53329Y-53613D01*
X53137Y-53421D01*
X53045Y-53383D01*
X53045Y-50592D01*
X52962Y-50391D01*
X52809Y-50238D01*
X52717Y-50200D01*
X52808Y-50162D01*
X52961Y-50009D01*
X53045Y-49808D01*
X53045Y-49592D01*
X52962Y-49391D01*
X52809Y-49238D01*
X52608Y-49154D01*
X52392Y-49154D01*
X52191Y-49237D01*
X52038Y-49390D01*
X51954Y-49591D01*
X51954Y-49807D01*
X52037Y-50008D01*
X52190Y-50161D01*
X52282Y-50199D01*
X52191Y-50237D01*
X52038Y-50390D01*
X51954Y-50591D01*
X51954Y-50807D01*
X52037Y-51008D01*
X52190Y-51161D01*
X52391Y-51245D01*
X52607Y-51245D01*
X52808Y-51162D01*
X52961Y-51009D01*
X53045Y-50808D01*
X53045Y-50592D01*
X53045Y-53383D01*
X52886Y-53317D01*
X52614Y-53316D01*
X52363Y-53420D01*
X52171Y-53612D01*
X52067Y-53863D01*
X52066Y-54135D01*
X52170Y-54386D01*
X52362Y-54578D01*
X52613Y-54682D01*
X52885Y-54683D01*
X53136Y-54579D01*
X53328Y-54387D01*
X53432Y-54136D01*
X53433Y-53864D01*
X53433Y-55142D01*
X52787Y-55787D01*
X52722Y-55885D01*
X52700Y-56000D01*
X52700Y-56433D01*
X52691Y-56437D01*
X52538Y-56590D01*
X52454Y-56791D01*
X52454Y-57007D01*
X52537Y-57208D01*
X52659Y-57330D01*
X50440Y-57330D01*
X50461Y-57309D01*
X50545Y-57108D01*
X50545Y-56892D01*
X50462Y-56691D01*
X50309Y-56538D01*
X50256Y-56516D01*
X50325Y-56487D01*
X50487Y-56326D01*
X50574Y-56114D01*
X50575Y-55886D01*
X50487Y-55674D01*
X50368Y-55555D01*
X50475Y-55449D01*
X50474Y-55603D01*
X50554Y-55797D01*
X50702Y-55944D01*
X50895Y-56024D01*
X51103Y-56025D01*
X51297Y-55945D01*
X51444Y-55797D01*
X51524Y-55604D01*
X51525Y-55396D01*
X51445Y-55203D01*
X51297Y-55055D01*
X51236Y-55029D01*
X51328Y-54991D01*
X51491Y-54828D01*
X51579Y-54615D01*
X51580Y-54385D01*
X51491Y-54171D01*
X51328Y-54008D01*
X51308Y-54000D01*
X51328Y-53991D01*
X51491Y-53828D01*
X51579Y-53615D01*
X51580Y-53417D01*
X51589Y-53440D01*
X51708Y-53560D01*
X51865Y-53624D01*
X52034Y-53625D01*
X52190Y-53560D01*
X52310Y-53441D01*
X52374Y-53284D01*
X52375Y-53115D01*
X52310Y-52959D01*
X52250Y-52898D01*
X52250Y-52050D01*
X52227Y-51935D01*
X52162Y-51837D01*
X52162Y-51837D01*
X51612Y-51287D01*
X51514Y-51222D01*
X51400Y-51200D01*
X50717Y-51200D01*
X50808Y-51162D01*
X50961Y-51009D01*
X51045Y-50808D01*
X51045Y-50592D01*
X50962Y-50391D01*
X50809Y-50238D01*
X50717Y-50200D01*
X50808Y-50162D01*
X50961Y-50009D01*
X51045Y-49808D01*
X51045Y-49592D01*
X50962Y-49391D01*
X50809Y-49238D01*
X50608Y-49154D01*
X50392Y-49154D01*
X50191Y-49237D01*
X50038Y-49390D01*
X49954Y-49591D01*
X49954Y-49807D01*
X50037Y-50008D01*
X50190Y-50161D01*
X50282Y-50199D01*
X50191Y-50237D01*
X50038Y-50390D01*
X49954Y-50591D01*
X49954Y-50807D01*
X50037Y-51008D01*
X50190Y-51161D01*
X50366Y-51235D01*
X50287Y-51287D01*
X50140Y-51435D01*
X50114Y-51425D01*
X49886Y-51424D01*
X49674Y-51512D01*
X49512Y-51673D01*
X49506Y-51689D01*
X49504Y-51689D01*
X49496Y-51669D01*
X49331Y-51504D01*
X49310Y-51495D01*
X49308Y-51489D01*
X49212Y-51454D01*
X49116Y-51415D01*
X49103Y-51415D01*
X49090Y-51410D01*
X48987Y-51414D01*
X48884Y-51414D01*
X48871Y-51420D01*
X48857Y-51420D01*
X48691Y-51489D01*
X48689Y-51495D01*
X48669Y-51503D01*
X48600Y-51572D01*
X48600Y-50574D01*
X49762Y-49412D01*
X49827Y-49314D01*
X49849Y-49200D01*
X49850Y-49200D01*
X49850Y-48074D01*
X49974Y-47949D01*
X49974Y-48324D01*
X50012Y-48416D01*
X50083Y-48486D01*
X50175Y-48524D01*
X50274Y-48525D01*
X50824Y-48525D01*
X50916Y-48487D01*
X50925Y-48478D01*
X50924Y-48613D01*
X51012Y-48825D01*
X51173Y-48987D01*
X51385Y-49074D01*
X51613Y-49075D01*
X51825Y-48987D01*
X51987Y-48826D01*
X51993Y-48810D01*
X51995Y-48810D01*
X52003Y-48830D01*
X52168Y-48995D01*
X52189Y-49004D01*
X52191Y-49010D01*
X52287Y-49045D01*
X52383Y-49084D01*
X52396Y-49084D01*
X52409Y-49089D01*
X52512Y-49085D01*
X52615Y-49085D01*
X52628Y-49079D01*
X52642Y-49079D01*
X52808Y-49010D01*
X52810Y-49004D01*
X52830Y-48996D01*
X52995Y-48831D01*
X53004Y-48810D01*
X53010Y-48808D01*
X53045Y-48712D01*
X53084Y-48616D01*
X53084Y-48603D01*
X53089Y-48590D01*
X53085Y-48487D01*
X53085Y-48384D01*
X53079Y-48371D01*
X53079Y-48357D01*
X53010Y-48191D01*
X53004Y-48189D01*
X52996Y-48169D01*
X52831Y-48004D01*
X52821Y-48000D01*
X54010Y-48000D01*
X54102Y-48093D01*
X54360Y-48199D01*
X54584Y-48200D01*
X54504Y-48391D01*
X54504Y-48607D01*
X54587Y-48808D01*
X54740Y-48961D01*
X54832Y-48999D01*
X54832Y-48999D01*
G37*
G54D18*
X54832Y-48999D02*
X54741Y-49037D01*
X54588Y-49190D01*
X54504Y-49391D01*
X54504Y-49607D01*
X54508Y-49617D01*
X53487Y-50637D01*
X53422Y-50735D01*
X53400Y-50850D01*
X53400Y-53700D01*
X53422Y-53814D01*
X53487Y-53912D01*
X53931Y-54356D01*
X53920Y-54384D01*
X53919Y-54614D01*
X53931Y-54643D01*
X53433Y-55142D01*
X53433Y-53864D01*
X53329Y-53613D01*
X53137Y-53421D01*
X53045Y-53383D01*
X53045Y-50592D01*
X52962Y-50391D01*
X52809Y-50238D01*
X52717Y-50200D01*
X52808Y-50162D01*
X52961Y-50009D01*
X53045Y-49808D01*
X53045Y-49592D01*
X52962Y-49391D01*
X52809Y-49238D01*
X52608Y-49154D01*
X52392Y-49154D01*
X52191Y-49237D01*
X52038Y-49390D01*
X51954Y-49591D01*
X51954Y-49807D01*
X52037Y-50008D01*
X52190Y-50161D01*
X52282Y-50199D01*
X52191Y-50237D01*
X52038Y-50390D01*
X51954Y-50591D01*
X51954Y-50807D01*
X52037Y-51008D01*
X52190Y-51161D01*
X52391Y-51245D01*
X52607Y-51245D01*
X52808Y-51162D01*
X52961Y-51009D01*
X53045Y-50808D01*
X53045Y-50592D01*
X53045Y-53383D01*
X52886Y-53317D01*
X52614Y-53316D01*
X52363Y-53420D01*
X52171Y-53612D01*
X52067Y-53863D01*
X52066Y-54135D01*
X52170Y-54386D01*
X52362Y-54578D01*
X52613Y-54682D01*
X52885Y-54683D01*
X53136Y-54579D01*
X53328Y-54387D01*
X53432Y-54136D01*
X53433Y-53864D01*
X53433Y-55142D01*
X52787Y-55787D01*
X52722Y-55885D01*
X52700Y-56000D01*
X52700Y-56433D01*
X52691Y-56437D01*
X52538Y-56590D01*
X52454Y-56791D01*
X52454Y-57007D01*
X52537Y-57208D01*
X52659Y-57330D01*
X50440Y-57330D01*
X50461Y-57309D01*
X50545Y-57108D01*
X50545Y-56892D01*
X50462Y-56691D01*
X50309Y-56538D01*
X50256Y-56516D01*
X50325Y-56487D01*
X50487Y-56326D01*
X50574Y-56114D01*
X50575Y-55886D01*
X50487Y-55674D01*
X50368Y-55555D01*
X50475Y-55449D01*
X50474Y-55603D01*
X50554Y-55797D01*
X50702Y-55944D01*
X50895Y-56024D01*
X51103Y-56025D01*
X51297Y-55945D01*
X51444Y-55797D01*
X51524Y-55604D01*
X51525Y-55396D01*
X51445Y-55203D01*
X51297Y-55055D01*
X51236Y-55029D01*
X51328Y-54991D01*
X51491Y-54828D01*
X51579Y-54615D01*
X51580Y-54385D01*
X51491Y-54171D01*
X51328Y-54008D01*
X51308Y-54000D01*
X51328Y-53991D01*
X51491Y-53828D01*
X51579Y-53615D01*
X51580Y-53417D01*
X51589Y-53440D01*
X51708Y-53560D01*
X51865Y-53624D01*
X52034Y-53625D01*
X52190Y-53560D01*
X52310Y-53441D01*
X52374Y-53284D01*
X52375Y-53115D01*
X52310Y-52959D01*
X52250Y-52898D01*
X52250Y-52050D01*
X52227Y-51935D01*
X52162Y-51837D01*
X52162Y-51837D01*
X51612Y-51287D01*
X51514Y-51222D01*
X51400Y-51200D01*
X50717Y-51200D01*
X50808Y-51162D01*
X50961Y-51009D01*
X51045Y-50808D01*
X51045Y-50592D01*
X50962Y-50391D01*
X50809Y-50238D01*
X50717Y-50200D01*
X50808Y-50162D01*
X50961Y-50009D01*
X51045Y-49808D01*
X51045Y-49592D01*
X50962Y-49391D01*
X50809Y-49238D01*
X50608Y-49154D01*
X50392Y-49154D01*
X50191Y-49237D01*
X50038Y-49390D01*
X49954Y-49591D01*
X49954Y-49807D01*
X50037Y-50008D01*
X50190Y-50161D01*
X50282Y-50199D01*
X50191Y-50237D01*
X50038Y-50390D01*
X49954Y-50591D01*
X49954Y-50807D01*
X50037Y-51008D01*
X50190Y-51161D01*
X50366Y-51235D01*
X50287Y-51287D01*
X50140Y-51435D01*
X50114Y-51425D01*
X49886Y-51424D01*
X49674Y-51512D01*
X49512Y-51673D01*
X49506Y-51689D01*
X49504Y-51689D01*
X49496Y-51669D01*
X49331Y-51504D01*
X49310Y-51495D01*
X49308Y-51489D01*
X49212Y-51454D01*
X49116Y-51415D01*
X49103Y-51415D01*
X49090Y-51410D01*
X48987Y-51414D01*
X48884Y-51414D01*
X48871Y-51420D01*
X48857Y-51420D01*
X48691Y-51489D01*
X48689Y-51495D01*
X48669Y-51503D01*
X48600Y-51572D01*
X48600Y-50574D01*
X49762Y-49412D01*
X49827Y-49314D01*
X49849Y-49200D01*
X49850Y-49200D01*
X49850Y-48074D01*
X49974Y-47949D01*
X49974Y-48324D01*
X50012Y-48416D01*
X50083Y-48486D01*
X50175Y-48524D01*
X50274Y-48525D01*
X50824Y-48525D01*
X50916Y-48487D01*
X50925Y-48478D01*
X50924Y-48613D01*
X51012Y-48825D01*
X51173Y-48987D01*
X51385Y-49074D01*
X51613Y-49075D01*
X51825Y-48987D01*
X51987Y-48826D01*
X51993Y-48810D01*
X51995Y-48810D01*
X52003Y-48830D01*
X52168Y-48995D01*
X52189Y-49004D01*
X52191Y-49010D01*
X52287Y-49045D01*
X52383Y-49084D01*
X52396Y-49084D01*
X52409Y-49089D01*
X52512Y-49085D01*
X52615Y-49085D01*
X52628Y-49079D01*
X52642Y-49079D01*
X52808Y-49010D01*
X52810Y-49004D01*
X52830Y-48996D01*
X52995Y-48831D01*
X53004Y-48810D01*
X53010Y-48808D01*
X53045Y-48712D01*
X53084Y-48616D01*
X53084Y-48603D01*
X53089Y-48590D01*
X53085Y-48487D01*
X53085Y-48384D01*
X53079Y-48371D01*
X53079Y-48357D01*
X53010Y-48191D01*
X53004Y-48189D01*
X52996Y-48169D01*
X52831Y-48004D01*
X52821Y-48000D01*
X54010Y-48000D01*
X54102Y-48093D01*
X54360Y-48199D01*
X54584Y-48200D01*
X54504Y-48391D01*
X54504Y-48607D01*
X54587Y-48808D01*
X54740Y-48961D01*
X54832Y-48999D01*
G54D10*
G36*
X55480Y-49159D02*
X55359Y-49038D01*
X55267Y-49000D01*
X55358Y-48962D01*
X55480Y-48840D01*
X55480Y-49159D01*
X55480Y-49159D01*
G37*
G54D18*
X55480Y-49159D02*
X55359Y-49038D01*
X55267Y-49000D01*
X55358Y-48962D01*
X55480Y-48840D01*
X55480Y-49159D01*
G54D10*
G36*
X55930Y-48088D02*
X55877Y-48110D01*
X55877Y-48110D01*
X55732Y-48207D01*
X55731Y-48207D01*
X55657Y-48282D01*
X55591Y-48381D01*
X55512Y-48191D01*
X55359Y-48038D01*
X55158Y-47954D01*
X55035Y-47954D01*
X55093Y-47897D01*
X55199Y-47639D01*
X55200Y-47361D01*
X55093Y-47104D01*
X54897Y-46906D01*
X54639Y-46800D01*
X54361Y-46799D01*
X54104Y-46906D01*
X53906Y-47102D01*
X53800Y-47360D01*
X53800Y-47400D01*
X53036Y-47400D01*
X53079Y-47382D01*
X53080Y-47380D01*
X53085Y-47377D01*
X53376Y-47087D01*
X53379Y-47080D01*
X53382Y-47079D01*
X53457Y-46892D01*
X53534Y-46706D01*
X53534Y-46701D01*
X53536Y-46697D01*
X53535Y-46496D01*
X53535Y-46295D01*
X53533Y-46290D01*
X53533Y-46285D01*
X53382Y-45920D01*
X53380Y-45919D01*
X53377Y-45914D01*
X53087Y-45623D01*
X53080Y-45620D01*
X53079Y-45617D01*
X52911Y-45550D01*
X53059Y-45550D01*
X53102Y-45593D01*
X53360Y-45699D01*
X53638Y-45700D01*
X53896Y-45593D01*
X54091Y-45398D01*
X54137Y-45508D01*
X54290Y-45661D01*
X54491Y-45745D01*
X54707Y-45745D01*
X54908Y-45662D01*
X55061Y-45509D01*
X55145Y-45308D01*
X55145Y-45092D01*
X55062Y-44891D01*
X54909Y-44738D01*
X54708Y-44654D01*
X54492Y-44654D01*
X54291Y-44737D01*
X54190Y-44838D01*
X54093Y-44604D01*
X53897Y-44406D01*
X53639Y-44300D01*
X53361Y-44299D01*
X53104Y-44406D01*
X53085Y-44425D01*
X53085Y-44384D01*
X53079Y-44371D01*
X53079Y-44357D01*
X53010Y-44191D01*
X53004Y-44189D01*
X52996Y-44169D01*
X52847Y-44019D01*
X55223Y-44019D01*
X55335Y-44041D01*
X55408Y-44090D01*
X55457Y-44164D01*
X55485Y-44302D01*
X55485Y-44303D01*
X55519Y-44473D01*
X55519Y-44474D01*
X55559Y-44571D01*
X55657Y-44717D01*
X55731Y-44792D01*
X55732Y-44792D01*
X55877Y-44889D01*
X55877Y-44889D01*
X55930Y-44911D01*
X55930Y-45838D01*
X55877Y-45860D01*
X55877Y-45860D01*
X55732Y-45957D01*
X55731Y-45957D01*
X55657Y-46032D01*
X55559Y-46178D01*
X55519Y-46275D01*
X55519Y-46276D01*
X55485Y-46447D01*
X55485Y-46447D01*
X55485Y-46447D01*
X55485Y-46500D01*
X55485Y-46552D01*
X55485Y-46552D01*
X55485Y-46552D01*
X55519Y-46723D01*
X55519Y-46724D01*
X55559Y-46821D01*
X55657Y-46967D01*
X55731Y-47042D01*
X55732Y-47042D01*
X55877Y-47139D01*
X55877Y-47139D01*
X55930Y-47161D01*
X55930Y-48088D01*
X55930Y-48088D01*
G37*
G54D18*
X55930Y-48088D02*
X55877Y-48110D01*
X55877Y-48110D01*
X55732Y-48207D01*
X55731Y-48207D01*
X55657Y-48282D01*
X55591Y-48381D01*
X55512Y-48191D01*
X55359Y-48038D01*
X55158Y-47954D01*
X55035Y-47954D01*
X55093Y-47897D01*
X55199Y-47639D01*
X55200Y-47361D01*
X55093Y-47104D01*
X54897Y-46906D01*
X54639Y-46800D01*
X54361Y-46799D01*
X54104Y-46906D01*
X53906Y-47102D01*
X53800Y-47360D01*
X53800Y-47400D01*
X53036Y-47400D01*
X53079Y-47382D01*
X53080Y-47380D01*
X53085Y-47377D01*
X53376Y-47087D01*
X53379Y-47080D01*
X53382Y-47079D01*
X53457Y-46892D01*
X53534Y-46706D01*
X53534Y-46701D01*
X53536Y-46697D01*
X53535Y-46496D01*
X53535Y-46295D01*
X53533Y-46290D01*
X53533Y-46285D01*
X53382Y-45920D01*
X53380Y-45919D01*
X53377Y-45914D01*
X53087Y-45623D01*
X53080Y-45620D01*
X53079Y-45617D01*
X52911Y-45550D01*
X53059Y-45550D01*
X53102Y-45593D01*
X53360Y-45699D01*
X53638Y-45700D01*
X53896Y-45593D01*
X54091Y-45398D01*
X54137Y-45508D01*
X54290Y-45661D01*
X54491Y-45745D01*
X54707Y-45745D01*
X54908Y-45662D01*
X55061Y-45509D01*
X55145Y-45308D01*
X55145Y-45092D01*
X55062Y-44891D01*
X54909Y-44738D01*
X54708Y-44654D01*
X54492Y-44654D01*
X54291Y-44737D01*
X54190Y-44838D01*
X54093Y-44604D01*
X53897Y-44406D01*
X53639Y-44300D01*
X53361Y-44299D01*
X53104Y-44406D01*
X53085Y-44425D01*
X53085Y-44384D01*
X53079Y-44371D01*
X53079Y-44357D01*
X53010Y-44191D01*
X53004Y-44189D01*
X52996Y-44169D01*
X52847Y-44019D01*
X55223Y-44019D01*
X55335Y-44041D01*
X55408Y-44090D01*
X55457Y-44164D01*
X55485Y-44302D01*
X55485Y-44303D01*
X55519Y-44473D01*
X55519Y-44474D01*
X55559Y-44571D01*
X55657Y-44717D01*
X55731Y-44792D01*
X55732Y-44792D01*
X55877Y-44889D01*
X55877Y-44889D01*
X55930Y-44911D01*
X55930Y-45838D01*
X55877Y-45860D01*
X55877Y-45860D01*
X55732Y-45957D01*
X55731Y-45957D01*
X55657Y-46032D01*
X55559Y-46178D01*
X55519Y-46275D01*
X55519Y-46276D01*
X55485Y-46447D01*
X55485Y-46447D01*
X55485Y-46447D01*
X55485Y-46500D01*
X55485Y-46552D01*
X55485Y-46552D01*
X55485Y-46552D01*
X55519Y-46723D01*
X55519Y-46724D01*
X55559Y-46821D01*
X55657Y-46967D01*
X55731Y-47042D01*
X55732Y-47042D01*
X55877Y-47139D01*
X55877Y-47139D01*
X55930Y-47161D01*
X55930Y-48088D01*
G54D10*
G36*
X55963Y-53100D02*
X55920Y-53117D01*
X55919Y-53119D01*
X55914Y-53122D01*
X55623Y-53412D01*
X55620Y-53419D01*
X55617Y-53420D01*
X55542Y-53607D01*
X55517Y-53666D01*
X55491Y-53639D01*
X55334Y-53575D01*
X55165Y-53574D01*
X55079Y-53610D01*
X55080Y-53385D01*
X54991Y-53171D01*
X54920Y-53100D01*
X55963Y-53100D01*
X55963Y-53100D01*
G37*
G54D18*
X55963Y-53100D02*
X55920Y-53117D01*
X55919Y-53119D01*
X55914Y-53122D01*
X55623Y-53412D01*
X55620Y-53419D01*
X55617Y-53420D01*
X55542Y-53607D01*
X55517Y-53666D01*
X55491Y-53639D01*
X55334Y-53575D01*
X55165Y-53574D01*
X55079Y-53610D01*
X55080Y-53385D01*
X54991Y-53171D01*
X54920Y-53100D01*
X55963Y-53100D01*
G54D10*
G36*
X56123Y-54964D02*
X56087Y-54987D01*
X55640Y-55435D01*
X55614Y-55425D01*
X55386Y-55424D01*
X55300Y-55460D01*
X55300Y-55024D01*
X55462Y-54862D01*
X55462Y-54862D01*
X55527Y-54764D01*
X55549Y-54650D01*
X55550Y-54650D01*
X55550Y-54415D01*
X55617Y-54579D01*
X55619Y-54580D01*
X55622Y-54585D01*
X55912Y-54876D01*
X55919Y-54879D01*
X55920Y-54882D01*
X56107Y-54957D01*
X56123Y-54964D01*
X56123Y-54964D01*
G37*
G54D18*
X56123Y-54964D02*
X56087Y-54987D01*
X55640Y-55435D01*
X55614Y-55425D01*
X55386Y-55424D01*
X55300Y-55460D01*
X55300Y-55024D01*
X55462Y-54862D01*
X55462Y-54862D01*
X55527Y-54764D01*
X55549Y-54650D01*
X55550Y-54650D01*
X55550Y-54415D01*
X55617Y-54579D01*
X55619Y-54580D01*
X55622Y-54585D01*
X55912Y-54876D01*
X55919Y-54879D01*
X55920Y-54882D01*
X56107Y-54957D01*
X56123Y-54964D01*
G54D10*
G36*
X56158Y-51514D02*
X56004Y-51668D01*
X55995Y-51689D01*
X55993Y-51689D01*
X55987Y-51674D01*
X55826Y-51512D01*
X55614Y-51425D01*
X55386Y-51424D01*
X55174Y-51512D01*
X55012Y-51673D01*
X54925Y-51885D01*
X54924Y-52113D01*
X55012Y-52325D01*
X55173Y-52487D01*
X55204Y-52500D01*
X55024Y-52500D01*
X55025Y-52396D01*
X54945Y-52203D01*
X54797Y-52055D01*
X54604Y-51975D01*
X54396Y-51974D01*
X54203Y-52054D01*
X54055Y-52202D01*
X54000Y-52335D01*
X54000Y-50974D01*
X54932Y-50041D01*
X54941Y-50045D01*
X55157Y-50045D01*
X55358Y-49962D01*
X55480Y-49840D01*
X55480Y-50800D01*
X55485Y-50826D01*
X55485Y-50852D01*
X55519Y-51023D01*
X55519Y-51024D01*
X55559Y-51121D01*
X55657Y-51267D01*
X55731Y-51342D01*
X55732Y-51342D01*
X55877Y-51439D01*
X55877Y-51439D01*
X55974Y-51480D01*
X56147Y-51514D01*
X56158Y-51514D01*
X56158Y-51514D01*
G37*
G54D18*
X56158Y-51514D02*
X56004Y-51668D01*
X55995Y-51689D01*
X55993Y-51689D01*
X55987Y-51674D01*
X55826Y-51512D01*
X55614Y-51425D01*
X55386Y-51424D01*
X55174Y-51512D01*
X55012Y-51673D01*
X54925Y-51885D01*
X54924Y-52113D01*
X55012Y-52325D01*
X55173Y-52487D01*
X55204Y-52500D01*
X55024Y-52500D01*
X55025Y-52396D01*
X54945Y-52203D01*
X54797Y-52055D01*
X54604Y-51975D01*
X54396Y-51974D01*
X54203Y-52054D01*
X54055Y-52202D01*
X54000Y-52335D01*
X54000Y-50974D01*
X54932Y-50041D01*
X54941Y-50045D01*
X55157Y-50045D01*
X55358Y-49962D01*
X55480Y-49840D01*
X55480Y-50800D01*
X55485Y-50826D01*
X55485Y-50852D01*
X55519Y-51023D01*
X55519Y-51024D01*
X55559Y-51121D01*
X55657Y-51267D01*
X55731Y-51342D01*
X55732Y-51342D01*
X55877Y-51439D01*
X55877Y-51439D01*
X55974Y-51480D01*
X56147Y-51514D01*
X56158Y-51514D01*
G54D10*
G36*
X56178Y-52500D02*
X55795Y-52500D01*
X55825Y-52487D01*
X55987Y-52326D01*
X55993Y-52310D01*
X55995Y-52310D01*
X56003Y-52330D01*
X56168Y-52495D01*
X56178Y-52500D01*
X56178Y-52500D01*
G37*
G54D18*
X56178Y-52500D02*
X55795Y-52500D01*
X55825Y-52487D01*
X55987Y-52326D01*
X55993Y-52310D01*
X55995Y-52310D01*
X56003Y-52330D01*
X56168Y-52495D01*
X56178Y-52500D01*
G54D10*
G36*
X58159Y-51519D02*
X58038Y-51640D01*
X58032Y-51653D01*
X57935Y-51672D01*
X57837Y-51737D01*
X57735Y-51839D01*
X57639Y-51800D01*
X57361Y-51799D01*
X57104Y-51906D01*
X57085Y-51925D01*
X57085Y-51884D01*
X57079Y-51871D01*
X57079Y-51857D01*
X57010Y-51691D01*
X57004Y-51689D01*
X56996Y-51669D01*
X56847Y-51519D01*
X58159Y-51519D01*
X58159Y-51519D01*
G37*
G54D18*
X58159Y-51519D02*
X58038Y-51640D01*
X58032Y-51653D01*
X57935Y-51672D01*
X57837Y-51737D01*
X57735Y-51839D01*
X57639Y-51800D01*
X57361Y-51799D01*
X57104Y-51906D01*
X57085Y-51925D01*
X57085Y-51884D01*
X57079Y-51871D01*
X57079Y-51857D01*
X57010Y-51691D01*
X57004Y-51689D01*
X56996Y-51669D01*
X56847Y-51519D01*
X58159Y-51519D01*
G54D10*
G36*
X58499Y-55700D02*
X57924Y-55700D01*
X57212Y-54987D01*
X57114Y-54922D01*
X57024Y-54904D01*
X57079Y-54882D01*
X57080Y-54880D01*
X57085Y-54877D01*
X57376Y-54587D01*
X57379Y-54580D01*
X57382Y-54579D01*
X57457Y-54392D01*
X57534Y-54206D01*
X57534Y-54201D01*
X57536Y-54197D01*
X57535Y-54009D01*
X58017Y-54492D01*
X57906Y-54602D01*
X57800Y-54860D01*
X57799Y-55138D01*
X57906Y-55396D01*
X58102Y-55593D01*
X58360Y-55699D01*
X58499Y-55700D01*
X58499Y-55700D01*
G37*
G54D18*
X58499Y-55700D02*
X57924Y-55700D01*
X57212Y-54987D01*
X57114Y-54922D01*
X57024Y-54904D01*
X57079Y-54882D01*
X57080Y-54880D01*
X57085Y-54877D01*
X57376Y-54587D01*
X57379Y-54580D01*
X57382Y-54579D01*
X57457Y-54392D01*
X57534Y-54206D01*
X57534Y-54201D01*
X57536Y-54197D01*
X57535Y-54009D01*
X58017Y-54492D01*
X57906Y-54602D01*
X57800Y-54860D01*
X57799Y-55138D01*
X57906Y-55396D01*
X58102Y-55593D01*
X58360Y-55699D01*
X58499Y-55700D01*
G54D10*
G36*
X59480Y-57072D02*
X59457Y-57185D01*
X59408Y-57259D01*
X59335Y-57308D01*
X59223Y-57330D01*
X54340Y-57330D01*
X54461Y-57209D01*
X54545Y-57008D01*
X54545Y-56792D01*
X54541Y-56782D01*
X55008Y-56315D01*
X55012Y-56325D01*
X55173Y-56487D01*
X55385Y-56574D01*
X55613Y-56575D01*
X55825Y-56487D01*
X55987Y-56326D01*
X55993Y-56310D01*
X55995Y-56310D01*
X56003Y-56330D01*
X56168Y-56495D01*
X56189Y-56504D01*
X56191Y-56510D01*
X56287Y-56545D01*
X56383Y-56584D01*
X56396Y-56584D01*
X56409Y-56589D01*
X56512Y-56585D01*
X56615Y-56585D01*
X56628Y-56579D01*
X56642Y-56579D01*
X56808Y-56510D01*
X56810Y-56504D01*
X56830Y-56496D01*
X56995Y-56331D01*
X57004Y-56310D01*
X57010Y-56308D01*
X57045Y-56212D01*
X57084Y-56116D01*
X57084Y-56103D01*
X57089Y-56090D01*
X57085Y-55987D01*
X57085Y-55884D01*
X57079Y-55871D01*
X57079Y-55857D01*
X57010Y-55691D01*
X57004Y-55689D01*
X56996Y-55669D01*
X56831Y-55504D01*
X56821Y-55500D01*
X56875Y-55500D01*
X57587Y-56212D01*
X57587Y-56212D01*
X57685Y-56277D01*
X57799Y-56299D01*
X57800Y-56300D01*
X58583Y-56300D01*
X58587Y-56308D01*
X58740Y-56461D01*
X58941Y-56545D01*
X59157Y-56545D01*
X59358Y-56462D01*
X59480Y-56340D01*
X59480Y-57072D01*
X59480Y-57072D01*
G37*
G54D18*
X59480Y-57072D02*
X59457Y-57185D01*
X59408Y-57259D01*
X59335Y-57308D01*
X59223Y-57330D01*
X54340Y-57330D01*
X54461Y-57209D01*
X54545Y-57008D01*
X54545Y-56792D01*
X54541Y-56782D01*
X55008Y-56315D01*
X55012Y-56325D01*
X55173Y-56487D01*
X55385Y-56574D01*
X55613Y-56575D01*
X55825Y-56487D01*
X55987Y-56326D01*
X55993Y-56310D01*
X55995Y-56310D01*
X56003Y-56330D01*
X56168Y-56495D01*
X56189Y-56504D01*
X56191Y-56510D01*
X56287Y-56545D01*
X56383Y-56584D01*
X56396Y-56584D01*
X56409Y-56589D01*
X56512Y-56585D01*
X56615Y-56585D01*
X56628Y-56579D01*
X56642Y-56579D01*
X56808Y-56510D01*
X56810Y-56504D01*
X56830Y-56496D01*
X56995Y-56331D01*
X57004Y-56310D01*
X57010Y-56308D01*
X57045Y-56212D01*
X57084Y-56116D01*
X57084Y-56103D01*
X57089Y-56090D01*
X57085Y-55987D01*
X57085Y-55884D01*
X57079Y-55871D01*
X57079Y-55857D01*
X57010Y-55691D01*
X57004Y-55689D01*
X56996Y-55669D01*
X56831Y-55504D01*
X56821Y-55500D01*
X56875Y-55500D01*
X57587Y-56212D01*
X57587Y-56212D01*
X57685Y-56277D01*
X57799Y-56299D01*
X57800Y-56300D01*
X58583Y-56300D01*
X58587Y-56308D01*
X58740Y-56461D01*
X58941Y-56545D01*
X59157Y-56545D01*
X59358Y-56462D01*
X59480Y-56340D01*
X59480Y-57072D01*
G54D10*
G36*
X59930Y-55588D02*
X59877Y-55610D01*
X59877Y-55610D01*
X59732Y-55707D01*
X59731Y-55707D01*
X59657Y-55782D01*
X59591Y-55881D01*
X59512Y-55691D01*
X59359Y-55538D01*
X59158Y-55454D01*
X59035Y-55454D01*
X59093Y-55397D01*
X59199Y-55139D01*
X59200Y-54861D01*
X59093Y-54604D01*
X58897Y-54406D01*
X58698Y-54324D01*
X57574Y-53200D01*
X57638Y-53200D01*
X57896Y-53093D01*
X58093Y-52897D01*
X58199Y-52639D01*
X58200Y-52415D01*
X58391Y-52495D01*
X58504Y-52495D01*
X58504Y-52707D01*
X58587Y-52908D01*
X58740Y-53061D01*
X58941Y-53145D01*
X59157Y-53145D01*
X59358Y-53062D01*
X59511Y-52909D01*
X59595Y-52708D01*
X59595Y-52492D01*
X59512Y-52291D01*
X59359Y-52138D01*
X59158Y-52054D01*
X59045Y-52054D01*
X59045Y-51842D01*
X58962Y-51641D01*
X58840Y-51519D01*
X59223Y-51519D01*
X59335Y-51541D01*
X59408Y-51590D01*
X59457Y-51664D01*
X59485Y-51802D01*
X59485Y-51803D01*
X59519Y-51973D01*
X59519Y-51974D01*
X59559Y-52071D01*
X59657Y-52217D01*
X59731Y-52292D01*
X59732Y-52292D01*
X59877Y-52389D01*
X59877Y-52389D01*
X59930Y-52411D01*
X59930Y-53338D01*
X59877Y-53360D01*
X59877Y-53360D01*
X59732Y-53457D01*
X59731Y-53457D01*
X59657Y-53532D01*
X59559Y-53678D01*
X59519Y-53775D01*
X59519Y-53776D01*
X59485Y-53947D01*
X59485Y-53947D01*
X59485Y-53947D01*
X59485Y-54000D01*
X59485Y-54052D01*
X59485Y-54052D01*
X59485Y-54052D01*
X59519Y-54223D01*
X59519Y-54224D01*
X59559Y-54321D01*
X59657Y-54467D01*
X59731Y-54542D01*
X59732Y-54542D01*
X59877Y-54639D01*
X59877Y-54639D01*
X59930Y-54661D01*
X59930Y-55588D01*
X59930Y-55588D01*
G37*
G54D18*
X59930Y-55588D02*
X59877Y-55610D01*
X59877Y-55610D01*
X59732Y-55707D01*
X59731Y-55707D01*
X59657Y-55782D01*
X59591Y-55881D01*
X59512Y-55691D01*
X59359Y-55538D01*
X59158Y-55454D01*
X59035Y-55454D01*
X59093Y-55397D01*
X59199Y-55139D01*
X59200Y-54861D01*
X59093Y-54604D01*
X58897Y-54406D01*
X58698Y-54324D01*
X57574Y-53200D01*
X57638Y-53200D01*
X57896Y-53093D01*
X58093Y-52897D01*
X58199Y-52639D01*
X58200Y-52415D01*
X58391Y-52495D01*
X58504Y-52495D01*
X58504Y-52707D01*
X58587Y-52908D01*
X58740Y-53061D01*
X58941Y-53145D01*
X59157Y-53145D01*
X59358Y-53062D01*
X59511Y-52909D01*
X59595Y-52708D01*
X59595Y-52492D01*
X59512Y-52291D01*
X59359Y-52138D01*
X59158Y-52054D01*
X59045Y-52054D01*
X59045Y-51842D01*
X58962Y-51641D01*
X58840Y-51519D01*
X59223Y-51519D01*
X59335Y-51541D01*
X59408Y-51590D01*
X59457Y-51664D01*
X59485Y-51802D01*
X59485Y-51803D01*
X59519Y-51973D01*
X59519Y-51974D01*
X59559Y-52071D01*
X59657Y-52217D01*
X59731Y-52292D01*
X59732Y-52292D01*
X59877Y-52389D01*
X59877Y-52389D01*
X59930Y-52411D01*
X59930Y-53338D01*
X59877Y-53360D01*
X59877Y-53360D01*
X59732Y-53457D01*
X59731Y-53457D01*
X59657Y-53532D01*
X59559Y-53678D01*
X59519Y-53775D01*
X59519Y-53776D01*
X59485Y-53947D01*
X59485Y-53947D01*
X59485Y-53947D01*
X59485Y-54000D01*
X59485Y-54052D01*
X59485Y-54052D01*
X59485Y-54052D01*
X59519Y-54223D01*
X59519Y-54224D01*
X59559Y-54321D01*
X59657Y-54467D01*
X59731Y-54542D01*
X59732Y-54542D01*
X59877Y-54639D01*
X59877Y-54639D01*
X59930Y-54661D01*
X59930Y-55588D01*
M02*
