G04 (created by PCBNEW (2013-may-18)-stable) date Sun 23 Aug 2015 10:12:23 PM EDT*
%MOIN*%
G04 Gerber Fmt 3.4, Leading zero omitted, Abs format*
%FSLAX34Y34*%
G01*
G70*
G90*
G04 APERTURE LIST*
%ADD10C,0.00590551*%
%ADD11C,0.0866142*%
%ADD12C,0.065*%
%ADD13C,0.0590551*%
%ADD14C,0.066*%
%ADD15R,0.055X0.055*%
%ADD16C,0.055*%
%ADD17C,0.09*%
%ADD18C,0.157*%
%ADD19C,0.067*%
G04 APERTURE END LIST*
G54D10*
G54D11*
X48750Y-50200D03*
G54D12*
X55500Y-52000D03*
X55500Y-56000D03*
X50000Y-56000D03*
X50000Y-52000D03*
X51500Y-44500D03*
X51500Y-48500D03*
X42500Y-56000D03*
X42500Y-52000D03*
X46000Y-48500D03*
X46000Y-44500D03*
G54D13*
X59050Y-56000D03*
X39500Y-56000D03*
X39500Y-54000D03*
X54000Y-56900D03*
X48000Y-57000D03*
X53000Y-56900D03*
X50000Y-57000D03*
X58500Y-51950D03*
X49000Y-44500D03*
X59050Y-52600D03*
X42500Y-44500D03*
X44000Y-44500D03*
X42500Y-48500D03*
X41950Y-45150D03*
X42500Y-57000D03*
X55050Y-49500D03*
X48000Y-44500D03*
X55050Y-48500D03*
X54600Y-45200D03*
X40500Y-57000D03*
G54D14*
X43500Y-54500D03*
X43500Y-53500D03*
X50500Y-46000D03*
X50500Y-47000D03*
X47000Y-47000D03*
X47000Y-46000D03*
X51000Y-54500D03*
X51000Y-53500D03*
X54500Y-53500D03*
X54500Y-54500D03*
G54D15*
X43500Y-52500D03*
G54D16*
X43500Y-55500D03*
G54D15*
X50500Y-48000D03*
G54D16*
X50500Y-45000D03*
G54D15*
X51000Y-52500D03*
G54D16*
X51000Y-55500D03*
G54D15*
X47000Y-45000D03*
G54D16*
X47000Y-48000D03*
G54D15*
X54500Y-55500D03*
G54D16*
X54500Y-52500D03*
G54D17*
X39500Y-53000D03*
X40500Y-55500D03*
G54D18*
X41500Y-54000D03*
G54D19*
X41500Y-56000D03*
X41500Y-52000D03*
G54D17*
X54500Y-47500D03*
X53500Y-45000D03*
G54D18*
X52500Y-46500D03*
G54D19*
X52500Y-44500D03*
X52500Y-48500D03*
G54D17*
X47000Y-53000D03*
X48000Y-55500D03*
G54D18*
X49000Y-54000D03*
G54D19*
X49000Y-56000D03*
X49000Y-52000D03*
G54D17*
X58500Y-55000D03*
X57500Y-52500D03*
G54D18*
X56500Y-54000D03*
G54D19*
X56500Y-52000D03*
X56500Y-56000D03*
G54D17*
X43000Y-45500D03*
X44000Y-48000D03*
G54D18*
X45000Y-46500D03*
G54D19*
X45000Y-48500D03*
X45000Y-44500D03*
G54D11*
X45250Y-52900D03*
X48750Y-47000D03*
X52750Y-52900D03*
G54D13*
X45800Y-56700D03*
X52500Y-50700D03*
X43000Y-49700D03*
X45000Y-49700D03*
X47000Y-49700D03*
X50500Y-49700D03*
X52500Y-49700D03*
X50500Y-50700D03*
X47000Y-50700D03*
X45000Y-50700D03*
X43000Y-50700D03*
X44700Y-56700D03*
M02*
