G04 (created by PCBNEW (2013-may-18)-stable) date Sat 22 Aug 2015 11:35:59 PM EDT*
%MOIN*%
G04 Gerber Fmt 3.4, Leading zero omitted, Abs format*
%FSLAX34Y34*%
G01*
G70*
G90*
G04 APERTURE LIST*
%ADD10C,0.00590551*%
%ADD11C,0.011811*%
%ADD12C,0.00984252*%
%ADD13C,0.00393701*%
%ADD14C,0.00787402*%
%ADD15C,0.015*%
%ADD16C,0.012*%
%ADD17C,0.008*%
G04 APERTURE END LIST*
G54D10*
G54D11*
X58048Y-54239D02*
X57974Y-53648D01*
X57711Y-54239D01*
X57637Y-53648D01*
X40452Y-53648D02*
X40329Y-54239D01*
X40059Y-53648D01*
X47599Y-53979D02*
X47518Y-54007D01*
X47493Y-54035D01*
X47472Y-54092D01*
X47483Y-54176D01*
X47518Y-54232D01*
X47549Y-54260D01*
X47609Y-54289D01*
X47834Y-54289D01*
X47760Y-53698D01*
X47563Y-53698D01*
X47511Y-53726D01*
X47486Y-53754D01*
X47465Y-53810D01*
X47472Y-53867D01*
X47507Y-53923D01*
X47539Y-53951D01*
X47599Y-53979D01*
X47795Y-53979D01*
X53948Y-46739D02*
X53874Y-46148D01*
X53909Y-46429D02*
X53572Y-46429D01*
X53611Y-46739D02*
X53537Y-46148D01*
G54D12*
X49580Y-48146D02*
X49519Y-48409D01*
X49393Y-48146D01*
X49069Y-48409D02*
X49294Y-48409D01*
X49182Y-48409D02*
X49133Y-48015D01*
X49177Y-48071D01*
X49219Y-48109D01*
X49259Y-48128D01*
X48896Y-48371D02*
X48880Y-48390D01*
X48901Y-48409D01*
X48917Y-48390D01*
X48896Y-48371D01*
X48901Y-48409D01*
X48589Y-48015D02*
X48551Y-48015D01*
X48516Y-48034D01*
X48500Y-48053D01*
X48486Y-48090D01*
X48476Y-48165D01*
X48488Y-48259D01*
X48516Y-48334D01*
X48540Y-48371D01*
X48561Y-48390D01*
X48601Y-48409D01*
X48638Y-48409D01*
X48673Y-48390D01*
X48690Y-48371D01*
X48704Y-48334D01*
X48713Y-48259D01*
X48701Y-48165D01*
X48673Y-48090D01*
X48650Y-48053D01*
X48629Y-48034D01*
X48589Y-48015D01*
X48334Y-48371D02*
X48317Y-48390D01*
X48338Y-48409D01*
X48355Y-48390D01*
X48334Y-48371D01*
X48338Y-48409D01*
X48027Y-48015D02*
X47989Y-48015D01*
X47954Y-48034D01*
X47937Y-48053D01*
X47923Y-48090D01*
X47914Y-48165D01*
X47926Y-48259D01*
X47954Y-48334D01*
X47977Y-48371D01*
X47998Y-48390D01*
X48038Y-48409D01*
X48076Y-48409D01*
X48111Y-48390D01*
X48127Y-48371D01*
X48141Y-48334D01*
X48151Y-48259D01*
X48139Y-48165D01*
X48111Y-48090D01*
X48087Y-48053D01*
X48066Y-48034D01*
X48027Y-48015D01*
G54D11*
X43554Y-46176D02*
X43607Y-46148D01*
X43691Y-46148D01*
X43779Y-46176D01*
X43843Y-46232D01*
X43878Y-46289D01*
X43920Y-46401D01*
X43931Y-46485D01*
X43916Y-46598D01*
X43895Y-46654D01*
X43846Y-46710D01*
X43765Y-46739D01*
X43709Y-46739D01*
X43621Y-46710D01*
X43590Y-46682D01*
X43565Y-46485D01*
X43677Y-46485D01*
G54D13*
X51050Y-51650D02*
X51050Y-52300D01*
X54550Y-51700D02*
X54550Y-52300D01*
X54750Y-51900D02*
X55250Y-51900D01*
X57550Y-51850D02*
X58300Y-51850D01*
X59100Y-53400D02*
X59100Y-52850D01*
X58050Y-55950D02*
X58800Y-55950D01*
X55250Y-56600D02*
X55250Y-55950D01*
X54550Y-56300D02*
X54550Y-55700D01*
X55000Y-56800D02*
X54150Y-56800D01*
X52050Y-56800D02*
X52800Y-56800D01*
X51000Y-56350D02*
X51000Y-55700D01*
X49700Y-56600D02*
X49700Y-56000D01*
X49050Y-56900D02*
X49850Y-56900D01*
X48000Y-56200D02*
X48000Y-56800D01*
X42800Y-56550D02*
X42800Y-56000D01*
X41550Y-57100D02*
X42300Y-57100D01*
X40600Y-56200D02*
X40600Y-56800D01*
X38600Y-56000D02*
X39250Y-56000D01*
X38550Y-54000D02*
X39250Y-54000D01*
X43500Y-56300D02*
X43500Y-55750D01*
X43500Y-51650D02*
X43500Y-52300D01*
X43200Y-51800D02*
X42600Y-51800D01*
X42500Y-47700D02*
X42500Y-48300D01*
X50700Y-51850D02*
X50150Y-51850D01*
X45750Y-47950D02*
X45750Y-48500D01*
X47050Y-48850D02*
X47050Y-48150D01*
X50550Y-48850D02*
X50550Y-48200D01*
X51800Y-47900D02*
X51800Y-48450D01*
X54100Y-49400D02*
X54900Y-49400D01*
X54100Y-48700D02*
X55050Y-48700D01*
X54650Y-46050D02*
X54650Y-45400D01*
X51800Y-45100D02*
X51800Y-44550D01*
X50550Y-44150D02*
X50550Y-44800D01*
X48850Y-45350D02*
X48850Y-44550D01*
X48150Y-45350D02*
X48150Y-44650D01*
X47050Y-44150D02*
X47050Y-44800D01*
X45700Y-45100D02*
X45700Y-44500D01*
X41800Y-46000D02*
X41800Y-45300D01*
X44200Y-45350D02*
X44200Y-44500D01*
X43500Y-44650D02*
X42600Y-44650D01*
G54D14*
X51987Y-54137D02*
X51587Y-54137D01*
X51587Y-54137D02*
X51837Y-53887D01*
X51837Y-53887D02*
X52087Y-54137D01*
X52087Y-54137D02*
X51962Y-54137D01*
X51575Y-53875D02*
X52100Y-53875D01*
X44487Y-54137D02*
X44087Y-54137D01*
X44087Y-54137D02*
X44337Y-53887D01*
X44337Y-53887D02*
X44587Y-54137D01*
X44587Y-54137D02*
X44462Y-54137D01*
X44075Y-53875D02*
X44600Y-53875D01*
X47987Y-46687D02*
X47587Y-46687D01*
X47587Y-46687D02*
X47837Y-46437D01*
X47837Y-46437D02*
X48087Y-46687D01*
X48087Y-46687D02*
X47962Y-46687D01*
X47575Y-46425D02*
X48100Y-46425D01*
X49950Y-46650D02*
X49425Y-46650D01*
X49437Y-46387D02*
X49562Y-46387D01*
X49687Y-46637D02*
X49437Y-46387D01*
X49937Y-46387D02*
X49687Y-46637D01*
X49537Y-46387D02*
X49937Y-46387D01*
X53487Y-53887D02*
X53887Y-53887D01*
X53887Y-53887D02*
X53637Y-54137D01*
X53637Y-54137D02*
X53387Y-53887D01*
X53387Y-53887D02*
X53512Y-53887D01*
X53900Y-54150D02*
X53375Y-54150D01*
X54802Y-51777D02*
X54907Y-51627D01*
X54982Y-51777D02*
X54982Y-51462D01*
X54862Y-51462D01*
X54832Y-51477D01*
X54817Y-51492D01*
X54802Y-51522D01*
X54802Y-51567D01*
X54817Y-51597D01*
X54832Y-51612D01*
X54862Y-51627D01*
X54982Y-51627D01*
X54902Y-56577D02*
X55007Y-56427D01*
X55082Y-56577D02*
X55082Y-56262D01*
X54962Y-56262D01*
X54932Y-56277D01*
X54917Y-56292D01*
X54902Y-56322D01*
X54902Y-56367D01*
X54917Y-56397D01*
X54932Y-56412D01*
X54962Y-56427D01*
X55082Y-56427D01*
X54432Y-52027D02*
X54432Y-51712D01*
X54357Y-51712D01*
X54312Y-51727D01*
X54282Y-51757D01*
X54267Y-51787D01*
X54252Y-51847D01*
X54252Y-51892D01*
X54267Y-51952D01*
X54282Y-51982D01*
X54312Y-52012D01*
X54357Y-52027D01*
X54432Y-52027D01*
X54432Y-56277D02*
X54432Y-55962D01*
X54357Y-55962D01*
X54312Y-55977D01*
X54282Y-56007D01*
X54267Y-56037D01*
X54252Y-56097D01*
X54252Y-56142D01*
X54267Y-56202D01*
X54282Y-56232D01*
X54312Y-56262D01*
X54357Y-56277D01*
X54432Y-56277D01*
X58047Y-51712D02*
X58002Y-51727D01*
X57927Y-51727D01*
X57897Y-51712D01*
X57882Y-51697D01*
X57867Y-51667D01*
X57867Y-51637D01*
X57882Y-51607D01*
X57897Y-51592D01*
X57927Y-51577D01*
X57987Y-51562D01*
X58017Y-51547D01*
X58032Y-51532D01*
X58047Y-51502D01*
X58047Y-51472D01*
X58032Y-51442D01*
X58017Y-51427D01*
X57987Y-51412D01*
X57912Y-51412D01*
X57867Y-51427D01*
X57552Y-51697D02*
X57567Y-51712D01*
X57612Y-51727D01*
X57642Y-51727D01*
X57687Y-51712D01*
X57717Y-51682D01*
X57732Y-51652D01*
X57747Y-51592D01*
X57747Y-51547D01*
X57732Y-51487D01*
X57717Y-51457D01*
X57687Y-51427D01*
X57642Y-51412D01*
X57612Y-51412D01*
X57567Y-51427D01*
X57552Y-51442D01*
X58947Y-53362D02*
X58902Y-53377D01*
X58827Y-53377D01*
X58797Y-53362D01*
X58782Y-53347D01*
X58767Y-53317D01*
X58767Y-53287D01*
X58782Y-53257D01*
X58797Y-53242D01*
X58827Y-53227D01*
X58887Y-53212D01*
X58917Y-53197D01*
X58932Y-53182D01*
X58947Y-53152D01*
X58947Y-53122D01*
X58932Y-53092D01*
X58917Y-53077D01*
X58887Y-53062D01*
X58812Y-53062D01*
X58767Y-53077D01*
X58452Y-53377D02*
X58557Y-53227D01*
X58632Y-53377D02*
X58632Y-53062D01*
X58512Y-53062D01*
X58482Y-53077D01*
X58467Y-53092D01*
X58452Y-53122D01*
X58452Y-53167D01*
X58467Y-53197D01*
X58482Y-53212D01*
X58512Y-53227D01*
X58632Y-53227D01*
X58359Y-56377D02*
X58509Y-56377D01*
X58509Y-56062D01*
X58075Y-56377D02*
X58180Y-56227D01*
X58255Y-56377D02*
X58255Y-56062D01*
X58135Y-56062D01*
X58105Y-56077D01*
X58090Y-56092D01*
X58075Y-56122D01*
X58075Y-56167D01*
X58090Y-56197D01*
X58105Y-56212D01*
X58135Y-56227D01*
X58255Y-56227D01*
X50502Y-51727D02*
X50607Y-51577D01*
X50682Y-51727D02*
X50682Y-51412D01*
X50562Y-51412D01*
X50532Y-51427D01*
X50517Y-51442D01*
X50502Y-51472D01*
X50502Y-51517D01*
X50517Y-51547D01*
X50532Y-51562D01*
X50562Y-51577D01*
X50682Y-51577D01*
X51332Y-51977D02*
X51332Y-51662D01*
X51257Y-51662D01*
X51212Y-51677D01*
X51182Y-51707D01*
X51167Y-51737D01*
X51152Y-51797D01*
X51152Y-51842D01*
X51167Y-51902D01*
X51182Y-51932D01*
X51212Y-51962D01*
X51257Y-51977D01*
X51332Y-51977D01*
X50882Y-56327D02*
X50882Y-56012D01*
X50807Y-56012D01*
X50762Y-56027D01*
X50732Y-56057D01*
X50717Y-56087D01*
X50702Y-56147D01*
X50702Y-56192D01*
X50717Y-56252D01*
X50732Y-56282D01*
X50762Y-56312D01*
X50807Y-56327D01*
X50882Y-56327D01*
X55047Y-57212D02*
X55002Y-57227D01*
X54927Y-57227D01*
X54897Y-57212D01*
X54882Y-57197D01*
X54867Y-57167D01*
X54867Y-57137D01*
X54882Y-57107D01*
X54897Y-57092D01*
X54927Y-57077D01*
X54987Y-57062D01*
X55017Y-57047D01*
X55032Y-57032D01*
X55047Y-57002D01*
X55047Y-56972D01*
X55032Y-56942D01*
X55017Y-56927D01*
X54987Y-56912D01*
X54912Y-56912D01*
X54867Y-56927D01*
X54552Y-57197D02*
X54567Y-57212D01*
X54612Y-57227D01*
X54642Y-57227D01*
X54687Y-57212D01*
X54717Y-57182D01*
X54732Y-57152D01*
X54747Y-57092D01*
X54747Y-57047D01*
X54732Y-56987D01*
X54717Y-56957D01*
X54687Y-56927D01*
X54642Y-56912D01*
X54612Y-56912D01*
X54567Y-56927D01*
X54552Y-56942D01*
X52309Y-57227D02*
X52459Y-57227D01*
X52459Y-56912D01*
X52025Y-57197D02*
X52040Y-57212D01*
X52085Y-57227D01*
X52115Y-57227D01*
X52160Y-57212D01*
X52190Y-57182D01*
X52205Y-57152D01*
X52220Y-57092D01*
X52220Y-57047D01*
X52205Y-56987D01*
X52190Y-56957D01*
X52160Y-56927D01*
X52115Y-56912D01*
X52085Y-56912D01*
X52040Y-56927D01*
X52025Y-56942D01*
X43002Y-51677D02*
X43107Y-51527D01*
X43182Y-51677D02*
X43182Y-51362D01*
X43062Y-51362D01*
X43032Y-51377D01*
X43017Y-51392D01*
X43002Y-51422D01*
X43002Y-51467D01*
X43017Y-51497D01*
X43032Y-51512D01*
X43062Y-51527D01*
X43182Y-51527D01*
X43832Y-51977D02*
X43832Y-51662D01*
X43757Y-51662D01*
X43712Y-51677D01*
X43682Y-51707D01*
X43667Y-51737D01*
X43652Y-51797D01*
X43652Y-51842D01*
X43667Y-51902D01*
X43682Y-51932D01*
X43712Y-51962D01*
X43757Y-51977D01*
X43832Y-51977D01*
X49402Y-56677D02*
X49507Y-56527D01*
X49582Y-56677D02*
X49582Y-56362D01*
X49462Y-56362D01*
X49432Y-56377D01*
X49417Y-56392D01*
X49402Y-56422D01*
X49402Y-56467D01*
X49417Y-56497D01*
X49432Y-56512D01*
X49462Y-56527D01*
X49582Y-56527D01*
X49309Y-57327D02*
X49459Y-57327D01*
X49459Y-57012D01*
X49025Y-57297D02*
X49040Y-57312D01*
X49085Y-57327D01*
X49115Y-57327D01*
X49160Y-57312D01*
X49190Y-57282D01*
X49205Y-57252D01*
X49220Y-57192D01*
X49220Y-57147D01*
X49205Y-57087D01*
X49190Y-57057D01*
X49160Y-57027D01*
X49115Y-57012D01*
X49085Y-57012D01*
X49040Y-57027D01*
X49025Y-57042D01*
X47847Y-56512D02*
X47802Y-56527D01*
X47727Y-56527D01*
X47697Y-56512D01*
X47682Y-56497D01*
X47667Y-56467D01*
X47667Y-56437D01*
X47682Y-56407D01*
X47697Y-56392D01*
X47727Y-56377D01*
X47787Y-56362D01*
X47817Y-56347D01*
X47832Y-56332D01*
X47847Y-56302D01*
X47847Y-56272D01*
X47832Y-56242D01*
X47817Y-56227D01*
X47787Y-56212D01*
X47712Y-56212D01*
X47667Y-56227D01*
X47352Y-56497D02*
X47367Y-56512D01*
X47412Y-56527D01*
X47442Y-56527D01*
X47487Y-56512D01*
X47517Y-56482D01*
X47532Y-56452D01*
X47547Y-56392D01*
X47547Y-56347D01*
X47532Y-56287D01*
X47517Y-56257D01*
X47487Y-56227D01*
X47442Y-56212D01*
X47412Y-56212D01*
X47367Y-56227D01*
X47352Y-56242D01*
X43832Y-56277D02*
X43832Y-55962D01*
X43757Y-55962D01*
X43712Y-55977D01*
X43682Y-56007D01*
X43667Y-56037D01*
X43652Y-56097D01*
X43652Y-56142D01*
X43667Y-56202D01*
X43682Y-56232D01*
X43712Y-56262D01*
X43757Y-56277D01*
X43832Y-56277D01*
X42952Y-56527D02*
X43057Y-56377D01*
X43132Y-56527D02*
X43132Y-56212D01*
X43012Y-56212D01*
X42982Y-56227D01*
X42967Y-56242D01*
X42952Y-56272D01*
X42952Y-56317D01*
X42967Y-56347D01*
X42982Y-56362D01*
X43012Y-56377D01*
X43132Y-56377D01*
X41809Y-56977D02*
X41959Y-56977D01*
X41959Y-56662D01*
X41525Y-56947D02*
X41540Y-56962D01*
X41585Y-56977D01*
X41615Y-56977D01*
X41660Y-56962D01*
X41690Y-56932D01*
X41705Y-56902D01*
X41720Y-56842D01*
X41720Y-56797D01*
X41705Y-56737D01*
X41690Y-56707D01*
X41660Y-56677D01*
X41615Y-56662D01*
X41585Y-56662D01*
X41540Y-56677D01*
X41525Y-56692D01*
X40447Y-56512D02*
X40402Y-56527D01*
X40327Y-56527D01*
X40297Y-56512D01*
X40282Y-56497D01*
X40267Y-56467D01*
X40267Y-56437D01*
X40282Y-56407D01*
X40297Y-56392D01*
X40327Y-56377D01*
X40387Y-56362D01*
X40417Y-56347D01*
X40432Y-56332D01*
X40447Y-56302D01*
X40447Y-56272D01*
X40432Y-56242D01*
X40417Y-56227D01*
X40387Y-56212D01*
X40312Y-56212D01*
X40267Y-56227D01*
X39952Y-56497D02*
X39967Y-56512D01*
X40012Y-56527D01*
X40042Y-56527D01*
X40087Y-56512D01*
X40117Y-56482D01*
X40132Y-56452D01*
X40147Y-56392D01*
X40147Y-56347D01*
X40132Y-56287D01*
X40117Y-56257D01*
X40087Y-56227D01*
X40042Y-56212D01*
X40012Y-56212D01*
X39967Y-56227D01*
X39952Y-56242D01*
X38859Y-56477D02*
X39009Y-56477D01*
X39009Y-56162D01*
X38575Y-56477D02*
X38680Y-56327D01*
X38755Y-56477D02*
X38755Y-56162D01*
X38635Y-56162D01*
X38605Y-56177D01*
X38590Y-56192D01*
X38575Y-56222D01*
X38575Y-56267D01*
X38590Y-56297D01*
X38605Y-56312D01*
X38635Y-56327D01*
X38755Y-56327D01*
X39047Y-53862D02*
X39002Y-53877D01*
X38927Y-53877D01*
X38897Y-53862D01*
X38882Y-53847D01*
X38867Y-53817D01*
X38867Y-53787D01*
X38882Y-53757D01*
X38897Y-53742D01*
X38927Y-53727D01*
X38987Y-53712D01*
X39017Y-53697D01*
X39032Y-53682D01*
X39047Y-53652D01*
X39047Y-53622D01*
X39032Y-53592D01*
X39017Y-53577D01*
X38987Y-53562D01*
X38912Y-53562D01*
X38867Y-53577D01*
X38552Y-53877D02*
X38657Y-53727D01*
X38732Y-53877D02*
X38732Y-53562D01*
X38612Y-53562D01*
X38582Y-53577D01*
X38567Y-53592D01*
X38552Y-53622D01*
X38552Y-53667D01*
X38567Y-53697D01*
X38582Y-53712D01*
X38612Y-53727D01*
X38732Y-53727D01*
X46932Y-44477D02*
X46932Y-44162D01*
X46857Y-44162D01*
X46812Y-44177D01*
X46782Y-44207D01*
X46767Y-44237D01*
X46752Y-44297D01*
X46752Y-44342D01*
X46767Y-44402D01*
X46782Y-44432D01*
X46812Y-44462D01*
X46857Y-44477D01*
X46932Y-44477D01*
X46932Y-48827D02*
X46932Y-48512D01*
X46857Y-48512D01*
X46812Y-48527D01*
X46782Y-48557D01*
X46767Y-48587D01*
X46752Y-48647D01*
X46752Y-48692D01*
X46767Y-48752D01*
X46782Y-48782D01*
X46812Y-48812D01*
X46857Y-48827D01*
X46932Y-48827D01*
X50432Y-48827D02*
X50432Y-48512D01*
X50357Y-48512D01*
X50312Y-48527D01*
X50282Y-48557D01*
X50267Y-48587D01*
X50252Y-48647D01*
X50252Y-48692D01*
X50267Y-48752D01*
X50282Y-48782D01*
X50312Y-48812D01*
X50357Y-48827D01*
X50432Y-48827D01*
X50432Y-44477D02*
X50432Y-44162D01*
X50357Y-44162D01*
X50312Y-44177D01*
X50282Y-44207D01*
X50267Y-44237D01*
X50252Y-44297D01*
X50252Y-44342D01*
X50267Y-44402D01*
X50282Y-44432D01*
X50312Y-44462D01*
X50357Y-44477D01*
X50432Y-44477D01*
X54409Y-49827D02*
X54559Y-49827D01*
X54559Y-49512D01*
X54125Y-49797D02*
X54140Y-49812D01*
X54185Y-49827D01*
X54215Y-49827D01*
X54260Y-49812D01*
X54290Y-49782D01*
X54305Y-49752D01*
X54320Y-49692D01*
X54320Y-49647D01*
X54305Y-49587D01*
X54290Y-49557D01*
X54260Y-49527D01*
X54215Y-49512D01*
X54185Y-49512D01*
X54140Y-49527D01*
X54125Y-49542D01*
X46049Y-55812D02*
X45944Y-56127D01*
X45839Y-55812D01*
X45735Y-56007D02*
X45495Y-56007D01*
X45615Y-56127D02*
X45615Y-55887D01*
X44939Y-55827D02*
X44969Y-55812D01*
X45014Y-55812D01*
X45059Y-55827D01*
X45089Y-55857D01*
X45104Y-55887D01*
X45119Y-55947D01*
X45119Y-55992D01*
X45104Y-56052D01*
X45089Y-56082D01*
X45059Y-56112D01*
X45014Y-56127D01*
X44984Y-56127D01*
X44939Y-56112D01*
X44924Y-56097D01*
X44924Y-55992D01*
X44984Y-55992D01*
X44789Y-56127D02*
X44789Y-55812D01*
X44610Y-56127D01*
X44610Y-55812D01*
X44460Y-56127D02*
X44460Y-55812D01*
X44385Y-55812D01*
X44340Y-55827D01*
X44310Y-55857D01*
X44295Y-55887D01*
X44280Y-55947D01*
X44280Y-55992D01*
X44295Y-56052D01*
X44310Y-56082D01*
X44340Y-56112D01*
X44385Y-56127D01*
X44460Y-56127D01*
X53127Y-50460D02*
X53112Y-50430D01*
X53112Y-50385D01*
X53127Y-50340D01*
X53157Y-50310D01*
X53187Y-50295D01*
X53247Y-50280D01*
X53292Y-50280D01*
X53352Y-50295D01*
X53382Y-50310D01*
X53412Y-50340D01*
X53427Y-50385D01*
X53427Y-50415D01*
X53412Y-50460D01*
X53397Y-50475D01*
X53292Y-50475D01*
X53292Y-50415D01*
X53427Y-50610D02*
X53112Y-50610D01*
X53427Y-50789D01*
X53112Y-50789D01*
X53427Y-50939D02*
X53112Y-50939D01*
X53112Y-51014D01*
X53127Y-51059D01*
X53157Y-51089D01*
X53187Y-51104D01*
X53247Y-51119D01*
X53292Y-51119D01*
X53352Y-51104D01*
X53382Y-51089D01*
X53412Y-51059D01*
X53427Y-51014D01*
X53427Y-50939D01*
X53112Y-49450D02*
X53427Y-49555D01*
X53112Y-49660D01*
X53307Y-49764D02*
X53307Y-50004D01*
X53427Y-49884D02*
X53187Y-49884D01*
X47627Y-50460D02*
X47612Y-50430D01*
X47612Y-50385D01*
X47627Y-50340D01*
X47657Y-50310D01*
X47687Y-50295D01*
X47747Y-50280D01*
X47792Y-50280D01*
X47852Y-50295D01*
X47882Y-50310D01*
X47912Y-50340D01*
X47927Y-50385D01*
X47927Y-50415D01*
X47912Y-50460D01*
X47897Y-50475D01*
X47792Y-50475D01*
X47792Y-50415D01*
X47927Y-50610D02*
X47612Y-50610D01*
X47927Y-50789D01*
X47612Y-50789D01*
X47927Y-50939D02*
X47612Y-50939D01*
X47612Y-51014D01*
X47627Y-51059D01*
X47657Y-51089D01*
X47687Y-51104D01*
X47747Y-51119D01*
X47792Y-51119D01*
X47852Y-51104D01*
X47882Y-51089D01*
X47912Y-51059D01*
X47927Y-51014D01*
X47927Y-50939D01*
X45577Y-50460D02*
X45562Y-50430D01*
X45562Y-50385D01*
X45577Y-50340D01*
X45607Y-50310D01*
X45637Y-50295D01*
X45697Y-50280D01*
X45742Y-50280D01*
X45802Y-50295D01*
X45832Y-50310D01*
X45862Y-50340D01*
X45877Y-50385D01*
X45877Y-50415D01*
X45862Y-50460D01*
X45847Y-50475D01*
X45742Y-50475D01*
X45742Y-50415D01*
X45877Y-50610D02*
X45562Y-50610D01*
X45877Y-50789D01*
X45562Y-50789D01*
X45877Y-50939D02*
X45562Y-50939D01*
X45562Y-51014D01*
X45577Y-51059D01*
X45607Y-51089D01*
X45637Y-51104D01*
X45697Y-51119D01*
X45742Y-51119D01*
X45802Y-51104D01*
X45832Y-51089D01*
X45862Y-51059D01*
X45877Y-51014D01*
X45877Y-50939D01*
X47562Y-49450D02*
X47877Y-49555D01*
X47562Y-49660D01*
X47757Y-49764D02*
X47757Y-50004D01*
X47877Y-49884D02*
X47637Y-49884D01*
X45562Y-49450D02*
X45877Y-49555D01*
X45562Y-49660D01*
X45757Y-49764D02*
X45757Y-50004D01*
X45877Y-49884D02*
X45637Y-49884D01*
X43577Y-50460D02*
X43562Y-50430D01*
X43562Y-50385D01*
X43577Y-50340D01*
X43607Y-50310D01*
X43637Y-50295D01*
X43697Y-50280D01*
X43742Y-50280D01*
X43802Y-50295D01*
X43832Y-50310D01*
X43862Y-50340D01*
X43877Y-50385D01*
X43877Y-50415D01*
X43862Y-50460D01*
X43847Y-50475D01*
X43742Y-50475D01*
X43742Y-50415D01*
X43877Y-50610D02*
X43562Y-50610D01*
X43877Y-50789D01*
X43562Y-50789D01*
X43877Y-50939D02*
X43562Y-50939D01*
X43562Y-51014D01*
X43577Y-51059D01*
X43607Y-51089D01*
X43637Y-51104D01*
X43697Y-51119D01*
X43742Y-51119D01*
X43802Y-51104D01*
X43832Y-51089D01*
X43862Y-51059D01*
X43877Y-51014D01*
X43877Y-50939D01*
X43562Y-49450D02*
X43877Y-49555D01*
X43562Y-49660D01*
X43757Y-49764D02*
X43757Y-50004D01*
X43877Y-49884D02*
X43637Y-49884D01*
X51127Y-50460D02*
X51112Y-50430D01*
X51112Y-50385D01*
X51127Y-50340D01*
X51157Y-50310D01*
X51187Y-50295D01*
X51247Y-50280D01*
X51292Y-50280D01*
X51352Y-50295D01*
X51382Y-50310D01*
X51412Y-50340D01*
X51427Y-50385D01*
X51427Y-50415D01*
X51412Y-50460D01*
X51397Y-50475D01*
X51292Y-50475D01*
X51292Y-50415D01*
X51427Y-50610D02*
X51112Y-50610D01*
X51427Y-50789D01*
X51112Y-50789D01*
X51427Y-50939D02*
X51112Y-50939D01*
X51112Y-51014D01*
X51127Y-51059D01*
X51157Y-51089D01*
X51187Y-51104D01*
X51247Y-51119D01*
X51292Y-51119D01*
X51352Y-51104D01*
X51382Y-51089D01*
X51412Y-51059D01*
X51427Y-51014D01*
X51427Y-50939D01*
X51112Y-49450D02*
X51427Y-49555D01*
X51112Y-49660D01*
X51307Y-49764D02*
X51307Y-50004D01*
X51427Y-49884D02*
X51187Y-49884D01*
X51902Y-48177D02*
X52007Y-48027D01*
X52082Y-48177D02*
X52082Y-47862D01*
X51962Y-47862D01*
X51932Y-47877D01*
X51917Y-47892D01*
X51902Y-47922D01*
X51902Y-47967D01*
X51917Y-47997D01*
X51932Y-48012D01*
X51962Y-48027D01*
X52082Y-48027D01*
X51902Y-45077D02*
X52007Y-44927D01*
X52082Y-45077D02*
X52082Y-44762D01*
X51962Y-44762D01*
X51932Y-44777D01*
X51917Y-44792D01*
X51902Y-44822D01*
X51902Y-44867D01*
X51917Y-44897D01*
X51932Y-44912D01*
X51962Y-44927D01*
X52082Y-44927D01*
X54409Y-48577D02*
X54559Y-48577D01*
X54559Y-48262D01*
X54125Y-48577D02*
X54230Y-48427D01*
X54305Y-48577D02*
X54305Y-48262D01*
X54185Y-48262D01*
X54155Y-48277D01*
X54140Y-48292D01*
X54125Y-48322D01*
X54125Y-48367D01*
X54140Y-48397D01*
X54155Y-48412D01*
X54185Y-48427D01*
X54305Y-48427D01*
X54547Y-46012D02*
X54502Y-46027D01*
X54427Y-46027D01*
X54397Y-46012D01*
X54382Y-45997D01*
X54367Y-45967D01*
X54367Y-45937D01*
X54382Y-45907D01*
X54397Y-45892D01*
X54427Y-45877D01*
X54487Y-45862D01*
X54517Y-45847D01*
X54532Y-45832D01*
X54547Y-45802D01*
X54547Y-45772D01*
X54532Y-45742D01*
X54517Y-45727D01*
X54487Y-45712D01*
X54412Y-45712D01*
X54367Y-45727D01*
X54052Y-46027D02*
X54157Y-45877D01*
X54232Y-46027D02*
X54232Y-45712D01*
X54112Y-45712D01*
X54082Y-45727D01*
X54067Y-45742D01*
X54052Y-45772D01*
X54052Y-45817D01*
X54067Y-45847D01*
X54082Y-45862D01*
X54112Y-45877D01*
X54232Y-45877D01*
X42209Y-48027D02*
X42359Y-48027D01*
X42359Y-47712D01*
X41925Y-48027D02*
X42030Y-47877D01*
X42105Y-48027D02*
X42105Y-47712D01*
X41985Y-47712D01*
X41955Y-47727D01*
X41940Y-47742D01*
X41925Y-47772D01*
X41925Y-47817D01*
X41940Y-47847D01*
X41955Y-47862D01*
X41985Y-47877D01*
X42105Y-47877D01*
X45452Y-48227D02*
X45557Y-48077D01*
X45632Y-48227D02*
X45632Y-47912D01*
X45512Y-47912D01*
X45482Y-47927D01*
X45467Y-47942D01*
X45452Y-47972D01*
X45452Y-48017D01*
X45467Y-48047D01*
X45482Y-48062D01*
X45512Y-48077D01*
X45632Y-48077D01*
X45402Y-45077D02*
X45507Y-44927D01*
X45582Y-45077D02*
X45582Y-44762D01*
X45462Y-44762D01*
X45432Y-44777D01*
X45417Y-44792D01*
X45402Y-44822D01*
X45402Y-44867D01*
X45417Y-44897D01*
X45432Y-44912D01*
X45462Y-44927D01*
X45582Y-44927D01*
X49497Y-45312D02*
X49452Y-45327D01*
X49377Y-45327D01*
X49347Y-45312D01*
X49332Y-45297D01*
X49317Y-45267D01*
X49317Y-45237D01*
X49332Y-45207D01*
X49347Y-45192D01*
X49377Y-45177D01*
X49437Y-45162D01*
X49467Y-45147D01*
X49482Y-45132D01*
X49497Y-45102D01*
X49497Y-45072D01*
X49482Y-45042D01*
X49467Y-45027D01*
X49437Y-45012D01*
X49362Y-45012D01*
X49317Y-45027D01*
X49002Y-45297D02*
X49017Y-45312D01*
X49062Y-45327D01*
X49092Y-45327D01*
X49137Y-45312D01*
X49167Y-45282D01*
X49182Y-45252D01*
X49197Y-45192D01*
X49197Y-45147D01*
X49182Y-45087D01*
X49167Y-45057D01*
X49137Y-45027D01*
X49092Y-45012D01*
X49062Y-45012D01*
X49017Y-45027D01*
X49002Y-45042D01*
X47859Y-45327D02*
X48009Y-45327D01*
X48009Y-45012D01*
X47575Y-45297D02*
X47590Y-45312D01*
X47635Y-45327D01*
X47665Y-45327D01*
X47710Y-45312D01*
X47740Y-45282D01*
X47755Y-45252D01*
X47770Y-45192D01*
X47770Y-45147D01*
X47755Y-45087D01*
X47740Y-45057D01*
X47710Y-45027D01*
X47665Y-45012D01*
X47635Y-45012D01*
X47590Y-45027D01*
X47575Y-45042D01*
X42397Y-45962D02*
X42352Y-45977D01*
X42277Y-45977D01*
X42247Y-45962D01*
X42232Y-45947D01*
X42217Y-45917D01*
X42217Y-45887D01*
X42232Y-45857D01*
X42247Y-45842D01*
X42277Y-45827D01*
X42337Y-45812D01*
X42367Y-45797D01*
X42382Y-45782D01*
X42397Y-45752D01*
X42397Y-45722D01*
X42382Y-45692D01*
X42367Y-45677D01*
X42337Y-45662D01*
X42262Y-45662D01*
X42217Y-45677D01*
X41902Y-45977D02*
X42007Y-45827D01*
X42082Y-45977D02*
X42082Y-45662D01*
X41962Y-45662D01*
X41932Y-45677D01*
X41917Y-45692D01*
X41902Y-45722D01*
X41902Y-45767D01*
X41917Y-45797D01*
X41932Y-45812D01*
X41962Y-45827D01*
X42082Y-45827D01*
X43497Y-44512D02*
X43452Y-44527D01*
X43377Y-44527D01*
X43347Y-44512D01*
X43332Y-44497D01*
X43317Y-44467D01*
X43317Y-44437D01*
X43332Y-44407D01*
X43347Y-44392D01*
X43377Y-44377D01*
X43437Y-44362D01*
X43467Y-44347D01*
X43482Y-44332D01*
X43497Y-44302D01*
X43497Y-44272D01*
X43482Y-44242D01*
X43467Y-44227D01*
X43437Y-44212D01*
X43362Y-44212D01*
X43317Y-44227D01*
X43002Y-44497D02*
X43017Y-44512D01*
X43062Y-44527D01*
X43092Y-44527D01*
X43137Y-44512D01*
X43167Y-44482D01*
X43182Y-44452D01*
X43197Y-44392D01*
X43197Y-44347D01*
X43182Y-44287D01*
X43167Y-44257D01*
X43137Y-44227D01*
X43092Y-44212D01*
X43062Y-44212D01*
X43017Y-44227D01*
X43002Y-44242D01*
X43909Y-45327D02*
X44059Y-45327D01*
X44059Y-45012D01*
X43625Y-45297D02*
X43640Y-45312D01*
X43685Y-45327D01*
X43715Y-45327D01*
X43760Y-45312D01*
X43790Y-45282D01*
X43805Y-45252D01*
X43820Y-45192D01*
X43820Y-45147D01*
X43805Y-45087D01*
X43790Y-45057D01*
X43760Y-45027D01*
X43715Y-45012D01*
X43685Y-45012D01*
X43640Y-45027D01*
X43625Y-45042D01*
G54D15*
X55000Y-52750D02*
X55000Y-55250D01*
X55000Y-55250D02*
X56000Y-55250D01*
X56000Y-55250D02*
X56000Y-52750D01*
X56000Y-52750D02*
X55000Y-52750D01*
X55500Y-56000D02*
X55500Y-55250D01*
X55500Y-52000D02*
X55500Y-52750D01*
X50500Y-55250D02*
X50500Y-52750D01*
X50500Y-52750D02*
X49500Y-52750D01*
X49500Y-52750D02*
X49500Y-55250D01*
X49500Y-55250D02*
X50500Y-55250D01*
X50000Y-52000D02*
X50000Y-52750D01*
X50000Y-56000D02*
X50000Y-55250D01*
X51000Y-45250D02*
X51000Y-47750D01*
X51000Y-47750D02*
X52000Y-47750D01*
X52000Y-47750D02*
X52000Y-45250D01*
X52000Y-45250D02*
X51000Y-45250D01*
X51500Y-48500D02*
X51500Y-47750D01*
X51500Y-44500D02*
X51500Y-45250D01*
X43000Y-55250D02*
X43000Y-52750D01*
X43000Y-52750D02*
X42000Y-52750D01*
X42000Y-52750D02*
X42000Y-55250D01*
X42000Y-55250D02*
X43000Y-55250D01*
X42500Y-52000D02*
X42500Y-52750D01*
X42500Y-56000D02*
X42500Y-55250D01*
X46500Y-47750D02*
X46500Y-45250D01*
X46500Y-45250D02*
X45500Y-45250D01*
X45500Y-45250D02*
X45500Y-47750D01*
X45500Y-47750D02*
X46500Y-47750D01*
X46000Y-44500D02*
X46000Y-45250D01*
X46000Y-48500D02*
X46000Y-47750D01*
G54D16*
X43500Y-52500D02*
X43500Y-52800D01*
X43500Y-52800D02*
X43900Y-52800D01*
X43900Y-52800D02*
X43900Y-55200D01*
X43900Y-55200D02*
X43500Y-55200D01*
X43500Y-55200D02*
X43500Y-55500D01*
X43500Y-55200D02*
X43100Y-55200D01*
X43100Y-55200D02*
X43100Y-52800D01*
X43100Y-52800D02*
X43500Y-52800D01*
X43900Y-53000D02*
X43100Y-53000D01*
X43100Y-53100D02*
X43900Y-53100D01*
X50500Y-48000D02*
X50500Y-47700D01*
X50500Y-47700D02*
X50100Y-47700D01*
X50100Y-47700D02*
X50100Y-45300D01*
X50100Y-45300D02*
X50500Y-45300D01*
X50500Y-45300D02*
X50500Y-45000D01*
X50500Y-45300D02*
X50900Y-45300D01*
X50900Y-45300D02*
X50900Y-47700D01*
X50900Y-47700D02*
X50500Y-47700D01*
X50100Y-47500D02*
X50900Y-47500D01*
X50900Y-47400D02*
X50100Y-47400D01*
X51000Y-52500D02*
X51000Y-52800D01*
X51000Y-52800D02*
X51400Y-52800D01*
X51400Y-52800D02*
X51400Y-55200D01*
X51400Y-55200D02*
X51000Y-55200D01*
X51000Y-55200D02*
X51000Y-55500D01*
X51000Y-55200D02*
X50600Y-55200D01*
X50600Y-55200D02*
X50600Y-52800D01*
X50600Y-52800D02*
X51000Y-52800D01*
X51400Y-53000D02*
X50600Y-53000D01*
X50600Y-53100D02*
X51400Y-53100D01*
X47000Y-45000D02*
X47000Y-45300D01*
X47000Y-45300D02*
X47400Y-45300D01*
X47400Y-45300D02*
X47400Y-47700D01*
X47400Y-47700D02*
X47000Y-47700D01*
X47000Y-47700D02*
X47000Y-48000D01*
X47000Y-47700D02*
X46600Y-47700D01*
X46600Y-47700D02*
X46600Y-45300D01*
X46600Y-45300D02*
X47000Y-45300D01*
X47400Y-45500D02*
X46600Y-45500D01*
X46600Y-45600D02*
X47400Y-45600D01*
X54500Y-55500D02*
X54500Y-55200D01*
X54500Y-55200D02*
X54100Y-55200D01*
X54100Y-55200D02*
X54100Y-52800D01*
X54100Y-52800D02*
X54500Y-52800D01*
X54500Y-52800D02*
X54500Y-52500D01*
X54500Y-52800D02*
X54900Y-52800D01*
X54900Y-52800D02*
X54900Y-55200D01*
X54900Y-55200D02*
X54500Y-55200D01*
X54100Y-55000D02*
X54900Y-55000D01*
X54900Y-54900D02*
X54100Y-54900D01*
G54D14*
X55627Y-53137D02*
X55477Y-53032D01*
X55627Y-52957D02*
X55312Y-52957D01*
X55312Y-53077D01*
X55327Y-53107D01*
X55342Y-53122D01*
X55372Y-53137D01*
X55417Y-53137D01*
X55447Y-53122D01*
X55462Y-53107D01*
X55477Y-53077D01*
X55477Y-52957D01*
X55462Y-53272D02*
X55462Y-53377D01*
X55627Y-53422D02*
X55627Y-53272D01*
X55312Y-53272D01*
X55312Y-53422D01*
X55612Y-53542D02*
X55627Y-53587D01*
X55627Y-53662D01*
X55612Y-53692D01*
X55597Y-53707D01*
X55567Y-53722D01*
X55537Y-53722D01*
X55507Y-53707D01*
X55492Y-53692D01*
X55477Y-53662D01*
X55462Y-53602D01*
X55447Y-53572D01*
X55432Y-53557D01*
X55402Y-53542D01*
X55372Y-53542D01*
X55342Y-53557D01*
X55327Y-53572D01*
X55312Y-53602D01*
X55312Y-53677D01*
X55327Y-53722D01*
X55627Y-53857D02*
X55312Y-53857D01*
X55612Y-53992D02*
X55627Y-54037D01*
X55627Y-54112D01*
X55612Y-54142D01*
X55597Y-54157D01*
X55567Y-54172D01*
X55537Y-54172D01*
X55507Y-54157D01*
X55492Y-54142D01*
X55477Y-54112D01*
X55462Y-54052D01*
X55447Y-54022D01*
X55432Y-54007D01*
X55402Y-53992D01*
X55372Y-53992D01*
X55342Y-54007D01*
X55327Y-54022D01*
X55312Y-54052D01*
X55312Y-54127D01*
X55327Y-54172D01*
X55312Y-54262D02*
X55312Y-54442D01*
X55627Y-54352D02*
X55312Y-54352D01*
X55312Y-54607D02*
X55312Y-54667D01*
X55327Y-54697D01*
X55357Y-54727D01*
X55417Y-54742D01*
X55522Y-54742D01*
X55582Y-54727D01*
X55612Y-54697D01*
X55627Y-54667D01*
X55627Y-54607D01*
X55612Y-54577D01*
X55582Y-54547D01*
X55522Y-54532D01*
X55417Y-54532D01*
X55357Y-54547D01*
X55327Y-54577D01*
X55312Y-54607D01*
X55627Y-55057D02*
X55477Y-54952D01*
X55627Y-54877D02*
X55312Y-54877D01*
X55312Y-54997D01*
X55327Y-55027D01*
X55342Y-55042D01*
X55372Y-55057D01*
X55417Y-55057D01*
X55447Y-55042D01*
X55462Y-55027D01*
X55477Y-54997D01*
X55477Y-54877D01*
X50127Y-53137D02*
X49977Y-53032D01*
X50127Y-52957D02*
X49812Y-52957D01*
X49812Y-53077D01*
X49827Y-53107D01*
X49842Y-53122D01*
X49872Y-53137D01*
X49917Y-53137D01*
X49947Y-53122D01*
X49962Y-53107D01*
X49977Y-53077D01*
X49977Y-52957D01*
X49962Y-53272D02*
X49962Y-53377D01*
X50127Y-53422D02*
X50127Y-53272D01*
X49812Y-53272D01*
X49812Y-53422D01*
X50112Y-53542D02*
X50127Y-53587D01*
X50127Y-53662D01*
X50112Y-53692D01*
X50097Y-53707D01*
X50067Y-53722D01*
X50037Y-53722D01*
X50007Y-53707D01*
X49992Y-53692D01*
X49977Y-53662D01*
X49962Y-53602D01*
X49947Y-53572D01*
X49932Y-53557D01*
X49902Y-53542D01*
X49872Y-53542D01*
X49842Y-53557D01*
X49827Y-53572D01*
X49812Y-53602D01*
X49812Y-53677D01*
X49827Y-53722D01*
X50127Y-53857D02*
X49812Y-53857D01*
X50112Y-53992D02*
X50127Y-54037D01*
X50127Y-54112D01*
X50112Y-54142D01*
X50097Y-54157D01*
X50067Y-54172D01*
X50037Y-54172D01*
X50007Y-54157D01*
X49992Y-54142D01*
X49977Y-54112D01*
X49962Y-54052D01*
X49947Y-54022D01*
X49932Y-54007D01*
X49902Y-53992D01*
X49872Y-53992D01*
X49842Y-54007D01*
X49827Y-54022D01*
X49812Y-54052D01*
X49812Y-54127D01*
X49827Y-54172D01*
X49812Y-54262D02*
X49812Y-54442D01*
X50127Y-54352D02*
X49812Y-54352D01*
X49812Y-54607D02*
X49812Y-54667D01*
X49827Y-54697D01*
X49857Y-54727D01*
X49917Y-54742D01*
X50022Y-54742D01*
X50082Y-54727D01*
X50112Y-54697D01*
X50127Y-54667D01*
X50127Y-54607D01*
X50112Y-54577D01*
X50082Y-54547D01*
X50022Y-54532D01*
X49917Y-54532D01*
X49857Y-54547D01*
X49827Y-54577D01*
X49812Y-54607D01*
X50127Y-55057D02*
X49977Y-54952D01*
X50127Y-54877D02*
X49812Y-54877D01*
X49812Y-54997D01*
X49827Y-55027D01*
X49842Y-55042D01*
X49872Y-55057D01*
X49917Y-55057D01*
X49947Y-55042D01*
X49962Y-55027D01*
X49977Y-54997D01*
X49977Y-54877D01*
X51627Y-45637D02*
X51477Y-45532D01*
X51627Y-45457D02*
X51312Y-45457D01*
X51312Y-45577D01*
X51327Y-45607D01*
X51342Y-45622D01*
X51372Y-45637D01*
X51417Y-45637D01*
X51447Y-45622D01*
X51462Y-45607D01*
X51477Y-45577D01*
X51477Y-45457D01*
X51462Y-45772D02*
X51462Y-45877D01*
X51627Y-45922D02*
X51627Y-45772D01*
X51312Y-45772D01*
X51312Y-45922D01*
X51612Y-46042D02*
X51627Y-46087D01*
X51627Y-46162D01*
X51612Y-46192D01*
X51597Y-46207D01*
X51567Y-46222D01*
X51537Y-46222D01*
X51507Y-46207D01*
X51492Y-46192D01*
X51477Y-46162D01*
X51462Y-46102D01*
X51447Y-46072D01*
X51432Y-46057D01*
X51402Y-46042D01*
X51372Y-46042D01*
X51342Y-46057D01*
X51327Y-46072D01*
X51312Y-46102D01*
X51312Y-46177D01*
X51327Y-46222D01*
X51627Y-46357D02*
X51312Y-46357D01*
X51612Y-46492D02*
X51627Y-46537D01*
X51627Y-46612D01*
X51612Y-46642D01*
X51597Y-46657D01*
X51567Y-46672D01*
X51537Y-46672D01*
X51507Y-46657D01*
X51492Y-46642D01*
X51477Y-46612D01*
X51462Y-46552D01*
X51447Y-46522D01*
X51432Y-46507D01*
X51402Y-46492D01*
X51372Y-46492D01*
X51342Y-46507D01*
X51327Y-46522D01*
X51312Y-46552D01*
X51312Y-46627D01*
X51327Y-46672D01*
X51312Y-46762D02*
X51312Y-46942D01*
X51627Y-46852D02*
X51312Y-46852D01*
X51312Y-47107D02*
X51312Y-47167D01*
X51327Y-47197D01*
X51357Y-47227D01*
X51417Y-47242D01*
X51522Y-47242D01*
X51582Y-47227D01*
X51612Y-47197D01*
X51627Y-47167D01*
X51627Y-47107D01*
X51612Y-47077D01*
X51582Y-47047D01*
X51522Y-47032D01*
X51417Y-47032D01*
X51357Y-47047D01*
X51327Y-47077D01*
X51312Y-47107D01*
X51627Y-47557D02*
X51477Y-47452D01*
X51627Y-47377D02*
X51312Y-47377D01*
X51312Y-47497D01*
X51327Y-47527D01*
X51342Y-47542D01*
X51372Y-47557D01*
X51417Y-47557D01*
X51447Y-47542D01*
X51462Y-47527D01*
X51477Y-47497D01*
X51477Y-47377D01*
X42627Y-53137D02*
X42477Y-53032D01*
X42627Y-52957D02*
X42312Y-52957D01*
X42312Y-53077D01*
X42327Y-53107D01*
X42342Y-53122D01*
X42372Y-53137D01*
X42417Y-53137D01*
X42447Y-53122D01*
X42462Y-53107D01*
X42477Y-53077D01*
X42477Y-52957D01*
X42462Y-53272D02*
X42462Y-53377D01*
X42627Y-53422D02*
X42627Y-53272D01*
X42312Y-53272D01*
X42312Y-53422D01*
X42612Y-53542D02*
X42627Y-53587D01*
X42627Y-53662D01*
X42612Y-53692D01*
X42597Y-53707D01*
X42567Y-53722D01*
X42537Y-53722D01*
X42507Y-53707D01*
X42492Y-53692D01*
X42477Y-53662D01*
X42462Y-53602D01*
X42447Y-53572D01*
X42432Y-53557D01*
X42402Y-53542D01*
X42372Y-53542D01*
X42342Y-53557D01*
X42327Y-53572D01*
X42312Y-53602D01*
X42312Y-53677D01*
X42327Y-53722D01*
X42627Y-53857D02*
X42312Y-53857D01*
X42612Y-53992D02*
X42627Y-54037D01*
X42627Y-54112D01*
X42612Y-54142D01*
X42597Y-54157D01*
X42567Y-54172D01*
X42537Y-54172D01*
X42507Y-54157D01*
X42492Y-54142D01*
X42477Y-54112D01*
X42462Y-54052D01*
X42447Y-54022D01*
X42432Y-54007D01*
X42402Y-53992D01*
X42372Y-53992D01*
X42342Y-54007D01*
X42327Y-54022D01*
X42312Y-54052D01*
X42312Y-54127D01*
X42327Y-54172D01*
X42312Y-54262D02*
X42312Y-54442D01*
X42627Y-54352D02*
X42312Y-54352D01*
X42312Y-54607D02*
X42312Y-54667D01*
X42327Y-54697D01*
X42357Y-54727D01*
X42417Y-54742D01*
X42522Y-54742D01*
X42582Y-54727D01*
X42612Y-54697D01*
X42627Y-54667D01*
X42627Y-54607D01*
X42612Y-54577D01*
X42582Y-54547D01*
X42522Y-54532D01*
X42417Y-54532D01*
X42357Y-54547D01*
X42327Y-54577D01*
X42312Y-54607D01*
X42627Y-55057D02*
X42477Y-54952D01*
X42627Y-54877D02*
X42312Y-54877D01*
X42312Y-54997D01*
X42327Y-55027D01*
X42342Y-55042D01*
X42372Y-55057D01*
X42417Y-55057D01*
X42447Y-55042D01*
X42462Y-55027D01*
X42477Y-54997D01*
X42477Y-54877D01*
X46127Y-45637D02*
X45977Y-45532D01*
X46127Y-45457D02*
X45812Y-45457D01*
X45812Y-45577D01*
X45827Y-45607D01*
X45842Y-45622D01*
X45872Y-45637D01*
X45917Y-45637D01*
X45947Y-45622D01*
X45962Y-45607D01*
X45977Y-45577D01*
X45977Y-45457D01*
X45962Y-45772D02*
X45962Y-45877D01*
X46127Y-45922D02*
X46127Y-45772D01*
X45812Y-45772D01*
X45812Y-45922D01*
X46112Y-46042D02*
X46127Y-46087D01*
X46127Y-46162D01*
X46112Y-46192D01*
X46097Y-46207D01*
X46067Y-46222D01*
X46037Y-46222D01*
X46007Y-46207D01*
X45992Y-46192D01*
X45977Y-46162D01*
X45962Y-46102D01*
X45947Y-46072D01*
X45932Y-46057D01*
X45902Y-46042D01*
X45872Y-46042D01*
X45842Y-46057D01*
X45827Y-46072D01*
X45812Y-46102D01*
X45812Y-46177D01*
X45827Y-46222D01*
X46127Y-46357D02*
X45812Y-46357D01*
X46112Y-46492D02*
X46127Y-46537D01*
X46127Y-46612D01*
X46112Y-46642D01*
X46097Y-46657D01*
X46067Y-46672D01*
X46037Y-46672D01*
X46007Y-46657D01*
X45992Y-46642D01*
X45977Y-46612D01*
X45962Y-46552D01*
X45947Y-46522D01*
X45932Y-46507D01*
X45902Y-46492D01*
X45872Y-46492D01*
X45842Y-46507D01*
X45827Y-46522D01*
X45812Y-46552D01*
X45812Y-46627D01*
X45827Y-46672D01*
X45812Y-46762D02*
X45812Y-46942D01*
X46127Y-46852D02*
X45812Y-46852D01*
X45812Y-47107D02*
X45812Y-47167D01*
X45827Y-47197D01*
X45857Y-47227D01*
X45917Y-47242D01*
X46022Y-47242D01*
X46082Y-47227D01*
X46112Y-47197D01*
X46127Y-47167D01*
X46127Y-47107D01*
X46112Y-47077D01*
X46082Y-47047D01*
X46022Y-47032D01*
X45917Y-47032D01*
X45857Y-47047D01*
X45827Y-47077D01*
X45812Y-47107D01*
X46127Y-47557D02*
X45977Y-47452D01*
X46127Y-47377D02*
X45812Y-47377D01*
X45812Y-47497D01*
X45827Y-47527D01*
X45842Y-47542D01*
X45872Y-47557D01*
X45917Y-47557D01*
X45947Y-47542D01*
X45962Y-47527D01*
X45977Y-47497D01*
X45977Y-47377D01*
G54D17*
X43661Y-53419D02*
X43261Y-53419D01*
X43261Y-53514D01*
X43280Y-53571D01*
X43319Y-53609D01*
X43357Y-53628D01*
X43433Y-53647D01*
X43490Y-53647D01*
X43566Y-53628D01*
X43604Y-53609D01*
X43642Y-53571D01*
X43661Y-53514D01*
X43661Y-53419D01*
X43261Y-53895D02*
X43261Y-53933D01*
X43280Y-53971D01*
X43300Y-53990D01*
X43338Y-54009D01*
X43414Y-54028D01*
X43509Y-54028D01*
X43585Y-54009D01*
X43623Y-53990D01*
X43642Y-53971D01*
X43661Y-53933D01*
X43661Y-53895D01*
X43642Y-53857D01*
X43623Y-53838D01*
X43585Y-53819D01*
X43509Y-53800D01*
X43414Y-53800D01*
X43338Y-53819D01*
X43300Y-53838D01*
X43280Y-53857D01*
X43261Y-53895D01*
X43623Y-54200D02*
X43642Y-54219D01*
X43661Y-54200D01*
X43642Y-54180D01*
X43623Y-54200D01*
X43661Y-54200D01*
X43414Y-54200D02*
X43433Y-54219D01*
X43452Y-54200D01*
X43433Y-54180D01*
X43414Y-54200D01*
X43452Y-54200D01*
X43661Y-54600D02*
X43661Y-54371D01*
X43661Y-54485D02*
X43261Y-54485D01*
X43319Y-54447D01*
X43357Y-54409D01*
X43376Y-54371D01*
X50661Y-45919D02*
X50261Y-45919D01*
X50261Y-46014D01*
X50280Y-46071D01*
X50319Y-46109D01*
X50357Y-46128D01*
X50433Y-46147D01*
X50490Y-46147D01*
X50566Y-46128D01*
X50604Y-46109D01*
X50642Y-46071D01*
X50661Y-46014D01*
X50661Y-45919D01*
X50661Y-46528D02*
X50661Y-46300D01*
X50661Y-46414D02*
X50261Y-46414D01*
X50319Y-46376D01*
X50357Y-46338D01*
X50376Y-46300D01*
X50623Y-46700D02*
X50642Y-46719D01*
X50661Y-46700D01*
X50642Y-46680D01*
X50623Y-46700D01*
X50661Y-46700D01*
X50414Y-46700D02*
X50433Y-46719D01*
X50452Y-46700D01*
X50433Y-46680D01*
X50414Y-46700D01*
X50452Y-46700D01*
X50261Y-46966D02*
X50261Y-47004D01*
X50280Y-47042D01*
X50300Y-47061D01*
X50338Y-47080D01*
X50414Y-47100D01*
X50509Y-47100D01*
X50585Y-47080D01*
X50623Y-47061D01*
X50642Y-47042D01*
X50661Y-47004D01*
X50661Y-46966D01*
X50642Y-46928D01*
X50623Y-46909D01*
X50585Y-46890D01*
X50509Y-46871D01*
X50414Y-46871D01*
X50338Y-46890D01*
X50300Y-46909D01*
X50280Y-46928D01*
X50261Y-46966D01*
X51161Y-53419D02*
X50761Y-53419D01*
X50761Y-53514D01*
X50780Y-53571D01*
X50819Y-53609D01*
X50857Y-53628D01*
X50933Y-53647D01*
X50990Y-53647D01*
X51066Y-53628D01*
X51104Y-53609D01*
X51142Y-53571D01*
X51161Y-53514D01*
X51161Y-53419D01*
X51161Y-54028D02*
X51161Y-53800D01*
X51161Y-53914D02*
X50761Y-53914D01*
X50819Y-53876D01*
X50857Y-53838D01*
X50876Y-53800D01*
X51123Y-54200D02*
X51142Y-54219D01*
X51161Y-54200D01*
X51142Y-54180D01*
X51123Y-54200D01*
X51161Y-54200D01*
X50914Y-54200D02*
X50933Y-54219D01*
X50952Y-54200D01*
X50933Y-54180D01*
X50914Y-54200D01*
X50952Y-54200D01*
X51161Y-54600D02*
X51161Y-54371D01*
X51161Y-54485D02*
X50761Y-54485D01*
X50819Y-54447D01*
X50857Y-54409D01*
X50876Y-54371D01*
X47161Y-45919D02*
X46761Y-45919D01*
X46761Y-46014D01*
X46780Y-46071D01*
X46819Y-46109D01*
X46857Y-46128D01*
X46933Y-46147D01*
X46990Y-46147D01*
X47066Y-46128D01*
X47104Y-46109D01*
X47142Y-46071D01*
X47161Y-46014D01*
X47161Y-45919D01*
X46761Y-46395D02*
X46761Y-46433D01*
X46780Y-46471D01*
X46800Y-46490D01*
X46838Y-46509D01*
X46914Y-46528D01*
X47009Y-46528D01*
X47085Y-46509D01*
X47123Y-46490D01*
X47142Y-46471D01*
X47161Y-46433D01*
X47161Y-46395D01*
X47142Y-46357D01*
X47123Y-46338D01*
X47085Y-46319D01*
X47009Y-46300D01*
X46914Y-46300D01*
X46838Y-46319D01*
X46800Y-46338D01*
X46780Y-46357D01*
X46761Y-46395D01*
X47123Y-46700D02*
X47142Y-46719D01*
X47161Y-46700D01*
X47142Y-46680D01*
X47123Y-46700D01*
X47161Y-46700D01*
X46914Y-46700D02*
X46933Y-46719D01*
X46952Y-46700D01*
X46933Y-46680D01*
X46914Y-46700D01*
X46952Y-46700D01*
X46761Y-46966D02*
X46761Y-47004D01*
X46780Y-47042D01*
X46800Y-47061D01*
X46838Y-47080D01*
X46914Y-47100D01*
X47009Y-47100D01*
X47085Y-47080D01*
X47123Y-47061D01*
X47142Y-47042D01*
X47161Y-47004D01*
X47161Y-46966D01*
X47142Y-46928D01*
X47123Y-46909D01*
X47085Y-46890D01*
X47009Y-46871D01*
X46914Y-46871D01*
X46838Y-46890D01*
X46800Y-46909D01*
X46780Y-46928D01*
X46761Y-46966D01*
X54661Y-53419D02*
X54261Y-53419D01*
X54261Y-53514D01*
X54280Y-53571D01*
X54319Y-53609D01*
X54357Y-53628D01*
X54433Y-53647D01*
X54490Y-53647D01*
X54566Y-53628D01*
X54604Y-53609D01*
X54642Y-53571D01*
X54661Y-53514D01*
X54661Y-53419D01*
X54300Y-53800D02*
X54280Y-53819D01*
X54261Y-53857D01*
X54261Y-53952D01*
X54280Y-53990D01*
X54300Y-54009D01*
X54338Y-54028D01*
X54376Y-54028D01*
X54433Y-54009D01*
X54661Y-53780D01*
X54661Y-54028D01*
X54623Y-54200D02*
X54642Y-54219D01*
X54661Y-54200D01*
X54642Y-54180D01*
X54623Y-54200D01*
X54661Y-54200D01*
X54414Y-54200D02*
X54433Y-54219D01*
X54452Y-54200D01*
X54433Y-54180D01*
X54414Y-54200D01*
X54452Y-54200D01*
X54661Y-54600D02*
X54661Y-54371D01*
X54661Y-54485D02*
X54261Y-54485D01*
X54319Y-54447D01*
X54357Y-54409D01*
X54376Y-54371D01*
M02*
