M48
INCH,TZ
T1C0.025
T2C0.032
T3C0.035
T4C0.039
T5C0.059
%
G90
G05
T1
X42700Y-53450
X43000Y-47250
X46100Y-52400
X51950Y-53200
X55250Y-54000
T2
X43500Y-52500
X43500Y-53500
X43500Y-54500
X43500Y-55500
X47000Y-45000
X47000Y-46000
X47000Y-47000
X47000Y-48000
X50500Y-45000
X50500Y-46000
X50500Y-47000
X50500Y-48000
X51000Y-52500
X51000Y-53500
X51000Y-54500
X51000Y-55500
X54500Y-52500
X54500Y-53500
X54500Y-54500
X54500Y-55500
T3
X39500Y-54000
X39500Y-56000
X40500Y-57000
X41950Y-45150
X42500Y-44500
X42500Y-48500
X42500Y-57000
X43000Y-49700
X43000Y-50700
X44000Y-44500
X44700Y-56700
X45000Y-49700
X45000Y-50700
X45800Y-56700
X47000Y-49700
X47000Y-50700
X48000Y-44500
X48000Y-57000
X49000Y-44500
X50000Y-57000
X50500Y-49700
X50500Y-50700
X52500Y-49700
X52500Y-50700
X53000Y-56900
X54000Y-56900
X54600Y-45200
X55050Y-48500
X55050Y-49500
X58500Y-51950
X59050Y-52600
X59050Y-56000
T4
X42500Y-52000
X42500Y-56000
X46000Y-44500
X46000Y-48500
X50000Y-52000
X50000Y-56000
X51500Y-44500
X51500Y-48500
X55500Y-52000
X55500Y-56000
T5
X39500Y-53000
X40500Y-55500
X43000Y-45500
X44000Y-48000
X47000Y-53000
X48000Y-55500
X53500Y-45000
X54500Y-47500
X57500Y-52500
X58500Y-55000
T0
M30
