G04 (created by PCBNEW (2013-may-18)-stable) date Sat 22 Aug 2015 11:35:59 PM EDT*
%MOIN*%
G04 Gerber Fmt 3.4, Leading zero omitted, Abs format*
%FSLAX34Y34*%
G01*
G70*
G90*
G04 APERTURE LIST*
%ADD10C,0.00590551*%
%ADD11C,0.01*%
%ADD12C,0.006*%
%ADD13C,0.015*%
G04 APERTURE END LIST*
G54D10*
G54D11*
X44000Y-53280D02*
X43000Y-53280D01*
G54D12*
X43115Y-54360D02*
G75*
G03X43500Y-54500I384J460D01*
G74*
G01*
X43500Y-54499D02*
G75*
G03X43897Y-54348I0J599D01*
G74*
G01*
X43500Y-53300D02*
G75*
G03X43110Y-53444I0J-599D01*
G74*
G01*
X43884Y-53439D02*
G75*
G03X43500Y-53300I-384J-460D01*
G74*
G01*
X43150Y-53412D02*
G75*
G03X42900Y-53900I349J-487D01*
G74*
G01*
X42900Y-53900D02*
G75*
G03X43139Y-54379I600J0D01*
G74*
G01*
X44099Y-53900D02*
G75*
G03X43868Y-53427I-599J0D01*
G74*
G01*
X43868Y-54373D02*
G75*
G03X44100Y-53900I-368J473D01*
G74*
G01*
X43250Y-53900D02*
G75*
G03X43500Y-54150I250J0D01*
G74*
G01*
X43100Y-53900D02*
G75*
G03X43500Y-54300I400J0D01*
G74*
G01*
X43750Y-53900D02*
G75*
G03X43500Y-53650I-250J0D01*
G74*
G01*
X43900Y-53900D02*
G75*
G03X43500Y-53500I-400J0D01*
G74*
G01*
G54D11*
X42986Y-53286D02*
G75*
G03X42700Y-53900I513J-613D01*
G74*
G01*
X42701Y-53900D02*
G75*
G03X43123Y-54604I799J0D01*
G74*
G01*
X44298Y-53898D02*
G75*
G03X44015Y-53289I-798J-1D01*
G74*
G01*
X43897Y-54594D02*
G75*
G03X44300Y-53900I-397J694D01*
G74*
G01*
X43120Y-54604D02*
G75*
G03X43500Y-54700I379J704D01*
G74*
G01*
X43500Y-54699D02*
G75*
G03X43918Y-54581I0J799D01*
G74*
G01*
X50000Y-47220D02*
X51000Y-47220D01*
G54D12*
X50884Y-46139D02*
G75*
G03X50500Y-46000I-384J-460D01*
G74*
G01*
X50500Y-46000D02*
G75*
G03X50102Y-46151I0J-599D01*
G74*
G01*
X50500Y-47199D02*
G75*
G03X50889Y-47055I0J599D01*
G74*
G01*
X50115Y-47060D02*
G75*
G03X50500Y-47200I384J460D01*
G74*
G01*
X50849Y-47087D02*
G75*
G03X51100Y-46600I-349J487D01*
G74*
G01*
X51100Y-46600D02*
G75*
G03X50860Y-46120I-600J0D01*
G74*
G01*
X49900Y-46600D02*
G75*
G03X50131Y-47072I599J0D01*
G74*
G01*
X50131Y-46126D02*
G75*
G03X49900Y-46600I368J-473D01*
G74*
G01*
X50750Y-46600D02*
G75*
G03X50500Y-46350I-250J0D01*
G74*
G01*
X50900Y-46600D02*
G75*
G03X50500Y-46200I-400J0D01*
G74*
G01*
X50250Y-46600D02*
G75*
G03X50500Y-46850I250J0D01*
G74*
G01*
X50100Y-46600D02*
G75*
G03X50500Y-47000I400J0D01*
G74*
G01*
G54D11*
X51013Y-47213D02*
G75*
G03X51300Y-46600I-513J613D01*
G74*
G01*
X51299Y-46600D02*
G75*
G03X50876Y-45895I-799J0D01*
G74*
G01*
X49701Y-46601D02*
G75*
G03X49984Y-47210I798J1D01*
G74*
G01*
X50102Y-45905D02*
G75*
G03X49700Y-46600I397J-694D01*
G74*
G01*
X50879Y-45895D02*
G75*
G03X50500Y-45800I-379J-704D01*
G74*
G01*
X50500Y-45800D02*
G75*
G03X50081Y-45918I0J-799D01*
G74*
G01*
X47500Y-45780D02*
X46500Y-45780D01*
G54D12*
X46615Y-46860D02*
G75*
G03X47000Y-47000I384J460D01*
G74*
G01*
X47000Y-46999D02*
G75*
G03X47397Y-46848I0J599D01*
G74*
G01*
X47000Y-45800D02*
G75*
G03X46610Y-45944I0J-599D01*
G74*
G01*
X47384Y-45939D02*
G75*
G03X47000Y-45800I-384J-460D01*
G74*
G01*
X46650Y-45912D02*
G75*
G03X46400Y-46400I349J-487D01*
G74*
G01*
X46400Y-46400D02*
G75*
G03X46639Y-46879I600J0D01*
G74*
G01*
X47599Y-46400D02*
G75*
G03X47368Y-45927I-599J0D01*
G74*
G01*
X47368Y-46873D02*
G75*
G03X47600Y-46400I-368J473D01*
G74*
G01*
X46750Y-46400D02*
G75*
G03X47000Y-46650I250J0D01*
G74*
G01*
X46600Y-46400D02*
G75*
G03X47000Y-46800I400J0D01*
G74*
G01*
X47250Y-46400D02*
G75*
G03X47000Y-46150I-250J0D01*
G74*
G01*
X47400Y-46400D02*
G75*
G03X47000Y-46000I-400J0D01*
G74*
G01*
G54D11*
X46486Y-45786D02*
G75*
G03X46200Y-46400I513J-613D01*
G74*
G01*
X46201Y-46400D02*
G75*
G03X46623Y-47104I799J0D01*
G74*
G01*
X47798Y-46398D02*
G75*
G03X47515Y-45789I-798J-1D01*
G74*
G01*
X47397Y-47094D02*
G75*
G03X47800Y-46400I-397J694D01*
G74*
G01*
X46620Y-47104D02*
G75*
G03X47000Y-47200I379J704D01*
G74*
G01*
X47000Y-47199D02*
G75*
G03X47418Y-47081I0J799D01*
G74*
G01*
X51500Y-53280D02*
X50500Y-53280D01*
G54D12*
X50615Y-54360D02*
G75*
G03X51000Y-54500I384J460D01*
G74*
G01*
X51000Y-54499D02*
G75*
G03X51397Y-54348I0J599D01*
G74*
G01*
X51000Y-53300D02*
G75*
G03X50610Y-53444I0J-599D01*
G74*
G01*
X51384Y-53439D02*
G75*
G03X51000Y-53300I-384J-460D01*
G74*
G01*
X50650Y-53412D02*
G75*
G03X50400Y-53900I349J-487D01*
G74*
G01*
X50400Y-53900D02*
G75*
G03X50639Y-54379I600J0D01*
G74*
G01*
X51599Y-53900D02*
G75*
G03X51368Y-53427I-599J0D01*
G74*
G01*
X51368Y-54373D02*
G75*
G03X51600Y-53900I-368J473D01*
G74*
G01*
X50750Y-53900D02*
G75*
G03X51000Y-54150I250J0D01*
G74*
G01*
X50600Y-53900D02*
G75*
G03X51000Y-54300I400J0D01*
G74*
G01*
X51250Y-53900D02*
G75*
G03X51000Y-53650I-250J0D01*
G74*
G01*
X51400Y-53900D02*
G75*
G03X51000Y-53500I-400J0D01*
G74*
G01*
G54D11*
X50486Y-53286D02*
G75*
G03X50200Y-53900I513J-613D01*
G74*
G01*
X50201Y-53900D02*
G75*
G03X50623Y-54604I799J0D01*
G74*
G01*
X51798Y-53898D02*
G75*
G03X51515Y-53289I-798J-1D01*
G74*
G01*
X51397Y-54594D02*
G75*
G03X51800Y-53900I-397J694D01*
G74*
G01*
X50620Y-54604D02*
G75*
G03X51000Y-54700I379J704D01*
G74*
G01*
X51000Y-54699D02*
G75*
G03X51418Y-54581I0J799D01*
G74*
G01*
X54000Y-54720D02*
X55000Y-54720D01*
G54D12*
X54884Y-53639D02*
G75*
G03X54500Y-53500I-384J-460D01*
G74*
G01*
X54500Y-53500D02*
G75*
G03X54102Y-53651I0J-599D01*
G74*
G01*
X54500Y-54699D02*
G75*
G03X54889Y-54555I0J599D01*
G74*
G01*
X54115Y-54560D02*
G75*
G03X54500Y-54700I384J460D01*
G74*
G01*
X54849Y-54587D02*
G75*
G03X55100Y-54100I-349J487D01*
G74*
G01*
X55100Y-54100D02*
G75*
G03X54860Y-53620I-600J0D01*
G74*
G01*
X53900Y-54100D02*
G75*
G03X54131Y-54572I599J0D01*
G74*
G01*
X54131Y-53626D02*
G75*
G03X53900Y-54100I368J-473D01*
G74*
G01*
X54750Y-54100D02*
G75*
G03X54500Y-53850I-250J0D01*
G74*
G01*
X54900Y-54100D02*
G75*
G03X54500Y-53700I-400J0D01*
G74*
G01*
X54250Y-54100D02*
G75*
G03X54500Y-54350I250J0D01*
G74*
G01*
X54100Y-54100D02*
G75*
G03X54500Y-54500I400J0D01*
G74*
G01*
G54D11*
X55013Y-54713D02*
G75*
G03X55300Y-54100I-513J613D01*
G74*
G01*
X55299Y-54100D02*
G75*
G03X54876Y-53395I-799J0D01*
G74*
G01*
X53701Y-54101D02*
G75*
G03X53984Y-54710I798J1D01*
G74*
G01*
X54102Y-53405D02*
G75*
G03X53700Y-54100I397J-694D01*
G74*
G01*
X54879Y-53395D02*
G75*
G03X54500Y-53300I-379J-704D01*
G74*
G01*
X54500Y-53300D02*
G75*
G03X54081Y-53418I0J-799D01*
G74*
G01*
G54D13*
X39000Y-56500D02*
X39000Y-55800D01*
X39000Y-52200D02*
X39000Y-51500D01*
X39000Y-51500D02*
X39700Y-51500D01*
X43300Y-51500D02*
X44000Y-51500D01*
X44000Y-51500D02*
X44000Y-52200D01*
X44000Y-55800D02*
X44000Y-56500D01*
X44000Y-56500D02*
X43300Y-56500D01*
X39700Y-56500D02*
X39000Y-56500D01*
X55000Y-44000D02*
X55000Y-44700D01*
X55000Y-48300D02*
X55000Y-49000D01*
X55000Y-49000D02*
X54300Y-49000D01*
X50700Y-49000D02*
X50000Y-49000D01*
X50000Y-49000D02*
X50000Y-48300D01*
X50000Y-44700D02*
X50000Y-44000D01*
X50000Y-44000D02*
X50700Y-44000D01*
X54300Y-44000D02*
X55000Y-44000D01*
X46500Y-56500D02*
X46500Y-55800D01*
X46500Y-52200D02*
X46500Y-51500D01*
X46500Y-51500D02*
X47200Y-51500D01*
X50800Y-51500D02*
X51500Y-51500D01*
X51500Y-51500D02*
X51500Y-52200D01*
X51500Y-55800D02*
X51500Y-56500D01*
X51500Y-56500D02*
X50800Y-56500D01*
X47200Y-56500D02*
X46500Y-56500D01*
X59000Y-51500D02*
X59000Y-52200D01*
X59000Y-55800D02*
X59000Y-56500D01*
X59000Y-56500D02*
X58300Y-56500D01*
X54700Y-56500D02*
X54000Y-56500D01*
X54000Y-56500D02*
X54000Y-55800D01*
X54000Y-52200D02*
X54000Y-51500D01*
X54000Y-51500D02*
X54700Y-51500D01*
X58300Y-51500D02*
X59000Y-51500D01*
X42500Y-49000D02*
X42500Y-48300D01*
X42500Y-44700D02*
X42500Y-44000D01*
X42500Y-44000D02*
X43200Y-44000D01*
X46800Y-44000D02*
X47500Y-44000D01*
X47500Y-44000D02*
X47500Y-44700D01*
X47500Y-48300D02*
X47500Y-49000D01*
X47500Y-49000D02*
X46800Y-49000D01*
X43200Y-49000D02*
X42500Y-49000D01*
G54D11*
M02*
