M48
INCH,TZ
T10C0.025
T11C0.032
T12C0.035
T13C0.039
T14C0.059
T15C0.067
T16C0.087
T17C0.157
%
T10
X042700Y-53450
X043000Y-47250
X046100Y-52400
X051950Y-53200
X055250Y-54000
T11
X043500Y-52500
X043500Y-53500
X043500Y-54500
X043500Y-55500
X047000Y-45000
X047000Y-46000
X047000Y-47000
X047000Y-48000
X050500Y-45000
X050500Y-46000
X050500Y-47000
X050500Y-48000
X051000Y-52500
X051000Y-53500
X051000Y-54500
X051000Y-55500
X054500Y-52500
X054500Y-53500
X054500Y-54500
X054500Y-55500
T12
X039500Y-54000
X039500Y-56000
X040500Y-57000
X041950Y-45150
X042500Y-44500
X042500Y-48500
X042500Y-57000
X043000Y-49700
X043000Y-50700
X044000Y-44500
X044700Y-56700
X045000Y-49700
X045000Y-50700
X045800Y-56700
X047000Y-49700
X047000Y-50700
X048000Y-44500
X048000Y-57000
X049000Y-44500
X050000Y-57000
X050500Y-49700
X050500Y-50700
X052500Y-49700
X052500Y-50700
X053000Y-56900
X054000Y-56900
X054600Y-45200
X055050Y-48500
X055050Y-49500
X058500Y-51950
X059050Y-52600
X059050Y-56000
T13
X042500Y-52000
X042500Y-56000
X046000Y-44500
X046000Y-48500
X050000Y-52000
X050000Y-56000
X051500Y-44500
X051500Y-48500
X055500Y-52000
X055500Y-56000
T14
X039500Y-53000
X040500Y-55500
X043000Y-45500
X044000Y-48000
X047000Y-53000
X048000Y-55500
X053500Y-45000
X054500Y-47500
X057500Y-52500
X058500Y-55000
T15
X041500Y-52000
X041500Y-56000
X045000Y-44500
X045000Y-48500
X049000Y-52000
X049000Y-56000
X052500Y-44500
X052500Y-48500
X056500Y-52000
X056500Y-56000
T16
X045250Y-54000
X048750Y-46500
X052750Y-54000
T17
X041500Y-54000
X045000Y-46500
X049000Y-54000
X052500Y-46500
X056500Y-54000
M30

