G04 (created by PCBNEW (2013-may-18)-stable) date Thu 17 Sep 2015 08:38:54 AM EDT*
%MOIN*%
G04 Gerber Fmt 3.4, Leading zero omitted, Abs format*
%FSLAX34Y34*%
G01*
G70*
G90*
G04 APERTURE LIST*
%ADD10C,0.00590551*%
%ADD11C,0.00393701*%
%ADD12C,0.00984252*%
%ADD13C,0.00787402*%
%ADD14C,0.015*%
%ADD15C,0.012*%
%ADD16C,0.011811*%
%ADD17C,0.0039*%
G04 APERTURE END LIST*
G54D10*
G54D11*
X92300Y-42250D02*
X93200Y-42250D01*
X102800Y-42250D02*
X103500Y-42250D01*
X101450Y-42100D02*
X101450Y-41600D01*
G54D10*
X101201Y-42060D02*
X101313Y-42060D01*
X101313Y-41824D01*
X100987Y-42038D02*
X100998Y-42049D01*
X101032Y-42060D01*
X101055Y-42060D01*
X101088Y-42049D01*
X101111Y-42026D01*
X101122Y-42004D01*
X101133Y-41959D01*
X101133Y-41925D01*
X101122Y-41880D01*
X101111Y-41858D01*
X101088Y-41835D01*
X101055Y-41824D01*
X101032Y-41824D01*
X100998Y-41835D01*
X100987Y-41846D01*
G54D11*
X95185Y-41305D02*
X95765Y-41305D01*
X100200Y-42050D02*
X100200Y-41500D01*
G54D10*
X100105Y-42034D02*
X100071Y-42045D01*
X100015Y-42045D01*
X99992Y-42034D01*
X99981Y-42023D01*
X99970Y-42000D01*
X99970Y-41978D01*
X99981Y-41955D01*
X99992Y-41944D01*
X100015Y-41933D01*
X100060Y-41921D01*
X100082Y-41910D01*
X100093Y-41899D01*
X100105Y-41876D01*
X100105Y-41854D01*
X100093Y-41831D01*
X100082Y-41820D01*
X100060Y-41809D01*
X100003Y-41809D01*
X99970Y-41820D01*
X99733Y-42023D02*
X99745Y-42034D01*
X99778Y-42045D01*
X99801Y-42045D01*
X99835Y-42034D01*
X99857Y-42011D01*
X99868Y-41989D01*
X99880Y-41944D01*
X99880Y-41910D01*
X99868Y-41865D01*
X99857Y-41843D01*
X99835Y-41820D01*
X99801Y-41809D01*
X99778Y-41809D01*
X99745Y-41820D01*
X99733Y-41831D01*
G54D11*
X92550Y-45300D02*
X93150Y-45300D01*
G54D10*
X97933Y-44820D02*
X98012Y-44708D01*
X98068Y-44820D02*
X98068Y-44584D01*
X97978Y-44584D01*
X97956Y-44595D01*
X97945Y-44606D01*
X97933Y-44629D01*
X97933Y-44663D01*
X97945Y-44685D01*
X97956Y-44696D01*
X97978Y-44708D01*
X98068Y-44708D01*
G54D11*
X103400Y-45300D02*
X102850Y-45300D01*
X97135Y-46640D02*
X96560Y-46640D01*
X98870Y-46625D02*
X99395Y-46625D01*
G54D12*
X98225Y-42155D02*
X98150Y-42155D01*
X98115Y-42174D01*
X98082Y-42211D01*
X98072Y-42286D01*
X98089Y-42418D01*
X98117Y-42493D01*
X98159Y-42530D01*
X98199Y-42549D01*
X98274Y-42549D01*
X98309Y-42530D01*
X98342Y-42493D01*
X98351Y-42418D01*
X98335Y-42286D01*
X98307Y-42211D01*
X98265Y-42174D01*
X98225Y-42155D01*
G54D13*
X98911Y-42784D02*
X98861Y-42390D01*
X98765Y-42671D01*
X98599Y-42390D01*
X98648Y-42784D01*
X97054Y-43161D02*
X96867Y-43161D01*
X97106Y-43274D02*
X96925Y-42880D01*
X96843Y-43274D01*
X99234Y-43165D02*
X99047Y-43165D01*
X99286Y-43278D02*
X99105Y-42884D01*
X99023Y-43278D01*
X97773Y-42370D02*
X97642Y-42370D01*
X97611Y-42576D02*
X97799Y-42576D01*
X97750Y-42182D01*
X97562Y-42182D01*
X97236Y-42638D02*
X97182Y-42656D01*
X97165Y-42675D01*
X97151Y-42713D01*
X97158Y-42769D01*
X97182Y-42806D01*
X97203Y-42825D01*
X97243Y-42844D01*
X97393Y-42844D01*
X97343Y-42450D01*
X97212Y-42450D01*
X97177Y-42469D01*
X97161Y-42488D01*
X97146Y-42525D01*
X97151Y-42563D01*
X97175Y-42600D01*
X97196Y-42619D01*
X97236Y-42638D01*
X97367Y-42638D01*
G54D10*
X94564Y-43667D02*
X94515Y-43877D01*
X94414Y-43667D01*
X94155Y-43877D02*
X94335Y-43877D01*
X94245Y-43877D02*
X94206Y-43562D01*
X94242Y-43607D01*
X94275Y-43637D01*
X94307Y-43652D01*
X94017Y-43847D02*
X94004Y-43862D01*
X94020Y-43877D01*
X94034Y-43862D01*
X94017Y-43847D01*
X94020Y-43877D01*
X93850Y-43592D02*
X93833Y-43577D01*
X93801Y-43562D01*
X93726Y-43562D01*
X93698Y-43577D01*
X93685Y-43592D01*
X93674Y-43622D01*
X93677Y-43652D01*
X93698Y-43697D01*
X93900Y-43877D01*
X93705Y-43877D01*
X93567Y-43847D02*
X93554Y-43862D01*
X93570Y-43877D01*
X93584Y-43862D01*
X93567Y-43847D01*
X93570Y-43877D01*
X93256Y-43877D02*
X93435Y-43877D01*
X93346Y-43877D02*
X93306Y-43562D01*
X93342Y-43607D01*
X93376Y-43637D01*
X93407Y-43652D01*
G54D11*
X97803Y-41255D02*
X97153Y-41255D01*
X100625Y-46250D02*
X100000Y-46250D01*
X95425Y-46250D02*
X96025Y-46250D01*
G54D10*
X93200Y-42109D02*
X93166Y-42120D01*
X93110Y-42120D01*
X93087Y-42109D01*
X93076Y-42098D01*
X93065Y-42075D01*
X93065Y-42053D01*
X93076Y-42030D01*
X93087Y-42019D01*
X93110Y-42008D01*
X93155Y-41996D01*
X93177Y-41985D01*
X93188Y-41974D01*
X93200Y-41951D01*
X93200Y-41929D01*
X93188Y-41906D01*
X93177Y-41895D01*
X93155Y-41884D01*
X93098Y-41884D01*
X93065Y-41895D01*
X92828Y-42120D02*
X92907Y-42008D01*
X92963Y-42120D02*
X92963Y-41884D01*
X92873Y-41884D01*
X92851Y-41895D01*
X92840Y-41906D01*
X92828Y-41929D01*
X92828Y-41963D01*
X92840Y-41985D01*
X92851Y-41996D01*
X92873Y-42008D01*
X92963Y-42008D01*
X97530Y-41159D02*
X97496Y-41170D01*
X97440Y-41170D01*
X97417Y-41159D01*
X97406Y-41148D01*
X97395Y-41125D01*
X97395Y-41103D01*
X97406Y-41080D01*
X97417Y-41069D01*
X97440Y-41058D01*
X97485Y-41046D01*
X97507Y-41035D01*
X97518Y-41024D01*
X97530Y-41001D01*
X97530Y-40979D01*
X97518Y-40956D01*
X97507Y-40945D01*
X97485Y-40934D01*
X97428Y-40934D01*
X97395Y-40945D01*
X97158Y-41148D02*
X97170Y-41159D01*
X97203Y-41170D01*
X97226Y-41170D01*
X97260Y-41159D01*
X97282Y-41136D01*
X97293Y-41114D01*
X97305Y-41069D01*
X97305Y-41035D01*
X97293Y-40990D01*
X97282Y-40968D01*
X97260Y-40945D01*
X97226Y-40934D01*
X97203Y-40934D01*
X97170Y-40945D01*
X97158Y-40956D01*
X100205Y-46134D02*
X100171Y-46145D01*
X100115Y-46145D01*
X100092Y-46134D01*
X100081Y-46123D01*
X100070Y-46100D01*
X100070Y-46078D01*
X100081Y-46055D01*
X100092Y-46044D01*
X100115Y-46033D01*
X100160Y-46021D01*
X100182Y-46010D01*
X100193Y-45999D01*
X100205Y-45976D01*
X100205Y-45954D01*
X100193Y-45931D01*
X100182Y-45920D01*
X100160Y-45909D01*
X100103Y-45909D01*
X100070Y-45920D01*
X99833Y-46123D02*
X99845Y-46134D01*
X99878Y-46145D01*
X99901Y-46145D01*
X99935Y-46134D01*
X99957Y-46111D01*
X99968Y-46089D01*
X99980Y-46044D01*
X99980Y-46010D01*
X99968Y-45965D01*
X99957Y-45943D01*
X99935Y-45920D01*
X99901Y-45909D01*
X99878Y-45909D01*
X99845Y-45920D01*
X99833Y-45931D01*
X98991Y-46945D02*
X99103Y-46945D01*
X99103Y-46709D01*
X98777Y-46923D02*
X98788Y-46934D01*
X98822Y-46945D01*
X98845Y-46945D01*
X98878Y-46934D01*
X98901Y-46911D01*
X98912Y-46889D01*
X98923Y-46844D01*
X98923Y-46810D01*
X98912Y-46765D01*
X98901Y-46743D01*
X98878Y-46720D01*
X98845Y-46709D01*
X98822Y-46709D01*
X98788Y-46720D01*
X98777Y-46731D01*
X96031Y-46170D02*
X96143Y-46170D01*
X96143Y-45934D01*
X95817Y-46148D02*
X95828Y-46159D01*
X95862Y-46170D01*
X95885Y-46170D01*
X95918Y-46159D01*
X95941Y-46136D01*
X95952Y-46114D01*
X95963Y-46069D01*
X95963Y-46035D01*
X95952Y-45990D01*
X95941Y-45968D01*
X95918Y-45945D01*
X95885Y-45934D01*
X95862Y-45934D01*
X95828Y-45945D01*
X95817Y-45956D01*
X103081Y-45195D02*
X103193Y-45195D01*
X103193Y-44959D01*
X102867Y-45195D02*
X102946Y-45083D01*
X103002Y-45195D02*
X103002Y-44959D01*
X102912Y-44959D01*
X102890Y-44970D01*
X102878Y-44981D01*
X102867Y-45004D01*
X102867Y-45038D01*
X102878Y-45060D01*
X102890Y-45071D01*
X102912Y-45083D01*
X103002Y-45083D01*
X103205Y-42134D02*
X103171Y-42145D01*
X103115Y-42145D01*
X103092Y-42134D01*
X103081Y-42123D01*
X103070Y-42100D01*
X103070Y-42078D01*
X103081Y-42055D01*
X103092Y-42044D01*
X103115Y-42033D01*
X103160Y-42021D01*
X103182Y-42010D01*
X103193Y-41999D01*
X103205Y-41976D01*
X103205Y-41954D01*
X103193Y-41931D01*
X103182Y-41920D01*
X103160Y-41909D01*
X103103Y-41909D01*
X103070Y-41920D01*
X102833Y-42145D02*
X102912Y-42033D01*
X102968Y-42145D02*
X102968Y-41909D01*
X102878Y-41909D01*
X102856Y-41920D01*
X102845Y-41931D01*
X102833Y-41954D01*
X102833Y-41988D01*
X102845Y-42010D01*
X102856Y-42021D01*
X102878Y-42033D01*
X102968Y-42033D01*
X97225Y-46954D02*
X97191Y-46965D01*
X97135Y-46965D01*
X97112Y-46954D01*
X97101Y-46943D01*
X97090Y-46920D01*
X97090Y-46898D01*
X97101Y-46875D01*
X97112Y-46864D01*
X97135Y-46853D01*
X97180Y-46841D01*
X97202Y-46830D01*
X97213Y-46819D01*
X97225Y-46796D01*
X97225Y-46774D01*
X97213Y-46751D01*
X97202Y-46740D01*
X97180Y-46729D01*
X97123Y-46729D01*
X97090Y-46740D01*
X96853Y-46943D02*
X96865Y-46954D01*
X96898Y-46965D01*
X96921Y-46965D01*
X96955Y-46954D01*
X96977Y-46931D01*
X96988Y-46909D01*
X97000Y-46864D01*
X97000Y-46830D01*
X96988Y-46785D01*
X96977Y-46763D01*
X96955Y-46740D01*
X96921Y-46729D01*
X96898Y-46729D01*
X96865Y-46740D01*
X96853Y-46751D01*
X95401Y-41660D02*
X95513Y-41660D01*
X95513Y-41424D01*
X95187Y-41638D02*
X95198Y-41649D01*
X95232Y-41660D01*
X95255Y-41660D01*
X95288Y-41649D01*
X95311Y-41626D01*
X95322Y-41604D01*
X95333Y-41559D01*
X95333Y-41525D01*
X95322Y-41480D01*
X95311Y-41458D01*
X95288Y-41435D01*
X95255Y-41424D01*
X95232Y-41424D01*
X95198Y-41435D01*
X95187Y-41446D01*
X93031Y-45195D02*
X93143Y-45195D01*
X93143Y-44959D01*
X92817Y-45195D02*
X92896Y-45083D01*
X92952Y-45195D02*
X92952Y-44959D01*
X92862Y-44959D01*
X92840Y-44970D01*
X92828Y-44981D01*
X92817Y-45004D01*
X92817Y-45038D01*
X92828Y-45060D01*
X92840Y-45071D01*
X92862Y-45083D01*
X92952Y-45083D01*
G54D14*
X96750Y-45000D02*
X99250Y-45000D01*
X99250Y-45000D02*
X99250Y-44000D01*
X99250Y-44000D02*
X96750Y-44000D01*
X96750Y-44000D02*
X96750Y-45000D01*
X100000Y-44500D02*
X99250Y-44500D01*
X96000Y-44500D02*
X96750Y-44500D01*
G54D15*
X99500Y-45500D02*
X99200Y-45500D01*
X99200Y-45500D02*
X99200Y-45900D01*
X99200Y-45900D02*
X96800Y-45900D01*
X96800Y-45900D02*
X96800Y-45500D01*
X96800Y-45500D02*
X96500Y-45500D01*
X96800Y-45500D02*
X96800Y-45100D01*
X96800Y-45100D02*
X99200Y-45100D01*
X99200Y-45100D02*
X99200Y-45500D01*
X99000Y-45900D02*
X99000Y-45100D01*
X98900Y-45100D02*
X98900Y-45900D01*
G54D16*
X98207Y-46850D02*
X98650Y-46850D01*
X98650Y-46850D02*
X98650Y-46050D01*
X98650Y-46050D02*
X98207Y-46050D01*
X97781Y-46850D02*
X97350Y-46850D01*
X97350Y-46850D02*
X97350Y-46050D01*
X97350Y-46050D02*
X97781Y-46050D01*
G54D13*
X98100Y-46600D02*
X98100Y-46300D01*
X97925Y-46600D02*
X97925Y-46300D01*
X97925Y-46300D02*
X98075Y-46450D01*
X98075Y-46450D02*
X97925Y-46600D01*
G54D17*
X97400Y-44400D02*
G75*
G03X97400Y-44400I-50J0D01*
G74*
G01*
X97800Y-44400D02*
X97400Y-44400D01*
X97400Y-44400D02*
X97400Y-45000D01*
X97400Y-45000D02*
X97800Y-45000D01*
X98200Y-45000D02*
X98600Y-45000D01*
X98600Y-45000D02*
X98600Y-44400D01*
X98600Y-44400D02*
X98200Y-44400D01*
M02*
