G04 (created by PCBNEW (2013-may-18)-stable) date Sat 31 Oct 2015 09:22:13 PM EDT*
%MOIN*%
G04 Gerber Fmt 3.4, Leading zero omitted, Abs format*
%FSLAX34Y34*%
G01*
G70*
G90*
G04 APERTURE LIST*
%ADD10C,0.00590551*%
%ADD11C,0.0001*%
%ADD12C,4.72441e-06*%
%ADD13C,0.065*%
%ADD14C,0.0590551*%
%ADD15R,0.0590551X0.0590551*%
%ADD16C,0.055*%
%ADD17R,0.035X0.055*%
%ADD18C,0.066*%
%ADD19C,0.09*%
%ADD20C,0.09*%
%ADD21C,0.035*%
%ADD22C,0.01*%
G04 APERTURE END LIST*
G54D10*
G54D11*
G36*
X92741Y-43604D02*
X92764Y-43600D01*
X92785Y-43596D01*
X92978Y-43560D01*
X92992Y-43548D01*
X93065Y-43378D01*
X93064Y-43360D01*
X92951Y-43195D01*
X92939Y-43178D01*
X92926Y-43159D01*
X92927Y-43142D01*
X92944Y-43126D01*
X92959Y-43111D01*
X92982Y-43087D01*
X93006Y-43064D01*
X93021Y-43049D01*
X93045Y-43025D01*
X93068Y-43001D01*
X93083Y-42986D01*
X93100Y-42970D01*
X93116Y-42969D01*
X93135Y-42982D01*
X93153Y-42994D01*
X93321Y-43109D01*
X93339Y-43110D01*
X93503Y-43043D01*
X93515Y-43029D01*
X93553Y-42828D01*
X93557Y-42807D01*
X93561Y-42784D01*
X93574Y-42774D01*
X93597Y-42774D01*
X93618Y-42774D01*
X93651Y-42774D01*
X93685Y-42774D01*
X93706Y-42774D01*
X93740Y-42774D01*
X93773Y-42774D01*
X93794Y-42774D01*
X93817Y-42774D01*
X93830Y-42784D01*
X93834Y-42807D01*
X93838Y-42828D01*
X93876Y-43029D01*
X93888Y-43043D01*
X94052Y-43110D01*
X94070Y-43109D01*
X94238Y-42994D01*
X94256Y-42982D01*
X94275Y-42969D01*
X94291Y-42970D01*
X94308Y-42986D01*
X94323Y-43001D01*
X94347Y-43025D01*
X94370Y-43049D01*
X94385Y-43064D01*
X94409Y-43087D01*
X94432Y-43111D01*
X94448Y-43126D01*
X94464Y-43142D01*
X94465Y-43159D01*
X94452Y-43178D01*
X94440Y-43195D01*
X94327Y-43360D01*
X94326Y-43378D01*
X94399Y-43548D01*
X94413Y-43560D01*
X94606Y-43596D01*
X94627Y-43600D01*
X94650Y-43604D01*
X94660Y-43616D01*
X94660Y-43639D01*
X94660Y-43661D01*
X94660Y-43694D01*
X94660Y-43728D01*
X94660Y-43749D01*
X94660Y-43782D01*
X94660Y-43816D01*
X94660Y-43837D01*
X94660Y-43860D01*
X94650Y-43873D01*
X94627Y-43877D01*
X94606Y-43881D01*
X94419Y-43916D01*
X94405Y-43928D01*
X94333Y-44108D01*
X94334Y-44127D01*
X94440Y-44281D01*
X94452Y-44299D01*
X94465Y-44318D01*
X94464Y-44334D01*
X94448Y-44351D01*
X94433Y-44366D01*
X94409Y-44389D01*
X94385Y-44413D01*
X94370Y-44428D01*
X94347Y-44452D01*
X94323Y-44475D01*
X94308Y-44490D01*
X94291Y-44507D01*
X94275Y-44508D01*
X94256Y-44495D01*
X94239Y-44483D01*
X94087Y-44379D01*
X94069Y-44379D01*
X94038Y-44396D01*
X94019Y-44406D01*
X93986Y-44423D01*
X93973Y-44418D01*
X93959Y-44384D01*
X93951Y-44364D01*
X93819Y-44047D01*
X93811Y-44028D01*
X93802Y-44005D01*
X93807Y-43990D01*
X93828Y-43977D01*
X93841Y-43967D01*
X93876Y-43940D01*
X93906Y-43908D01*
X93931Y-43871D01*
X93949Y-43830D01*
X93961Y-43786D01*
X93965Y-43740D01*
X93961Y-43691D01*
X93948Y-43646D01*
X93928Y-43604D01*
X93902Y-43566D01*
X93869Y-43534D01*
X93832Y-43507D01*
X93790Y-43487D01*
X93744Y-43474D01*
X93696Y-43470D01*
X93647Y-43474D01*
X93601Y-43487D01*
X93559Y-43507D01*
X93522Y-43534D01*
X93489Y-43566D01*
X93463Y-43604D01*
X93443Y-43646D01*
X93430Y-43691D01*
X93426Y-43740D01*
X93430Y-43786D01*
X93442Y-43830D01*
X93460Y-43871D01*
X93485Y-43908D01*
X93515Y-43940D01*
X93550Y-43967D01*
X93563Y-43977D01*
X93584Y-43990D01*
X93589Y-44005D01*
X93580Y-44028D01*
X93572Y-44047D01*
X93441Y-44364D01*
X93432Y-44384D01*
X93418Y-44418D01*
X93405Y-44423D01*
X93372Y-44406D01*
X93353Y-44396D01*
X93322Y-44379D01*
X93304Y-44379D01*
X93153Y-44483D01*
X93135Y-44495D01*
X93116Y-44508D01*
X93100Y-44507D01*
X93083Y-44490D01*
X93068Y-44475D01*
X93045Y-44452D01*
X93021Y-44428D01*
X93006Y-44413D01*
X92982Y-44389D01*
X92959Y-44366D01*
X92944Y-44351D01*
X92927Y-44334D01*
X92926Y-44318D01*
X92939Y-44299D01*
X92951Y-44281D01*
X93057Y-44127D01*
X93058Y-44108D01*
X92986Y-43928D01*
X92972Y-43916D01*
X92785Y-43881D01*
X92764Y-43877D01*
X92741Y-43873D01*
X92731Y-43860D01*
X92731Y-43837D01*
X92731Y-43816D01*
X92731Y-43782D01*
X92731Y-43749D01*
X92731Y-43728D01*
X92731Y-43694D01*
X92731Y-43661D01*
X92731Y-43639D01*
X92731Y-43616D01*
X92741Y-43604D01*
X92741Y-43604D01*
X92741Y-43604D01*
G37*
G54D12*
X92741Y-43604D02*
X92764Y-43600D01*
X92764Y-43600D02*
X92785Y-43596D01*
X92785Y-43596D02*
X92978Y-43560D01*
X92978Y-43560D02*
X92992Y-43548D01*
X92992Y-43548D02*
X93065Y-43378D01*
X93065Y-43378D02*
X93064Y-43360D01*
X93064Y-43360D02*
X92951Y-43195D01*
X92951Y-43195D02*
X92939Y-43178D01*
X92939Y-43178D02*
X92926Y-43159D01*
X92926Y-43159D02*
X92927Y-43142D01*
X92927Y-43142D02*
X92944Y-43126D01*
X92944Y-43126D02*
X92959Y-43111D01*
X92959Y-43111D02*
X92982Y-43087D01*
X92982Y-43087D02*
X93006Y-43064D01*
X93006Y-43064D02*
X93021Y-43049D01*
X93021Y-43049D02*
X93045Y-43025D01*
X93045Y-43025D02*
X93068Y-43001D01*
X93068Y-43001D02*
X93083Y-42986D01*
X93083Y-42986D02*
X93100Y-42970D01*
X93100Y-42970D02*
X93116Y-42969D01*
X93116Y-42969D02*
X93135Y-42982D01*
X93135Y-42982D02*
X93153Y-42994D01*
X93153Y-42994D02*
X93321Y-43109D01*
X93321Y-43109D02*
X93339Y-43110D01*
X93339Y-43110D02*
X93503Y-43043D01*
X93503Y-43043D02*
X93515Y-43029D01*
X93515Y-43029D02*
X93553Y-42828D01*
X93553Y-42828D02*
X93557Y-42807D01*
X93557Y-42807D02*
X93561Y-42784D01*
X93561Y-42784D02*
X93574Y-42774D01*
X93574Y-42774D02*
X93597Y-42774D01*
X93597Y-42774D02*
X93618Y-42774D01*
X93618Y-42774D02*
X93651Y-42774D01*
X93651Y-42774D02*
X93685Y-42774D01*
X93685Y-42774D02*
X93706Y-42774D01*
X93706Y-42774D02*
X93740Y-42774D01*
X93740Y-42774D02*
X93773Y-42774D01*
X93773Y-42774D02*
X93794Y-42774D01*
X93794Y-42774D02*
X93817Y-42774D01*
X93817Y-42774D02*
X93830Y-42784D01*
X93830Y-42784D02*
X93834Y-42807D01*
X93834Y-42807D02*
X93838Y-42828D01*
X93838Y-42828D02*
X93876Y-43029D01*
X93876Y-43029D02*
X93888Y-43043D01*
X93888Y-43043D02*
X94052Y-43110D01*
X94052Y-43110D02*
X94070Y-43109D01*
X94070Y-43109D02*
X94238Y-42994D01*
X94238Y-42994D02*
X94256Y-42982D01*
X94256Y-42982D02*
X94275Y-42969D01*
X94275Y-42969D02*
X94291Y-42970D01*
X94291Y-42970D02*
X94308Y-42986D01*
X94308Y-42986D02*
X94323Y-43001D01*
X94323Y-43001D02*
X94347Y-43025D01*
X94347Y-43025D02*
X94370Y-43049D01*
X94370Y-43049D02*
X94385Y-43064D01*
X94385Y-43064D02*
X94409Y-43087D01*
X94409Y-43087D02*
X94432Y-43111D01*
X94432Y-43111D02*
X94448Y-43126D01*
X94448Y-43126D02*
X94464Y-43142D01*
X94464Y-43142D02*
X94465Y-43159D01*
X94465Y-43159D02*
X94452Y-43178D01*
X94452Y-43178D02*
X94440Y-43195D01*
X94440Y-43195D02*
X94327Y-43360D01*
X94327Y-43360D02*
X94326Y-43378D01*
X94326Y-43378D02*
X94399Y-43548D01*
X94399Y-43548D02*
X94413Y-43560D01*
X94413Y-43560D02*
X94606Y-43596D01*
X94606Y-43596D02*
X94627Y-43600D01*
X94627Y-43600D02*
X94650Y-43604D01*
X94650Y-43604D02*
X94660Y-43616D01*
X94660Y-43616D02*
X94660Y-43639D01*
X94660Y-43639D02*
X94660Y-43661D01*
X94660Y-43661D02*
X94660Y-43694D01*
X94660Y-43694D02*
X94660Y-43728D01*
X94660Y-43728D02*
X94660Y-43749D01*
X94660Y-43749D02*
X94660Y-43782D01*
X94660Y-43782D02*
X94660Y-43816D01*
X94660Y-43816D02*
X94660Y-43837D01*
X94660Y-43837D02*
X94660Y-43860D01*
X94660Y-43860D02*
X94650Y-43873D01*
X94650Y-43873D02*
X94627Y-43877D01*
X94627Y-43877D02*
X94606Y-43881D01*
X94606Y-43881D02*
X94419Y-43916D01*
X94419Y-43916D02*
X94405Y-43928D01*
X94405Y-43928D02*
X94333Y-44108D01*
X94333Y-44108D02*
X94334Y-44127D01*
X94334Y-44127D02*
X94440Y-44281D01*
X94440Y-44281D02*
X94452Y-44299D01*
X94452Y-44299D02*
X94465Y-44318D01*
X94465Y-44318D02*
X94464Y-44334D01*
X94464Y-44334D02*
X94448Y-44351D01*
X94448Y-44351D02*
X94433Y-44366D01*
X94433Y-44366D02*
X94409Y-44389D01*
X94409Y-44389D02*
X94385Y-44413D01*
X94385Y-44413D02*
X94370Y-44428D01*
X94370Y-44428D02*
X94347Y-44452D01*
X94347Y-44452D02*
X94323Y-44475D01*
X94323Y-44475D02*
X94308Y-44490D01*
X94308Y-44490D02*
X94291Y-44507D01*
X94291Y-44507D02*
X94275Y-44508D01*
X94275Y-44508D02*
X94256Y-44495D01*
X94256Y-44495D02*
X94239Y-44483D01*
X94239Y-44483D02*
X94087Y-44379D01*
X94087Y-44379D02*
X94069Y-44379D01*
X94069Y-44379D02*
X94038Y-44396D01*
X94038Y-44396D02*
X94019Y-44406D01*
X94019Y-44406D02*
X93986Y-44423D01*
X93986Y-44423D02*
X93973Y-44418D01*
X93973Y-44418D02*
X93959Y-44384D01*
X93959Y-44384D02*
X93951Y-44364D01*
X93951Y-44364D02*
X93819Y-44047D01*
X93819Y-44047D02*
X93811Y-44028D01*
X93811Y-44028D02*
X93802Y-44005D01*
X93802Y-44005D02*
X93807Y-43990D01*
X93807Y-43990D02*
X93828Y-43977D01*
X93828Y-43977D02*
X93841Y-43967D01*
X93841Y-43967D02*
X93876Y-43940D01*
X93876Y-43940D02*
X93906Y-43908D01*
X93906Y-43908D02*
X93931Y-43871D01*
X93931Y-43871D02*
X93949Y-43830D01*
X93949Y-43830D02*
X93961Y-43786D01*
X93961Y-43786D02*
X93965Y-43740D01*
X93965Y-43740D02*
X93961Y-43691D01*
X93961Y-43691D02*
X93948Y-43646D01*
X93948Y-43646D02*
X93928Y-43604D01*
X93928Y-43604D02*
X93902Y-43566D01*
X93902Y-43566D02*
X93869Y-43534D01*
X93869Y-43534D02*
X93832Y-43507D01*
X93832Y-43507D02*
X93790Y-43487D01*
X93790Y-43487D02*
X93744Y-43474D01*
X93744Y-43474D02*
X93696Y-43470D01*
X93696Y-43470D02*
X93647Y-43474D01*
X93647Y-43474D02*
X93601Y-43487D01*
X93601Y-43487D02*
X93559Y-43507D01*
X93559Y-43507D02*
X93522Y-43534D01*
X93522Y-43534D02*
X93489Y-43566D01*
X93489Y-43566D02*
X93463Y-43604D01*
X93463Y-43604D02*
X93443Y-43646D01*
X93443Y-43646D02*
X93430Y-43691D01*
X93430Y-43691D02*
X93426Y-43740D01*
X93426Y-43740D02*
X93430Y-43786D01*
X93430Y-43786D02*
X93442Y-43830D01*
X93442Y-43830D02*
X93460Y-43871D01*
X93460Y-43871D02*
X93485Y-43908D01*
X93485Y-43908D02*
X93515Y-43940D01*
X93515Y-43940D02*
X93550Y-43967D01*
X93550Y-43967D02*
X93563Y-43977D01*
X93563Y-43977D02*
X93584Y-43990D01*
X93584Y-43990D02*
X93589Y-44005D01*
X93589Y-44005D02*
X93580Y-44028D01*
X93580Y-44028D02*
X93572Y-44047D01*
X93572Y-44047D02*
X93441Y-44364D01*
X93441Y-44364D02*
X93432Y-44384D01*
X93432Y-44384D02*
X93418Y-44418D01*
X93418Y-44418D02*
X93405Y-44423D01*
X93405Y-44423D02*
X93372Y-44406D01*
X93372Y-44406D02*
X93353Y-44396D01*
X93353Y-44396D02*
X93322Y-44379D01*
X93322Y-44379D02*
X93304Y-44379D01*
X93304Y-44379D02*
X93153Y-44483D01*
X93153Y-44483D02*
X93135Y-44495D01*
X93135Y-44495D02*
X93116Y-44508D01*
X93116Y-44508D02*
X93100Y-44507D01*
X93100Y-44507D02*
X93083Y-44490D01*
X93083Y-44490D02*
X93068Y-44475D01*
X93068Y-44475D02*
X93045Y-44452D01*
X93045Y-44452D02*
X93021Y-44428D01*
X93021Y-44428D02*
X93006Y-44413D01*
X93006Y-44413D02*
X92982Y-44389D01*
X92982Y-44389D02*
X92959Y-44366D01*
X92959Y-44366D02*
X92944Y-44351D01*
X92944Y-44351D02*
X92927Y-44334D01*
X92927Y-44334D02*
X92926Y-44318D01*
X92926Y-44318D02*
X92939Y-44299D01*
X92939Y-44299D02*
X92951Y-44281D01*
X92951Y-44281D02*
X93057Y-44127D01*
X93057Y-44127D02*
X93058Y-44108D01*
X93058Y-44108D02*
X92986Y-43928D01*
X92986Y-43928D02*
X92972Y-43916D01*
X92972Y-43916D02*
X92785Y-43881D01*
X92785Y-43881D02*
X92764Y-43877D01*
X92764Y-43877D02*
X92741Y-43873D01*
X92741Y-43873D02*
X92731Y-43860D01*
X92731Y-43860D02*
X92731Y-43837D01*
X92731Y-43837D02*
X92731Y-43816D01*
X92731Y-43816D02*
X92731Y-43782D01*
X92731Y-43782D02*
X92731Y-43749D01*
X92731Y-43749D02*
X92731Y-43728D01*
X92731Y-43728D02*
X92731Y-43694D01*
X92731Y-43694D02*
X92731Y-43661D01*
X92731Y-43661D02*
X92731Y-43639D01*
X92731Y-43639D02*
X92731Y-43616D01*
X92731Y-43616D02*
X92741Y-43604D01*
X92741Y-43604D02*
X92741Y-43604D01*
G54D11*
G36*
X102834Y-43212D02*
X102834Y-44087D01*
X102649Y-44087D01*
X102617Y-44085D01*
X102585Y-44076D01*
X102555Y-44063D01*
X102528Y-44044D01*
X102505Y-44022D01*
X102487Y-43995D01*
X102473Y-43966D01*
X102464Y-43934D01*
X102461Y-43900D01*
X102461Y-43399D01*
X102464Y-43366D01*
X102473Y-43334D01*
X102487Y-43306D01*
X102506Y-43280D01*
X102529Y-43258D01*
X102555Y-43239D01*
X102585Y-43225D01*
X102617Y-43214D01*
X102649Y-43212D01*
X102834Y-43212D01*
X102834Y-43212D01*
G37*
G36*
X103087Y-42834D02*
X102992Y-43059D01*
X102687Y-43059D01*
X102610Y-43059D01*
X102606Y-43059D01*
X102570Y-43061D01*
X102537Y-43067D01*
X102504Y-43077D01*
X102473Y-43090D01*
X102444Y-43106D01*
X102418Y-43125D01*
X102393Y-43147D01*
X102371Y-43171D01*
X102352Y-43198D01*
X102336Y-43227D01*
X102323Y-43258D01*
X102313Y-43290D01*
X102308Y-43324D01*
X102305Y-43359D01*
X102305Y-43939D01*
X102308Y-43975D01*
X102313Y-44008D01*
X102323Y-44041D01*
X102336Y-44072D01*
X102352Y-44101D01*
X102371Y-44128D01*
X102393Y-44152D01*
X102418Y-44174D01*
X102444Y-44193D01*
X102473Y-44209D01*
X102504Y-44222D01*
X102537Y-44232D01*
X102570Y-44238D01*
X102606Y-44240D01*
X102610Y-44240D01*
X102687Y-44240D01*
X102992Y-44240D01*
X102992Y-43059D01*
X103087Y-42834D01*
X103128Y-42840D01*
X103161Y-42857D01*
X103183Y-42882D01*
X103192Y-42913D01*
X103192Y-44386D01*
X103186Y-44411D01*
X103172Y-44433D01*
X103149Y-44450D01*
X103120Y-44461D01*
X103087Y-44465D01*
X102210Y-44465D01*
X102177Y-44461D01*
X102148Y-44450D01*
X102126Y-44433D01*
X102111Y-44411D01*
X102106Y-44386D01*
X102106Y-42913D01*
X102114Y-42882D01*
X102136Y-42857D01*
X102169Y-42840D01*
X102210Y-42834D01*
X103087Y-42834D01*
X103087Y-42834D01*
G37*
G36*
X101888Y-43056D02*
X101912Y-43065D01*
X101929Y-43087D01*
X101936Y-43119D01*
X101936Y-43154D01*
X101929Y-43186D01*
X101912Y-43208D01*
X101888Y-43217D01*
X101649Y-43217D01*
X101649Y-44183D01*
X101641Y-44213D01*
X101620Y-44235D01*
X101589Y-44243D01*
X101546Y-44243D01*
X101516Y-44235D01*
X101494Y-44213D01*
X101486Y-44183D01*
X101486Y-43217D01*
X101255Y-43217D01*
X101231Y-43208D01*
X101214Y-43186D01*
X101207Y-43154D01*
X101207Y-43119D01*
X101214Y-43087D01*
X101231Y-43065D01*
X101255Y-43056D01*
X101888Y-43056D01*
X101888Y-43056D01*
G37*
G54D13*
X96000Y-44500D03*
X100000Y-44500D03*
G54D14*
X98000Y-41300D03*
G54D15*
X96000Y-41300D03*
X92300Y-45250D03*
G54D14*
X92300Y-42250D03*
G54D15*
X95500Y-46500D03*
G54D14*
X100100Y-41300D03*
X103700Y-42250D03*
G54D15*
X103700Y-45250D03*
G54D16*
X99500Y-45500D03*
X96500Y-45500D03*
G54D14*
X96500Y-46500D03*
G54D15*
X99500Y-46500D03*
G54D17*
X97625Y-46450D03*
X98375Y-46450D03*
X97625Y-44700D03*
X98375Y-44700D03*
G54D18*
X97500Y-45500D03*
X98500Y-45500D03*
G54D14*
X100500Y-46500D03*
G54D15*
X101250Y-41300D03*
G54D19*
X99000Y-41500D02*
X98984Y-41728D01*
G54D20*
X97015Y-41925D03*
X96500Y-42500D03*
G54D21*
X100600Y-44000D03*
X98950Y-44600D03*
X96950Y-44000D03*
X99050Y-44000D03*
X97100Y-44600D03*
G54D22*
X100000Y-45300D02*
X100000Y-45100D01*
X100600Y-44000D02*
X100600Y-44300D01*
X100000Y-45300D02*
X100000Y-46000D01*
X99500Y-46500D02*
X100000Y-46000D01*
X100600Y-44700D02*
X100600Y-44300D01*
X100300Y-45000D02*
X100600Y-44700D01*
X100100Y-45000D02*
X100300Y-45000D01*
X100000Y-45100D02*
X100100Y-45000D01*
X98500Y-45500D02*
X99500Y-46500D01*
X98375Y-44700D02*
X98850Y-44700D01*
X98850Y-44700D02*
X98950Y-44600D01*
X96010Y-45260D02*
X96010Y-45110D01*
X96500Y-46490D02*
X96010Y-46000D01*
X96010Y-46000D02*
X96010Y-45260D01*
X96100Y-42500D02*
X95450Y-43150D01*
X95450Y-43150D02*
X95450Y-43300D01*
X95450Y-44700D02*
X95450Y-43300D01*
X96500Y-42500D02*
X96100Y-42500D01*
X95450Y-44850D02*
X95450Y-44700D01*
X95600Y-45000D02*
X95450Y-44850D01*
X95900Y-45000D02*
X95600Y-45000D01*
X96010Y-45110D02*
X95900Y-45000D01*
X98000Y-41300D02*
X97640Y-41300D01*
X97640Y-41300D02*
X97015Y-41925D01*
X96250Y-42500D02*
X96500Y-42500D01*
X103700Y-42250D02*
X103050Y-42250D01*
X99400Y-42850D02*
X99400Y-44000D01*
X100000Y-42250D02*
X99400Y-42850D01*
X103050Y-42250D02*
X100000Y-42250D01*
X97250Y-46000D02*
X96970Y-45720D01*
X98375Y-46375D02*
X98000Y-46000D01*
X98000Y-46000D02*
X97250Y-46000D01*
X96750Y-44200D02*
X96950Y-44000D01*
X96750Y-44850D02*
X96750Y-44200D01*
X98375Y-46375D02*
X98375Y-46450D01*
X96970Y-45070D02*
X96750Y-44850D01*
X96970Y-45720D02*
X96970Y-45070D01*
X99050Y-44000D02*
X99400Y-44000D01*
X99400Y-45400D02*
X99500Y-45500D01*
X99400Y-44000D02*
X99400Y-45400D01*
X97200Y-44700D02*
X97100Y-44600D01*
X97200Y-44700D02*
X97625Y-44700D01*
X97625Y-44700D02*
X97625Y-45375D01*
X97625Y-45375D02*
X97500Y-45500D01*
X97650Y-42350D02*
X98256Y-42350D01*
X96750Y-43600D02*
X96549Y-43800D01*
X96549Y-43800D02*
X96549Y-45450D01*
X96500Y-45500D02*
X96549Y-45450D01*
X97650Y-42350D02*
X96750Y-43250D01*
X96750Y-43250D02*
X96750Y-43600D01*
X98256Y-42350D02*
X98992Y-41614D01*
X96500Y-45500D02*
X96500Y-45650D01*
X97575Y-46500D02*
X97625Y-46450D01*
X97350Y-46500D02*
X97575Y-46500D01*
X96500Y-45650D02*
X97350Y-46500D01*
X96500Y-45500D02*
X96500Y-45474D01*
G54D10*
G36*
X96059Y-46830D02*
X96045Y-46830D01*
X96045Y-46816D01*
X96059Y-46830D01*
X96059Y-46830D01*
G37*
G54D22*
X96059Y-46830D02*
X96045Y-46830D01*
X96045Y-46816D01*
X96059Y-46830D01*
G54D10*
G36*
X96251Y-41845D02*
X96104Y-41906D01*
X95906Y-42102D01*
X95800Y-42360D01*
X95800Y-42375D01*
X95237Y-42937D01*
X95172Y-43035D01*
X95150Y-43150D01*
X95150Y-43300D01*
X95150Y-44700D01*
X95150Y-44850D01*
X95172Y-44964D01*
X95237Y-45062D01*
X95387Y-45212D01*
X95387Y-45212D01*
X95485Y-45277D01*
X95600Y-45300D01*
X95710Y-45300D01*
X95710Y-45954D01*
X95155Y-45954D01*
X95063Y-45992D01*
X94992Y-46062D01*
X94954Y-46154D01*
X94954Y-46254D01*
X94954Y-46844D01*
X94981Y-46908D01*
X94977Y-46910D01*
X94977Y-46910D01*
X94910Y-46955D01*
X94910Y-43860D01*
X94910Y-43837D01*
X94910Y-43816D01*
X94910Y-43782D01*
X94910Y-43749D01*
X94910Y-43728D01*
X94910Y-43694D01*
X94910Y-43661D01*
X94910Y-43639D01*
X94910Y-43616D01*
X94903Y-43580D01*
X94899Y-43543D01*
X94894Y-43532D01*
X94891Y-43521D01*
X94871Y-43490D01*
X94876Y-43410D01*
X94710Y-43180D01*
X94710Y-43173D01*
X94713Y-43145D01*
X94714Y-43142D01*
X94714Y-43142D01*
X94714Y-43136D01*
X94713Y-43119D01*
X94711Y-43114D01*
X94711Y-43113D01*
X94710Y-43111D01*
X94702Y-43083D01*
X94695Y-43047D01*
X94688Y-43037D01*
X94685Y-43026D01*
X94661Y-42997D01*
X94641Y-42966D01*
X94624Y-42949D01*
X94624Y-42949D01*
X94624Y-42949D01*
X94609Y-42934D01*
X94586Y-42911D01*
X94586Y-42911D01*
X94586Y-42911D01*
X94562Y-42887D01*
X94562Y-42887D01*
X94547Y-42872D01*
X94547Y-42872D01*
X94523Y-42848D01*
X94523Y-42848D01*
X94500Y-42825D01*
X94500Y-42825D01*
X94485Y-42810D01*
X94485Y-42809D01*
X94468Y-42793D01*
X94437Y-42772D01*
X94408Y-42749D01*
X94397Y-42746D01*
X94387Y-42739D01*
X94350Y-42732D01*
X94323Y-42724D01*
X94321Y-42723D01*
X94320Y-42723D01*
X94315Y-42721D01*
X94298Y-42720D01*
X94292Y-42720D01*
X94291Y-42720D01*
X94289Y-42721D01*
X94282Y-42721D01*
X94041Y-42652D01*
X94040Y-42648D01*
X94013Y-42621D01*
X93996Y-42599D01*
X93994Y-42597D01*
X93994Y-42596D01*
X93990Y-42592D01*
X93977Y-42581D01*
X93972Y-42578D01*
X93971Y-42578D01*
X93969Y-42577D01*
X93944Y-42564D01*
X93913Y-42543D01*
X93902Y-42540D01*
X93891Y-42535D01*
X93854Y-42531D01*
X93817Y-42524D01*
X93794Y-42524D01*
X93773Y-42524D01*
X93740Y-42524D01*
X93706Y-42524D01*
X93685Y-42524D01*
X93651Y-42524D01*
X93618Y-42524D01*
X93597Y-42524D01*
X93574Y-42524D01*
X93537Y-42531D01*
X93500Y-42535D01*
X93489Y-42540D01*
X93478Y-42543D01*
X93447Y-42564D01*
X93422Y-42577D01*
X93420Y-42578D01*
X93419Y-42579D01*
X93414Y-42581D01*
X93401Y-42592D01*
X93398Y-42596D01*
X93397Y-42597D01*
X93395Y-42599D01*
X93378Y-42621D01*
X93352Y-42648D01*
X93347Y-42658D01*
X93340Y-42668D01*
X93337Y-42679D01*
X93197Y-42733D01*
X93190Y-42730D01*
X93179Y-42728D01*
X93168Y-42724D01*
X93130Y-42723D01*
X93102Y-42721D01*
X93100Y-42720D01*
X93099Y-42720D01*
X93093Y-42720D01*
X93077Y-42721D01*
X93071Y-42723D01*
X93070Y-42723D01*
X93068Y-42724D01*
X93041Y-42732D01*
X93004Y-42739D01*
X92994Y-42746D01*
X92983Y-42749D01*
X92954Y-42772D01*
X92923Y-42793D01*
X92907Y-42810D01*
X92907Y-42810D01*
X92891Y-42825D01*
X92891Y-42825D01*
X92868Y-42848D01*
X92868Y-42848D01*
X92845Y-42871D01*
X92845Y-42142D01*
X92762Y-41941D01*
X92609Y-41788D01*
X92408Y-41704D01*
X92192Y-41704D01*
X91991Y-41787D01*
X91838Y-41940D01*
X91754Y-42141D01*
X91754Y-42357D01*
X91837Y-42558D01*
X91990Y-42711D01*
X92191Y-42795D01*
X92407Y-42795D01*
X92608Y-42712D01*
X92761Y-42559D01*
X92845Y-42358D01*
X92845Y-42142D01*
X92845Y-42871D01*
X92844Y-42872D01*
X92844Y-42872D01*
X92829Y-42887D01*
X92805Y-42911D01*
X92805Y-42911D01*
X92782Y-42934D01*
X92782Y-42934D01*
X92767Y-42949D01*
X92767Y-42949D01*
X92750Y-42966D01*
X92730Y-42997D01*
X92706Y-43026D01*
X92703Y-43037D01*
X92696Y-43047D01*
X92689Y-43083D01*
X92681Y-43111D01*
X92680Y-43113D01*
X92680Y-43114D01*
X92678Y-43119D01*
X92677Y-43136D01*
X92677Y-43136D01*
X92550Y-43280D01*
X92542Y-43452D01*
X92539Y-43457D01*
X92536Y-43462D01*
X92535Y-43463D01*
X92534Y-43465D01*
X92521Y-43490D01*
X92500Y-43521D01*
X92498Y-43532D01*
X92492Y-43543D01*
X92488Y-43580D01*
X92481Y-43616D01*
X92481Y-43639D01*
X92481Y-43640D01*
X92481Y-43661D01*
X92481Y-43694D01*
X92481Y-43694D01*
X92481Y-43728D01*
X92481Y-43728D01*
X92481Y-43749D01*
X92481Y-43782D01*
X92481Y-43816D01*
X92481Y-43837D01*
X92481Y-43860D01*
X92488Y-43897D01*
X92492Y-43934D01*
X92498Y-43944D01*
X92500Y-43956D01*
X92521Y-43987D01*
X92534Y-44013D01*
X92535Y-44015D01*
X92536Y-44015D01*
X92539Y-44020D01*
X92549Y-44033D01*
X92554Y-44036D01*
X92554Y-44037D01*
X92556Y-44039D01*
X92578Y-44056D01*
X92603Y-44080D01*
X92679Y-44321D01*
X92678Y-44332D01*
X92677Y-44334D01*
X92677Y-44335D01*
X92677Y-44341D01*
X92678Y-44357D01*
X92680Y-44363D01*
X92680Y-44364D01*
X92681Y-44366D01*
X92689Y-44393D01*
X92696Y-44430D01*
X92703Y-44440D01*
X92706Y-44451D01*
X92730Y-44480D01*
X92750Y-44511D01*
X92767Y-44527D01*
X92767Y-44527D01*
X92782Y-44543D01*
X92782Y-44543D01*
X92805Y-44566D01*
X92805Y-44566D01*
X92829Y-44590D01*
X92829Y-44590D01*
X92844Y-44605D01*
X92844Y-44605D01*
X92844Y-44605D01*
X92868Y-44628D01*
X92868Y-44628D01*
X92891Y-44652D01*
X92891Y-44652D01*
X92907Y-44667D01*
X92907Y-44667D01*
X92907Y-44667D01*
X92923Y-44683D01*
X92954Y-44704D01*
X92983Y-44728D01*
X92994Y-44731D01*
X93004Y-44738D01*
X93041Y-44745D01*
X93068Y-44753D01*
X93070Y-44754D01*
X93071Y-44754D01*
X93077Y-44756D01*
X93093Y-44757D01*
X93099Y-44757D01*
X93100Y-44757D01*
X93102Y-44756D01*
X93130Y-44753D01*
X93168Y-44753D01*
X93178Y-44748D01*
X93190Y-44747D01*
X93223Y-44729D01*
X93257Y-44715D01*
X93276Y-44701D01*
X93276Y-44701D01*
X93277Y-44701D01*
X93279Y-44700D01*
X94112Y-44700D01*
X94115Y-44701D01*
X94115Y-44701D01*
X94134Y-44714D01*
X94168Y-44729D01*
X94201Y-44747D01*
X94213Y-44748D01*
X94224Y-44753D01*
X94261Y-44753D01*
X94289Y-44756D01*
X94291Y-44757D01*
X94292Y-44757D01*
X94298Y-44757D01*
X94315Y-44756D01*
X94320Y-44754D01*
X94321Y-44754D01*
X94324Y-44753D01*
X94350Y-44745D01*
X94387Y-44738D01*
X94397Y-44731D01*
X94408Y-44728D01*
X94437Y-44704D01*
X94468Y-44683D01*
X94485Y-44667D01*
X94485Y-44667D01*
X94500Y-44652D01*
X94500Y-44652D01*
X94523Y-44628D01*
X94523Y-44628D01*
X94547Y-44605D01*
X94547Y-44605D01*
X94562Y-44590D01*
X94562Y-44590D01*
X94562Y-44590D01*
X94586Y-44566D01*
X94586Y-44566D01*
X94609Y-44543D01*
X94624Y-44527D01*
X94624Y-44527D01*
X94624Y-44527D01*
X94641Y-44511D01*
X94661Y-44480D01*
X94685Y-44451D01*
X94688Y-44440D01*
X94695Y-44430D01*
X94702Y-44393D01*
X94710Y-44366D01*
X94711Y-44365D01*
X94823Y-44246D01*
X94836Y-44038D01*
X94837Y-44037D01*
X94837Y-44037D01*
X94842Y-44033D01*
X94852Y-44020D01*
X94855Y-44015D01*
X94856Y-44015D01*
X94857Y-44012D01*
X94870Y-43987D01*
X94891Y-43956D01*
X94893Y-43945D01*
X94899Y-43935D01*
X94903Y-43897D01*
X94910Y-43860D01*
X94910Y-46955D01*
X94832Y-47007D01*
X94831Y-47007D01*
X94757Y-47082D01*
X94659Y-47228D01*
X94619Y-47325D01*
X94619Y-47326D01*
X94585Y-47496D01*
X94585Y-47497D01*
X94531Y-47769D01*
X94406Y-47957D01*
X94335Y-48004D01*
X94335Y-46545D01*
X94177Y-46164D01*
X93887Y-45873D01*
X93506Y-45715D01*
X93095Y-45714D01*
X92845Y-45817D01*
X92845Y-45495D01*
X92845Y-44905D01*
X92807Y-44813D01*
X92737Y-44742D01*
X92645Y-44704D01*
X92545Y-44704D01*
X91955Y-44704D01*
X91863Y-44742D01*
X91792Y-44812D01*
X91754Y-44904D01*
X91754Y-45004D01*
X91754Y-45594D01*
X91792Y-45686D01*
X91862Y-45757D01*
X91954Y-45795D01*
X92054Y-45795D01*
X92644Y-45795D01*
X92736Y-45757D01*
X92807Y-45687D01*
X92845Y-45595D01*
X92845Y-45495D01*
X92845Y-45817D01*
X92714Y-45872D01*
X92423Y-46162D01*
X92265Y-46543D01*
X92264Y-46954D01*
X92422Y-47335D01*
X92712Y-47626D01*
X93093Y-47784D01*
X93504Y-47785D01*
X93885Y-47627D01*
X94176Y-47337D01*
X94334Y-46956D01*
X94335Y-46545D01*
X94335Y-48004D01*
X94219Y-48081D01*
X93973Y-48130D01*
X92874Y-48130D01*
X92533Y-48062D01*
X92267Y-47883D01*
X92088Y-47616D01*
X92019Y-47273D01*
X92019Y-46550D01*
X92014Y-46524D01*
X92014Y-46497D01*
X91991Y-46382D01*
X91991Y-46382D01*
X91951Y-46285D01*
X91886Y-46187D01*
X91811Y-46113D01*
X91811Y-46113D01*
X91714Y-46048D01*
X91617Y-46008D01*
X91617Y-46008D01*
X91502Y-45985D01*
X91502Y-45985D01*
X91421Y-45969D01*
X91397Y-45953D01*
X91380Y-45928D01*
X91369Y-45873D01*
X91369Y-44215D01*
X91441Y-44186D01*
X91441Y-44185D01*
X91603Y-44078D01*
X91677Y-44003D01*
X91678Y-44002D01*
X91785Y-43841D01*
X91786Y-43840D01*
X91826Y-43743D01*
X91864Y-43552D01*
X91864Y-43552D01*
X91864Y-43552D01*
X91864Y-43552D01*
X91864Y-43500D01*
X91864Y-43447D01*
X91864Y-43447D01*
X91864Y-43447D01*
X91864Y-43447D01*
X91826Y-43256D01*
X91786Y-43159D01*
X91785Y-43158D01*
X91678Y-42997D01*
X91677Y-42996D01*
X91603Y-42921D01*
X91441Y-42814D01*
X91441Y-42813D01*
X91369Y-42784D01*
X91369Y-41311D01*
X91421Y-41290D01*
X91567Y-41192D01*
X91642Y-41118D01*
X91642Y-41117D01*
X91739Y-40972D01*
X91739Y-40972D01*
X91780Y-40875D01*
X91814Y-40702D01*
X91814Y-40702D01*
X91838Y-40582D01*
X91875Y-40526D01*
X91933Y-40488D01*
X92025Y-40469D01*
X92430Y-40469D01*
X92430Y-40750D01*
X92435Y-40776D01*
X92435Y-40802D01*
X92481Y-41030D01*
X92481Y-41031D01*
X92521Y-41129D01*
X92651Y-41324D01*
X92725Y-41398D01*
X92726Y-41398D01*
X92919Y-41527D01*
X92920Y-41528D01*
X93017Y-41568D01*
X93247Y-41614D01*
X93352Y-41614D01*
X93353Y-41614D01*
X93580Y-41568D01*
X93581Y-41568D01*
X93679Y-41528D01*
X93874Y-41398D01*
X93948Y-41324D01*
X93948Y-41323D01*
X94077Y-41130D01*
X94078Y-41129D01*
X94118Y-41032D01*
X94164Y-40802D01*
X94164Y-40775D01*
X94169Y-40750D01*
X94169Y-40469D01*
X94673Y-40469D01*
X94679Y-40470D01*
X94685Y-40502D01*
X94685Y-40502D01*
X94685Y-40502D01*
X94708Y-40617D01*
X94708Y-40617D01*
X94748Y-40714D01*
X94813Y-40811D01*
X94813Y-40811D01*
X94887Y-40886D01*
X94985Y-40951D01*
X95082Y-40991D01*
X95082Y-40991D01*
X95197Y-41014D01*
X95224Y-41014D01*
X95250Y-41019D01*
X95454Y-41019D01*
X95454Y-41054D01*
X95454Y-41644D01*
X95492Y-41736D01*
X95562Y-41807D01*
X95654Y-41845D01*
X95754Y-41845D01*
X96251Y-41845D01*
X96251Y-41845D01*
G37*
G54D22*
X96251Y-41845D02*
X96104Y-41906D01*
X95906Y-42102D01*
X95800Y-42360D01*
X95800Y-42375D01*
X95237Y-42937D01*
X95172Y-43035D01*
X95150Y-43150D01*
X95150Y-43300D01*
X95150Y-44700D01*
X95150Y-44850D01*
X95172Y-44964D01*
X95237Y-45062D01*
X95387Y-45212D01*
X95387Y-45212D01*
X95485Y-45277D01*
X95600Y-45300D01*
X95710Y-45300D01*
X95710Y-45954D01*
X95155Y-45954D01*
X95063Y-45992D01*
X94992Y-46062D01*
X94954Y-46154D01*
X94954Y-46254D01*
X94954Y-46844D01*
X94981Y-46908D01*
X94977Y-46910D01*
X94977Y-46910D01*
X94910Y-46955D01*
X94910Y-43860D01*
X94910Y-43837D01*
X94910Y-43816D01*
X94910Y-43782D01*
X94910Y-43749D01*
X94910Y-43728D01*
X94910Y-43694D01*
X94910Y-43661D01*
X94910Y-43639D01*
X94910Y-43616D01*
X94903Y-43580D01*
X94899Y-43543D01*
X94894Y-43532D01*
X94891Y-43521D01*
X94871Y-43490D01*
X94876Y-43410D01*
X94710Y-43180D01*
X94710Y-43173D01*
X94713Y-43145D01*
X94714Y-43142D01*
X94714Y-43142D01*
X94714Y-43136D01*
X94713Y-43119D01*
X94711Y-43114D01*
X94711Y-43113D01*
X94710Y-43111D01*
X94702Y-43083D01*
X94695Y-43047D01*
X94688Y-43037D01*
X94685Y-43026D01*
X94661Y-42997D01*
X94641Y-42966D01*
X94624Y-42949D01*
X94624Y-42949D01*
X94624Y-42949D01*
X94609Y-42934D01*
X94586Y-42911D01*
X94586Y-42911D01*
X94586Y-42911D01*
X94562Y-42887D01*
X94562Y-42887D01*
X94547Y-42872D01*
X94547Y-42872D01*
X94523Y-42848D01*
X94523Y-42848D01*
X94500Y-42825D01*
X94500Y-42825D01*
X94485Y-42810D01*
X94485Y-42809D01*
X94468Y-42793D01*
X94437Y-42772D01*
X94408Y-42749D01*
X94397Y-42746D01*
X94387Y-42739D01*
X94350Y-42732D01*
X94323Y-42724D01*
X94321Y-42723D01*
X94320Y-42723D01*
X94315Y-42721D01*
X94298Y-42720D01*
X94292Y-42720D01*
X94291Y-42720D01*
X94289Y-42721D01*
X94282Y-42721D01*
X94041Y-42652D01*
X94040Y-42648D01*
X94013Y-42621D01*
X93996Y-42599D01*
X93994Y-42597D01*
X93994Y-42596D01*
X93990Y-42592D01*
X93977Y-42581D01*
X93972Y-42578D01*
X93971Y-42578D01*
X93969Y-42577D01*
X93944Y-42564D01*
X93913Y-42543D01*
X93902Y-42540D01*
X93891Y-42535D01*
X93854Y-42531D01*
X93817Y-42524D01*
X93794Y-42524D01*
X93773Y-42524D01*
X93740Y-42524D01*
X93706Y-42524D01*
X93685Y-42524D01*
X93651Y-42524D01*
X93618Y-42524D01*
X93597Y-42524D01*
X93574Y-42524D01*
X93537Y-42531D01*
X93500Y-42535D01*
X93489Y-42540D01*
X93478Y-42543D01*
X93447Y-42564D01*
X93422Y-42577D01*
X93420Y-42578D01*
X93419Y-42579D01*
X93414Y-42581D01*
X93401Y-42592D01*
X93398Y-42596D01*
X93397Y-42597D01*
X93395Y-42599D01*
X93378Y-42621D01*
X93352Y-42648D01*
X93347Y-42658D01*
X93340Y-42668D01*
X93337Y-42679D01*
X93197Y-42733D01*
X93190Y-42730D01*
X93179Y-42728D01*
X93168Y-42724D01*
X93130Y-42723D01*
X93102Y-42721D01*
X93100Y-42720D01*
X93099Y-42720D01*
X93093Y-42720D01*
X93077Y-42721D01*
X93071Y-42723D01*
X93070Y-42723D01*
X93068Y-42724D01*
X93041Y-42732D01*
X93004Y-42739D01*
X92994Y-42746D01*
X92983Y-42749D01*
X92954Y-42772D01*
X92923Y-42793D01*
X92907Y-42810D01*
X92907Y-42810D01*
X92891Y-42825D01*
X92891Y-42825D01*
X92868Y-42848D01*
X92868Y-42848D01*
X92845Y-42871D01*
X92845Y-42142D01*
X92762Y-41941D01*
X92609Y-41788D01*
X92408Y-41704D01*
X92192Y-41704D01*
X91991Y-41787D01*
X91838Y-41940D01*
X91754Y-42141D01*
X91754Y-42357D01*
X91837Y-42558D01*
X91990Y-42711D01*
X92191Y-42795D01*
X92407Y-42795D01*
X92608Y-42712D01*
X92761Y-42559D01*
X92845Y-42358D01*
X92845Y-42142D01*
X92845Y-42871D01*
X92844Y-42872D01*
X92844Y-42872D01*
X92829Y-42887D01*
X92805Y-42911D01*
X92805Y-42911D01*
X92782Y-42934D01*
X92782Y-42934D01*
X92767Y-42949D01*
X92767Y-42949D01*
X92750Y-42966D01*
X92730Y-42997D01*
X92706Y-43026D01*
X92703Y-43037D01*
X92696Y-43047D01*
X92689Y-43083D01*
X92681Y-43111D01*
X92680Y-43113D01*
X92680Y-43114D01*
X92678Y-43119D01*
X92677Y-43136D01*
X92677Y-43136D01*
X92550Y-43280D01*
X92542Y-43452D01*
X92539Y-43457D01*
X92536Y-43462D01*
X92535Y-43463D01*
X92534Y-43465D01*
X92521Y-43490D01*
X92500Y-43521D01*
X92498Y-43532D01*
X92492Y-43543D01*
X92488Y-43580D01*
X92481Y-43616D01*
X92481Y-43639D01*
X92481Y-43640D01*
X92481Y-43661D01*
X92481Y-43694D01*
X92481Y-43694D01*
X92481Y-43728D01*
X92481Y-43728D01*
X92481Y-43749D01*
X92481Y-43782D01*
X92481Y-43816D01*
X92481Y-43837D01*
X92481Y-43860D01*
X92488Y-43897D01*
X92492Y-43934D01*
X92498Y-43944D01*
X92500Y-43956D01*
X92521Y-43987D01*
X92534Y-44013D01*
X92535Y-44015D01*
X92536Y-44015D01*
X92539Y-44020D01*
X92549Y-44033D01*
X92554Y-44036D01*
X92554Y-44037D01*
X92556Y-44039D01*
X92578Y-44056D01*
X92603Y-44080D01*
X92679Y-44321D01*
X92678Y-44332D01*
X92677Y-44334D01*
X92677Y-44335D01*
X92677Y-44341D01*
X92678Y-44357D01*
X92680Y-44363D01*
X92680Y-44364D01*
X92681Y-44366D01*
X92689Y-44393D01*
X92696Y-44430D01*
X92703Y-44440D01*
X92706Y-44451D01*
X92730Y-44480D01*
X92750Y-44511D01*
X92767Y-44527D01*
X92767Y-44527D01*
X92782Y-44543D01*
X92782Y-44543D01*
X92805Y-44566D01*
X92805Y-44566D01*
X92829Y-44590D01*
X92829Y-44590D01*
X92844Y-44605D01*
X92844Y-44605D01*
X92844Y-44605D01*
X92868Y-44628D01*
X92868Y-44628D01*
X92891Y-44652D01*
X92891Y-44652D01*
X92907Y-44667D01*
X92907Y-44667D01*
X92907Y-44667D01*
X92923Y-44683D01*
X92954Y-44704D01*
X92983Y-44728D01*
X92994Y-44731D01*
X93004Y-44738D01*
X93041Y-44745D01*
X93068Y-44753D01*
X93070Y-44754D01*
X93071Y-44754D01*
X93077Y-44756D01*
X93093Y-44757D01*
X93099Y-44757D01*
X93100Y-44757D01*
X93102Y-44756D01*
X93130Y-44753D01*
X93168Y-44753D01*
X93178Y-44748D01*
X93190Y-44747D01*
X93223Y-44729D01*
X93257Y-44715D01*
X93276Y-44701D01*
X93276Y-44701D01*
X93277Y-44701D01*
X93279Y-44700D01*
X94112Y-44700D01*
X94115Y-44701D01*
X94115Y-44701D01*
X94134Y-44714D01*
X94168Y-44729D01*
X94201Y-44747D01*
X94213Y-44748D01*
X94224Y-44753D01*
X94261Y-44753D01*
X94289Y-44756D01*
X94291Y-44757D01*
X94292Y-44757D01*
X94298Y-44757D01*
X94315Y-44756D01*
X94320Y-44754D01*
X94321Y-44754D01*
X94324Y-44753D01*
X94350Y-44745D01*
X94387Y-44738D01*
X94397Y-44731D01*
X94408Y-44728D01*
X94437Y-44704D01*
X94468Y-44683D01*
X94485Y-44667D01*
X94485Y-44667D01*
X94500Y-44652D01*
X94500Y-44652D01*
X94523Y-44628D01*
X94523Y-44628D01*
X94547Y-44605D01*
X94547Y-44605D01*
X94562Y-44590D01*
X94562Y-44590D01*
X94562Y-44590D01*
X94586Y-44566D01*
X94586Y-44566D01*
X94609Y-44543D01*
X94624Y-44527D01*
X94624Y-44527D01*
X94624Y-44527D01*
X94641Y-44511D01*
X94661Y-44480D01*
X94685Y-44451D01*
X94688Y-44440D01*
X94695Y-44430D01*
X94702Y-44393D01*
X94710Y-44366D01*
X94711Y-44365D01*
X94823Y-44246D01*
X94836Y-44038D01*
X94837Y-44037D01*
X94837Y-44037D01*
X94842Y-44033D01*
X94852Y-44020D01*
X94855Y-44015D01*
X94856Y-44015D01*
X94857Y-44012D01*
X94870Y-43987D01*
X94891Y-43956D01*
X94893Y-43945D01*
X94899Y-43935D01*
X94903Y-43897D01*
X94910Y-43860D01*
X94910Y-46955D01*
X94832Y-47007D01*
X94831Y-47007D01*
X94757Y-47082D01*
X94659Y-47228D01*
X94619Y-47325D01*
X94619Y-47326D01*
X94585Y-47496D01*
X94585Y-47497D01*
X94531Y-47769D01*
X94406Y-47957D01*
X94335Y-48004D01*
X94335Y-46545D01*
X94177Y-46164D01*
X93887Y-45873D01*
X93506Y-45715D01*
X93095Y-45714D01*
X92845Y-45817D01*
X92845Y-45495D01*
X92845Y-44905D01*
X92807Y-44813D01*
X92737Y-44742D01*
X92645Y-44704D01*
X92545Y-44704D01*
X91955Y-44704D01*
X91863Y-44742D01*
X91792Y-44812D01*
X91754Y-44904D01*
X91754Y-45004D01*
X91754Y-45594D01*
X91792Y-45686D01*
X91862Y-45757D01*
X91954Y-45795D01*
X92054Y-45795D01*
X92644Y-45795D01*
X92736Y-45757D01*
X92807Y-45687D01*
X92845Y-45595D01*
X92845Y-45495D01*
X92845Y-45817D01*
X92714Y-45872D01*
X92423Y-46162D01*
X92265Y-46543D01*
X92264Y-46954D01*
X92422Y-47335D01*
X92712Y-47626D01*
X93093Y-47784D01*
X93504Y-47785D01*
X93885Y-47627D01*
X94176Y-47337D01*
X94334Y-46956D01*
X94335Y-46545D01*
X94335Y-48004D01*
X94219Y-48081D01*
X93973Y-48130D01*
X92874Y-48130D01*
X92533Y-48062D01*
X92267Y-47883D01*
X92088Y-47616D01*
X92019Y-47273D01*
X92019Y-46550D01*
X92014Y-46524D01*
X92014Y-46497D01*
X91991Y-46382D01*
X91991Y-46382D01*
X91951Y-46285D01*
X91886Y-46187D01*
X91811Y-46113D01*
X91811Y-46113D01*
X91714Y-46048D01*
X91617Y-46008D01*
X91617Y-46008D01*
X91502Y-45985D01*
X91502Y-45985D01*
X91421Y-45969D01*
X91397Y-45953D01*
X91380Y-45928D01*
X91369Y-45873D01*
X91369Y-44215D01*
X91441Y-44186D01*
X91441Y-44185D01*
X91603Y-44078D01*
X91677Y-44003D01*
X91678Y-44002D01*
X91785Y-43841D01*
X91786Y-43840D01*
X91826Y-43743D01*
X91864Y-43552D01*
X91864Y-43552D01*
X91864Y-43552D01*
X91864Y-43552D01*
X91864Y-43500D01*
X91864Y-43447D01*
X91864Y-43447D01*
X91864Y-43447D01*
X91864Y-43447D01*
X91826Y-43256D01*
X91786Y-43159D01*
X91785Y-43158D01*
X91678Y-42997D01*
X91677Y-42996D01*
X91603Y-42921D01*
X91441Y-42814D01*
X91441Y-42813D01*
X91369Y-42784D01*
X91369Y-41311D01*
X91421Y-41290D01*
X91567Y-41192D01*
X91642Y-41118D01*
X91642Y-41117D01*
X91739Y-40972D01*
X91739Y-40972D01*
X91780Y-40875D01*
X91814Y-40702D01*
X91814Y-40702D01*
X91838Y-40582D01*
X91875Y-40526D01*
X91933Y-40488D01*
X92025Y-40469D01*
X92430Y-40469D01*
X92430Y-40750D01*
X92435Y-40776D01*
X92435Y-40802D01*
X92481Y-41030D01*
X92481Y-41031D01*
X92521Y-41129D01*
X92651Y-41324D01*
X92725Y-41398D01*
X92726Y-41398D01*
X92919Y-41527D01*
X92920Y-41528D01*
X93017Y-41568D01*
X93247Y-41614D01*
X93352Y-41614D01*
X93353Y-41614D01*
X93580Y-41568D01*
X93581Y-41568D01*
X93679Y-41528D01*
X93874Y-41398D01*
X93948Y-41324D01*
X93948Y-41323D01*
X94077Y-41130D01*
X94078Y-41129D01*
X94118Y-41032D01*
X94164Y-40802D01*
X94164Y-40775D01*
X94169Y-40750D01*
X94169Y-40469D01*
X94673Y-40469D01*
X94679Y-40470D01*
X94685Y-40502D01*
X94685Y-40502D01*
X94685Y-40502D01*
X94708Y-40617D01*
X94708Y-40617D01*
X94748Y-40714D01*
X94813Y-40811D01*
X94813Y-40811D01*
X94887Y-40886D01*
X94985Y-40951D01*
X95082Y-40991D01*
X95082Y-40991D01*
X95197Y-41014D01*
X95224Y-41014D01*
X95250Y-41019D01*
X95454Y-41019D01*
X95454Y-41054D01*
X95454Y-41644D01*
X95492Y-41736D01*
X95562Y-41807D01*
X95654Y-41845D01*
X95754Y-41845D01*
X96251Y-41845D01*
G54D10*
G36*
X97223Y-46830D02*
X96940Y-46830D01*
X96961Y-46809D01*
X97042Y-46616D01*
X97137Y-46712D01*
X97199Y-46753D01*
X97199Y-46774D01*
X97223Y-46830D01*
X97223Y-46830D01*
G37*
G54D22*
X97223Y-46830D02*
X96940Y-46830D01*
X96961Y-46809D01*
X97042Y-46616D01*
X97137Y-46712D01*
X97199Y-46753D01*
X97199Y-46774D01*
X97223Y-46830D01*
G54D10*
G36*
X97525Y-41019D02*
X97524Y-41024D01*
X97428Y-41087D01*
X97251Y-41265D01*
X97155Y-41225D01*
X96877Y-41225D01*
X96619Y-41331D01*
X96545Y-41405D01*
X96545Y-41019D01*
X97525Y-41019D01*
X97525Y-41019D01*
G37*
G54D22*
X97525Y-41019D02*
X97524Y-41024D01*
X97428Y-41087D01*
X97251Y-41265D01*
X97155Y-41225D01*
X96877Y-41225D01*
X96619Y-41331D01*
X96545Y-41405D01*
X96545Y-41019D01*
X97525Y-41019D01*
G54D10*
G36*
X98025Y-45154D02*
X98008Y-45171D01*
X98000Y-45191D01*
X97991Y-45171D01*
X97974Y-45154D01*
X98000Y-45128D01*
X98025Y-45154D01*
X98025Y-45154D01*
G37*
G54D22*
X98025Y-45154D02*
X98008Y-45171D01*
X98000Y-45191D01*
X97991Y-45171D01*
X97974Y-45154D01*
X98000Y-45128D01*
X98025Y-45154D01*
G54D10*
G36*
X98307Y-41874D02*
X98132Y-42050D01*
X97715Y-42050D01*
X97715Y-41786D01*
X97708Y-41769D01*
X97891Y-41845D01*
X98107Y-41845D01*
X98294Y-41768D01*
X98307Y-41874D01*
X98307Y-41874D01*
G37*
G54D22*
X98307Y-41874D02*
X98132Y-42050D01*
X97715Y-42050D01*
X97715Y-41786D01*
X97708Y-41769D01*
X97891Y-41845D01*
X98107Y-41845D01*
X98294Y-41768D01*
X98307Y-41874D01*
G54D10*
G36*
X98492Y-41019D02*
X98480Y-41035D01*
X98474Y-41019D01*
X98492Y-41019D01*
X98492Y-41019D01*
G37*
G54D22*
X98492Y-41019D02*
X98480Y-41035D01*
X98474Y-41019D01*
X98492Y-41019D01*
G54D10*
G36*
X98954Y-46830D02*
X98776Y-46830D01*
X98799Y-46774D01*
X98800Y-46675D01*
X98800Y-46224D01*
X98954Y-46378D01*
X98954Y-46830D01*
X98954Y-46830D01*
G37*
G54D22*
X98954Y-46830D02*
X98776Y-46830D01*
X98799Y-46774D01*
X98800Y-46675D01*
X98800Y-46224D01*
X98954Y-46378D01*
X98954Y-46830D01*
G54D10*
G36*
X99100Y-45157D02*
X99055Y-45202D01*
X99029Y-45263D01*
X98991Y-45171D01*
X98831Y-45010D01*
X98865Y-45024D01*
X99034Y-45025D01*
X99100Y-44997D01*
X99100Y-45157D01*
X99100Y-45157D01*
G37*
G54D22*
X99100Y-45157D02*
X99055Y-45202D01*
X99029Y-45263D01*
X98991Y-45171D01*
X98831Y-45010D01*
X98865Y-45024D01*
X99034Y-45025D01*
X99100Y-44997D01*
X99100Y-45157D01*
G54D10*
G36*
X99625Y-41019D02*
X99584Y-41120D01*
X99529Y-41024D01*
X99522Y-41019D01*
X99625Y-41019D01*
X99625Y-41019D01*
G37*
G54D22*
X99625Y-41019D02*
X99584Y-41120D01*
X99529Y-41024D01*
X99522Y-41019D01*
X99625Y-41019D01*
G54D10*
G36*
X99718Y-45005D02*
X99715Y-45021D01*
X99700Y-45014D01*
X99700Y-44998D01*
X99718Y-45005D01*
X99718Y-45005D01*
G37*
G54D22*
X99718Y-45005D02*
X99715Y-45021D01*
X99700Y-45014D01*
X99700Y-44998D01*
X99718Y-45005D01*
G54D10*
G36*
X100059Y-46830D02*
X100045Y-46830D01*
X100045Y-46816D01*
X100059Y-46830D01*
X100059Y-46830D01*
G37*
G54D22*
X100059Y-46830D02*
X100045Y-46830D01*
X100045Y-46816D01*
X100059Y-46830D01*
G54D10*
G36*
X100913Y-42550D02*
X100802Y-42705D01*
X100775Y-42870D01*
X100775Y-43612D01*
X100684Y-43575D01*
X100608Y-43575D01*
X100604Y-43487D01*
X100604Y-43380D01*
X100599Y-43367D01*
X100599Y-43354D01*
X100526Y-43179D01*
X100520Y-43177D01*
X100512Y-43157D01*
X100342Y-42987D01*
X100322Y-42979D01*
X100320Y-42973D01*
X100219Y-42936D01*
X100120Y-42895D01*
X100107Y-42895D01*
X100094Y-42890D01*
X99987Y-42895D01*
X99880Y-42895D01*
X99867Y-42900D01*
X99854Y-42900D01*
X99716Y-42958D01*
X100124Y-42550D01*
X100913Y-42550D01*
X100913Y-42550D01*
G37*
G54D22*
X100913Y-42550D02*
X100802Y-42705D01*
X100775Y-42870D01*
X100775Y-43612D01*
X100684Y-43575D01*
X100608Y-43575D01*
X100604Y-43487D01*
X100604Y-43380D01*
X100599Y-43367D01*
X100599Y-43354D01*
X100526Y-43179D01*
X100520Y-43177D01*
X100512Y-43157D01*
X100342Y-42987D01*
X100322Y-42979D01*
X100320Y-42973D01*
X100219Y-42936D01*
X100120Y-42895D01*
X100107Y-42895D01*
X100094Y-42890D01*
X99987Y-42895D01*
X99880Y-42895D01*
X99867Y-42900D01*
X99854Y-42900D01*
X99716Y-42958D01*
X100124Y-42550D01*
X100913Y-42550D01*
G54D10*
G36*
X104630Y-45872D02*
X104619Y-45928D01*
X104603Y-45952D01*
X104578Y-45969D01*
X104497Y-45985D01*
X104497Y-45985D01*
X104382Y-46008D01*
X104382Y-46008D01*
X104285Y-46048D01*
X104187Y-46113D01*
X104113Y-46188D01*
X104113Y-46188D01*
X104048Y-46285D01*
X104008Y-46382D01*
X104008Y-46382D01*
X103985Y-46497D01*
X103985Y-46523D01*
X103980Y-46550D01*
X103980Y-47275D01*
X103912Y-47616D01*
X103735Y-47880D01*
X103735Y-46545D01*
X103577Y-46164D01*
X103287Y-45873D01*
X102906Y-45715D01*
X102495Y-45714D01*
X102114Y-45872D01*
X101823Y-46162D01*
X101665Y-46543D01*
X101664Y-46954D01*
X101822Y-47335D01*
X102112Y-47626D01*
X102493Y-47784D01*
X102904Y-47785D01*
X103285Y-47627D01*
X103576Y-47337D01*
X103734Y-46956D01*
X103735Y-46545D01*
X103735Y-47880D01*
X103733Y-47882D01*
X103466Y-48061D01*
X103123Y-48130D01*
X101975Y-48130D01*
X101749Y-48085D01*
X101578Y-47970D01*
X101465Y-47801D01*
X101414Y-47547D01*
X101414Y-47546D01*
X101376Y-47356D01*
X101336Y-47259D01*
X101335Y-47258D01*
X101228Y-47097D01*
X101227Y-47096D01*
X101153Y-47021D01*
X100991Y-46914D01*
X100991Y-46913D01*
X100896Y-46874D01*
X100961Y-46809D01*
X101045Y-46608D01*
X101045Y-46392D01*
X100962Y-46191D01*
X100809Y-46038D01*
X100608Y-45954D01*
X100392Y-45954D01*
X100300Y-45992D01*
X100300Y-45300D01*
X100300Y-45299D01*
X100414Y-45277D01*
X100414Y-45277D01*
X100512Y-45212D01*
X100812Y-44912D01*
X100812Y-44912D01*
X100877Y-44814D01*
X100894Y-44729D01*
X100942Y-44789D01*
X101163Y-44900D01*
X103156Y-44900D01*
X103154Y-44904D01*
X103154Y-45004D01*
X103154Y-45594D01*
X103192Y-45686D01*
X103262Y-45757D01*
X103354Y-45795D01*
X103454Y-45795D01*
X104044Y-45795D01*
X104136Y-45757D01*
X104207Y-45687D01*
X104245Y-45595D01*
X104245Y-45495D01*
X104245Y-44905D01*
X104207Y-44813D01*
X104137Y-44742D01*
X104045Y-44704D01*
X103945Y-44704D01*
X103525Y-44704D01*
X103570Y-44648D01*
X103625Y-44457D01*
X103625Y-42795D01*
X103807Y-42795D01*
X104008Y-42712D01*
X104161Y-42559D01*
X104245Y-42358D01*
X104245Y-42142D01*
X104162Y-41941D01*
X104009Y-41788D01*
X103808Y-41704D01*
X103592Y-41704D01*
X103391Y-41787D01*
X103238Y-41940D01*
X103234Y-41950D01*
X103050Y-41950D01*
X100000Y-41950D01*
X99885Y-41972D01*
X99787Y-42037D01*
X99187Y-42637D01*
X99122Y-42735D01*
X99100Y-42850D01*
X99100Y-43575D01*
X99035Y-43574D01*
X99035Y-43496D01*
X99035Y-43295D01*
X99033Y-43290D01*
X99033Y-43285D01*
X98882Y-42920D01*
X98880Y-42919D01*
X98877Y-42914D01*
X98587Y-42623D01*
X98580Y-42620D01*
X98579Y-42617D01*
X98458Y-42568D01*
X98468Y-42562D01*
X98664Y-42365D01*
X98670Y-42370D01*
X98934Y-42442D01*
X99205Y-42408D01*
X99442Y-42272D01*
X99609Y-42056D01*
X99681Y-41793D01*
X99690Y-41661D01*
X99790Y-41761D01*
X99991Y-41845D01*
X100207Y-41845D01*
X100408Y-41762D01*
X100561Y-41609D01*
X100645Y-41408D01*
X100645Y-41192D01*
X100574Y-41019D01*
X100704Y-41019D01*
X100704Y-41054D01*
X100704Y-41644D01*
X100742Y-41736D01*
X100812Y-41807D01*
X100904Y-41845D01*
X101004Y-41845D01*
X101594Y-41845D01*
X101686Y-41807D01*
X101757Y-41737D01*
X101795Y-41645D01*
X101795Y-41545D01*
X101795Y-40955D01*
X101757Y-40863D01*
X101687Y-40792D01*
X101595Y-40754D01*
X101495Y-40754D01*
X101224Y-40754D01*
X101251Y-40714D01*
X101291Y-40617D01*
X101291Y-40617D01*
X101314Y-40502D01*
X101314Y-40502D01*
X101320Y-40470D01*
X101326Y-40469D01*
X101830Y-40469D01*
X101830Y-40750D01*
X101835Y-40776D01*
X101835Y-40802D01*
X101881Y-41030D01*
X101881Y-41031D01*
X101921Y-41129D01*
X102051Y-41324D01*
X102125Y-41398D01*
X102126Y-41398D01*
X102319Y-41527D01*
X102320Y-41528D01*
X102417Y-41568D01*
X102647Y-41614D01*
X102752Y-41614D01*
X102753Y-41614D01*
X102980Y-41568D01*
X102981Y-41568D01*
X103079Y-41528D01*
X103274Y-41398D01*
X103348Y-41324D01*
X103348Y-41323D01*
X103477Y-41130D01*
X103478Y-41129D01*
X103518Y-41032D01*
X103564Y-40802D01*
X103564Y-40775D01*
X103569Y-40750D01*
X103569Y-40469D01*
X103923Y-40469D01*
X104035Y-40491D01*
X104108Y-40540D01*
X104157Y-40614D01*
X104185Y-40752D01*
X104185Y-40753D01*
X104219Y-40923D01*
X104219Y-40924D01*
X104259Y-41021D01*
X104357Y-41167D01*
X104431Y-41242D01*
X104432Y-41242D01*
X104577Y-41339D01*
X104577Y-41339D01*
X104630Y-41361D01*
X104630Y-42784D01*
X104559Y-42813D01*
X104558Y-42814D01*
X104397Y-42921D01*
X104396Y-42922D01*
X104321Y-42996D01*
X104214Y-43158D01*
X104213Y-43158D01*
X104173Y-43256D01*
X104135Y-43447D01*
X104135Y-43500D01*
X104135Y-43552D01*
X104173Y-43743D01*
X104213Y-43841D01*
X104214Y-43841D01*
X104321Y-44003D01*
X104396Y-44077D01*
X104397Y-44078D01*
X104558Y-44185D01*
X104559Y-44186D01*
X104630Y-44215D01*
X104630Y-45872D01*
X104630Y-45872D01*
G37*
G54D22*
X104630Y-45872D02*
X104619Y-45928D01*
X104603Y-45952D01*
X104578Y-45969D01*
X104497Y-45985D01*
X104497Y-45985D01*
X104382Y-46008D01*
X104382Y-46008D01*
X104285Y-46048D01*
X104187Y-46113D01*
X104113Y-46188D01*
X104113Y-46188D01*
X104048Y-46285D01*
X104008Y-46382D01*
X104008Y-46382D01*
X103985Y-46497D01*
X103985Y-46523D01*
X103980Y-46550D01*
X103980Y-47275D01*
X103912Y-47616D01*
X103735Y-47880D01*
X103735Y-46545D01*
X103577Y-46164D01*
X103287Y-45873D01*
X102906Y-45715D01*
X102495Y-45714D01*
X102114Y-45872D01*
X101823Y-46162D01*
X101665Y-46543D01*
X101664Y-46954D01*
X101822Y-47335D01*
X102112Y-47626D01*
X102493Y-47784D01*
X102904Y-47785D01*
X103285Y-47627D01*
X103576Y-47337D01*
X103734Y-46956D01*
X103735Y-46545D01*
X103735Y-47880D01*
X103733Y-47882D01*
X103466Y-48061D01*
X103123Y-48130D01*
X101975Y-48130D01*
X101749Y-48085D01*
X101578Y-47970D01*
X101465Y-47801D01*
X101414Y-47547D01*
X101414Y-47546D01*
X101376Y-47356D01*
X101336Y-47259D01*
X101335Y-47258D01*
X101228Y-47097D01*
X101227Y-47096D01*
X101153Y-47021D01*
X100991Y-46914D01*
X100991Y-46913D01*
X100896Y-46874D01*
X100961Y-46809D01*
X101045Y-46608D01*
X101045Y-46392D01*
X100962Y-46191D01*
X100809Y-46038D01*
X100608Y-45954D01*
X100392Y-45954D01*
X100300Y-45992D01*
X100300Y-45300D01*
X100300Y-45299D01*
X100414Y-45277D01*
X100414Y-45277D01*
X100512Y-45212D01*
X100812Y-44912D01*
X100812Y-44912D01*
X100877Y-44814D01*
X100894Y-44729D01*
X100942Y-44789D01*
X101163Y-44900D01*
X103156Y-44900D01*
X103154Y-44904D01*
X103154Y-45004D01*
X103154Y-45594D01*
X103192Y-45686D01*
X103262Y-45757D01*
X103354Y-45795D01*
X103454Y-45795D01*
X104044Y-45795D01*
X104136Y-45757D01*
X104207Y-45687D01*
X104245Y-45595D01*
X104245Y-45495D01*
X104245Y-44905D01*
X104207Y-44813D01*
X104137Y-44742D01*
X104045Y-44704D01*
X103945Y-44704D01*
X103525Y-44704D01*
X103570Y-44648D01*
X103625Y-44457D01*
X103625Y-42795D01*
X103807Y-42795D01*
X104008Y-42712D01*
X104161Y-42559D01*
X104245Y-42358D01*
X104245Y-42142D01*
X104162Y-41941D01*
X104009Y-41788D01*
X103808Y-41704D01*
X103592Y-41704D01*
X103391Y-41787D01*
X103238Y-41940D01*
X103234Y-41950D01*
X103050Y-41950D01*
X100000Y-41950D01*
X99885Y-41972D01*
X99787Y-42037D01*
X99187Y-42637D01*
X99122Y-42735D01*
X99100Y-42850D01*
X99100Y-43575D01*
X99035Y-43574D01*
X99035Y-43496D01*
X99035Y-43295D01*
X99033Y-43290D01*
X99033Y-43285D01*
X98882Y-42920D01*
X98880Y-42919D01*
X98877Y-42914D01*
X98587Y-42623D01*
X98580Y-42620D01*
X98579Y-42617D01*
X98458Y-42568D01*
X98468Y-42562D01*
X98664Y-42365D01*
X98670Y-42370D01*
X98934Y-42442D01*
X99205Y-42408D01*
X99442Y-42272D01*
X99609Y-42056D01*
X99681Y-41793D01*
X99690Y-41661D01*
X99790Y-41761D01*
X99991Y-41845D01*
X100207Y-41845D01*
X100408Y-41762D01*
X100561Y-41609D01*
X100645Y-41408D01*
X100645Y-41192D01*
X100574Y-41019D01*
X100704Y-41019D01*
X100704Y-41054D01*
X100704Y-41644D01*
X100742Y-41736D01*
X100812Y-41807D01*
X100904Y-41845D01*
X101004Y-41845D01*
X101594Y-41845D01*
X101686Y-41807D01*
X101757Y-41737D01*
X101795Y-41645D01*
X101795Y-41545D01*
X101795Y-40955D01*
X101757Y-40863D01*
X101687Y-40792D01*
X101595Y-40754D01*
X101495Y-40754D01*
X101224Y-40754D01*
X101251Y-40714D01*
X101291Y-40617D01*
X101291Y-40617D01*
X101314Y-40502D01*
X101314Y-40502D01*
X101320Y-40470D01*
X101326Y-40469D01*
X101830Y-40469D01*
X101830Y-40750D01*
X101835Y-40776D01*
X101835Y-40802D01*
X101881Y-41030D01*
X101881Y-41031D01*
X101921Y-41129D01*
X102051Y-41324D01*
X102125Y-41398D01*
X102126Y-41398D01*
X102319Y-41527D01*
X102320Y-41528D01*
X102417Y-41568D01*
X102647Y-41614D01*
X102752Y-41614D01*
X102753Y-41614D01*
X102980Y-41568D01*
X102981Y-41568D01*
X103079Y-41528D01*
X103274Y-41398D01*
X103348Y-41324D01*
X103348Y-41323D01*
X103477Y-41130D01*
X103478Y-41129D01*
X103518Y-41032D01*
X103564Y-40802D01*
X103564Y-40775D01*
X103569Y-40750D01*
X103569Y-40469D01*
X103923Y-40469D01*
X104035Y-40491D01*
X104108Y-40540D01*
X104157Y-40614D01*
X104185Y-40752D01*
X104185Y-40753D01*
X104219Y-40923D01*
X104219Y-40924D01*
X104259Y-41021D01*
X104357Y-41167D01*
X104431Y-41242D01*
X104432Y-41242D01*
X104577Y-41339D01*
X104577Y-41339D01*
X104630Y-41361D01*
X104630Y-42784D01*
X104559Y-42813D01*
X104558Y-42814D01*
X104397Y-42921D01*
X104396Y-42922D01*
X104321Y-42996D01*
X104214Y-43158D01*
X104213Y-43158D01*
X104173Y-43256D01*
X104135Y-43447D01*
X104135Y-43500D01*
X104135Y-43552D01*
X104173Y-43743D01*
X104213Y-43841D01*
X104214Y-43841D01*
X104321Y-44003D01*
X104396Y-44077D01*
X104397Y-44078D01*
X104558Y-44185D01*
X104559Y-44186D01*
X104630Y-44215D01*
X104630Y-45872D01*
M02*
