G04 (created by PCBNEW (2013-may-18)-stable) date Wed 16 Sep 2015 11:08:44 PM EDT*
%MOIN*%
G04 Gerber Fmt 3.4, Leading zero omitted, Abs format*
%FSLAX34Y34*%
G01*
G70*
G90*
G04 APERTURE LIST*
%ADD10C,0.00590551*%
%ADD11C,0.0001*%
%ADD12C,0.065*%
%ADD13C,0.0590551*%
%ADD14R,0.0590551X0.0590551*%
%ADD15C,0.055*%
%ADD16C,0.066*%
%ADD17C,0.09*%
%ADD18C,0.09*%
%ADD19C,0.035*%
%ADD20C,0.01*%
G04 APERTURE END LIST*
G54D10*
G54D11*
G36*
X93902Y-43350D02*
X93902Y-43379D01*
X93902Y-43410D01*
X93902Y-43443D01*
X93901Y-43478D01*
X93901Y-43502D01*
X93901Y-43922D01*
X93898Y-43928D01*
X93893Y-43935D01*
X93887Y-43942D01*
X93879Y-43947D01*
X93870Y-43952D01*
X93860Y-43955D01*
X93860Y-43955D01*
X93859Y-43955D01*
X93857Y-43956D01*
X93855Y-43956D01*
X93851Y-43956D01*
X93847Y-43956D01*
X93842Y-43956D01*
X93835Y-43956D01*
X93827Y-43956D01*
X93818Y-43956D01*
X93807Y-43956D01*
X93795Y-43956D01*
X93791Y-43956D01*
X93791Y-43514D01*
X93791Y-43500D01*
X93791Y-43477D01*
X93791Y-43456D01*
X93791Y-43437D01*
X93791Y-43419D01*
X93791Y-43403D01*
X93791Y-43389D01*
X93791Y-43377D01*
X93791Y-43365D01*
X93791Y-43356D01*
X93791Y-43347D01*
X93790Y-43340D01*
X93790Y-43333D01*
X93790Y-43328D01*
X93790Y-43323D01*
X93790Y-43319D01*
X93789Y-43315D01*
X93789Y-43312D01*
X93788Y-43309D01*
X93788Y-43307D01*
X93787Y-43304D01*
X93787Y-43302D01*
X93786Y-43299D01*
X93786Y-43298D01*
X93780Y-43279D01*
X93772Y-43262D01*
X93763Y-43245D01*
X93751Y-43230D01*
X93738Y-43216D01*
X93723Y-43204D01*
X93710Y-43194D01*
X93695Y-43187D01*
X93679Y-43180D01*
X93676Y-43179D01*
X93672Y-43178D01*
X93669Y-43177D01*
X93666Y-43176D01*
X93663Y-43175D01*
X93660Y-43174D01*
X93657Y-43174D01*
X93653Y-43173D01*
X93649Y-43173D01*
X93644Y-43172D01*
X93639Y-43172D01*
X93632Y-43172D01*
X93625Y-43171D01*
X93617Y-43171D01*
X93607Y-43171D01*
X93595Y-43171D01*
X93582Y-43171D01*
X93568Y-43171D01*
X93551Y-43171D01*
X93533Y-43171D01*
X93525Y-43171D01*
X93407Y-43170D01*
X93407Y-43500D01*
X93407Y-43831D01*
X93525Y-43830D01*
X93544Y-43830D01*
X93561Y-43830D01*
X93576Y-43830D01*
X93589Y-43830D01*
X93600Y-43830D01*
X93610Y-43830D01*
X93619Y-43830D01*
X93626Y-43830D01*
X93632Y-43830D01*
X93637Y-43829D01*
X93641Y-43829D01*
X93644Y-43829D01*
X93647Y-43829D01*
X93649Y-43829D01*
X93651Y-43828D01*
X93653Y-43828D01*
X93653Y-43828D01*
X93672Y-43823D01*
X93690Y-43817D01*
X93707Y-43808D01*
X93723Y-43798D01*
X93737Y-43786D01*
X93750Y-43773D01*
X93761Y-43758D01*
X93771Y-43742D01*
X93779Y-43725D01*
X93785Y-43707D01*
X93786Y-43703D01*
X93787Y-43701D01*
X93787Y-43698D01*
X93788Y-43696D01*
X93788Y-43693D01*
X93789Y-43691D01*
X93789Y-43688D01*
X93789Y-43685D01*
X93790Y-43681D01*
X93790Y-43676D01*
X93790Y-43671D01*
X93790Y-43665D01*
X93791Y-43659D01*
X93791Y-43651D01*
X93791Y-43642D01*
X93791Y-43631D01*
X93791Y-43620D01*
X93791Y-43607D01*
X93791Y-43592D01*
X93791Y-43575D01*
X93791Y-43557D01*
X93791Y-43537D01*
X93791Y-43514D01*
X93791Y-43956D01*
X93781Y-43957D01*
X93766Y-43957D01*
X93749Y-43957D01*
X93730Y-43957D01*
X93710Y-43957D01*
X93687Y-43957D01*
X93663Y-43957D01*
X93636Y-43957D01*
X93607Y-43957D01*
X93604Y-43957D01*
X93581Y-43957D01*
X93558Y-43957D01*
X93536Y-43957D01*
X93514Y-43957D01*
X93493Y-43957D01*
X93474Y-43957D01*
X93455Y-43957D01*
X93437Y-43957D01*
X93421Y-43957D01*
X93406Y-43957D01*
X93393Y-43957D01*
X93381Y-43957D01*
X93371Y-43957D01*
X93363Y-43957D01*
X93356Y-43957D01*
X93352Y-43957D01*
X93349Y-43957D01*
X93349Y-43957D01*
X93337Y-43955D01*
X93326Y-43951D01*
X93316Y-43946D01*
X93308Y-43940D01*
X93307Y-43938D01*
X93303Y-43934D01*
X93300Y-43930D01*
X93298Y-43927D01*
X93298Y-43926D01*
X93295Y-43921D01*
X93295Y-43500D01*
X93295Y-43080D01*
X93299Y-43074D01*
X93303Y-43066D01*
X93310Y-43060D01*
X93318Y-43054D01*
X93327Y-43049D01*
X93337Y-43046D01*
X93338Y-43046D01*
X93340Y-43046D01*
X93344Y-43046D01*
X93350Y-43045D01*
X93358Y-43045D01*
X93368Y-43045D01*
X93379Y-43045D01*
X93392Y-43045D01*
X93406Y-43045D01*
X93421Y-43045D01*
X93437Y-43045D01*
X93455Y-43045D01*
X93473Y-43044D01*
X93492Y-43044D01*
X93512Y-43044D01*
X93532Y-43044D01*
X93553Y-43044D01*
X93573Y-43044D01*
X93594Y-43044D01*
X93615Y-43044D01*
X93636Y-43044D01*
X93657Y-43044D01*
X93677Y-43044D01*
X93697Y-43044D01*
X93717Y-43044D01*
X93735Y-43044D01*
X93753Y-43044D01*
X93770Y-43045D01*
X93786Y-43045D01*
X93800Y-43045D01*
X93814Y-43045D01*
X93825Y-43045D01*
X93836Y-43045D01*
X93844Y-43045D01*
X93850Y-43045D01*
X93855Y-43046D01*
X93858Y-43046D01*
X93858Y-43046D01*
X93869Y-43049D01*
X93879Y-43054D01*
X93887Y-43059D01*
X93893Y-43066D01*
X93898Y-43073D01*
X93900Y-43078D01*
X93900Y-43078D01*
X93900Y-43079D01*
X93900Y-43080D01*
X93901Y-43082D01*
X93901Y-43084D01*
X93901Y-43087D01*
X93901Y-43090D01*
X93901Y-43094D01*
X93901Y-43098D01*
X93901Y-43104D01*
X93901Y-43110D01*
X93901Y-43117D01*
X93901Y-43125D01*
X93901Y-43134D01*
X93901Y-43144D01*
X93901Y-43156D01*
X93902Y-43169D01*
X93902Y-43183D01*
X93902Y-43198D01*
X93902Y-43215D01*
X93902Y-43233D01*
X93902Y-43253D01*
X93902Y-43275D01*
X93902Y-43298D01*
X93902Y-43324D01*
X93902Y-43350D01*
X93902Y-43350D01*
X93902Y-43350D01*
G37*
G36*
X94405Y-43213D02*
X94404Y-43221D01*
X94404Y-43229D01*
X94404Y-43234D01*
X94403Y-43237D01*
X94400Y-43243D01*
X94396Y-43249D01*
X94391Y-43254D01*
X94389Y-43255D01*
X94384Y-43259D01*
X94316Y-43259D01*
X94248Y-43259D01*
X94248Y-43534D01*
X94248Y-43809D01*
X94245Y-43814D01*
X94240Y-43821D01*
X94234Y-43826D01*
X94229Y-43829D01*
X94226Y-43830D01*
X94223Y-43831D01*
X94220Y-43832D01*
X94217Y-43832D01*
X94211Y-43832D01*
X94206Y-43832D01*
X94198Y-43833D01*
X94191Y-43832D01*
X94186Y-43832D01*
X94184Y-43831D01*
X94176Y-43828D01*
X94169Y-43824D01*
X94163Y-43817D01*
X94160Y-43812D01*
X94158Y-43807D01*
X94158Y-43533D01*
X94157Y-43259D01*
X94088Y-43259D01*
X94074Y-43259D01*
X94062Y-43259D01*
X94052Y-43259D01*
X94043Y-43259D01*
X94036Y-43259D01*
X94031Y-43259D01*
X94026Y-43259D01*
X94023Y-43258D01*
X94020Y-43258D01*
X94018Y-43258D01*
X94017Y-43258D01*
X94016Y-43257D01*
X94015Y-43257D01*
X94015Y-43256D01*
X94009Y-43253D01*
X94005Y-43248D01*
X94001Y-43242D01*
X94001Y-43241D01*
X94000Y-43238D01*
X93999Y-43236D01*
X93998Y-43233D01*
X93998Y-43230D01*
X93998Y-43226D01*
X93998Y-43220D01*
X93997Y-43216D01*
X93997Y-43209D01*
X93997Y-43204D01*
X93998Y-43200D01*
X93998Y-43196D01*
X93999Y-43193D01*
X93999Y-43190D01*
X94001Y-43185D01*
X94003Y-43182D01*
X94006Y-43178D01*
X94008Y-43177D01*
X94011Y-43173D01*
X94014Y-43171D01*
X94018Y-43170D01*
X94019Y-43170D01*
X94021Y-43169D01*
X94025Y-43169D01*
X94031Y-43169D01*
X94039Y-43169D01*
X94048Y-43169D01*
X94059Y-43169D01*
X94071Y-43169D01*
X94084Y-43169D01*
X94099Y-43168D01*
X94114Y-43168D01*
X94130Y-43168D01*
X94147Y-43168D01*
X94164Y-43168D01*
X94181Y-43168D01*
X94199Y-43168D01*
X94216Y-43168D01*
X94234Y-43168D01*
X94251Y-43168D01*
X94268Y-43168D01*
X94284Y-43168D01*
X94299Y-43168D01*
X94314Y-43168D01*
X94328Y-43169D01*
X94340Y-43169D01*
X94351Y-43169D01*
X94361Y-43169D01*
X94369Y-43169D01*
X94375Y-43169D01*
X94380Y-43169D01*
X94382Y-43169D01*
X94383Y-43169D01*
X94389Y-43172D01*
X94395Y-43176D01*
X94399Y-43183D01*
X94401Y-43186D01*
X94405Y-43193D01*
X94405Y-43213D01*
X94405Y-43213D01*
X94405Y-43213D01*
G37*
G36*
X93703Y-43659D02*
X93700Y-43669D01*
X93695Y-43682D01*
X93689Y-43694D01*
X93682Y-43704D01*
X93673Y-43714D01*
X93673Y-43714D01*
X93662Y-43724D01*
X93651Y-43732D01*
X93638Y-43738D01*
X93628Y-43741D01*
X93618Y-43745D01*
X93556Y-43745D01*
X93495Y-43745D01*
X93495Y-43674D01*
X93494Y-43654D01*
X93494Y-43632D01*
X93494Y-43609D01*
X93494Y-43584D01*
X93494Y-43558D01*
X93494Y-43531D01*
X93494Y-43504D01*
X93494Y-43478D01*
X93494Y-43452D01*
X93494Y-43426D01*
X93494Y-43400D01*
X93494Y-43376D01*
X93494Y-43354D01*
X93494Y-43333D01*
X93495Y-43327D01*
X93495Y-43256D01*
X93556Y-43256D01*
X93567Y-43256D01*
X93578Y-43256D01*
X93588Y-43256D01*
X93597Y-43256D01*
X93604Y-43256D01*
X93610Y-43256D01*
X93615Y-43257D01*
X93617Y-43257D01*
X93618Y-43257D01*
X93619Y-43257D01*
X93622Y-43258D01*
X93626Y-43259D01*
X93626Y-43260D01*
X93631Y-43261D01*
X93636Y-43263D01*
X93642Y-43265D01*
X93643Y-43266D01*
X93657Y-43273D01*
X93669Y-43283D01*
X93679Y-43293D01*
X93688Y-43306D01*
X93695Y-43319D01*
X93700Y-43332D01*
X93703Y-43342D01*
X93703Y-43500D01*
X93703Y-43659D01*
X93703Y-43659D01*
X93703Y-43659D01*
G37*
G54D12*
X96000Y-44500D03*
X100000Y-44500D03*
G54D13*
X98000Y-41300D03*
G54D14*
X96000Y-41300D03*
X92950Y-45250D03*
G54D13*
X92950Y-42250D03*
G54D14*
X95500Y-46500D03*
G54D13*
X100100Y-41300D03*
X103050Y-42250D03*
G54D14*
X103050Y-45250D03*
G54D15*
X99500Y-45500D03*
X96500Y-45500D03*
G54D13*
X96500Y-46500D03*
G54D14*
X99500Y-46500D03*
G54D16*
X97500Y-45500D03*
X98500Y-45500D03*
G54D17*
X99000Y-41500D02*
X98984Y-41728D01*
G54D18*
X97015Y-41925D03*
X96500Y-42500D03*
G54D13*
X100500Y-46500D03*
G54D14*
X101250Y-41300D03*
G54D19*
X100600Y-44000D03*
X98950Y-44600D03*
X96950Y-44000D03*
X99050Y-44000D03*
X97100Y-44600D03*
G54D20*
X101250Y-41300D02*
X101250Y-41850D01*
X101250Y-41850D02*
X100250Y-42850D01*
X97750Y-41750D02*
X98850Y-42850D01*
X98850Y-42850D02*
X99150Y-42850D01*
X100250Y-42850D02*
X99150Y-42850D01*
X97300Y-41300D02*
X96000Y-41300D01*
X100600Y-43200D02*
X100600Y-44000D01*
X100250Y-42850D02*
X100600Y-43200D01*
X97300Y-41300D02*
X97750Y-41750D01*
X95500Y-46500D02*
X95650Y-46500D01*
X98000Y-46000D02*
X98500Y-45500D01*
X96150Y-46000D02*
X98000Y-46000D01*
X95650Y-46500D02*
X96150Y-46000D01*
X92950Y-45250D02*
X96000Y-45250D01*
X98600Y-44950D02*
X98950Y-44600D01*
X96300Y-44950D02*
X98600Y-44950D01*
X96000Y-45250D02*
X96300Y-44950D01*
X103050Y-45250D02*
X100750Y-45250D01*
X100750Y-45250D02*
X100000Y-44500D01*
X100000Y-44500D02*
X99050Y-44500D01*
X99050Y-44500D02*
X98950Y-44600D01*
X100500Y-46500D02*
X100000Y-46000D01*
X98500Y-46500D02*
X96500Y-46500D01*
X99000Y-46000D02*
X98500Y-46500D01*
X100000Y-46000D02*
X99000Y-46000D01*
X98000Y-41300D02*
X98000Y-41700D01*
X100100Y-41700D02*
X100100Y-41300D01*
X99250Y-42550D02*
X100100Y-41700D01*
X98850Y-42550D02*
X99250Y-42550D01*
X98000Y-41700D02*
X98850Y-42550D01*
X95650Y-44000D02*
X95300Y-44000D01*
X96950Y-44000D02*
X95700Y-44000D01*
X95700Y-44000D02*
X95650Y-44000D01*
X94650Y-42250D02*
X92950Y-42250D01*
X95050Y-42650D02*
X94650Y-42250D01*
X95050Y-43750D02*
X95050Y-42650D01*
X95300Y-44000D02*
X95050Y-43750D01*
X96950Y-44000D02*
X97000Y-44000D01*
X98350Y-44700D02*
X99050Y-44000D01*
X97700Y-44700D02*
X98350Y-44700D01*
X97000Y-44000D02*
X97700Y-44700D01*
X96000Y-44500D02*
X97000Y-44500D01*
X97000Y-44500D02*
X97100Y-44600D01*
G54D10*
G36*
X96059Y-46830D02*
X96045Y-46830D01*
X96045Y-46816D01*
X96059Y-46830D01*
X96059Y-46830D01*
G37*
G54D20*
X96059Y-46830D02*
X96045Y-46830D01*
X96045Y-46816D01*
X96059Y-46830D01*
G54D10*
G36*
X96251Y-41845D02*
X96104Y-41906D01*
X95906Y-42102D01*
X95800Y-42360D01*
X95799Y-42638D01*
X95906Y-42896D01*
X95925Y-42914D01*
X95884Y-42914D01*
X95871Y-42920D01*
X95857Y-42920D01*
X95691Y-42989D01*
X95689Y-42995D01*
X95669Y-43003D01*
X95504Y-43168D01*
X95495Y-43189D01*
X95489Y-43191D01*
X95454Y-43287D01*
X95415Y-43383D01*
X95415Y-43396D01*
X95410Y-43409D01*
X95414Y-43512D01*
X95414Y-43615D01*
X95420Y-43628D01*
X95420Y-43642D01*
X95444Y-43700D01*
X95424Y-43700D01*
X95350Y-43625D01*
X95350Y-42650D01*
X95349Y-42649D01*
X95327Y-42535D01*
X95262Y-42437D01*
X95262Y-42437D01*
X94862Y-42037D01*
X94764Y-41972D01*
X94650Y-41950D01*
X93416Y-41950D01*
X93412Y-41941D01*
X93259Y-41788D01*
X93058Y-41704D01*
X92842Y-41704D01*
X92641Y-41787D01*
X92488Y-41940D01*
X92404Y-42141D01*
X92404Y-42357D01*
X92487Y-42558D01*
X92640Y-42711D01*
X92841Y-42795D01*
X93057Y-42795D01*
X93258Y-42712D01*
X93411Y-42559D01*
X93415Y-42550D01*
X94525Y-42550D01*
X94750Y-42774D01*
X94750Y-43750D01*
X94772Y-43864D01*
X94837Y-43962D01*
X95087Y-44212D01*
X95087Y-44212D01*
X95185Y-44277D01*
X95300Y-44300D01*
X95460Y-44300D01*
X95425Y-44385D01*
X95424Y-44613D01*
X95512Y-44825D01*
X95636Y-44950D01*
X94650Y-44950D01*
X94650Y-44200D01*
X94650Y-42800D01*
X93050Y-42800D01*
X93050Y-44200D01*
X94650Y-44200D01*
X94650Y-44950D01*
X93495Y-44950D01*
X93495Y-44905D01*
X93457Y-44813D01*
X93387Y-44742D01*
X93295Y-44704D01*
X93195Y-44704D01*
X92605Y-44704D01*
X92513Y-44742D01*
X92442Y-44812D01*
X92404Y-44904D01*
X92404Y-45004D01*
X92404Y-45594D01*
X92442Y-45686D01*
X92512Y-45757D01*
X92604Y-45795D01*
X92704Y-45795D01*
X92900Y-45795D01*
X92714Y-45872D01*
X92423Y-46162D01*
X92265Y-46543D01*
X92264Y-46954D01*
X92422Y-47335D01*
X92712Y-47626D01*
X93093Y-47784D01*
X93504Y-47785D01*
X93885Y-47627D01*
X94176Y-47337D01*
X94334Y-46956D01*
X94335Y-46545D01*
X94177Y-46164D01*
X93887Y-45873D01*
X93506Y-45715D01*
X93429Y-45715D01*
X93457Y-45687D01*
X93495Y-45595D01*
X93495Y-45550D01*
X95974Y-45550D01*
X95974Y-45603D01*
X96026Y-45728D01*
X95937Y-45787D01*
X95771Y-45954D01*
X95745Y-45954D01*
X95155Y-45954D01*
X95063Y-45992D01*
X94992Y-46062D01*
X94954Y-46154D01*
X94954Y-46254D01*
X94954Y-46844D01*
X94981Y-46908D01*
X94977Y-46910D01*
X94977Y-46910D01*
X94832Y-47007D01*
X94831Y-47007D01*
X94757Y-47082D01*
X94659Y-47228D01*
X94619Y-47325D01*
X94619Y-47326D01*
X94585Y-47496D01*
X94585Y-47497D01*
X94531Y-47769D01*
X94406Y-47957D01*
X94219Y-48081D01*
X93973Y-48130D01*
X92874Y-48130D01*
X92533Y-48062D01*
X92267Y-47883D01*
X92088Y-47616D01*
X92019Y-47273D01*
X92019Y-44215D01*
X92091Y-44186D01*
X92091Y-44185D01*
X92253Y-44078D01*
X92327Y-44003D01*
X92328Y-44002D01*
X92435Y-43841D01*
X92436Y-43840D01*
X92476Y-43743D01*
X92514Y-43552D01*
X92514Y-43552D01*
X92514Y-43552D01*
X92514Y-43552D01*
X92514Y-43500D01*
X92514Y-43447D01*
X92514Y-43447D01*
X92514Y-43447D01*
X92514Y-43447D01*
X92476Y-43256D01*
X92436Y-43159D01*
X92435Y-43158D01*
X92328Y-42997D01*
X92327Y-42996D01*
X92253Y-42921D01*
X92091Y-42814D01*
X92091Y-42813D01*
X92019Y-42784D01*
X92019Y-41311D01*
X92071Y-41290D01*
X92217Y-41192D01*
X92292Y-41118D01*
X92292Y-41117D01*
X92389Y-40972D01*
X92389Y-40972D01*
X92430Y-40875D01*
X92440Y-40825D01*
X92481Y-41030D01*
X92481Y-41031D01*
X92521Y-41129D01*
X92651Y-41324D01*
X92725Y-41398D01*
X92726Y-41398D01*
X92919Y-41527D01*
X92920Y-41528D01*
X93017Y-41568D01*
X93247Y-41614D01*
X93352Y-41614D01*
X93353Y-41614D01*
X93580Y-41568D01*
X93581Y-41568D01*
X93679Y-41528D01*
X93874Y-41398D01*
X93948Y-41324D01*
X93948Y-41323D01*
X94077Y-41130D01*
X94078Y-41129D01*
X94118Y-41032D01*
X94164Y-40802D01*
X94164Y-40775D01*
X94169Y-40750D01*
X94169Y-40469D01*
X94673Y-40469D01*
X94679Y-40470D01*
X94685Y-40502D01*
X94685Y-40502D01*
X94685Y-40502D01*
X94708Y-40617D01*
X94708Y-40617D01*
X94748Y-40714D01*
X94813Y-40811D01*
X94813Y-40811D01*
X94887Y-40886D01*
X94985Y-40951D01*
X95082Y-40991D01*
X95082Y-40991D01*
X95197Y-41014D01*
X95224Y-41014D01*
X95250Y-41019D01*
X95454Y-41019D01*
X95454Y-41054D01*
X95454Y-41644D01*
X95492Y-41736D01*
X95562Y-41807D01*
X95654Y-41845D01*
X95754Y-41845D01*
X96251Y-41845D01*
X96251Y-41845D01*
G37*
G54D20*
X96251Y-41845D02*
X96104Y-41906D01*
X95906Y-42102D01*
X95800Y-42360D01*
X95799Y-42638D01*
X95906Y-42896D01*
X95925Y-42914D01*
X95884Y-42914D01*
X95871Y-42920D01*
X95857Y-42920D01*
X95691Y-42989D01*
X95689Y-42995D01*
X95669Y-43003D01*
X95504Y-43168D01*
X95495Y-43189D01*
X95489Y-43191D01*
X95454Y-43287D01*
X95415Y-43383D01*
X95415Y-43396D01*
X95410Y-43409D01*
X95414Y-43512D01*
X95414Y-43615D01*
X95420Y-43628D01*
X95420Y-43642D01*
X95444Y-43700D01*
X95424Y-43700D01*
X95350Y-43625D01*
X95350Y-42650D01*
X95349Y-42649D01*
X95327Y-42535D01*
X95262Y-42437D01*
X95262Y-42437D01*
X94862Y-42037D01*
X94764Y-41972D01*
X94650Y-41950D01*
X93416Y-41950D01*
X93412Y-41941D01*
X93259Y-41788D01*
X93058Y-41704D01*
X92842Y-41704D01*
X92641Y-41787D01*
X92488Y-41940D01*
X92404Y-42141D01*
X92404Y-42357D01*
X92487Y-42558D01*
X92640Y-42711D01*
X92841Y-42795D01*
X93057Y-42795D01*
X93258Y-42712D01*
X93411Y-42559D01*
X93415Y-42550D01*
X94525Y-42550D01*
X94750Y-42774D01*
X94750Y-43750D01*
X94772Y-43864D01*
X94837Y-43962D01*
X95087Y-44212D01*
X95087Y-44212D01*
X95185Y-44277D01*
X95300Y-44300D01*
X95460Y-44300D01*
X95425Y-44385D01*
X95424Y-44613D01*
X95512Y-44825D01*
X95636Y-44950D01*
X94650Y-44950D01*
X94650Y-44200D01*
X94650Y-42800D01*
X93050Y-42800D01*
X93050Y-44200D01*
X94650Y-44200D01*
X94650Y-44950D01*
X93495Y-44950D01*
X93495Y-44905D01*
X93457Y-44813D01*
X93387Y-44742D01*
X93295Y-44704D01*
X93195Y-44704D01*
X92605Y-44704D01*
X92513Y-44742D01*
X92442Y-44812D01*
X92404Y-44904D01*
X92404Y-45004D01*
X92404Y-45594D01*
X92442Y-45686D01*
X92512Y-45757D01*
X92604Y-45795D01*
X92704Y-45795D01*
X92900Y-45795D01*
X92714Y-45872D01*
X92423Y-46162D01*
X92265Y-46543D01*
X92264Y-46954D01*
X92422Y-47335D01*
X92712Y-47626D01*
X93093Y-47784D01*
X93504Y-47785D01*
X93885Y-47627D01*
X94176Y-47337D01*
X94334Y-46956D01*
X94335Y-46545D01*
X94177Y-46164D01*
X93887Y-45873D01*
X93506Y-45715D01*
X93429Y-45715D01*
X93457Y-45687D01*
X93495Y-45595D01*
X93495Y-45550D01*
X95974Y-45550D01*
X95974Y-45603D01*
X96026Y-45728D01*
X95937Y-45787D01*
X95771Y-45954D01*
X95745Y-45954D01*
X95155Y-45954D01*
X95063Y-45992D01*
X94992Y-46062D01*
X94954Y-46154D01*
X94954Y-46254D01*
X94954Y-46844D01*
X94981Y-46908D01*
X94977Y-46910D01*
X94977Y-46910D01*
X94832Y-47007D01*
X94831Y-47007D01*
X94757Y-47082D01*
X94659Y-47228D01*
X94619Y-47325D01*
X94619Y-47326D01*
X94585Y-47496D01*
X94585Y-47497D01*
X94531Y-47769D01*
X94406Y-47957D01*
X94219Y-48081D01*
X93973Y-48130D01*
X92874Y-48130D01*
X92533Y-48062D01*
X92267Y-47883D01*
X92088Y-47616D01*
X92019Y-47273D01*
X92019Y-44215D01*
X92091Y-44186D01*
X92091Y-44185D01*
X92253Y-44078D01*
X92327Y-44003D01*
X92328Y-44002D01*
X92435Y-43841D01*
X92436Y-43840D01*
X92476Y-43743D01*
X92514Y-43552D01*
X92514Y-43552D01*
X92514Y-43552D01*
X92514Y-43552D01*
X92514Y-43500D01*
X92514Y-43447D01*
X92514Y-43447D01*
X92514Y-43447D01*
X92514Y-43447D01*
X92476Y-43256D01*
X92436Y-43159D01*
X92435Y-43158D01*
X92328Y-42997D01*
X92327Y-42996D01*
X92253Y-42921D01*
X92091Y-42814D01*
X92091Y-42813D01*
X92019Y-42784D01*
X92019Y-41311D01*
X92071Y-41290D01*
X92217Y-41192D01*
X92292Y-41118D01*
X92292Y-41117D01*
X92389Y-40972D01*
X92389Y-40972D01*
X92430Y-40875D01*
X92440Y-40825D01*
X92481Y-41030D01*
X92481Y-41031D01*
X92521Y-41129D01*
X92651Y-41324D01*
X92725Y-41398D01*
X92726Y-41398D01*
X92919Y-41527D01*
X92920Y-41528D01*
X93017Y-41568D01*
X93247Y-41614D01*
X93352Y-41614D01*
X93353Y-41614D01*
X93580Y-41568D01*
X93581Y-41568D01*
X93679Y-41528D01*
X93874Y-41398D01*
X93948Y-41324D01*
X93948Y-41323D01*
X94077Y-41130D01*
X94078Y-41129D01*
X94118Y-41032D01*
X94164Y-40802D01*
X94164Y-40775D01*
X94169Y-40750D01*
X94169Y-40469D01*
X94673Y-40469D01*
X94679Y-40470D01*
X94685Y-40502D01*
X94685Y-40502D01*
X94685Y-40502D01*
X94708Y-40617D01*
X94708Y-40617D01*
X94748Y-40714D01*
X94813Y-40811D01*
X94813Y-40811D01*
X94887Y-40886D01*
X94985Y-40951D01*
X95082Y-40991D01*
X95082Y-40991D01*
X95197Y-41014D01*
X95224Y-41014D01*
X95250Y-41019D01*
X95454Y-41019D01*
X95454Y-41054D01*
X95454Y-41644D01*
X95492Y-41736D01*
X95562Y-41807D01*
X95654Y-41845D01*
X95754Y-41845D01*
X96251Y-41845D01*
G54D10*
G36*
X96975Y-45250D02*
X96970Y-45263D01*
X96964Y-45250D01*
X96975Y-45250D01*
X96975Y-45250D01*
G37*
G54D20*
X96975Y-45250D02*
X96970Y-45263D01*
X96964Y-45250D01*
X96975Y-45250D01*
G54D10*
G36*
X97525Y-41019D02*
X97500Y-41080D01*
X97414Y-41022D01*
X97398Y-41019D01*
X97525Y-41019D01*
X97525Y-41019D01*
G37*
G54D20*
X97525Y-41019D02*
X97500Y-41080D01*
X97414Y-41022D01*
X97398Y-41019D01*
X97525Y-41019D01*
G54D10*
G36*
X98040Y-42464D02*
X97996Y-42464D01*
X97795Y-42464D01*
X97790Y-42466D01*
X97785Y-42466D01*
X97420Y-42617D01*
X97419Y-42619D01*
X97414Y-42622D01*
X97123Y-42912D01*
X97120Y-42919D01*
X97117Y-42920D01*
X97042Y-43107D01*
X96965Y-43293D01*
X96965Y-43298D01*
X96963Y-43302D01*
X96964Y-43503D01*
X96964Y-43575D01*
X96865Y-43574D01*
X96709Y-43639D01*
X96648Y-43700D01*
X96550Y-43700D01*
X96584Y-43616D01*
X96584Y-43603D01*
X96589Y-43590D01*
X96585Y-43487D01*
X96585Y-43384D01*
X96579Y-43371D01*
X96579Y-43357D01*
X96513Y-43200D01*
X96638Y-43200D01*
X96896Y-43093D01*
X97093Y-42897D01*
X97199Y-42639D01*
X97199Y-42606D01*
X97411Y-42518D01*
X97608Y-42322D01*
X97693Y-42117D01*
X98040Y-42464D01*
X98040Y-42464D01*
G37*
G54D20*
X98040Y-42464D02*
X97996Y-42464D01*
X97795Y-42464D01*
X97790Y-42466D01*
X97785Y-42466D01*
X97420Y-42617D01*
X97419Y-42619D01*
X97414Y-42622D01*
X97123Y-42912D01*
X97120Y-42919D01*
X97117Y-42920D01*
X97042Y-43107D01*
X96965Y-43293D01*
X96965Y-43298D01*
X96963Y-43302D01*
X96964Y-43503D01*
X96964Y-43575D01*
X96865Y-43574D01*
X96709Y-43639D01*
X96648Y-43700D01*
X96550Y-43700D01*
X96584Y-43616D01*
X96584Y-43603D01*
X96589Y-43590D01*
X96585Y-43487D01*
X96585Y-43384D01*
X96579Y-43371D01*
X96579Y-43357D01*
X96513Y-43200D01*
X96638Y-43200D01*
X96896Y-43093D01*
X97093Y-42897D01*
X97199Y-42639D01*
X97199Y-42606D01*
X97411Y-42518D01*
X97608Y-42322D01*
X97693Y-42117D01*
X98040Y-42464D01*
G54D10*
G36*
X98492Y-41019D02*
X98480Y-41035D01*
X98474Y-41019D01*
X98492Y-41019D01*
X98492Y-41019D01*
G37*
G54D20*
X98492Y-41019D02*
X98480Y-41035D01*
X98474Y-41019D01*
X98492Y-41019D01*
G54D10*
G36*
X98495Y-46079D02*
X98375Y-46200D01*
X98224Y-46200D01*
X98356Y-46068D01*
X98384Y-46079D01*
X98495Y-46079D01*
X98495Y-46079D01*
G37*
G54D20*
X98495Y-46079D02*
X98375Y-46200D01*
X98224Y-46200D01*
X98356Y-46068D01*
X98384Y-46079D01*
X98495Y-46079D01*
G54D10*
G36*
X98954Y-46830D02*
X96940Y-46830D01*
X96961Y-46809D01*
X96965Y-46800D01*
X98500Y-46800D01*
X98500Y-46799D01*
X98614Y-46777D01*
X98614Y-46777D01*
X98712Y-46712D01*
X98954Y-46469D01*
X98954Y-46830D01*
X98954Y-46830D01*
G37*
G54D20*
X98954Y-46830D02*
X96940Y-46830D01*
X96961Y-46809D01*
X96965Y-46800D01*
X98500Y-46800D01*
X98500Y-46799D01*
X98614Y-46777D01*
X98614Y-46777D01*
X98712Y-46712D01*
X98954Y-46469D01*
X98954Y-46830D01*
G54D10*
G36*
X99625Y-41019D02*
X99584Y-41120D01*
X99529Y-41024D01*
X99522Y-41019D01*
X99625Y-41019D01*
X99625Y-41019D01*
G37*
G54D20*
X99625Y-41019D02*
X99584Y-41120D01*
X99529Y-41024D01*
X99522Y-41019D01*
X99625Y-41019D01*
G54D10*
G36*
X99689Y-44006D02*
X99674Y-44012D01*
X99512Y-44173D01*
X99501Y-44200D01*
X99427Y-44200D01*
X99474Y-44084D01*
X99475Y-43915D01*
X99410Y-43759D01*
X99291Y-43639D01*
X99134Y-43575D01*
X99035Y-43574D01*
X99035Y-43496D01*
X99035Y-43295D01*
X99033Y-43290D01*
X99033Y-43285D01*
X98977Y-43150D01*
X99150Y-43150D01*
X99522Y-43150D01*
X99504Y-43168D01*
X99495Y-43189D01*
X99489Y-43191D01*
X99454Y-43287D01*
X99415Y-43383D01*
X99415Y-43396D01*
X99410Y-43409D01*
X99414Y-43512D01*
X99414Y-43615D01*
X99420Y-43628D01*
X99420Y-43642D01*
X99489Y-43808D01*
X99495Y-43810D01*
X99503Y-43830D01*
X99668Y-43995D01*
X99689Y-44004D01*
X99689Y-44006D01*
X99689Y-44006D01*
G37*
G54D20*
X99689Y-44006D02*
X99674Y-44012D01*
X99512Y-44173D01*
X99501Y-44200D01*
X99427Y-44200D01*
X99474Y-44084D01*
X99475Y-43915D01*
X99410Y-43759D01*
X99291Y-43639D01*
X99134Y-43575D01*
X99035Y-43574D01*
X99035Y-43496D01*
X99035Y-43295D01*
X99033Y-43290D01*
X99033Y-43285D01*
X98977Y-43150D01*
X99150Y-43150D01*
X99522Y-43150D01*
X99504Y-43168D01*
X99495Y-43189D01*
X99489Y-43191D01*
X99454Y-43287D01*
X99415Y-43383D01*
X99415Y-43396D01*
X99410Y-43409D01*
X99414Y-43512D01*
X99414Y-43615D01*
X99420Y-43628D01*
X99420Y-43642D01*
X99489Y-43808D01*
X99495Y-43810D01*
X99503Y-43830D01*
X99668Y-43995D01*
X99689Y-44004D01*
X99689Y-44006D01*
G54D10*
G36*
X99702Y-41673D02*
X99688Y-41686D01*
X99690Y-41661D01*
X99702Y-41673D01*
X99702Y-41673D01*
G37*
G54D20*
X99702Y-41673D02*
X99688Y-41686D01*
X99690Y-41661D01*
X99702Y-41673D01*
G54D10*
G36*
X100059Y-46830D02*
X100045Y-46830D01*
X100045Y-46816D01*
X100059Y-46830D01*
X100059Y-46830D01*
G37*
G54D20*
X100059Y-46830D02*
X100045Y-46830D01*
X100045Y-46816D01*
X100059Y-46830D01*
G54D10*
G36*
X100852Y-41823D02*
X100125Y-42550D01*
X99674Y-42550D01*
X100312Y-41912D01*
X100377Y-41814D01*
X100385Y-41771D01*
X100408Y-41762D01*
X100561Y-41609D01*
X100645Y-41408D01*
X100645Y-41192D01*
X100574Y-41019D01*
X100704Y-41019D01*
X100704Y-41054D01*
X100704Y-41644D01*
X100742Y-41736D01*
X100812Y-41807D01*
X100852Y-41823D01*
X100852Y-41823D01*
G37*
G54D20*
X100852Y-41823D02*
X100125Y-42550D01*
X99674Y-42550D01*
X100312Y-41912D01*
X100377Y-41814D01*
X100385Y-41771D01*
X100408Y-41762D01*
X100561Y-41609D01*
X100645Y-41408D01*
X100645Y-41192D01*
X100574Y-41019D01*
X100704Y-41019D01*
X100704Y-41054D01*
X100704Y-41644D01*
X100742Y-41736D01*
X100812Y-41807D01*
X100852Y-41823D01*
G54D10*
G36*
X103980Y-47275D02*
X103912Y-47616D01*
X103733Y-47882D01*
X103466Y-48061D01*
X103123Y-48130D01*
X101975Y-48130D01*
X101749Y-48085D01*
X101578Y-47970D01*
X101465Y-47801D01*
X101414Y-47547D01*
X101414Y-47546D01*
X101376Y-47356D01*
X101336Y-47259D01*
X101335Y-47258D01*
X101228Y-47097D01*
X101227Y-47096D01*
X101153Y-47021D01*
X100991Y-46914D01*
X100991Y-46913D01*
X100896Y-46874D01*
X100961Y-46809D01*
X101045Y-46608D01*
X101045Y-46392D01*
X100962Y-46191D01*
X100809Y-46038D01*
X100608Y-45954D01*
X100392Y-45954D01*
X100382Y-45958D01*
X100212Y-45787D01*
X100114Y-45722D01*
X100000Y-45700D01*
X99985Y-45700D01*
X100024Y-45604D01*
X100025Y-45396D01*
X99945Y-45203D01*
X99797Y-45055D01*
X99604Y-44975D01*
X99396Y-44974D01*
X99203Y-45054D01*
X99055Y-45202D01*
X99029Y-45263D01*
X98991Y-45171D01*
X98897Y-45076D01*
X98949Y-45024D01*
X99034Y-45025D01*
X99190Y-44960D01*
X99310Y-44841D01*
X99327Y-44800D01*
X99501Y-44800D01*
X99512Y-44825D01*
X99673Y-44987D01*
X99885Y-45074D01*
X100113Y-45075D01*
X100140Y-45064D01*
X100537Y-45462D01*
X100537Y-45462D01*
X100635Y-45527D01*
X100749Y-45549D01*
X100750Y-45550D01*
X102504Y-45550D01*
X102504Y-45594D01*
X102542Y-45686D01*
X102570Y-45714D01*
X102495Y-45714D01*
X102114Y-45872D01*
X101823Y-46162D01*
X101665Y-46543D01*
X101664Y-46954D01*
X101822Y-47335D01*
X102112Y-47626D01*
X102493Y-47784D01*
X102904Y-47785D01*
X103285Y-47627D01*
X103576Y-47337D01*
X103734Y-46956D01*
X103735Y-46545D01*
X103577Y-46164D01*
X103287Y-45873D01*
X103099Y-45795D01*
X103394Y-45795D01*
X103486Y-45757D01*
X103557Y-45687D01*
X103595Y-45595D01*
X103595Y-45495D01*
X103595Y-44905D01*
X103557Y-44813D01*
X103487Y-44742D01*
X103395Y-44704D01*
X103295Y-44704D01*
X102705Y-44704D01*
X102613Y-44742D01*
X102542Y-44812D01*
X102504Y-44904D01*
X102504Y-44950D01*
X100874Y-44950D01*
X100564Y-44640D01*
X100574Y-44614D01*
X100575Y-44424D01*
X100684Y-44425D01*
X100840Y-44360D01*
X100960Y-44241D01*
X101024Y-44084D01*
X101025Y-43915D01*
X100960Y-43759D01*
X100900Y-43698D01*
X100900Y-43200D01*
X100899Y-43199D01*
X100877Y-43085D01*
X100812Y-42987D01*
X100812Y-42987D01*
X100674Y-42849D01*
X101462Y-42062D01*
X101462Y-42062D01*
X101527Y-41964D01*
X101549Y-41850D01*
X101550Y-41850D01*
X101550Y-41845D01*
X101594Y-41845D01*
X101686Y-41807D01*
X101757Y-41737D01*
X101795Y-41645D01*
X101795Y-41545D01*
X101795Y-40955D01*
X101757Y-40863D01*
X101687Y-40792D01*
X101595Y-40754D01*
X101495Y-40754D01*
X101224Y-40754D01*
X101251Y-40714D01*
X101291Y-40617D01*
X101291Y-40617D01*
X101314Y-40502D01*
X101314Y-40502D01*
X101320Y-40470D01*
X101326Y-40469D01*
X101830Y-40469D01*
X101830Y-40750D01*
X101835Y-40776D01*
X101835Y-40802D01*
X101881Y-41030D01*
X101881Y-41031D01*
X101921Y-41129D01*
X102051Y-41324D01*
X102125Y-41398D01*
X102126Y-41398D01*
X102319Y-41527D01*
X102320Y-41528D01*
X102417Y-41568D01*
X102647Y-41614D01*
X102752Y-41614D01*
X102753Y-41614D01*
X102980Y-41568D01*
X102981Y-41568D01*
X103079Y-41528D01*
X103274Y-41398D01*
X103348Y-41324D01*
X103348Y-41323D01*
X103477Y-41130D01*
X103478Y-41129D01*
X103518Y-41032D01*
X103555Y-40850D01*
X103569Y-40923D01*
X103569Y-40924D01*
X103609Y-41021D01*
X103707Y-41167D01*
X103781Y-41242D01*
X103782Y-41242D01*
X103927Y-41339D01*
X103927Y-41339D01*
X103980Y-41361D01*
X103980Y-42784D01*
X103909Y-42813D01*
X103908Y-42814D01*
X103747Y-42921D01*
X103746Y-42922D01*
X103671Y-42996D01*
X103595Y-43111D01*
X103595Y-42142D01*
X103512Y-41941D01*
X103359Y-41788D01*
X103158Y-41704D01*
X102942Y-41704D01*
X102741Y-41787D01*
X102588Y-41940D01*
X102504Y-42141D01*
X102504Y-42357D01*
X102587Y-42558D01*
X102740Y-42711D01*
X102941Y-42795D01*
X103157Y-42795D01*
X103358Y-42712D01*
X103511Y-42559D01*
X103595Y-42358D01*
X103595Y-42142D01*
X103595Y-43111D01*
X103564Y-43158D01*
X103563Y-43158D01*
X103523Y-43256D01*
X103485Y-43447D01*
X103485Y-43500D01*
X103485Y-43552D01*
X103523Y-43743D01*
X103563Y-43841D01*
X103564Y-43841D01*
X103671Y-44003D01*
X103746Y-44077D01*
X103747Y-44078D01*
X103908Y-44185D01*
X103909Y-44186D01*
X103980Y-44215D01*
X103980Y-47275D01*
X103980Y-47275D01*
G37*
G54D20*
X103980Y-47275D02*
X103912Y-47616D01*
X103733Y-47882D01*
X103466Y-48061D01*
X103123Y-48130D01*
X101975Y-48130D01*
X101749Y-48085D01*
X101578Y-47970D01*
X101465Y-47801D01*
X101414Y-47547D01*
X101414Y-47546D01*
X101376Y-47356D01*
X101336Y-47259D01*
X101335Y-47258D01*
X101228Y-47097D01*
X101227Y-47096D01*
X101153Y-47021D01*
X100991Y-46914D01*
X100991Y-46913D01*
X100896Y-46874D01*
X100961Y-46809D01*
X101045Y-46608D01*
X101045Y-46392D01*
X100962Y-46191D01*
X100809Y-46038D01*
X100608Y-45954D01*
X100392Y-45954D01*
X100382Y-45958D01*
X100212Y-45787D01*
X100114Y-45722D01*
X100000Y-45700D01*
X99985Y-45700D01*
X100024Y-45604D01*
X100025Y-45396D01*
X99945Y-45203D01*
X99797Y-45055D01*
X99604Y-44975D01*
X99396Y-44974D01*
X99203Y-45054D01*
X99055Y-45202D01*
X99029Y-45263D01*
X98991Y-45171D01*
X98897Y-45076D01*
X98949Y-45024D01*
X99034Y-45025D01*
X99190Y-44960D01*
X99310Y-44841D01*
X99327Y-44800D01*
X99501Y-44800D01*
X99512Y-44825D01*
X99673Y-44987D01*
X99885Y-45074D01*
X100113Y-45075D01*
X100140Y-45064D01*
X100537Y-45462D01*
X100537Y-45462D01*
X100635Y-45527D01*
X100749Y-45549D01*
X100750Y-45550D01*
X102504Y-45550D01*
X102504Y-45594D01*
X102542Y-45686D01*
X102570Y-45714D01*
X102495Y-45714D01*
X102114Y-45872D01*
X101823Y-46162D01*
X101665Y-46543D01*
X101664Y-46954D01*
X101822Y-47335D01*
X102112Y-47626D01*
X102493Y-47784D01*
X102904Y-47785D01*
X103285Y-47627D01*
X103576Y-47337D01*
X103734Y-46956D01*
X103735Y-46545D01*
X103577Y-46164D01*
X103287Y-45873D01*
X103099Y-45795D01*
X103394Y-45795D01*
X103486Y-45757D01*
X103557Y-45687D01*
X103595Y-45595D01*
X103595Y-45495D01*
X103595Y-44905D01*
X103557Y-44813D01*
X103487Y-44742D01*
X103395Y-44704D01*
X103295Y-44704D01*
X102705Y-44704D01*
X102613Y-44742D01*
X102542Y-44812D01*
X102504Y-44904D01*
X102504Y-44950D01*
X100874Y-44950D01*
X100564Y-44640D01*
X100574Y-44614D01*
X100575Y-44424D01*
X100684Y-44425D01*
X100840Y-44360D01*
X100960Y-44241D01*
X101024Y-44084D01*
X101025Y-43915D01*
X100960Y-43759D01*
X100900Y-43698D01*
X100900Y-43200D01*
X100899Y-43199D01*
X100877Y-43085D01*
X100812Y-42987D01*
X100812Y-42987D01*
X100674Y-42849D01*
X101462Y-42062D01*
X101462Y-42062D01*
X101527Y-41964D01*
X101549Y-41850D01*
X101550Y-41850D01*
X101550Y-41845D01*
X101594Y-41845D01*
X101686Y-41807D01*
X101757Y-41737D01*
X101795Y-41645D01*
X101795Y-41545D01*
X101795Y-40955D01*
X101757Y-40863D01*
X101687Y-40792D01*
X101595Y-40754D01*
X101495Y-40754D01*
X101224Y-40754D01*
X101251Y-40714D01*
X101291Y-40617D01*
X101291Y-40617D01*
X101314Y-40502D01*
X101314Y-40502D01*
X101320Y-40470D01*
X101326Y-40469D01*
X101830Y-40469D01*
X101830Y-40750D01*
X101835Y-40776D01*
X101835Y-40802D01*
X101881Y-41030D01*
X101881Y-41031D01*
X101921Y-41129D01*
X102051Y-41324D01*
X102125Y-41398D01*
X102126Y-41398D01*
X102319Y-41527D01*
X102320Y-41528D01*
X102417Y-41568D01*
X102647Y-41614D01*
X102752Y-41614D01*
X102753Y-41614D01*
X102980Y-41568D01*
X102981Y-41568D01*
X103079Y-41528D01*
X103274Y-41398D01*
X103348Y-41324D01*
X103348Y-41323D01*
X103477Y-41130D01*
X103478Y-41129D01*
X103518Y-41032D01*
X103555Y-40850D01*
X103569Y-40923D01*
X103569Y-40924D01*
X103609Y-41021D01*
X103707Y-41167D01*
X103781Y-41242D01*
X103782Y-41242D01*
X103927Y-41339D01*
X103927Y-41339D01*
X103980Y-41361D01*
X103980Y-42784D01*
X103909Y-42813D01*
X103908Y-42814D01*
X103747Y-42921D01*
X103746Y-42922D01*
X103671Y-42996D01*
X103595Y-43111D01*
X103595Y-42142D01*
X103512Y-41941D01*
X103359Y-41788D01*
X103158Y-41704D01*
X102942Y-41704D01*
X102741Y-41787D01*
X102588Y-41940D01*
X102504Y-42141D01*
X102504Y-42357D01*
X102587Y-42558D01*
X102740Y-42711D01*
X102941Y-42795D01*
X103157Y-42795D01*
X103358Y-42712D01*
X103511Y-42559D01*
X103595Y-42358D01*
X103595Y-42142D01*
X103595Y-43111D01*
X103564Y-43158D01*
X103563Y-43158D01*
X103523Y-43256D01*
X103485Y-43447D01*
X103485Y-43500D01*
X103485Y-43552D01*
X103523Y-43743D01*
X103563Y-43841D01*
X103564Y-43841D01*
X103671Y-44003D01*
X103746Y-44077D01*
X103747Y-44078D01*
X103908Y-44185D01*
X103909Y-44186D01*
X103980Y-44215D01*
X103980Y-47275D01*
M02*
