G04 (created by PCBNEW (2013-may-18)-stable) date Wed 16 Sep 2015 11:08:44 PM EDT*
%MOIN*%
G04 Gerber Fmt 3.4, Leading zero omitted, Abs format*
%FSLAX34Y34*%
G01*
G70*
G90*
G04 APERTURE LIST*
%ADD10C,0.00590551*%
%ADD11C,0.0001*%
%ADD12C,0.157*%
%ADD13C,0.065*%
%ADD14C,0.0590551*%
%ADD15R,0.0590551X0.0590551*%
%ADD16C,0.055*%
%ADD17C,0.066*%
%ADD18C,0.09*%
%ADD19C,0.09*%
%ADD20C,0.067*%
G04 APERTURE END LIST*
G54D10*
G54D11*
G36*
X94627Y-43704D02*
X94627Y-43725D01*
X94627Y-43745D01*
X94627Y-43764D01*
X94627Y-43781D01*
X94627Y-43796D01*
X94627Y-43811D01*
X94626Y-43823D01*
X94626Y-43835D01*
X94626Y-43846D01*
X94626Y-43855D01*
X94626Y-43864D01*
X94626Y-43871D01*
X94626Y-43878D01*
X94625Y-43884D01*
X94625Y-43889D01*
X94625Y-43894D01*
X94624Y-43898D01*
X94624Y-43901D01*
X94624Y-43905D01*
X94623Y-43907D01*
X94623Y-43910D01*
X94622Y-43912D01*
X94622Y-43915D01*
X94621Y-43917D01*
X94621Y-43919D01*
X94620Y-43921D01*
X94620Y-43924D01*
X94619Y-43926D01*
X94618Y-43928D01*
X94615Y-43940D01*
X94612Y-43951D01*
X94608Y-43961D01*
X94603Y-43972D01*
X94598Y-43983D01*
X94586Y-44005D01*
X94572Y-44025D01*
X94557Y-44044D01*
X94540Y-44062D01*
X94522Y-44078D01*
X94502Y-44092D01*
X94481Y-44105D01*
X94471Y-44110D01*
X94452Y-44119D01*
X94433Y-44126D01*
X94413Y-44131D01*
X94392Y-44136D01*
X94389Y-44136D01*
X94375Y-44139D01*
X93856Y-44139D01*
X93823Y-44139D01*
X93789Y-44139D01*
X93756Y-44139D01*
X93724Y-44139D01*
X93693Y-44139D01*
X93662Y-44139D01*
X93633Y-44139D01*
X93604Y-44139D01*
X93576Y-44139D01*
X93549Y-44139D01*
X93524Y-44139D01*
X93499Y-44139D01*
X93476Y-44139D01*
X93455Y-44139D01*
X93435Y-44139D01*
X93416Y-44139D01*
X93399Y-44139D01*
X93384Y-44139D01*
X93370Y-44139D01*
X93358Y-44139D01*
X93348Y-44139D01*
X93340Y-44138D01*
X93334Y-44138D01*
X93330Y-44138D01*
X93328Y-44138D01*
X93328Y-44138D01*
X93303Y-44135D01*
X93279Y-44129D01*
X93256Y-44122D01*
X93234Y-44112D01*
X93212Y-44101D01*
X93192Y-44088D01*
X93173Y-44074D01*
X93155Y-44057D01*
X93139Y-44040D01*
X93124Y-44020D01*
X93111Y-44000D01*
X93102Y-43983D01*
X93097Y-43972D01*
X93092Y-43961D01*
X93088Y-43950D01*
X93085Y-43940D01*
X93082Y-43928D01*
X93081Y-43925D01*
X93080Y-43922D01*
X93080Y-43920D01*
X93079Y-43918D01*
X93078Y-43916D01*
X93078Y-43913D01*
X93077Y-43911D01*
X93077Y-43909D01*
X93076Y-43906D01*
X93076Y-43903D01*
X93076Y-43900D01*
X93075Y-43896D01*
X93075Y-43892D01*
X93075Y-43887D01*
X93075Y-43881D01*
X93074Y-43875D01*
X93074Y-43868D01*
X93074Y-43860D01*
X93074Y-43851D01*
X93074Y-43841D01*
X93074Y-43830D01*
X93074Y-43817D01*
X93073Y-43804D01*
X93073Y-43789D01*
X93073Y-43773D01*
X93073Y-43755D01*
X93073Y-43736D01*
X93073Y-43715D01*
X93073Y-43693D01*
X93073Y-43669D01*
X93073Y-43643D01*
X93073Y-43615D01*
X93073Y-43585D01*
X93073Y-43553D01*
X93073Y-43519D01*
X93073Y-43500D01*
X93073Y-43466D01*
X93073Y-43433D01*
X93073Y-43402D01*
X93073Y-43373D01*
X93073Y-43346D01*
X93073Y-43321D01*
X93073Y-43297D01*
X93073Y-43276D01*
X93073Y-43256D01*
X93073Y-43237D01*
X93073Y-43220D01*
X93073Y-43205D01*
X93073Y-43191D01*
X93074Y-43178D01*
X93074Y-43166D01*
X93074Y-43155D01*
X93074Y-43146D01*
X93074Y-43137D01*
X93074Y-43130D01*
X93074Y-43123D01*
X93075Y-43117D01*
X93075Y-43112D01*
X93075Y-43107D01*
X93076Y-43103D01*
X93076Y-43100D01*
X93076Y-43097D01*
X93077Y-43094D01*
X93077Y-43091D01*
X93078Y-43089D01*
X93078Y-43087D01*
X93079Y-43084D01*
X93079Y-43082D01*
X93080Y-43080D01*
X93080Y-43077D01*
X93081Y-43075D01*
X93082Y-43073D01*
X93085Y-43061D01*
X93088Y-43050D01*
X93092Y-43040D01*
X93097Y-43029D01*
X93102Y-43018D01*
X93114Y-42996D01*
X93128Y-42976D01*
X93143Y-42956D01*
X93160Y-42939D01*
X93179Y-42922D01*
X93199Y-42908D01*
X93208Y-42902D01*
X93218Y-42897D01*
X93228Y-42891D01*
X93239Y-42886D01*
X93249Y-42882D01*
X93257Y-42879D01*
X93266Y-42876D01*
X93276Y-42873D01*
X93288Y-42870D01*
X93300Y-42867D01*
X93310Y-42865D01*
X93315Y-42864D01*
X93317Y-42864D01*
X93318Y-42864D01*
X93319Y-42864D01*
X93321Y-42864D01*
X93323Y-42863D01*
X93325Y-42863D01*
X93328Y-42863D01*
X93331Y-42863D01*
X93335Y-42863D01*
X93339Y-42863D01*
X93344Y-42863D01*
X93349Y-42863D01*
X93356Y-42863D01*
X93363Y-42863D01*
X93371Y-42863D01*
X93380Y-42863D01*
X93390Y-42862D01*
X93401Y-42862D01*
X93413Y-42862D01*
X93427Y-42862D01*
X93441Y-42862D01*
X93457Y-42862D01*
X93475Y-42862D01*
X93493Y-42862D01*
X93514Y-42862D01*
X93535Y-42862D01*
X93559Y-42862D01*
X93584Y-42862D01*
X93611Y-42862D01*
X93640Y-42862D01*
X93670Y-42862D01*
X93702Y-42862D01*
X93737Y-42862D01*
X93773Y-42862D01*
X93812Y-42862D01*
X93850Y-42862D01*
X93890Y-42862D01*
X93929Y-42862D01*
X93965Y-42862D01*
X93999Y-42862D01*
X94032Y-42862D01*
X94062Y-42862D01*
X94091Y-42862D01*
X94117Y-42862D01*
X94142Y-42862D01*
X94166Y-42862D01*
X94187Y-42862D01*
X94208Y-42862D01*
X94226Y-42862D01*
X94244Y-42862D01*
X94259Y-42862D01*
X94274Y-42862D01*
X94287Y-42862D01*
X94300Y-42862D01*
X94311Y-42862D01*
X94321Y-42863D01*
X94329Y-42863D01*
X94338Y-42863D01*
X94345Y-42863D01*
X94351Y-42863D01*
X94356Y-42863D01*
X94361Y-42863D01*
X94366Y-42863D01*
X94369Y-42863D01*
X94372Y-42863D01*
X94375Y-42863D01*
X94377Y-42863D01*
X94379Y-42864D01*
X94381Y-42864D01*
X94382Y-42864D01*
X94383Y-42864D01*
X94385Y-42864D01*
X94395Y-42866D01*
X94406Y-42868D01*
X94418Y-42871D01*
X94429Y-42874D01*
X94439Y-42877D01*
X94443Y-42879D01*
X94453Y-42883D01*
X94463Y-42887D01*
X94474Y-42893D01*
X94485Y-42898D01*
X94494Y-42904D01*
X94501Y-42908D01*
X94521Y-42923D01*
X94540Y-42939D01*
X94557Y-42957D01*
X94572Y-42976D01*
X94586Y-42996D01*
X94598Y-43018D01*
X94603Y-43029D01*
X94608Y-43040D01*
X94612Y-43051D01*
X94615Y-43062D01*
X94618Y-43073D01*
X94619Y-43076D01*
X94620Y-43079D01*
X94620Y-43081D01*
X94621Y-43083D01*
X94622Y-43085D01*
X94622Y-43088D01*
X94623Y-43090D01*
X94623Y-43092D01*
X94624Y-43095D01*
X94624Y-43098D01*
X94624Y-43101D01*
X94625Y-43105D01*
X94625Y-43109D01*
X94625Y-43114D01*
X94625Y-43120D01*
X94626Y-43126D01*
X94626Y-43133D01*
X94626Y-43141D01*
X94626Y-43150D01*
X94626Y-43160D01*
X94626Y-43171D01*
X94626Y-43184D01*
X94627Y-43197D01*
X94627Y-43212D01*
X94627Y-43228D01*
X94627Y-43246D01*
X94627Y-43265D01*
X94627Y-43286D01*
X94627Y-43308D01*
X94627Y-43332D01*
X94627Y-43359D01*
X94627Y-43386D01*
X94627Y-43416D01*
X94627Y-43448D01*
X94627Y-43482D01*
X94627Y-43500D01*
X94627Y-43535D01*
X94627Y-43568D01*
X94627Y-43599D01*
X94627Y-43628D01*
X94627Y-43655D01*
X94627Y-43680D01*
X94627Y-43704D01*
X94627Y-43704D01*
X94627Y-43704D01*
G37*
G54D12*
X102700Y-46750D03*
G54D13*
X96000Y-44500D03*
X100000Y-44500D03*
G54D14*
X98000Y-41300D03*
G54D15*
X96000Y-41300D03*
X92950Y-45250D03*
G54D14*
X92950Y-42250D03*
G54D15*
X95500Y-46500D03*
G54D14*
X100100Y-41300D03*
X103050Y-42250D03*
G54D15*
X103050Y-45250D03*
G54D16*
X99500Y-45500D03*
X96500Y-45500D03*
G54D14*
X96500Y-46500D03*
G54D15*
X99500Y-46500D03*
G54D17*
X97500Y-45500D03*
X98500Y-45500D03*
G54D18*
X99000Y-41500D02*
X98984Y-41728D01*
G54D19*
X97015Y-41925D03*
X96500Y-42500D03*
G54D12*
X98000Y-43500D03*
G54D20*
X96000Y-43500D03*
X100000Y-43500D03*
G54D14*
X100500Y-46500D03*
G54D12*
X93300Y-46750D03*
G54D15*
X101250Y-41300D03*
M02*
