G04 (created by PCBNEW (2013-may-18)-stable) date Sat 31 Oct 2015 09:22:13 PM EDT*
%MOIN*%
G04 Gerber Fmt 3.4, Leading zero omitted, Abs format*
%FSLAX34Y34*%
G01*
G70*
G90*
G04 APERTURE LIST*
%ADD10C,0.00590551*%
%ADD11C,0.00393701*%
%ADD12C,0.015*%
%ADD13C,0.012*%
%ADD14C,0.011811*%
%ADD15C,0.00787402*%
%ADD16C,0.0039*%
%ADD17C,0.0001*%
G04 APERTURE END LIST*
G54D10*
G54D11*
X92300Y-42250D02*
X93200Y-42250D01*
X102800Y-42250D02*
X103500Y-42250D01*
X101450Y-42100D02*
X101450Y-41600D01*
G54D10*
X101201Y-42060D02*
X101313Y-42060D01*
X101313Y-41824D01*
X100987Y-42038D02*
X100998Y-42049D01*
X101032Y-42060D01*
X101055Y-42060D01*
X101088Y-42049D01*
X101111Y-42026D01*
X101122Y-42004D01*
X101133Y-41959D01*
X101133Y-41925D01*
X101122Y-41880D01*
X101111Y-41858D01*
X101088Y-41835D01*
X101055Y-41824D01*
X101032Y-41824D01*
X100998Y-41835D01*
X100987Y-41846D01*
G54D11*
X95185Y-41305D02*
X95765Y-41305D01*
X100200Y-42050D02*
X100200Y-41500D01*
G54D10*
X100105Y-42034D02*
X100071Y-42045D01*
X100015Y-42045D01*
X99992Y-42034D01*
X99981Y-42023D01*
X99970Y-42000D01*
X99970Y-41978D01*
X99981Y-41955D01*
X99992Y-41944D01*
X100015Y-41933D01*
X100060Y-41921D01*
X100082Y-41910D01*
X100093Y-41899D01*
X100105Y-41876D01*
X100105Y-41854D01*
X100093Y-41831D01*
X100082Y-41820D01*
X100060Y-41809D01*
X100003Y-41809D01*
X99970Y-41820D01*
X99733Y-42023D02*
X99745Y-42034D01*
X99778Y-42045D01*
X99801Y-42045D01*
X99835Y-42034D01*
X99857Y-42011D01*
X99868Y-41989D01*
X99880Y-41944D01*
X99880Y-41910D01*
X99868Y-41865D01*
X99857Y-41843D01*
X99835Y-41820D01*
X99801Y-41809D01*
X99778Y-41809D01*
X99745Y-41820D01*
X99733Y-41831D01*
G54D11*
X92550Y-45300D02*
X93150Y-45300D01*
G54D10*
X97933Y-44820D02*
X98012Y-44708D01*
X98068Y-44820D02*
X98068Y-44584D01*
X97978Y-44584D01*
X97956Y-44595D01*
X97945Y-44606D01*
X97933Y-44629D01*
X97933Y-44663D01*
X97945Y-44685D01*
X97956Y-44696D01*
X97978Y-44708D01*
X98068Y-44708D01*
G54D11*
X103400Y-45300D02*
X102850Y-45300D01*
X97135Y-46640D02*
X96560Y-46640D01*
X98870Y-46625D02*
X99395Y-46625D01*
G54D10*
X94864Y-45317D02*
X94815Y-45527D01*
X94714Y-45317D01*
X94455Y-45527D02*
X94635Y-45527D01*
X94545Y-45527D02*
X94506Y-45212D01*
X94542Y-45257D01*
X94575Y-45287D01*
X94607Y-45302D01*
X94317Y-45497D02*
X94304Y-45512D01*
X94320Y-45527D01*
X94334Y-45512D01*
X94317Y-45497D01*
X94320Y-45527D01*
X94161Y-45212D02*
X93966Y-45212D01*
X94086Y-45332D01*
X94041Y-45332D01*
X94013Y-45347D01*
X94000Y-45362D01*
X93989Y-45392D01*
X93998Y-45467D01*
X94017Y-45497D01*
X94034Y-45512D01*
X94065Y-45527D01*
X94155Y-45527D01*
X94184Y-45512D01*
X94197Y-45497D01*
G54D11*
X97803Y-41255D02*
X97153Y-41255D01*
X100625Y-46250D02*
X100000Y-46250D01*
X95425Y-46250D02*
X96025Y-46250D01*
G54D10*
X93200Y-42109D02*
X93166Y-42120D01*
X93110Y-42120D01*
X93087Y-42109D01*
X93076Y-42098D01*
X93065Y-42075D01*
X93065Y-42053D01*
X93076Y-42030D01*
X93087Y-42019D01*
X93110Y-42008D01*
X93155Y-41996D01*
X93177Y-41985D01*
X93188Y-41974D01*
X93200Y-41951D01*
X93200Y-41929D01*
X93188Y-41906D01*
X93177Y-41895D01*
X93155Y-41884D01*
X93098Y-41884D01*
X93065Y-41895D01*
X92828Y-42120D02*
X92907Y-42008D01*
X92963Y-42120D02*
X92963Y-41884D01*
X92873Y-41884D01*
X92851Y-41895D01*
X92840Y-41906D01*
X92828Y-41929D01*
X92828Y-41963D01*
X92840Y-41985D01*
X92851Y-41996D01*
X92873Y-42008D01*
X92963Y-42008D01*
X97530Y-41159D02*
X97496Y-41170D01*
X97440Y-41170D01*
X97417Y-41159D01*
X97406Y-41148D01*
X97395Y-41125D01*
X97395Y-41103D01*
X97406Y-41080D01*
X97417Y-41069D01*
X97440Y-41058D01*
X97485Y-41046D01*
X97507Y-41035D01*
X97518Y-41024D01*
X97530Y-41001D01*
X97530Y-40979D01*
X97518Y-40956D01*
X97507Y-40945D01*
X97485Y-40934D01*
X97428Y-40934D01*
X97395Y-40945D01*
X97158Y-41148D02*
X97170Y-41159D01*
X97203Y-41170D01*
X97226Y-41170D01*
X97260Y-41159D01*
X97282Y-41136D01*
X97293Y-41114D01*
X97305Y-41069D01*
X97305Y-41035D01*
X97293Y-40990D01*
X97282Y-40968D01*
X97260Y-40945D01*
X97226Y-40934D01*
X97203Y-40934D01*
X97170Y-40945D01*
X97158Y-40956D01*
X100205Y-46134D02*
X100171Y-46145D01*
X100115Y-46145D01*
X100092Y-46134D01*
X100081Y-46123D01*
X100070Y-46100D01*
X100070Y-46078D01*
X100081Y-46055D01*
X100092Y-46044D01*
X100115Y-46033D01*
X100160Y-46021D01*
X100182Y-46010D01*
X100193Y-45999D01*
X100205Y-45976D01*
X100205Y-45954D01*
X100193Y-45931D01*
X100182Y-45920D01*
X100160Y-45909D01*
X100103Y-45909D01*
X100070Y-45920D01*
X99833Y-46123D02*
X99845Y-46134D01*
X99878Y-46145D01*
X99901Y-46145D01*
X99935Y-46134D01*
X99957Y-46111D01*
X99968Y-46089D01*
X99980Y-46044D01*
X99980Y-46010D01*
X99968Y-45965D01*
X99957Y-45943D01*
X99935Y-45920D01*
X99901Y-45909D01*
X99878Y-45909D01*
X99845Y-45920D01*
X99833Y-45931D01*
X98991Y-46945D02*
X99103Y-46945D01*
X99103Y-46709D01*
X98777Y-46923D02*
X98788Y-46934D01*
X98822Y-46945D01*
X98845Y-46945D01*
X98878Y-46934D01*
X98901Y-46911D01*
X98912Y-46889D01*
X98923Y-46844D01*
X98923Y-46810D01*
X98912Y-46765D01*
X98901Y-46743D01*
X98878Y-46720D01*
X98845Y-46709D01*
X98822Y-46709D01*
X98788Y-46720D01*
X98777Y-46731D01*
X96031Y-46170D02*
X96143Y-46170D01*
X96143Y-45934D01*
X95817Y-46148D02*
X95828Y-46159D01*
X95862Y-46170D01*
X95885Y-46170D01*
X95918Y-46159D01*
X95941Y-46136D01*
X95952Y-46114D01*
X95963Y-46069D01*
X95963Y-46035D01*
X95952Y-45990D01*
X95941Y-45968D01*
X95918Y-45945D01*
X95885Y-45934D01*
X95862Y-45934D01*
X95828Y-45945D01*
X95817Y-45956D01*
X103081Y-45195D02*
X103193Y-45195D01*
X103193Y-44959D01*
X102867Y-45195D02*
X102946Y-45083D01*
X103002Y-45195D02*
X103002Y-44959D01*
X102912Y-44959D01*
X102890Y-44970D01*
X102878Y-44981D01*
X102867Y-45004D01*
X102867Y-45038D01*
X102878Y-45060D01*
X102890Y-45071D01*
X102912Y-45083D01*
X103002Y-45083D01*
X103205Y-42134D02*
X103171Y-42145D01*
X103115Y-42145D01*
X103092Y-42134D01*
X103081Y-42123D01*
X103070Y-42100D01*
X103070Y-42078D01*
X103081Y-42055D01*
X103092Y-42044D01*
X103115Y-42033D01*
X103160Y-42021D01*
X103182Y-42010D01*
X103193Y-41999D01*
X103205Y-41976D01*
X103205Y-41954D01*
X103193Y-41931D01*
X103182Y-41920D01*
X103160Y-41909D01*
X103103Y-41909D01*
X103070Y-41920D01*
X102833Y-42145D02*
X102912Y-42033D01*
X102968Y-42145D02*
X102968Y-41909D01*
X102878Y-41909D01*
X102856Y-41920D01*
X102845Y-41931D01*
X102833Y-41954D01*
X102833Y-41988D01*
X102845Y-42010D01*
X102856Y-42021D01*
X102878Y-42033D01*
X102968Y-42033D01*
X97225Y-46954D02*
X97191Y-46965D01*
X97135Y-46965D01*
X97112Y-46954D01*
X97101Y-46943D01*
X97090Y-46920D01*
X97090Y-46898D01*
X97101Y-46875D01*
X97112Y-46864D01*
X97135Y-46853D01*
X97180Y-46841D01*
X97202Y-46830D01*
X97213Y-46819D01*
X97225Y-46796D01*
X97225Y-46774D01*
X97213Y-46751D01*
X97202Y-46740D01*
X97180Y-46729D01*
X97123Y-46729D01*
X97090Y-46740D01*
X96853Y-46943D02*
X96865Y-46954D01*
X96898Y-46965D01*
X96921Y-46965D01*
X96955Y-46954D01*
X96977Y-46931D01*
X96988Y-46909D01*
X97000Y-46864D01*
X97000Y-46830D01*
X96988Y-46785D01*
X96977Y-46763D01*
X96955Y-46740D01*
X96921Y-46729D01*
X96898Y-46729D01*
X96865Y-46740D01*
X96853Y-46751D01*
X95401Y-41660D02*
X95513Y-41660D01*
X95513Y-41424D01*
X95187Y-41638D02*
X95198Y-41649D01*
X95232Y-41660D01*
X95255Y-41660D01*
X95288Y-41649D01*
X95311Y-41626D01*
X95322Y-41604D01*
X95333Y-41559D01*
X95333Y-41525D01*
X95322Y-41480D01*
X95311Y-41458D01*
X95288Y-41435D01*
X95255Y-41424D01*
X95232Y-41424D01*
X95198Y-41435D01*
X95187Y-41446D01*
X93031Y-45195D02*
X93143Y-45195D01*
X93143Y-44959D01*
X92817Y-45195D02*
X92896Y-45083D01*
X92952Y-45195D02*
X92952Y-44959D01*
X92862Y-44959D01*
X92840Y-44970D01*
X92828Y-44981D01*
X92817Y-45004D01*
X92817Y-45038D01*
X92828Y-45060D01*
X92840Y-45071D01*
X92862Y-45083D01*
X92952Y-45083D01*
G54D12*
X96750Y-45000D02*
X99250Y-45000D01*
X99250Y-45000D02*
X99250Y-44000D01*
X99250Y-44000D02*
X96750Y-44000D01*
X96750Y-44000D02*
X96750Y-45000D01*
X100000Y-44500D02*
X99250Y-44500D01*
X96000Y-44500D02*
X96750Y-44500D01*
G54D13*
X99500Y-45500D02*
X99200Y-45500D01*
X99200Y-45500D02*
X99200Y-45900D01*
X99200Y-45900D02*
X96800Y-45900D01*
X96800Y-45900D02*
X96800Y-45500D01*
X96800Y-45500D02*
X96500Y-45500D01*
X96800Y-45500D02*
X96800Y-45100D01*
X96800Y-45100D02*
X99200Y-45100D01*
X99200Y-45100D02*
X99200Y-45500D01*
X99000Y-45900D02*
X99000Y-45100D01*
X98900Y-45100D02*
X98900Y-45900D01*
G54D14*
X98207Y-46850D02*
X98650Y-46850D01*
X98650Y-46850D02*
X98650Y-46050D01*
X98650Y-46050D02*
X98207Y-46050D01*
X97781Y-46850D02*
X97350Y-46850D01*
X97350Y-46850D02*
X97350Y-46050D01*
X97350Y-46050D02*
X97781Y-46050D01*
G54D15*
X98100Y-46600D02*
X98100Y-46300D01*
X97925Y-46600D02*
X97925Y-46300D01*
X97925Y-46300D02*
X98075Y-46450D01*
X98075Y-46450D02*
X97925Y-46600D01*
G54D16*
X97400Y-44400D02*
G75*
G03X97400Y-44400I-50J0D01*
G74*
G01*
X97800Y-44400D02*
X97400Y-44400D01*
X97400Y-44400D02*
X97400Y-45000D01*
X97400Y-45000D02*
X97800Y-45000D01*
X98200Y-45000D02*
X98600Y-45000D01*
X98600Y-45000D02*
X98600Y-44400D01*
X98600Y-44400D02*
X98200Y-44400D01*
G54D17*
G36*
X98889Y-43715D02*
X99238Y-43445D01*
X99244Y-43442D01*
X99250Y-43439D01*
X99255Y-43435D01*
X99256Y-43430D01*
X99254Y-43426D01*
X99248Y-43423D01*
X99242Y-43420D01*
X99236Y-43418D01*
X99040Y-43359D01*
X99055Y-43537D01*
X99238Y-43445D01*
X98889Y-43715D01*
X98881Y-43622D01*
X98995Y-43565D01*
X98976Y-43341D01*
X98854Y-43304D01*
X98846Y-43211D01*
X99279Y-43351D01*
X99287Y-43354D01*
X99295Y-43358D01*
X99302Y-43361D01*
X99308Y-43365D01*
X99313Y-43369D01*
X99318Y-43373D01*
X99322Y-43378D01*
X99326Y-43383D01*
X99330Y-43390D01*
X99333Y-43397D01*
X99335Y-43405D01*
X99337Y-43414D01*
X99338Y-43423D01*
X99338Y-43432D01*
X99338Y-43440D01*
X99338Y-43447D01*
X99337Y-43454D01*
X99335Y-43461D01*
X99333Y-43467D01*
X99330Y-43472D01*
X99327Y-43477D01*
X99323Y-43482D01*
X99318Y-43486D01*
X99313Y-43491D01*
X99307Y-43495D01*
X99300Y-43500D01*
X99292Y-43504D01*
X98889Y-43715D01*
X98889Y-43715D01*
G37*
G36*
X98791Y-42575D02*
X98793Y-42571D01*
X98795Y-42565D01*
X98796Y-42560D01*
X98795Y-42556D01*
X98790Y-42555D01*
X98785Y-42556D01*
X98779Y-42560D01*
X98511Y-42805D01*
X98452Y-42740D01*
X98757Y-42465D01*
X98764Y-42459D01*
X98771Y-42455D01*
X98778Y-42452D01*
X98785Y-42449D01*
X98792Y-42448D01*
X98799Y-42448D01*
X98806Y-42449D01*
X98813Y-42452D01*
X98820Y-42454D01*
X98827Y-42458D01*
X98834Y-42462D01*
X98840Y-42467D01*
X98847Y-42473D01*
X98853Y-42480D01*
X98858Y-42486D01*
X98863Y-42492D01*
X98868Y-42499D01*
X98871Y-42506D01*
X98874Y-42513D01*
X98876Y-42521D01*
X98877Y-42527D01*
X98877Y-42534D01*
X98877Y-42541D01*
X98876Y-42548D01*
X98875Y-42554D01*
X98873Y-42560D01*
X98870Y-42566D01*
X98867Y-42573D01*
X98863Y-42581D01*
X98713Y-42879D01*
X98710Y-42886D01*
X98708Y-42892D01*
X98708Y-42897D01*
X98709Y-42900D01*
X98712Y-42902D01*
X98717Y-42902D01*
X98723Y-42900D01*
X98730Y-42898D01*
X99042Y-42779D01*
X99048Y-42776D01*
X99054Y-42775D01*
X99060Y-42773D01*
X99066Y-42771D01*
X99074Y-42770D01*
X99083Y-42769D01*
X99091Y-42770D01*
X99097Y-42770D01*
X99103Y-42772D01*
X99110Y-42774D01*
X99116Y-42778D01*
X99121Y-42781D01*
X99126Y-42784D01*
X99131Y-42789D01*
X99136Y-42794D01*
X99142Y-42799D01*
X99145Y-42803D01*
X99148Y-42807D01*
X99153Y-42814D01*
X99156Y-42818D01*
X99159Y-42824D01*
X99162Y-42830D01*
X99164Y-42836D01*
X99166Y-42843D01*
X99167Y-42850D01*
X99167Y-42858D01*
X99166Y-42866D01*
X99164Y-42872D01*
X99162Y-42878D01*
X99158Y-42884D01*
X99153Y-42890D01*
X99147Y-42896D01*
X98842Y-43172D01*
X98783Y-43106D01*
X99054Y-42864D01*
X99059Y-42859D01*
X99061Y-42854D01*
X99059Y-42849D01*
X99056Y-42848D01*
X99050Y-42848D01*
X99045Y-42850D01*
X99040Y-42851D01*
X98729Y-42971D01*
X98722Y-42974D01*
X98715Y-42977D01*
X98708Y-42979D01*
X98701Y-42981D01*
X98694Y-42982D01*
X98686Y-42982D01*
X98679Y-42982D01*
X98672Y-42980D01*
X98665Y-42977D01*
X98660Y-42974D01*
X98654Y-42970D01*
X98649Y-42965D01*
X98643Y-42959D01*
X98638Y-42954D01*
X98634Y-42948D01*
X98631Y-42943D01*
X98629Y-42937D01*
X98626Y-42931D01*
X98625Y-42924D01*
X98625Y-42917D01*
X98625Y-42910D01*
X98627Y-42903D01*
X98629Y-42896D01*
X98632Y-42891D01*
X98634Y-42885D01*
X98637Y-42879D01*
X98640Y-42872D01*
X98791Y-42575D01*
X98791Y-42575D01*
G37*
G36*
X98200Y-42213D02*
X98207Y-42214D01*
X98294Y-42324D01*
X98289Y-42319D01*
X98283Y-42314D01*
X98277Y-42309D01*
X98271Y-42305D01*
X98264Y-42302D01*
X98257Y-42299D01*
X98250Y-42296D01*
X98243Y-42294D01*
X98236Y-42292D01*
X98229Y-42290D01*
X98221Y-42288D01*
X98214Y-42286D01*
X98206Y-42285D01*
X98198Y-42283D01*
X98190Y-42282D01*
X98182Y-42281D01*
X98175Y-42280D01*
X98167Y-42279D01*
X98159Y-42279D01*
X98152Y-42278D01*
X98144Y-42278D01*
X98137Y-42278D01*
X98129Y-42278D01*
X98122Y-42279D01*
X98114Y-42279D01*
X98106Y-42281D01*
X98099Y-42283D01*
X98092Y-42285D01*
X98085Y-42288D01*
X98078Y-42292D01*
X98071Y-42297D01*
X98065Y-42302D01*
X98061Y-42306D01*
X98057Y-42311D01*
X98052Y-42317D01*
X98049Y-42322D01*
X98046Y-42327D01*
X98042Y-42334D01*
X98039Y-42341D01*
X98037Y-42347D01*
X98035Y-42353D01*
X98032Y-42361D01*
X98030Y-42368D01*
X98028Y-42377D01*
X98026Y-42383D01*
X98025Y-42389D01*
X98023Y-42396D01*
X98022Y-42403D01*
X98020Y-42411D01*
X98019Y-42419D01*
X98018Y-42427D01*
X98017Y-42436D01*
X98015Y-42445D01*
X98015Y-42453D01*
X98014Y-42461D01*
X98013Y-42469D01*
X98013Y-42476D01*
X98013Y-42485D01*
X98013Y-42492D01*
X98013Y-42500D01*
X98013Y-42507D01*
X98014Y-42513D01*
X98015Y-42521D01*
X98016Y-42528D01*
X98017Y-42535D01*
X98019Y-42540D01*
X98021Y-42548D01*
X98024Y-42554D01*
X98027Y-42560D01*
X98032Y-42567D01*
X98037Y-42573D01*
X98042Y-42579D01*
X98048Y-42584D01*
X98054Y-42589D01*
X98061Y-42593D01*
X98068Y-42597D01*
X98075Y-42600D01*
X98083Y-42603D01*
X98090Y-42606D01*
X98098Y-42608D01*
X98107Y-42610D01*
X98113Y-42611D01*
X98120Y-42612D01*
X98127Y-42614D01*
X98134Y-42615D01*
X98141Y-42616D01*
X98148Y-42617D01*
X98155Y-42618D01*
X98162Y-42619D01*
X98169Y-42620D01*
X98176Y-42620D01*
X98184Y-42621D01*
X98193Y-42621D01*
X98201Y-42620D01*
X98209Y-42620D01*
X98217Y-42619D01*
X98224Y-42617D01*
X98232Y-42615D01*
X98239Y-42613D01*
X98246Y-42609D01*
X98253Y-42605D01*
X98259Y-42601D01*
X98265Y-42595D01*
X98270Y-42591D01*
X98274Y-42585D01*
X98279Y-42580D01*
X98282Y-42574D01*
X98285Y-42569D01*
X98288Y-42562D01*
X98291Y-42555D01*
X98294Y-42549D01*
X98296Y-42542D01*
X98299Y-42535D01*
X98301Y-42528D01*
X98303Y-42520D01*
X98305Y-42514D01*
X98306Y-42507D01*
X98308Y-42501D01*
X98309Y-42494D01*
X98310Y-42486D01*
X98311Y-42479D01*
X98313Y-42471D01*
X98313Y-42471D01*
X98314Y-42461D01*
X98315Y-42452D01*
X98316Y-42443D01*
X98317Y-42435D01*
X98318Y-42427D01*
X98318Y-42419D01*
X98318Y-42412D01*
X98318Y-42405D01*
X98318Y-42399D01*
X98318Y-42393D01*
X98318Y-42387D01*
X98316Y-42379D01*
X98315Y-42370D01*
X98313Y-42363D01*
X98311Y-42356D01*
X98309Y-42349D01*
X98306Y-42343D01*
X98303Y-42337D01*
X98299Y-42330D01*
X98294Y-42324D01*
X98207Y-42214D01*
X98214Y-42215D01*
X98222Y-42216D01*
X98229Y-42217D01*
X98237Y-42219D01*
X98245Y-42220D01*
X98253Y-42222D01*
X98261Y-42223D01*
X98269Y-42225D01*
X98277Y-42227D01*
X98285Y-42230D01*
X98293Y-42233D01*
X98299Y-42235D01*
X98306Y-42238D01*
X98313Y-42241D01*
X98319Y-42244D01*
X98326Y-42247D01*
X98332Y-42250D01*
X98339Y-42254D01*
X98345Y-42258D01*
X98350Y-42262D01*
X98356Y-42267D01*
X98362Y-42272D01*
X98367Y-42277D01*
X98372Y-42283D01*
X98377Y-42289D01*
X98381Y-42295D01*
X98385Y-42301D01*
X98389Y-42307D01*
X98392Y-42314D01*
X98395Y-42320D01*
X98398Y-42327D01*
X98400Y-42334D01*
X98402Y-42341D01*
X98404Y-42348D01*
X98405Y-42355D01*
X98407Y-42362D01*
X98408Y-42369D01*
X98408Y-42377D01*
X98409Y-42384D01*
X98409Y-42391D01*
X98410Y-42398D01*
X98410Y-42406D01*
X98410Y-42413D01*
X98409Y-42420D01*
X98409Y-42428D01*
X98408Y-42435D01*
X98407Y-42443D01*
X98406Y-42452D01*
X98406Y-42460D01*
X98404Y-42468D01*
X98403Y-42476D01*
X98402Y-42484D01*
X98401Y-42491D01*
X98400Y-42498D01*
X98399Y-42505D01*
X98398Y-42512D01*
X98396Y-42520D01*
X98395Y-42528D01*
X98394Y-42535D01*
X98392Y-42542D01*
X98390Y-42549D01*
X98388Y-42556D01*
X98386Y-42563D01*
X98384Y-42570D01*
X98382Y-42577D01*
X98379Y-42584D01*
X98376Y-42591D01*
X98373Y-42598D01*
X98370Y-42605D01*
X98366Y-42611D01*
X98363Y-42618D01*
X98359Y-42624D01*
X98354Y-42631D01*
X98349Y-42637D01*
X98344Y-42643D01*
X98339Y-42648D01*
X98333Y-42654D01*
X98327Y-42659D01*
X98321Y-42663D01*
X98315Y-42668D01*
X98308Y-42672D01*
X98302Y-42675D01*
X98295Y-42678D01*
X98289Y-42681D01*
X98282Y-42683D01*
X98275Y-42685D01*
X98268Y-42687D01*
X98260Y-42689D01*
X98253Y-42690D01*
X98246Y-42691D01*
X98239Y-42692D01*
X98232Y-42692D01*
X98224Y-42693D01*
X98216Y-42693D01*
X98208Y-42693D01*
X98199Y-42693D01*
X98191Y-42692D01*
X98183Y-42692D01*
X98175Y-42691D01*
X98167Y-42690D01*
X98159Y-42689D01*
X98151Y-42688D01*
X98144Y-42687D01*
X98137Y-42686D01*
X98130Y-42685D01*
X98123Y-42684D01*
X98116Y-42683D01*
X98109Y-42682D01*
X98102Y-42680D01*
X98094Y-42679D01*
X98086Y-42678D01*
X98078Y-42676D01*
X98070Y-42674D01*
X98062Y-42672D01*
X98054Y-42670D01*
X98046Y-42668D01*
X98038Y-42665D01*
X98031Y-42663D01*
X98024Y-42660D01*
X98017Y-42657D01*
X98011Y-42654D01*
X98004Y-42651D01*
X97998Y-42647D01*
X97992Y-42644D01*
X97986Y-42640D01*
X97980Y-42635D01*
X97974Y-42631D01*
X97968Y-42626D01*
X97963Y-42620D01*
X97958Y-42615D01*
X97953Y-42609D01*
X97949Y-42603D01*
X97945Y-42597D01*
X97942Y-42591D01*
X97938Y-42585D01*
X97935Y-42578D01*
X97933Y-42571D01*
X97931Y-42564D01*
X97929Y-42557D01*
X97927Y-42550D01*
X97926Y-42543D01*
X97924Y-42536D01*
X97923Y-42529D01*
X97923Y-42521D01*
X97922Y-42514D01*
X97922Y-42507D01*
X97921Y-42499D01*
X97921Y-42492D01*
X97922Y-42485D01*
X97922Y-42477D01*
X97922Y-42470D01*
X97923Y-42463D01*
X97924Y-42454D01*
X97924Y-42446D01*
X97925Y-42438D01*
X97926Y-42430D01*
X97927Y-42422D01*
X97928Y-42414D01*
X97929Y-42406D01*
X97931Y-42399D01*
X97932Y-42391D01*
X97933Y-42383D01*
X97935Y-42374D01*
X97937Y-42366D01*
X97938Y-42359D01*
X97940Y-42351D01*
X97942Y-42344D01*
X97944Y-42337D01*
X97946Y-42330D01*
X97949Y-42323D01*
X97951Y-42316D01*
X97954Y-42309D01*
X97957Y-42302D01*
X97960Y-42296D01*
X97963Y-42289D01*
X97967Y-42283D01*
X97970Y-42277D01*
X97974Y-42270D01*
X97978Y-42264D01*
X97983Y-42259D01*
X97987Y-42253D01*
X97992Y-42248D01*
X97997Y-42243D01*
X98003Y-42239D01*
X98009Y-42234D01*
X98015Y-42230D01*
X98021Y-42226D01*
X98028Y-42223D01*
X98035Y-42219D01*
X98042Y-42217D01*
X98049Y-42214D01*
X98056Y-42212D01*
X98063Y-42211D01*
X98070Y-42209D01*
X98077Y-42208D01*
X98084Y-42207D01*
X98091Y-42206D01*
X98099Y-42205D01*
X98106Y-42205D01*
X98114Y-42205D01*
X98123Y-42205D01*
X98131Y-42205D01*
X98139Y-42205D01*
X98147Y-42206D01*
X98156Y-42207D01*
X98163Y-42208D01*
X98171Y-42209D01*
X98179Y-42210D01*
X98186Y-42211D01*
X98193Y-42212D01*
X98200Y-42213D01*
X98200Y-42213D01*
X98200Y-42213D01*
G37*
G36*
X97478Y-42821D02*
X97450Y-42757D01*
X97678Y-42657D01*
X97684Y-42655D01*
X97690Y-42652D01*
X97695Y-42649D01*
X97700Y-42645D01*
X97703Y-42640D01*
X97705Y-42634D01*
X97705Y-42628D01*
X97702Y-42621D01*
X97659Y-42520D01*
X97405Y-42631D01*
X97377Y-42567D01*
X97631Y-42456D01*
X97593Y-42370D01*
X97591Y-42365D01*
X97588Y-42360D01*
X97583Y-42356D01*
X97577Y-42352D01*
X97571Y-42351D01*
X97565Y-42352D01*
X97558Y-42354D01*
X97553Y-42356D01*
X97322Y-42457D01*
X97294Y-42392D01*
X97568Y-42273D01*
X97574Y-42270D01*
X97581Y-42268D01*
X97588Y-42266D01*
X97596Y-42263D01*
X97603Y-42262D01*
X97611Y-42262D01*
X97619Y-42264D01*
X97626Y-42267D01*
X97632Y-42270D01*
X97636Y-42273D01*
X97641Y-42277D01*
X97646Y-42282D01*
X97650Y-42287D01*
X97654Y-42293D01*
X97658Y-42299D01*
X97661Y-42305D01*
X97793Y-42608D01*
X97795Y-42614D01*
X97798Y-42621D01*
X97800Y-42628D01*
X97802Y-42635D01*
X97803Y-42643D01*
X97803Y-42650D01*
X97801Y-42658D01*
X97799Y-42665D01*
X97795Y-42672D01*
X97792Y-42678D01*
X97787Y-42683D01*
X97781Y-42687D01*
X97775Y-42690D01*
X97769Y-42694D01*
X97763Y-42697D01*
X97756Y-42700D01*
X97478Y-42821D01*
X97478Y-42821D01*
X97478Y-42821D01*
G37*
G36*
X97009Y-42639D02*
X97073Y-42715D01*
X97069Y-42712D01*
X97064Y-42710D01*
X97059Y-42708D01*
X97053Y-42708D01*
X97047Y-42709D01*
X97043Y-42712D01*
X97040Y-42716D01*
X97036Y-42721D01*
X96951Y-42837D01*
X96947Y-42843D01*
X96943Y-42849D01*
X96939Y-42856D01*
X96936Y-42863D01*
X96935Y-42870D01*
X96935Y-42879D01*
X96937Y-42886D01*
X96940Y-42893D01*
X96944Y-42899D01*
X96949Y-42905D01*
X96955Y-42911D01*
X96961Y-42917D01*
X96967Y-42921D01*
X96974Y-42926D01*
X96981Y-42930D01*
X96987Y-42934D01*
X96992Y-42936D01*
X96997Y-42938D01*
X97005Y-42940D01*
X97011Y-42941D01*
X97018Y-42940D01*
X97025Y-42938D01*
X97031Y-42935D01*
X97036Y-42932D01*
X97040Y-42927D01*
X97044Y-42922D01*
X97049Y-42917D01*
X97053Y-42912D01*
X97153Y-42774D01*
X97073Y-42715D01*
X97073Y-42715D01*
X97009Y-42639D01*
X97210Y-42815D01*
X97104Y-42960D01*
X97100Y-42966D01*
X97096Y-42973D01*
X97094Y-42979D01*
X97092Y-42984D01*
X97091Y-42990D01*
X97091Y-42998D01*
X97091Y-43004D01*
X97092Y-43009D01*
X97094Y-43014D01*
X97097Y-43020D01*
X97101Y-43025D01*
X97106Y-43029D01*
X97113Y-43036D01*
X97119Y-43041D01*
X97124Y-43045D01*
X97131Y-43050D01*
X97138Y-43054D01*
X97146Y-43058D01*
X97152Y-43060D01*
X97158Y-43062D01*
X97164Y-43063D01*
X97170Y-43063D01*
X97177Y-43062D01*
X97184Y-43060D01*
X97191Y-43056D01*
X97196Y-43052D01*
X97201Y-43046D01*
X97206Y-43041D01*
X97210Y-43036D01*
X97213Y-43032D01*
X97295Y-42920D01*
X97299Y-42915D01*
X97303Y-42908D01*
X97306Y-42900D01*
X97306Y-42893D01*
X97304Y-42888D01*
X97301Y-42884D01*
X97298Y-42880D01*
X97293Y-42876D01*
X97287Y-42872D01*
X97210Y-42815D01*
X97210Y-42815D01*
X97009Y-42639D01*
X97013Y-42634D01*
X97017Y-42630D01*
X97022Y-42625D01*
X97027Y-42620D01*
X97033Y-42616D01*
X97039Y-42614D01*
X97046Y-42612D01*
X97054Y-42610D01*
X97060Y-42611D01*
X97066Y-42611D01*
X97072Y-42613D01*
X97079Y-42614D01*
X97085Y-42617D01*
X97091Y-42620D01*
X97096Y-42623D01*
X97102Y-42627D01*
X97371Y-42824D01*
X97378Y-42830D01*
X97384Y-42836D01*
X97389Y-42842D01*
X97393Y-42848D01*
X97396Y-42855D01*
X97398Y-42861D01*
X97399Y-42865D01*
X97401Y-42873D01*
X97401Y-42880D01*
X97400Y-42887D01*
X97398Y-42893D01*
X97396Y-42899D01*
X97392Y-42905D01*
X97389Y-42910D01*
X97385Y-42916D01*
X97381Y-42921D01*
X97377Y-42927D01*
X97245Y-43107D01*
X97241Y-43113D01*
X97237Y-43119D01*
X97232Y-43124D01*
X97227Y-43130D01*
X97222Y-43135D01*
X97217Y-43140D01*
X97211Y-43144D01*
X97204Y-43148D01*
X97197Y-43152D01*
X97191Y-43154D01*
X97185Y-43156D01*
X97178Y-43157D01*
X97170Y-43158D01*
X97162Y-43159D01*
X97154Y-43159D01*
X97146Y-43158D01*
X97138Y-43156D01*
X97131Y-43154D01*
X97124Y-43152D01*
X97117Y-43148D01*
X97110Y-43144D01*
X97103Y-43140D01*
X97095Y-43135D01*
X97089Y-43131D01*
X97082Y-43126D01*
X97076Y-43122D01*
X97070Y-43118D01*
X97065Y-43114D01*
X97059Y-43109D01*
X97054Y-43105D01*
X97048Y-43100D01*
X97043Y-43095D01*
X97038Y-43089D01*
X97034Y-43083D01*
X97030Y-43077D01*
X97026Y-43070D01*
X97024Y-43063D01*
X97021Y-43055D01*
X97020Y-43049D01*
X97020Y-43042D01*
X97021Y-43035D01*
X97021Y-43028D01*
X97023Y-43020D01*
X97025Y-43013D01*
X97028Y-43006D01*
X97032Y-42999D01*
X97030Y-42997D01*
X97024Y-43003D01*
X97017Y-43008D01*
X97010Y-43012D01*
X97005Y-43015D01*
X96999Y-43017D01*
X96992Y-43018D01*
X96984Y-43019D01*
X96976Y-43019D01*
X96969Y-43018D01*
X96962Y-43018D01*
X96955Y-43016D01*
X96949Y-43014D01*
X96943Y-43012D01*
X96936Y-43008D01*
X96929Y-43004D01*
X96923Y-43000D01*
X96916Y-42996D01*
X96910Y-42992D01*
X96904Y-42987D01*
X96897Y-42982D01*
X96891Y-42976D01*
X96886Y-42972D01*
X96881Y-42967D01*
X96876Y-42962D01*
X96872Y-42957D01*
X96867Y-42952D01*
X96863Y-42946D01*
X96859Y-42941D01*
X96856Y-42935D01*
X96853Y-42929D01*
X96850Y-42922D01*
X96848Y-42916D01*
X96847Y-42909D01*
X96846Y-42902D01*
X96846Y-42896D01*
X96846Y-42890D01*
X96847Y-42884D01*
X96848Y-42876D01*
X96850Y-42868D01*
X96853Y-42861D01*
X96855Y-42854D01*
X96859Y-42847D01*
X96863Y-42840D01*
X96867Y-42835D01*
X96870Y-42829D01*
X96874Y-42824D01*
X97009Y-42639D01*
X97009Y-42639D01*
X97009Y-42639D01*
G37*
G36*
X97163Y-43211D02*
X96773Y-43418D01*
X96767Y-43420D01*
X96761Y-43422D01*
X96755Y-43426D01*
X96753Y-43430D01*
X96754Y-43434D01*
X96759Y-43438D01*
X96765Y-43442D01*
X96771Y-43445D01*
X96954Y-43537D01*
X96969Y-43358D01*
X96773Y-43418D01*
X96773Y-43418D01*
X97163Y-43211D01*
X97155Y-43304D01*
X97033Y-43341D01*
X97014Y-43565D01*
X97128Y-43622D01*
X97120Y-43715D01*
X96717Y-43504D01*
X96709Y-43499D01*
X96702Y-43495D01*
X96696Y-43490D01*
X96691Y-43485D01*
X96686Y-43480D01*
X96682Y-43475D01*
X96679Y-43470D01*
X96676Y-43464D01*
X96673Y-43457D01*
X96672Y-43450D01*
X96671Y-43441D01*
X96671Y-43432D01*
X96671Y-43423D01*
X96672Y-43414D01*
X96673Y-43406D01*
X96675Y-43399D01*
X96678Y-43392D01*
X96680Y-43386D01*
X96683Y-43381D01*
X96687Y-43376D01*
X96691Y-43372D01*
X96696Y-43368D01*
X96701Y-43364D01*
X96707Y-43360D01*
X96714Y-43357D01*
X96722Y-43354D01*
X96730Y-43351D01*
X97163Y-43211D01*
X97163Y-43211D01*
X97163Y-43211D01*
G37*
M02*
