G04 (created by PCBNEW (2013-may-18)-stable) date Sun 03 Jan 2016 02:51:13 PM EST*
%MOIN*%
G04 Gerber Fmt 3.4, Leading zero omitted, Abs format*
%FSLAX34Y34*%
G01*
G70*
G90*
G04 APERTURE LIST*
%ADD10C,0.00590551*%
%ADD11C,0.0001*%
%ADD12C,0.157*%
%ADD13C,0.065*%
%ADD14C,0.0590551*%
%ADD15R,0.0590551X0.0590551*%
%ADD16C,0.055*%
%ADD17C,0.066*%
%ADD18C,0.09*%
%ADD19C,0.09*%
%ADD20C,0.070937*%
G04 APERTURE END LIST*
G54D10*
G54D11*
G36*
X101479Y-45806D02*
X101477Y-45826D01*
X101472Y-45844D01*
X101463Y-45861D01*
X101451Y-45876D01*
X101436Y-45888D01*
X101419Y-45897D01*
X101401Y-45902D01*
X101381Y-45904D01*
X101361Y-45902D01*
X101343Y-45897D01*
X101326Y-45888D01*
X101311Y-45876D01*
X101299Y-45861D01*
X101290Y-45844D01*
X101285Y-45826D01*
X101283Y-45806D01*
X101285Y-45786D01*
X101290Y-45768D01*
X101299Y-45751D01*
X101311Y-45736D01*
X101326Y-45724D01*
X101343Y-45715D01*
X101361Y-45710D01*
X101381Y-45708D01*
X101401Y-45710D01*
X101419Y-45715D01*
X101436Y-45724D01*
X101451Y-45736D01*
X101463Y-45751D01*
X101472Y-45768D01*
X101477Y-45786D01*
X101479Y-45806D01*
X101479Y-45806D01*
G37*
G36*
X101479Y-45995D02*
X101477Y-46015D01*
X101472Y-46033D01*
X101463Y-46050D01*
X101451Y-46065D01*
X101436Y-46077D01*
X101419Y-46086D01*
X101401Y-46091D01*
X101381Y-46093D01*
X101361Y-46091D01*
X101343Y-46086D01*
X101326Y-46077D01*
X101311Y-46065D01*
X101299Y-46050D01*
X101290Y-46033D01*
X101285Y-46015D01*
X101283Y-45995D01*
X101285Y-45975D01*
X101290Y-45957D01*
X101299Y-45940D01*
X101311Y-45925D01*
X101326Y-45913D01*
X101343Y-45904D01*
X101361Y-45899D01*
X101381Y-45897D01*
X101401Y-45899D01*
X101419Y-45904D01*
X101436Y-45913D01*
X101451Y-45925D01*
X101463Y-45940D01*
X101472Y-45957D01*
X101477Y-45975D01*
X101479Y-45995D01*
X101479Y-45995D01*
G37*
G36*
X101668Y-45806D02*
X101666Y-45826D01*
X101661Y-45844D01*
X101652Y-45861D01*
X101640Y-45876D01*
X101625Y-45888D01*
X101608Y-45897D01*
X101590Y-45902D01*
X101570Y-45904D01*
X101550Y-45902D01*
X101532Y-45897D01*
X101515Y-45888D01*
X101500Y-45876D01*
X101488Y-45861D01*
X101479Y-45844D01*
X101474Y-45826D01*
X101472Y-45806D01*
X101474Y-45786D01*
X101479Y-45768D01*
X101488Y-45751D01*
X101500Y-45736D01*
X101515Y-45724D01*
X101532Y-45715D01*
X101550Y-45710D01*
X101570Y-45708D01*
X101590Y-45710D01*
X101608Y-45715D01*
X101625Y-45724D01*
X101640Y-45736D01*
X101652Y-45751D01*
X101661Y-45768D01*
X101666Y-45786D01*
X101668Y-45806D01*
X101668Y-45806D01*
G37*
G36*
X101668Y-45617D02*
X101666Y-45637D01*
X101661Y-45655D01*
X101652Y-45672D01*
X101640Y-45687D01*
X101625Y-45699D01*
X101608Y-45708D01*
X101590Y-45713D01*
X101570Y-45715D01*
X101550Y-45713D01*
X101532Y-45708D01*
X101515Y-45699D01*
X101500Y-45687D01*
X101488Y-45672D01*
X101479Y-45655D01*
X101474Y-45637D01*
X101472Y-45617D01*
X101474Y-45597D01*
X101479Y-45579D01*
X101488Y-45562D01*
X101500Y-45547D01*
X101515Y-45535D01*
X101532Y-45526D01*
X101550Y-45521D01*
X101570Y-45519D01*
X101590Y-45521D01*
X101608Y-45526D01*
X101625Y-45535D01*
X101640Y-45547D01*
X101652Y-45562D01*
X101661Y-45579D01*
X101666Y-45597D01*
X101668Y-45617D01*
X101668Y-45617D01*
G37*
G36*
X101920Y-45617D02*
X101918Y-45637D01*
X101913Y-45655D01*
X101904Y-45672D01*
X101892Y-45687D01*
X101877Y-45699D01*
X101860Y-45708D01*
X101842Y-45713D01*
X101822Y-45715D01*
X101802Y-45713D01*
X101784Y-45708D01*
X101767Y-45699D01*
X101752Y-45687D01*
X101740Y-45672D01*
X101731Y-45655D01*
X101726Y-45637D01*
X101724Y-45617D01*
X101726Y-45597D01*
X101731Y-45579D01*
X101740Y-45562D01*
X101752Y-45547D01*
X101767Y-45535D01*
X101784Y-45526D01*
X101802Y-45521D01*
X101822Y-45519D01*
X101842Y-45521D01*
X101860Y-45526D01*
X101877Y-45535D01*
X101892Y-45547D01*
X101904Y-45562D01*
X101913Y-45579D01*
X101918Y-45597D01*
X101920Y-45617D01*
X101920Y-45617D01*
G37*
G36*
X101920Y-45806D02*
X101918Y-45826D01*
X101913Y-45844D01*
X101904Y-45861D01*
X101892Y-45876D01*
X101877Y-45888D01*
X101860Y-45897D01*
X101842Y-45902D01*
X101822Y-45904D01*
X101802Y-45902D01*
X101784Y-45897D01*
X101767Y-45888D01*
X101752Y-45876D01*
X101740Y-45861D01*
X101731Y-45844D01*
X101726Y-45826D01*
X101724Y-45806D01*
X101726Y-45786D01*
X101731Y-45768D01*
X101740Y-45751D01*
X101752Y-45736D01*
X101767Y-45724D01*
X101784Y-45715D01*
X101802Y-45710D01*
X101822Y-45708D01*
X101842Y-45710D01*
X101860Y-45715D01*
X101877Y-45724D01*
X101892Y-45736D01*
X101904Y-45751D01*
X101913Y-45768D01*
X101918Y-45786D01*
X101920Y-45806D01*
X101920Y-45806D01*
G37*
G36*
X101920Y-45995D02*
X101918Y-46015D01*
X101913Y-46033D01*
X101904Y-46050D01*
X101892Y-46065D01*
X101877Y-46077D01*
X101860Y-46086D01*
X101842Y-46091D01*
X101822Y-46093D01*
X101802Y-46091D01*
X101784Y-46086D01*
X101767Y-46077D01*
X101752Y-46065D01*
X101740Y-46050D01*
X101731Y-46033D01*
X101726Y-46015D01*
X101724Y-45995D01*
X101726Y-45975D01*
X101731Y-45957D01*
X101740Y-45940D01*
X101752Y-45925D01*
X101767Y-45913D01*
X101784Y-45904D01*
X101802Y-45899D01*
X101822Y-45897D01*
X101842Y-45899D01*
X101860Y-45904D01*
X101877Y-45913D01*
X101892Y-45925D01*
X101904Y-45940D01*
X101913Y-45957D01*
X101918Y-45975D01*
X101920Y-45995D01*
X101920Y-45995D01*
G37*
G36*
X101038Y-45617D02*
X101036Y-45637D01*
X101031Y-45655D01*
X101022Y-45672D01*
X101010Y-45687D01*
X100995Y-45699D01*
X100978Y-45708D01*
X100960Y-45713D01*
X100940Y-45715D01*
X100920Y-45713D01*
X100902Y-45708D01*
X100885Y-45699D01*
X100870Y-45687D01*
X100858Y-45672D01*
X100849Y-45655D01*
X100844Y-45637D01*
X100842Y-45617D01*
X100844Y-45597D01*
X100849Y-45579D01*
X100858Y-45562D01*
X100870Y-45547D01*
X100885Y-45535D01*
X100902Y-45526D01*
X100920Y-45521D01*
X100940Y-45519D01*
X100960Y-45521D01*
X100978Y-45526D01*
X100995Y-45535D01*
X101010Y-45547D01*
X101022Y-45562D01*
X101031Y-45579D01*
X101036Y-45597D01*
X101038Y-45617D01*
X101038Y-45617D01*
G37*
G36*
X101227Y-45617D02*
X101225Y-45637D01*
X101220Y-45655D01*
X101211Y-45672D01*
X101199Y-45687D01*
X101184Y-45699D01*
X101167Y-45708D01*
X101149Y-45713D01*
X101129Y-45715D01*
X101109Y-45713D01*
X101091Y-45708D01*
X101074Y-45699D01*
X101059Y-45687D01*
X101047Y-45672D01*
X101038Y-45655D01*
X101033Y-45637D01*
X101031Y-45617D01*
X101033Y-45597D01*
X101038Y-45579D01*
X101047Y-45562D01*
X101059Y-45547D01*
X101074Y-45535D01*
X101091Y-45526D01*
X101109Y-45521D01*
X101129Y-45519D01*
X101149Y-45521D01*
X101167Y-45526D01*
X101184Y-45535D01*
X101199Y-45547D01*
X101211Y-45562D01*
X101220Y-45579D01*
X101225Y-45597D01*
X101227Y-45617D01*
X101227Y-45617D01*
G37*
G36*
X101038Y-45995D02*
X101036Y-46015D01*
X101031Y-46033D01*
X101022Y-46050D01*
X101010Y-46065D01*
X100995Y-46077D01*
X100978Y-46086D01*
X100960Y-46091D01*
X100940Y-46093D01*
X100920Y-46091D01*
X100902Y-46086D01*
X100885Y-46077D01*
X100870Y-46065D01*
X100858Y-46050D01*
X100849Y-46033D01*
X100844Y-46015D01*
X100842Y-45995D01*
X100844Y-45975D01*
X100849Y-45957D01*
X100858Y-45940D01*
X100870Y-45925D01*
X100885Y-45913D01*
X100902Y-45904D01*
X100920Y-45899D01*
X100940Y-45897D01*
X100960Y-45899D01*
X100978Y-45904D01*
X100995Y-45913D01*
X101010Y-45925D01*
X101022Y-45940D01*
X101031Y-45957D01*
X101036Y-45975D01*
X101038Y-45995D01*
X101038Y-45995D01*
G37*
G36*
X101721Y-43559D02*
X102278Y-43559D01*
X102297Y-43560D01*
X102317Y-43563D01*
X102335Y-43568D01*
X102352Y-43575D01*
X102369Y-43583D01*
X102385Y-43594D01*
X102399Y-43605D01*
X102412Y-43618D01*
X102424Y-43632D01*
X102434Y-43648D01*
X102442Y-43664D01*
X102449Y-43682D01*
X102454Y-43700D01*
X102457Y-43719D01*
X102458Y-43739D01*
X102458Y-44659D01*
X102457Y-44678D01*
X102454Y-44697D01*
X102449Y-44716D01*
X102442Y-44733D01*
X102434Y-44750D01*
X102424Y-44765D01*
X102412Y-44779D01*
X102399Y-44792D01*
X102385Y-44804D01*
X102369Y-44814D01*
X102352Y-44823D01*
X102335Y-44829D01*
X102317Y-44834D01*
X102297Y-44837D01*
X102278Y-44838D01*
X101721Y-44838D01*
X101702Y-44837D01*
X101682Y-44834D01*
X101664Y-44829D01*
X101647Y-44823D01*
X101630Y-44814D01*
X101614Y-44804D01*
X101600Y-44792D01*
X101587Y-44779D01*
X101575Y-44765D01*
X101565Y-44750D01*
X101557Y-44733D01*
X101550Y-44716D01*
X101545Y-44697D01*
X101542Y-44678D01*
X101541Y-44659D01*
X101541Y-43739D01*
X101542Y-43719D01*
X101545Y-43700D01*
X101550Y-43682D01*
X101557Y-43664D01*
X101565Y-43648D01*
X101575Y-43632D01*
X101587Y-43618D01*
X101600Y-43605D01*
X101614Y-43594D01*
X101630Y-43583D01*
X101647Y-43575D01*
X101664Y-43568D01*
X101682Y-43563D01*
X101702Y-43560D01*
X101721Y-43559D01*
X101721Y-43559D01*
G37*
G36*
X102476Y-43756D02*
X102459Y-43759D01*
X102445Y-43767D01*
X102432Y-43780D01*
X102423Y-43797D01*
X102416Y-43816D01*
X102414Y-43838D01*
X102414Y-43882D01*
X102416Y-43904D01*
X102423Y-43924D01*
X102432Y-43940D01*
X102445Y-43953D01*
X102459Y-43961D01*
X102476Y-43964D01*
X102617Y-43964D01*
X102617Y-44561D01*
X102619Y-44579D01*
X102625Y-44595D01*
X102634Y-44610D01*
X102646Y-44622D01*
X102661Y-44631D01*
X102677Y-44637D01*
X102695Y-44639D01*
X102751Y-44639D01*
X102768Y-44637D01*
X102785Y-44631D01*
X102799Y-44622D01*
X102811Y-44610D01*
X102820Y-44595D01*
X102826Y-44579D01*
X102828Y-44561D01*
X102828Y-43964D01*
X102960Y-43964D01*
X102976Y-43961D01*
X102991Y-43953D01*
X103003Y-43940D01*
X103013Y-43924D01*
X103019Y-43904D01*
X103021Y-43882D01*
X103021Y-43838D01*
X103019Y-43816D01*
X103013Y-43797D01*
X103003Y-43780D01*
X102991Y-43767D01*
X102976Y-43759D01*
X102960Y-43756D01*
X102476Y-43756D01*
X102476Y-43756D01*
G37*
G54D12*
X102700Y-46750D03*
G54D13*
X96000Y-44500D03*
X100000Y-44500D03*
G54D14*
X98000Y-41300D03*
G54D15*
X96000Y-41300D03*
X92300Y-45250D03*
G54D14*
X92300Y-42250D03*
G54D15*
X95500Y-46500D03*
G54D14*
X100100Y-41300D03*
X103700Y-42250D03*
G54D15*
X103700Y-45250D03*
G54D16*
X99500Y-45500D03*
X96500Y-45500D03*
G54D14*
X96500Y-46500D03*
G54D15*
X99500Y-46500D03*
G54D17*
X97500Y-45500D03*
X98500Y-45500D03*
G54D14*
X100500Y-46500D03*
G54D12*
X93300Y-46750D03*
G54D15*
X101250Y-41300D03*
G54D18*
X99000Y-41500D02*
X98984Y-41728D01*
G54D19*
X97015Y-41925D03*
X96500Y-42500D03*
G54D12*
X98000Y-43500D03*
G54D20*
X96000Y-43500D03*
X100000Y-43500D03*
M02*
