G04 (created by PCBNEW (2013-may-18)-stable) date Sat 31 Oct 2015 09:22:13 PM EDT*
%MOIN*%
G04 Gerber Fmt 3.4, Leading zero omitted, Abs format*
%FSLAX34Y34*%
G01*
G70*
G90*
G04 APERTURE LIST*
%ADD10C,0.00590551*%
%ADD11C,0.00472441*%
%ADD12C,0.01*%
%ADD13C,0.006*%
%ADD14C,0.015*%
%ADD15C,0.0001*%
G04 APERTURE END LIST*
G54D10*
G54D11*
X93235Y-43717D02*
X93284Y-43927D01*
X93385Y-43717D01*
X93644Y-43927D02*
X93464Y-43927D01*
X93554Y-43927D02*
X93593Y-43612D01*
X93557Y-43657D01*
X93524Y-43687D01*
X93492Y-43702D01*
X93782Y-43897D02*
X93795Y-43912D01*
X93779Y-43927D01*
X93765Y-43912D01*
X93782Y-43897D01*
X93779Y-43927D01*
X93938Y-43612D02*
X94133Y-43612D01*
X94013Y-43732D01*
X94058Y-43732D01*
X94086Y-43747D01*
X94099Y-43762D01*
X94110Y-43792D01*
X94101Y-43867D01*
X94082Y-43897D01*
X94065Y-43912D01*
X94034Y-43927D01*
X93944Y-43927D01*
X93915Y-43912D01*
X93902Y-43897D01*
G54D12*
X98720Y-46000D02*
X98720Y-45000D01*
G54D13*
X97639Y-45115D02*
G75*
G03X97500Y-45500I460J-384D01*
G74*
G01*
X97500Y-45500D02*
G75*
G03X97651Y-45897I599J0D01*
G74*
G01*
X98699Y-45500D02*
G75*
G03X98555Y-45110I-599J0D01*
G74*
G01*
X98560Y-45884D02*
G75*
G03X98700Y-45500I-460J384D01*
G74*
G01*
X98587Y-45150D02*
G75*
G03X98100Y-44900I-487J-349D01*
G74*
G01*
X98100Y-44900D02*
G75*
G03X97620Y-45139I0J-600D01*
G74*
G01*
X98100Y-46099D02*
G75*
G03X98572Y-45868I0J599D01*
G74*
G01*
X97626Y-45868D02*
G75*
G03X98100Y-46100I473J368D01*
G74*
G01*
X98100Y-45250D02*
G75*
G03X97850Y-45500I0J-250D01*
G74*
G01*
X98100Y-45100D02*
G75*
G03X97700Y-45500I0J-400D01*
G74*
G01*
X98100Y-45750D02*
G75*
G03X98350Y-45500I0J250D01*
G74*
G01*
X98100Y-45900D02*
G75*
G03X98500Y-45500I0J400D01*
G74*
G01*
G54D12*
X98713Y-44986D02*
G75*
G03X98100Y-44700I-613J-513D01*
G74*
G01*
X98100Y-44701D02*
G75*
G03X97395Y-45123I0J-799D01*
G74*
G01*
X98101Y-46298D02*
G75*
G03X98710Y-46015I-1J798D01*
G74*
G01*
X97405Y-45897D02*
G75*
G03X98100Y-46300I694J397D01*
G74*
G01*
X97395Y-45120D02*
G75*
G03X97300Y-45500I704J-379D01*
G74*
G01*
X97300Y-45500D02*
G75*
G03X97418Y-45918I799J0D01*
G74*
G01*
G54D14*
X95500Y-41000D02*
X96200Y-41000D01*
X99800Y-41000D02*
X100500Y-41000D01*
X100500Y-41000D02*
X100500Y-41700D01*
X100500Y-45300D02*
X100500Y-46000D01*
X100500Y-46000D02*
X99800Y-46000D01*
X96200Y-46000D02*
X95500Y-46000D01*
X95500Y-46000D02*
X95500Y-45300D01*
X95500Y-41700D02*
X95500Y-41000D01*
G54D15*
G36*
X99721Y-42821D02*
X99763Y-42821D01*
X99763Y-42632D01*
X99721Y-42632D01*
X99721Y-42821D01*
X99721Y-42821D01*
G37*
G36*
X99763Y-42604D02*
X99763Y-42571D01*
X99721Y-42571D01*
X99721Y-42604D01*
X99763Y-42604D01*
X99763Y-42604D01*
G37*
G36*
X99791Y-42821D02*
X99833Y-42821D01*
X99833Y-42674D01*
X99833Y-42670D01*
X99835Y-42666D01*
X99839Y-42664D01*
X99843Y-42664D01*
X99885Y-42664D01*
X99903Y-42667D01*
X99915Y-42675D01*
X99921Y-42691D01*
X99923Y-42709D01*
X99923Y-42821D01*
X99965Y-42821D01*
X99965Y-42696D01*
X99963Y-42679D01*
X99959Y-42665D01*
X99953Y-42655D01*
X99946Y-42647D01*
X99934Y-42639D01*
X99921Y-42634D01*
X99908Y-42632D01*
X99893Y-42632D01*
X99826Y-42632D01*
X99812Y-42633D01*
X99798Y-42640D01*
X99792Y-42651D01*
X99791Y-42661D01*
X99791Y-42821D01*
X99791Y-42821D01*
X99791Y-42821D01*
G37*
G36*
X99990Y-42821D02*
X100111Y-42821D01*
X100126Y-42820D01*
X100142Y-42813D01*
X100152Y-42799D01*
X100156Y-42788D01*
X100158Y-42773D01*
X100155Y-42756D01*
X100146Y-42738D01*
X100138Y-42731D01*
X100128Y-42726D01*
X100115Y-42722D01*
X100099Y-42717D01*
X100058Y-42705D01*
X100053Y-42704D01*
X100047Y-42702D01*
X100040Y-42699D01*
X100035Y-42696D01*
X100029Y-42688D01*
X100029Y-42681D01*
X100029Y-42674D01*
X100034Y-42667D01*
X100041Y-42664D01*
X100049Y-42664D01*
X100149Y-42664D01*
X100149Y-42632D01*
X100042Y-42632D01*
X100030Y-42632D01*
X100018Y-42634D01*
X100007Y-42639D01*
X99997Y-42648D01*
X99989Y-42664D01*
X99988Y-42680D01*
X99989Y-42696D01*
X99997Y-42712D01*
X100013Y-42726D01*
X100024Y-42731D01*
X100038Y-42735D01*
X100075Y-42745D01*
X100091Y-42750D01*
X100100Y-42753D01*
X100106Y-42756D01*
X100109Y-42757D01*
X100113Y-42764D01*
X100114Y-42772D01*
X100114Y-42777D01*
X100111Y-42783D01*
X100104Y-42788D01*
X100097Y-42789D01*
X99990Y-42789D01*
X99990Y-42821D01*
X99990Y-42821D01*
X99990Y-42821D01*
G37*
G36*
X100223Y-42821D02*
X100223Y-42789D01*
X100223Y-42673D01*
X100226Y-42666D01*
X100228Y-42665D01*
X100232Y-42664D01*
X100273Y-42664D01*
X100285Y-42665D01*
X100296Y-42670D01*
X100309Y-42685D01*
X100312Y-42698D01*
X100314Y-42709D01*
X100314Y-42726D01*
X100313Y-42744D01*
X100312Y-42757D01*
X100306Y-42771D01*
X100294Y-42783D01*
X100284Y-42787D01*
X100270Y-42789D01*
X100223Y-42789D01*
X100223Y-42789D01*
X100223Y-42821D01*
X100276Y-42821D01*
X100292Y-42820D01*
X100309Y-42817D01*
X100327Y-42809D01*
X100342Y-42794D01*
X100350Y-42778D01*
X100355Y-42760D01*
X100357Y-42741D01*
X100357Y-42722D01*
X100357Y-42706D01*
X100354Y-42687D01*
X100348Y-42669D01*
X100337Y-42652D01*
X100323Y-42641D01*
X100307Y-42635D01*
X100293Y-42632D01*
X100282Y-42632D01*
X100215Y-42632D01*
X100204Y-42633D01*
X100192Y-42638D01*
X100185Y-42646D01*
X100181Y-42661D01*
X100181Y-42882D01*
X100223Y-42882D01*
X100223Y-42821D01*
X100223Y-42821D01*
X100223Y-42821D01*
G37*
G36*
X100381Y-42821D02*
X100422Y-42821D01*
X100422Y-42632D01*
X100381Y-42632D01*
X100381Y-42821D01*
X100381Y-42821D01*
G37*
G36*
X100422Y-42604D02*
X100422Y-42571D01*
X100381Y-42571D01*
X100381Y-42604D01*
X100422Y-42604D01*
X100422Y-42604D01*
G37*
G36*
X100451Y-42821D02*
X100493Y-42821D01*
X100493Y-42714D01*
X100495Y-42694D01*
X100502Y-42677D01*
X100520Y-42666D01*
X100538Y-42664D01*
X100556Y-42664D01*
X100556Y-42632D01*
X100527Y-42632D01*
X100515Y-42632D01*
X100500Y-42634D01*
X100485Y-42639D01*
X100471Y-42648D01*
X100461Y-42659D01*
X100455Y-42673D01*
X100452Y-42688D01*
X100451Y-42703D01*
X100451Y-42821D01*
X100451Y-42821D01*
X100451Y-42821D01*
G37*
G36*
X100742Y-42821D02*
X100742Y-42789D01*
X100649Y-42789D01*
X100637Y-42788D01*
X100626Y-42785D01*
X100617Y-42778D01*
X100611Y-42766D01*
X100609Y-42754D01*
X100608Y-42740D01*
X100695Y-42708D01*
X100608Y-42708D01*
X100608Y-42708D01*
X100610Y-42691D01*
X100617Y-42676D01*
X100626Y-42668D01*
X100637Y-42664D01*
X100647Y-42663D01*
X100657Y-42663D01*
X100675Y-42664D01*
X100692Y-42672D01*
X100701Y-42682D01*
X100705Y-42697D01*
X100703Y-42704D01*
X100695Y-42708D01*
X100608Y-42740D01*
X100718Y-42740D01*
X100729Y-42739D01*
X100739Y-42733D01*
X100746Y-42719D01*
X100748Y-42704D01*
X100747Y-42687D01*
X100742Y-42670D01*
X100734Y-42655D01*
X100721Y-42643D01*
X100707Y-42636D01*
X100691Y-42633D01*
X100675Y-42631D01*
X100658Y-42631D01*
X100643Y-42631D01*
X100624Y-42633D01*
X100605Y-42638D01*
X100588Y-42649D01*
X100575Y-42664D01*
X100569Y-42682D01*
X100566Y-42703D01*
X100565Y-42715D01*
X100565Y-42728D01*
X100566Y-42747D01*
X100567Y-42765D01*
X100571Y-42782D01*
X100579Y-42797D01*
X100592Y-42810D01*
X100606Y-42817D01*
X100622Y-42821D01*
X100637Y-42821D01*
X100742Y-42821D01*
X100742Y-42821D01*
X100742Y-42821D01*
G37*
G36*
X100900Y-42571D02*
X100900Y-42664D01*
X100900Y-42773D01*
X100900Y-42779D01*
X100897Y-42786D01*
X100891Y-42788D01*
X100886Y-42789D01*
X100853Y-42789D01*
X100843Y-42788D01*
X100832Y-42785D01*
X100822Y-42779D01*
X100814Y-42767D01*
X100811Y-42756D01*
X100810Y-42744D01*
X100809Y-42725D01*
X100810Y-42708D01*
X100812Y-42696D01*
X100818Y-42681D01*
X100825Y-42672D01*
X100834Y-42667D01*
X100853Y-42664D01*
X100900Y-42664D01*
X100900Y-42664D01*
X100900Y-42571D01*
X100900Y-42632D01*
X100844Y-42632D01*
X100830Y-42632D01*
X100814Y-42636D01*
X100796Y-42644D01*
X100788Y-42651D01*
X100781Y-42660D01*
X100773Y-42675D01*
X100769Y-42691D01*
X100767Y-42708D01*
X100766Y-42723D01*
X100767Y-42745D01*
X100769Y-42761D01*
X100772Y-42774D01*
X100775Y-42783D01*
X100781Y-42795D01*
X100788Y-42803D01*
X100804Y-42814D01*
X100820Y-42820D01*
X100836Y-42821D01*
X100910Y-42821D01*
X100924Y-42819D01*
X100936Y-42811D01*
X100941Y-42801D01*
X100942Y-42788D01*
X100942Y-42571D01*
X100900Y-42571D01*
X100900Y-42571D01*
X100900Y-42571D01*
G37*
G36*
X101054Y-42571D02*
X101054Y-42789D01*
X101095Y-42664D01*
X101141Y-42664D01*
X101151Y-42664D01*
X101162Y-42668D01*
X101172Y-42674D01*
X101180Y-42684D01*
X101183Y-42697D01*
X101185Y-42710D01*
X101186Y-42729D01*
X101185Y-42746D01*
X101183Y-42757D01*
X101180Y-42769D01*
X101171Y-42781D01*
X101160Y-42786D01*
X101150Y-42788D01*
X101140Y-42789D01*
X101110Y-42789D01*
X101103Y-42788D01*
X101098Y-42786D01*
X101095Y-42779D01*
X101095Y-42773D01*
X101095Y-42664D01*
X101095Y-42664D01*
X101054Y-42789D01*
X101055Y-42801D01*
X101062Y-42813D01*
X101076Y-42820D01*
X101092Y-42821D01*
X101152Y-42821D01*
X101169Y-42820D01*
X101187Y-42816D01*
X101203Y-42806D01*
X101217Y-42790D01*
X101222Y-42779D01*
X101226Y-42766D01*
X101228Y-42748D01*
X101229Y-42727D01*
X101229Y-42710D01*
X101227Y-42693D01*
X101223Y-42677D01*
X101217Y-42663D01*
X101203Y-42646D01*
X101186Y-42637D01*
X101168Y-42633D01*
X101151Y-42632D01*
X101095Y-42632D01*
X101095Y-42571D01*
X101054Y-42571D01*
X101054Y-42571D01*
X101054Y-42571D01*
G37*
G36*
X101441Y-42632D02*
X101398Y-42632D01*
X101334Y-42777D01*
X101273Y-42632D01*
X101230Y-42632D01*
X101314Y-42820D01*
X101285Y-42882D01*
X101328Y-42882D01*
X101441Y-42632D01*
X101441Y-42632D01*
G37*
G36*
X101497Y-42677D02*
X101497Y-42632D01*
X101454Y-42632D01*
X101454Y-42677D01*
X101497Y-42677D01*
X101497Y-42677D01*
G37*
G36*
X101072Y-42980D02*
X101075Y-42974D01*
X101079Y-42971D01*
X101082Y-42972D01*
X101084Y-42979D01*
X101083Y-43205D01*
X101137Y-43205D01*
X101137Y-42950D01*
X101134Y-42933D01*
X101124Y-42921D01*
X101109Y-42914D01*
X101091Y-42912D01*
X101076Y-42913D01*
X101062Y-42918D01*
X101049Y-42929D01*
X101039Y-42949D01*
X100964Y-43143D01*
X100960Y-43151D01*
X100956Y-43154D01*
X100952Y-43151D01*
X100949Y-43143D01*
X100873Y-42949D01*
X100867Y-42935D01*
X100857Y-42923D01*
X100843Y-42914D01*
X100822Y-42912D01*
X100811Y-42912D01*
X100796Y-42917D01*
X100782Y-42928D01*
X100777Y-42937D01*
X100776Y-42950D01*
X100776Y-43205D01*
X100830Y-43205D01*
X100829Y-42979D01*
X100829Y-42975D01*
X100834Y-42971D01*
X100838Y-42974D01*
X100841Y-42980D01*
X100915Y-43174D01*
X100920Y-43187D01*
X100928Y-43198D01*
X100939Y-43206D01*
X100956Y-43209D01*
X100973Y-43206D01*
X100984Y-43200D01*
X100991Y-43189D01*
X100998Y-43174D01*
X101072Y-42980D01*
X101072Y-42980D01*
X101072Y-42980D01*
G37*
G36*
X101378Y-43205D02*
X101378Y-43168D01*
X101271Y-43168D01*
X101257Y-43167D01*
X101244Y-43164D01*
X101233Y-43156D01*
X101226Y-43142D01*
X101224Y-43128D01*
X101223Y-43112D01*
X101223Y-43074D01*
X101225Y-43054D01*
X101233Y-43037D01*
X101244Y-43028D01*
X101257Y-43024D01*
X101269Y-43022D01*
X101279Y-43022D01*
X101301Y-43024D01*
X101311Y-43026D01*
X101321Y-43032D01*
X101330Y-43044D01*
X101335Y-43061D01*
X101333Y-43070D01*
X101324Y-43074D01*
X101223Y-43074D01*
X101223Y-43074D01*
X101223Y-43112D01*
X101351Y-43112D01*
X101364Y-43110D01*
X101375Y-43103D01*
X101384Y-43088D01*
X101385Y-43070D01*
X101384Y-43050D01*
X101379Y-43030D01*
X101369Y-43013D01*
X101354Y-42999D01*
X101338Y-42991D01*
X101320Y-42987D01*
X101301Y-42985D01*
X101281Y-42985D01*
X101263Y-42985D01*
X101242Y-42988D01*
X101230Y-42990D01*
X101219Y-42993D01*
X101209Y-42998D01*
X101199Y-43005D01*
X101191Y-43014D01*
X101185Y-43023D01*
X101180Y-43033D01*
X101177Y-43044D01*
X101175Y-43056D01*
X101174Y-43069D01*
X101173Y-43083D01*
X101173Y-43098D01*
X101174Y-43119D01*
X101176Y-43141D01*
X101180Y-43160D01*
X101189Y-43178D01*
X101204Y-43193D01*
X101221Y-43201D01*
X101239Y-43205D01*
X101256Y-43205D01*
X101378Y-43205D01*
X101378Y-43205D01*
X101378Y-43205D01*
G37*
G36*
X101412Y-43205D02*
X101461Y-43205D01*
X101461Y-42915D01*
X101412Y-42915D01*
X101412Y-43205D01*
X101412Y-43205D01*
G37*
G36*
X101518Y-42985D02*
X101468Y-42985D01*
X101552Y-43188D01*
X101559Y-43200D01*
X101568Y-43205D01*
X101578Y-43207D01*
X101586Y-43208D01*
X101595Y-43207D01*
X101604Y-43205D01*
X101612Y-43200D01*
X101619Y-43188D01*
X101703Y-42985D01*
X101653Y-42985D01*
X101591Y-43149D01*
X101589Y-43154D01*
X101586Y-43157D01*
X101582Y-43154D01*
X101580Y-43149D01*
X101518Y-42985D01*
X101518Y-42985D01*
X101518Y-42985D01*
G37*
G36*
X101720Y-42985D02*
X101720Y-43023D01*
X101829Y-43023D01*
X101841Y-43024D01*
X101852Y-43032D01*
X101857Y-43043D01*
X101858Y-43053D01*
X101858Y-43068D01*
X101858Y-43106D01*
X101858Y-43156D01*
X101858Y-43161D01*
X101855Y-43166D01*
X101849Y-43168D01*
X101844Y-43168D01*
X101777Y-43168D01*
X101768Y-43166D01*
X101761Y-43161D01*
X101755Y-43149D01*
X101754Y-43137D01*
X101756Y-43120D01*
X101760Y-43113D01*
X101769Y-43107D01*
X101778Y-43106D01*
X101858Y-43106D01*
X101858Y-43106D01*
X101858Y-43068D01*
X101763Y-43068D01*
X101744Y-43071D01*
X101733Y-43074D01*
X101723Y-43081D01*
X101713Y-43093D01*
X101707Y-43106D01*
X101705Y-43120D01*
X101704Y-43135D01*
X101705Y-43149D01*
X101707Y-43165D01*
X101712Y-43181D01*
X101723Y-43195D01*
X101733Y-43201D01*
X101743Y-43204D01*
X101763Y-43205D01*
X101868Y-43205D01*
X101884Y-43204D01*
X101898Y-43197D01*
X101905Y-43183D01*
X101907Y-43168D01*
X101907Y-43054D01*
X101906Y-43037D01*
X101902Y-43023D01*
X101897Y-43011D01*
X101891Y-43002D01*
X101882Y-42995D01*
X101871Y-42990D01*
X101859Y-42987D01*
X101845Y-42985D01*
X101720Y-42985D01*
X101720Y-42985D01*
X101720Y-42985D01*
G37*
G36*
X101940Y-43205D02*
X101989Y-43205D01*
X101989Y-43034D01*
X101989Y-43030D01*
X101991Y-43025D01*
X101995Y-43023D01*
X101999Y-43023D01*
X102049Y-43023D01*
X102070Y-43026D01*
X102084Y-43036D01*
X102091Y-43054D01*
X102093Y-43075D01*
X102093Y-43205D01*
X102141Y-43205D01*
X102141Y-43061D01*
X102140Y-43040D01*
X102135Y-43024D01*
X102128Y-43013D01*
X102120Y-43003D01*
X102106Y-42994D01*
X102091Y-42988D01*
X102075Y-42986D01*
X102058Y-42985D01*
X101981Y-42985D01*
X101964Y-42987D01*
X101947Y-42995D01*
X101941Y-43007D01*
X101940Y-43019D01*
X101940Y-43205D01*
X101940Y-43205D01*
X101940Y-43205D01*
G37*
G36*
X102184Y-43278D02*
X102288Y-43278D01*
X102303Y-43277D01*
X102323Y-43273D01*
X102333Y-43270D01*
X102330Y-43168D01*
X102273Y-43168D01*
X102251Y-43166D01*
X102240Y-43163D01*
X102231Y-43155D01*
X102227Y-43149D01*
X102223Y-43138D01*
X102220Y-43121D01*
X102219Y-43110D01*
X102219Y-43096D01*
X102219Y-43085D01*
X102220Y-43068D01*
X102224Y-43051D01*
X102232Y-43037D01*
X102248Y-43027D01*
X102258Y-43024D01*
X102270Y-43023D01*
X102311Y-43023D01*
X102318Y-43024D01*
X102324Y-43026D01*
X102329Y-43032D01*
X102330Y-43040D01*
X102330Y-43168D01*
X102330Y-43168D01*
X102333Y-43270D01*
X102343Y-43266D01*
X102353Y-43260D01*
X102361Y-43251D01*
X102370Y-43237D01*
X102375Y-43220D01*
X102378Y-43201D01*
X102379Y-43181D01*
X102379Y-43026D01*
X102376Y-43010D01*
X102366Y-42994D01*
X102349Y-42987D01*
X102330Y-42985D01*
X102259Y-42985D01*
X102242Y-42986D01*
X102225Y-42989D01*
X102208Y-42996D01*
X102192Y-43010D01*
X102180Y-43026D01*
X102173Y-43046D01*
X102170Y-43060D01*
X102169Y-43075D01*
X102169Y-43092D01*
X102169Y-43114D01*
X102171Y-43134D01*
X102175Y-43151D01*
X102179Y-43165D01*
X102186Y-43177D01*
X102200Y-43193D01*
X102217Y-43201D01*
X102234Y-43205D01*
X102252Y-43205D01*
X102330Y-43205D01*
X102326Y-43220D01*
X102317Y-43231D01*
X102308Y-43236D01*
X102296Y-43239D01*
X102276Y-43241D01*
X102184Y-43241D01*
X102184Y-43278D01*
X102184Y-43278D01*
X102184Y-43278D01*
G37*
G36*
X103103Y-42980D02*
X103106Y-42974D01*
X103110Y-42971D01*
X103113Y-42972D01*
X103115Y-42979D01*
X103113Y-43205D01*
X103168Y-43205D01*
X103168Y-42950D01*
X103165Y-42933D01*
X103155Y-42921D01*
X103140Y-42914D01*
X103121Y-42912D01*
X103106Y-42913D01*
X103092Y-42918D01*
X103080Y-42929D01*
X103070Y-42949D01*
X102995Y-43143D01*
X102991Y-43151D01*
X102987Y-43154D01*
X102983Y-43151D01*
X102979Y-43143D01*
X102904Y-42949D01*
X102897Y-42935D01*
X102888Y-42923D01*
X102874Y-42914D01*
X102853Y-42912D01*
X102842Y-42912D01*
X102826Y-42917D01*
X102812Y-42928D01*
X102808Y-42937D01*
X102806Y-42950D01*
X102806Y-43205D01*
X102861Y-43205D01*
X102860Y-42979D01*
X102860Y-42975D01*
X102864Y-42971D01*
X102868Y-42974D01*
X102871Y-42980D01*
X102945Y-43174D01*
X102951Y-43187D01*
X102958Y-43198D01*
X102970Y-43206D01*
X102987Y-43209D01*
X103003Y-43206D01*
X103014Y-43200D01*
X103022Y-43189D01*
X103028Y-43174D01*
X103103Y-42980D01*
X103103Y-42980D01*
X103103Y-42980D01*
G37*
G36*
X103359Y-42912D02*
X103345Y-42912D01*
X103284Y-42979D01*
X103298Y-42966D01*
X103316Y-42959D01*
X103336Y-42956D01*
X103358Y-42955D01*
X103380Y-42956D01*
X103401Y-42959D01*
X103419Y-42966D01*
X103434Y-42979D01*
X103440Y-42989D01*
X103446Y-43005D01*
X103448Y-43016D01*
X103450Y-43028D01*
X103451Y-43043D01*
X103451Y-43060D01*
X103451Y-43077D01*
X103450Y-43091D01*
X103448Y-43103D01*
X103446Y-43114D01*
X103440Y-43130D01*
X103434Y-43141D01*
X103419Y-43154D01*
X103400Y-43161D01*
X103380Y-43165D01*
X103358Y-43165D01*
X103336Y-43165D01*
X103316Y-43161D01*
X103298Y-43154D01*
X103284Y-43141D01*
X103277Y-43130D01*
X103271Y-43114D01*
X103269Y-43103D01*
X103267Y-43091D01*
X103266Y-43077D01*
X103266Y-43060D01*
X103266Y-43060D01*
X103266Y-43039D01*
X103268Y-43022D01*
X103270Y-43008D01*
X103276Y-42992D01*
X103284Y-42979D01*
X103345Y-42912D01*
X103330Y-42912D01*
X103315Y-42913D01*
X103300Y-42915D01*
X103285Y-42919D01*
X103270Y-42924D01*
X103256Y-42932D01*
X103243Y-42942D01*
X103232Y-42954D01*
X103224Y-42968D01*
X103219Y-42983D01*
X103214Y-42998D01*
X103212Y-43013D01*
X103210Y-43029D01*
X103210Y-43045D01*
X103209Y-43060D01*
X103210Y-43073D01*
X103210Y-43088D01*
X103211Y-43104D01*
X103214Y-43120D01*
X103218Y-43135D01*
X103224Y-43151D01*
X103232Y-43165D01*
X103243Y-43178D01*
X103256Y-43188D01*
X103270Y-43196D01*
X103285Y-43201D01*
X103300Y-43205D01*
X103316Y-43207D01*
X103331Y-43208D01*
X103345Y-43209D01*
X103359Y-43209D01*
X103372Y-43209D01*
X103387Y-43208D01*
X103402Y-43207D01*
X103417Y-43205D01*
X103433Y-43201D01*
X103448Y-43196D01*
X103462Y-43188D01*
X103475Y-43178D01*
X103485Y-43166D01*
X103493Y-43153D01*
X103498Y-43138D01*
X103502Y-43122D01*
X103505Y-43107D01*
X103507Y-43091D01*
X103508Y-43075D01*
X103508Y-43060D01*
X103508Y-43046D01*
X103507Y-43030D01*
X103505Y-43014D01*
X103502Y-42998D01*
X103498Y-42982D01*
X103493Y-42968D01*
X103485Y-42954D01*
X103475Y-42942D01*
X103462Y-42932D01*
X103448Y-42924D01*
X103433Y-42919D01*
X103417Y-42915D01*
X103402Y-42913D01*
X103387Y-42912D01*
X103372Y-42912D01*
X103359Y-42912D01*
X103359Y-42912D01*
X103359Y-42912D01*
G37*
G36*
X103773Y-43205D02*
X103773Y-43162D01*
X103602Y-43162D01*
X103598Y-43161D01*
X103597Y-43157D01*
X103598Y-43153D01*
X103601Y-43150D01*
X103761Y-42980D01*
X103773Y-42966D01*
X103777Y-42957D01*
X103778Y-42945D01*
X103775Y-42930D01*
X103768Y-42921D01*
X103757Y-42916D01*
X103745Y-42915D01*
X103536Y-42915D01*
X103536Y-42958D01*
X103699Y-42958D01*
X103705Y-42961D01*
X103707Y-42964D01*
X103705Y-42968D01*
X103702Y-42973D01*
X103543Y-43137D01*
X103531Y-43153D01*
X103527Y-43163D01*
X103525Y-43176D01*
X103529Y-43193D01*
X103540Y-43201D01*
X103553Y-43205D01*
X103565Y-43205D01*
X103773Y-43205D01*
X103773Y-43205D01*
X103773Y-43205D01*
G37*
G36*
X102640Y-43050D02*
X102636Y-43069D01*
X102625Y-43084D01*
X102610Y-43094D01*
X102591Y-43098D01*
X102573Y-43094D01*
X102557Y-43084D01*
X102547Y-43069D01*
X102543Y-43050D01*
X102547Y-43031D01*
X102557Y-43016D01*
X102573Y-43005D01*
X102591Y-43001D01*
X102610Y-43005D01*
X102625Y-43016D01*
X102636Y-43031D01*
X102640Y-43050D01*
X102640Y-43050D01*
G37*
G36*
X101497Y-42771D02*
X101497Y-42727D01*
X101454Y-42727D01*
X101454Y-42771D01*
X101497Y-42771D01*
X101497Y-42771D01*
G37*
G36*
X92815Y-44155D02*
X92466Y-43885D01*
X92460Y-43882D01*
X92454Y-43879D01*
X92449Y-43875D01*
X92448Y-43870D01*
X92450Y-43866D01*
X92456Y-43863D01*
X92462Y-43860D01*
X92468Y-43858D01*
X92664Y-43799D01*
X92649Y-43977D01*
X92466Y-43885D01*
X92815Y-44155D01*
X92823Y-44062D01*
X92709Y-44005D01*
X92728Y-43781D01*
X92850Y-43744D01*
X92858Y-43651D01*
X92425Y-43791D01*
X92417Y-43794D01*
X92409Y-43798D01*
X92402Y-43801D01*
X92396Y-43805D01*
X92391Y-43809D01*
X92386Y-43813D01*
X92382Y-43818D01*
X92378Y-43823D01*
X92374Y-43830D01*
X92371Y-43837D01*
X92369Y-43845D01*
X92367Y-43854D01*
X92366Y-43863D01*
X92366Y-43872D01*
X92366Y-43880D01*
X92366Y-43887D01*
X92367Y-43894D01*
X92369Y-43901D01*
X92371Y-43907D01*
X92374Y-43912D01*
X92377Y-43917D01*
X92381Y-43922D01*
X92386Y-43926D01*
X92391Y-43931D01*
X92397Y-43935D01*
X92404Y-43940D01*
X92412Y-43944D01*
X92815Y-44155D01*
X92815Y-44155D01*
G37*
G36*
X92913Y-43015D02*
X92911Y-43011D01*
X92909Y-43005D01*
X92908Y-43000D01*
X92909Y-42996D01*
X92914Y-42995D01*
X92919Y-42996D01*
X92925Y-43000D01*
X93193Y-43245D01*
X93252Y-43180D01*
X92947Y-42905D01*
X92940Y-42899D01*
X92933Y-42895D01*
X92926Y-42892D01*
X92919Y-42889D01*
X92912Y-42888D01*
X92905Y-42888D01*
X92898Y-42889D01*
X92891Y-42892D01*
X92884Y-42894D01*
X92877Y-42898D01*
X92870Y-42902D01*
X92864Y-42907D01*
X92857Y-42913D01*
X92851Y-42920D01*
X92846Y-42926D01*
X92841Y-42932D01*
X92836Y-42939D01*
X92833Y-42946D01*
X92830Y-42953D01*
X92828Y-42961D01*
X92827Y-42967D01*
X92827Y-42974D01*
X92827Y-42981D01*
X92828Y-42988D01*
X92829Y-42994D01*
X92831Y-43000D01*
X92834Y-43006D01*
X92837Y-43013D01*
X92841Y-43021D01*
X92991Y-43319D01*
X92994Y-43326D01*
X92996Y-43332D01*
X92996Y-43337D01*
X92995Y-43340D01*
X92992Y-43342D01*
X92987Y-43342D01*
X92981Y-43340D01*
X92974Y-43338D01*
X92662Y-43219D01*
X92656Y-43216D01*
X92650Y-43215D01*
X92644Y-43213D01*
X92638Y-43211D01*
X92630Y-43210D01*
X92621Y-43209D01*
X92613Y-43210D01*
X92607Y-43210D01*
X92601Y-43212D01*
X92594Y-43214D01*
X92588Y-43218D01*
X92583Y-43221D01*
X92578Y-43224D01*
X92573Y-43229D01*
X92568Y-43234D01*
X92562Y-43239D01*
X92559Y-43243D01*
X92556Y-43247D01*
X92551Y-43254D01*
X92548Y-43258D01*
X92545Y-43264D01*
X92542Y-43270D01*
X92540Y-43276D01*
X92538Y-43283D01*
X92537Y-43290D01*
X92537Y-43298D01*
X92538Y-43306D01*
X92540Y-43312D01*
X92542Y-43318D01*
X92546Y-43324D01*
X92551Y-43330D01*
X92557Y-43336D01*
X92862Y-43612D01*
X92921Y-43546D01*
X92650Y-43304D01*
X92645Y-43299D01*
X92643Y-43294D01*
X92645Y-43289D01*
X92648Y-43288D01*
X92654Y-43288D01*
X92659Y-43290D01*
X92664Y-43291D01*
X92975Y-43411D01*
X92982Y-43414D01*
X92989Y-43417D01*
X92996Y-43419D01*
X93003Y-43421D01*
X93010Y-43422D01*
X93018Y-43422D01*
X93025Y-43422D01*
X93032Y-43420D01*
X93039Y-43417D01*
X93044Y-43414D01*
X93050Y-43410D01*
X93055Y-43405D01*
X93061Y-43399D01*
X93066Y-43394D01*
X93070Y-43388D01*
X93073Y-43383D01*
X93075Y-43377D01*
X93078Y-43371D01*
X93079Y-43364D01*
X93079Y-43357D01*
X93079Y-43350D01*
X93077Y-43343D01*
X93075Y-43336D01*
X93072Y-43331D01*
X93070Y-43325D01*
X93067Y-43319D01*
X93064Y-43312D01*
X92913Y-43015D01*
X92913Y-43015D01*
G37*
G36*
X93504Y-42653D02*
X93497Y-42654D01*
X93410Y-42764D01*
X93415Y-42759D01*
X93421Y-42754D01*
X93427Y-42749D01*
X93433Y-42745D01*
X93440Y-42742D01*
X93447Y-42739D01*
X93454Y-42736D01*
X93461Y-42734D01*
X93468Y-42732D01*
X93475Y-42730D01*
X93483Y-42728D01*
X93490Y-42726D01*
X93498Y-42725D01*
X93506Y-42723D01*
X93514Y-42722D01*
X93522Y-42721D01*
X93529Y-42720D01*
X93537Y-42719D01*
X93545Y-42719D01*
X93552Y-42718D01*
X93560Y-42718D01*
X93567Y-42718D01*
X93575Y-42718D01*
X93582Y-42719D01*
X93590Y-42719D01*
X93598Y-42721D01*
X93605Y-42723D01*
X93612Y-42725D01*
X93619Y-42728D01*
X93626Y-42732D01*
X93633Y-42737D01*
X93639Y-42742D01*
X93643Y-42746D01*
X93647Y-42751D01*
X93652Y-42757D01*
X93655Y-42762D01*
X93658Y-42767D01*
X93662Y-42774D01*
X93665Y-42781D01*
X93667Y-42787D01*
X93669Y-42793D01*
X93672Y-42801D01*
X93674Y-42808D01*
X93676Y-42817D01*
X93678Y-42823D01*
X93679Y-42829D01*
X93681Y-42836D01*
X93682Y-42843D01*
X93684Y-42851D01*
X93685Y-42859D01*
X93686Y-42867D01*
X93687Y-42876D01*
X93689Y-42885D01*
X93689Y-42893D01*
X93690Y-42901D01*
X93691Y-42909D01*
X93691Y-42916D01*
X93691Y-42925D01*
X93691Y-42932D01*
X93691Y-42940D01*
X93691Y-42947D01*
X93690Y-42953D01*
X93689Y-42961D01*
X93688Y-42968D01*
X93687Y-42975D01*
X93685Y-42980D01*
X93683Y-42988D01*
X93680Y-42994D01*
X93677Y-43000D01*
X93672Y-43007D01*
X93667Y-43013D01*
X93662Y-43019D01*
X93656Y-43024D01*
X93650Y-43029D01*
X93643Y-43033D01*
X93636Y-43037D01*
X93629Y-43040D01*
X93621Y-43043D01*
X93614Y-43046D01*
X93606Y-43048D01*
X93597Y-43050D01*
X93591Y-43051D01*
X93584Y-43052D01*
X93577Y-43054D01*
X93570Y-43055D01*
X93563Y-43056D01*
X93556Y-43057D01*
X93549Y-43058D01*
X93542Y-43059D01*
X93535Y-43060D01*
X93528Y-43060D01*
X93520Y-43061D01*
X93511Y-43061D01*
X93503Y-43060D01*
X93495Y-43060D01*
X93487Y-43059D01*
X93480Y-43057D01*
X93472Y-43055D01*
X93465Y-43053D01*
X93458Y-43049D01*
X93451Y-43045D01*
X93445Y-43041D01*
X93439Y-43035D01*
X93434Y-43031D01*
X93430Y-43025D01*
X93425Y-43020D01*
X93422Y-43014D01*
X93419Y-43009D01*
X93416Y-43002D01*
X93413Y-42995D01*
X93410Y-42989D01*
X93408Y-42982D01*
X93405Y-42975D01*
X93403Y-42968D01*
X93401Y-42960D01*
X93399Y-42954D01*
X93398Y-42947D01*
X93396Y-42941D01*
X93395Y-42934D01*
X93394Y-42926D01*
X93393Y-42919D01*
X93391Y-42911D01*
X93391Y-42911D01*
X93390Y-42901D01*
X93389Y-42892D01*
X93388Y-42883D01*
X93387Y-42875D01*
X93386Y-42867D01*
X93386Y-42859D01*
X93386Y-42852D01*
X93386Y-42845D01*
X93386Y-42839D01*
X93386Y-42833D01*
X93386Y-42827D01*
X93388Y-42819D01*
X93389Y-42810D01*
X93391Y-42803D01*
X93393Y-42796D01*
X93395Y-42789D01*
X93398Y-42783D01*
X93401Y-42777D01*
X93405Y-42770D01*
X93410Y-42764D01*
X93497Y-42654D01*
X93490Y-42655D01*
X93482Y-42656D01*
X93475Y-42657D01*
X93467Y-42659D01*
X93459Y-42660D01*
X93451Y-42662D01*
X93443Y-42663D01*
X93435Y-42665D01*
X93427Y-42667D01*
X93419Y-42670D01*
X93411Y-42673D01*
X93405Y-42675D01*
X93398Y-42678D01*
X93391Y-42681D01*
X93385Y-42684D01*
X93378Y-42687D01*
X93372Y-42690D01*
X93365Y-42694D01*
X93359Y-42698D01*
X93354Y-42702D01*
X93348Y-42707D01*
X93342Y-42712D01*
X93337Y-42717D01*
X93332Y-42723D01*
X93327Y-42729D01*
X93323Y-42735D01*
X93319Y-42741D01*
X93315Y-42747D01*
X93312Y-42754D01*
X93309Y-42760D01*
X93306Y-42767D01*
X93304Y-42774D01*
X93302Y-42781D01*
X93300Y-42788D01*
X93299Y-42795D01*
X93297Y-42802D01*
X93296Y-42809D01*
X93296Y-42817D01*
X93295Y-42824D01*
X93295Y-42831D01*
X93294Y-42838D01*
X93294Y-42846D01*
X93294Y-42853D01*
X93295Y-42860D01*
X93295Y-42868D01*
X93296Y-42875D01*
X93297Y-42883D01*
X93298Y-42892D01*
X93298Y-42900D01*
X93300Y-42908D01*
X93301Y-42916D01*
X93302Y-42924D01*
X93303Y-42931D01*
X93304Y-42938D01*
X93305Y-42945D01*
X93306Y-42952D01*
X93308Y-42960D01*
X93309Y-42968D01*
X93310Y-42975D01*
X93312Y-42982D01*
X93314Y-42989D01*
X93316Y-42996D01*
X93318Y-43003D01*
X93320Y-43010D01*
X93322Y-43017D01*
X93325Y-43024D01*
X93328Y-43031D01*
X93331Y-43038D01*
X93334Y-43045D01*
X93338Y-43051D01*
X93341Y-43058D01*
X93345Y-43064D01*
X93350Y-43071D01*
X93355Y-43077D01*
X93360Y-43083D01*
X93365Y-43088D01*
X93371Y-43094D01*
X93377Y-43099D01*
X93383Y-43103D01*
X93389Y-43108D01*
X93396Y-43112D01*
X93402Y-43115D01*
X93409Y-43118D01*
X93415Y-43121D01*
X93422Y-43123D01*
X93429Y-43125D01*
X93436Y-43127D01*
X93444Y-43129D01*
X93451Y-43130D01*
X93458Y-43131D01*
X93465Y-43132D01*
X93472Y-43132D01*
X93480Y-43133D01*
X93488Y-43133D01*
X93496Y-43133D01*
X93505Y-43133D01*
X93513Y-43132D01*
X93521Y-43132D01*
X93529Y-43131D01*
X93537Y-43130D01*
X93545Y-43129D01*
X93553Y-43128D01*
X93560Y-43127D01*
X93567Y-43126D01*
X93574Y-43125D01*
X93581Y-43124D01*
X93588Y-43123D01*
X93595Y-43122D01*
X93602Y-43120D01*
X93610Y-43119D01*
X93618Y-43118D01*
X93626Y-43116D01*
X93634Y-43114D01*
X93642Y-43112D01*
X93650Y-43110D01*
X93658Y-43108D01*
X93666Y-43105D01*
X93673Y-43103D01*
X93680Y-43100D01*
X93687Y-43097D01*
X93693Y-43094D01*
X93700Y-43091D01*
X93706Y-43087D01*
X93712Y-43084D01*
X93718Y-43080D01*
X93724Y-43075D01*
X93730Y-43071D01*
X93736Y-43066D01*
X93741Y-43060D01*
X93746Y-43055D01*
X93751Y-43049D01*
X93755Y-43043D01*
X93759Y-43037D01*
X93762Y-43031D01*
X93766Y-43025D01*
X93769Y-43018D01*
X93771Y-43011D01*
X93773Y-43004D01*
X93775Y-42997D01*
X93777Y-42990D01*
X93778Y-42983D01*
X93780Y-42976D01*
X93781Y-42969D01*
X93781Y-42961D01*
X93782Y-42954D01*
X93782Y-42947D01*
X93783Y-42939D01*
X93783Y-42932D01*
X93782Y-42925D01*
X93782Y-42917D01*
X93782Y-42910D01*
X93781Y-42903D01*
X93780Y-42894D01*
X93780Y-42886D01*
X93779Y-42878D01*
X93778Y-42870D01*
X93777Y-42862D01*
X93776Y-42854D01*
X93775Y-42846D01*
X93773Y-42839D01*
X93772Y-42831D01*
X93771Y-42823D01*
X93769Y-42814D01*
X93767Y-42806D01*
X93766Y-42799D01*
X93764Y-42791D01*
X93762Y-42784D01*
X93760Y-42777D01*
X93758Y-42770D01*
X93755Y-42763D01*
X93753Y-42756D01*
X93750Y-42749D01*
X93747Y-42742D01*
X93744Y-42736D01*
X93741Y-42729D01*
X93737Y-42723D01*
X93734Y-42717D01*
X93730Y-42710D01*
X93726Y-42704D01*
X93721Y-42699D01*
X93717Y-42693D01*
X93712Y-42688D01*
X93707Y-42683D01*
X93701Y-42679D01*
X93695Y-42674D01*
X93689Y-42670D01*
X93683Y-42666D01*
X93676Y-42663D01*
X93669Y-42659D01*
X93662Y-42657D01*
X93655Y-42654D01*
X93648Y-42652D01*
X93641Y-42651D01*
X93634Y-42649D01*
X93627Y-42648D01*
X93620Y-42647D01*
X93613Y-42646D01*
X93605Y-42645D01*
X93598Y-42645D01*
X93590Y-42645D01*
X93581Y-42645D01*
X93573Y-42645D01*
X93565Y-42645D01*
X93557Y-42646D01*
X93548Y-42647D01*
X93541Y-42648D01*
X93533Y-42649D01*
X93525Y-42650D01*
X93518Y-42651D01*
X93511Y-42652D01*
X93504Y-42653D01*
X93504Y-42653D01*
X93504Y-42653D01*
G37*
G36*
X94226Y-43261D02*
X94254Y-43197D01*
X94026Y-43097D01*
X94020Y-43095D01*
X94014Y-43092D01*
X94009Y-43089D01*
X94004Y-43085D01*
X94001Y-43080D01*
X93999Y-43074D01*
X93999Y-43068D01*
X94002Y-43061D01*
X94045Y-42960D01*
X94299Y-43071D01*
X94327Y-43007D01*
X94073Y-42896D01*
X94111Y-42810D01*
X94113Y-42805D01*
X94116Y-42800D01*
X94121Y-42796D01*
X94127Y-42792D01*
X94133Y-42791D01*
X94139Y-42792D01*
X94146Y-42794D01*
X94151Y-42796D01*
X94382Y-42897D01*
X94410Y-42832D01*
X94136Y-42713D01*
X94130Y-42710D01*
X94123Y-42708D01*
X94116Y-42706D01*
X94108Y-42703D01*
X94101Y-42702D01*
X94093Y-42702D01*
X94085Y-42704D01*
X94078Y-42707D01*
X94072Y-42710D01*
X94068Y-42713D01*
X94063Y-42717D01*
X94058Y-42722D01*
X94054Y-42727D01*
X94050Y-42733D01*
X94046Y-42739D01*
X94043Y-42745D01*
X93911Y-43048D01*
X93909Y-43054D01*
X93906Y-43061D01*
X93904Y-43068D01*
X93902Y-43075D01*
X93901Y-43083D01*
X93901Y-43090D01*
X93903Y-43098D01*
X93905Y-43105D01*
X93909Y-43112D01*
X93912Y-43118D01*
X93917Y-43123D01*
X93923Y-43127D01*
X93929Y-43130D01*
X93935Y-43134D01*
X93941Y-43137D01*
X93948Y-43140D01*
X94226Y-43261D01*
X94226Y-43261D01*
X94226Y-43261D01*
G37*
G36*
X94695Y-43079D02*
X94631Y-43155D01*
X94635Y-43152D01*
X94640Y-43150D01*
X94645Y-43148D01*
X94651Y-43148D01*
X94657Y-43149D01*
X94661Y-43152D01*
X94664Y-43156D01*
X94668Y-43161D01*
X94753Y-43277D01*
X94757Y-43283D01*
X94761Y-43289D01*
X94765Y-43296D01*
X94768Y-43303D01*
X94769Y-43310D01*
X94769Y-43319D01*
X94767Y-43326D01*
X94764Y-43333D01*
X94760Y-43339D01*
X94755Y-43345D01*
X94749Y-43351D01*
X94743Y-43357D01*
X94737Y-43361D01*
X94730Y-43366D01*
X94723Y-43370D01*
X94717Y-43374D01*
X94712Y-43376D01*
X94707Y-43378D01*
X94699Y-43380D01*
X94693Y-43381D01*
X94686Y-43380D01*
X94679Y-43378D01*
X94673Y-43375D01*
X94668Y-43372D01*
X94664Y-43367D01*
X94660Y-43362D01*
X94655Y-43357D01*
X94651Y-43352D01*
X94551Y-43214D01*
X94631Y-43155D01*
X94631Y-43155D01*
X94695Y-43079D01*
X94494Y-43255D01*
X94600Y-43400D01*
X94604Y-43406D01*
X94608Y-43413D01*
X94610Y-43419D01*
X94612Y-43424D01*
X94613Y-43430D01*
X94613Y-43438D01*
X94613Y-43444D01*
X94612Y-43449D01*
X94610Y-43454D01*
X94607Y-43460D01*
X94603Y-43465D01*
X94598Y-43469D01*
X94591Y-43476D01*
X94585Y-43481D01*
X94580Y-43485D01*
X94573Y-43490D01*
X94566Y-43494D01*
X94558Y-43498D01*
X94552Y-43500D01*
X94546Y-43502D01*
X94540Y-43503D01*
X94534Y-43503D01*
X94527Y-43502D01*
X94520Y-43500D01*
X94513Y-43496D01*
X94508Y-43492D01*
X94503Y-43486D01*
X94498Y-43481D01*
X94494Y-43476D01*
X94491Y-43472D01*
X94409Y-43360D01*
X94405Y-43355D01*
X94401Y-43348D01*
X94398Y-43340D01*
X94398Y-43333D01*
X94400Y-43328D01*
X94403Y-43324D01*
X94406Y-43320D01*
X94411Y-43316D01*
X94417Y-43312D01*
X94494Y-43255D01*
X94494Y-43255D01*
X94695Y-43079D01*
X94691Y-43074D01*
X94687Y-43070D01*
X94682Y-43065D01*
X94677Y-43060D01*
X94671Y-43056D01*
X94665Y-43054D01*
X94658Y-43052D01*
X94650Y-43050D01*
X94644Y-43051D01*
X94638Y-43051D01*
X94632Y-43053D01*
X94625Y-43054D01*
X94619Y-43057D01*
X94613Y-43060D01*
X94608Y-43063D01*
X94602Y-43067D01*
X94333Y-43264D01*
X94326Y-43270D01*
X94320Y-43276D01*
X94315Y-43282D01*
X94311Y-43288D01*
X94308Y-43295D01*
X94306Y-43301D01*
X94305Y-43305D01*
X94303Y-43313D01*
X94303Y-43320D01*
X94304Y-43327D01*
X94306Y-43333D01*
X94308Y-43339D01*
X94312Y-43345D01*
X94315Y-43350D01*
X94319Y-43356D01*
X94323Y-43361D01*
X94327Y-43367D01*
X94459Y-43547D01*
X94463Y-43553D01*
X94467Y-43559D01*
X94472Y-43564D01*
X94477Y-43570D01*
X94482Y-43575D01*
X94487Y-43580D01*
X94493Y-43584D01*
X94500Y-43588D01*
X94507Y-43592D01*
X94513Y-43594D01*
X94519Y-43596D01*
X94526Y-43597D01*
X94534Y-43598D01*
X94542Y-43599D01*
X94550Y-43599D01*
X94558Y-43598D01*
X94566Y-43596D01*
X94573Y-43594D01*
X94580Y-43592D01*
X94587Y-43588D01*
X94594Y-43584D01*
X94601Y-43580D01*
X94609Y-43575D01*
X94615Y-43571D01*
X94622Y-43566D01*
X94628Y-43562D01*
X94634Y-43558D01*
X94639Y-43554D01*
X94645Y-43549D01*
X94650Y-43545D01*
X94656Y-43540D01*
X94661Y-43535D01*
X94666Y-43529D01*
X94670Y-43523D01*
X94674Y-43517D01*
X94678Y-43510D01*
X94680Y-43503D01*
X94683Y-43495D01*
X94684Y-43489D01*
X94684Y-43482D01*
X94683Y-43475D01*
X94683Y-43468D01*
X94681Y-43460D01*
X94679Y-43453D01*
X94676Y-43446D01*
X94672Y-43439D01*
X94674Y-43437D01*
X94680Y-43443D01*
X94687Y-43448D01*
X94694Y-43452D01*
X94699Y-43455D01*
X94705Y-43457D01*
X94712Y-43458D01*
X94720Y-43459D01*
X94728Y-43459D01*
X94735Y-43458D01*
X94742Y-43458D01*
X94749Y-43456D01*
X94755Y-43454D01*
X94761Y-43452D01*
X94768Y-43448D01*
X94775Y-43444D01*
X94781Y-43440D01*
X94788Y-43436D01*
X94794Y-43432D01*
X94800Y-43427D01*
X94807Y-43422D01*
X94813Y-43416D01*
X94818Y-43412D01*
X94823Y-43407D01*
X94828Y-43402D01*
X94832Y-43397D01*
X94837Y-43392D01*
X94841Y-43386D01*
X94845Y-43381D01*
X94848Y-43375D01*
X94851Y-43369D01*
X94854Y-43362D01*
X94856Y-43356D01*
X94857Y-43349D01*
X94858Y-43342D01*
X94858Y-43336D01*
X94858Y-43330D01*
X94857Y-43324D01*
X94856Y-43316D01*
X94854Y-43308D01*
X94851Y-43301D01*
X94849Y-43294D01*
X94845Y-43287D01*
X94841Y-43280D01*
X94837Y-43275D01*
X94834Y-43269D01*
X94830Y-43264D01*
X94695Y-43079D01*
X94695Y-43079D01*
X94695Y-43079D01*
G37*
G36*
X94541Y-43651D02*
X94931Y-43858D01*
X94937Y-43860D01*
X94943Y-43862D01*
X94949Y-43866D01*
X94951Y-43870D01*
X94950Y-43874D01*
X94945Y-43878D01*
X94939Y-43882D01*
X94933Y-43885D01*
X94750Y-43977D01*
X94735Y-43798D01*
X94931Y-43858D01*
X94931Y-43858D01*
X94541Y-43651D01*
X94549Y-43744D01*
X94671Y-43781D01*
X94690Y-44005D01*
X94576Y-44062D01*
X94584Y-44155D01*
X94987Y-43944D01*
X94995Y-43939D01*
X95002Y-43935D01*
X95008Y-43930D01*
X95013Y-43925D01*
X95018Y-43920D01*
X95022Y-43915D01*
X95025Y-43910D01*
X95028Y-43904D01*
X95031Y-43897D01*
X95032Y-43890D01*
X95033Y-43881D01*
X95033Y-43872D01*
X95033Y-43863D01*
X95032Y-43854D01*
X95031Y-43846D01*
X95029Y-43839D01*
X95026Y-43832D01*
X95024Y-43826D01*
X95021Y-43821D01*
X95017Y-43816D01*
X95013Y-43812D01*
X95008Y-43808D01*
X95003Y-43804D01*
X94997Y-43800D01*
X94990Y-43797D01*
X94982Y-43794D01*
X94974Y-43791D01*
X94541Y-43651D01*
X94541Y-43651D01*
X94541Y-43651D01*
G37*
G54D12*
M02*
