G04 (created by PCBNEW (2013-may-18)-stable) date Sat 31 Oct 2015 09:22:13 PM EDT*
%MOIN*%
G04 Gerber Fmt 3.4, Leading zero omitted, Abs format*
%FSLAX34Y34*%
G01*
G70*
G90*
G04 APERTURE LIST*
%ADD10C,0.00590551*%
%ADD11C,0.0001*%
%ADD12C,4.72441e-06*%
%ADD13C,0.157*%
%ADD14C,0.065*%
%ADD15C,0.0590551*%
%ADD16R,0.0590551X0.0590551*%
%ADD17C,0.055*%
%ADD18R,0.035X0.055*%
%ADD19C,0.066*%
%ADD20C,0.09*%
%ADD21C,0.09*%
%ADD22C,0.070937*%
G04 APERTURE END LIST*
G54D10*
G54D11*
G36*
X93777Y-42659D02*
X93843Y-42672D01*
X93890Y-42691D01*
X93921Y-42717D01*
X93940Y-42753D01*
X93949Y-42800D01*
X93951Y-42842D01*
X93953Y-42884D01*
X93961Y-42925D01*
X93979Y-42960D01*
X94016Y-42986D01*
X94057Y-42987D01*
X94099Y-42958D01*
X94141Y-42926D01*
X94183Y-42896D01*
X94228Y-42872D01*
X94277Y-42859D01*
X94324Y-42862D01*
X94362Y-42880D01*
X94394Y-42907D01*
X94424Y-42940D01*
X94456Y-42974D01*
X94490Y-43007D01*
X94527Y-43045D01*
X94558Y-43087D01*
X94574Y-43132D01*
X94572Y-43183D01*
X94555Y-43228D01*
X94529Y-43269D01*
X94499Y-43309D01*
X94470Y-43348D01*
X94455Y-43374D01*
X94459Y-43404D01*
X94479Y-43445D01*
X94518Y-43467D01*
X94561Y-43470D01*
X94606Y-43475D01*
X94651Y-43484D01*
X94692Y-43499D01*
X94728Y-43523D01*
X94755Y-43557D01*
X94774Y-43602D01*
X94784Y-43647D01*
X94786Y-43694D01*
X94784Y-43744D01*
X94780Y-43796D01*
X94776Y-43854D01*
X94764Y-43902D01*
X94736Y-43941D01*
X94697Y-43971D01*
X94651Y-43990D01*
X94602Y-43999D01*
X94562Y-43998D01*
X94522Y-44002D01*
X94491Y-44020D01*
X94468Y-44055D01*
X94458Y-44095D01*
X94476Y-44137D01*
X94505Y-44168D01*
X94533Y-44204D01*
X94556Y-44242D01*
X94572Y-44283D01*
X94578Y-44324D01*
X94570Y-44367D01*
X94546Y-44413D01*
X94516Y-44453D01*
X94480Y-44490D01*
X94442Y-44525D01*
X94402Y-44559D01*
X94364Y-44594D01*
X94330Y-44612D01*
X94289Y-44612D01*
X94245Y-44598D01*
X94200Y-44576D01*
X94155Y-44552D01*
X94114Y-44530D01*
X94086Y-44522D01*
X94047Y-44521D01*
X93979Y-44522D01*
X93922Y-44523D01*
X93867Y-44524D01*
X93814Y-44524D01*
X93762Y-44525D01*
X93710Y-44525D01*
X93660Y-44525D01*
X93610Y-44525D01*
X93560Y-44526D01*
X93509Y-44526D01*
X93459Y-44527D01*
X93422Y-44526D01*
X93369Y-44526D01*
X93314Y-44528D01*
X93269Y-44535D01*
X93225Y-44554D01*
X93190Y-44580D01*
X93158Y-44604D01*
X93120Y-44618D01*
X93071Y-44613D01*
X93029Y-44595D01*
X92992Y-44570D01*
X92960Y-44540D01*
X92928Y-44506D01*
X92896Y-44469D01*
X92860Y-44430D01*
X92832Y-44392D01*
X92819Y-44349D01*
X92819Y-44303D01*
X92831Y-44258D01*
X92856Y-44218D01*
X92889Y-44182D01*
X92921Y-44146D01*
X92936Y-44103D01*
X92929Y-44062D01*
X92906Y-44026D01*
X92863Y-44009D01*
X92819Y-44005D01*
X92774Y-43999D01*
X92729Y-43988D01*
X92688Y-43970D01*
X92655Y-43943D01*
X92630Y-43904D01*
X92617Y-43861D01*
X92611Y-43818D01*
X92610Y-43774D01*
X92612Y-43728D01*
X92614Y-43681D01*
X92615Y-43632D01*
X92622Y-43585D01*
X92646Y-43546D01*
X92680Y-43514D01*
X92723Y-43493D01*
X92769Y-43482D01*
X92818Y-43480D01*
X92867Y-43476D01*
X92907Y-43456D01*
X92929Y-43428D01*
X92941Y-43393D01*
X92929Y-43358D01*
X92899Y-43322D01*
X92869Y-43284D01*
X92842Y-43244D01*
X92824Y-43201D01*
X92816Y-43155D01*
X92824Y-43108D01*
X92844Y-43066D01*
X92873Y-43026D01*
X92906Y-42990D01*
X92941Y-42958D01*
X92974Y-42929D01*
X93001Y-42904D01*
X93040Y-42876D01*
X93085Y-42863D01*
X93132Y-42863D01*
X93179Y-42876D01*
X93220Y-42901D01*
X93258Y-42937D01*
X93298Y-42970D01*
X93343Y-42985D01*
X93375Y-42981D01*
X93405Y-42967D01*
X93420Y-42937D01*
X93423Y-42895D01*
X93427Y-42850D01*
X93433Y-42804D01*
X93443Y-42761D01*
X93460Y-42723D01*
X93486Y-42693D01*
X93523Y-42674D01*
X93581Y-42660D01*
X93631Y-42653D01*
X93679Y-42651D01*
X93726Y-42653D01*
X93777Y-42659D01*
X93777Y-42659D01*
X93777Y-42659D01*
G37*
G54D12*
X93777Y-42659D02*
X93843Y-42672D01*
X93843Y-42672D02*
X93890Y-42691D01*
X93890Y-42691D02*
X93921Y-42717D01*
X93921Y-42717D02*
X93940Y-42753D01*
X93940Y-42753D02*
X93949Y-42800D01*
X93949Y-42800D02*
X93951Y-42842D01*
X93951Y-42842D02*
X93953Y-42884D01*
X93953Y-42884D02*
X93961Y-42925D01*
X93961Y-42925D02*
X93979Y-42960D01*
X93979Y-42960D02*
X94016Y-42986D01*
X94016Y-42986D02*
X94057Y-42987D01*
X94057Y-42987D02*
X94099Y-42958D01*
X94099Y-42958D02*
X94141Y-42926D01*
X94141Y-42926D02*
X94183Y-42896D01*
X94183Y-42896D02*
X94228Y-42872D01*
X94228Y-42872D02*
X94277Y-42859D01*
X94277Y-42859D02*
X94324Y-42862D01*
X94324Y-42862D02*
X94362Y-42880D01*
X94362Y-42880D02*
X94394Y-42907D01*
X94394Y-42907D02*
X94424Y-42940D01*
X94424Y-42940D02*
X94456Y-42974D01*
X94456Y-42974D02*
X94490Y-43007D01*
X94490Y-43007D02*
X94527Y-43045D01*
X94527Y-43045D02*
X94558Y-43087D01*
X94558Y-43087D02*
X94574Y-43132D01*
X94574Y-43132D02*
X94572Y-43183D01*
X94572Y-43183D02*
X94555Y-43228D01*
X94555Y-43228D02*
X94529Y-43269D01*
X94529Y-43269D02*
X94499Y-43309D01*
X94499Y-43309D02*
X94470Y-43348D01*
X94470Y-43348D02*
X94455Y-43374D01*
X94455Y-43374D02*
X94459Y-43404D01*
X94459Y-43404D02*
X94479Y-43445D01*
X94479Y-43445D02*
X94518Y-43467D01*
X94518Y-43467D02*
X94561Y-43470D01*
X94561Y-43470D02*
X94606Y-43475D01*
X94606Y-43475D02*
X94651Y-43484D01*
X94651Y-43484D02*
X94692Y-43499D01*
X94692Y-43499D02*
X94728Y-43523D01*
X94728Y-43523D02*
X94755Y-43557D01*
X94755Y-43557D02*
X94774Y-43602D01*
X94774Y-43602D02*
X94784Y-43647D01*
X94784Y-43647D02*
X94786Y-43694D01*
X94786Y-43694D02*
X94784Y-43744D01*
X94784Y-43744D02*
X94780Y-43796D01*
X94780Y-43796D02*
X94776Y-43854D01*
X94776Y-43854D02*
X94764Y-43902D01*
X94764Y-43902D02*
X94736Y-43941D01*
X94736Y-43941D02*
X94697Y-43971D01*
X94697Y-43971D02*
X94651Y-43990D01*
X94651Y-43990D02*
X94602Y-43999D01*
X94602Y-43999D02*
X94562Y-43998D01*
X94562Y-43998D02*
X94522Y-44002D01*
X94522Y-44002D02*
X94491Y-44020D01*
X94491Y-44020D02*
X94468Y-44055D01*
X94468Y-44055D02*
X94458Y-44095D01*
X94458Y-44095D02*
X94476Y-44137D01*
X94476Y-44137D02*
X94505Y-44168D01*
X94505Y-44168D02*
X94533Y-44204D01*
X94533Y-44204D02*
X94556Y-44242D01*
X94556Y-44242D02*
X94572Y-44283D01*
X94572Y-44283D02*
X94578Y-44324D01*
X94578Y-44324D02*
X94570Y-44367D01*
X94570Y-44367D02*
X94546Y-44413D01*
X94546Y-44413D02*
X94516Y-44453D01*
X94516Y-44453D02*
X94480Y-44490D01*
X94480Y-44490D02*
X94442Y-44525D01*
X94442Y-44525D02*
X94402Y-44559D01*
X94402Y-44559D02*
X94364Y-44594D01*
X94364Y-44594D02*
X94330Y-44612D01*
X94330Y-44612D02*
X94289Y-44612D01*
X94289Y-44612D02*
X94245Y-44598D01*
X94245Y-44598D02*
X94200Y-44576D01*
X94200Y-44576D02*
X94155Y-44552D01*
X94155Y-44552D02*
X94114Y-44530D01*
X94114Y-44530D02*
X94086Y-44522D01*
X94086Y-44522D02*
X94047Y-44521D01*
X94047Y-44521D02*
X93979Y-44522D01*
X93979Y-44522D02*
X93922Y-44523D01*
X93922Y-44523D02*
X93867Y-44524D01*
X93867Y-44524D02*
X93814Y-44524D01*
X93814Y-44524D02*
X93762Y-44525D01*
X93762Y-44525D02*
X93710Y-44525D01*
X93710Y-44525D02*
X93660Y-44525D01*
X93660Y-44525D02*
X93610Y-44525D01*
X93610Y-44525D02*
X93560Y-44526D01*
X93560Y-44526D02*
X93509Y-44526D01*
X93509Y-44526D02*
X93459Y-44527D01*
X93459Y-44527D02*
X93422Y-44526D01*
X93422Y-44526D02*
X93369Y-44526D01*
X93369Y-44526D02*
X93314Y-44528D01*
X93314Y-44528D02*
X93269Y-44535D01*
X93269Y-44535D02*
X93225Y-44554D01*
X93225Y-44554D02*
X93190Y-44580D01*
X93190Y-44580D02*
X93158Y-44604D01*
X93158Y-44604D02*
X93120Y-44618D01*
X93120Y-44618D02*
X93071Y-44613D01*
X93071Y-44613D02*
X93029Y-44595D01*
X93029Y-44595D02*
X92992Y-44570D01*
X92992Y-44570D02*
X92960Y-44540D01*
X92960Y-44540D02*
X92928Y-44506D01*
X92928Y-44506D02*
X92896Y-44469D01*
X92896Y-44469D02*
X92860Y-44430D01*
X92860Y-44430D02*
X92832Y-44392D01*
X92832Y-44392D02*
X92819Y-44349D01*
X92819Y-44349D02*
X92819Y-44303D01*
X92819Y-44303D02*
X92831Y-44258D01*
X92831Y-44258D02*
X92856Y-44218D01*
X92856Y-44218D02*
X92889Y-44182D01*
X92889Y-44182D02*
X92921Y-44146D01*
X92921Y-44146D02*
X92936Y-44103D01*
X92936Y-44103D02*
X92929Y-44062D01*
X92929Y-44062D02*
X92906Y-44026D01*
X92906Y-44026D02*
X92863Y-44009D01*
X92863Y-44009D02*
X92819Y-44005D01*
X92819Y-44005D02*
X92774Y-43999D01*
X92774Y-43999D02*
X92729Y-43988D01*
X92729Y-43988D02*
X92688Y-43970D01*
X92688Y-43970D02*
X92655Y-43943D01*
X92655Y-43943D02*
X92630Y-43904D01*
X92630Y-43904D02*
X92617Y-43861D01*
X92617Y-43861D02*
X92611Y-43818D01*
X92611Y-43818D02*
X92610Y-43774D01*
X92610Y-43774D02*
X92612Y-43728D01*
X92612Y-43728D02*
X92614Y-43681D01*
X92614Y-43681D02*
X92615Y-43632D01*
X92615Y-43632D02*
X92622Y-43585D01*
X92622Y-43585D02*
X92646Y-43546D01*
X92646Y-43546D02*
X92680Y-43514D01*
X92680Y-43514D02*
X92723Y-43493D01*
X92723Y-43493D02*
X92769Y-43482D01*
X92769Y-43482D02*
X92818Y-43480D01*
X92818Y-43480D02*
X92867Y-43476D01*
X92867Y-43476D02*
X92907Y-43456D01*
X92907Y-43456D02*
X92929Y-43428D01*
X92929Y-43428D02*
X92941Y-43393D01*
X92941Y-43393D02*
X92929Y-43358D01*
X92929Y-43358D02*
X92899Y-43322D01*
X92899Y-43322D02*
X92869Y-43284D01*
X92869Y-43284D02*
X92842Y-43244D01*
X92842Y-43244D02*
X92824Y-43201D01*
X92824Y-43201D02*
X92816Y-43155D01*
X92816Y-43155D02*
X92824Y-43108D01*
X92824Y-43108D02*
X92844Y-43066D01*
X92844Y-43066D02*
X92873Y-43026D01*
X92873Y-43026D02*
X92906Y-42990D01*
X92906Y-42990D02*
X92941Y-42958D01*
X92941Y-42958D02*
X92974Y-42929D01*
X92974Y-42929D02*
X93001Y-42904D01*
X93001Y-42904D02*
X93040Y-42876D01*
X93040Y-42876D02*
X93085Y-42863D01*
X93085Y-42863D02*
X93132Y-42863D01*
X93132Y-42863D02*
X93179Y-42876D01*
X93179Y-42876D02*
X93220Y-42901D01*
X93220Y-42901D02*
X93258Y-42937D01*
X93258Y-42937D02*
X93298Y-42970D01*
X93298Y-42970D02*
X93343Y-42985D01*
X93343Y-42985D02*
X93375Y-42981D01*
X93375Y-42981D02*
X93405Y-42967D01*
X93405Y-42967D02*
X93420Y-42937D01*
X93420Y-42937D02*
X93423Y-42895D01*
X93423Y-42895D02*
X93427Y-42850D01*
X93427Y-42850D02*
X93433Y-42804D01*
X93433Y-42804D02*
X93443Y-42761D01*
X93443Y-42761D02*
X93460Y-42723D01*
X93460Y-42723D02*
X93486Y-42693D01*
X93486Y-42693D02*
X93523Y-42674D01*
X93523Y-42674D02*
X93581Y-42660D01*
X93581Y-42660D02*
X93631Y-42653D01*
X93631Y-42653D02*
X93679Y-42651D01*
X93679Y-42651D02*
X93726Y-42653D01*
X93726Y-42653D02*
X93777Y-42659D01*
X93777Y-42659D02*
X93777Y-42659D01*
G54D11*
G36*
X103171Y-42480D02*
X101228Y-42480D01*
X101192Y-42481D01*
X101157Y-42486D01*
X101123Y-42494D01*
X101090Y-42506D01*
X101058Y-42520D01*
X101029Y-42536D01*
X101001Y-42556D01*
X100975Y-42577D01*
X100951Y-42601D01*
X100929Y-42627D01*
X100910Y-42655D01*
X100893Y-42685D01*
X100879Y-42716D01*
X100868Y-42749D01*
X100860Y-42783D01*
X100855Y-42818D01*
X100853Y-42855D01*
X100853Y-44444D01*
X100855Y-44481D01*
X100860Y-44516D01*
X100868Y-44550D01*
X100879Y-44583D01*
X100893Y-44614D01*
X100910Y-44644D01*
X100929Y-44672D01*
X100951Y-44698D01*
X100975Y-44722D01*
X101001Y-44743D01*
X101029Y-44763D01*
X101058Y-44779D01*
X101090Y-44793D01*
X101123Y-44805D01*
X101157Y-44813D01*
X101192Y-44818D01*
X101228Y-44820D01*
X103171Y-44820D01*
X103207Y-44818D01*
X103242Y-44813D01*
X103276Y-44805D01*
X103309Y-44793D01*
X103341Y-44779D01*
X103370Y-44763D01*
X103398Y-44743D01*
X103424Y-44722D01*
X103448Y-44698D01*
X103470Y-44672D01*
X103489Y-44644D01*
X103506Y-44614D01*
X103520Y-44583D01*
X103531Y-44550D01*
X103539Y-44516D01*
X103544Y-44481D01*
X103546Y-44444D01*
X103546Y-42855D01*
X103544Y-42818D01*
X103539Y-42783D01*
X103531Y-42749D01*
X103520Y-42716D01*
X103506Y-42685D01*
X103489Y-42655D01*
X103470Y-42627D01*
X103448Y-42601D01*
X103424Y-42577D01*
X103398Y-42556D01*
X103370Y-42536D01*
X103341Y-42520D01*
X103309Y-42506D01*
X103276Y-42494D01*
X103242Y-42486D01*
X103207Y-42481D01*
X103171Y-42480D01*
X103171Y-42480D01*
G37*
G54D13*
X102700Y-46750D03*
G54D14*
X96000Y-44500D03*
X100000Y-44500D03*
G54D15*
X98000Y-41300D03*
G54D16*
X96000Y-41300D03*
X92300Y-45250D03*
G54D15*
X92300Y-42250D03*
G54D16*
X95500Y-46500D03*
G54D15*
X100100Y-41300D03*
X103700Y-42250D03*
G54D16*
X103700Y-45250D03*
G54D17*
X99500Y-45500D03*
X96500Y-45500D03*
G54D15*
X96500Y-46500D03*
G54D16*
X99500Y-46500D03*
G54D18*
X97625Y-46450D03*
X98375Y-46450D03*
X97625Y-44700D03*
X98375Y-44700D03*
G54D19*
X97500Y-45500D03*
X98500Y-45500D03*
G54D15*
X100500Y-46500D03*
G54D13*
X93300Y-46750D03*
G54D16*
X101250Y-41300D03*
G54D20*
X99000Y-41500D02*
X98984Y-41728D01*
G54D21*
X97015Y-41925D03*
X96500Y-42500D03*
G54D13*
X98000Y-43500D03*
G54D22*
X96000Y-43500D03*
X100000Y-43500D03*
M02*
