G04 (created by PCBNEW (2013-may-18)-stable) date Wed 16 Sep 2015 11:08:44 PM EDT*
%MOIN*%
G04 Gerber Fmt 3.4, Leading zero omitted, Abs format*
%FSLAX34Y34*%
G01*
G70*
G90*
G04 APERTURE LIST*
%ADD10C,0.00590551*%
%ADD11C,0.0001*%
%ADD12C,0.065*%
%ADD13C,0.0590551*%
%ADD14R,0.0590551X0.0590551*%
%ADD15C,0.055*%
%ADD16R,0.035X0.055*%
%ADD17C,0.066*%
%ADD18C,0.09*%
%ADD19C,0.09*%
%ADD20C,0.035*%
%ADD21C,0.01*%
G04 APERTURE END LIST*
G54D10*
G54D11*
G36*
X102555Y-43921D02*
X102552Y-43926D01*
X102548Y-43933D01*
X102543Y-43939D01*
X102537Y-43944D01*
X102530Y-43948D01*
X102529Y-43949D01*
X102528Y-43950D01*
X102526Y-43951D01*
X102525Y-43951D01*
X102524Y-43952D01*
X102522Y-43953D01*
X102521Y-43953D01*
X102519Y-43954D01*
X102517Y-43954D01*
X102515Y-43954D01*
X102512Y-43955D01*
X102509Y-43955D01*
X102504Y-43955D01*
X102500Y-43956D01*
X102494Y-43956D01*
X102487Y-43956D01*
X102479Y-43956D01*
X102471Y-43956D01*
X102461Y-43956D01*
X102449Y-43957D01*
X102443Y-43957D01*
X102443Y-43831D01*
X102443Y-43500D01*
X102443Y-43170D01*
X102325Y-43171D01*
X102305Y-43171D01*
X102288Y-43171D01*
X102273Y-43171D01*
X102259Y-43171D01*
X102247Y-43171D01*
X102237Y-43171D01*
X102228Y-43171D01*
X102220Y-43172D01*
X102213Y-43172D01*
X102208Y-43172D01*
X102203Y-43172D01*
X102199Y-43173D01*
X102195Y-43173D01*
X102191Y-43174D01*
X102188Y-43175D01*
X102185Y-43176D01*
X102182Y-43177D01*
X102179Y-43178D01*
X102175Y-43179D01*
X102174Y-43179D01*
X102156Y-43186D01*
X102139Y-43195D01*
X102124Y-43206D01*
X102110Y-43218D01*
X102097Y-43232D01*
X102086Y-43247D01*
X102077Y-43263D01*
X102069Y-43281D01*
X102064Y-43298D01*
X102063Y-43300D01*
X102063Y-43303D01*
X102062Y-43305D01*
X102062Y-43308D01*
X102061Y-43310D01*
X102061Y-43313D01*
X102061Y-43317D01*
X102060Y-43320D01*
X102060Y-43325D01*
X102060Y-43330D01*
X102060Y-43336D01*
X102059Y-43342D01*
X102059Y-43350D01*
X102059Y-43359D01*
X102059Y-43370D01*
X102059Y-43381D01*
X102059Y-43395D01*
X102059Y-43409D01*
X102059Y-43426D01*
X102059Y-43444D01*
X102059Y-43464D01*
X102059Y-43487D01*
X102059Y-43500D01*
X102059Y-43524D01*
X102059Y-43545D01*
X102059Y-43565D01*
X102059Y-43582D01*
X102059Y-43598D01*
X102059Y-43612D01*
X102059Y-43625D01*
X102059Y-43636D01*
X102059Y-43646D01*
X102059Y-43654D01*
X102060Y-43662D01*
X102060Y-43668D01*
X102060Y-43674D01*
X102060Y-43678D01*
X102060Y-43682D01*
X102061Y-43686D01*
X102061Y-43689D01*
X102062Y-43692D01*
X102062Y-43694D01*
X102063Y-43697D01*
X102063Y-43699D01*
X102064Y-43702D01*
X102064Y-43703D01*
X102070Y-43722D01*
X102077Y-43739D01*
X102087Y-43756D01*
X102098Y-43771D01*
X102111Y-43784D01*
X102126Y-43797D01*
X102142Y-43808D01*
X102154Y-43814D01*
X102163Y-43818D01*
X102175Y-43822D01*
X102187Y-43825D01*
X102199Y-43828D01*
X102211Y-43830D01*
X102212Y-43830D01*
X102213Y-43830D01*
X102217Y-43830D01*
X102223Y-43830D01*
X102230Y-43830D01*
X102239Y-43830D01*
X102249Y-43830D01*
X102261Y-43830D01*
X102274Y-43830D01*
X102288Y-43830D01*
X102303Y-43830D01*
X102318Y-43830D01*
X102329Y-43830D01*
X102443Y-43831D01*
X102443Y-43957D01*
X102437Y-43957D01*
X102423Y-43957D01*
X102407Y-43957D01*
X102390Y-43957D01*
X102371Y-43957D01*
X102350Y-43957D01*
X102327Y-43957D01*
X102303Y-43957D01*
X102276Y-43957D01*
X102256Y-43957D01*
X102233Y-43957D01*
X102210Y-43957D01*
X102187Y-43957D01*
X102166Y-43957D01*
X102145Y-43957D01*
X102125Y-43957D01*
X102107Y-43957D01*
X102089Y-43957D01*
X102073Y-43957D01*
X102058Y-43957D01*
X102045Y-43957D01*
X102033Y-43957D01*
X102023Y-43957D01*
X102014Y-43957D01*
X102008Y-43957D01*
X102003Y-43957D01*
X102001Y-43957D01*
X102001Y-43957D01*
X101990Y-43955D01*
X101979Y-43951D01*
X101969Y-43946D01*
X101961Y-43940D01*
X101955Y-43933D01*
X101952Y-43928D01*
X101949Y-43922D01*
X101949Y-43502D01*
X101948Y-43467D01*
X101948Y-43432D01*
X101948Y-43400D01*
X101948Y-43370D01*
X101948Y-43342D01*
X101948Y-43315D01*
X101948Y-43291D01*
X101948Y-43268D01*
X101948Y-43247D01*
X101948Y-43227D01*
X101948Y-43209D01*
X101948Y-43193D01*
X101948Y-43178D01*
X101948Y-43164D01*
X101949Y-43152D01*
X101949Y-43141D01*
X101949Y-43131D01*
X101949Y-43122D01*
X101949Y-43114D01*
X101949Y-43108D01*
X101949Y-43102D01*
X101949Y-43097D01*
X101949Y-43092D01*
X101949Y-43089D01*
X101949Y-43086D01*
X101949Y-43083D01*
X101949Y-43081D01*
X101950Y-43080D01*
X101950Y-43079D01*
X101950Y-43078D01*
X101950Y-43078D01*
X101954Y-43070D01*
X101959Y-43063D01*
X101967Y-43057D01*
X101975Y-43051D01*
X101986Y-43047D01*
X101992Y-43046D01*
X101993Y-43046D01*
X101997Y-43045D01*
X102002Y-43045D01*
X102010Y-43045D01*
X102020Y-43045D01*
X102031Y-43045D01*
X102044Y-43045D01*
X102058Y-43045D01*
X102073Y-43045D01*
X102089Y-43045D01*
X102107Y-43044D01*
X102125Y-43044D01*
X102144Y-43044D01*
X102163Y-43044D01*
X102184Y-43044D01*
X102204Y-43044D01*
X102225Y-43044D01*
X102246Y-43044D01*
X102267Y-43044D01*
X102288Y-43044D01*
X102309Y-43044D01*
X102329Y-43044D01*
X102349Y-43044D01*
X102368Y-43044D01*
X102387Y-43044D01*
X102405Y-43045D01*
X102422Y-43045D01*
X102438Y-43045D01*
X102452Y-43045D01*
X102466Y-43045D01*
X102477Y-43045D01*
X102488Y-43045D01*
X102496Y-43045D01*
X102503Y-43045D01*
X102508Y-43046D01*
X102511Y-43046D01*
X102512Y-43046D01*
X102522Y-43049D01*
X102531Y-43053D01*
X102539Y-43059D01*
X102546Y-43065D01*
X102551Y-43073D01*
X102551Y-43074D01*
X102555Y-43080D01*
X102555Y-43500D01*
X102555Y-43921D01*
X102555Y-43921D01*
X102555Y-43921D01*
G37*
G36*
X101853Y-43210D02*
X101853Y-43216D01*
X101852Y-43223D01*
X101852Y-43228D01*
X101852Y-43232D01*
X101851Y-43235D01*
X101851Y-43237D01*
X101850Y-43240D01*
X101849Y-43241D01*
X101845Y-43248D01*
X101841Y-43252D01*
X101836Y-43256D01*
X101835Y-43256D01*
X101835Y-43257D01*
X101834Y-43257D01*
X101832Y-43258D01*
X101831Y-43258D01*
X101828Y-43258D01*
X101826Y-43258D01*
X101822Y-43259D01*
X101817Y-43259D01*
X101810Y-43259D01*
X101803Y-43259D01*
X101794Y-43259D01*
X101782Y-43259D01*
X101769Y-43259D01*
X101762Y-43259D01*
X101693Y-43259D01*
X101692Y-43533D01*
X101692Y-43807D01*
X101690Y-43812D01*
X101685Y-43819D01*
X101679Y-43825D01*
X101672Y-43830D01*
X101664Y-43832D01*
X101660Y-43832D01*
X101653Y-43833D01*
X101646Y-43833D01*
X101640Y-43833D01*
X101633Y-43832D01*
X101629Y-43832D01*
X101621Y-43829D01*
X101614Y-43825D01*
X101608Y-43819D01*
X101605Y-43814D01*
X101602Y-43809D01*
X101602Y-43534D01*
X101602Y-43259D01*
X101534Y-43259D01*
X101466Y-43259D01*
X101461Y-43255D01*
X101456Y-43251D01*
X101451Y-43245D01*
X101448Y-43239D01*
X101447Y-43237D01*
X101446Y-43233D01*
X101446Y-43228D01*
X101446Y-43221D01*
X101445Y-43213D01*
X101445Y-43193D01*
X101449Y-43186D01*
X101454Y-43179D01*
X101459Y-43173D01*
X101465Y-43170D01*
X101467Y-43169D01*
X101469Y-43169D01*
X101473Y-43169D01*
X101479Y-43169D01*
X101487Y-43169D01*
X101496Y-43169D01*
X101507Y-43169D01*
X101519Y-43169D01*
X101532Y-43168D01*
X101547Y-43168D01*
X101562Y-43168D01*
X101578Y-43168D01*
X101594Y-43168D01*
X101612Y-43168D01*
X101629Y-43168D01*
X101647Y-43168D01*
X101664Y-43168D01*
X101682Y-43168D01*
X101699Y-43168D01*
X101716Y-43168D01*
X101732Y-43168D01*
X101747Y-43168D01*
X101762Y-43168D01*
X101776Y-43169D01*
X101788Y-43169D01*
X101799Y-43169D01*
X101809Y-43169D01*
X101817Y-43169D01*
X101823Y-43169D01*
X101828Y-43169D01*
X101830Y-43169D01*
X101831Y-43170D01*
X101834Y-43171D01*
X101837Y-43172D01*
X101841Y-43175D01*
X101842Y-43177D01*
X101846Y-43180D01*
X101848Y-43184D01*
X101850Y-43188D01*
X101850Y-43190D01*
X101851Y-43194D01*
X101852Y-43197D01*
X101852Y-43200D01*
X101853Y-43204D01*
X101853Y-43210D01*
X101853Y-43210D01*
X101853Y-43210D01*
G37*
G36*
X102356Y-43523D02*
X102356Y-43549D01*
X102356Y-43576D01*
X102356Y-43601D01*
X102356Y-43625D01*
X102356Y-43647D01*
X102356Y-43668D01*
X102355Y-43674D01*
X102355Y-43745D01*
X102294Y-43745D01*
X102283Y-43745D01*
X102272Y-43745D01*
X102262Y-43745D01*
X102253Y-43745D01*
X102245Y-43744D01*
X102239Y-43744D01*
X102234Y-43744D01*
X102231Y-43744D01*
X102231Y-43744D01*
X102228Y-43743D01*
X102225Y-43742D01*
X102220Y-43740D01*
X102218Y-43740D01*
X102204Y-43734D01*
X102191Y-43727D01*
X102180Y-43718D01*
X102170Y-43707D01*
X102162Y-43695D01*
X102155Y-43682D01*
X102150Y-43668D01*
X102147Y-43657D01*
X102147Y-43655D01*
X102147Y-43652D01*
X102147Y-43646D01*
X102147Y-43639D01*
X102147Y-43631D01*
X102146Y-43620D01*
X102146Y-43608D01*
X102146Y-43593D01*
X102146Y-43577D01*
X102146Y-43559D01*
X102146Y-43538D01*
X102146Y-43516D01*
X102146Y-43497D01*
X102147Y-43342D01*
X102150Y-43332D01*
X102156Y-43317D01*
X102163Y-43304D01*
X102172Y-43292D01*
X102183Y-43281D01*
X102195Y-43272D01*
X102207Y-43266D01*
X102212Y-43264D01*
X102218Y-43261D01*
X102223Y-43260D01*
X102224Y-43260D01*
X102228Y-43258D01*
X102231Y-43257D01*
X102232Y-43257D01*
X102232Y-43257D01*
X102234Y-43257D01*
X102237Y-43257D01*
X102242Y-43256D01*
X102249Y-43256D01*
X102257Y-43256D01*
X102266Y-43256D01*
X102276Y-43256D01*
X102287Y-43256D01*
X102294Y-43256D01*
X102355Y-43256D01*
X102355Y-43327D01*
X102356Y-43347D01*
X102356Y-43369D01*
X102356Y-43393D01*
X102356Y-43417D01*
X102356Y-43443D01*
X102356Y-43470D01*
X102356Y-43497D01*
X102356Y-43523D01*
X102356Y-43523D01*
X102356Y-43523D01*
G37*
G54D12*
X96000Y-44500D03*
X100000Y-44500D03*
G54D13*
X98000Y-41300D03*
G54D14*
X96000Y-41300D03*
X92950Y-45250D03*
G54D13*
X92950Y-42250D03*
G54D14*
X95500Y-46500D03*
G54D13*
X100100Y-41300D03*
X103050Y-42250D03*
G54D14*
X103050Y-45250D03*
G54D15*
X99500Y-45500D03*
X96500Y-45500D03*
G54D13*
X96500Y-46500D03*
G54D14*
X99500Y-46500D03*
G54D16*
X97625Y-46450D03*
X98375Y-46450D03*
X97625Y-44700D03*
X98375Y-44700D03*
G54D17*
X97500Y-45500D03*
X98500Y-45500D03*
G54D18*
X99000Y-41500D02*
X98984Y-41728D01*
G54D19*
X97015Y-41925D03*
X96500Y-42500D03*
G54D13*
X100500Y-46500D03*
G54D14*
X101250Y-41300D03*
G54D20*
X100600Y-44000D03*
X98950Y-44600D03*
X96950Y-44000D03*
X99050Y-44000D03*
X97100Y-44600D03*
G54D21*
X100000Y-45300D02*
X100000Y-45100D01*
X100600Y-44000D02*
X100600Y-44300D01*
X100000Y-45300D02*
X100000Y-46000D01*
X99500Y-46500D02*
X100000Y-46000D01*
X100600Y-44700D02*
X100600Y-44300D01*
X100300Y-45000D02*
X100600Y-44700D01*
X100100Y-45000D02*
X100300Y-45000D01*
X100000Y-45100D02*
X100100Y-45000D01*
X98500Y-45500D02*
X99500Y-46500D01*
X98375Y-44700D02*
X98850Y-44700D01*
X98850Y-44700D02*
X98950Y-44600D01*
X96010Y-45260D02*
X96010Y-45110D01*
X96500Y-46490D02*
X96010Y-46000D01*
X96010Y-46000D02*
X96010Y-45260D01*
X96100Y-42500D02*
X95450Y-43150D01*
X95450Y-43150D02*
X95450Y-43300D01*
X95450Y-44700D02*
X95450Y-43300D01*
X96500Y-42500D02*
X96100Y-42500D01*
X95450Y-44850D02*
X95450Y-44700D01*
X95600Y-45000D02*
X95450Y-44850D01*
X95900Y-45000D02*
X95600Y-45000D01*
X96010Y-45110D02*
X95900Y-45000D01*
X98000Y-41300D02*
X97640Y-41300D01*
X97640Y-41300D02*
X97015Y-41925D01*
X96250Y-42500D02*
X96500Y-42500D01*
X103050Y-42250D02*
X100000Y-42250D01*
X100000Y-42250D02*
X99400Y-42850D01*
X99400Y-42850D02*
X99400Y-44000D01*
X97250Y-46000D02*
X96970Y-45720D01*
X98375Y-46375D02*
X98000Y-46000D01*
X98000Y-46000D02*
X97250Y-46000D01*
X96750Y-44200D02*
X96950Y-44000D01*
X96750Y-44850D02*
X96750Y-44200D01*
X98375Y-46375D02*
X98375Y-46450D01*
X96970Y-45070D02*
X96750Y-44850D01*
X96970Y-45720D02*
X96970Y-45070D01*
X99050Y-44000D02*
X99400Y-44000D01*
X99400Y-45400D02*
X99500Y-45500D01*
X99400Y-44000D02*
X99400Y-45400D01*
X97200Y-44700D02*
X97100Y-44600D01*
X97200Y-44700D02*
X97625Y-44700D01*
X97625Y-44700D02*
X97625Y-45375D01*
X97625Y-45375D02*
X97500Y-45500D01*
X97650Y-42350D02*
X98256Y-42350D01*
X96750Y-43600D02*
X96549Y-43800D01*
X96549Y-43800D02*
X96549Y-45450D01*
X96500Y-45500D02*
X96549Y-45450D01*
X97650Y-42350D02*
X96750Y-43250D01*
X96750Y-43250D02*
X96750Y-43600D01*
X98256Y-42350D02*
X98992Y-41614D01*
X96500Y-45500D02*
X96500Y-45650D01*
X97575Y-46500D02*
X97625Y-46450D01*
X97350Y-46500D02*
X97575Y-46500D01*
X96500Y-45650D02*
X97350Y-46500D01*
X96500Y-45500D02*
X96500Y-45474D01*
G54D10*
G36*
X96059Y-46830D02*
X96045Y-46830D01*
X96045Y-46816D01*
X96059Y-46830D01*
X96059Y-46830D01*
G37*
G54D21*
X96059Y-46830D02*
X96045Y-46830D01*
X96045Y-46816D01*
X96059Y-46830D01*
G54D10*
G36*
X96251Y-41845D02*
X96104Y-41906D01*
X95906Y-42102D01*
X95800Y-42360D01*
X95800Y-42375D01*
X95237Y-42937D01*
X95172Y-43035D01*
X95150Y-43150D01*
X95150Y-43300D01*
X95150Y-44700D01*
X95150Y-44850D01*
X95172Y-44964D01*
X95237Y-45062D01*
X95387Y-45212D01*
X95387Y-45212D01*
X95485Y-45277D01*
X95600Y-45300D01*
X95710Y-45300D01*
X95710Y-45954D01*
X95155Y-45954D01*
X95063Y-45992D01*
X94992Y-46062D01*
X94954Y-46154D01*
X94954Y-46254D01*
X94954Y-46844D01*
X94981Y-46908D01*
X94977Y-46910D01*
X94977Y-46910D01*
X94832Y-47007D01*
X94831Y-47007D01*
X94757Y-47082D01*
X94659Y-47228D01*
X94619Y-47325D01*
X94619Y-47326D01*
X94585Y-47496D01*
X94585Y-47497D01*
X94531Y-47769D01*
X94406Y-47957D01*
X94335Y-48004D01*
X94335Y-46545D01*
X94177Y-46164D01*
X93887Y-45873D01*
X93506Y-45715D01*
X93495Y-45715D01*
X93495Y-42142D01*
X93412Y-41941D01*
X93259Y-41788D01*
X93058Y-41704D01*
X92842Y-41704D01*
X92641Y-41787D01*
X92488Y-41940D01*
X92404Y-42141D01*
X92404Y-42357D01*
X92487Y-42558D01*
X92640Y-42711D01*
X92841Y-42795D01*
X93057Y-42795D01*
X93258Y-42712D01*
X93411Y-42559D01*
X93495Y-42358D01*
X93495Y-42142D01*
X93495Y-45715D01*
X93429Y-45715D01*
X93457Y-45687D01*
X93495Y-45595D01*
X93495Y-45495D01*
X93495Y-44905D01*
X93457Y-44813D01*
X93387Y-44742D01*
X93295Y-44704D01*
X93195Y-44704D01*
X92605Y-44704D01*
X92513Y-44742D01*
X92442Y-44812D01*
X92404Y-44904D01*
X92404Y-45004D01*
X92404Y-45594D01*
X92442Y-45686D01*
X92512Y-45757D01*
X92604Y-45795D01*
X92704Y-45795D01*
X92900Y-45795D01*
X92714Y-45872D01*
X92423Y-46162D01*
X92265Y-46543D01*
X92264Y-46954D01*
X92422Y-47335D01*
X92712Y-47626D01*
X93093Y-47784D01*
X93504Y-47785D01*
X93885Y-47627D01*
X94176Y-47337D01*
X94334Y-46956D01*
X94335Y-46545D01*
X94335Y-48004D01*
X94219Y-48081D01*
X93973Y-48130D01*
X92874Y-48130D01*
X92533Y-48062D01*
X92267Y-47883D01*
X92088Y-47616D01*
X92019Y-47273D01*
X92019Y-44215D01*
X92091Y-44186D01*
X92091Y-44185D01*
X92253Y-44078D01*
X92327Y-44003D01*
X92328Y-44002D01*
X92435Y-43841D01*
X92436Y-43840D01*
X92476Y-43743D01*
X92514Y-43552D01*
X92514Y-43552D01*
X92514Y-43552D01*
X92514Y-43552D01*
X92514Y-43500D01*
X92514Y-43447D01*
X92514Y-43447D01*
X92514Y-43447D01*
X92514Y-43447D01*
X92476Y-43256D01*
X92436Y-43159D01*
X92435Y-43158D01*
X92328Y-42997D01*
X92327Y-42996D01*
X92253Y-42921D01*
X92091Y-42814D01*
X92091Y-42813D01*
X92019Y-42784D01*
X92019Y-41311D01*
X92071Y-41290D01*
X92217Y-41192D01*
X92292Y-41118D01*
X92292Y-41117D01*
X92389Y-40972D01*
X92389Y-40972D01*
X92430Y-40875D01*
X92440Y-40825D01*
X92481Y-41030D01*
X92481Y-41031D01*
X92521Y-41129D01*
X92651Y-41324D01*
X92725Y-41398D01*
X92726Y-41398D01*
X92919Y-41527D01*
X92920Y-41528D01*
X93017Y-41568D01*
X93247Y-41614D01*
X93352Y-41614D01*
X93353Y-41614D01*
X93580Y-41568D01*
X93581Y-41568D01*
X93679Y-41528D01*
X93874Y-41398D01*
X93948Y-41324D01*
X93948Y-41323D01*
X94077Y-41130D01*
X94078Y-41129D01*
X94118Y-41032D01*
X94164Y-40802D01*
X94164Y-40775D01*
X94169Y-40750D01*
X94169Y-40469D01*
X94673Y-40469D01*
X94679Y-40470D01*
X94685Y-40502D01*
X94685Y-40502D01*
X94685Y-40502D01*
X94708Y-40617D01*
X94708Y-40617D01*
X94748Y-40714D01*
X94813Y-40811D01*
X94813Y-40811D01*
X94887Y-40886D01*
X94985Y-40951D01*
X95082Y-40991D01*
X95082Y-40991D01*
X95197Y-41014D01*
X95224Y-41014D01*
X95250Y-41019D01*
X95454Y-41019D01*
X95454Y-41054D01*
X95454Y-41644D01*
X95492Y-41736D01*
X95562Y-41807D01*
X95654Y-41845D01*
X95754Y-41845D01*
X96251Y-41845D01*
X96251Y-41845D01*
G37*
G54D21*
X96251Y-41845D02*
X96104Y-41906D01*
X95906Y-42102D01*
X95800Y-42360D01*
X95800Y-42375D01*
X95237Y-42937D01*
X95172Y-43035D01*
X95150Y-43150D01*
X95150Y-43300D01*
X95150Y-44700D01*
X95150Y-44850D01*
X95172Y-44964D01*
X95237Y-45062D01*
X95387Y-45212D01*
X95387Y-45212D01*
X95485Y-45277D01*
X95600Y-45300D01*
X95710Y-45300D01*
X95710Y-45954D01*
X95155Y-45954D01*
X95063Y-45992D01*
X94992Y-46062D01*
X94954Y-46154D01*
X94954Y-46254D01*
X94954Y-46844D01*
X94981Y-46908D01*
X94977Y-46910D01*
X94977Y-46910D01*
X94832Y-47007D01*
X94831Y-47007D01*
X94757Y-47082D01*
X94659Y-47228D01*
X94619Y-47325D01*
X94619Y-47326D01*
X94585Y-47496D01*
X94585Y-47497D01*
X94531Y-47769D01*
X94406Y-47957D01*
X94335Y-48004D01*
X94335Y-46545D01*
X94177Y-46164D01*
X93887Y-45873D01*
X93506Y-45715D01*
X93495Y-45715D01*
X93495Y-42142D01*
X93412Y-41941D01*
X93259Y-41788D01*
X93058Y-41704D01*
X92842Y-41704D01*
X92641Y-41787D01*
X92488Y-41940D01*
X92404Y-42141D01*
X92404Y-42357D01*
X92487Y-42558D01*
X92640Y-42711D01*
X92841Y-42795D01*
X93057Y-42795D01*
X93258Y-42712D01*
X93411Y-42559D01*
X93495Y-42358D01*
X93495Y-42142D01*
X93495Y-45715D01*
X93429Y-45715D01*
X93457Y-45687D01*
X93495Y-45595D01*
X93495Y-45495D01*
X93495Y-44905D01*
X93457Y-44813D01*
X93387Y-44742D01*
X93295Y-44704D01*
X93195Y-44704D01*
X92605Y-44704D01*
X92513Y-44742D01*
X92442Y-44812D01*
X92404Y-44904D01*
X92404Y-45004D01*
X92404Y-45594D01*
X92442Y-45686D01*
X92512Y-45757D01*
X92604Y-45795D01*
X92704Y-45795D01*
X92900Y-45795D01*
X92714Y-45872D01*
X92423Y-46162D01*
X92265Y-46543D01*
X92264Y-46954D01*
X92422Y-47335D01*
X92712Y-47626D01*
X93093Y-47784D01*
X93504Y-47785D01*
X93885Y-47627D01*
X94176Y-47337D01*
X94334Y-46956D01*
X94335Y-46545D01*
X94335Y-48004D01*
X94219Y-48081D01*
X93973Y-48130D01*
X92874Y-48130D01*
X92533Y-48062D01*
X92267Y-47883D01*
X92088Y-47616D01*
X92019Y-47273D01*
X92019Y-44215D01*
X92091Y-44186D01*
X92091Y-44185D01*
X92253Y-44078D01*
X92327Y-44003D01*
X92328Y-44002D01*
X92435Y-43841D01*
X92436Y-43840D01*
X92476Y-43743D01*
X92514Y-43552D01*
X92514Y-43552D01*
X92514Y-43552D01*
X92514Y-43552D01*
X92514Y-43500D01*
X92514Y-43447D01*
X92514Y-43447D01*
X92514Y-43447D01*
X92514Y-43447D01*
X92476Y-43256D01*
X92436Y-43159D01*
X92435Y-43158D01*
X92328Y-42997D01*
X92327Y-42996D01*
X92253Y-42921D01*
X92091Y-42814D01*
X92091Y-42813D01*
X92019Y-42784D01*
X92019Y-41311D01*
X92071Y-41290D01*
X92217Y-41192D01*
X92292Y-41118D01*
X92292Y-41117D01*
X92389Y-40972D01*
X92389Y-40972D01*
X92430Y-40875D01*
X92440Y-40825D01*
X92481Y-41030D01*
X92481Y-41031D01*
X92521Y-41129D01*
X92651Y-41324D01*
X92725Y-41398D01*
X92726Y-41398D01*
X92919Y-41527D01*
X92920Y-41528D01*
X93017Y-41568D01*
X93247Y-41614D01*
X93352Y-41614D01*
X93353Y-41614D01*
X93580Y-41568D01*
X93581Y-41568D01*
X93679Y-41528D01*
X93874Y-41398D01*
X93948Y-41324D01*
X93948Y-41323D01*
X94077Y-41130D01*
X94078Y-41129D01*
X94118Y-41032D01*
X94164Y-40802D01*
X94164Y-40775D01*
X94169Y-40750D01*
X94169Y-40469D01*
X94673Y-40469D01*
X94679Y-40470D01*
X94685Y-40502D01*
X94685Y-40502D01*
X94685Y-40502D01*
X94708Y-40617D01*
X94708Y-40617D01*
X94748Y-40714D01*
X94813Y-40811D01*
X94813Y-40811D01*
X94887Y-40886D01*
X94985Y-40951D01*
X95082Y-40991D01*
X95082Y-40991D01*
X95197Y-41014D01*
X95224Y-41014D01*
X95250Y-41019D01*
X95454Y-41019D01*
X95454Y-41054D01*
X95454Y-41644D01*
X95492Y-41736D01*
X95562Y-41807D01*
X95654Y-41845D01*
X95754Y-41845D01*
X96251Y-41845D01*
G54D10*
G36*
X97223Y-46830D02*
X96940Y-46830D01*
X96961Y-46809D01*
X97042Y-46616D01*
X97137Y-46712D01*
X97199Y-46753D01*
X97199Y-46774D01*
X97223Y-46830D01*
X97223Y-46830D01*
G37*
G54D21*
X97223Y-46830D02*
X96940Y-46830D01*
X96961Y-46809D01*
X97042Y-46616D01*
X97137Y-46712D01*
X97199Y-46753D01*
X97199Y-46774D01*
X97223Y-46830D01*
G54D10*
G36*
X97525Y-41019D02*
X97524Y-41024D01*
X97428Y-41087D01*
X97251Y-41265D01*
X97155Y-41225D01*
X96877Y-41225D01*
X96619Y-41331D01*
X96545Y-41405D01*
X96545Y-41019D01*
X97525Y-41019D01*
X97525Y-41019D01*
G37*
G54D21*
X97525Y-41019D02*
X97524Y-41024D01*
X97428Y-41087D01*
X97251Y-41265D01*
X97155Y-41225D01*
X96877Y-41225D01*
X96619Y-41331D01*
X96545Y-41405D01*
X96545Y-41019D01*
X97525Y-41019D01*
G54D10*
G36*
X98025Y-45154D02*
X98008Y-45171D01*
X98000Y-45191D01*
X97991Y-45171D01*
X97974Y-45154D01*
X98000Y-45128D01*
X98025Y-45154D01*
X98025Y-45154D01*
G37*
G54D21*
X98025Y-45154D02*
X98008Y-45171D01*
X98000Y-45191D01*
X97991Y-45171D01*
X97974Y-45154D01*
X98000Y-45128D01*
X98025Y-45154D01*
G54D10*
G36*
X98307Y-41874D02*
X98132Y-42050D01*
X97715Y-42050D01*
X97715Y-41786D01*
X97708Y-41769D01*
X97891Y-41845D01*
X98107Y-41845D01*
X98294Y-41768D01*
X98307Y-41874D01*
X98307Y-41874D01*
G37*
G54D21*
X98307Y-41874D02*
X98132Y-42050D01*
X97715Y-42050D01*
X97715Y-41786D01*
X97708Y-41769D01*
X97891Y-41845D01*
X98107Y-41845D01*
X98294Y-41768D01*
X98307Y-41874D01*
G54D10*
G36*
X98492Y-41019D02*
X98480Y-41035D01*
X98474Y-41019D01*
X98492Y-41019D01*
X98492Y-41019D01*
G37*
G54D21*
X98492Y-41019D02*
X98480Y-41035D01*
X98474Y-41019D01*
X98492Y-41019D01*
G54D10*
G36*
X98954Y-46830D02*
X98776Y-46830D01*
X98799Y-46774D01*
X98800Y-46675D01*
X98800Y-46224D01*
X98954Y-46378D01*
X98954Y-46830D01*
X98954Y-46830D01*
G37*
G54D21*
X98954Y-46830D02*
X98776Y-46830D01*
X98799Y-46774D01*
X98800Y-46675D01*
X98800Y-46224D01*
X98954Y-46378D01*
X98954Y-46830D01*
G54D10*
G36*
X99100Y-45157D02*
X99055Y-45202D01*
X99029Y-45263D01*
X98991Y-45171D01*
X98831Y-45010D01*
X98865Y-45024D01*
X99034Y-45025D01*
X99100Y-44997D01*
X99100Y-45157D01*
X99100Y-45157D01*
G37*
G54D21*
X99100Y-45157D02*
X99055Y-45202D01*
X99029Y-45263D01*
X98991Y-45171D01*
X98831Y-45010D01*
X98865Y-45024D01*
X99034Y-45025D01*
X99100Y-44997D01*
X99100Y-45157D01*
G54D10*
G36*
X99625Y-41019D02*
X99584Y-41120D01*
X99529Y-41024D01*
X99522Y-41019D01*
X99625Y-41019D01*
X99625Y-41019D01*
G37*
G54D21*
X99625Y-41019D02*
X99584Y-41120D01*
X99529Y-41024D01*
X99522Y-41019D01*
X99625Y-41019D01*
G54D10*
G36*
X99718Y-45005D02*
X99715Y-45021D01*
X99700Y-45014D01*
X99700Y-44998D01*
X99718Y-45005D01*
X99718Y-45005D01*
G37*
G54D21*
X99718Y-45005D02*
X99715Y-45021D01*
X99700Y-45014D01*
X99700Y-44998D01*
X99718Y-45005D01*
G54D10*
G36*
X100059Y-46830D02*
X100045Y-46830D01*
X100045Y-46816D01*
X100059Y-46830D01*
X100059Y-46830D01*
G37*
G54D21*
X100059Y-46830D02*
X100045Y-46830D01*
X100045Y-46816D01*
X100059Y-46830D01*
G54D10*
G36*
X103980Y-47275D02*
X103912Y-47616D01*
X103735Y-47880D01*
X103735Y-46545D01*
X103577Y-46164D01*
X103287Y-45873D01*
X103099Y-45795D01*
X103394Y-45795D01*
X103486Y-45757D01*
X103557Y-45687D01*
X103595Y-45595D01*
X103595Y-45495D01*
X103595Y-44905D01*
X103557Y-44813D01*
X103487Y-44742D01*
X103395Y-44704D01*
X103295Y-44704D01*
X102800Y-44704D01*
X102800Y-44200D01*
X102800Y-42800D01*
X101200Y-42800D01*
X101200Y-44200D01*
X102800Y-44200D01*
X102800Y-44704D01*
X102705Y-44704D01*
X102613Y-44742D01*
X102542Y-44812D01*
X102504Y-44904D01*
X102504Y-45004D01*
X102504Y-45594D01*
X102542Y-45686D01*
X102570Y-45714D01*
X102495Y-45714D01*
X102114Y-45872D01*
X101823Y-46162D01*
X101665Y-46543D01*
X101664Y-46954D01*
X101822Y-47335D01*
X102112Y-47626D01*
X102493Y-47784D01*
X102904Y-47785D01*
X103285Y-47627D01*
X103576Y-47337D01*
X103734Y-46956D01*
X103735Y-46545D01*
X103735Y-47880D01*
X103733Y-47882D01*
X103466Y-48061D01*
X103123Y-48130D01*
X101975Y-48130D01*
X101749Y-48085D01*
X101578Y-47970D01*
X101465Y-47801D01*
X101414Y-47547D01*
X101414Y-47546D01*
X101376Y-47356D01*
X101336Y-47259D01*
X101335Y-47258D01*
X101228Y-47097D01*
X101227Y-47096D01*
X101153Y-47021D01*
X100991Y-46914D01*
X100991Y-46913D01*
X100896Y-46874D01*
X100961Y-46809D01*
X101045Y-46608D01*
X101045Y-46392D01*
X100962Y-46191D01*
X100809Y-46038D01*
X100608Y-45954D01*
X100392Y-45954D01*
X100300Y-45992D01*
X100300Y-45300D01*
X100300Y-45299D01*
X100414Y-45277D01*
X100414Y-45277D01*
X100512Y-45212D01*
X100812Y-44912D01*
X100812Y-44912D01*
X100877Y-44814D01*
X100899Y-44700D01*
X100900Y-44700D01*
X100900Y-44301D01*
X100960Y-44241D01*
X101024Y-44084D01*
X101025Y-43915D01*
X100960Y-43759D01*
X100841Y-43639D01*
X100684Y-43575D01*
X100588Y-43574D01*
X100585Y-43487D01*
X100585Y-43384D01*
X100579Y-43371D01*
X100579Y-43357D01*
X100510Y-43191D01*
X100504Y-43189D01*
X100496Y-43169D01*
X100331Y-43004D01*
X100310Y-42995D01*
X100308Y-42989D01*
X100212Y-42954D01*
X100116Y-42915D01*
X100103Y-42915D01*
X100090Y-42910D01*
X99987Y-42914D01*
X99884Y-42914D01*
X99871Y-42920D01*
X99857Y-42920D01*
X99700Y-42986D01*
X99700Y-42974D01*
X100124Y-42550D01*
X102583Y-42550D01*
X102587Y-42558D01*
X102740Y-42711D01*
X102941Y-42795D01*
X103157Y-42795D01*
X103358Y-42712D01*
X103511Y-42559D01*
X103595Y-42358D01*
X103595Y-42142D01*
X103512Y-41941D01*
X103359Y-41788D01*
X103158Y-41704D01*
X102942Y-41704D01*
X102741Y-41787D01*
X102588Y-41940D01*
X102584Y-41950D01*
X100000Y-41950D01*
X99885Y-41972D01*
X99787Y-42037D01*
X99187Y-42637D01*
X99122Y-42735D01*
X99100Y-42850D01*
X99100Y-43575D01*
X99035Y-43574D01*
X99035Y-43496D01*
X99035Y-43295D01*
X99033Y-43290D01*
X99033Y-43285D01*
X98882Y-42920D01*
X98880Y-42919D01*
X98877Y-42914D01*
X98587Y-42623D01*
X98580Y-42620D01*
X98579Y-42617D01*
X98458Y-42568D01*
X98468Y-42562D01*
X98664Y-42365D01*
X98670Y-42370D01*
X98934Y-42442D01*
X99205Y-42408D01*
X99442Y-42272D01*
X99609Y-42056D01*
X99681Y-41793D01*
X99690Y-41661D01*
X99790Y-41761D01*
X99991Y-41845D01*
X100207Y-41845D01*
X100408Y-41762D01*
X100561Y-41609D01*
X100645Y-41408D01*
X100645Y-41192D01*
X100574Y-41019D01*
X100704Y-41019D01*
X100704Y-41054D01*
X100704Y-41644D01*
X100742Y-41736D01*
X100812Y-41807D01*
X100904Y-41845D01*
X101004Y-41845D01*
X101594Y-41845D01*
X101686Y-41807D01*
X101757Y-41737D01*
X101795Y-41645D01*
X101795Y-41545D01*
X101795Y-40955D01*
X101757Y-40863D01*
X101687Y-40792D01*
X101595Y-40754D01*
X101495Y-40754D01*
X101224Y-40754D01*
X101251Y-40714D01*
X101291Y-40617D01*
X101291Y-40617D01*
X101314Y-40502D01*
X101314Y-40502D01*
X101320Y-40470D01*
X101326Y-40469D01*
X101830Y-40469D01*
X101830Y-40750D01*
X101835Y-40776D01*
X101835Y-40802D01*
X101881Y-41030D01*
X101881Y-41031D01*
X101921Y-41129D01*
X102051Y-41324D01*
X102125Y-41398D01*
X102126Y-41398D01*
X102319Y-41527D01*
X102320Y-41528D01*
X102417Y-41568D01*
X102647Y-41614D01*
X102752Y-41614D01*
X102753Y-41614D01*
X102980Y-41568D01*
X102981Y-41568D01*
X103079Y-41528D01*
X103274Y-41398D01*
X103348Y-41324D01*
X103348Y-41323D01*
X103477Y-41130D01*
X103478Y-41129D01*
X103518Y-41032D01*
X103555Y-40850D01*
X103569Y-40923D01*
X103569Y-40924D01*
X103609Y-41021D01*
X103707Y-41167D01*
X103781Y-41242D01*
X103782Y-41242D01*
X103927Y-41339D01*
X103927Y-41339D01*
X103980Y-41361D01*
X103980Y-42784D01*
X103909Y-42813D01*
X103908Y-42814D01*
X103747Y-42921D01*
X103746Y-42922D01*
X103671Y-42996D01*
X103564Y-43158D01*
X103563Y-43158D01*
X103523Y-43256D01*
X103485Y-43447D01*
X103485Y-43500D01*
X103485Y-43552D01*
X103523Y-43743D01*
X103563Y-43841D01*
X103564Y-43841D01*
X103671Y-44003D01*
X103746Y-44077D01*
X103747Y-44078D01*
X103908Y-44185D01*
X103909Y-44186D01*
X103980Y-44215D01*
X103980Y-47275D01*
X103980Y-47275D01*
G37*
G54D21*
X103980Y-47275D02*
X103912Y-47616D01*
X103735Y-47880D01*
X103735Y-46545D01*
X103577Y-46164D01*
X103287Y-45873D01*
X103099Y-45795D01*
X103394Y-45795D01*
X103486Y-45757D01*
X103557Y-45687D01*
X103595Y-45595D01*
X103595Y-45495D01*
X103595Y-44905D01*
X103557Y-44813D01*
X103487Y-44742D01*
X103395Y-44704D01*
X103295Y-44704D01*
X102800Y-44704D01*
X102800Y-44200D01*
X102800Y-42800D01*
X101200Y-42800D01*
X101200Y-44200D01*
X102800Y-44200D01*
X102800Y-44704D01*
X102705Y-44704D01*
X102613Y-44742D01*
X102542Y-44812D01*
X102504Y-44904D01*
X102504Y-45004D01*
X102504Y-45594D01*
X102542Y-45686D01*
X102570Y-45714D01*
X102495Y-45714D01*
X102114Y-45872D01*
X101823Y-46162D01*
X101665Y-46543D01*
X101664Y-46954D01*
X101822Y-47335D01*
X102112Y-47626D01*
X102493Y-47784D01*
X102904Y-47785D01*
X103285Y-47627D01*
X103576Y-47337D01*
X103734Y-46956D01*
X103735Y-46545D01*
X103735Y-47880D01*
X103733Y-47882D01*
X103466Y-48061D01*
X103123Y-48130D01*
X101975Y-48130D01*
X101749Y-48085D01*
X101578Y-47970D01*
X101465Y-47801D01*
X101414Y-47547D01*
X101414Y-47546D01*
X101376Y-47356D01*
X101336Y-47259D01*
X101335Y-47258D01*
X101228Y-47097D01*
X101227Y-47096D01*
X101153Y-47021D01*
X100991Y-46914D01*
X100991Y-46913D01*
X100896Y-46874D01*
X100961Y-46809D01*
X101045Y-46608D01*
X101045Y-46392D01*
X100962Y-46191D01*
X100809Y-46038D01*
X100608Y-45954D01*
X100392Y-45954D01*
X100300Y-45992D01*
X100300Y-45300D01*
X100300Y-45299D01*
X100414Y-45277D01*
X100414Y-45277D01*
X100512Y-45212D01*
X100812Y-44912D01*
X100812Y-44912D01*
X100877Y-44814D01*
X100899Y-44700D01*
X100900Y-44700D01*
X100900Y-44301D01*
X100960Y-44241D01*
X101024Y-44084D01*
X101025Y-43915D01*
X100960Y-43759D01*
X100841Y-43639D01*
X100684Y-43575D01*
X100588Y-43574D01*
X100585Y-43487D01*
X100585Y-43384D01*
X100579Y-43371D01*
X100579Y-43357D01*
X100510Y-43191D01*
X100504Y-43189D01*
X100496Y-43169D01*
X100331Y-43004D01*
X100310Y-42995D01*
X100308Y-42989D01*
X100212Y-42954D01*
X100116Y-42915D01*
X100103Y-42915D01*
X100090Y-42910D01*
X99987Y-42914D01*
X99884Y-42914D01*
X99871Y-42920D01*
X99857Y-42920D01*
X99700Y-42986D01*
X99700Y-42974D01*
X100124Y-42550D01*
X102583Y-42550D01*
X102587Y-42558D01*
X102740Y-42711D01*
X102941Y-42795D01*
X103157Y-42795D01*
X103358Y-42712D01*
X103511Y-42559D01*
X103595Y-42358D01*
X103595Y-42142D01*
X103512Y-41941D01*
X103359Y-41788D01*
X103158Y-41704D01*
X102942Y-41704D01*
X102741Y-41787D01*
X102588Y-41940D01*
X102584Y-41950D01*
X100000Y-41950D01*
X99885Y-41972D01*
X99787Y-42037D01*
X99187Y-42637D01*
X99122Y-42735D01*
X99100Y-42850D01*
X99100Y-43575D01*
X99035Y-43574D01*
X99035Y-43496D01*
X99035Y-43295D01*
X99033Y-43290D01*
X99033Y-43285D01*
X98882Y-42920D01*
X98880Y-42919D01*
X98877Y-42914D01*
X98587Y-42623D01*
X98580Y-42620D01*
X98579Y-42617D01*
X98458Y-42568D01*
X98468Y-42562D01*
X98664Y-42365D01*
X98670Y-42370D01*
X98934Y-42442D01*
X99205Y-42408D01*
X99442Y-42272D01*
X99609Y-42056D01*
X99681Y-41793D01*
X99690Y-41661D01*
X99790Y-41761D01*
X99991Y-41845D01*
X100207Y-41845D01*
X100408Y-41762D01*
X100561Y-41609D01*
X100645Y-41408D01*
X100645Y-41192D01*
X100574Y-41019D01*
X100704Y-41019D01*
X100704Y-41054D01*
X100704Y-41644D01*
X100742Y-41736D01*
X100812Y-41807D01*
X100904Y-41845D01*
X101004Y-41845D01*
X101594Y-41845D01*
X101686Y-41807D01*
X101757Y-41737D01*
X101795Y-41645D01*
X101795Y-41545D01*
X101795Y-40955D01*
X101757Y-40863D01*
X101687Y-40792D01*
X101595Y-40754D01*
X101495Y-40754D01*
X101224Y-40754D01*
X101251Y-40714D01*
X101291Y-40617D01*
X101291Y-40617D01*
X101314Y-40502D01*
X101314Y-40502D01*
X101320Y-40470D01*
X101326Y-40469D01*
X101830Y-40469D01*
X101830Y-40750D01*
X101835Y-40776D01*
X101835Y-40802D01*
X101881Y-41030D01*
X101881Y-41031D01*
X101921Y-41129D01*
X102051Y-41324D01*
X102125Y-41398D01*
X102126Y-41398D01*
X102319Y-41527D01*
X102320Y-41528D01*
X102417Y-41568D01*
X102647Y-41614D01*
X102752Y-41614D01*
X102753Y-41614D01*
X102980Y-41568D01*
X102981Y-41568D01*
X103079Y-41528D01*
X103274Y-41398D01*
X103348Y-41324D01*
X103348Y-41323D01*
X103477Y-41130D01*
X103478Y-41129D01*
X103518Y-41032D01*
X103555Y-40850D01*
X103569Y-40923D01*
X103569Y-40924D01*
X103609Y-41021D01*
X103707Y-41167D01*
X103781Y-41242D01*
X103782Y-41242D01*
X103927Y-41339D01*
X103927Y-41339D01*
X103980Y-41361D01*
X103980Y-42784D01*
X103909Y-42813D01*
X103908Y-42814D01*
X103747Y-42921D01*
X103746Y-42922D01*
X103671Y-42996D01*
X103564Y-43158D01*
X103563Y-43158D01*
X103523Y-43256D01*
X103485Y-43447D01*
X103485Y-43500D01*
X103485Y-43552D01*
X103523Y-43743D01*
X103563Y-43841D01*
X103564Y-43841D01*
X103671Y-44003D01*
X103746Y-44077D01*
X103747Y-44078D01*
X103908Y-44185D01*
X103909Y-44186D01*
X103980Y-44215D01*
X103980Y-47275D01*
M02*
