G04 (created by PCBNEW (2013-may-18)-stable) date Sun 22 Nov 2015 10:50:22 PM EST*
%MOIN*%
G04 Gerber Fmt 3.4, Leading zero omitted, Abs format*
%FSLAX34Y34*%
G01*
G70*
G90*
G04 APERTURE LIST*
%ADD10C,0.00590551*%
%ADD11C,0.0001*%
%ADD12C,0.157*%
%ADD13C,0.065*%
%ADD14C,0.0590551*%
%ADD15R,0.0590551X0.0590551*%
%ADD16C,0.055*%
%ADD17R,0.035X0.055*%
%ADD18C,0.066*%
%ADD19C,0.09*%
%ADD20C,0.09*%
%ADD21C,0.070937*%
G04 APERTURE END LIST*
G54D10*
G54D11*
G36*
X103108Y-42715D02*
X103128Y-42717D01*
X103148Y-42720D01*
X103166Y-42726D01*
X103184Y-42733D01*
X103201Y-42742D01*
X103216Y-42754D01*
X103231Y-42766D01*
X103243Y-42780D01*
X103254Y-42796D01*
X103264Y-42813D01*
X103271Y-42830D01*
X103277Y-42849D01*
X103280Y-42869D01*
X103281Y-42889D01*
X103281Y-44410D01*
X103280Y-44430D01*
X103277Y-44450D01*
X103271Y-44469D01*
X103264Y-44486D01*
X103254Y-44503D01*
X103243Y-44519D01*
X103231Y-44533D01*
X103216Y-44545D01*
X103201Y-44557D01*
X103184Y-44566D01*
X103166Y-44573D01*
X103148Y-44579D01*
X103128Y-44582D01*
X103108Y-44584D01*
X102132Y-44584D01*
X102112Y-44582D01*
X102092Y-44579D01*
X102074Y-44573D01*
X102056Y-44566D01*
X102040Y-44557D01*
X102025Y-44545D01*
X102011Y-44533D01*
X101999Y-44519D01*
X101988Y-44503D01*
X101979Y-44486D01*
X101972Y-44469D01*
X101966Y-44450D01*
X101963Y-44430D01*
X101962Y-44410D01*
X101962Y-43320D01*
X101712Y-43320D01*
X101712Y-44202D01*
X101711Y-44221D01*
X101706Y-44240D01*
X101700Y-44257D01*
X101691Y-44274D01*
X101680Y-44288D01*
X101667Y-44301D01*
X101652Y-44312D01*
X101636Y-44321D01*
X101618Y-44328D01*
X101600Y-44332D01*
X101580Y-44334D01*
X101491Y-44334D01*
X101472Y-44332D01*
X101453Y-44328D01*
X101435Y-44321D01*
X101419Y-44312D01*
X101405Y-44301D01*
X101392Y-44288D01*
X101380Y-44274D01*
X101371Y-44257D01*
X101365Y-44240D01*
X101361Y-44221D01*
X101359Y-44202D01*
X101359Y-43320D01*
X101172Y-43320D01*
X101155Y-43318D01*
X101139Y-43313D01*
X101124Y-43304D01*
X101110Y-43293D01*
X101098Y-43279D01*
X101088Y-43263D01*
X101079Y-43245D01*
X101073Y-43225D01*
X101069Y-43203D01*
X101068Y-43181D01*
X101068Y-43104D01*
X101069Y-43082D01*
X101073Y-43060D01*
X101079Y-43040D01*
X101088Y-43022D01*
X101098Y-43006D01*
X101110Y-42992D01*
X101124Y-42981D01*
X101139Y-42973D01*
X101155Y-42967D01*
X101172Y-42965D01*
X101962Y-42965D01*
X101962Y-42889D01*
X101963Y-42869D01*
X101966Y-42849D01*
X101972Y-42830D01*
X101979Y-42813D01*
X101988Y-42796D01*
X101999Y-42780D01*
X102011Y-42766D01*
X102025Y-42754D01*
X102040Y-42742D01*
X102056Y-42733D01*
X102074Y-42726D01*
X102092Y-42720D01*
X102112Y-42717D01*
X102132Y-42715D01*
X103108Y-42715D01*
X103108Y-42715D01*
G37*
G36*
X100795Y-46498D02*
X100794Y-46478D01*
X100792Y-46458D01*
X100789Y-46439D01*
X100784Y-46420D01*
X100778Y-46401D01*
X100771Y-46383D01*
X100763Y-46366D01*
X100754Y-46349D01*
X100744Y-46333D01*
X100733Y-46318D01*
X100721Y-46303D01*
X100708Y-46289D01*
X100694Y-46277D01*
X100680Y-46265D01*
X100665Y-46253D01*
X100648Y-46243D01*
X100632Y-46234D01*
X100614Y-46226D01*
X100596Y-46219D01*
X100578Y-46214D01*
X100559Y-46209D01*
X100540Y-46206D01*
X100520Y-46204D01*
X100500Y-46203D01*
X100479Y-46204D01*
X100459Y-46206D01*
X100440Y-46209D01*
X100421Y-46214D01*
X100403Y-46219D01*
X100385Y-46226D01*
X100367Y-46234D01*
X100351Y-46243D01*
X100334Y-46253D01*
X100319Y-46265D01*
X100305Y-46277D01*
X100291Y-46289D01*
X100278Y-46303D01*
X100266Y-46318D01*
X100255Y-46333D01*
X100245Y-46349D01*
X100236Y-46366D01*
X100228Y-46383D01*
X100221Y-46401D01*
X100215Y-46420D01*
X100210Y-46439D01*
X100207Y-46458D01*
X100205Y-46478D01*
X100204Y-46498D01*
X100205Y-46519D01*
X100207Y-46538D01*
X100211Y-46558D01*
X100215Y-46577D01*
X100221Y-46595D01*
X100229Y-46613D01*
X100237Y-46631D01*
X100246Y-46647D01*
X100256Y-46668D01*
X100500Y-47026D01*
X100741Y-46668D01*
X100748Y-46657D01*
X100753Y-46647D01*
X100762Y-46631D01*
X100771Y-46613D01*
X100778Y-46595D01*
X100784Y-46577D01*
X100788Y-46558D01*
X100792Y-46539D01*
X100794Y-46519D01*
X100795Y-46498D01*
X100795Y-46498D01*
G37*
G36*
X96795Y-46498D02*
X96794Y-46478D01*
X96792Y-46458D01*
X96789Y-46439D01*
X96784Y-46420D01*
X96778Y-46401D01*
X96771Y-46383D01*
X96763Y-46366D01*
X96754Y-46349D01*
X96744Y-46333D01*
X96733Y-46318D01*
X96721Y-46303D01*
X96708Y-46289D01*
X96694Y-46277D01*
X96680Y-46265D01*
X96665Y-46253D01*
X96648Y-46243D01*
X96632Y-46234D01*
X96614Y-46226D01*
X96596Y-46219D01*
X96578Y-46214D01*
X96559Y-46209D01*
X96540Y-46206D01*
X96520Y-46204D01*
X96500Y-46203D01*
X96479Y-46204D01*
X96459Y-46206D01*
X96440Y-46209D01*
X96421Y-46214D01*
X96403Y-46219D01*
X96385Y-46226D01*
X96367Y-46234D01*
X96351Y-46243D01*
X96334Y-46253D01*
X96319Y-46265D01*
X96305Y-46277D01*
X96291Y-46289D01*
X96278Y-46303D01*
X96266Y-46318D01*
X96255Y-46333D01*
X96245Y-46349D01*
X96236Y-46366D01*
X96228Y-46383D01*
X96221Y-46401D01*
X96215Y-46420D01*
X96210Y-46439D01*
X96207Y-46458D01*
X96205Y-46478D01*
X96204Y-46498D01*
X96205Y-46519D01*
X96207Y-46538D01*
X96211Y-46558D01*
X96215Y-46577D01*
X96221Y-46595D01*
X96229Y-46613D01*
X96237Y-46631D01*
X96246Y-46647D01*
X96256Y-46668D01*
X96500Y-47026D01*
X96741Y-46668D01*
X96748Y-46657D01*
X96753Y-46647D01*
X96762Y-46631D01*
X96771Y-46613D01*
X96778Y-46595D01*
X96784Y-46577D01*
X96788Y-46558D01*
X96792Y-46539D01*
X96794Y-46519D01*
X96795Y-46498D01*
X96795Y-46498D01*
G37*
G36*
X92301Y-42545D02*
X92321Y-42544D01*
X92341Y-42542D01*
X92360Y-42539D01*
X92379Y-42534D01*
X92398Y-42528D01*
X92416Y-42521D01*
X92433Y-42513D01*
X92450Y-42504D01*
X92466Y-42494D01*
X92481Y-42483D01*
X92496Y-42471D01*
X92510Y-42458D01*
X92522Y-42444D01*
X92534Y-42430D01*
X92546Y-42415D01*
X92556Y-42398D01*
X92565Y-42382D01*
X92573Y-42364D01*
X92580Y-42346D01*
X92585Y-42328D01*
X92590Y-42309D01*
X92593Y-42290D01*
X92595Y-42270D01*
X92596Y-42250D01*
X92595Y-42229D01*
X92593Y-42209D01*
X92590Y-42190D01*
X92585Y-42171D01*
X92580Y-42153D01*
X92573Y-42135D01*
X92565Y-42117D01*
X92556Y-42101D01*
X92546Y-42084D01*
X92534Y-42069D01*
X92522Y-42055D01*
X92510Y-42041D01*
X92496Y-42028D01*
X92481Y-42016D01*
X92466Y-42005D01*
X92450Y-41995D01*
X92433Y-41986D01*
X92416Y-41978D01*
X92398Y-41971D01*
X92379Y-41965D01*
X92360Y-41960D01*
X92341Y-41957D01*
X92321Y-41955D01*
X92301Y-41954D01*
X92280Y-41955D01*
X92261Y-41957D01*
X92241Y-41961D01*
X92222Y-41965D01*
X92204Y-41971D01*
X92186Y-41979D01*
X92168Y-41987D01*
X92152Y-41996D01*
X92131Y-42006D01*
X91773Y-42250D01*
X92131Y-42491D01*
X92142Y-42498D01*
X92152Y-42503D01*
X92168Y-42512D01*
X92186Y-42521D01*
X92204Y-42528D01*
X92222Y-42534D01*
X92241Y-42538D01*
X92260Y-42542D01*
X92280Y-42544D01*
X92301Y-42545D01*
X92301Y-42545D01*
G37*
G36*
X103698Y-41954D02*
X103678Y-41955D01*
X103658Y-41957D01*
X103639Y-41960D01*
X103620Y-41965D01*
X103601Y-41971D01*
X103583Y-41978D01*
X103566Y-41986D01*
X103549Y-41995D01*
X103533Y-42005D01*
X103518Y-42016D01*
X103503Y-42028D01*
X103489Y-42041D01*
X103477Y-42055D01*
X103465Y-42069D01*
X103453Y-42084D01*
X103443Y-42101D01*
X103434Y-42117D01*
X103426Y-42135D01*
X103419Y-42153D01*
X103414Y-42171D01*
X103409Y-42190D01*
X103406Y-42209D01*
X103404Y-42229D01*
X103403Y-42250D01*
X103404Y-42270D01*
X103406Y-42290D01*
X103409Y-42309D01*
X103414Y-42328D01*
X103419Y-42346D01*
X103426Y-42364D01*
X103434Y-42382D01*
X103443Y-42398D01*
X103453Y-42415D01*
X103465Y-42430D01*
X103477Y-42444D01*
X103489Y-42458D01*
X103503Y-42471D01*
X103518Y-42483D01*
X103533Y-42494D01*
X103549Y-42504D01*
X103566Y-42513D01*
X103583Y-42521D01*
X103601Y-42528D01*
X103620Y-42534D01*
X103639Y-42539D01*
X103658Y-42542D01*
X103678Y-42544D01*
X103698Y-42545D01*
X103719Y-42544D01*
X103738Y-42542D01*
X103758Y-42538D01*
X103777Y-42534D01*
X103795Y-42528D01*
X103813Y-42520D01*
X103831Y-42512D01*
X103847Y-42503D01*
X103868Y-42493D01*
X104226Y-42250D01*
X103868Y-42008D01*
X103857Y-42001D01*
X103847Y-41996D01*
X103831Y-41987D01*
X103813Y-41978D01*
X103795Y-41971D01*
X103777Y-41965D01*
X103758Y-41961D01*
X103739Y-41957D01*
X103719Y-41955D01*
X103698Y-41954D01*
X103698Y-41954D01*
G37*
G36*
X99804Y-41301D02*
X99805Y-41321D01*
X99807Y-41341D01*
X99810Y-41360D01*
X99815Y-41379D01*
X99821Y-41398D01*
X99828Y-41416D01*
X99836Y-41433D01*
X99845Y-41450D01*
X99855Y-41466D01*
X99866Y-41481D01*
X99878Y-41496D01*
X99891Y-41510D01*
X99905Y-41522D01*
X99919Y-41534D01*
X99934Y-41546D01*
X99951Y-41556D01*
X99967Y-41565D01*
X99985Y-41573D01*
X100003Y-41580D01*
X100021Y-41585D01*
X100040Y-41590D01*
X100059Y-41593D01*
X100079Y-41595D01*
X100100Y-41596D01*
X100120Y-41595D01*
X100140Y-41593D01*
X100159Y-41590D01*
X100178Y-41585D01*
X100196Y-41580D01*
X100214Y-41573D01*
X100232Y-41565D01*
X100248Y-41556D01*
X100265Y-41546D01*
X100280Y-41534D01*
X100294Y-41522D01*
X100308Y-41510D01*
X100321Y-41496D01*
X100333Y-41481D01*
X100344Y-41466D01*
X100354Y-41450D01*
X100363Y-41433D01*
X100371Y-41416D01*
X100378Y-41398D01*
X100384Y-41379D01*
X100389Y-41360D01*
X100392Y-41341D01*
X100394Y-41321D01*
X100395Y-41301D01*
X100394Y-41280D01*
X100392Y-41261D01*
X100388Y-41241D01*
X100384Y-41222D01*
X100378Y-41204D01*
X100370Y-41186D01*
X100362Y-41168D01*
X100353Y-41152D01*
X100343Y-41131D01*
X100100Y-40773D01*
X99858Y-41131D01*
X99851Y-41142D01*
X99846Y-41152D01*
X99837Y-41168D01*
X99828Y-41186D01*
X99821Y-41204D01*
X99815Y-41222D01*
X99811Y-41241D01*
X99807Y-41260D01*
X99805Y-41280D01*
X99804Y-41301D01*
X99804Y-41301D01*
G37*
G36*
X97704Y-41301D02*
X97705Y-41321D01*
X97707Y-41341D01*
X97710Y-41360D01*
X97715Y-41379D01*
X97721Y-41398D01*
X97728Y-41416D01*
X97736Y-41433D01*
X97745Y-41450D01*
X97755Y-41466D01*
X97766Y-41481D01*
X97778Y-41496D01*
X97791Y-41510D01*
X97805Y-41522D01*
X97819Y-41534D01*
X97834Y-41546D01*
X97851Y-41556D01*
X97867Y-41565D01*
X97885Y-41573D01*
X97903Y-41580D01*
X97921Y-41585D01*
X97940Y-41590D01*
X97959Y-41593D01*
X97979Y-41595D01*
X98000Y-41596D01*
X98020Y-41595D01*
X98040Y-41593D01*
X98059Y-41590D01*
X98078Y-41585D01*
X98096Y-41580D01*
X98114Y-41573D01*
X98132Y-41565D01*
X98148Y-41556D01*
X98165Y-41546D01*
X98180Y-41534D01*
X98194Y-41522D01*
X98208Y-41510D01*
X98221Y-41496D01*
X98233Y-41481D01*
X98244Y-41466D01*
X98254Y-41450D01*
X98263Y-41433D01*
X98271Y-41416D01*
X98278Y-41398D01*
X98284Y-41379D01*
X98289Y-41360D01*
X98292Y-41341D01*
X98294Y-41321D01*
X98295Y-41301D01*
X98294Y-41280D01*
X98292Y-41261D01*
X98288Y-41241D01*
X98284Y-41222D01*
X98278Y-41204D01*
X98270Y-41186D01*
X98262Y-41168D01*
X98253Y-41152D01*
X98243Y-41131D01*
X98000Y-40773D01*
X97758Y-41131D01*
X97751Y-41142D01*
X97746Y-41152D01*
X97737Y-41168D01*
X97728Y-41186D01*
X97721Y-41204D01*
X97715Y-41222D01*
X97711Y-41241D01*
X97707Y-41260D01*
X97705Y-41280D01*
X97704Y-41301D01*
X97704Y-41301D01*
G37*
G36*
X95704Y-41594D02*
X96295Y-41594D01*
X96295Y-41004D01*
X96149Y-40883D01*
X96000Y-40765D01*
X95854Y-40883D01*
X95704Y-41004D01*
X95704Y-41594D01*
X95704Y-41594D01*
G37*
G36*
X100954Y-41594D02*
X101545Y-41594D01*
X101545Y-41004D01*
X101399Y-40883D01*
X101250Y-40765D01*
X101104Y-40883D01*
X100954Y-41004D01*
X100954Y-41594D01*
X100954Y-41594D01*
G37*
G36*
X103405Y-44954D02*
X103405Y-45545D01*
X103995Y-45545D01*
X104116Y-45399D01*
X104234Y-45250D01*
X104116Y-45104D01*
X103995Y-44954D01*
X103405Y-44954D01*
X103405Y-44954D01*
G37*
G36*
X99795Y-46205D02*
X99204Y-46205D01*
X99204Y-46795D01*
X99350Y-46916D01*
X99500Y-47034D01*
X99645Y-46916D01*
X99795Y-46795D01*
X99795Y-46205D01*
X99795Y-46205D01*
G37*
G36*
X95795Y-46205D02*
X95204Y-46205D01*
X95204Y-46795D01*
X95350Y-46916D01*
X95500Y-47034D01*
X95645Y-46916D01*
X95795Y-46795D01*
X95795Y-46205D01*
X95795Y-46205D01*
G37*
G36*
X92594Y-45545D02*
X92594Y-44954D01*
X92004Y-44954D01*
X91883Y-45100D01*
X91765Y-45250D01*
X91883Y-45395D01*
X92004Y-45545D01*
X92594Y-45545D01*
X92594Y-45545D01*
G37*
G36*
X93733Y-42659D02*
X93716Y-43583D01*
X93696Y-43584D01*
X93676Y-43588D01*
X93657Y-43594D01*
X93639Y-43602D01*
X93623Y-43612D01*
X93608Y-43624D01*
X93594Y-43638D01*
X93582Y-43653D01*
X93572Y-43670D01*
X93564Y-43687D01*
X93558Y-43706D01*
X93554Y-43726D01*
X93553Y-43746D01*
X93554Y-43767D01*
X93558Y-43786D01*
X93564Y-43805D01*
X93572Y-43823D01*
X93582Y-43839D01*
X93594Y-43855D01*
X93608Y-43868D01*
X93623Y-43880D01*
X93639Y-43890D01*
X93657Y-43898D01*
X93676Y-43904D01*
X93696Y-43908D01*
X93716Y-43909D01*
X93737Y-43908D01*
X93756Y-43904D01*
X93775Y-43898D01*
X93793Y-43890D01*
X93809Y-43880D01*
X93824Y-43868D01*
X93838Y-43855D01*
X93850Y-43839D01*
X93860Y-43823D01*
X93868Y-43805D01*
X93874Y-43786D01*
X93878Y-43767D01*
X93879Y-43746D01*
X93878Y-43726D01*
X93874Y-43706D01*
X93868Y-43687D01*
X93860Y-43670D01*
X93850Y-43653D01*
X93838Y-43638D01*
X93824Y-43624D01*
X93809Y-43612D01*
X93793Y-43602D01*
X93775Y-43594D01*
X93756Y-43588D01*
X93737Y-43584D01*
X93716Y-43583D01*
X93733Y-42659D01*
X93754Y-42662D01*
X93774Y-42666D01*
X93796Y-42670D01*
X93823Y-42674D01*
X93848Y-42679D01*
X93870Y-42685D01*
X93889Y-42692D01*
X93906Y-42700D01*
X93920Y-42708D01*
X93933Y-42718D01*
X93943Y-42729D01*
X93952Y-42742D01*
X93958Y-42756D01*
X93963Y-42772D01*
X93967Y-42789D01*
X93970Y-42809D01*
X93971Y-42829D01*
X93972Y-42851D01*
X93973Y-42872D01*
X93974Y-42893D01*
X93977Y-42914D01*
X93982Y-42934D01*
X93990Y-42952D01*
X94001Y-42968D01*
X94013Y-42981D01*
X94029Y-42991D01*
X94045Y-42998D01*
X94062Y-43000D01*
X94077Y-42996D01*
X94094Y-42986D01*
X94110Y-42975D01*
X94126Y-42963D01*
X94141Y-42950D01*
X94157Y-42938D01*
X94173Y-42925D01*
X94189Y-42914D01*
X94205Y-42902D01*
X94222Y-42892D01*
X94240Y-42883D01*
X94258Y-42876D01*
X94276Y-42871D01*
X94296Y-42868D01*
X94319Y-42867D01*
X94340Y-42870D01*
X94358Y-42876D01*
X94375Y-42884D01*
X94391Y-42895D01*
X94406Y-42907D01*
X94420Y-42921D01*
X94434Y-42936D01*
X94448Y-42951D01*
X94462Y-42967D01*
X94477Y-42982D01*
X94489Y-42995D01*
X94503Y-43008D01*
X94518Y-43023D01*
X94533Y-43038D01*
X94547Y-43054D01*
X94561Y-43070D01*
X94573Y-43088D01*
X94583Y-43105D01*
X94590Y-43123D01*
X94595Y-43142D01*
X94596Y-43164D01*
X94594Y-43184D01*
X94589Y-43204D01*
X94582Y-43223D01*
X94573Y-43241D01*
X94563Y-43259D01*
X94552Y-43276D01*
X94539Y-43292D01*
X94527Y-43309D01*
X94514Y-43325D01*
X94502Y-43341D01*
X94490Y-43357D01*
X94482Y-43371D01*
X94475Y-43383D01*
X94474Y-43397D01*
X94480Y-43413D01*
X94488Y-43429D01*
X94496Y-43446D01*
X94505Y-43460D01*
X94519Y-43470D01*
X94539Y-43475D01*
X94559Y-43477D01*
X94579Y-43478D01*
X94599Y-43480D01*
X94620Y-43482D01*
X94641Y-43486D01*
X94662Y-43490D01*
X94682Y-43495D01*
X94701Y-43502D01*
X94719Y-43511D01*
X94735Y-43521D01*
X94751Y-43534D01*
X94764Y-43549D01*
X94775Y-43566D01*
X94785Y-43585D01*
X94792Y-43604D01*
X94798Y-43623D01*
X94802Y-43643D01*
X94805Y-43662D01*
X94806Y-43682D01*
X94806Y-43702D01*
X94806Y-43723D01*
X94805Y-43744D01*
X94803Y-43766D01*
X94801Y-43788D01*
X94799Y-43811D01*
X94798Y-43836D01*
X94796Y-43861D01*
X94793Y-43880D01*
X94788Y-43899D01*
X94781Y-43916D01*
X94771Y-43931D01*
X94759Y-43946D01*
X94746Y-43959D01*
X94731Y-43970D01*
X94714Y-43980D01*
X94697Y-43989D01*
X94679Y-43996D01*
X94660Y-44001D01*
X94641Y-44005D01*
X94622Y-44007D01*
X94603Y-44007D01*
X94582Y-44006D01*
X94561Y-44007D01*
X94542Y-44010D01*
X94525Y-44016D01*
X94511Y-44027D01*
X94501Y-44042D01*
X94491Y-44057D01*
X94483Y-44074D01*
X94479Y-44092D01*
X94479Y-44110D01*
X94485Y-44128D01*
X94497Y-44146D01*
X94510Y-44160D01*
X94524Y-44174D01*
X94537Y-44190D01*
X94550Y-44207D01*
X94562Y-44224D01*
X94572Y-44241D01*
X94582Y-44260D01*
X94590Y-44278D01*
X94595Y-44297D01*
X94599Y-44316D01*
X94599Y-44336D01*
X94597Y-44355D01*
X94591Y-44375D01*
X94583Y-44394D01*
X94573Y-44412D01*
X94562Y-44429D01*
X94550Y-44446D01*
X94537Y-44462D01*
X94524Y-44477D01*
X94509Y-44492D01*
X94494Y-44507D01*
X94479Y-44521D01*
X94464Y-44535D01*
X94448Y-44549D01*
X94432Y-44562D01*
X94416Y-44576D01*
X94401Y-44590D01*
X94386Y-44604D01*
X94373Y-44614D01*
X94359Y-44620D01*
X94343Y-44624D01*
X94327Y-44624D01*
X94310Y-44622D01*
X94292Y-44617D01*
X94274Y-44611D01*
X94256Y-44603D01*
X94238Y-44594D01*
X94219Y-44585D01*
X94201Y-44575D01*
X94183Y-44565D01*
X94166Y-44555D01*
X94149Y-44546D01*
X94133Y-44538D01*
X94122Y-44533D01*
X94110Y-44531D01*
X94097Y-44529D01*
X94081Y-44529D01*
X94060Y-44530D01*
X94034Y-44530D01*
X94001Y-44531D01*
X93980Y-44531D01*
X93960Y-44531D01*
X93941Y-44531D01*
X93921Y-44531D01*
X93827Y-44309D01*
X93716Y-44045D01*
X93605Y-44309D01*
X93511Y-44534D01*
X93496Y-44534D01*
X93480Y-44534D01*
X93466Y-44534D01*
X93448Y-44534D01*
X93427Y-44535D01*
X93403Y-44535D01*
X93377Y-44536D01*
X93352Y-44537D01*
X93328Y-44539D01*
X93307Y-44541D01*
X93289Y-44545D01*
X93271Y-44551D01*
X93255Y-44559D01*
X93240Y-44568D01*
X93226Y-44577D01*
X93213Y-44587D01*
X93201Y-44597D01*
X93188Y-44607D01*
X93175Y-44615D01*
X93161Y-44621D01*
X93147Y-44625D01*
X93130Y-44627D01*
X93112Y-44626D01*
X93091Y-44621D01*
X93072Y-44614D01*
X93054Y-44606D01*
X93037Y-44597D01*
X93022Y-44587D01*
X93007Y-44575D01*
X92993Y-44563D01*
X92979Y-44549D01*
X92966Y-44535D01*
X92953Y-44521D01*
X92939Y-44506D01*
X92925Y-44490D01*
X92911Y-44474D01*
X92895Y-44457D01*
X92879Y-44441D01*
X92866Y-44426D01*
X92856Y-44409D01*
X92848Y-44392D01*
X92842Y-44373D01*
X92838Y-44354D01*
X92837Y-44335D01*
X92838Y-44315D01*
X92842Y-44296D01*
X92847Y-44277D01*
X92855Y-44259D01*
X92864Y-44242D01*
X92876Y-44225D01*
X92889Y-44210D01*
X92904Y-44195D01*
X92919Y-44180D01*
X92933Y-44164D01*
X92944Y-44148D01*
X92952Y-44130D01*
X92956Y-44111D01*
X92955Y-44093D01*
X92951Y-44075D01*
X92944Y-44058D01*
X92934Y-44043D01*
X92920Y-44030D01*
X92903Y-44021D01*
X92883Y-44017D01*
X92864Y-44016D01*
X92846Y-44014D01*
X92826Y-44012D01*
X92807Y-44010D01*
X92787Y-44006D01*
X92768Y-44002D01*
X92749Y-43996D01*
X92731Y-43990D01*
X92714Y-43981D01*
X92698Y-43972D01*
X92683Y-43960D01*
X92670Y-43946D01*
X92659Y-43931D01*
X92650Y-43913D01*
X92643Y-43893D01*
X92638Y-43873D01*
X92634Y-43854D01*
X92632Y-43834D01*
X92631Y-43814D01*
X92630Y-43794D01*
X92631Y-43773D01*
X92632Y-43752D01*
X92633Y-43731D01*
X92635Y-43710D01*
X92636Y-43688D01*
X92636Y-43665D01*
X92636Y-43642D01*
X92637Y-43622D01*
X92642Y-43603D01*
X92648Y-43585D01*
X92658Y-43568D01*
X92669Y-43552D01*
X92682Y-43538D01*
X92697Y-43526D01*
X92714Y-43515D01*
X92731Y-43505D01*
X92750Y-43498D01*
X92769Y-43493D01*
X92789Y-43489D01*
X92809Y-43488D01*
X92831Y-43488D01*
X92853Y-43488D01*
X92874Y-43487D01*
X92894Y-43483D01*
X92912Y-43476D01*
X92928Y-43465D01*
X92939Y-43452D01*
X92950Y-43437D01*
X92958Y-43421D01*
X92961Y-43403D01*
X92959Y-43385D01*
X92949Y-43368D01*
X92936Y-43353D01*
X92923Y-43338D01*
X92910Y-43322D01*
X92897Y-43306D01*
X92885Y-43289D01*
X92874Y-43271D01*
X92863Y-43254D01*
X92854Y-43235D01*
X92846Y-43217D01*
X92841Y-43198D01*
X92838Y-43178D01*
X92837Y-43158D01*
X92839Y-43138D01*
X92845Y-43118D01*
X92853Y-43098D01*
X92863Y-43078D01*
X92875Y-43059D01*
X92889Y-43041D01*
X92903Y-43024D01*
X92919Y-43008D01*
X92935Y-42992D01*
X92951Y-42977D01*
X92967Y-42962D01*
X92982Y-42949D01*
X92997Y-42936D01*
X93010Y-42924D01*
X93022Y-42913D01*
X93037Y-42900D01*
X93053Y-42889D01*
X93071Y-42880D01*
X93090Y-42874D01*
X93109Y-42871D01*
X93129Y-42870D01*
X93149Y-42871D01*
X93168Y-42874D01*
X93187Y-42880D01*
X93206Y-42887D01*
X93224Y-42897D01*
X93240Y-42909D01*
X93254Y-42922D01*
X93268Y-42936D01*
X93282Y-42950D01*
X93297Y-42963D01*
X93312Y-42975D01*
X93328Y-42984D01*
X93344Y-42991D01*
X93362Y-42993D01*
X93378Y-42992D01*
X93395Y-42990D01*
X93411Y-42985D01*
X93426Y-42977D01*
X93437Y-42965D01*
X93442Y-42948D01*
X93443Y-42930D01*
X93444Y-42911D01*
X93446Y-42891D01*
X93447Y-42871D01*
X93449Y-42851D01*
X93451Y-42831D01*
X93454Y-42811D01*
X93458Y-42792D01*
X93463Y-42773D01*
X93469Y-42755D01*
X93477Y-42739D01*
X93486Y-42724D01*
X93497Y-42711D01*
X93510Y-42699D01*
X93525Y-42690D01*
X93542Y-42684D01*
X93568Y-42677D01*
X93591Y-42671D01*
X93613Y-42667D01*
X93635Y-42663D01*
X93655Y-42661D01*
X93675Y-42659D01*
X93694Y-42658D01*
X93714Y-42658D01*
X93733Y-42659D01*
X93733Y-42659D01*
G37*
G54D10*
X93733Y-42659D02*
X93716Y-43583D01*
X93716Y-43583D02*
X93696Y-43584D01*
X93696Y-43584D02*
X93676Y-43588D01*
X93676Y-43588D02*
X93657Y-43594D01*
X93657Y-43594D02*
X93639Y-43602D01*
X93639Y-43602D02*
X93623Y-43612D01*
X93623Y-43612D02*
X93608Y-43624D01*
X93608Y-43624D02*
X93594Y-43638D01*
X93594Y-43638D02*
X93582Y-43653D01*
X93582Y-43653D02*
X93572Y-43670D01*
X93572Y-43670D02*
X93564Y-43687D01*
X93564Y-43687D02*
X93558Y-43706D01*
X93558Y-43706D02*
X93554Y-43726D01*
X93554Y-43726D02*
X93553Y-43746D01*
X93553Y-43746D02*
X93554Y-43767D01*
X93554Y-43767D02*
X93558Y-43786D01*
X93558Y-43786D02*
X93564Y-43805D01*
X93564Y-43805D02*
X93572Y-43823D01*
X93572Y-43823D02*
X93582Y-43839D01*
X93582Y-43839D02*
X93594Y-43855D01*
X93594Y-43855D02*
X93608Y-43868D01*
X93608Y-43868D02*
X93623Y-43880D01*
X93623Y-43880D02*
X93639Y-43890D01*
X93639Y-43890D02*
X93657Y-43898D01*
X93657Y-43898D02*
X93676Y-43904D01*
X93676Y-43904D02*
X93696Y-43908D01*
X93696Y-43908D02*
X93716Y-43909D01*
X93716Y-43909D02*
X93737Y-43908D01*
X93737Y-43908D02*
X93756Y-43904D01*
X93756Y-43904D02*
X93775Y-43898D01*
X93775Y-43898D02*
X93793Y-43890D01*
X93793Y-43890D02*
X93809Y-43880D01*
X93809Y-43880D02*
X93824Y-43868D01*
X93824Y-43868D02*
X93838Y-43855D01*
X93838Y-43855D02*
X93850Y-43839D01*
X93850Y-43839D02*
X93860Y-43823D01*
X93860Y-43823D02*
X93868Y-43805D01*
X93868Y-43805D02*
X93874Y-43786D01*
X93874Y-43786D02*
X93878Y-43767D01*
X93878Y-43767D02*
X93879Y-43746D01*
X93879Y-43746D02*
X93878Y-43726D01*
X93878Y-43726D02*
X93874Y-43706D01*
X93874Y-43706D02*
X93868Y-43687D01*
X93868Y-43687D02*
X93860Y-43670D01*
X93860Y-43670D02*
X93850Y-43653D01*
X93850Y-43653D02*
X93838Y-43638D01*
X93838Y-43638D02*
X93824Y-43624D01*
X93824Y-43624D02*
X93809Y-43612D01*
X93809Y-43612D02*
X93793Y-43602D01*
X93793Y-43602D02*
X93775Y-43594D01*
X93775Y-43594D02*
X93756Y-43588D01*
X93756Y-43588D02*
X93737Y-43584D01*
X93737Y-43584D02*
X93716Y-43583D01*
X93716Y-43583D02*
X93733Y-42659D01*
X93733Y-42659D02*
X93754Y-42662D01*
X93754Y-42662D02*
X93774Y-42666D01*
X93774Y-42666D02*
X93796Y-42670D01*
X93796Y-42670D02*
X93823Y-42674D01*
X93823Y-42674D02*
X93848Y-42679D01*
X93848Y-42679D02*
X93870Y-42685D01*
X93870Y-42685D02*
X93889Y-42692D01*
X93889Y-42692D02*
X93906Y-42700D01*
X93906Y-42700D02*
X93920Y-42708D01*
X93920Y-42708D02*
X93933Y-42718D01*
X93933Y-42718D02*
X93943Y-42729D01*
X93943Y-42729D02*
X93952Y-42742D01*
X93952Y-42742D02*
X93958Y-42756D01*
X93958Y-42756D02*
X93963Y-42772D01*
X93963Y-42772D02*
X93967Y-42789D01*
X93967Y-42789D02*
X93970Y-42809D01*
X93970Y-42809D02*
X93971Y-42829D01*
X93971Y-42829D02*
X93972Y-42851D01*
X93972Y-42851D02*
X93973Y-42872D01*
X93973Y-42872D02*
X93974Y-42893D01*
X93974Y-42893D02*
X93977Y-42914D01*
X93977Y-42914D02*
X93982Y-42934D01*
X93982Y-42934D02*
X93990Y-42952D01*
X93990Y-42952D02*
X94001Y-42968D01*
X94001Y-42968D02*
X94013Y-42981D01*
X94013Y-42981D02*
X94029Y-42991D01*
X94029Y-42991D02*
X94045Y-42998D01*
X94045Y-42998D02*
X94062Y-43000D01*
X94062Y-43000D02*
X94077Y-42996D01*
X94077Y-42996D02*
X94094Y-42986D01*
X94094Y-42986D02*
X94110Y-42975D01*
X94110Y-42975D02*
X94126Y-42963D01*
X94126Y-42963D02*
X94141Y-42950D01*
X94141Y-42950D02*
X94157Y-42938D01*
X94157Y-42938D02*
X94173Y-42925D01*
X94173Y-42925D02*
X94189Y-42914D01*
X94189Y-42914D02*
X94205Y-42902D01*
X94205Y-42902D02*
X94222Y-42892D01*
X94222Y-42892D02*
X94240Y-42883D01*
X94240Y-42883D02*
X94258Y-42876D01*
X94258Y-42876D02*
X94276Y-42871D01*
X94276Y-42871D02*
X94296Y-42868D01*
X94296Y-42868D02*
X94319Y-42867D01*
X94319Y-42867D02*
X94340Y-42870D01*
X94340Y-42870D02*
X94358Y-42876D01*
X94358Y-42876D02*
X94375Y-42884D01*
X94375Y-42884D02*
X94391Y-42895D01*
X94391Y-42895D02*
X94406Y-42907D01*
X94406Y-42907D02*
X94420Y-42921D01*
X94420Y-42921D02*
X94434Y-42936D01*
X94434Y-42936D02*
X94448Y-42951D01*
X94448Y-42951D02*
X94462Y-42967D01*
X94462Y-42967D02*
X94477Y-42982D01*
X94477Y-42982D02*
X94489Y-42995D01*
X94489Y-42995D02*
X94503Y-43008D01*
X94503Y-43008D02*
X94518Y-43023D01*
X94518Y-43023D02*
X94533Y-43038D01*
X94533Y-43038D02*
X94547Y-43054D01*
X94547Y-43054D02*
X94561Y-43070D01*
X94561Y-43070D02*
X94573Y-43088D01*
X94573Y-43088D02*
X94583Y-43105D01*
X94583Y-43105D02*
X94590Y-43123D01*
X94590Y-43123D02*
X94595Y-43142D01*
X94595Y-43142D02*
X94596Y-43164D01*
X94596Y-43164D02*
X94594Y-43184D01*
X94594Y-43184D02*
X94589Y-43204D01*
X94589Y-43204D02*
X94582Y-43223D01*
X94582Y-43223D02*
X94573Y-43241D01*
X94573Y-43241D02*
X94563Y-43259D01*
X94563Y-43259D02*
X94552Y-43276D01*
X94552Y-43276D02*
X94539Y-43292D01*
X94539Y-43292D02*
X94527Y-43309D01*
X94527Y-43309D02*
X94514Y-43325D01*
X94514Y-43325D02*
X94502Y-43341D01*
X94502Y-43341D02*
X94490Y-43357D01*
X94490Y-43357D02*
X94482Y-43371D01*
X94482Y-43371D02*
X94475Y-43383D01*
X94475Y-43383D02*
X94474Y-43397D01*
X94474Y-43397D02*
X94480Y-43413D01*
X94480Y-43413D02*
X94488Y-43429D01*
X94488Y-43429D02*
X94496Y-43446D01*
X94496Y-43446D02*
X94505Y-43460D01*
X94505Y-43460D02*
X94519Y-43470D01*
X94519Y-43470D02*
X94539Y-43475D01*
X94539Y-43475D02*
X94559Y-43477D01*
X94559Y-43477D02*
X94579Y-43478D01*
X94579Y-43478D02*
X94599Y-43480D01*
X94599Y-43480D02*
X94620Y-43482D01*
X94620Y-43482D02*
X94641Y-43486D01*
X94641Y-43486D02*
X94662Y-43490D01*
X94662Y-43490D02*
X94682Y-43495D01*
X94682Y-43495D02*
X94701Y-43502D01*
X94701Y-43502D02*
X94719Y-43511D01*
X94719Y-43511D02*
X94735Y-43521D01*
X94735Y-43521D02*
X94751Y-43534D01*
X94751Y-43534D02*
X94764Y-43549D01*
X94764Y-43549D02*
X94775Y-43566D01*
X94775Y-43566D02*
X94785Y-43585D01*
X94785Y-43585D02*
X94792Y-43604D01*
X94792Y-43604D02*
X94798Y-43623D01*
X94798Y-43623D02*
X94802Y-43643D01*
X94802Y-43643D02*
X94805Y-43662D01*
X94805Y-43662D02*
X94806Y-43682D01*
X94806Y-43682D02*
X94806Y-43702D01*
X94806Y-43702D02*
X94806Y-43723D01*
X94806Y-43723D02*
X94805Y-43744D01*
X94805Y-43744D02*
X94803Y-43766D01*
X94803Y-43766D02*
X94801Y-43788D01*
X94801Y-43788D02*
X94799Y-43811D01*
X94799Y-43811D02*
X94798Y-43836D01*
X94798Y-43836D02*
X94796Y-43861D01*
X94796Y-43861D02*
X94793Y-43880D01*
X94793Y-43880D02*
X94788Y-43899D01*
X94788Y-43899D02*
X94781Y-43916D01*
X94781Y-43916D02*
X94771Y-43931D01*
X94771Y-43931D02*
X94759Y-43946D01*
X94759Y-43946D02*
X94746Y-43959D01*
X94746Y-43959D02*
X94731Y-43970D01*
X94731Y-43970D02*
X94714Y-43980D01*
X94714Y-43980D02*
X94697Y-43989D01*
X94697Y-43989D02*
X94679Y-43996D01*
X94679Y-43996D02*
X94660Y-44001D01*
X94660Y-44001D02*
X94641Y-44005D01*
X94641Y-44005D02*
X94622Y-44007D01*
X94622Y-44007D02*
X94603Y-44007D01*
X94603Y-44007D02*
X94582Y-44006D01*
X94582Y-44006D02*
X94561Y-44007D01*
X94561Y-44007D02*
X94542Y-44010D01*
X94542Y-44010D02*
X94525Y-44016D01*
X94525Y-44016D02*
X94511Y-44027D01*
X94511Y-44027D02*
X94501Y-44042D01*
X94501Y-44042D02*
X94491Y-44057D01*
X94491Y-44057D02*
X94483Y-44074D01*
X94483Y-44074D02*
X94479Y-44092D01*
X94479Y-44092D02*
X94479Y-44110D01*
X94479Y-44110D02*
X94485Y-44128D01*
X94485Y-44128D02*
X94497Y-44146D01*
X94497Y-44146D02*
X94510Y-44160D01*
X94510Y-44160D02*
X94524Y-44174D01*
X94524Y-44174D02*
X94537Y-44190D01*
X94537Y-44190D02*
X94550Y-44207D01*
X94550Y-44207D02*
X94562Y-44224D01*
X94562Y-44224D02*
X94572Y-44241D01*
X94572Y-44241D02*
X94582Y-44260D01*
X94582Y-44260D02*
X94590Y-44278D01*
X94590Y-44278D02*
X94595Y-44297D01*
X94595Y-44297D02*
X94599Y-44316D01*
X94599Y-44316D02*
X94599Y-44336D01*
X94599Y-44336D02*
X94597Y-44355D01*
X94597Y-44355D02*
X94591Y-44375D01*
X94591Y-44375D02*
X94583Y-44394D01*
X94583Y-44394D02*
X94573Y-44412D01*
X94573Y-44412D02*
X94562Y-44429D01*
X94562Y-44429D02*
X94550Y-44446D01*
X94550Y-44446D02*
X94537Y-44462D01*
X94537Y-44462D02*
X94524Y-44477D01*
X94524Y-44477D02*
X94509Y-44492D01*
X94509Y-44492D02*
X94494Y-44507D01*
X94494Y-44507D02*
X94479Y-44521D01*
X94479Y-44521D02*
X94464Y-44535D01*
X94464Y-44535D02*
X94448Y-44549D01*
X94448Y-44549D02*
X94432Y-44562D01*
X94432Y-44562D02*
X94416Y-44576D01*
X94416Y-44576D02*
X94401Y-44590D01*
X94401Y-44590D02*
X94386Y-44604D01*
X94386Y-44604D02*
X94373Y-44614D01*
X94373Y-44614D02*
X94359Y-44620D01*
X94359Y-44620D02*
X94343Y-44624D01*
X94343Y-44624D02*
X94327Y-44624D01*
X94327Y-44624D02*
X94310Y-44622D01*
X94310Y-44622D02*
X94292Y-44617D01*
X94292Y-44617D02*
X94274Y-44611D01*
X94274Y-44611D02*
X94256Y-44603D01*
X94256Y-44603D02*
X94238Y-44594D01*
X94238Y-44594D02*
X94219Y-44585D01*
X94219Y-44585D02*
X94201Y-44575D01*
X94201Y-44575D02*
X94183Y-44565D01*
X94183Y-44565D02*
X94166Y-44555D01*
X94166Y-44555D02*
X94149Y-44546D01*
X94149Y-44546D02*
X94133Y-44538D01*
X94133Y-44538D02*
X94122Y-44533D01*
X94122Y-44533D02*
X94110Y-44531D01*
X94110Y-44531D02*
X94097Y-44529D01*
X94097Y-44529D02*
X94081Y-44529D01*
X94081Y-44529D02*
X94060Y-44530D01*
X94060Y-44530D02*
X94034Y-44530D01*
X94034Y-44530D02*
X94001Y-44531D01*
X94001Y-44531D02*
X93980Y-44531D01*
X93980Y-44531D02*
X93960Y-44531D01*
X93960Y-44531D02*
X93941Y-44531D01*
X93941Y-44531D02*
X93921Y-44531D01*
X93921Y-44531D02*
X93827Y-44309D01*
X93827Y-44309D02*
X93716Y-44045D01*
X93716Y-44045D02*
X93605Y-44309D01*
X93605Y-44309D02*
X93511Y-44534D01*
X93511Y-44534D02*
X93496Y-44534D01*
X93496Y-44534D02*
X93480Y-44534D01*
X93480Y-44534D02*
X93466Y-44534D01*
X93466Y-44534D02*
X93448Y-44534D01*
X93448Y-44534D02*
X93427Y-44535D01*
X93427Y-44535D02*
X93403Y-44535D01*
X93403Y-44535D02*
X93377Y-44536D01*
X93377Y-44536D02*
X93352Y-44537D01*
X93352Y-44537D02*
X93328Y-44539D01*
X93328Y-44539D02*
X93307Y-44541D01*
X93307Y-44541D02*
X93289Y-44545D01*
X93289Y-44545D02*
X93271Y-44551D01*
X93271Y-44551D02*
X93255Y-44559D01*
X93255Y-44559D02*
X93240Y-44568D01*
X93240Y-44568D02*
X93226Y-44577D01*
X93226Y-44577D02*
X93213Y-44587D01*
X93213Y-44587D02*
X93201Y-44597D01*
X93201Y-44597D02*
X93188Y-44607D01*
X93188Y-44607D02*
X93175Y-44615D01*
X93175Y-44615D02*
X93161Y-44621D01*
X93161Y-44621D02*
X93147Y-44625D01*
X93147Y-44625D02*
X93130Y-44627D01*
X93130Y-44627D02*
X93112Y-44626D01*
X93112Y-44626D02*
X93091Y-44621D01*
X93091Y-44621D02*
X93072Y-44614D01*
X93072Y-44614D02*
X93054Y-44606D01*
X93054Y-44606D02*
X93037Y-44597D01*
X93037Y-44597D02*
X93022Y-44587D01*
X93022Y-44587D02*
X93007Y-44575D01*
X93007Y-44575D02*
X92993Y-44563D01*
X92993Y-44563D02*
X92979Y-44549D01*
X92979Y-44549D02*
X92966Y-44535D01*
X92966Y-44535D02*
X92953Y-44521D01*
X92953Y-44521D02*
X92939Y-44506D01*
X92939Y-44506D02*
X92925Y-44490D01*
X92925Y-44490D02*
X92911Y-44474D01*
X92911Y-44474D02*
X92895Y-44457D01*
X92895Y-44457D02*
X92879Y-44441D01*
X92879Y-44441D02*
X92866Y-44426D01*
X92866Y-44426D02*
X92856Y-44409D01*
X92856Y-44409D02*
X92848Y-44392D01*
X92848Y-44392D02*
X92842Y-44373D01*
X92842Y-44373D02*
X92838Y-44354D01*
X92838Y-44354D02*
X92837Y-44335D01*
X92837Y-44335D02*
X92838Y-44315D01*
X92838Y-44315D02*
X92842Y-44296D01*
X92842Y-44296D02*
X92847Y-44277D01*
X92847Y-44277D02*
X92855Y-44259D01*
X92855Y-44259D02*
X92864Y-44242D01*
X92864Y-44242D02*
X92876Y-44225D01*
X92876Y-44225D02*
X92889Y-44210D01*
X92889Y-44210D02*
X92904Y-44195D01*
X92904Y-44195D02*
X92919Y-44180D01*
X92919Y-44180D02*
X92933Y-44164D01*
X92933Y-44164D02*
X92944Y-44148D01*
X92944Y-44148D02*
X92952Y-44130D01*
X92952Y-44130D02*
X92956Y-44111D01*
X92956Y-44111D02*
X92955Y-44093D01*
X92955Y-44093D02*
X92951Y-44075D01*
X92951Y-44075D02*
X92944Y-44058D01*
X92944Y-44058D02*
X92934Y-44043D01*
X92934Y-44043D02*
X92920Y-44030D01*
X92920Y-44030D02*
X92903Y-44021D01*
X92903Y-44021D02*
X92883Y-44017D01*
X92883Y-44017D02*
X92864Y-44016D01*
X92864Y-44016D02*
X92846Y-44014D01*
X92846Y-44014D02*
X92826Y-44012D01*
X92826Y-44012D02*
X92807Y-44010D01*
X92807Y-44010D02*
X92787Y-44006D01*
X92787Y-44006D02*
X92768Y-44002D01*
X92768Y-44002D02*
X92749Y-43996D01*
X92749Y-43996D02*
X92731Y-43990D01*
X92731Y-43990D02*
X92714Y-43981D01*
X92714Y-43981D02*
X92698Y-43972D01*
X92698Y-43972D02*
X92683Y-43960D01*
X92683Y-43960D02*
X92670Y-43946D01*
X92670Y-43946D02*
X92659Y-43931D01*
X92659Y-43931D02*
X92650Y-43913D01*
X92650Y-43913D02*
X92643Y-43893D01*
X92643Y-43893D02*
X92638Y-43873D01*
X92638Y-43873D02*
X92634Y-43854D01*
X92634Y-43854D02*
X92632Y-43834D01*
X92632Y-43834D02*
X92631Y-43814D01*
X92631Y-43814D02*
X92630Y-43794D01*
X92630Y-43794D02*
X92631Y-43773D01*
X92631Y-43773D02*
X92632Y-43752D01*
X92632Y-43752D02*
X92633Y-43731D01*
X92633Y-43731D02*
X92635Y-43710D01*
X92635Y-43710D02*
X92636Y-43688D01*
X92636Y-43688D02*
X92636Y-43665D01*
X92636Y-43665D02*
X92636Y-43642D01*
X92636Y-43642D02*
X92637Y-43622D01*
X92637Y-43622D02*
X92642Y-43603D01*
X92642Y-43603D02*
X92648Y-43585D01*
X92648Y-43585D02*
X92658Y-43568D01*
X92658Y-43568D02*
X92669Y-43552D01*
X92669Y-43552D02*
X92682Y-43538D01*
X92682Y-43538D02*
X92697Y-43526D01*
X92697Y-43526D02*
X92714Y-43515D01*
X92714Y-43515D02*
X92731Y-43505D01*
X92731Y-43505D02*
X92750Y-43498D01*
X92750Y-43498D02*
X92769Y-43493D01*
X92769Y-43493D02*
X92789Y-43489D01*
X92789Y-43489D02*
X92809Y-43488D01*
X92809Y-43488D02*
X92831Y-43488D01*
X92831Y-43488D02*
X92853Y-43488D01*
X92853Y-43488D02*
X92874Y-43487D01*
X92874Y-43487D02*
X92894Y-43483D01*
X92894Y-43483D02*
X92912Y-43476D01*
X92912Y-43476D02*
X92928Y-43465D01*
X92928Y-43465D02*
X92939Y-43452D01*
X92939Y-43452D02*
X92950Y-43437D01*
X92950Y-43437D02*
X92958Y-43421D01*
X92958Y-43421D02*
X92961Y-43403D01*
X92961Y-43403D02*
X92959Y-43385D01*
X92959Y-43385D02*
X92949Y-43368D01*
X92949Y-43368D02*
X92936Y-43353D01*
X92936Y-43353D02*
X92923Y-43338D01*
X92923Y-43338D02*
X92910Y-43322D01*
X92910Y-43322D02*
X92897Y-43306D01*
X92897Y-43306D02*
X92885Y-43289D01*
X92885Y-43289D02*
X92874Y-43271D01*
X92874Y-43271D02*
X92863Y-43254D01*
X92863Y-43254D02*
X92854Y-43235D01*
X92854Y-43235D02*
X92846Y-43217D01*
X92846Y-43217D02*
X92841Y-43198D01*
X92841Y-43198D02*
X92838Y-43178D01*
X92838Y-43178D02*
X92837Y-43158D01*
X92837Y-43158D02*
X92839Y-43138D01*
X92839Y-43138D02*
X92845Y-43118D01*
X92845Y-43118D02*
X92853Y-43098D01*
X92853Y-43098D02*
X92863Y-43078D01*
X92863Y-43078D02*
X92875Y-43059D01*
X92875Y-43059D02*
X92889Y-43041D01*
X92889Y-43041D02*
X92903Y-43024D01*
X92903Y-43024D02*
X92919Y-43008D01*
X92919Y-43008D02*
X92935Y-42992D01*
X92935Y-42992D02*
X92951Y-42977D01*
X92951Y-42977D02*
X92967Y-42962D01*
X92967Y-42962D02*
X92982Y-42949D01*
X92982Y-42949D02*
X92997Y-42936D01*
X92997Y-42936D02*
X93010Y-42924D01*
X93010Y-42924D02*
X93022Y-42913D01*
X93022Y-42913D02*
X93037Y-42900D01*
X93037Y-42900D02*
X93053Y-42889D01*
X93053Y-42889D02*
X93071Y-42880D01*
X93071Y-42880D02*
X93090Y-42874D01*
X93090Y-42874D02*
X93109Y-42871D01*
X93109Y-42871D02*
X93129Y-42870D01*
X93129Y-42870D02*
X93149Y-42871D01*
X93149Y-42871D02*
X93168Y-42874D01*
X93168Y-42874D02*
X93187Y-42880D01*
X93187Y-42880D02*
X93206Y-42887D01*
X93206Y-42887D02*
X93224Y-42897D01*
X93224Y-42897D02*
X93240Y-42909D01*
X93240Y-42909D02*
X93254Y-42922D01*
X93254Y-42922D02*
X93268Y-42936D01*
X93268Y-42936D02*
X93282Y-42950D01*
X93282Y-42950D02*
X93297Y-42963D01*
X93297Y-42963D02*
X93312Y-42975D01*
X93312Y-42975D02*
X93328Y-42984D01*
X93328Y-42984D02*
X93344Y-42991D01*
X93344Y-42991D02*
X93362Y-42993D01*
X93362Y-42993D02*
X93378Y-42992D01*
X93378Y-42992D02*
X93395Y-42990D01*
X93395Y-42990D02*
X93411Y-42985D01*
X93411Y-42985D02*
X93426Y-42977D01*
X93426Y-42977D02*
X93437Y-42965D01*
X93437Y-42965D02*
X93442Y-42948D01*
X93442Y-42948D02*
X93443Y-42930D01*
X93443Y-42930D02*
X93444Y-42911D01*
X93444Y-42911D02*
X93446Y-42891D01*
X93446Y-42891D02*
X93447Y-42871D01*
X93447Y-42871D02*
X93449Y-42851D01*
X93449Y-42851D02*
X93451Y-42831D01*
X93451Y-42831D02*
X93454Y-42811D01*
X93454Y-42811D02*
X93458Y-42792D01*
X93458Y-42792D02*
X93463Y-42773D01*
X93463Y-42773D02*
X93469Y-42755D01*
X93469Y-42755D02*
X93477Y-42739D01*
X93477Y-42739D02*
X93486Y-42724D01*
X93486Y-42724D02*
X93497Y-42711D01*
X93497Y-42711D02*
X93510Y-42699D01*
X93510Y-42699D02*
X93525Y-42690D01*
X93525Y-42690D02*
X93542Y-42684D01*
X93542Y-42684D02*
X93568Y-42677D01*
X93568Y-42677D02*
X93591Y-42671D01*
X93591Y-42671D02*
X93613Y-42667D01*
X93613Y-42667D02*
X93635Y-42663D01*
X93635Y-42663D02*
X93655Y-42661D01*
X93655Y-42661D02*
X93675Y-42659D01*
X93675Y-42659D02*
X93694Y-42658D01*
X93694Y-42658D02*
X93714Y-42658D01*
X93714Y-42658D02*
X93733Y-42659D01*
G54D12*
X102700Y-46750D03*
G54D13*
X96000Y-44500D03*
X100000Y-44500D03*
G54D14*
X98000Y-41300D03*
G54D15*
X96000Y-41300D03*
X92300Y-45250D03*
G54D14*
X92300Y-42250D03*
G54D15*
X95500Y-46500D03*
G54D14*
X100100Y-41300D03*
X103700Y-42250D03*
G54D15*
X103700Y-45250D03*
G54D16*
X99500Y-45500D03*
X96500Y-45500D03*
G54D14*
X96500Y-46500D03*
G54D15*
X99500Y-46500D03*
G54D17*
X97625Y-46450D03*
X98375Y-46450D03*
X97625Y-44700D03*
X98375Y-44700D03*
G54D18*
X97500Y-45500D03*
X98500Y-45500D03*
G54D14*
X100500Y-46500D03*
G54D12*
X93300Y-46750D03*
G54D15*
X101250Y-41300D03*
G54D19*
X99000Y-41500D02*
X98984Y-41728D01*
G54D20*
X97015Y-41925D03*
X96500Y-42500D03*
G54D12*
X98000Y-43500D03*
G54D21*
X96000Y-43500D03*
X100000Y-43500D03*
M02*
