G04 (created by PCBNEW (2013-may-18)-stable) date Thu 17 Sep 2015 08:38:54 AM EDT*
%MOIN*%
G04 Gerber Fmt 3.4, Leading zero omitted, Abs format*
%FSLAX34Y34*%
G01*
G70*
G90*
G04 APERTURE LIST*
%ADD10C,0.00590551*%
%ADD11C,0.0001*%
%ADD12C,0.157*%
%ADD13C,0.065*%
%ADD14C,0.0590551*%
%ADD15R,0.0590551X0.0590551*%
%ADD16C,0.055*%
%ADD17R,0.035X0.055*%
%ADD18C,0.066*%
%ADD19C,0.09*%
%ADD20C,0.09*%
%ADD21C,0.067*%
G04 APERTURE END LIST*
G54D10*
G54D11*
G36*
X103427Y-43704D02*
X103427Y-43725D01*
X103427Y-43745D01*
X103427Y-43764D01*
X103427Y-43781D01*
X103427Y-43796D01*
X103427Y-43811D01*
X103426Y-43823D01*
X103426Y-43835D01*
X103426Y-43846D01*
X103426Y-43855D01*
X103426Y-43864D01*
X103426Y-43871D01*
X103426Y-43878D01*
X103425Y-43884D01*
X103425Y-43889D01*
X103425Y-43894D01*
X103424Y-43898D01*
X103424Y-43901D01*
X103424Y-43905D01*
X103423Y-43907D01*
X103423Y-43910D01*
X103422Y-43912D01*
X103422Y-43915D01*
X103421Y-43917D01*
X103421Y-43919D01*
X103420Y-43921D01*
X103420Y-43924D01*
X103419Y-43926D01*
X103418Y-43928D01*
X103415Y-43940D01*
X103412Y-43951D01*
X103408Y-43961D01*
X103403Y-43972D01*
X103398Y-43983D01*
X103386Y-44005D01*
X103372Y-44025D01*
X103357Y-44044D01*
X103340Y-44062D01*
X103322Y-44078D01*
X103302Y-44092D01*
X103281Y-44105D01*
X103271Y-44110D01*
X103252Y-44119D01*
X103233Y-44126D01*
X103213Y-44131D01*
X103192Y-44136D01*
X103189Y-44136D01*
X103175Y-44139D01*
X102656Y-44139D01*
X102623Y-44139D01*
X102589Y-44139D01*
X102556Y-44139D01*
X102524Y-44139D01*
X102493Y-44139D01*
X102462Y-44139D01*
X102433Y-44139D01*
X102404Y-44139D01*
X102376Y-44139D01*
X102349Y-44139D01*
X102324Y-44139D01*
X102299Y-44139D01*
X102276Y-44139D01*
X102255Y-44139D01*
X102235Y-44139D01*
X102216Y-44139D01*
X102199Y-44139D01*
X102184Y-44139D01*
X102170Y-44139D01*
X102158Y-44139D01*
X102148Y-44139D01*
X102140Y-44138D01*
X102134Y-44138D01*
X102130Y-44138D01*
X102128Y-44138D01*
X102128Y-44138D01*
X102103Y-44135D01*
X102079Y-44129D01*
X102056Y-44122D01*
X102034Y-44112D01*
X102012Y-44101D01*
X101992Y-44088D01*
X101973Y-44074D01*
X101955Y-44057D01*
X101939Y-44040D01*
X101924Y-44020D01*
X101911Y-44000D01*
X101902Y-43983D01*
X101897Y-43972D01*
X101892Y-43961D01*
X101888Y-43950D01*
X101885Y-43940D01*
X101882Y-43928D01*
X101881Y-43925D01*
X101880Y-43922D01*
X101880Y-43920D01*
X101879Y-43918D01*
X101878Y-43916D01*
X101878Y-43913D01*
X101877Y-43911D01*
X101877Y-43909D01*
X101876Y-43906D01*
X101876Y-43903D01*
X101876Y-43900D01*
X101875Y-43896D01*
X101875Y-43892D01*
X101875Y-43887D01*
X101875Y-43881D01*
X101874Y-43875D01*
X101874Y-43868D01*
X101874Y-43860D01*
X101874Y-43851D01*
X101874Y-43841D01*
X101874Y-43830D01*
X101874Y-43817D01*
X101873Y-43804D01*
X101873Y-43789D01*
X101873Y-43773D01*
X101873Y-43755D01*
X101873Y-43736D01*
X101873Y-43715D01*
X101873Y-43693D01*
X101873Y-43669D01*
X101873Y-43643D01*
X101873Y-43615D01*
X101873Y-43585D01*
X101873Y-43553D01*
X101873Y-43519D01*
X101873Y-43500D01*
X101873Y-43466D01*
X101873Y-43433D01*
X101873Y-43402D01*
X101873Y-43373D01*
X101873Y-43346D01*
X101873Y-43321D01*
X101873Y-43297D01*
X101873Y-43276D01*
X101873Y-43256D01*
X101873Y-43237D01*
X101873Y-43220D01*
X101873Y-43205D01*
X101873Y-43191D01*
X101874Y-43178D01*
X101874Y-43166D01*
X101874Y-43155D01*
X101874Y-43146D01*
X101874Y-43137D01*
X101874Y-43130D01*
X101874Y-43123D01*
X101875Y-43117D01*
X101875Y-43112D01*
X101875Y-43107D01*
X101876Y-43103D01*
X101876Y-43100D01*
X101876Y-43097D01*
X101877Y-43094D01*
X101877Y-43091D01*
X101878Y-43089D01*
X101878Y-43087D01*
X101879Y-43084D01*
X101879Y-43082D01*
X101880Y-43080D01*
X101880Y-43077D01*
X101881Y-43075D01*
X101882Y-43073D01*
X101885Y-43061D01*
X101888Y-43050D01*
X101892Y-43040D01*
X101897Y-43029D01*
X101902Y-43018D01*
X101914Y-42996D01*
X101928Y-42976D01*
X101943Y-42956D01*
X101960Y-42939D01*
X101979Y-42922D01*
X101999Y-42908D01*
X102008Y-42902D01*
X102018Y-42897D01*
X102028Y-42891D01*
X102039Y-42886D01*
X102049Y-42882D01*
X102057Y-42879D01*
X102066Y-42876D01*
X102076Y-42873D01*
X102088Y-42870D01*
X102100Y-42867D01*
X102110Y-42865D01*
X102115Y-42864D01*
X102117Y-42864D01*
X102118Y-42864D01*
X102119Y-42864D01*
X102121Y-42864D01*
X102123Y-42863D01*
X102125Y-42863D01*
X102128Y-42863D01*
X102131Y-42863D01*
X102135Y-42863D01*
X102139Y-42863D01*
X102144Y-42863D01*
X102149Y-42863D01*
X102156Y-42863D01*
X102163Y-42863D01*
X102171Y-42863D01*
X102180Y-42863D01*
X102190Y-42862D01*
X102201Y-42862D01*
X102213Y-42862D01*
X102227Y-42862D01*
X102241Y-42862D01*
X102257Y-42862D01*
X102275Y-42862D01*
X102293Y-42862D01*
X102314Y-42862D01*
X102335Y-42862D01*
X102359Y-42862D01*
X102384Y-42862D01*
X102411Y-42862D01*
X102440Y-42862D01*
X102470Y-42862D01*
X102502Y-42862D01*
X102537Y-42862D01*
X102573Y-42862D01*
X102612Y-42862D01*
X102650Y-42862D01*
X102690Y-42862D01*
X102729Y-42862D01*
X102765Y-42862D01*
X102799Y-42862D01*
X102832Y-42862D01*
X102862Y-42862D01*
X102891Y-42862D01*
X102917Y-42862D01*
X102942Y-42862D01*
X102966Y-42862D01*
X102987Y-42862D01*
X103008Y-42862D01*
X103026Y-42862D01*
X103044Y-42862D01*
X103059Y-42862D01*
X103074Y-42862D01*
X103087Y-42862D01*
X103100Y-42862D01*
X103111Y-42862D01*
X103121Y-42863D01*
X103129Y-42863D01*
X103138Y-42863D01*
X103145Y-42863D01*
X103151Y-42863D01*
X103156Y-42863D01*
X103161Y-42863D01*
X103166Y-42863D01*
X103169Y-42863D01*
X103172Y-42863D01*
X103175Y-42863D01*
X103177Y-42863D01*
X103179Y-42864D01*
X103181Y-42864D01*
X103182Y-42864D01*
X103183Y-42864D01*
X103185Y-42864D01*
X103195Y-42866D01*
X103206Y-42868D01*
X103218Y-42871D01*
X103229Y-42874D01*
X103239Y-42877D01*
X103243Y-42879D01*
X103253Y-42883D01*
X103263Y-42887D01*
X103274Y-42893D01*
X103285Y-42898D01*
X103294Y-42904D01*
X103301Y-42908D01*
X103321Y-42923D01*
X103340Y-42939D01*
X103357Y-42957D01*
X103372Y-42976D01*
X103386Y-42996D01*
X103398Y-43018D01*
X103403Y-43029D01*
X103408Y-43040D01*
X103412Y-43051D01*
X103415Y-43062D01*
X103418Y-43073D01*
X103419Y-43076D01*
X103420Y-43079D01*
X103420Y-43081D01*
X103421Y-43083D01*
X103422Y-43085D01*
X103422Y-43088D01*
X103423Y-43090D01*
X103423Y-43092D01*
X103424Y-43095D01*
X103424Y-43098D01*
X103424Y-43101D01*
X103425Y-43105D01*
X103425Y-43109D01*
X103425Y-43114D01*
X103425Y-43120D01*
X103426Y-43126D01*
X103426Y-43133D01*
X103426Y-43141D01*
X103426Y-43150D01*
X103426Y-43160D01*
X103426Y-43171D01*
X103426Y-43184D01*
X103427Y-43197D01*
X103427Y-43212D01*
X103427Y-43228D01*
X103427Y-43246D01*
X103427Y-43265D01*
X103427Y-43286D01*
X103427Y-43308D01*
X103427Y-43332D01*
X103427Y-43359D01*
X103427Y-43386D01*
X103427Y-43416D01*
X103427Y-43448D01*
X103427Y-43482D01*
X103427Y-43500D01*
X103427Y-43535D01*
X103427Y-43568D01*
X103427Y-43599D01*
X103427Y-43628D01*
X103427Y-43655D01*
X103427Y-43680D01*
X103427Y-43704D01*
X103427Y-43704D01*
X103427Y-43704D01*
G37*
G54D12*
X102700Y-46750D03*
G54D13*
X96000Y-44500D03*
X100000Y-44500D03*
G54D14*
X98000Y-41300D03*
G54D15*
X96000Y-41300D03*
X92300Y-45250D03*
G54D14*
X92300Y-42250D03*
G54D15*
X95500Y-46500D03*
G54D14*
X100100Y-41300D03*
X103700Y-42250D03*
G54D15*
X103700Y-45250D03*
G54D16*
X99500Y-45500D03*
X96500Y-45500D03*
G54D14*
X96500Y-46500D03*
G54D15*
X99500Y-46500D03*
G54D17*
X97625Y-46450D03*
X98375Y-46450D03*
X97625Y-44700D03*
X98375Y-44700D03*
G54D18*
X97500Y-45500D03*
X98500Y-45500D03*
G54D19*
X99000Y-41500D02*
X98984Y-41728D01*
G54D20*
X97015Y-41925D03*
X96500Y-42500D03*
G54D12*
X98000Y-43500D03*
G54D21*
X96000Y-43500D03*
X100000Y-43500D03*
G54D14*
X100500Y-46500D03*
G54D12*
X93300Y-46750D03*
G54D15*
X101250Y-41300D03*
M02*
