G04 (created by PCBNEW (2013-may-18)-stable) date Wed 16 Sep 2015 11:08:44 PM EDT*
%MOIN*%
G04 Gerber Fmt 3.4, Leading zero omitted, Abs format*
%FSLAX34Y34*%
G01*
G70*
G90*
G04 APERTURE LIST*
%ADD10C,0.00590551*%
%ADD11C,0.0001*%
%ADD12C,0.157*%
%ADD13C,0.065*%
%ADD14C,0.0590551*%
%ADD15R,0.0590551X0.0590551*%
%ADD16C,0.055*%
%ADD17R,0.035X0.055*%
%ADD18C,0.066*%
%ADD19C,0.09*%
%ADD20C,0.09*%
%ADD21C,0.067*%
G04 APERTURE END LIST*
G54D10*
G54D11*
G36*
X102777Y-43704D02*
X102777Y-43725D01*
X102777Y-43745D01*
X102777Y-43764D01*
X102777Y-43781D01*
X102777Y-43796D01*
X102777Y-43811D01*
X102776Y-43823D01*
X102776Y-43835D01*
X102776Y-43846D01*
X102776Y-43855D01*
X102776Y-43864D01*
X102776Y-43871D01*
X102776Y-43878D01*
X102775Y-43884D01*
X102775Y-43889D01*
X102775Y-43894D01*
X102774Y-43898D01*
X102774Y-43901D01*
X102774Y-43905D01*
X102773Y-43907D01*
X102773Y-43910D01*
X102772Y-43912D01*
X102772Y-43915D01*
X102771Y-43917D01*
X102771Y-43919D01*
X102770Y-43921D01*
X102770Y-43924D01*
X102769Y-43926D01*
X102768Y-43928D01*
X102765Y-43940D01*
X102762Y-43951D01*
X102758Y-43961D01*
X102753Y-43972D01*
X102748Y-43983D01*
X102736Y-44005D01*
X102722Y-44025D01*
X102707Y-44044D01*
X102690Y-44062D01*
X102672Y-44078D01*
X102652Y-44092D01*
X102631Y-44105D01*
X102621Y-44110D01*
X102602Y-44119D01*
X102583Y-44126D01*
X102563Y-44131D01*
X102542Y-44136D01*
X102539Y-44136D01*
X102525Y-44139D01*
X102006Y-44139D01*
X101973Y-44139D01*
X101939Y-44139D01*
X101906Y-44139D01*
X101874Y-44139D01*
X101843Y-44139D01*
X101812Y-44139D01*
X101783Y-44139D01*
X101754Y-44139D01*
X101726Y-44139D01*
X101699Y-44139D01*
X101674Y-44139D01*
X101649Y-44139D01*
X101626Y-44139D01*
X101605Y-44139D01*
X101585Y-44139D01*
X101566Y-44139D01*
X101549Y-44139D01*
X101534Y-44139D01*
X101520Y-44139D01*
X101508Y-44139D01*
X101498Y-44139D01*
X101490Y-44138D01*
X101484Y-44138D01*
X101480Y-44138D01*
X101478Y-44138D01*
X101478Y-44138D01*
X101453Y-44135D01*
X101429Y-44129D01*
X101406Y-44122D01*
X101384Y-44112D01*
X101362Y-44101D01*
X101342Y-44088D01*
X101323Y-44074D01*
X101305Y-44057D01*
X101289Y-44040D01*
X101274Y-44020D01*
X101261Y-44000D01*
X101252Y-43983D01*
X101247Y-43972D01*
X101242Y-43961D01*
X101238Y-43950D01*
X101235Y-43940D01*
X101232Y-43928D01*
X101231Y-43925D01*
X101230Y-43922D01*
X101230Y-43920D01*
X101229Y-43918D01*
X101228Y-43916D01*
X101228Y-43913D01*
X101227Y-43911D01*
X101227Y-43909D01*
X101226Y-43906D01*
X101226Y-43903D01*
X101226Y-43900D01*
X101225Y-43896D01*
X101225Y-43892D01*
X101225Y-43887D01*
X101225Y-43881D01*
X101224Y-43875D01*
X101224Y-43868D01*
X101224Y-43860D01*
X101224Y-43851D01*
X101224Y-43841D01*
X101224Y-43830D01*
X101224Y-43817D01*
X101223Y-43804D01*
X101223Y-43789D01*
X101223Y-43773D01*
X101223Y-43755D01*
X101223Y-43736D01*
X101223Y-43715D01*
X101223Y-43693D01*
X101223Y-43669D01*
X101223Y-43643D01*
X101223Y-43615D01*
X101223Y-43585D01*
X101223Y-43553D01*
X101223Y-43519D01*
X101223Y-43500D01*
X101223Y-43466D01*
X101223Y-43433D01*
X101223Y-43402D01*
X101223Y-43373D01*
X101223Y-43346D01*
X101223Y-43321D01*
X101223Y-43297D01*
X101223Y-43276D01*
X101223Y-43256D01*
X101223Y-43237D01*
X101223Y-43220D01*
X101223Y-43205D01*
X101223Y-43191D01*
X101224Y-43178D01*
X101224Y-43166D01*
X101224Y-43155D01*
X101224Y-43146D01*
X101224Y-43137D01*
X101224Y-43130D01*
X101224Y-43123D01*
X101225Y-43117D01*
X101225Y-43112D01*
X101225Y-43107D01*
X101226Y-43103D01*
X101226Y-43100D01*
X101226Y-43097D01*
X101227Y-43094D01*
X101227Y-43091D01*
X101228Y-43089D01*
X101228Y-43087D01*
X101229Y-43084D01*
X101229Y-43082D01*
X101230Y-43080D01*
X101230Y-43077D01*
X101231Y-43075D01*
X101232Y-43073D01*
X101235Y-43061D01*
X101238Y-43050D01*
X101242Y-43040D01*
X101247Y-43029D01*
X101252Y-43018D01*
X101264Y-42996D01*
X101278Y-42976D01*
X101293Y-42956D01*
X101310Y-42939D01*
X101329Y-42922D01*
X101349Y-42908D01*
X101358Y-42902D01*
X101368Y-42897D01*
X101378Y-42891D01*
X101389Y-42886D01*
X101399Y-42882D01*
X101407Y-42879D01*
X101416Y-42876D01*
X101426Y-42873D01*
X101438Y-42870D01*
X101450Y-42867D01*
X101460Y-42865D01*
X101465Y-42864D01*
X101467Y-42864D01*
X101468Y-42864D01*
X101469Y-42864D01*
X101471Y-42864D01*
X101473Y-42863D01*
X101475Y-42863D01*
X101478Y-42863D01*
X101481Y-42863D01*
X101485Y-42863D01*
X101489Y-42863D01*
X101494Y-42863D01*
X101499Y-42863D01*
X101506Y-42863D01*
X101513Y-42863D01*
X101521Y-42863D01*
X101530Y-42863D01*
X101540Y-42862D01*
X101551Y-42862D01*
X101563Y-42862D01*
X101577Y-42862D01*
X101591Y-42862D01*
X101607Y-42862D01*
X101625Y-42862D01*
X101643Y-42862D01*
X101664Y-42862D01*
X101685Y-42862D01*
X101709Y-42862D01*
X101734Y-42862D01*
X101761Y-42862D01*
X101790Y-42862D01*
X101820Y-42862D01*
X101852Y-42862D01*
X101887Y-42862D01*
X101923Y-42862D01*
X101962Y-42862D01*
X102000Y-42862D01*
X102040Y-42862D01*
X102079Y-42862D01*
X102115Y-42862D01*
X102149Y-42862D01*
X102182Y-42862D01*
X102212Y-42862D01*
X102241Y-42862D01*
X102267Y-42862D01*
X102292Y-42862D01*
X102316Y-42862D01*
X102337Y-42862D01*
X102358Y-42862D01*
X102376Y-42862D01*
X102394Y-42862D01*
X102409Y-42862D01*
X102424Y-42862D01*
X102437Y-42862D01*
X102450Y-42862D01*
X102461Y-42862D01*
X102471Y-42863D01*
X102479Y-42863D01*
X102488Y-42863D01*
X102495Y-42863D01*
X102501Y-42863D01*
X102506Y-42863D01*
X102511Y-42863D01*
X102516Y-42863D01*
X102519Y-42863D01*
X102522Y-42863D01*
X102525Y-42863D01*
X102527Y-42863D01*
X102529Y-42864D01*
X102531Y-42864D01*
X102532Y-42864D01*
X102533Y-42864D01*
X102535Y-42864D01*
X102545Y-42866D01*
X102556Y-42868D01*
X102568Y-42871D01*
X102579Y-42874D01*
X102589Y-42877D01*
X102593Y-42879D01*
X102603Y-42883D01*
X102613Y-42887D01*
X102624Y-42893D01*
X102635Y-42898D01*
X102644Y-42904D01*
X102651Y-42908D01*
X102671Y-42923D01*
X102690Y-42939D01*
X102707Y-42957D01*
X102722Y-42976D01*
X102736Y-42996D01*
X102748Y-43018D01*
X102753Y-43029D01*
X102758Y-43040D01*
X102762Y-43051D01*
X102765Y-43062D01*
X102768Y-43073D01*
X102769Y-43076D01*
X102770Y-43079D01*
X102770Y-43081D01*
X102771Y-43083D01*
X102772Y-43085D01*
X102772Y-43088D01*
X102773Y-43090D01*
X102773Y-43092D01*
X102774Y-43095D01*
X102774Y-43098D01*
X102774Y-43101D01*
X102775Y-43105D01*
X102775Y-43109D01*
X102775Y-43114D01*
X102775Y-43120D01*
X102776Y-43126D01*
X102776Y-43133D01*
X102776Y-43141D01*
X102776Y-43150D01*
X102776Y-43160D01*
X102776Y-43171D01*
X102776Y-43184D01*
X102777Y-43197D01*
X102777Y-43212D01*
X102777Y-43228D01*
X102777Y-43246D01*
X102777Y-43265D01*
X102777Y-43286D01*
X102777Y-43308D01*
X102777Y-43332D01*
X102777Y-43359D01*
X102777Y-43386D01*
X102777Y-43416D01*
X102777Y-43448D01*
X102777Y-43482D01*
X102777Y-43500D01*
X102777Y-43535D01*
X102777Y-43568D01*
X102777Y-43599D01*
X102777Y-43628D01*
X102777Y-43655D01*
X102777Y-43680D01*
X102777Y-43704D01*
X102777Y-43704D01*
X102777Y-43704D01*
G37*
G54D12*
X102700Y-46750D03*
G54D13*
X96000Y-44500D03*
X100000Y-44500D03*
G54D14*
X98000Y-41300D03*
G54D15*
X96000Y-41300D03*
X92950Y-45250D03*
G54D14*
X92950Y-42250D03*
G54D15*
X95500Y-46500D03*
G54D14*
X100100Y-41300D03*
X103050Y-42250D03*
G54D15*
X103050Y-45250D03*
G54D16*
X99500Y-45500D03*
X96500Y-45500D03*
G54D14*
X96500Y-46500D03*
G54D15*
X99500Y-46500D03*
G54D17*
X97625Y-46450D03*
X98375Y-46450D03*
X97625Y-44700D03*
X98375Y-44700D03*
G54D18*
X97500Y-45500D03*
X98500Y-45500D03*
G54D19*
X99000Y-41500D02*
X98984Y-41728D01*
G54D20*
X97015Y-41925D03*
X96500Y-42500D03*
G54D12*
X98000Y-43500D03*
G54D21*
X96000Y-43500D03*
X100000Y-43500D03*
G54D14*
X100500Y-46500D03*
G54D12*
X93300Y-46750D03*
G54D15*
X101250Y-41300D03*
M02*
