G04 (created by PCBNEW (2013-may-18)-stable) date Sun 03 Jan 2016 02:51:13 PM EST*
%MOIN*%
G04 Gerber Fmt 3.4, Leading zero omitted, Abs format*
%FSLAX34Y34*%
G01*
G70*
G90*
G04 APERTURE LIST*
%ADD10C,0.00590551*%
%ADD11C,0.00472441*%
%ADD12C,0.0001*%
%ADD13C,0.01*%
%ADD14C,0.006*%
%ADD15C,0.015*%
G04 APERTURE END LIST*
G54D10*
G54D11*
X93240Y-43917D02*
X93289Y-44127D01*
X93390Y-43917D01*
X93649Y-44127D02*
X93469Y-44127D01*
X93559Y-44127D02*
X93598Y-43812D01*
X93562Y-43857D01*
X93529Y-43887D01*
X93497Y-43902D01*
X93787Y-44097D02*
X93800Y-44112D01*
X93784Y-44127D01*
X93770Y-44112D01*
X93787Y-44097D01*
X93784Y-44127D01*
X94123Y-43812D02*
X93973Y-43812D01*
X93939Y-43962D01*
X93956Y-43947D01*
X93988Y-43932D01*
X94063Y-43932D01*
X94091Y-43947D01*
X94104Y-43962D01*
X94115Y-43992D01*
X94106Y-44067D01*
X94087Y-44097D01*
X94070Y-44112D01*
X94039Y-44127D01*
X93964Y-44127D01*
X93935Y-44112D01*
X93922Y-44097D01*
G54D12*
G36*
X99721Y-42821D02*
X99763Y-42821D01*
X99763Y-42632D01*
X99721Y-42632D01*
X99721Y-42821D01*
X99721Y-42821D01*
G37*
G36*
X99763Y-42604D02*
X99763Y-42571D01*
X99721Y-42571D01*
X99721Y-42604D01*
X99763Y-42604D01*
X99763Y-42604D01*
G37*
G36*
X99791Y-42821D02*
X99833Y-42821D01*
X99833Y-42674D01*
X99833Y-42670D01*
X99835Y-42666D01*
X99839Y-42664D01*
X99843Y-42664D01*
X99885Y-42664D01*
X99903Y-42667D01*
X99915Y-42675D01*
X99921Y-42691D01*
X99923Y-42709D01*
X99923Y-42821D01*
X99965Y-42821D01*
X99965Y-42696D01*
X99963Y-42679D01*
X99959Y-42665D01*
X99953Y-42655D01*
X99946Y-42647D01*
X99934Y-42639D01*
X99921Y-42634D01*
X99908Y-42632D01*
X99893Y-42632D01*
X99826Y-42632D01*
X99812Y-42633D01*
X99798Y-42640D01*
X99792Y-42651D01*
X99791Y-42661D01*
X99791Y-42821D01*
X99791Y-42821D01*
X99791Y-42821D01*
G37*
G36*
X99990Y-42821D02*
X100111Y-42821D01*
X100126Y-42820D01*
X100142Y-42813D01*
X100152Y-42799D01*
X100156Y-42788D01*
X100158Y-42773D01*
X100155Y-42756D01*
X100146Y-42738D01*
X100138Y-42731D01*
X100128Y-42726D01*
X100115Y-42722D01*
X100099Y-42717D01*
X100058Y-42705D01*
X100053Y-42704D01*
X100047Y-42702D01*
X100040Y-42699D01*
X100035Y-42696D01*
X100029Y-42688D01*
X100029Y-42681D01*
X100029Y-42674D01*
X100034Y-42667D01*
X100041Y-42664D01*
X100049Y-42664D01*
X100149Y-42664D01*
X100149Y-42632D01*
X100042Y-42632D01*
X100030Y-42632D01*
X100018Y-42634D01*
X100007Y-42639D01*
X99997Y-42648D01*
X99989Y-42664D01*
X99988Y-42680D01*
X99989Y-42696D01*
X99997Y-42712D01*
X100013Y-42726D01*
X100024Y-42731D01*
X100038Y-42735D01*
X100075Y-42745D01*
X100091Y-42750D01*
X100100Y-42753D01*
X100106Y-42756D01*
X100109Y-42757D01*
X100113Y-42764D01*
X100114Y-42772D01*
X100114Y-42777D01*
X100111Y-42783D01*
X100104Y-42788D01*
X100097Y-42789D01*
X99990Y-42789D01*
X99990Y-42821D01*
X99990Y-42821D01*
X99990Y-42821D01*
G37*
G36*
X100223Y-42821D02*
X100223Y-42789D01*
X100223Y-42673D01*
X100226Y-42666D01*
X100228Y-42665D01*
X100232Y-42664D01*
X100273Y-42664D01*
X100285Y-42665D01*
X100296Y-42670D01*
X100309Y-42685D01*
X100312Y-42698D01*
X100314Y-42709D01*
X100314Y-42726D01*
X100313Y-42744D01*
X100312Y-42757D01*
X100306Y-42771D01*
X100294Y-42783D01*
X100284Y-42787D01*
X100270Y-42789D01*
X100223Y-42789D01*
X100223Y-42789D01*
X100223Y-42821D01*
X100276Y-42821D01*
X100292Y-42820D01*
X100309Y-42817D01*
X100327Y-42809D01*
X100342Y-42794D01*
X100350Y-42778D01*
X100355Y-42760D01*
X100357Y-42741D01*
X100357Y-42722D01*
X100357Y-42706D01*
X100354Y-42687D01*
X100348Y-42669D01*
X100337Y-42652D01*
X100323Y-42641D01*
X100307Y-42635D01*
X100293Y-42632D01*
X100282Y-42632D01*
X100215Y-42632D01*
X100204Y-42633D01*
X100192Y-42638D01*
X100185Y-42646D01*
X100181Y-42661D01*
X100181Y-42882D01*
X100223Y-42882D01*
X100223Y-42821D01*
X100223Y-42821D01*
X100223Y-42821D01*
G37*
G36*
X100381Y-42821D02*
X100422Y-42821D01*
X100422Y-42632D01*
X100381Y-42632D01*
X100381Y-42821D01*
X100381Y-42821D01*
G37*
G36*
X100422Y-42604D02*
X100422Y-42571D01*
X100381Y-42571D01*
X100381Y-42604D01*
X100422Y-42604D01*
X100422Y-42604D01*
G37*
G36*
X100451Y-42821D02*
X100493Y-42821D01*
X100493Y-42714D01*
X100495Y-42694D01*
X100502Y-42677D01*
X100520Y-42666D01*
X100538Y-42664D01*
X100556Y-42664D01*
X100556Y-42632D01*
X100527Y-42632D01*
X100515Y-42632D01*
X100500Y-42634D01*
X100485Y-42639D01*
X100471Y-42648D01*
X100461Y-42659D01*
X100455Y-42673D01*
X100452Y-42688D01*
X100451Y-42703D01*
X100451Y-42821D01*
X100451Y-42821D01*
X100451Y-42821D01*
G37*
G36*
X100742Y-42821D02*
X100742Y-42789D01*
X100649Y-42789D01*
X100637Y-42788D01*
X100626Y-42785D01*
X100617Y-42778D01*
X100611Y-42766D01*
X100609Y-42754D01*
X100608Y-42740D01*
X100695Y-42708D01*
X100608Y-42708D01*
X100608Y-42708D01*
X100610Y-42691D01*
X100617Y-42676D01*
X100626Y-42668D01*
X100637Y-42664D01*
X100647Y-42663D01*
X100657Y-42663D01*
X100675Y-42664D01*
X100692Y-42672D01*
X100701Y-42682D01*
X100705Y-42697D01*
X100703Y-42704D01*
X100695Y-42708D01*
X100608Y-42740D01*
X100718Y-42740D01*
X100729Y-42739D01*
X100739Y-42733D01*
X100746Y-42719D01*
X100748Y-42704D01*
X100747Y-42687D01*
X100742Y-42670D01*
X100734Y-42655D01*
X100721Y-42643D01*
X100707Y-42636D01*
X100691Y-42633D01*
X100675Y-42631D01*
X100658Y-42631D01*
X100643Y-42631D01*
X100624Y-42633D01*
X100605Y-42638D01*
X100588Y-42649D01*
X100575Y-42664D01*
X100569Y-42682D01*
X100566Y-42703D01*
X100565Y-42715D01*
X100565Y-42728D01*
X100566Y-42747D01*
X100567Y-42765D01*
X100571Y-42782D01*
X100579Y-42797D01*
X100592Y-42810D01*
X100606Y-42817D01*
X100622Y-42821D01*
X100637Y-42821D01*
X100742Y-42821D01*
X100742Y-42821D01*
X100742Y-42821D01*
G37*
G36*
X100900Y-42571D02*
X100900Y-42664D01*
X100900Y-42773D01*
X100900Y-42779D01*
X100897Y-42786D01*
X100891Y-42788D01*
X100886Y-42789D01*
X100853Y-42789D01*
X100843Y-42788D01*
X100832Y-42785D01*
X100822Y-42779D01*
X100814Y-42767D01*
X100811Y-42756D01*
X100810Y-42744D01*
X100809Y-42725D01*
X100810Y-42708D01*
X100812Y-42696D01*
X100818Y-42681D01*
X100825Y-42672D01*
X100834Y-42667D01*
X100853Y-42664D01*
X100900Y-42664D01*
X100900Y-42664D01*
X100900Y-42571D01*
X100900Y-42632D01*
X100844Y-42632D01*
X100830Y-42632D01*
X100814Y-42636D01*
X100796Y-42644D01*
X100788Y-42651D01*
X100781Y-42660D01*
X100773Y-42675D01*
X100769Y-42691D01*
X100767Y-42708D01*
X100766Y-42723D01*
X100767Y-42745D01*
X100769Y-42761D01*
X100772Y-42774D01*
X100775Y-42783D01*
X100781Y-42795D01*
X100788Y-42803D01*
X100804Y-42814D01*
X100820Y-42820D01*
X100836Y-42821D01*
X100910Y-42821D01*
X100924Y-42819D01*
X100936Y-42811D01*
X100941Y-42801D01*
X100942Y-42788D01*
X100942Y-42571D01*
X100900Y-42571D01*
X100900Y-42571D01*
X100900Y-42571D01*
G37*
G36*
X101054Y-42571D02*
X101054Y-42789D01*
X101095Y-42664D01*
X101141Y-42664D01*
X101151Y-42664D01*
X101162Y-42668D01*
X101172Y-42674D01*
X101180Y-42684D01*
X101183Y-42697D01*
X101185Y-42710D01*
X101186Y-42729D01*
X101185Y-42746D01*
X101183Y-42757D01*
X101180Y-42769D01*
X101171Y-42781D01*
X101160Y-42786D01*
X101150Y-42788D01*
X101140Y-42789D01*
X101110Y-42789D01*
X101103Y-42788D01*
X101098Y-42786D01*
X101095Y-42779D01*
X101095Y-42773D01*
X101095Y-42664D01*
X101095Y-42664D01*
X101054Y-42789D01*
X101055Y-42801D01*
X101062Y-42813D01*
X101076Y-42820D01*
X101092Y-42821D01*
X101152Y-42821D01*
X101169Y-42820D01*
X101187Y-42816D01*
X101203Y-42806D01*
X101217Y-42790D01*
X101222Y-42779D01*
X101226Y-42766D01*
X101228Y-42748D01*
X101229Y-42727D01*
X101229Y-42710D01*
X101227Y-42693D01*
X101223Y-42677D01*
X101217Y-42663D01*
X101203Y-42646D01*
X101186Y-42637D01*
X101168Y-42633D01*
X101151Y-42632D01*
X101095Y-42632D01*
X101095Y-42571D01*
X101054Y-42571D01*
X101054Y-42571D01*
X101054Y-42571D01*
G37*
G36*
X101441Y-42632D02*
X101398Y-42632D01*
X101334Y-42777D01*
X101273Y-42632D01*
X101230Y-42632D01*
X101314Y-42820D01*
X101285Y-42882D01*
X101328Y-42882D01*
X101441Y-42632D01*
X101441Y-42632D01*
G37*
G36*
X101497Y-42677D02*
X101497Y-42632D01*
X101454Y-42632D01*
X101454Y-42677D01*
X101497Y-42677D01*
X101497Y-42677D01*
G37*
G36*
X101072Y-42980D02*
X101075Y-42974D01*
X101079Y-42971D01*
X101082Y-42972D01*
X101084Y-42979D01*
X101083Y-43205D01*
X101137Y-43205D01*
X101137Y-42950D01*
X101134Y-42933D01*
X101124Y-42921D01*
X101109Y-42914D01*
X101091Y-42912D01*
X101076Y-42913D01*
X101062Y-42918D01*
X101049Y-42929D01*
X101039Y-42949D01*
X100964Y-43143D01*
X100960Y-43151D01*
X100956Y-43154D01*
X100952Y-43151D01*
X100949Y-43143D01*
X100873Y-42949D01*
X100867Y-42935D01*
X100857Y-42923D01*
X100843Y-42914D01*
X100822Y-42912D01*
X100811Y-42912D01*
X100796Y-42917D01*
X100782Y-42928D01*
X100777Y-42937D01*
X100776Y-42950D01*
X100776Y-43205D01*
X100830Y-43205D01*
X100829Y-42979D01*
X100829Y-42975D01*
X100834Y-42971D01*
X100838Y-42974D01*
X100841Y-42980D01*
X100915Y-43174D01*
X100920Y-43187D01*
X100928Y-43198D01*
X100939Y-43206D01*
X100956Y-43209D01*
X100973Y-43206D01*
X100984Y-43200D01*
X100991Y-43189D01*
X100998Y-43174D01*
X101072Y-42980D01*
X101072Y-42980D01*
X101072Y-42980D01*
G37*
G36*
X101378Y-43205D02*
X101378Y-43168D01*
X101271Y-43168D01*
X101257Y-43167D01*
X101244Y-43164D01*
X101233Y-43156D01*
X101226Y-43142D01*
X101224Y-43128D01*
X101223Y-43112D01*
X101223Y-43074D01*
X101225Y-43054D01*
X101233Y-43037D01*
X101244Y-43028D01*
X101257Y-43024D01*
X101269Y-43022D01*
X101279Y-43022D01*
X101301Y-43024D01*
X101311Y-43026D01*
X101321Y-43032D01*
X101330Y-43044D01*
X101335Y-43061D01*
X101333Y-43070D01*
X101324Y-43074D01*
X101223Y-43074D01*
X101223Y-43074D01*
X101223Y-43112D01*
X101351Y-43112D01*
X101364Y-43110D01*
X101375Y-43103D01*
X101384Y-43088D01*
X101385Y-43070D01*
X101384Y-43050D01*
X101379Y-43030D01*
X101369Y-43013D01*
X101354Y-42999D01*
X101338Y-42991D01*
X101320Y-42987D01*
X101301Y-42985D01*
X101281Y-42985D01*
X101263Y-42985D01*
X101242Y-42988D01*
X101230Y-42990D01*
X101219Y-42993D01*
X101209Y-42998D01*
X101199Y-43005D01*
X101191Y-43014D01*
X101185Y-43023D01*
X101180Y-43033D01*
X101177Y-43044D01*
X101175Y-43056D01*
X101174Y-43069D01*
X101173Y-43083D01*
X101173Y-43098D01*
X101174Y-43119D01*
X101176Y-43141D01*
X101180Y-43160D01*
X101189Y-43178D01*
X101204Y-43193D01*
X101221Y-43201D01*
X101239Y-43205D01*
X101256Y-43205D01*
X101378Y-43205D01*
X101378Y-43205D01*
X101378Y-43205D01*
G37*
G36*
X101412Y-43205D02*
X101461Y-43205D01*
X101461Y-42915D01*
X101412Y-42915D01*
X101412Y-43205D01*
X101412Y-43205D01*
G37*
G36*
X101518Y-42985D02*
X101468Y-42985D01*
X101552Y-43188D01*
X101559Y-43200D01*
X101568Y-43205D01*
X101578Y-43207D01*
X101586Y-43208D01*
X101595Y-43207D01*
X101604Y-43205D01*
X101612Y-43200D01*
X101619Y-43188D01*
X101703Y-42985D01*
X101653Y-42985D01*
X101591Y-43149D01*
X101589Y-43154D01*
X101586Y-43157D01*
X101582Y-43154D01*
X101580Y-43149D01*
X101518Y-42985D01*
X101518Y-42985D01*
X101518Y-42985D01*
G37*
G36*
X101720Y-42985D02*
X101720Y-43023D01*
X101829Y-43023D01*
X101841Y-43024D01*
X101852Y-43032D01*
X101857Y-43043D01*
X101858Y-43053D01*
X101858Y-43068D01*
X101858Y-43106D01*
X101858Y-43156D01*
X101858Y-43161D01*
X101855Y-43166D01*
X101849Y-43168D01*
X101844Y-43168D01*
X101777Y-43168D01*
X101768Y-43166D01*
X101761Y-43161D01*
X101755Y-43149D01*
X101754Y-43137D01*
X101756Y-43120D01*
X101760Y-43113D01*
X101769Y-43107D01*
X101778Y-43106D01*
X101858Y-43106D01*
X101858Y-43106D01*
X101858Y-43068D01*
X101763Y-43068D01*
X101744Y-43071D01*
X101733Y-43074D01*
X101723Y-43081D01*
X101713Y-43093D01*
X101707Y-43106D01*
X101705Y-43120D01*
X101704Y-43135D01*
X101705Y-43149D01*
X101707Y-43165D01*
X101712Y-43181D01*
X101723Y-43195D01*
X101733Y-43201D01*
X101743Y-43204D01*
X101763Y-43205D01*
X101868Y-43205D01*
X101884Y-43204D01*
X101898Y-43197D01*
X101905Y-43183D01*
X101907Y-43168D01*
X101907Y-43054D01*
X101906Y-43037D01*
X101902Y-43023D01*
X101897Y-43011D01*
X101891Y-43002D01*
X101882Y-42995D01*
X101871Y-42990D01*
X101859Y-42987D01*
X101845Y-42985D01*
X101720Y-42985D01*
X101720Y-42985D01*
X101720Y-42985D01*
G37*
G36*
X101940Y-43205D02*
X101989Y-43205D01*
X101989Y-43034D01*
X101989Y-43030D01*
X101991Y-43025D01*
X101995Y-43023D01*
X101999Y-43023D01*
X102049Y-43023D01*
X102070Y-43026D01*
X102084Y-43036D01*
X102091Y-43054D01*
X102093Y-43075D01*
X102093Y-43205D01*
X102141Y-43205D01*
X102141Y-43061D01*
X102140Y-43040D01*
X102135Y-43024D01*
X102128Y-43013D01*
X102120Y-43003D01*
X102106Y-42994D01*
X102091Y-42988D01*
X102075Y-42986D01*
X102058Y-42985D01*
X101981Y-42985D01*
X101964Y-42987D01*
X101947Y-42995D01*
X101941Y-43007D01*
X101940Y-43019D01*
X101940Y-43205D01*
X101940Y-43205D01*
X101940Y-43205D01*
G37*
G36*
X102184Y-43278D02*
X102288Y-43278D01*
X102303Y-43277D01*
X102323Y-43273D01*
X102333Y-43270D01*
X102330Y-43168D01*
X102273Y-43168D01*
X102251Y-43166D01*
X102240Y-43163D01*
X102231Y-43155D01*
X102227Y-43149D01*
X102223Y-43138D01*
X102220Y-43121D01*
X102219Y-43110D01*
X102219Y-43096D01*
X102219Y-43085D01*
X102220Y-43068D01*
X102224Y-43051D01*
X102232Y-43037D01*
X102248Y-43027D01*
X102258Y-43024D01*
X102270Y-43023D01*
X102311Y-43023D01*
X102318Y-43024D01*
X102324Y-43026D01*
X102329Y-43032D01*
X102330Y-43040D01*
X102330Y-43168D01*
X102330Y-43168D01*
X102333Y-43270D01*
X102343Y-43266D01*
X102353Y-43260D01*
X102361Y-43251D01*
X102370Y-43237D01*
X102375Y-43220D01*
X102378Y-43201D01*
X102379Y-43181D01*
X102379Y-43026D01*
X102376Y-43010D01*
X102366Y-42994D01*
X102349Y-42987D01*
X102330Y-42985D01*
X102259Y-42985D01*
X102242Y-42986D01*
X102225Y-42989D01*
X102208Y-42996D01*
X102192Y-43010D01*
X102180Y-43026D01*
X102173Y-43046D01*
X102170Y-43060D01*
X102169Y-43075D01*
X102169Y-43092D01*
X102169Y-43114D01*
X102171Y-43134D01*
X102175Y-43151D01*
X102179Y-43165D01*
X102186Y-43177D01*
X102200Y-43193D01*
X102217Y-43201D01*
X102234Y-43205D01*
X102252Y-43205D01*
X102330Y-43205D01*
X102326Y-43220D01*
X102317Y-43231D01*
X102308Y-43236D01*
X102296Y-43239D01*
X102276Y-43241D01*
X102184Y-43241D01*
X102184Y-43278D01*
X102184Y-43278D01*
X102184Y-43278D01*
G37*
G36*
X103103Y-42980D02*
X103106Y-42974D01*
X103110Y-42971D01*
X103113Y-42972D01*
X103115Y-42979D01*
X103113Y-43205D01*
X103168Y-43205D01*
X103168Y-42950D01*
X103165Y-42933D01*
X103155Y-42921D01*
X103140Y-42914D01*
X103121Y-42912D01*
X103106Y-42913D01*
X103092Y-42918D01*
X103080Y-42929D01*
X103070Y-42949D01*
X102995Y-43143D01*
X102991Y-43151D01*
X102987Y-43154D01*
X102983Y-43151D01*
X102979Y-43143D01*
X102904Y-42949D01*
X102897Y-42935D01*
X102888Y-42923D01*
X102874Y-42914D01*
X102853Y-42912D01*
X102842Y-42912D01*
X102826Y-42917D01*
X102812Y-42928D01*
X102808Y-42937D01*
X102806Y-42950D01*
X102806Y-43205D01*
X102861Y-43205D01*
X102860Y-42979D01*
X102860Y-42975D01*
X102864Y-42971D01*
X102868Y-42974D01*
X102871Y-42980D01*
X102945Y-43174D01*
X102951Y-43187D01*
X102958Y-43198D01*
X102970Y-43206D01*
X102987Y-43209D01*
X103003Y-43206D01*
X103014Y-43200D01*
X103022Y-43189D01*
X103028Y-43174D01*
X103103Y-42980D01*
X103103Y-42980D01*
X103103Y-42980D01*
G37*
G36*
X103359Y-42912D02*
X103345Y-42912D01*
X103284Y-42979D01*
X103298Y-42966D01*
X103316Y-42959D01*
X103336Y-42956D01*
X103358Y-42955D01*
X103380Y-42956D01*
X103401Y-42959D01*
X103419Y-42966D01*
X103434Y-42979D01*
X103440Y-42989D01*
X103446Y-43005D01*
X103448Y-43016D01*
X103450Y-43028D01*
X103451Y-43043D01*
X103451Y-43060D01*
X103451Y-43077D01*
X103450Y-43091D01*
X103448Y-43103D01*
X103446Y-43114D01*
X103440Y-43130D01*
X103434Y-43141D01*
X103419Y-43154D01*
X103400Y-43161D01*
X103380Y-43165D01*
X103358Y-43165D01*
X103336Y-43165D01*
X103316Y-43161D01*
X103298Y-43154D01*
X103284Y-43141D01*
X103277Y-43130D01*
X103271Y-43114D01*
X103269Y-43103D01*
X103267Y-43091D01*
X103266Y-43077D01*
X103266Y-43060D01*
X103266Y-43060D01*
X103266Y-43039D01*
X103268Y-43022D01*
X103270Y-43008D01*
X103276Y-42992D01*
X103284Y-42979D01*
X103345Y-42912D01*
X103330Y-42912D01*
X103315Y-42913D01*
X103300Y-42915D01*
X103285Y-42919D01*
X103270Y-42924D01*
X103256Y-42932D01*
X103243Y-42942D01*
X103232Y-42954D01*
X103224Y-42968D01*
X103219Y-42983D01*
X103214Y-42998D01*
X103212Y-43013D01*
X103210Y-43029D01*
X103210Y-43045D01*
X103209Y-43060D01*
X103210Y-43073D01*
X103210Y-43088D01*
X103211Y-43104D01*
X103214Y-43120D01*
X103218Y-43135D01*
X103224Y-43151D01*
X103232Y-43165D01*
X103243Y-43178D01*
X103256Y-43188D01*
X103270Y-43196D01*
X103285Y-43201D01*
X103300Y-43205D01*
X103316Y-43207D01*
X103331Y-43208D01*
X103345Y-43209D01*
X103359Y-43209D01*
X103372Y-43209D01*
X103387Y-43208D01*
X103402Y-43207D01*
X103417Y-43205D01*
X103433Y-43201D01*
X103448Y-43196D01*
X103462Y-43188D01*
X103475Y-43178D01*
X103485Y-43166D01*
X103493Y-43153D01*
X103498Y-43138D01*
X103502Y-43122D01*
X103505Y-43107D01*
X103507Y-43091D01*
X103508Y-43075D01*
X103508Y-43060D01*
X103508Y-43046D01*
X103507Y-43030D01*
X103505Y-43014D01*
X103502Y-42998D01*
X103498Y-42982D01*
X103493Y-42968D01*
X103485Y-42954D01*
X103475Y-42942D01*
X103462Y-42932D01*
X103448Y-42924D01*
X103433Y-42919D01*
X103417Y-42915D01*
X103402Y-42913D01*
X103387Y-42912D01*
X103372Y-42912D01*
X103359Y-42912D01*
X103359Y-42912D01*
X103359Y-42912D01*
G37*
G36*
X103773Y-43205D02*
X103773Y-43162D01*
X103602Y-43162D01*
X103598Y-43161D01*
X103597Y-43157D01*
X103598Y-43153D01*
X103601Y-43150D01*
X103761Y-42980D01*
X103773Y-42966D01*
X103777Y-42957D01*
X103778Y-42945D01*
X103775Y-42930D01*
X103768Y-42921D01*
X103757Y-42916D01*
X103745Y-42915D01*
X103536Y-42915D01*
X103536Y-42958D01*
X103699Y-42958D01*
X103705Y-42961D01*
X103707Y-42964D01*
X103705Y-42968D01*
X103702Y-42973D01*
X103543Y-43137D01*
X103531Y-43153D01*
X103527Y-43163D01*
X103525Y-43176D01*
X103529Y-43193D01*
X103540Y-43201D01*
X103553Y-43205D01*
X103565Y-43205D01*
X103773Y-43205D01*
X103773Y-43205D01*
X103773Y-43205D01*
G37*
G36*
X102640Y-43050D02*
X102636Y-43069D01*
X102625Y-43084D01*
X102610Y-43094D01*
X102591Y-43098D01*
X102573Y-43094D01*
X102557Y-43084D01*
X102547Y-43069D01*
X102543Y-43050D01*
X102547Y-43031D01*
X102557Y-43016D01*
X102573Y-43005D01*
X102591Y-43001D01*
X102610Y-43005D01*
X102625Y-43016D01*
X102636Y-43031D01*
X102640Y-43050D01*
X102640Y-43050D01*
G37*
G36*
X101497Y-42771D02*
X101497Y-42727D01*
X101454Y-42727D01*
X101454Y-42771D01*
X101497Y-42771D01*
X101497Y-42771D01*
G37*
G54D13*
X98720Y-46000D02*
X98720Y-45000D01*
G54D14*
X97639Y-45115D02*
G75*
G03X97500Y-45500I460J-384D01*
G74*
G01*
X97500Y-45500D02*
G75*
G03X97651Y-45897I599J0D01*
G74*
G01*
X98699Y-45500D02*
G75*
G03X98555Y-45110I-599J0D01*
G74*
G01*
X98560Y-45884D02*
G75*
G03X98700Y-45500I-460J384D01*
G74*
G01*
X98587Y-45150D02*
G75*
G03X98100Y-44900I-487J-349D01*
G74*
G01*
X98100Y-44900D02*
G75*
G03X97620Y-45139I0J-600D01*
G74*
G01*
X98100Y-46099D02*
G75*
G03X98572Y-45868I0J599D01*
G74*
G01*
X97626Y-45868D02*
G75*
G03X98100Y-46100I473J368D01*
G74*
G01*
X98100Y-45250D02*
G75*
G03X97850Y-45500I0J-250D01*
G74*
G01*
X98100Y-45100D02*
G75*
G03X97700Y-45500I0J-400D01*
G74*
G01*
X98100Y-45750D02*
G75*
G03X98350Y-45500I0J250D01*
G74*
G01*
X98100Y-45900D02*
G75*
G03X98500Y-45500I0J400D01*
G74*
G01*
G54D13*
X98713Y-44986D02*
G75*
G03X98100Y-44700I-613J-513D01*
G74*
G01*
X98100Y-44701D02*
G75*
G03X97395Y-45123I0J-799D01*
G74*
G01*
X98101Y-46298D02*
G75*
G03X98710Y-46015I-1J798D01*
G74*
G01*
X97405Y-45897D02*
G75*
G03X98100Y-46300I694J397D01*
G74*
G01*
X97395Y-45120D02*
G75*
G03X97300Y-45500I704J-379D01*
G74*
G01*
X97300Y-45500D02*
G75*
G03X97418Y-45918I799J0D01*
G74*
G01*
G54D15*
X95500Y-41000D02*
X96200Y-41000D01*
X99800Y-41000D02*
X100500Y-41000D01*
X100500Y-41000D02*
X100500Y-41700D01*
X100500Y-45300D02*
X100500Y-46000D01*
X100500Y-46000D02*
X99800Y-46000D01*
X96200Y-46000D02*
X95500Y-46000D01*
X95500Y-46000D02*
X95500Y-45300D01*
X95500Y-41700D02*
X95500Y-41000D01*
G54D12*
G36*
X92835Y-44415D02*
X92486Y-44145D01*
X92480Y-44142D01*
X92474Y-44139D01*
X92469Y-44135D01*
X92468Y-44130D01*
X92470Y-44126D01*
X92476Y-44123D01*
X92482Y-44120D01*
X92488Y-44118D01*
X92684Y-44059D01*
X92669Y-44237D01*
X92486Y-44145D01*
X92835Y-44415D01*
X92843Y-44322D01*
X92729Y-44265D01*
X92748Y-44041D01*
X92870Y-44004D01*
X92878Y-43911D01*
X92445Y-44051D01*
X92437Y-44054D01*
X92429Y-44058D01*
X92422Y-44061D01*
X92416Y-44065D01*
X92411Y-44069D01*
X92406Y-44073D01*
X92402Y-44078D01*
X92398Y-44083D01*
X92394Y-44090D01*
X92391Y-44097D01*
X92389Y-44105D01*
X92387Y-44114D01*
X92386Y-44123D01*
X92386Y-44132D01*
X92386Y-44140D01*
X92386Y-44147D01*
X92387Y-44154D01*
X92389Y-44161D01*
X92391Y-44167D01*
X92394Y-44172D01*
X92397Y-44177D01*
X92401Y-44182D01*
X92406Y-44186D01*
X92411Y-44191D01*
X92417Y-44195D01*
X92424Y-44200D01*
X92432Y-44204D01*
X92835Y-44415D01*
X92835Y-44415D01*
G37*
G36*
X92933Y-43275D02*
X92931Y-43271D01*
X92929Y-43265D01*
X92928Y-43260D01*
X92929Y-43256D01*
X92934Y-43255D01*
X92939Y-43256D01*
X92945Y-43260D01*
X93213Y-43505D01*
X93272Y-43440D01*
X92967Y-43165D01*
X92960Y-43159D01*
X92953Y-43155D01*
X92946Y-43152D01*
X92939Y-43149D01*
X92932Y-43148D01*
X92925Y-43148D01*
X92918Y-43149D01*
X92911Y-43152D01*
X92904Y-43154D01*
X92897Y-43158D01*
X92890Y-43162D01*
X92884Y-43167D01*
X92877Y-43173D01*
X92871Y-43180D01*
X92866Y-43186D01*
X92861Y-43192D01*
X92856Y-43199D01*
X92853Y-43206D01*
X92850Y-43213D01*
X92848Y-43221D01*
X92847Y-43227D01*
X92847Y-43234D01*
X92847Y-43241D01*
X92848Y-43248D01*
X92849Y-43254D01*
X92851Y-43260D01*
X92854Y-43266D01*
X92857Y-43273D01*
X92861Y-43281D01*
X93011Y-43579D01*
X93014Y-43586D01*
X93016Y-43592D01*
X93016Y-43597D01*
X93015Y-43600D01*
X93012Y-43602D01*
X93007Y-43602D01*
X93001Y-43600D01*
X92994Y-43598D01*
X92682Y-43479D01*
X92676Y-43476D01*
X92670Y-43475D01*
X92664Y-43473D01*
X92658Y-43471D01*
X92650Y-43470D01*
X92641Y-43469D01*
X92633Y-43470D01*
X92627Y-43470D01*
X92621Y-43472D01*
X92614Y-43474D01*
X92608Y-43478D01*
X92603Y-43481D01*
X92598Y-43484D01*
X92593Y-43489D01*
X92588Y-43494D01*
X92582Y-43499D01*
X92579Y-43503D01*
X92576Y-43507D01*
X92571Y-43514D01*
X92568Y-43518D01*
X92565Y-43524D01*
X92562Y-43530D01*
X92560Y-43536D01*
X92558Y-43543D01*
X92557Y-43550D01*
X92557Y-43558D01*
X92558Y-43566D01*
X92560Y-43572D01*
X92562Y-43578D01*
X92566Y-43584D01*
X92571Y-43590D01*
X92577Y-43596D01*
X92882Y-43872D01*
X92941Y-43806D01*
X92670Y-43564D01*
X92665Y-43559D01*
X92663Y-43554D01*
X92665Y-43549D01*
X92668Y-43548D01*
X92674Y-43548D01*
X92679Y-43550D01*
X92684Y-43551D01*
X92995Y-43671D01*
X93002Y-43674D01*
X93009Y-43677D01*
X93016Y-43679D01*
X93023Y-43681D01*
X93030Y-43682D01*
X93038Y-43682D01*
X93045Y-43682D01*
X93052Y-43680D01*
X93059Y-43677D01*
X93064Y-43674D01*
X93070Y-43670D01*
X93075Y-43665D01*
X93081Y-43659D01*
X93086Y-43654D01*
X93090Y-43648D01*
X93093Y-43643D01*
X93095Y-43637D01*
X93098Y-43631D01*
X93099Y-43624D01*
X93099Y-43617D01*
X93099Y-43610D01*
X93097Y-43603D01*
X93095Y-43596D01*
X93092Y-43591D01*
X93090Y-43585D01*
X93087Y-43579D01*
X93084Y-43572D01*
X92933Y-43275D01*
X92933Y-43275D01*
G37*
G36*
X93524Y-42913D02*
X93517Y-42914D01*
X93430Y-43024D01*
X93435Y-43019D01*
X93441Y-43014D01*
X93447Y-43009D01*
X93453Y-43005D01*
X93460Y-43002D01*
X93467Y-42999D01*
X93474Y-42996D01*
X93481Y-42994D01*
X93488Y-42992D01*
X93495Y-42990D01*
X93503Y-42988D01*
X93510Y-42986D01*
X93518Y-42985D01*
X93526Y-42983D01*
X93534Y-42982D01*
X93542Y-42981D01*
X93549Y-42980D01*
X93557Y-42979D01*
X93565Y-42979D01*
X93572Y-42978D01*
X93580Y-42978D01*
X93587Y-42978D01*
X93595Y-42978D01*
X93602Y-42979D01*
X93610Y-42979D01*
X93618Y-42981D01*
X93625Y-42983D01*
X93632Y-42985D01*
X93639Y-42988D01*
X93646Y-42992D01*
X93653Y-42997D01*
X93659Y-43002D01*
X93663Y-43006D01*
X93667Y-43011D01*
X93672Y-43017D01*
X93675Y-43022D01*
X93678Y-43027D01*
X93682Y-43034D01*
X93685Y-43041D01*
X93687Y-43047D01*
X93689Y-43053D01*
X93692Y-43061D01*
X93694Y-43068D01*
X93696Y-43077D01*
X93698Y-43083D01*
X93699Y-43089D01*
X93701Y-43096D01*
X93702Y-43103D01*
X93704Y-43111D01*
X93705Y-43119D01*
X93706Y-43127D01*
X93707Y-43136D01*
X93709Y-43145D01*
X93709Y-43153D01*
X93710Y-43161D01*
X93711Y-43169D01*
X93711Y-43176D01*
X93711Y-43185D01*
X93711Y-43192D01*
X93711Y-43200D01*
X93711Y-43207D01*
X93710Y-43213D01*
X93709Y-43221D01*
X93708Y-43228D01*
X93707Y-43235D01*
X93705Y-43240D01*
X93703Y-43248D01*
X93700Y-43254D01*
X93697Y-43260D01*
X93692Y-43267D01*
X93687Y-43273D01*
X93682Y-43279D01*
X93676Y-43284D01*
X93670Y-43289D01*
X93663Y-43293D01*
X93656Y-43297D01*
X93649Y-43300D01*
X93641Y-43303D01*
X93634Y-43306D01*
X93626Y-43308D01*
X93617Y-43310D01*
X93611Y-43311D01*
X93604Y-43312D01*
X93597Y-43314D01*
X93590Y-43315D01*
X93583Y-43316D01*
X93576Y-43317D01*
X93569Y-43318D01*
X93562Y-43319D01*
X93555Y-43320D01*
X93548Y-43320D01*
X93540Y-43321D01*
X93531Y-43321D01*
X93523Y-43320D01*
X93515Y-43320D01*
X93507Y-43319D01*
X93500Y-43317D01*
X93492Y-43315D01*
X93485Y-43313D01*
X93478Y-43309D01*
X93471Y-43305D01*
X93465Y-43301D01*
X93459Y-43295D01*
X93454Y-43291D01*
X93450Y-43285D01*
X93445Y-43280D01*
X93442Y-43274D01*
X93439Y-43269D01*
X93436Y-43262D01*
X93433Y-43255D01*
X93430Y-43249D01*
X93428Y-43242D01*
X93425Y-43235D01*
X93423Y-43228D01*
X93421Y-43220D01*
X93419Y-43214D01*
X93418Y-43207D01*
X93416Y-43201D01*
X93415Y-43194D01*
X93414Y-43186D01*
X93413Y-43179D01*
X93411Y-43171D01*
X93411Y-43171D01*
X93410Y-43161D01*
X93409Y-43152D01*
X93408Y-43143D01*
X93407Y-43135D01*
X93406Y-43127D01*
X93406Y-43119D01*
X93406Y-43112D01*
X93406Y-43105D01*
X93406Y-43099D01*
X93406Y-43093D01*
X93406Y-43087D01*
X93408Y-43079D01*
X93409Y-43070D01*
X93411Y-43063D01*
X93413Y-43056D01*
X93415Y-43049D01*
X93418Y-43043D01*
X93421Y-43037D01*
X93425Y-43030D01*
X93430Y-43024D01*
X93517Y-42914D01*
X93510Y-42915D01*
X93502Y-42916D01*
X93495Y-42917D01*
X93487Y-42919D01*
X93479Y-42920D01*
X93471Y-42922D01*
X93463Y-42923D01*
X93455Y-42925D01*
X93447Y-42927D01*
X93439Y-42930D01*
X93431Y-42933D01*
X93425Y-42935D01*
X93418Y-42938D01*
X93411Y-42941D01*
X93405Y-42944D01*
X93398Y-42947D01*
X93392Y-42950D01*
X93385Y-42954D01*
X93379Y-42958D01*
X93374Y-42962D01*
X93368Y-42967D01*
X93362Y-42972D01*
X93357Y-42977D01*
X93352Y-42983D01*
X93347Y-42989D01*
X93343Y-42995D01*
X93339Y-43001D01*
X93335Y-43007D01*
X93332Y-43014D01*
X93329Y-43020D01*
X93326Y-43027D01*
X93324Y-43034D01*
X93322Y-43041D01*
X93320Y-43048D01*
X93319Y-43055D01*
X93317Y-43062D01*
X93316Y-43069D01*
X93316Y-43077D01*
X93315Y-43084D01*
X93315Y-43091D01*
X93314Y-43098D01*
X93314Y-43106D01*
X93314Y-43113D01*
X93315Y-43120D01*
X93315Y-43128D01*
X93316Y-43135D01*
X93317Y-43143D01*
X93318Y-43152D01*
X93318Y-43160D01*
X93320Y-43168D01*
X93321Y-43176D01*
X93322Y-43184D01*
X93323Y-43191D01*
X93324Y-43198D01*
X93325Y-43205D01*
X93326Y-43212D01*
X93328Y-43220D01*
X93329Y-43228D01*
X93330Y-43235D01*
X93332Y-43242D01*
X93334Y-43249D01*
X93336Y-43256D01*
X93338Y-43263D01*
X93340Y-43270D01*
X93342Y-43277D01*
X93345Y-43284D01*
X93348Y-43291D01*
X93351Y-43298D01*
X93354Y-43305D01*
X93358Y-43311D01*
X93361Y-43318D01*
X93365Y-43324D01*
X93370Y-43331D01*
X93375Y-43337D01*
X93380Y-43343D01*
X93385Y-43348D01*
X93391Y-43354D01*
X93397Y-43359D01*
X93403Y-43363D01*
X93409Y-43368D01*
X93416Y-43372D01*
X93422Y-43375D01*
X93429Y-43378D01*
X93435Y-43381D01*
X93442Y-43383D01*
X93449Y-43385D01*
X93456Y-43387D01*
X93464Y-43389D01*
X93471Y-43390D01*
X93478Y-43391D01*
X93485Y-43392D01*
X93492Y-43392D01*
X93500Y-43393D01*
X93508Y-43393D01*
X93516Y-43393D01*
X93525Y-43393D01*
X93533Y-43392D01*
X93541Y-43392D01*
X93549Y-43391D01*
X93557Y-43390D01*
X93565Y-43389D01*
X93573Y-43388D01*
X93580Y-43387D01*
X93587Y-43386D01*
X93594Y-43385D01*
X93601Y-43384D01*
X93608Y-43383D01*
X93615Y-43382D01*
X93622Y-43380D01*
X93630Y-43379D01*
X93638Y-43378D01*
X93646Y-43376D01*
X93654Y-43374D01*
X93662Y-43372D01*
X93670Y-43370D01*
X93678Y-43368D01*
X93686Y-43365D01*
X93693Y-43363D01*
X93700Y-43360D01*
X93707Y-43357D01*
X93713Y-43354D01*
X93720Y-43351D01*
X93726Y-43347D01*
X93732Y-43344D01*
X93738Y-43340D01*
X93744Y-43335D01*
X93750Y-43331D01*
X93756Y-43326D01*
X93761Y-43320D01*
X93766Y-43315D01*
X93771Y-43309D01*
X93775Y-43303D01*
X93779Y-43297D01*
X93782Y-43291D01*
X93786Y-43285D01*
X93789Y-43278D01*
X93791Y-43271D01*
X93793Y-43264D01*
X93795Y-43257D01*
X93797Y-43250D01*
X93798Y-43243D01*
X93800Y-43236D01*
X93801Y-43229D01*
X93801Y-43221D01*
X93802Y-43214D01*
X93802Y-43207D01*
X93803Y-43199D01*
X93803Y-43192D01*
X93802Y-43185D01*
X93802Y-43177D01*
X93802Y-43170D01*
X93801Y-43163D01*
X93800Y-43154D01*
X93800Y-43146D01*
X93799Y-43138D01*
X93798Y-43130D01*
X93797Y-43122D01*
X93796Y-43114D01*
X93795Y-43106D01*
X93793Y-43099D01*
X93792Y-43091D01*
X93791Y-43083D01*
X93789Y-43074D01*
X93787Y-43066D01*
X93786Y-43059D01*
X93784Y-43051D01*
X93782Y-43044D01*
X93780Y-43037D01*
X93778Y-43030D01*
X93775Y-43023D01*
X93773Y-43016D01*
X93770Y-43009D01*
X93767Y-43002D01*
X93764Y-42996D01*
X93761Y-42989D01*
X93757Y-42983D01*
X93754Y-42977D01*
X93750Y-42970D01*
X93746Y-42964D01*
X93741Y-42959D01*
X93737Y-42953D01*
X93732Y-42948D01*
X93727Y-42943D01*
X93721Y-42939D01*
X93715Y-42934D01*
X93709Y-42930D01*
X93703Y-42926D01*
X93696Y-42923D01*
X93689Y-42919D01*
X93682Y-42917D01*
X93675Y-42914D01*
X93668Y-42912D01*
X93661Y-42911D01*
X93654Y-42909D01*
X93647Y-42908D01*
X93640Y-42907D01*
X93633Y-42906D01*
X93625Y-42905D01*
X93618Y-42905D01*
X93610Y-42905D01*
X93601Y-42905D01*
X93593Y-42905D01*
X93585Y-42905D01*
X93577Y-42906D01*
X93568Y-42907D01*
X93561Y-42908D01*
X93553Y-42909D01*
X93545Y-42910D01*
X93538Y-42911D01*
X93531Y-42912D01*
X93524Y-42913D01*
X93524Y-42913D01*
X93524Y-42913D01*
G37*
G36*
X94246Y-43521D02*
X94274Y-43457D01*
X94046Y-43357D01*
X94040Y-43355D01*
X94034Y-43352D01*
X94029Y-43349D01*
X94024Y-43345D01*
X94021Y-43340D01*
X94019Y-43334D01*
X94019Y-43328D01*
X94022Y-43321D01*
X94065Y-43220D01*
X94319Y-43331D01*
X94347Y-43267D01*
X94093Y-43156D01*
X94131Y-43070D01*
X94133Y-43065D01*
X94136Y-43060D01*
X94141Y-43056D01*
X94147Y-43052D01*
X94153Y-43051D01*
X94159Y-43052D01*
X94166Y-43054D01*
X94171Y-43056D01*
X94402Y-43157D01*
X94430Y-43092D01*
X94156Y-42973D01*
X94150Y-42970D01*
X94143Y-42968D01*
X94136Y-42966D01*
X94128Y-42963D01*
X94121Y-42962D01*
X94113Y-42962D01*
X94105Y-42964D01*
X94098Y-42967D01*
X94092Y-42970D01*
X94088Y-42973D01*
X94083Y-42977D01*
X94078Y-42982D01*
X94074Y-42987D01*
X94070Y-42993D01*
X94066Y-42999D01*
X94063Y-43005D01*
X93931Y-43308D01*
X93929Y-43314D01*
X93926Y-43321D01*
X93924Y-43328D01*
X93922Y-43335D01*
X93921Y-43343D01*
X93921Y-43350D01*
X93923Y-43358D01*
X93925Y-43365D01*
X93929Y-43372D01*
X93932Y-43378D01*
X93937Y-43383D01*
X93943Y-43387D01*
X93949Y-43390D01*
X93955Y-43394D01*
X93961Y-43397D01*
X93968Y-43400D01*
X94246Y-43521D01*
X94246Y-43521D01*
X94246Y-43521D01*
G37*
G36*
X94715Y-43339D02*
X94651Y-43415D01*
X94655Y-43412D01*
X94660Y-43410D01*
X94665Y-43408D01*
X94671Y-43408D01*
X94677Y-43409D01*
X94681Y-43412D01*
X94684Y-43416D01*
X94688Y-43421D01*
X94773Y-43537D01*
X94777Y-43543D01*
X94781Y-43549D01*
X94785Y-43556D01*
X94788Y-43563D01*
X94789Y-43570D01*
X94789Y-43579D01*
X94787Y-43586D01*
X94784Y-43593D01*
X94780Y-43599D01*
X94775Y-43605D01*
X94769Y-43611D01*
X94763Y-43617D01*
X94757Y-43621D01*
X94750Y-43626D01*
X94743Y-43630D01*
X94737Y-43634D01*
X94732Y-43636D01*
X94727Y-43638D01*
X94719Y-43640D01*
X94713Y-43641D01*
X94706Y-43640D01*
X94699Y-43638D01*
X94693Y-43635D01*
X94688Y-43632D01*
X94684Y-43627D01*
X94680Y-43622D01*
X94675Y-43617D01*
X94671Y-43612D01*
X94571Y-43474D01*
X94651Y-43415D01*
X94651Y-43415D01*
X94715Y-43339D01*
X94514Y-43515D01*
X94620Y-43660D01*
X94624Y-43666D01*
X94628Y-43673D01*
X94630Y-43679D01*
X94632Y-43684D01*
X94633Y-43690D01*
X94633Y-43698D01*
X94633Y-43704D01*
X94632Y-43709D01*
X94630Y-43714D01*
X94627Y-43720D01*
X94623Y-43725D01*
X94618Y-43729D01*
X94611Y-43736D01*
X94605Y-43741D01*
X94600Y-43745D01*
X94593Y-43750D01*
X94586Y-43754D01*
X94578Y-43758D01*
X94572Y-43760D01*
X94566Y-43762D01*
X94560Y-43763D01*
X94554Y-43763D01*
X94547Y-43762D01*
X94540Y-43760D01*
X94533Y-43756D01*
X94528Y-43752D01*
X94523Y-43746D01*
X94518Y-43741D01*
X94514Y-43736D01*
X94511Y-43732D01*
X94429Y-43620D01*
X94425Y-43615D01*
X94421Y-43608D01*
X94418Y-43600D01*
X94418Y-43593D01*
X94420Y-43588D01*
X94423Y-43584D01*
X94426Y-43580D01*
X94431Y-43576D01*
X94437Y-43572D01*
X94514Y-43515D01*
X94514Y-43515D01*
X94715Y-43339D01*
X94711Y-43334D01*
X94707Y-43330D01*
X94702Y-43325D01*
X94697Y-43320D01*
X94691Y-43316D01*
X94685Y-43314D01*
X94678Y-43312D01*
X94670Y-43310D01*
X94664Y-43311D01*
X94658Y-43311D01*
X94652Y-43313D01*
X94645Y-43314D01*
X94639Y-43317D01*
X94633Y-43320D01*
X94628Y-43323D01*
X94622Y-43327D01*
X94353Y-43524D01*
X94346Y-43530D01*
X94340Y-43536D01*
X94335Y-43542D01*
X94331Y-43548D01*
X94328Y-43555D01*
X94326Y-43561D01*
X94325Y-43565D01*
X94323Y-43573D01*
X94323Y-43580D01*
X94324Y-43587D01*
X94326Y-43593D01*
X94328Y-43599D01*
X94332Y-43605D01*
X94335Y-43610D01*
X94339Y-43616D01*
X94343Y-43621D01*
X94347Y-43627D01*
X94479Y-43807D01*
X94483Y-43813D01*
X94487Y-43819D01*
X94492Y-43824D01*
X94497Y-43830D01*
X94502Y-43835D01*
X94507Y-43840D01*
X94513Y-43844D01*
X94520Y-43848D01*
X94527Y-43852D01*
X94533Y-43854D01*
X94539Y-43856D01*
X94546Y-43857D01*
X94554Y-43858D01*
X94562Y-43859D01*
X94570Y-43859D01*
X94578Y-43858D01*
X94586Y-43856D01*
X94593Y-43854D01*
X94600Y-43852D01*
X94607Y-43848D01*
X94614Y-43844D01*
X94621Y-43840D01*
X94629Y-43835D01*
X94635Y-43831D01*
X94642Y-43826D01*
X94648Y-43822D01*
X94654Y-43818D01*
X94659Y-43814D01*
X94665Y-43809D01*
X94670Y-43805D01*
X94676Y-43800D01*
X94681Y-43795D01*
X94686Y-43789D01*
X94690Y-43783D01*
X94694Y-43777D01*
X94698Y-43770D01*
X94700Y-43763D01*
X94703Y-43755D01*
X94704Y-43749D01*
X94704Y-43742D01*
X94703Y-43735D01*
X94703Y-43728D01*
X94701Y-43720D01*
X94699Y-43713D01*
X94696Y-43706D01*
X94692Y-43699D01*
X94694Y-43697D01*
X94700Y-43703D01*
X94707Y-43708D01*
X94714Y-43712D01*
X94719Y-43715D01*
X94725Y-43717D01*
X94732Y-43718D01*
X94740Y-43719D01*
X94748Y-43719D01*
X94755Y-43718D01*
X94762Y-43718D01*
X94769Y-43716D01*
X94775Y-43714D01*
X94781Y-43712D01*
X94788Y-43708D01*
X94795Y-43704D01*
X94801Y-43700D01*
X94808Y-43696D01*
X94814Y-43692D01*
X94820Y-43687D01*
X94827Y-43682D01*
X94833Y-43676D01*
X94838Y-43672D01*
X94843Y-43667D01*
X94848Y-43662D01*
X94852Y-43657D01*
X94857Y-43652D01*
X94861Y-43646D01*
X94865Y-43641D01*
X94868Y-43635D01*
X94871Y-43629D01*
X94874Y-43622D01*
X94876Y-43616D01*
X94877Y-43609D01*
X94878Y-43602D01*
X94878Y-43596D01*
X94878Y-43590D01*
X94877Y-43584D01*
X94876Y-43576D01*
X94874Y-43568D01*
X94871Y-43561D01*
X94869Y-43554D01*
X94865Y-43547D01*
X94861Y-43540D01*
X94857Y-43535D01*
X94854Y-43529D01*
X94850Y-43524D01*
X94715Y-43339D01*
X94715Y-43339D01*
X94715Y-43339D01*
G37*
G36*
X94561Y-43911D02*
X94951Y-44118D01*
X94957Y-44120D01*
X94963Y-44122D01*
X94969Y-44126D01*
X94971Y-44130D01*
X94970Y-44134D01*
X94965Y-44138D01*
X94959Y-44142D01*
X94953Y-44145D01*
X94770Y-44237D01*
X94755Y-44058D01*
X94951Y-44118D01*
X94951Y-44118D01*
X94561Y-43911D01*
X94569Y-44004D01*
X94691Y-44041D01*
X94710Y-44265D01*
X94596Y-44322D01*
X94604Y-44415D01*
X95007Y-44204D01*
X95015Y-44199D01*
X95022Y-44195D01*
X95028Y-44190D01*
X95033Y-44185D01*
X95038Y-44180D01*
X95042Y-44175D01*
X95045Y-44170D01*
X95048Y-44164D01*
X95051Y-44157D01*
X95052Y-44150D01*
X95053Y-44141D01*
X95053Y-44132D01*
X95053Y-44123D01*
X95052Y-44114D01*
X95051Y-44106D01*
X95049Y-44099D01*
X95046Y-44092D01*
X95044Y-44086D01*
X95041Y-44081D01*
X95037Y-44076D01*
X95033Y-44072D01*
X95028Y-44068D01*
X95023Y-44064D01*
X95017Y-44060D01*
X95010Y-44057D01*
X95002Y-44054D01*
X94994Y-44051D01*
X94561Y-43911D01*
X94561Y-43911D01*
X94561Y-43911D01*
G37*
G54D13*
M02*
