G04 (created by PCBNEW (2013-may-18)-stable) date Sun 22 Nov 2015 11:00:47 PM EST*
%MOIN*%
G04 Gerber Fmt 3.4, Leading zero omitted, Abs format*
%FSLAX34Y34*%
G01*
G70*
G90*
G04 APERTURE LIST*
%ADD10C,0.00590551*%
%ADD11C,0.0001*%
%ADD12C,0.065*%
%ADD13C,0.0590551*%
%ADD14R,0.0590551X0.0590551*%
%ADD15C,0.055*%
%ADD16C,0.066*%
%ADD17C,0.09*%
%ADD18C,0.09*%
%ADD19C,0.035*%
%ADD20C,0.01*%
G04 APERTURE END LIST*
G54D10*
G54D11*
G36*
X101003Y-45617D02*
X101000Y-45637D01*
X100991Y-45654D01*
X100977Y-45668D01*
X100960Y-45677D01*
X100940Y-45680D01*
X100920Y-45677D01*
X100903Y-45668D01*
X100889Y-45654D01*
X100880Y-45637D01*
X100877Y-45617D01*
X100880Y-45597D01*
X100889Y-45580D01*
X100903Y-45566D01*
X100920Y-45557D01*
X100940Y-45554D01*
X100960Y-45557D01*
X100977Y-45566D01*
X100991Y-45580D01*
X101000Y-45597D01*
X101003Y-45617D01*
X101003Y-45617D01*
G37*
G36*
X101003Y-45995D02*
X101000Y-46015D01*
X100991Y-46032D01*
X100977Y-46046D01*
X100960Y-46055D01*
X100940Y-46058D01*
X100920Y-46055D01*
X100903Y-46046D01*
X100889Y-46032D01*
X100880Y-46015D01*
X100877Y-45995D01*
X100880Y-45975D01*
X100889Y-45958D01*
X100903Y-45944D01*
X100920Y-45935D01*
X100940Y-45932D01*
X100960Y-45935D01*
X100977Y-45944D01*
X100991Y-45958D01*
X101000Y-45975D01*
X101003Y-45995D01*
X101003Y-45995D01*
G37*
G36*
X101192Y-45617D02*
X101189Y-45637D01*
X101180Y-45654D01*
X101166Y-45668D01*
X101149Y-45677D01*
X101129Y-45680D01*
X101109Y-45677D01*
X101092Y-45668D01*
X101078Y-45654D01*
X101069Y-45637D01*
X101066Y-45617D01*
X101069Y-45597D01*
X101078Y-45580D01*
X101092Y-45566D01*
X101109Y-45557D01*
X101129Y-45554D01*
X101149Y-45557D01*
X101166Y-45566D01*
X101180Y-45580D01*
X101189Y-45597D01*
X101192Y-45617D01*
X101192Y-45617D01*
G37*
G36*
X101444Y-45806D02*
X101441Y-45826D01*
X101432Y-45843D01*
X101418Y-45857D01*
X101401Y-45866D01*
X101381Y-45869D01*
X101361Y-45866D01*
X101344Y-45857D01*
X101330Y-45843D01*
X101321Y-45826D01*
X101318Y-45806D01*
X101321Y-45786D01*
X101330Y-45769D01*
X101344Y-45755D01*
X101361Y-45746D01*
X101381Y-45743D01*
X101401Y-45746D01*
X101418Y-45755D01*
X101432Y-45769D01*
X101441Y-45786D01*
X101444Y-45806D01*
X101444Y-45806D01*
G37*
G36*
X101444Y-45995D02*
X101441Y-46015D01*
X101432Y-46032D01*
X101418Y-46046D01*
X101401Y-46055D01*
X101381Y-46058D01*
X101361Y-46055D01*
X101344Y-46046D01*
X101330Y-46032D01*
X101321Y-46015D01*
X101318Y-45995D01*
X101321Y-45975D01*
X101330Y-45958D01*
X101344Y-45944D01*
X101361Y-45935D01*
X101381Y-45932D01*
X101401Y-45935D01*
X101418Y-45944D01*
X101432Y-45958D01*
X101441Y-45975D01*
X101444Y-45995D01*
X101444Y-45995D01*
G37*
G36*
X101633Y-45617D02*
X101630Y-45637D01*
X101621Y-45654D01*
X101607Y-45668D01*
X101590Y-45677D01*
X101570Y-45680D01*
X101550Y-45677D01*
X101533Y-45668D01*
X101519Y-45654D01*
X101510Y-45637D01*
X101507Y-45617D01*
X101510Y-45597D01*
X101519Y-45580D01*
X101533Y-45566D01*
X101550Y-45557D01*
X101570Y-45554D01*
X101590Y-45557D01*
X101607Y-45566D01*
X101621Y-45580D01*
X101630Y-45597D01*
X101633Y-45617D01*
X101633Y-45617D01*
G37*
G36*
X101633Y-45806D02*
X101630Y-45826D01*
X101621Y-45843D01*
X101607Y-45857D01*
X101590Y-45866D01*
X101570Y-45869D01*
X101550Y-45866D01*
X101533Y-45857D01*
X101519Y-45843D01*
X101510Y-45826D01*
X101507Y-45806D01*
X101510Y-45786D01*
X101519Y-45769D01*
X101533Y-45755D01*
X101550Y-45746D01*
X101570Y-45743D01*
X101590Y-45746D01*
X101607Y-45755D01*
X101621Y-45769D01*
X101630Y-45786D01*
X101633Y-45806D01*
X101633Y-45806D01*
G37*
G36*
X101885Y-45617D02*
X101882Y-45637D01*
X101873Y-45654D01*
X101859Y-45668D01*
X101842Y-45677D01*
X101822Y-45680D01*
X101802Y-45677D01*
X101785Y-45668D01*
X101771Y-45654D01*
X101762Y-45637D01*
X101759Y-45617D01*
X101762Y-45597D01*
X101771Y-45580D01*
X101785Y-45566D01*
X101802Y-45557D01*
X101822Y-45554D01*
X101842Y-45557D01*
X101859Y-45566D01*
X101873Y-45580D01*
X101882Y-45597D01*
X101885Y-45617D01*
X101885Y-45617D01*
G37*
G36*
X101885Y-45806D02*
X101882Y-45826D01*
X101873Y-45843D01*
X101859Y-45857D01*
X101842Y-45866D01*
X101822Y-45869D01*
X101802Y-45866D01*
X101785Y-45857D01*
X101771Y-45843D01*
X101762Y-45826D01*
X101759Y-45806D01*
X101762Y-45786D01*
X101771Y-45769D01*
X101785Y-45755D01*
X101802Y-45746D01*
X101822Y-45743D01*
X101842Y-45746D01*
X101859Y-45755D01*
X101873Y-45769D01*
X101882Y-45786D01*
X101885Y-45806D01*
X101885Y-45806D01*
G37*
G36*
X101885Y-45995D02*
X101882Y-46015D01*
X101873Y-46032D01*
X101859Y-46046D01*
X101842Y-46055D01*
X101822Y-46058D01*
X101802Y-46055D01*
X101785Y-46046D01*
X101771Y-46032D01*
X101762Y-46015D01*
X101759Y-45995D01*
X101762Y-45975D01*
X101771Y-45958D01*
X101785Y-45944D01*
X101802Y-45935D01*
X101822Y-45932D01*
X101842Y-45935D01*
X101859Y-45944D01*
X101873Y-45958D01*
X101882Y-45975D01*
X101885Y-45995D01*
X101885Y-45995D01*
G37*
G36*
X101876Y-43908D02*
X101876Y-44489D01*
X102000Y-44489D01*
X102021Y-44488D01*
X102040Y-44483D01*
X102058Y-44475D01*
X102074Y-44465D01*
X102088Y-44453D01*
X102100Y-44438D01*
X102111Y-44422D01*
X102118Y-44404D01*
X102123Y-44385D01*
X102124Y-44365D01*
X102124Y-44033D01*
X102123Y-44013D01*
X102118Y-43994D01*
X102110Y-43977D01*
X102100Y-43961D01*
X102088Y-43947D01*
X102073Y-43934D01*
X102057Y-43924D01*
X102040Y-43916D01*
X102021Y-43910D01*
X102000Y-43908D01*
X101876Y-43908D01*
X101876Y-43908D01*
G37*
G36*
X101708Y-43657D02*
X101772Y-43807D01*
X101974Y-43807D01*
X102025Y-43807D01*
X102028Y-43807D01*
X102049Y-43808D01*
X102068Y-43811D01*
X102088Y-43816D01*
X102106Y-43822D01*
X102123Y-43831D01*
X102140Y-43841D01*
X102155Y-43852D01*
X102169Y-43865D01*
X102182Y-43879D01*
X102193Y-43895D01*
X102203Y-43911D01*
X102212Y-43928D01*
X102218Y-43947D01*
X102223Y-43966D01*
X102226Y-43986D01*
X102227Y-44006D01*
X102227Y-44391D01*
X102226Y-44412D01*
X102223Y-44431D01*
X102218Y-44451D01*
X102212Y-44469D01*
X102203Y-44486D01*
X102193Y-44503D01*
X102182Y-44518D01*
X102169Y-44532D01*
X102155Y-44545D01*
X102140Y-44557D01*
X102123Y-44567D01*
X102106Y-44575D01*
X102088Y-44582D01*
X102068Y-44587D01*
X102049Y-44590D01*
X102028Y-44591D01*
X102025Y-44591D01*
X101974Y-44591D01*
X101772Y-44591D01*
X101772Y-43807D01*
X101708Y-43657D01*
X101686Y-43660D01*
X101667Y-43667D01*
X101652Y-43679D01*
X101643Y-43693D01*
X101639Y-43710D01*
X101639Y-44688D01*
X101643Y-44704D01*
X101652Y-44719D01*
X101667Y-44730D01*
X101686Y-44737D01*
X101708Y-44740D01*
X102291Y-44740D01*
X102313Y-44737D01*
X102332Y-44730D01*
X102347Y-44719D01*
X102356Y-44704D01*
X102360Y-44688D01*
X102360Y-43710D01*
X102356Y-43693D01*
X102347Y-43679D01*
X102332Y-43667D01*
X102313Y-43660D01*
X102291Y-43657D01*
X101708Y-43657D01*
X101708Y-43657D01*
G37*
G36*
X102508Y-43809D02*
X102492Y-43814D01*
X102480Y-43829D01*
X102476Y-43851D01*
X102476Y-43873D01*
X102480Y-43895D01*
X102492Y-43910D01*
X102508Y-43915D01*
X102666Y-43915D01*
X102666Y-44557D01*
X102669Y-44572D01*
X102678Y-44585D01*
X102691Y-44593D01*
X102706Y-44596D01*
X102735Y-44596D01*
X102750Y-44593D01*
X102763Y-44585D01*
X102771Y-44572D01*
X102774Y-44557D01*
X102774Y-43915D01*
X102928Y-43915D01*
X102944Y-43910D01*
X102955Y-43895D01*
X102960Y-43873D01*
X102960Y-43851D01*
X102955Y-43829D01*
X102944Y-43814D01*
X102928Y-43809D01*
X102508Y-43809D01*
X102508Y-43809D01*
G37*
G36*
X92836Y-44409D02*
X92475Y-44132D01*
X92468Y-44124D01*
X92476Y-44117D01*
X92489Y-44112D01*
X92685Y-44053D01*
X92669Y-44231D01*
X92487Y-44139D01*
X92487Y-44139D01*
X92475Y-44132D01*
X92836Y-44409D01*
X92844Y-44316D01*
X92730Y-44259D01*
X92749Y-44035D01*
X92871Y-43997D01*
X92878Y-43905D01*
X92446Y-44045D01*
X92427Y-44052D01*
X92413Y-44061D01*
X92403Y-44071D01*
X92395Y-44083D01*
X92390Y-44099D01*
X92387Y-44117D01*
X92386Y-44136D01*
X92389Y-44153D01*
X92395Y-44166D01*
X92403Y-44177D01*
X92416Y-44188D01*
X92433Y-44198D01*
X92836Y-44409D01*
X92836Y-44409D01*
X92836Y-44409D01*
G37*
G36*
X92934Y-43269D02*
X92930Y-43259D01*
X92930Y-43250D01*
X92935Y-43249D01*
X92946Y-43254D01*
X93213Y-43499D01*
X93272Y-43434D01*
X92968Y-43159D01*
X92952Y-43147D01*
X92935Y-43142D01*
X92919Y-43143D01*
X92902Y-43149D01*
X92887Y-43159D01*
X92872Y-43173D01*
X92864Y-43183D01*
X92857Y-43193D01*
X92852Y-43203D01*
X92849Y-43215D01*
X92847Y-43227D01*
X92849Y-43242D01*
X92853Y-43257D01*
X92861Y-43274D01*
X93011Y-43573D01*
X93016Y-43586D01*
X93016Y-43594D01*
X93008Y-43596D01*
X92994Y-43592D01*
X92682Y-43472D01*
X92670Y-43468D01*
X92658Y-43465D01*
X92646Y-43463D01*
X92634Y-43464D01*
X92621Y-43466D01*
X92609Y-43471D01*
X92596Y-43480D01*
X92583Y-43493D01*
X92572Y-43507D01*
X92565Y-43518D01*
X92560Y-43530D01*
X92558Y-43544D01*
X92559Y-43559D01*
X92565Y-43575D01*
X92578Y-43590D01*
X92883Y-43865D01*
X92942Y-43800D01*
X92671Y-43558D01*
X92666Y-43553D01*
X92665Y-43543D01*
X92674Y-43542D01*
X92684Y-43545D01*
X92995Y-43665D01*
X93006Y-43669D01*
X93017Y-43673D01*
X93038Y-43676D01*
X93059Y-43671D01*
X93070Y-43664D01*
X93081Y-43653D01*
X93090Y-43642D01*
X93096Y-43631D01*
X93100Y-43611D01*
X93095Y-43590D01*
X93090Y-43579D01*
X93085Y-43566D01*
X92934Y-43269D01*
X92934Y-43269D01*
X92934Y-43269D01*
G37*
G36*
X93525Y-42906D02*
X93434Y-43014D01*
X93450Y-43001D01*
X93468Y-42992D01*
X93484Y-42987D01*
X93500Y-42983D01*
X93517Y-42979D01*
X93534Y-42976D01*
X93552Y-42974D01*
X93569Y-42972D01*
X93586Y-42972D01*
X93603Y-42972D01*
X93623Y-42976D01*
X93642Y-42983D01*
X93659Y-42996D01*
X93672Y-43011D01*
X93679Y-43021D01*
X93685Y-43034D01*
X93691Y-43051D01*
X93697Y-43070D01*
X93700Y-43085D01*
X93704Y-43102D01*
X93707Y-43121D01*
X93709Y-43139D01*
X93711Y-43155D01*
X93711Y-43170D01*
X93712Y-43190D01*
X93711Y-43207D01*
X93709Y-43222D01*
X93705Y-43234D01*
X93698Y-43254D01*
X93688Y-43267D01*
X93677Y-43278D01*
X93664Y-43287D01*
X93650Y-43294D01*
X93634Y-43299D01*
X93618Y-43304D01*
X93601Y-43307D01*
X93584Y-43310D01*
X93566Y-43312D01*
X93549Y-43314D01*
X93532Y-43315D01*
X93516Y-43314D01*
X93500Y-43311D01*
X93486Y-43307D01*
X93472Y-43299D01*
X93459Y-43289D01*
X93446Y-43273D01*
X93440Y-43262D01*
X93433Y-43249D01*
X93427Y-43232D01*
X93421Y-43214D01*
X93418Y-43199D01*
X93415Y-43183D01*
X93412Y-43164D01*
X93412Y-43164D01*
X93409Y-43139D01*
X93407Y-43117D01*
X93406Y-43097D01*
X93407Y-43081D01*
X93410Y-43062D01*
X93415Y-43045D01*
X93421Y-43031D01*
X93434Y-43014D01*
X93525Y-42906D01*
X93510Y-42909D01*
X93495Y-42911D01*
X93479Y-42914D01*
X93464Y-42917D01*
X93448Y-42921D01*
X93432Y-42926D01*
X93416Y-42932D01*
X93401Y-42940D01*
X93386Y-42948D01*
X93372Y-42958D01*
X93360Y-42969D01*
X93348Y-42982D01*
X93338Y-42997D01*
X93330Y-43012D01*
X93324Y-43028D01*
X93320Y-43044D01*
X93317Y-43061D01*
X93316Y-43078D01*
X93315Y-43094D01*
X93315Y-43111D01*
X93316Y-43129D01*
X93318Y-43145D01*
X93320Y-43162D01*
X93322Y-43178D01*
X93324Y-43191D01*
X93327Y-43206D01*
X93330Y-43222D01*
X93333Y-43238D01*
X93338Y-43254D01*
X93343Y-43271D01*
X93349Y-43287D01*
X93357Y-43303D01*
X93366Y-43318D01*
X93377Y-43333D01*
X93389Y-43346D01*
X93403Y-43357D01*
X93418Y-43366D01*
X93434Y-43374D01*
X93450Y-43379D01*
X93467Y-43383D01*
X93483Y-43385D01*
X93500Y-43387D01*
X93517Y-43387D01*
X93534Y-43386D01*
X93550Y-43385D01*
X93566Y-43383D01*
X93581Y-43381D01*
X93595Y-43379D01*
X93608Y-43377D01*
X93623Y-43374D01*
X93639Y-43371D01*
X93655Y-43368D01*
X93671Y-43364D01*
X93687Y-43359D01*
X93703Y-43353D01*
X93718Y-43346D01*
X93733Y-43337D01*
X93747Y-43328D01*
X93760Y-43316D01*
X93771Y-43303D01*
X93781Y-43289D01*
X93788Y-43274D01*
X93794Y-43258D01*
X93798Y-43242D01*
X93801Y-43225D01*
X93803Y-43208D01*
X93803Y-43191D01*
X93803Y-43174D01*
X93802Y-43157D01*
X93800Y-43140D01*
X93799Y-43123D01*
X93797Y-43108D01*
X93794Y-43092D01*
X93791Y-43076D01*
X93788Y-43060D01*
X93784Y-43043D01*
X93779Y-43026D01*
X93773Y-43010D01*
X93767Y-42994D01*
X93759Y-42979D01*
X93750Y-42964D01*
X93740Y-42951D01*
X93729Y-42939D01*
X93716Y-42928D01*
X93701Y-42919D01*
X93685Y-42911D01*
X93669Y-42906D01*
X93653Y-42902D01*
X93636Y-42900D01*
X93619Y-42899D01*
X93602Y-42898D01*
X93586Y-42899D01*
X93569Y-42901D01*
X93554Y-42903D01*
X93539Y-42904D01*
X93525Y-42906D01*
X93525Y-42906D01*
X93525Y-42906D01*
G37*
G36*
X94247Y-43515D02*
X94275Y-43451D01*
X94046Y-43351D01*
X94030Y-43343D01*
X94021Y-43334D01*
X94022Y-43314D01*
X94066Y-43214D01*
X94320Y-43325D01*
X94348Y-43261D01*
X94094Y-43150D01*
X94132Y-43064D01*
X94137Y-43054D01*
X94147Y-43046D01*
X94160Y-43046D01*
X94172Y-43050D01*
X94403Y-43150D01*
X94431Y-43086D01*
X94157Y-42966D01*
X94144Y-42962D01*
X94129Y-42957D01*
X94114Y-42956D01*
X94098Y-42961D01*
X94088Y-42967D01*
X94078Y-42976D01*
X94070Y-42987D01*
X94064Y-42999D01*
X93932Y-43302D01*
X93927Y-43315D01*
X93923Y-43329D01*
X93922Y-43344D01*
X93926Y-43359D01*
X93933Y-43372D01*
X93943Y-43381D01*
X93955Y-43387D01*
X93969Y-43394D01*
X94247Y-43515D01*
X94247Y-43515D01*
X94247Y-43515D01*
G37*
G36*
X94715Y-43333D02*
X94652Y-43409D01*
X94660Y-43403D01*
X94672Y-43401D01*
X94681Y-43406D01*
X94688Y-43414D01*
X94773Y-43531D01*
X94780Y-43540D01*
X94786Y-43550D01*
X94789Y-43560D01*
X94789Y-43573D01*
X94785Y-43587D01*
X94776Y-43599D01*
X94766Y-43608D01*
X94758Y-43614D01*
X94741Y-43626D01*
X94728Y-43631D01*
X94714Y-43634D01*
X94700Y-43632D01*
X94689Y-43625D01*
X94680Y-43616D01*
X94672Y-43605D01*
X94571Y-43468D01*
X94652Y-43409D01*
X94652Y-43409D01*
X94715Y-43333D01*
X94515Y-43509D01*
X94620Y-43653D01*
X94630Y-43669D01*
X94633Y-43683D01*
X94633Y-43703D01*
X94627Y-43713D01*
X94618Y-43723D01*
X94609Y-43732D01*
X94600Y-43739D01*
X94590Y-43745D01*
X94579Y-43751D01*
X94567Y-43756D01*
X94555Y-43757D01*
X94540Y-43754D01*
X94528Y-43745D01*
X94519Y-43735D01*
X94511Y-43726D01*
X94429Y-43614D01*
X94421Y-43602D01*
X94418Y-43586D01*
X94423Y-43578D01*
X94437Y-43566D01*
X94515Y-43509D01*
X94515Y-43509D01*
X94715Y-43333D01*
X94707Y-43323D01*
X94697Y-43314D01*
X94685Y-43307D01*
X94670Y-43304D01*
X94658Y-43305D01*
X94646Y-43308D01*
X94634Y-43314D01*
X94623Y-43321D01*
X94354Y-43518D01*
X94340Y-43530D01*
X94332Y-43541D01*
X94325Y-43559D01*
X94324Y-43578D01*
X94329Y-43593D01*
X94338Y-43607D01*
X94348Y-43621D01*
X94480Y-43801D01*
X94492Y-43818D01*
X94500Y-43826D01*
X94508Y-43834D01*
X94517Y-43840D01*
X94528Y-43846D01*
X94540Y-43850D01*
X94554Y-43852D01*
X94573Y-43852D01*
X94591Y-43849D01*
X94607Y-43842D01*
X94622Y-43834D01*
X94636Y-43825D01*
X94649Y-43816D01*
X94665Y-43803D01*
X94681Y-43789D01*
X94689Y-43780D01*
X94695Y-43771D01*
X94700Y-43760D01*
X94703Y-43749D01*
X94704Y-43736D01*
X94703Y-43721D01*
X94700Y-43707D01*
X94693Y-43693D01*
X94695Y-43691D01*
X94704Y-43700D01*
X94714Y-43706D01*
X94726Y-43710D01*
X94740Y-43712D01*
X94763Y-43711D01*
X94781Y-43705D01*
X94799Y-43696D01*
X94815Y-43685D01*
X94824Y-43678D01*
X94834Y-43670D01*
X94844Y-43661D01*
X94853Y-43651D01*
X94861Y-43640D01*
X94869Y-43628D01*
X94875Y-43616D01*
X94878Y-43603D01*
X94879Y-43590D01*
X94878Y-43578D01*
X94876Y-43566D01*
X94872Y-43555D01*
X94868Y-43544D01*
X94862Y-43534D01*
X94851Y-43518D01*
X94715Y-43333D01*
X94715Y-43333D01*
X94715Y-43333D01*
G37*
G36*
X94562Y-43905D02*
X94570Y-43997D01*
X94756Y-44052D01*
X94952Y-44112D01*
X94952Y-44112D01*
X94964Y-44116D01*
X94972Y-44123D01*
X94965Y-44132D01*
X94954Y-44138D01*
X94771Y-44230D01*
X94756Y-44052D01*
X94570Y-43997D01*
X94691Y-44034D01*
X94710Y-44258D01*
X94597Y-44316D01*
X94605Y-44409D01*
X95008Y-44197D01*
X95024Y-44187D01*
X95037Y-44176D01*
X95046Y-44164D01*
X95051Y-44151D01*
X95054Y-44135D01*
X95054Y-44116D01*
X95051Y-44097D01*
X95045Y-44082D01*
X95038Y-44070D01*
X95027Y-44060D01*
X95013Y-44052D01*
X94995Y-44045D01*
X94562Y-43905D01*
X94562Y-43905D01*
X94562Y-43905D01*
G37*
G54D12*
X96000Y-44500D03*
X100000Y-44500D03*
G54D13*
X98000Y-41300D03*
G54D14*
X96000Y-41300D03*
X92300Y-45250D03*
G54D13*
X92300Y-42250D03*
G54D14*
X95500Y-46500D03*
G54D13*
X100100Y-41300D03*
X103700Y-42250D03*
G54D14*
X103700Y-45250D03*
G54D15*
X99500Y-45500D03*
X96500Y-45500D03*
G54D13*
X96500Y-46500D03*
G54D14*
X99500Y-46500D03*
G54D16*
X97500Y-45500D03*
X98500Y-45500D03*
G54D13*
X100500Y-46500D03*
G54D14*
X101250Y-41300D03*
G54D17*
X99000Y-41500D02*
X98984Y-41728D01*
G54D18*
X97015Y-41925D03*
X96500Y-42500D03*
G54D19*
X100600Y-44000D03*
X98950Y-44600D03*
X96950Y-44000D03*
X99050Y-44000D03*
X97100Y-44600D03*
G54D20*
X101250Y-41300D02*
X101250Y-41850D01*
X101250Y-41850D02*
X100250Y-42850D01*
X97750Y-41750D02*
X98850Y-42850D01*
X98850Y-42850D02*
X99150Y-42850D01*
X100250Y-42850D02*
X99150Y-42850D01*
X97300Y-41300D02*
X96000Y-41300D01*
X100600Y-43200D02*
X100600Y-44000D01*
X100250Y-42850D02*
X100600Y-43200D01*
X97300Y-41300D02*
X97750Y-41750D01*
X95500Y-46500D02*
X95650Y-46500D01*
X98000Y-46000D02*
X98500Y-45500D01*
X96150Y-46000D02*
X98000Y-46000D01*
X95650Y-46500D02*
X96150Y-46000D01*
X92300Y-45250D02*
X92950Y-45250D01*
X96000Y-45250D02*
X96300Y-44950D01*
X96300Y-44950D02*
X98600Y-44950D01*
X98600Y-44950D02*
X98950Y-44600D01*
X92950Y-45250D02*
X96000Y-45250D01*
X103700Y-45250D02*
X103050Y-45250D01*
X100750Y-45250D02*
X100000Y-44500D01*
X103050Y-45250D02*
X100750Y-45250D01*
X100000Y-44500D02*
X99050Y-44500D01*
X99050Y-44500D02*
X98950Y-44600D01*
X100500Y-46500D02*
X100000Y-46000D01*
X98500Y-46500D02*
X96500Y-46500D01*
X99000Y-46000D02*
X98500Y-46500D01*
X100000Y-46000D02*
X99000Y-46000D01*
X98000Y-41300D02*
X98000Y-41700D01*
X100100Y-41700D02*
X100100Y-41300D01*
X99250Y-42550D02*
X100100Y-41700D01*
X98850Y-42550D02*
X99250Y-42550D01*
X98000Y-41700D02*
X98850Y-42550D01*
X95575Y-44010D02*
X95575Y-44000D01*
X96950Y-44000D02*
X96940Y-44010D01*
X95575Y-44010D02*
X96940Y-44010D01*
X94675Y-42250D02*
X92300Y-42250D01*
X95350Y-42925D02*
X94675Y-42250D01*
X95350Y-43775D02*
X95350Y-42925D01*
X95575Y-44000D02*
X95350Y-43775D01*
X96950Y-44000D02*
X97000Y-44000D01*
X98350Y-44700D02*
X99050Y-44000D01*
X97700Y-44700D02*
X98350Y-44700D01*
X97000Y-44000D02*
X97700Y-44700D01*
X96000Y-44500D02*
X97000Y-44500D01*
X97000Y-44500D02*
X97100Y-44600D01*
G54D10*
G36*
X95059Y-43823D02*
X95031Y-43813D01*
X95052Y-43789D01*
X95059Y-43823D01*
X95059Y-43823D01*
G37*
G54D20*
X95059Y-43823D02*
X95031Y-43813D01*
X95052Y-43789D01*
X95059Y-43823D01*
G54D10*
G36*
X96059Y-46830D02*
X96045Y-46830D01*
X96045Y-46816D01*
X96059Y-46830D01*
X96059Y-46830D01*
G37*
G54D20*
X96059Y-46830D02*
X96045Y-46830D01*
X96045Y-46816D01*
X96059Y-46830D01*
G54D10*
G36*
X96251Y-41845D02*
X96104Y-41906D01*
X95906Y-42102D01*
X95800Y-42360D01*
X95799Y-42638D01*
X95905Y-42895D01*
X95880Y-42895D01*
X95867Y-42900D01*
X95854Y-42900D01*
X95679Y-42973D01*
X95677Y-42979D01*
X95657Y-42987D01*
X95650Y-42994D01*
X95650Y-42925D01*
X95627Y-42810D01*
X95562Y-42712D01*
X94887Y-42037D01*
X94789Y-41972D01*
X94675Y-41950D01*
X92766Y-41950D01*
X92762Y-41941D01*
X92609Y-41788D01*
X92408Y-41704D01*
X92192Y-41704D01*
X91991Y-41787D01*
X91838Y-41940D01*
X91754Y-42141D01*
X91754Y-42357D01*
X91837Y-42558D01*
X91990Y-42711D01*
X92191Y-42795D01*
X92407Y-42795D01*
X92608Y-42712D01*
X92761Y-42559D01*
X92765Y-42550D01*
X94550Y-42550D01*
X95050Y-43049D01*
X95050Y-43413D01*
X94753Y-43047D01*
X94391Y-42814D01*
X94003Y-42685D01*
X93513Y-42685D01*
X93022Y-42814D01*
X92609Y-43123D01*
X92295Y-43517D01*
X92295Y-43708D01*
X92389Y-43787D01*
X92174Y-43845D01*
X92115Y-44313D01*
X92708Y-44610D01*
X92971Y-44610D01*
X93093Y-44427D01*
X93143Y-44003D01*
X93328Y-43749D01*
X93477Y-43676D01*
X93488Y-43730D01*
X93542Y-43812D01*
X93624Y-43866D01*
X93720Y-43885D01*
X93815Y-43866D01*
X93897Y-43812D01*
X93951Y-43730D01*
X93960Y-43685D01*
X94113Y-43750D01*
X94272Y-43955D01*
X94321Y-44272D01*
X94401Y-44487D01*
X94524Y-44610D01*
X94757Y-44610D01*
X95297Y-44313D01*
X95284Y-44133D01*
X95342Y-44191D01*
X95362Y-44222D01*
X95460Y-44287D01*
X95465Y-44288D01*
X95425Y-44385D01*
X95424Y-44613D01*
X95512Y-44825D01*
X95636Y-44950D01*
X92950Y-44950D01*
X92845Y-44950D01*
X92845Y-44905D01*
X92807Y-44813D01*
X92737Y-44742D01*
X92645Y-44704D01*
X92545Y-44704D01*
X91955Y-44704D01*
X91863Y-44742D01*
X91792Y-44812D01*
X91754Y-44904D01*
X91754Y-45004D01*
X91754Y-45594D01*
X91792Y-45686D01*
X91862Y-45757D01*
X91954Y-45795D01*
X92054Y-45795D01*
X92644Y-45795D01*
X92736Y-45757D01*
X92807Y-45687D01*
X92845Y-45595D01*
X92845Y-45550D01*
X92950Y-45550D01*
X95974Y-45550D01*
X95974Y-45603D01*
X96026Y-45728D01*
X95937Y-45787D01*
X95771Y-45954D01*
X95745Y-45954D01*
X95155Y-45954D01*
X95063Y-45992D01*
X94992Y-46062D01*
X94954Y-46154D01*
X94954Y-46254D01*
X94954Y-46844D01*
X94981Y-46908D01*
X94977Y-46910D01*
X94977Y-46910D01*
X94832Y-47007D01*
X94831Y-47007D01*
X94757Y-47082D01*
X94659Y-47228D01*
X94619Y-47325D01*
X94619Y-47326D01*
X94585Y-47496D01*
X94585Y-47497D01*
X94531Y-47769D01*
X94406Y-47957D01*
X94335Y-48004D01*
X94335Y-46545D01*
X94177Y-46164D01*
X93887Y-45873D01*
X93506Y-45715D01*
X93095Y-45714D01*
X92714Y-45872D01*
X92423Y-46162D01*
X92265Y-46543D01*
X92264Y-46954D01*
X92422Y-47335D01*
X92712Y-47626D01*
X93093Y-47784D01*
X93504Y-47785D01*
X93885Y-47627D01*
X94176Y-47337D01*
X94334Y-46956D01*
X94335Y-46545D01*
X94335Y-48004D01*
X94219Y-48081D01*
X93973Y-48130D01*
X92874Y-48130D01*
X92533Y-48062D01*
X92267Y-47883D01*
X92088Y-47616D01*
X92019Y-47273D01*
X92019Y-46550D01*
X92014Y-46524D01*
X92014Y-46497D01*
X91991Y-46382D01*
X91991Y-46382D01*
X91951Y-46285D01*
X91886Y-46187D01*
X91811Y-46113D01*
X91811Y-46113D01*
X91714Y-46048D01*
X91617Y-46008D01*
X91617Y-46008D01*
X91502Y-45985D01*
X91502Y-45985D01*
X91421Y-45969D01*
X91397Y-45953D01*
X91380Y-45928D01*
X91369Y-45873D01*
X91369Y-44215D01*
X91441Y-44186D01*
X91441Y-44185D01*
X91603Y-44078D01*
X91677Y-44003D01*
X91678Y-44002D01*
X91785Y-43841D01*
X91786Y-43840D01*
X91826Y-43743D01*
X91864Y-43552D01*
X91864Y-43552D01*
X91864Y-43552D01*
X91864Y-43552D01*
X91864Y-43500D01*
X91864Y-43447D01*
X91864Y-43447D01*
X91864Y-43447D01*
X91864Y-43447D01*
X91826Y-43256D01*
X91786Y-43159D01*
X91785Y-43158D01*
X91678Y-42997D01*
X91677Y-42996D01*
X91603Y-42921D01*
X91441Y-42814D01*
X91441Y-42813D01*
X91369Y-42784D01*
X91369Y-41311D01*
X91421Y-41290D01*
X91567Y-41192D01*
X91642Y-41118D01*
X91642Y-41117D01*
X91739Y-40972D01*
X91739Y-40972D01*
X91780Y-40875D01*
X91814Y-40702D01*
X91814Y-40702D01*
X91838Y-40582D01*
X91875Y-40526D01*
X91933Y-40488D01*
X92025Y-40469D01*
X92430Y-40469D01*
X92430Y-40750D01*
X92435Y-40776D01*
X92435Y-40802D01*
X92481Y-41030D01*
X92481Y-41031D01*
X92521Y-41129D01*
X92651Y-41324D01*
X92725Y-41398D01*
X92726Y-41398D01*
X92919Y-41527D01*
X92920Y-41528D01*
X93017Y-41568D01*
X93247Y-41614D01*
X93352Y-41614D01*
X93353Y-41614D01*
X93580Y-41568D01*
X93581Y-41568D01*
X93679Y-41528D01*
X93874Y-41398D01*
X93948Y-41324D01*
X93948Y-41323D01*
X94077Y-41130D01*
X94078Y-41129D01*
X94118Y-41032D01*
X94164Y-40802D01*
X94164Y-40775D01*
X94169Y-40750D01*
X94169Y-40469D01*
X94673Y-40469D01*
X94679Y-40470D01*
X94685Y-40502D01*
X94685Y-40502D01*
X94704Y-40598D01*
X94704Y-40598D01*
X94704Y-40598D01*
X94706Y-40602D01*
X94744Y-40695D01*
X94744Y-40695D01*
X94744Y-40695D01*
X94798Y-40776D01*
X94798Y-40776D01*
X94799Y-40776D01*
X94799Y-40776D01*
X94802Y-40780D01*
X94873Y-40850D01*
X94954Y-40905D01*
X94954Y-40905D01*
X94954Y-40905D01*
X94958Y-40907D01*
X95051Y-40945D01*
X95051Y-40945D01*
X95051Y-40945D01*
X95147Y-40964D01*
X95173Y-40964D01*
X95200Y-40969D01*
X95454Y-40969D01*
X95454Y-41054D01*
X95454Y-41644D01*
X95492Y-41736D01*
X95562Y-41807D01*
X95654Y-41845D01*
X95754Y-41845D01*
X96251Y-41845D01*
X96251Y-41845D01*
G37*
G54D20*
X96251Y-41845D02*
X96104Y-41906D01*
X95906Y-42102D01*
X95800Y-42360D01*
X95799Y-42638D01*
X95905Y-42895D01*
X95880Y-42895D01*
X95867Y-42900D01*
X95854Y-42900D01*
X95679Y-42973D01*
X95677Y-42979D01*
X95657Y-42987D01*
X95650Y-42994D01*
X95650Y-42925D01*
X95627Y-42810D01*
X95562Y-42712D01*
X94887Y-42037D01*
X94789Y-41972D01*
X94675Y-41950D01*
X92766Y-41950D01*
X92762Y-41941D01*
X92609Y-41788D01*
X92408Y-41704D01*
X92192Y-41704D01*
X91991Y-41787D01*
X91838Y-41940D01*
X91754Y-42141D01*
X91754Y-42357D01*
X91837Y-42558D01*
X91990Y-42711D01*
X92191Y-42795D01*
X92407Y-42795D01*
X92608Y-42712D01*
X92761Y-42559D01*
X92765Y-42550D01*
X94550Y-42550D01*
X95050Y-43049D01*
X95050Y-43413D01*
X94753Y-43047D01*
X94391Y-42814D01*
X94003Y-42685D01*
X93513Y-42685D01*
X93022Y-42814D01*
X92609Y-43123D01*
X92295Y-43517D01*
X92295Y-43708D01*
X92389Y-43787D01*
X92174Y-43845D01*
X92115Y-44313D01*
X92708Y-44610D01*
X92971Y-44610D01*
X93093Y-44427D01*
X93143Y-44003D01*
X93328Y-43749D01*
X93477Y-43676D01*
X93488Y-43730D01*
X93542Y-43812D01*
X93624Y-43866D01*
X93720Y-43885D01*
X93815Y-43866D01*
X93897Y-43812D01*
X93951Y-43730D01*
X93960Y-43685D01*
X94113Y-43750D01*
X94272Y-43955D01*
X94321Y-44272D01*
X94401Y-44487D01*
X94524Y-44610D01*
X94757Y-44610D01*
X95297Y-44313D01*
X95284Y-44133D01*
X95342Y-44191D01*
X95362Y-44222D01*
X95460Y-44287D01*
X95465Y-44288D01*
X95425Y-44385D01*
X95424Y-44613D01*
X95512Y-44825D01*
X95636Y-44950D01*
X92950Y-44950D01*
X92845Y-44950D01*
X92845Y-44905D01*
X92807Y-44813D01*
X92737Y-44742D01*
X92645Y-44704D01*
X92545Y-44704D01*
X91955Y-44704D01*
X91863Y-44742D01*
X91792Y-44812D01*
X91754Y-44904D01*
X91754Y-45004D01*
X91754Y-45594D01*
X91792Y-45686D01*
X91862Y-45757D01*
X91954Y-45795D01*
X92054Y-45795D01*
X92644Y-45795D01*
X92736Y-45757D01*
X92807Y-45687D01*
X92845Y-45595D01*
X92845Y-45550D01*
X92950Y-45550D01*
X95974Y-45550D01*
X95974Y-45603D01*
X96026Y-45728D01*
X95937Y-45787D01*
X95771Y-45954D01*
X95745Y-45954D01*
X95155Y-45954D01*
X95063Y-45992D01*
X94992Y-46062D01*
X94954Y-46154D01*
X94954Y-46254D01*
X94954Y-46844D01*
X94981Y-46908D01*
X94977Y-46910D01*
X94977Y-46910D01*
X94832Y-47007D01*
X94831Y-47007D01*
X94757Y-47082D01*
X94659Y-47228D01*
X94619Y-47325D01*
X94619Y-47326D01*
X94585Y-47496D01*
X94585Y-47497D01*
X94531Y-47769D01*
X94406Y-47957D01*
X94335Y-48004D01*
X94335Y-46545D01*
X94177Y-46164D01*
X93887Y-45873D01*
X93506Y-45715D01*
X93095Y-45714D01*
X92714Y-45872D01*
X92423Y-46162D01*
X92265Y-46543D01*
X92264Y-46954D01*
X92422Y-47335D01*
X92712Y-47626D01*
X93093Y-47784D01*
X93504Y-47785D01*
X93885Y-47627D01*
X94176Y-47337D01*
X94334Y-46956D01*
X94335Y-46545D01*
X94335Y-48004D01*
X94219Y-48081D01*
X93973Y-48130D01*
X92874Y-48130D01*
X92533Y-48062D01*
X92267Y-47883D01*
X92088Y-47616D01*
X92019Y-47273D01*
X92019Y-46550D01*
X92014Y-46524D01*
X92014Y-46497D01*
X91991Y-46382D01*
X91991Y-46382D01*
X91951Y-46285D01*
X91886Y-46187D01*
X91811Y-46113D01*
X91811Y-46113D01*
X91714Y-46048D01*
X91617Y-46008D01*
X91617Y-46008D01*
X91502Y-45985D01*
X91502Y-45985D01*
X91421Y-45969D01*
X91397Y-45953D01*
X91380Y-45928D01*
X91369Y-45873D01*
X91369Y-44215D01*
X91441Y-44186D01*
X91441Y-44185D01*
X91603Y-44078D01*
X91677Y-44003D01*
X91678Y-44002D01*
X91785Y-43841D01*
X91786Y-43840D01*
X91826Y-43743D01*
X91864Y-43552D01*
X91864Y-43552D01*
X91864Y-43552D01*
X91864Y-43552D01*
X91864Y-43500D01*
X91864Y-43447D01*
X91864Y-43447D01*
X91864Y-43447D01*
X91864Y-43447D01*
X91826Y-43256D01*
X91786Y-43159D01*
X91785Y-43158D01*
X91678Y-42997D01*
X91677Y-42996D01*
X91603Y-42921D01*
X91441Y-42814D01*
X91441Y-42813D01*
X91369Y-42784D01*
X91369Y-41311D01*
X91421Y-41290D01*
X91567Y-41192D01*
X91642Y-41118D01*
X91642Y-41117D01*
X91739Y-40972D01*
X91739Y-40972D01*
X91780Y-40875D01*
X91814Y-40702D01*
X91814Y-40702D01*
X91838Y-40582D01*
X91875Y-40526D01*
X91933Y-40488D01*
X92025Y-40469D01*
X92430Y-40469D01*
X92430Y-40750D01*
X92435Y-40776D01*
X92435Y-40802D01*
X92481Y-41030D01*
X92481Y-41031D01*
X92521Y-41129D01*
X92651Y-41324D01*
X92725Y-41398D01*
X92726Y-41398D01*
X92919Y-41527D01*
X92920Y-41528D01*
X93017Y-41568D01*
X93247Y-41614D01*
X93352Y-41614D01*
X93353Y-41614D01*
X93580Y-41568D01*
X93581Y-41568D01*
X93679Y-41528D01*
X93874Y-41398D01*
X93948Y-41324D01*
X93948Y-41323D01*
X94077Y-41130D01*
X94078Y-41129D01*
X94118Y-41032D01*
X94164Y-40802D01*
X94164Y-40775D01*
X94169Y-40750D01*
X94169Y-40469D01*
X94673Y-40469D01*
X94679Y-40470D01*
X94685Y-40502D01*
X94685Y-40502D01*
X94704Y-40598D01*
X94704Y-40598D01*
X94704Y-40598D01*
X94706Y-40602D01*
X94744Y-40695D01*
X94744Y-40695D01*
X94744Y-40695D01*
X94798Y-40776D01*
X94798Y-40776D01*
X94799Y-40776D01*
X94799Y-40776D01*
X94802Y-40780D01*
X94873Y-40850D01*
X94954Y-40905D01*
X94954Y-40905D01*
X94954Y-40905D01*
X94958Y-40907D01*
X95051Y-40945D01*
X95051Y-40945D01*
X95051Y-40945D01*
X95147Y-40964D01*
X95173Y-40964D01*
X95200Y-40969D01*
X95454Y-40969D01*
X95454Y-41054D01*
X95454Y-41644D01*
X95492Y-41736D01*
X95562Y-41807D01*
X95654Y-41845D01*
X95754Y-41845D01*
X96251Y-41845D01*
G54D10*
G36*
X96975Y-45250D02*
X96970Y-45263D01*
X96964Y-45250D01*
X96975Y-45250D01*
X96975Y-45250D01*
G37*
G54D20*
X96975Y-45250D02*
X96970Y-45263D01*
X96964Y-45250D01*
X96975Y-45250D01*
G54D10*
G36*
X97559Y-40969D02*
X97538Y-40990D01*
X97500Y-41080D01*
X97414Y-41022D01*
X97300Y-41000D01*
X96545Y-41000D01*
X96545Y-40969D01*
X97559Y-40969D01*
X97559Y-40969D01*
G37*
G54D20*
X97559Y-40969D02*
X97538Y-40990D01*
X97500Y-41080D01*
X97414Y-41022D01*
X97300Y-41000D01*
X96545Y-41000D01*
X96545Y-40969D01*
X97559Y-40969D01*
G54D10*
G36*
X98040Y-42464D02*
X97996Y-42464D01*
X97795Y-42464D01*
X97790Y-42466D01*
X97785Y-42466D01*
X97420Y-42617D01*
X97419Y-42619D01*
X97414Y-42622D01*
X97123Y-42912D01*
X97120Y-42919D01*
X97117Y-42920D01*
X97042Y-43107D01*
X96965Y-43293D01*
X96965Y-43298D01*
X96963Y-43302D01*
X96964Y-43503D01*
X96964Y-43575D01*
X96865Y-43574D01*
X96709Y-43639D01*
X96638Y-43710D01*
X96567Y-43710D01*
X96604Y-43620D01*
X96604Y-43607D01*
X96609Y-43594D01*
X96604Y-43487D01*
X96604Y-43380D01*
X96599Y-43367D01*
X96599Y-43354D01*
X96535Y-43200D01*
X96638Y-43200D01*
X96896Y-43093D01*
X97093Y-42897D01*
X97199Y-42639D01*
X97199Y-42606D01*
X97411Y-42518D01*
X97608Y-42322D01*
X97693Y-42117D01*
X98040Y-42464D01*
X98040Y-42464D01*
G37*
G54D20*
X98040Y-42464D02*
X97996Y-42464D01*
X97795Y-42464D01*
X97790Y-42466D01*
X97785Y-42466D01*
X97420Y-42617D01*
X97419Y-42619D01*
X97414Y-42622D01*
X97123Y-42912D01*
X97120Y-42919D01*
X97117Y-42920D01*
X97042Y-43107D01*
X96965Y-43293D01*
X96965Y-43298D01*
X96963Y-43302D01*
X96964Y-43503D01*
X96964Y-43575D01*
X96865Y-43574D01*
X96709Y-43639D01*
X96638Y-43710D01*
X96567Y-43710D01*
X96604Y-43620D01*
X96604Y-43607D01*
X96609Y-43594D01*
X96604Y-43487D01*
X96604Y-43380D01*
X96599Y-43367D01*
X96599Y-43354D01*
X96535Y-43200D01*
X96638Y-43200D01*
X96896Y-43093D01*
X97093Y-42897D01*
X97199Y-42639D01*
X97199Y-42606D01*
X97411Y-42518D01*
X97608Y-42322D01*
X97693Y-42117D01*
X98040Y-42464D01*
G54D10*
G36*
X98495Y-46079D02*
X98375Y-46200D01*
X98224Y-46200D01*
X98356Y-46068D01*
X98384Y-46079D01*
X98495Y-46079D01*
X98495Y-46079D01*
G37*
G54D20*
X98495Y-46079D02*
X98375Y-46200D01*
X98224Y-46200D01*
X98356Y-46068D01*
X98384Y-46079D01*
X98495Y-46079D01*
G54D10*
G36*
X98531Y-40969D02*
X98480Y-41035D01*
X98462Y-40991D01*
X98440Y-40969D01*
X98531Y-40969D01*
X98531Y-40969D01*
G37*
G54D20*
X98531Y-40969D02*
X98480Y-41035D01*
X98462Y-40991D01*
X98440Y-40969D01*
X98531Y-40969D01*
G54D10*
G36*
X98954Y-46830D02*
X96940Y-46830D01*
X96961Y-46809D01*
X96965Y-46800D01*
X98500Y-46800D01*
X98500Y-46799D01*
X98614Y-46777D01*
X98614Y-46777D01*
X98712Y-46712D01*
X98954Y-46469D01*
X98954Y-46830D01*
X98954Y-46830D01*
G37*
G54D20*
X98954Y-46830D02*
X96940Y-46830D01*
X96961Y-46809D01*
X96965Y-46800D01*
X98500Y-46800D01*
X98500Y-46799D01*
X98614Y-46777D01*
X98614Y-46777D01*
X98712Y-46712D01*
X98954Y-46469D01*
X98954Y-46830D01*
G54D10*
G36*
X99659Y-40969D02*
X99638Y-40990D01*
X99584Y-41120D01*
X99529Y-41024D01*
X99458Y-40969D01*
X99659Y-40969D01*
X99659Y-40969D01*
G37*
G54D20*
X99659Y-40969D02*
X99638Y-40990D01*
X99584Y-41120D01*
X99529Y-41024D01*
X99458Y-40969D01*
X99659Y-40969D01*
G54D10*
G36*
X99669Y-44017D02*
X99512Y-44173D01*
X99501Y-44200D01*
X99427Y-44200D01*
X99474Y-44084D01*
X99475Y-43915D01*
X99410Y-43759D01*
X99291Y-43639D01*
X99134Y-43575D01*
X99035Y-43574D01*
X99035Y-43496D01*
X99035Y-43295D01*
X99033Y-43290D01*
X99033Y-43285D01*
X98977Y-43150D01*
X99150Y-43150D01*
X99494Y-43150D01*
X99487Y-43157D01*
X99479Y-43177D01*
X99473Y-43179D01*
X99436Y-43280D01*
X99395Y-43379D01*
X99395Y-43392D01*
X99390Y-43405D01*
X99395Y-43512D01*
X99395Y-43619D01*
X99400Y-43632D01*
X99400Y-43645D01*
X99473Y-43820D01*
X99479Y-43822D01*
X99487Y-43842D01*
X99657Y-44012D01*
X99669Y-44017D01*
X99669Y-44017D01*
G37*
G54D20*
X99669Y-44017D02*
X99512Y-44173D01*
X99501Y-44200D01*
X99427Y-44200D01*
X99474Y-44084D01*
X99475Y-43915D01*
X99410Y-43759D01*
X99291Y-43639D01*
X99134Y-43575D01*
X99035Y-43574D01*
X99035Y-43496D01*
X99035Y-43295D01*
X99033Y-43290D01*
X99033Y-43285D01*
X98977Y-43150D01*
X99150Y-43150D01*
X99494Y-43150D01*
X99487Y-43157D01*
X99479Y-43177D01*
X99473Y-43179D01*
X99436Y-43280D01*
X99395Y-43379D01*
X99395Y-43392D01*
X99390Y-43405D01*
X99395Y-43512D01*
X99395Y-43619D01*
X99400Y-43632D01*
X99400Y-43645D01*
X99473Y-43820D01*
X99479Y-43822D01*
X99487Y-43842D01*
X99657Y-44012D01*
X99669Y-44017D01*
G54D10*
G36*
X99702Y-41673D02*
X99688Y-41686D01*
X99690Y-41661D01*
X99702Y-41673D01*
X99702Y-41673D01*
G37*
G54D20*
X99702Y-41673D02*
X99688Y-41686D01*
X99690Y-41661D01*
X99702Y-41673D01*
G54D10*
G36*
X100059Y-46830D02*
X100045Y-46830D01*
X100045Y-46816D01*
X100059Y-46830D01*
X100059Y-46830D01*
G37*
G54D20*
X100059Y-46830D02*
X100045Y-46830D01*
X100045Y-46816D01*
X100059Y-46830D01*
G54D10*
G36*
X100675Y-45982D02*
X100608Y-45954D01*
X100392Y-45954D01*
X100382Y-45958D01*
X100212Y-45787D01*
X100114Y-45722D01*
X100000Y-45700D01*
X99985Y-45700D01*
X100024Y-45604D01*
X100025Y-45396D01*
X99945Y-45203D01*
X99797Y-45055D01*
X99604Y-44975D01*
X99396Y-44974D01*
X99203Y-45054D01*
X99055Y-45202D01*
X99029Y-45263D01*
X98991Y-45171D01*
X98897Y-45076D01*
X98949Y-45024D01*
X99034Y-45025D01*
X99190Y-44960D01*
X99310Y-44841D01*
X99327Y-44800D01*
X99501Y-44800D01*
X99512Y-44825D01*
X99673Y-44987D01*
X99885Y-45074D01*
X100113Y-45075D01*
X100140Y-45064D01*
X100537Y-45462D01*
X100537Y-45462D01*
X100635Y-45527D01*
X100675Y-45535D01*
X100675Y-45982D01*
X100675Y-45982D01*
G37*
G54D20*
X100675Y-45982D02*
X100608Y-45954D01*
X100392Y-45954D01*
X100382Y-45958D01*
X100212Y-45787D01*
X100114Y-45722D01*
X100000Y-45700D01*
X99985Y-45700D01*
X100024Y-45604D01*
X100025Y-45396D01*
X99945Y-45203D01*
X99797Y-45055D01*
X99604Y-44975D01*
X99396Y-44974D01*
X99203Y-45054D01*
X99055Y-45202D01*
X99029Y-45263D01*
X98991Y-45171D01*
X98897Y-45076D01*
X98949Y-45024D01*
X99034Y-45025D01*
X99190Y-44960D01*
X99310Y-44841D01*
X99327Y-44800D01*
X99501Y-44800D01*
X99512Y-44825D01*
X99673Y-44987D01*
X99885Y-45074D01*
X100113Y-45075D01*
X100140Y-45064D01*
X100537Y-45462D01*
X100537Y-45462D01*
X100635Y-45527D01*
X100675Y-45535D01*
X100675Y-45982D01*
G54D10*
G36*
X100852Y-41823D02*
X100125Y-42550D01*
X99674Y-42550D01*
X100312Y-41912D01*
X100377Y-41814D01*
X100385Y-41771D01*
X100408Y-41762D01*
X100561Y-41609D01*
X100645Y-41408D01*
X100645Y-41192D01*
X100562Y-40991D01*
X100540Y-40969D01*
X100704Y-40969D01*
X100704Y-41054D01*
X100704Y-41644D01*
X100742Y-41736D01*
X100812Y-41807D01*
X100852Y-41823D01*
X100852Y-41823D01*
G37*
G54D20*
X100852Y-41823D02*
X100125Y-42550D01*
X99674Y-42550D01*
X100312Y-41912D01*
X100377Y-41814D01*
X100385Y-41771D01*
X100408Y-41762D01*
X100561Y-41609D01*
X100645Y-41408D01*
X100645Y-41192D01*
X100562Y-40991D01*
X100540Y-40969D01*
X100704Y-40969D01*
X100704Y-41054D01*
X100704Y-41644D01*
X100742Y-41736D01*
X100812Y-41807D01*
X100852Y-41823D01*
G54D10*
G36*
X104630Y-45872D02*
X104619Y-45928D01*
X104603Y-45952D01*
X104578Y-45969D01*
X104497Y-45985D01*
X104497Y-45985D01*
X104382Y-46008D01*
X104382Y-46008D01*
X104285Y-46048D01*
X104187Y-46113D01*
X104113Y-46188D01*
X104113Y-46188D01*
X104048Y-46285D01*
X104008Y-46382D01*
X104008Y-46382D01*
X103985Y-46497D01*
X103985Y-46523D01*
X103980Y-46550D01*
X103980Y-47275D01*
X103912Y-47616D01*
X103733Y-47882D01*
X103466Y-48061D01*
X103123Y-48130D01*
X101975Y-48130D01*
X101749Y-48085D01*
X101578Y-47970D01*
X101465Y-47801D01*
X101414Y-47547D01*
X101414Y-47546D01*
X101376Y-47356D01*
X101336Y-47259D01*
X101335Y-47258D01*
X101228Y-47097D01*
X101227Y-47096D01*
X101153Y-47021D01*
X100991Y-46914D01*
X100991Y-46913D01*
X100896Y-46874D01*
X100961Y-46809D01*
X101045Y-46608D01*
X101045Y-46392D01*
X100997Y-46275D01*
X101776Y-46275D01*
X101665Y-46543D01*
X101664Y-46954D01*
X101822Y-47335D01*
X102112Y-47626D01*
X102493Y-47784D01*
X102904Y-47785D01*
X103285Y-47627D01*
X103576Y-47337D01*
X103734Y-46956D01*
X103735Y-46545D01*
X103577Y-46164D01*
X103287Y-45873D01*
X102906Y-45715D01*
X102495Y-45714D01*
X102114Y-45872D01*
X102075Y-45911D01*
X102075Y-45550D01*
X103050Y-45550D01*
X103154Y-45550D01*
X103154Y-45594D01*
X103192Y-45686D01*
X103262Y-45757D01*
X103354Y-45795D01*
X103454Y-45795D01*
X104044Y-45795D01*
X104136Y-45757D01*
X104207Y-45687D01*
X104245Y-45595D01*
X104245Y-45495D01*
X104245Y-44905D01*
X104207Y-44813D01*
X104137Y-44742D01*
X104045Y-44704D01*
X103945Y-44704D01*
X103355Y-44704D01*
X103263Y-44742D01*
X103192Y-44812D01*
X103154Y-44904D01*
X103154Y-44950D01*
X103125Y-44950D01*
X103125Y-43940D01*
X103125Y-43783D01*
X103025Y-43650D01*
X102575Y-43650D01*
X102425Y-43450D01*
X101631Y-43450D01*
X101450Y-43601D01*
X101450Y-44770D01*
X101604Y-44925D01*
X102420Y-44925D01*
X102550Y-44795D01*
X102550Y-44725D01*
X102820Y-44725D01*
X102925Y-44620D01*
X102925Y-44280D01*
X102931Y-44270D01*
X102950Y-44175D01*
X102931Y-44079D01*
X102925Y-44069D01*
X102925Y-44050D01*
X103051Y-44050D01*
X103125Y-43940D01*
X103125Y-44950D01*
X103050Y-44950D01*
X100874Y-44950D01*
X100564Y-44640D01*
X100574Y-44614D01*
X100575Y-44424D01*
X100684Y-44425D01*
X100840Y-44360D01*
X100960Y-44241D01*
X101024Y-44084D01*
X101025Y-43915D01*
X100960Y-43759D01*
X100900Y-43698D01*
X100900Y-43200D01*
X100899Y-43199D01*
X100877Y-43085D01*
X100812Y-42987D01*
X100812Y-42987D01*
X100674Y-42849D01*
X101462Y-42062D01*
X101462Y-42062D01*
X101527Y-41964D01*
X101549Y-41850D01*
X101550Y-41850D01*
X101550Y-41845D01*
X101594Y-41845D01*
X101686Y-41807D01*
X101757Y-41737D01*
X101795Y-41645D01*
X101795Y-41545D01*
X101795Y-40955D01*
X101757Y-40863D01*
X101687Y-40792D01*
X101595Y-40754D01*
X101495Y-40754D01*
X101215Y-40754D01*
X101255Y-40695D01*
X101255Y-40695D01*
X101255Y-40695D01*
X101257Y-40691D01*
X101295Y-40598D01*
X101295Y-40598D01*
X101295Y-40598D01*
X101314Y-40502D01*
X101314Y-40502D01*
X101320Y-40470D01*
X101326Y-40469D01*
X101830Y-40469D01*
X101830Y-40750D01*
X101835Y-40776D01*
X101835Y-40802D01*
X101881Y-41030D01*
X101881Y-41031D01*
X101921Y-41129D01*
X102051Y-41324D01*
X102125Y-41398D01*
X102126Y-41398D01*
X102319Y-41527D01*
X102320Y-41528D01*
X102417Y-41568D01*
X102647Y-41614D01*
X102752Y-41614D01*
X102753Y-41614D01*
X102980Y-41568D01*
X102981Y-41568D01*
X103079Y-41528D01*
X103274Y-41398D01*
X103348Y-41324D01*
X103348Y-41323D01*
X103477Y-41130D01*
X103478Y-41129D01*
X103518Y-41032D01*
X103564Y-40802D01*
X103564Y-40775D01*
X103569Y-40750D01*
X103569Y-40469D01*
X103923Y-40469D01*
X104035Y-40491D01*
X104108Y-40540D01*
X104157Y-40614D01*
X104185Y-40752D01*
X104185Y-40753D01*
X104219Y-40923D01*
X104219Y-40924D01*
X104259Y-41021D01*
X104357Y-41167D01*
X104431Y-41242D01*
X104432Y-41242D01*
X104577Y-41339D01*
X104577Y-41339D01*
X104630Y-41361D01*
X104630Y-42784D01*
X104559Y-42813D01*
X104558Y-42814D01*
X104397Y-42921D01*
X104396Y-42922D01*
X104321Y-42996D01*
X104245Y-43111D01*
X104245Y-42142D01*
X104162Y-41941D01*
X104009Y-41788D01*
X103808Y-41704D01*
X103592Y-41704D01*
X103391Y-41787D01*
X103238Y-41940D01*
X103154Y-42141D01*
X103154Y-42357D01*
X103237Y-42558D01*
X103390Y-42711D01*
X103591Y-42795D01*
X103807Y-42795D01*
X104008Y-42712D01*
X104161Y-42559D01*
X104245Y-42358D01*
X104245Y-42142D01*
X104245Y-43111D01*
X104214Y-43158D01*
X104213Y-43158D01*
X104173Y-43256D01*
X104135Y-43447D01*
X104135Y-43500D01*
X104135Y-43552D01*
X104173Y-43743D01*
X104213Y-43841D01*
X104214Y-43841D01*
X104321Y-44003D01*
X104396Y-44077D01*
X104397Y-44078D01*
X104558Y-44185D01*
X104559Y-44186D01*
X104630Y-44215D01*
X104630Y-45872D01*
X104630Y-45872D01*
G37*
G54D20*
X104630Y-45872D02*
X104619Y-45928D01*
X104603Y-45952D01*
X104578Y-45969D01*
X104497Y-45985D01*
X104497Y-45985D01*
X104382Y-46008D01*
X104382Y-46008D01*
X104285Y-46048D01*
X104187Y-46113D01*
X104113Y-46188D01*
X104113Y-46188D01*
X104048Y-46285D01*
X104008Y-46382D01*
X104008Y-46382D01*
X103985Y-46497D01*
X103985Y-46523D01*
X103980Y-46550D01*
X103980Y-47275D01*
X103912Y-47616D01*
X103733Y-47882D01*
X103466Y-48061D01*
X103123Y-48130D01*
X101975Y-48130D01*
X101749Y-48085D01*
X101578Y-47970D01*
X101465Y-47801D01*
X101414Y-47547D01*
X101414Y-47546D01*
X101376Y-47356D01*
X101336Y-47259D01*
X101335Y-47258D01*
X101228Y-47097D01*
X101227Y-47096D01*
X101153Y-47021D01*
X100991Y-46914D01*
X100991Y-46913D01*
X100896Y-46874D01*
X100961Y-46809D01*
X101045Y-46608D01*
X101045Y-46392D01*
X100997Y-46275D01*
X101776Y-46275D01*
X101665Y-46543D01*
X101664Y-46954D01*
X101822Y-47335D01*
X102112Y-47626D01*
X102493Y-47784D01*
X102904Y-47785D01*
X103285Y-47627D01*
X103576Y-47337D01*
X103734Y-46956D01*
X103735Y-46545D01*
X103577Y-46164D01*
X103287Y-45873D01*
X102906Y-45715D01*
X102495Y-45714D01*
X102114Y-45872D01*
X102075Y-45911D01*
X102075Y-45550D01*
X103050Y-45550D01*
X103154Y-45550D01*
X103154Y-45594D01*
X103192Y-45686D01*
X103262Y-45757D01*
X103354Y-45795D01*
X103454Y-45795D01*
X104044Y-45795D01*
X104136Y-45757D01*
X104207Y-45687D01*
X104245Y-45595D01*
X104245Y-45495D01*
X104245Y-44905D01*
X104207Y-44813D01*
X104137Y-44742D01*
X104045Y-44704D01*
X103945Y-44704D01*
X103355Y-44704D01*
X103263Y-44742D01*
X103192Y-44812D01*
X103154Y-44904D01*
X103154Y-44950D01*
X103125Y-44950D01*
X103125Y-43940D01*
X103125Y-43783D01*
X103025Y-43650D01*
X102575Y-43650D01*
X102425Y-43450D01*
X101631Y-43450D01*
X101450Y-43601D01*
X101450Y-44770D01*
X101604Y-44925D01*
X102420Y-44925D01*
X102550Y-44795D01*
X102550Y-44725D01*
X102820Y-44725D01*
X102925Y-44620D01*
X102925Y-44280D01*
X102931Y-44270D01*
X102950Y-44175D01*
X102931Y-44079D01*
X102925Y-44069D01*
X102925Y-44050D01*
X103051Y-44050D01*
X103125Y-43940D01*
X103125Y-44950D01*
X103050Y-44950D01*
X100874Y-44950D01*
X100564Y-44640D01*
X100574Y-44614D01*
X100575Y-44424D01*
X100684Y-44425D01*
X100840Y-44360D01*
X100960Y-44241D01*
X101024Y-44084D01*
X101025Y-43915D01*
X100960Y-43759D01*
X100900Y-43698D01*
X100900Y-43200D01*
X100899Y-43199D01*
X100877Y-43085D01*
X100812Y-42987D01*
X100812Y-42987D01*
X100674Y-42849D01*
X101462Y-42062D01*
X101462Y-42062D01*
X101527Y-41964D01*
X101549Y-41850D01*
X101550Y-41850D01*
X101550Y-41845D01*
X101594Y-41845D01*
X101686Y-41807D01*
X101757Y-41737D01*
X101795Y-41645D01*
X101795Y-41545D01*
X101795Y-40955D01*
X101757Y-40863D01*
X101687Y-40792D01*
X101595Y-40754D01*
X101495Y-40754D01*
X101215Y-40754D01*
X101255Y-40695D01*
X101255Y-40695D01*
X101255Y-40695D01*
X101257Y-40691D01*
X101295Y-40598D01*
X101295Y-40598D01*
X101295Y-40598D01*
X101314Y-40502D01*
X101314Y-40502D01*
X101320Y-40470D01*
X101326Y-40469D01*
X101830Y-40469D01*
X101830Y-40750D01*
X101835Y-40776D01*
X101835Y-40802D01*
X101881Y-41030D01*
X101881Y-41031D01*
X101921Y-41129D01*
X102051Y-41324D01*
X102125Y-41398D01*
X102126Y-41398D01*
X102319Y-41527D01*
X102320Y-41528D01*
X102417Y-41568D01*
X102647Y-41614D01*
X102752Y-41614D01*
X102753Y-41614D01*
X102980Y-41568D01*
X102981Y-41568D01*
X103079Y-41528D01*
X103274Y-41398D01*
X103348Y-41324D01*
X103348Y-41323D01*
X103477Y-41130D01*
X103478Y-41129D01*
X103518Y-41032D01*
X103564Y-40802D01*
X103564Y-40775D01*
X103569Y-40750D01*
X103569Y-40469D01*
X103923Y-40469D01*
X104035Y-40491D01*
X104108Y-40540D01*
X104157Y-40614D01*
X104185Y-40752D01*
X104185Y-40753D01*
X104219Y-40923D01*
X104219Y-40924D01*
X104259Y-41021D01*
X104357Y-41167D01*
X104431Y-41242D01*
X104432Y-41242D01*
X104577Y-41339D01*
X104577Y-41339D01*
X104630Y-41361D01*
X104630Y-42784D01*
X104559Y-42813D01*
X104558Y-42814D01*
X104397Y-42921D01*
X104396Y-42922D01*
X104321Y-42996D01*
X104245Y-43111D01*
X104245Y-42142D01*
X104162Y-41941D01*
X104009Y-41788D01*
X103808Y-41704D01*
X103592Y-41704D01*
X103391Y-41787D01*
X103238Y-41940D01*
X103154Y-42141D01*
X103154Y-42357D01*
X103237Y-42558D01*
X103390Y-42711D01*
X103591Y-42795D01*
X103807Y-42795D01*
X104008Y-42712D01*
X104161Y-42559D01*
X104245Y-42358D01*
X104245Y-42142D01*
X104245Y-43111D01*
X104214Y-43158D01*
X104213Y-43158D01*
X104173Y-43256D01*
X104135Y-43447D01*
X104135Y-43500D01*
X104135Y-43552D01*
X104173Y-43743D01*
X104213Y-43841D01*
X104214Y-43841D01*
X104321Y-44003D01*
X104396Y-44077D01*
X104397Y-44078D01*
X104558Y-44185D01*
X104559Y-44186D01*
X104630Y-44215D01*
X104630Y-45872D01*
M02*
