M48
INCH,TZ
T10C0.025
T11C0.032
T12C0.035
T13C0.039
T14C0.059
T15C0.067
T16C0.157
%
T10
X096500Y-44000
X097350Y-44500
X099000Y-44500
X099425Y-42475
X099950Y-42675
T11
X096500Y-45500
X097500Y-45500
X098500Y-45500
X099500Y-45500
T12
X095500Y-42000
X095500Y-45500
X095500Y-46500
X096500Y-46500
X097000Y-41500
X098000Y-41500
X099500Y-46500
X100500Y-42000
X100500Y-45500
X100500Y-46500
T13
X096000Y-44500
X100000Y-44500
T14
X096500Y-42500
X099000Y-41500
T15
X096000Y-43500
X100000Y-43500
T16
X098000Y-43500
M30

