G04 #@! TF.GenerationSoftware,KiCad,Pcbnew,(6.0.7-1)-1*
G04 #@! TF.CreationDate,2022-08-17T19:26:05+01:00*
G04 #@! TF.ProjectId,amoeba-king,616d6f65-6261-42d6-9b69-6e672e6b6963,rev?*
G04 #@! TF.SameCoordinates,Original*
G04 #@! TF.FileFunction,Copper,L1,Top*
G04 #@! TF.FilePolarity,Positive*
%FSLAX46Y46*%
G04 Gerber Fmt 4.6, Leading zero omitted, Abs format (unit mm)*
G04 Created by KiCad (PCBNEW (6.0.7-1)-1) date 2022-08-17 19:26:05*
%MOMM*%
%LPD*%
G01*
G04 APERTURE LIST*
G04 Aperture macros list*
%AMRoundRect*
0 Rectangle with rounded corners*
0 $1 Rounding radius*
0 $2 $3 $4 $5 $6 $7 $8 $9 X,Y pos of 4 corners*
0 Add a 4 corners polygon primitive as box body*
4,1,4,$2,$3,$4,$5,$6,$7,$8,$9,$2,$3,0*
0 Add four circle primitives for the rounded corners*
1,1,$1+$1,$2,$3*
1,1,$1+$1,$4,$5*
1,1,$1+$1,$6,$7*
1,1,$1+$1,$8,$9*
0 Add four rect primitives between the rounded corners*
20,1,$1+$1,$2,$3,$4,$5,0*
20,1,$1+$1,$4,$5,$6,$7,0*
20,1,$1+$1,$6,$7,$8,$9,0*
20,1,$1+$1,$8,$9,$2,$3,0*%
G04 Aperture macros list end*
%ADD10C,0.158750*%
G04 #@! TA.AperFunction,NonConductor*
%ADD11C,0.158750*%
G04 #@! TD*
G04 #@! TA.AperFunction,EtchedComponent*
%ADD12C,0.094155*%
G04 #@! TD*
G04 #@! TA.AperFunction,ComponentPad*
%ADD13RoundRect,0.250000X-0.250000X0.250000X-0.250000X-0.250000X0.250000X-0.250000X0.250000X0.250000X0*%
G04 #@! TD*
G04 #@! TA.AperFunction,ComponentPad*
%ADD14RoundRect,0.250000X-0.250000X-0.250000X0.250000X-0.250000X0.250000X0.250000X-0.250000X0.250000X0*%
G04 #@! TD*
G04 #@! TA.AperFunction,ComponentPad*
%ADD15RoundRect,0.250000X0.250000X-0.250000X0.250000X0.250000X-0.250000X0.250000X-0.250000X-0.250000X0*%
G04 #@! TD*
G04 #@! TA.AperFunction,ViaPad*
%ADD16C,0.600000*%
G04 #@! TD*
G04 #@! TA.AperFunction,ViaPad*
%ADD17C,0.889000*%
G04 #@! TD*
G04 #@! TA.AperFunction,ViaPad*
%ADD18C,0.762000*%
G04 #@! TD*
G04 #@! TA.AperFunction,Conductor*
%ADD19C,0.254000*%
G04 #@! TD*
G04 #@! TA.AperFunction,Conductor*
%ADD20C,0.508000*%
G04 #@! TD*
G04 APERTURE END LIST*
D10*
D11*
X67589456Y-176051028D02*
X67687730Y-176474361D01*
X67891837Y-176051028D01*
X68413444Y-176474361D02*
X68050587Y-176474361D01*
X68232016Y-176474361D02*
X68311391Y-175839361D01*
X68239575Y-175930076D01*
X68171540Y-175990552D01*
X68107284Y-176020790D01*
X68693147Y-176413885D02*
X68719605Y-176444123D01*
X68685587Y-176474361D01*
X68659129Y-176444123D01*
X68693147Y-176413885D01*
X68685587Y-176474361D01*
X69029545Y-175899838D02*
X69063563Y-175869600D01*
X69127819Y-175839361D01*
X69279010Y-175839361D01*
X69335706Y-175869600D01*
X69362165Y-175899838D01*
X69384843Y-175960314D01*
X69377284Y-176020790D01*
X69335706Y-176111504D01*
X68927492Y-176474361D01*
X69320587Y-176474361D01*
G36*
X68821812Y-171095937D02*
G01*
X68844229Y-171101423D01*
X68865135Y-171110206D01*
X68884230Y-171121992D01*
X68901213Y-171136485D01*
X68915783Y-171153392D01*
X68927639Y-171172417D01*
X68936480Y-171193265D01*
X68942005Y-171215642D01*
X68943914Y-171239254D01*
X68941524Y-171265684D01*
X68934870Y-171290265D01*
X68924728Y-171312564D01*
X68911874Y-171332148D01*
X68897081Y-171348581D01*
X68881126Y-171361431D01*
X68864784Y-171370264D01*
X68848829Y-171374646D01*
X68824541Y-171378780D01*
X68826579Y-171402790D01*
X68828698Y-171427022D01*
X68830911Y-171451459D01*
X68833232Y-171476084D01*
X68835676Y-171500879D01*
X68838255Y-171525826D01*
X68840985Y-171550907D01*
X68843878Y-171576106D01*
X68846948Y-171601404D01*
X68850210Y-171626784D01*
X68853677Y-171652229D01*
X68857363Y-171677720D01*
X68861282Y-171703240D01*
X68865447Y-171728771D01*
X68869872Y-171754296D01*
X68874572Y-171779798D01*
X68879560Y-171805258D01*
X68884850Y-171830659D01*
X68890456Y-171855984D01*
X68896391Y-171881214D01*
X68902669Y-171906333D01*
X68909305Y-171931322D01*
X68916312Y-171956165D01*
X68923703Y-171980843D01*
X68931494Y-172005338D01*
X68939696Y-172029634D01*
X68948325Y-172053713D01*
X68957394Y-172077556D01*
X68966918Y-172101147D01*
X68976908Y-172124468D01*
X68987381Y-172147501D01*
X68998349Y-172170228D01*
X69009826Y-172192633D01*
X69021827Y-172214697D01*
X69034364Y-172236402D01*
X69047452Y-172257732D01*
X69061104Y-172278669D01*
X69075335Y-172299194D01*
X69090158Y-172319291D01*
X69107428Y-172325850D01*
X69125451Y-172330549D01*
X69144179Y-172333463D01*
X69163562Y-172334668D01*
X69183553Y-172334237D01*
X69204102Y-172332248D01*
X69225160Y-172328774D01*
X69246680Y-172323891D01*
X69268612Y-172317673D01*
X69290907Y-172310197D01*
X69313518Y-172301537D01*
X69336394Y-172291768D01*
X69359489Y-172280965D01*
X69382752Y-172269204D01*
X69406135Y-172256560D01*
X69429589Y-172243107D01*
X69453066Y-172228921D01*
X69476518Y-172214077D01*
X69499894Y-172198650D01*
X69523147Y-172182715D01*
X69546229Y-172166347D01*
X69569089Y-172149622D01*
X69591680Y-172132615D01*
X69613953Y-172115400D01*
X69635858Y-172098053D01*
X69657349Y-172080648D01*
X69678375Y-172063262D01*
X69698888Y-172045969D01*
X69718839Y-172028843D01*
X69738180Y-172011962D01*
X69756862Y-171995399D01*
X69774836Y-171979229D01*
X69792054Y-171963528D01*
X69808466Y-171948371D01*
X69824025Y-171933833D01*
X69838681Y-171919988D01*
X69852386Y-171906913D01*
X69839661Y-171889812D01*
X69828945Y-171870706D01*
X69821552Y-171850454D01*
X69818796Y-171829915D01*
X69821069Y-171807260D01*
X69827592Y-171786136D01*
X69837916Y-171767003D01*
X69851596Y-171750320D01*
X69868185Y-171736545D01*
X69887235Y-171726137D01*
X69908300Y-171719556D01*
X69930934Y-171717261D01*
X69953589Y-171719556D01*
X69974713Y-171726137D01*
X69993846Y-171736545D01*
X70010530Y-171750320D01*
X70024304Y-171767003D01*
X70034712Y-171786136D01*
X70041293Y-171807260D01*
X70043588Y-171829915D01*
X70041293Y-171852549D01*
X70034712Y-171873614D01*
X70024304Y-171892664D01*
X70010530Y-171909253D01*
X69993846Y-171922933D01*
X69974713Y-171933257D01*
X69953589Y-171939780D01*
X69930934Y-171942053D01*
X69912751Y-171939615D01*
X69895422Y-171933502D01*
X69879257Y-171925517D01*
X69663250Y-172295003D01*
X69646038Y-172323823D01*
X69630358Y-172351850D01*
X69616134Y-172379095D01*
X69603291Y-172405572D01*
X69591751Y-172431294D01*
X69581440Y-172456274D01*
X69572282Y-172480523D01*
X69564200Y-172504055D01*
X69557118Y-172526883D01*
X69550961Y-172549019D01*
X69545652Y-172570476D01*
X69541117Y-172591266D01*
X69537277Y-172611404D01*
X69534059Y-172630900D01*
X69512303Y-172623961D01*
X69490232Y-172617211D01*
X69467851Y-172610653D01*
X69445163Y-172604292D01*
X69422172Y-172598130D01*
X69398883Y-172592172D01*
X69375298Y-172586420D01*
X69351423Y-172580878D01*
X69327261Y-172575550D01*
X69302816Y-172570439D01*
X69278092Y-172565549D01*
X69253094Y-172560883D01*
X69227824Y-172556444D01*
X69202288Y-172552237D01*
X69176489Y-172548265D01*
X69150430Y-172544532D01*
X69124117Y-172541040D01*
X69097553Y-172537793D01*
X69070741Y-172534795D01*
X69043687Y-172532050D01*
X69016394Y-172529560D01*
X68988865Y-172527330D01*
X68961106Y-172525363D01*
X68933119Y-172523662D01*
X68904909Y-172522232D01*
X68876480Y-172521074D01*
X68847836Y-172520194D01*
X68818981Y-172519595D01*
X68789918Y-172519279D01*
X68761211Y-172518827D01*
X68732644Y-172518695D01*
X68704224Y-172518880D01*
X68675960Y-172519374D01*
X68647860Y-172520173D01*
X68619933Y-172521271D01*
X68592185Y-172522663D01*
X68564626Y-172524343D01*
X68537263Y-172526305D01*
X68510104Y-172528545D01*
X68483158Y-172531056D01*
X68456433Y-172533833D01*
X68429936Y-172536871D01*
X68403676Y-172540163D01*
X68377661Y-172543706D01*
X68351900Y-172547493D01*
X68326399Y-172551518D01*
X68301168Y-172555776D01*
X68276214Y-172560262D01*
X68251545Y-172564970D01*
X68227170Y-172569895D01*
X68203097Y-172575030D01*
X68179333Y-172580372D01*
X68155887Y-172585913D01*
X68132768Y-172591650D01*
X68109982Y-172597575D01*
X68087539Y-172603684D01*
X68065445Y-172609971D01*
X68043710Y-172616431D01*
X68041258Y-172597137D01*
X68037920Y-172577066D01*
X68033678Y-172556221D01*
X68028514Y-172534602D01*
X68022411Y-172512214D01*
X68015351Y-172489056D01*
X68007315Y-172465133D01*
X67998287Y-172440446D01*
X67988248Y-172414997D01*
X67977181Y-172388788D01*
X67965067Y-172361822D01*
X67951890Y-172334100D01*
X67937630Y-172305625D01*
X67922271Y-172276400D01*
X67706780Y-171913631D01*
X67692175Y-171922138D01*
X67677253Y-171926447D01*
X67656137Y-171926034D01*
X67633482Y-171923760D01*
X67612358Y-171917238D01*
X67593225Y-171906913D01*
X67576541Y-171893233D01*
X67562767Y-171876645D01*
X67552359Y-171857594D01*
X67545778Y-171836529D01*
X67543483Y-171813896D01*
X67545778Y-171791240D01*
X67552359Y-171770116D01*
X67562767Y-171750983D01*
X67576541Y-171734300D01*
X67593225Y-171720525D01*
X67612358Y-171710118D01*
X67633482Y-171703537D01*
X67656137Y-171701241D01*
X67678771Y-171703537D01*
X67699836Y-171710118D01*
X67718886Y-171720525D01*
X67735475Y-171734300D01*
X67749155Y-171750983D01*
X67759479Y-171770116D01*
X67766002Y-171791240D01*
X67768275Y-171813896D01*
X67765764Y-171836101D01*
X67758738Y-171856576D01*
X67747953Y-171875090D01*
X67734169Y-171891410D01*
X67748069Y-171905094D01*
X67762876Y-171919520D01*
X67778542Y-171934613D01*
X67795022Y-171950299D01*
X67812267Y-171966506D01*
X67830231Y-171983159D01*
X67848868Y-172000184D01*
X67868130Y-172017508D01*
X67887970Y-172035057D01*
X67908342Y-172052757D01*
X67929199Y-172070535D01*
X67950494Y-172088316D01*
X67972180Y-172106027D01*
X67994210Y-172123594D01*
X68016537Y-172140943D01*
X68039115Y-172158001D01*
X68061896Y-172174694D01*
X68084835Y-172190948D01*
X68107883Y-172206689D01*
X68130994Y-172221843D01*
X68154122Y-172236337D01*
X68177218Y-172250098D01*
X68200238Y-172263050D01*
X68223133Y-172275121D01*
X68245856Y-172286237D01*
X68268362Y-172296323D01*
X68290603Y-172305307D01*
X68312531Y-172313114D01*
X68334102Y-172319671D01*
X68355266Y-172324903D01*
X68375978Y-172328738D01*
X68396191Y-172331100D01*
X68415858Y-172331918D01*
X68434932Y-172331116D01*
X68453366Y-172328621D01*
X68471114Y-172324360D01*
X68488128Y-172318258D01*
X68502602Y-172311467D01*
X68516564Y-172303321D01*
X68530024Y-172293861D01*
X68542994Y-172283132D01*
X68555484Y-172271173D01*
X68567505Y-172258030D01*
X68579068Y-172243742D01*
X68590184Y-172228354D01*
X68600864Y-172211908D01*
X68611119Y-172194446D01*
X68620959Y-172176010D01*
X68630396Y-172156643D01*
X68639440Y-172136388D01*
X68648103Y-172115287D01*
X68656395Y-172093382D01*
X68664327Y-172070715D01*
X68671910Y-172047330D01*
X68679154Y-172023269D01*
X68686072Y-171998574D01*
X68692673Y-171973287D01*
X68698969Y-171947452D01*
X68704970Y-171921110D01*
X68710688Y-171894304D01*
X68716132Y-171867077D01*
X68721315Y-171839470D01*
X68726247Y-171811527D01*
X68730939Y-171783289D01*
X68735402Y-171754800D01*
X68739646Y-171726102D01*
X68743683Y-171697236D01*
X68747523Y-171668247D01*
X68751178Y-171639175D01*
X68754658Y-171610064D01*
X68757975Y-171580955D01*
X68761138Y-171551893D01*
X68764159Y-171522918D01*
X68767049Y-171494073D01*
X68769819Y-171465401D01*
X68772480Y-171436945D01*
X68775041Y-171408746D01*
X68777516Y-171380847D01*
X68754729Y-171375663D01*
X68733408Y-171367215D01*
X68713878Y-171355771D01*
X68696462Y-171341601D01*
X68681486Y-171324972D01*
X68669273Y-171306154D01*
X68660148Y-171285416D01*
X68654435Y-171263026D01*
X68652459Y-171239254D01*
X68654368Y-171215642D01*
X68659893Y-171193265D01*
X68668734Y-171172417D01*
X68680590Y-171153392D01*
X68695160Y-171136485D01*
X68712143Y-171121992D01*
X68731238Y-171110206D01*
X68752144Y-171101423D01*
X68774561Y-171095937D01*
X68798186Y-171094043D01*
X68821812Y-171095937D01*
G37*
G36*
X68794081Y-172597036D02*
G01*
X68822764Y-172597749D01*
X68851264Y-172598720D01*
X68879573Y-172599950D01*
X68907683Y-172601435D01*
X68935587Y-172603175D01*
X68963276Y-172605169D01*
X68990744Y-172607414D01*
X69017983Y-172609908D01*
X69044984Y-172612652D01*
X69071741Y-172615642D01*
X69098246Y-172618879D01*
X69124490Y-172622359D01*
X69150467Y-172626081D01*
X69176168Y-172630045D01*
X69201587Y-172634248D01*
X69226714Y-172638689D01*
X69251543Y-172643367D01*
X69276066Y-172648279D01*
X69300276Y-172653425D01*
X69324163Y-172658803D01*
X69347722Y-172664412D01*
X69370944Y-172670249D01*
X69393822Y-172676314D01*
X69416348Y-172682605D01*
X69438513Y-172689120D01*
X69460312Y-172695858D01*
X69481735Y-172702817D01*
X69502775Y-172709996D01*
X69523425Y-172717394D01*
X69516058Y-172740578D01*
X69509784Y-172762970D01*
X69504783Y-172784730D01*
X69501237Y-172806018D01*
X69499327Y-172826995D01*
X69478044Y-172820165D01*
X69456425Y-172813533D01*
X69434476Y-172807104D01*
X69412202Y-172800881D01*
X69389608Y-172794865D01*
X69366700Y-172789060D01*
X69343483Y-172783469D01*
X69319963Y-172778094D01*
X69296145Y-172772940D01*
X69272034Y-172768008D01*
X69247637Y-172763302D01*
X69222957Y-172758824D01*
X69198002Y-172754579D01*
X69172775Y-172750567D01*
X69147283Y-172746793D01*
X69121531Y-172743259D01*
X69095524Y-172739969D01*
X69069268Y-172736925D01*
X69042768Y-172734130D01*
X69016030Y-172731587D01*
X68989058Y-172729300D01*
X68961859Y-172727270D01*
X68934438Y-172725502D01*
X68906801Y-172723997D01*
X68878951Y-172722759D01*
X68850896Y-172721791D01*
X68822641Y-172721096D01*
X68794190Y-172720677D01*
X68765728Y-172720551D01*
X68737441Y-172720732D01*
X68709334Y-172721216D01*
X68681416Y-172721996D01*
X68653694Y-172723067D01*
X68626174Y-172724423D01*
X68598863Y-172726058D01*
X68571769Y-172727968D01*
X68544898Y-172730146D01*
X68518258Y-172732586D01*
X68491856Y-172735284D01*
X68465698Y-172738233D01*
X68439792Y-172741427D01*
X68414145Y-172744862D01*
X68388763Y-172748532D01*
X68363655Y-172752430D01*
X68338826Y-172756552D01*
X68314284Y-172760891D01*
X68290036Y-172765442D01*
X68266090Y-172770200D01*
X68242451Y-172775158D01*
X68219127Y-172780312D01*
X68196126Y-172785655D01*
X68173454Y-172791182D01*
X68151118Y-172796887D01*
X68129126Y-172802765D01*
X68107483Y-172808810D01*
X68086199Y-172815017D01*
X68084356Y-172792286D01*
X68081393Y-172770029D01*
X68077096Y-172747691D01*
X68071252Y-172724718D01*
X68063645Y-172700556D01*
X68084531Y-172693402D01*
X68105809Y-172686500D01*
X68127471Y-172679848D01*
X68149505Y-172673449D01*
X68171903Y-172667302D01*
X68194656Y-172661408D01*
X68217754Y-172655767D01*
X68241188Y-172650381D01*
X68264948Y-172645250D01*
X68289024Y-172640374D01*
X68313408Y-172635754D01*
X68338090Y-172631390D01*
X68363060Y-172627284D01*
X68388308Y-172623435D01*
X68413827Y-172619845D01*
X68439605Y-172616514D01*
X68465634Y-172613442D01*
X68491904Y-172610630D01*
X68518405Y-172608079D01*
X68545129Y-172605789D01*
X68572065Y-172603761D01*
X68599205Y-172601996D01*
X68626539Y-172600493D01*
X68654057Y-172599255D01*
X68681750Y-172598280D01*
X68709608Y-172597570D01*
X68737622Y-172597126D01*
X68765783Y-172596948D01*
X68794081Y-172597036D01*
G37*
D12*
X68794081Y-172597036D02*
X68822764Y-172597749D01*
X68851264Y-172598720D01*
X68879573Y-172599950D01*
X68907683Y-172601435D01*
X68935587Y-172603175D01*
X68963276Y-172605169D01*
X68990744Y-172607414D01*
X69017983Y-172609908D01*
X69044984Y-172612652D01*
X69071741Y-172615642D01*
X69098246Y-172618879D01*
X69124490Y-172622359D01*
X69150467Y-172626081D01*
X69176168Y-172630045D01*
X69201587Y-172634248D01*
X69226714Y-172638689D01*
X69251543Y-172643367D01*
X69276066Y-172648279D01*
X69300276Y-172653425D01*
X69324163Y-172658803D01*
X69347722Y-172664412D01*
X69370944Y-172670249D01*
X69393822Y-172676314D01*
X69416348Y-172682605D01*
X69438513Y-172689120D01*
X69460312Y-172695858D01*
X69481735Y-172702817D01*
X69502775Y-172709996D01*
X69523425Y-172717394D01*
X69516058Y-172740578D01*
X69509784Y-172762970D01*
X69504783Y-172784730D01*
X69501237Y-172806018D01*
X69499327Y-172826995D01*
X69478044Y-172820165D01*
X69456425Y-172813533D01*
X69434476Y-172807104D01*
X69412202Y-172800881D01*
X69389608Y-172794865D01*
X69366700Y-172789060D01*
X69343483Y-172783469D01*
X69319963Y-172778094D01*
X69296145Y-172772940D01*
X69272034Y-172768008D01*
X69247637Y-172763302D01*
X69222957Y-172758824D01*
X69198002Y-172754579D01*
X69172775Y-172750567D01*
X69147283Y-172746793D01*
X69121531Y-172743259D01*
X69095524Y-172739969D01*
X69069268Y-172736925D01*
X69042768Y-172734130D01*
X69016030Y-172731587D01*
X68989058Y-172729300D01*
X68961859Y-172727270D01*
X68934438Y-172725502D01*
X68906801Y-172723997D01*
X68878951Y-172722759D01*
X68850896Y-172721791D01*
X68822641Y-172721096D01*
X68794190Y-172720677D01*
X68765728Y-172720551D01*
X68737441Y-172720732D01*
X68709334Y-172721216D01*
X68681416Y-172721996D01*
X68653694Y-172723067D01*
X68626174Y-172724423D01*
X68598863Y-172726058D01*
X68571769Y-172727968D01*
X68544898Y-172730146D01*
X68518258Y-172732586D01*
X68491856Y-172735284D01*
X68465698Y-172738233D01*
X68439792Y-172741427D01*
X68414145Y-172744862D01*
X68388763Y-172748532D01*
X68363655Y-172752430D01*
X68338826Y-172756552D01*
X68314284Y-172760891D01*
X68290036Y-172765442D01*
X68266090Y-172770200D01*
X68242451Y-172775158D01*
X68219127Y-172780312D01*
X68196126Y-172785655D01*
X68173454Y-172791182D01*
X68151118Y-172796887D01*
X68129126Y-172802765D01*
X68107483Y-172808810D01*
X68086199Y-172815017D01*
X68084356Y-172792286D01*
X68081393Y-172770029D01*
X68077096Y-172747691D01*
X68071252Y-172724718D01*
X68063645Y-172700556D01*
X68084531Y-172693402D01*
X68105809Y-172686500D01*
X68127471Y-172679848D01*
X68149505Y-172673449D01*
X68171903Y-172667302D01*
X68194656Y-172661408D01*
X68217754Y-172655767D01*
X68241188Y-172650381D01*
X68264948Y-172645250D01*
X68289024Y-172640374D01*
X68313408Y-172635754D01*
X68338090Y-172631390D01*
X68363060Y-172627284D01*
X68388308Y-172623435D01*
X68413827Y-172619845D01*
X68439605Y-172616514D01*
X68465634Y-172613442D01*
X68491904Y-172610630D01*
X68518405Y-172608079D01*
X68545129Y-172605789D01*
X68572065Y-172603761D01*
X68599205Y-172601996D01*
X68626539Y-172600493D01*
X68654057Y-172599255D01*
X68681750Y-172598280D01*
X68709608Y-172597570D01*
X68737622Y-172597126D01*
X68765783Y-172596948D01*
X68794081Y-172597036D01*
G36*
X68806058Y-173039362D02*
G01*
X68826140Y-173041679D01*
X68846221Y-173045541D01*
X68866302Y-173050948D01*
X68886384Y-173057900D01*
X68906465Y-173066396D01*
X68926547Y-173076437D01*
X68946628Y-173088022D01*
X68966710Y-173101153D01*
X68985795Y-173116893D01*
X69003522Y-173135622D01*
X69019917Y-173156309D01*
X69035008Y-173177922D01*
X69048822Y-173199431D01*
X69061385Y-173219806D01*
X69072723Y-173238015D01*
X69082865Y-173253028D01*
X69091836Y-173263813D01*
X69104559Y-173275052D01*
X69118113Y-173284475D01*
X69132433Y-173292212D01*
X69147454Y-173298393D01*
X69163112Y-173303147D01*
X69179343Y-173306604D01*
X69196082Y-173308894D01*
X69213264Y-173310147D01*
X69230826Y-173310491D01*
X69248702Y-173310058D01*
X69266829Y-173308976D01*
X69285141Y-173307376D01*
X69303575Y-173305387D01*
X69322066Y-173303139D01*
X69340549Y-173300762D01*
X69358960Y-173298384D01*
X69377235Y-173296137D01*
X69395308Y-173294150D01*
X69413117Y-173292551D01*
X69430595Y-173291473D01*
X69447679Y-173291043D01*
X69464305Y-173291391D01*
X69480407Y-173292648D01*
X69495921Y-173294944D01*
X69510784Y-173298406D01*
X69524929Y-173303167D01*
X69538294Y-173309355D01*
X69550814Y-173317099D01*
X69562423Y-173326530D01*
X69573058Y-173337778D01*
X69582654Y-173350972D01*
X69591147Y-173366242D01*
X69598472Y-173383717D01*
X69601694Y-173393554D01*
X69604227Y-173403258D01*
X69606099Y-173412848D01*
X69607335Y-173422343D01*
X69607965Y-173431765D01*
X69608015Y-173441132D01*
X69607513Y-173450464D01*
X69606487Y-173459782D01*
X69604964Y-173469105D01*
X69602972Y-173478453D01*
X69600538Y-173487847D01*
X69597689Y-173497305D01*
X69594454Y-173506849D01*
X69590859Y-173516497D01*
X69586933Y-173526270D01*
X69582703Y-173536187D01*
X69578196Y-173546269D01*
X69573439Y-173556536D01*
X69568462Y-173567007D01*
X69563290Y-173577701D01*
X69557951Y-173588640D01*
X69552474Y-173599843D01*
X69546885Y-173611330D01*
X69541211Y-173623120D01*
X69535482Y-173635234D01*
X69529723Y-173647692D01*
X69523963Y-173660513D01*
X69518229Y-173673718D01*
X69512549Y-173687326D01*
X69506950Y-173701356D01*
X69501460Y-173715830D01*
X69496106Y-173730767D01*
X69490915Y-173746187D01*
X69485916Y-173762109D01*
X69481135Y-173778554D01*
X69476601Y-173795542D01*
X69472341Y-173813091D01*
X69468382Y-173831224D01*
X69464751Y-173849958D01*
X69461478Y-173869314D01*
X69458588Y-173889313D01*
X69456109Y-173909973D01*
X69454070Y-173931315D01*
X69452497Y-173953359D01*
X69451418Y-173976125D01*
X69450861Y-173999631D01*
X69450852Y-174023900D01*
X69451420Y-174048949D01*
X69452593Y-174074800D01*
X69454397Y-174101471D01*
X69456860Y-174128984D01*
X69460010Y-174157357D01*
X69463874Y-174186612D01*
X69468480Y-174216766D01*
X69473855Y-174247842D01*
X69480026Y-174279858D01*
X69487023Y-174312834D01*
X69494871Y-174346790D01*
X69503598Y-174381747D01*
X69513232Y-174417723D01*
X69523801Y-174454739D01*
X69535331Y-174492816D01*
X69544435Y-174524953D01*
X69550071Y-174551926D01*
X69552452Y-174574708D01*
X69551790Y-174594267D01*
X69548299Y-174611576D01*
X69542193Y-174627605D01*
X69533683Y-174643325D01*
X69522983Y-174659707D01*
X69510307Y-174677722D01*
X69495323Y-174696396D01*
X69479412Y-174712873D01*
X69462574Y-174727153D01*
X69444810Y-174739236D01*
X69426118Y-174749123D01*
X69406500Y-174756812D01*
X69385955Y-174762305D01*
X69364483Y-174765600D01*
X69342084Y-174766699D01*
X69311497Y-174766699D01*
X69289987Y-174765540D01*
X69269017Y-174762064D01*
X69248588Y-174756272D01*
X69228699Y-174748162D01*
X69209351Y-174737735D01*
X69190544Y-174724991D01*
X69171968Y-174710972D01*
X69156096Y-174695795D01*
X69142927Y-174679459D01*
X69132461Y-174661965D01*
X69124699Y-174643312D01*
X69119639Y-174623500D01*
X69119529Y-174621063D01*
X69119077Y-174614092D01*
X69118103Y-174603094D01*
X69116426Y-174588578D01*
X69113865Y-174571051D01*
X69110239Y-174551023D01*
X69105368Y-174529001D01*
X69099071Y-174505492D01*
X69091166Y-174481007D01*
X69081474Y-174456052D01*
X69069813Y-174431136D01*
X69056002Y-174406766D01*
X69039862Y-174383452D01*
X69021210Y-174361701D01*
X68999866Y-174342021D01*
X68983010Y-174329426D01*
X68965023Y-174318037D01*
X68946024Y-174307859D01*
X68926134Y-174298897D01*
X68905473Y-174291158D01*
X68884160Y-174284647D01*
X68862316Y-174279369D01*
X68840060Y-174275330D01*
X68817514Y-174272535D01*
X68794796Y-174270990D01*
X68772026Y-174270700D01*
X68749325Y-174271671D01*
X68726814Y-174273909D01*
X68704610Y-174277419D01*
X68682836Y-174282206D01*
X68661610Y-174288276D01*
X68641054Y-174295634D01*
X68621286Y-174304287D01*
X68602426Y-174314239D01*
X68584596Y-174325496D01*
X68567915Y-174338063D01*
X68546863Y-174357775D01*
X68528572Y-174379543D01*
X68512845Y-174402863D01*
X68499490Y-174427226D01*
X68488314Y-174452127D01*
X68479121Y-174477060D01*
X68471718Y-174501518D01*
X68465913Y-174524995D01*
X68461510Y-174546984D01*
X68458316Y-174566979D01*
X68456137Y-174584475D01*
X68454780Y-174598964D01*
X68454050Y-174609940D01*
X68453755Y-174616897D01*
X68453699Y-174619328D01*
X68448254Y-174640801D01*
X68440260Y-174660728D01*
X68429717Y-174679111D01*
X68416625Y-174695950D01*
X68400985Y-174711243D01*
X68382795Y-174724992D01*
X68365317Y-174736057D01*
X68347045Y-174745420D01*
X68327979Y-174753081D01*
X68308118Y-174759039D01*
X68287463Y-174763295D01*
X68266013Y-174765848D01*
X68243769Y-174766699D01*
X68213182Y-174766699D01*
X68190543Y-174765635D01*
X68168968Y-174762442D01*
X68148457Y-174757122D01*
X68129010Y-174749672D01*
X68110628Y-174740095D01*
X68093309Y-174728389D01*
X68077055Y-174714555D01*
X68061865Y-174698592D01*
X68047739Y-174680502D01*
X68035436Y-174661588D01*
X68026134Y-174643423D01*
X68019533Y-174625478D01*
X68015335Y-174607224D01*
X68013242Y-174588133D01*
X68012954Y-174567675D01*
X68014172Y-174545322D01*
X68016599Y-174520545D01*
X68019935Y-174492816D01*
X68023064Y-174465064D01*
X68025273Y-174439107D01*
X68026602Y-174414868D01*
X68027089Y-174392276D01*
X68026773Y-174371255D01*
X68025695Y-174351731D01*
X68023893Y-174333631D01*
X68021407Y-174316879D01*
X68018275Y-174301403D01*
X68014538Y-174287128D01*
X68010234Y-174273979D01*
X68005403Y-174261883D01*
X68000084Y-174250766D01*
X67994316Y-174240553D01*
X67988139Y-174231170D01*
X67981591Y-174222543D01*
X67974713Y-174214599D01*
X67967542Y-174207262D01*
X67960120Y-174200460D01*
X67952484Y-174194117D01*
X67944674Y-174188159D01*
X67936730Y-174182513D01*
X67928690Y-174177105D01*
X67920595Y-174171859D01*
X67912482Y-174166703D01*
X67904392Y-174161562D01*
X67896364Y-174156361D01*
X67888437Y-174151027D01*
X67880650Y-174145486D01*
X67873043Y-174139664D01*
X67865655Y-174133485D01*
X67858524Y-174126877D01*
X67851691Y-174119765D01*
X67845195Y-174112076D01*
X67839075Y-174103734D01*
X67833370Y-174094666D01*
X67828119Y-174084797D01*
X67823362Y-174074054D01*
X67819138Y-174062363D01*
X67815486Y-174049648D01*
X67812446Y-174035837D01*
X67810057Y-174020855D01*
X67808358Y-174004628D01*
X67807388Y-173987082D01*
X67807187Y-173968143D01*
X67807710Y-173951889D01*
X67808936Y-173936487D01*
X67810849Y-173921894D01*
X67813434Y-173908065D01*
X67816676Y-173894957D01*
X67820559Y-173882529D01*
X67825067Y-173870736D01*
X67830185Y-173859536D01*
X67835898Y-173848885D01*
X67842190Y-173838740D01*
X67849046Y-173829058D01*
X67856450Y-173819796D01*
X67864386Y-173810911D01*
X67872840Y-173802360D01*
X67881796Y-173794099D01*
X67891238Y-173786085D01*
X67901151Y-173778276D01*
X67911519Y-173770628D01*
X67922327Y-173763098D01*
X67933560Y-173755643D01*
X67945202Y-173748220D01*
X67957238Y-173740785D01*
X67969651Y-173733296D01*
X67982427Y-173725709D01*
X67983388Y-173725143D01*
X68573395Y-173725143D01*
X68580255Y-173729946D01*
X68585748Y-173729946D01*
X68586439Y-173752597D01*
X68583008Y-173753283D01*
X68582317Y-173792404D01*
X68606337Y-173874769D01*
X68630361Y-173873397D01*
X68630361Y-173883692D01*
X68654384Y-173883692D01*
X68654384Y-173963309D01*
X68670167Y-173977034D01*
X68685269Y-173963309D01*
X68684578Y-173884378D01*
X68721640Y-173884378D01*
X68720950Y-173934483D01*
X68736052Y-173961936D01*
X68809491Y-173961936D01*
X68830084Y-173933797D01*
X68829393Y-173962623D01*
X68844490Y-173976348D01*
X68858218Y-173962623D01*
X68858218Y-173883692D01*
X68916556Y-173883692D01*
X68916556Y-173874769D01*
X68982249Y-173874769D01*
X69003528Y-173793094D01*
X69003528Y-173751225D01*
X69000094Y-173751911D01*
X68999404Y-173729946D01*
X69013134Y-173724458D01*
X68956168Y-173594736D01*
X68952049Y-173589072D01*
X68946557Y-173585813D01*
X68906751Y-173585127D01*
X68901946Y-173571399D01*
X68867627Y-173571399D01*
X68868318Y-173481487D01*
X68862139Y-173473250D01*
X68763990Y-173473250D01*
X68718881Y-173480801D01*
X68718881Y-173570713D01*
X68685955Y-173570713D01*
X68679090Y-173585814D01*
X68640656Y-173585814D01*
X68636367Y-173587357D01*
X68633105Y-173590619D01*
X68573395Y-173725143D01*
X67983388Y-173725143D01*
X67995551Y-173717982D01*
X68009006Y-173710070D01*
X68022777Y-173701932D01*
X68036850Y-173693523D01*
X68051207Y-173684802D01*
X68065835Y-173675724D01*
X68080716Y-173666246D01*
X68095837Y-173656326D01*
X68111182Y-173645920D01*
X68126734Y-173634985D01*
X68142479Y-173623478D01*
X68158401Y-173611356D01*
X68174484Y-173598576D01*
X68190714Y-173585094D01*
X68207075Y-173570868D01*
X68223551Y-173555854D01*
X68240126Y-173540009D01*
X68256786Y-173523290D01*
X68273515Y-173505655D01*
X68290297Y-173487059D01*
X68307117Y-173467460D01*
X68323960Y-173446814D01*
X68340810Y-173425079D01*
X68357651Y-173402211D01*
X68374468Y-173378167D01*
X68391246Y-173352905D01*
X68407969Y-173326380D01*
X68424622Y-173298550D01*
X68441189Y-173269372D01*
X68447469Y-173257873D01*
X68455425Y-173243373D01*
X68464949Y-173226554D01*
X68475931Y-173208099D01*
X68488262Y-173188688D01*
X68501831Y-173169003D01*
X68516531Y-173149725D01*
X68532250Y-173131536D01*
X68548880Y-173115118D01*
X68566311Y-173101153D01*
X68586118Y-173088022D01*
X68605994Y-173076437D01*
X68625939Y-173066396D01*
X68645952Y-173057900D01*
X68666034Y-173050948D01*
X68686185Y-173045541D01*
X68706404Y-173041679D01*
X68726692Y-173039362D01*
X68747048Y-173038590D01*
X68785976Y-173038590D01*
X68806058Y-173039362D01*
G37*
D13*
X76835000Y-160782000D03*
X78105000Y-160782000D03*
X79375000Y-160782000D03*
X80645000Y-160782000D03*
D14*
X67945000Y-164973000D03*
X67945000Y-163703000D03*
X67945000Y-162433000D03*
X67945000Y-161163000D03*
D15*
X71678800Y-176758600D03*
D13*
X71678800Y-160782000D03*
D14*
X82905600Y-164973000D03*
X82905600Y-163703000D03*
X82905600Y-162433000D03*
X82905600Y-161163000D03*
D13*
X76835000Y-176758600D03*
X78105000Y-176758600D03*
X79375000Y-176758600D03*
X80645000Y-176758600D03*
D16*
X78943200Y-166878000D03*
X78785500Y-162839400D03*
X80213200Y-166878000D03*
X75483081Y-171318856D03*
X80747222Y-163733078D03*
X73193773Y-166880716D03*
X71947400Y-166878000D03*
X72339200Y-164338000D03*
D17*
X82575400Y-166274750D03*
D18*
X77117400Y-173558000D03*
D16*
X70253460Y-161744260D03*
X77787500Y-166878000D03*
X70256500Y-164084000D03*
D17*
X71094802Y-163032726D03*
D16*
X78917800Y-165608000D03*
D19*
X79603600Y-165750626D02*
X79603600Y-164235984D01*
X79194550Y-163248450D02*
X78785500Y-162839400D01*
X78943200Y-166878000D02*
X79273400Y-166547800D01*
X79603606Y-164235984D02*
G75*
G03*
X79194550Y-163248450I-1396606J-16D01*
G01*
X79273392Y-166547792D02*
G75*
G03*
X79603600Y-165750626I-797192J797192D01*
G01*
X77524457Y-170125542D02*
X76630979Y-171019020D01*
X80480211Y-164000089D02*
X80747222Y-163733078D01*
X79895182Y-166961067D02*
X78085723Y-168770525D01*
X75907112Y-171318856D02*
X75483081Y-171318856D01*
X80213200Y-164644710D02*
X80213200Y-166878000D01*
X80095725Y-166878000D02*
X80213200Y-166878000D01*
X80213198Y-164644710D02*
G75*
G02*
X80480211Y-164000089I911602J10D01*
G01*
X78085714Y-168770516D02*
G75*
G03*
X77805091Y-169448034I677486J-677484D01*
G01*
X76630964Y-171019005D02*
G75*
G02*
X75907112Y-171318856I-723864J723805D01*
G01*
X80095725Y-166878015D02*
G75*
G03*
X79895183Y-166961068I-25J-283585D01*
G01*
X77805099Y-169448034D02*
G75*
G02*
X77524457Y-170125542I-958199J34D01*
G01*
X72339200Y-164338000D02*
X72143300Y-164533900D01*
X71947400Y-166878000D02*
X71947400Y-165006844D01*
X71947419Y-165006844D02*
G75*
G02*
X72143300Y-164533900I668781J44D01*
G01*
X77117400Y-173558000D02*
X77117400Y-173530583D01*
X69022630Y-169098630D02*
X71045559Y-171121559D01*
X73052160Y-171831000D02*
X72758300Y-171831000D01*
X67945000Y-166497000D02*
X67945000Y-164973000D01*
X76782966Y-173168732D02*
X77098013Y-173483779D01*
X75975572Y-172834299D02*
X75474338Y-172834299D01*
X72758300Y-171830994D02*
G75*
G02*
X71045559Y-171121559I0J2422194D01*
G01*
X75474338Y-172834283D02*
G75*
G02*
X74263249Y-172332649I-38J1712683D01*
G01*
X74263261Y-172332637D02*
G75*
G03*
X73052160Y-171831000I-1211061J-1211063D01*
G01*
X67945012Y-166497000D02*
G75*
G03*
X69022631Y-169098629I3679288J0D01*
G01*
X76782974Y-173168724D02*
G75*
G03*
X75975572Y-172834299I-807374J-807376D01*
G01*
X77098006Y-173483786D02*
G75*
G02*
X77117400Y-173530583I-46806J-46814D01*
G01*
X70253460Y-161744260D02*
X70294090Y-161703630D01*
X77787500Y-166878000D02*
X77654150Y-166744650D01*
X77520800Y-162489212D02*
X77520800Y-166422714D01*
X70066000Y-163893500D02*
X70256500Y-164084000D01*
X76694587Y-161663000D02*
X70392179Y-161663000D01*
X69606092Y-163703000D02*
X67945000Y-163703000D01*
X77278812Y-161904988D02*
G75*
G02*
X77520800Y-162489212I-584212J-584212D01*
G01*
X77278812Y-161904988D02*
G75*
G03*
X76694587Y-161663000I-584212J-584212D01*
G01*
X77654154Y-166744646D02*
G75*
G02*
X77520800Y-166422714I321946J321946D01*
G01*
X70294104Y-161703644D02*
G75*
G02*
X70392179Y-161663000I98096J-98056D01*
G01*
X69606092Y-163703004D02*
G75*
G02*
X70065999Y-163893501I8J-650396D01*
G01*
X78105000Y-176606200D02*
X78105000Y-176758600D01*
D20*
X71094802Y-163032726D02*
X71094802Y-166395055D01*
X79375000Y-176749831D02*
X79375000Y-174657370D01*
X72414358Y-168730650D02*
X71453630Y-167769922D01*
X68195000Y-162433000D02*
X67945000Y-162433000D01*
X81074261Y-162918139D02*
X79529459Y-161373337D01*
X77943312Y-172852112D02*
X78921200Y-173830000D01*
X81876001Y-168228070D02*
X81876001Y-170335206D01*
X71094600Y-166903146D02*
X71094600Y-166395542D01*
X82717639Y-162433000D02*
X82905600Y-162433000D01*
X70956313Y-162942413D02*
X71029593Y-163015693D01*
X76284759Y-172199289D02*
X76367159Y-172199289D01*
X72882581Y-169861041D02*
X74468516Y-171446976D01*
X71070714Y-163032726D02*
X71094802Y-163032726D01*
X79381200Y-176752400D02*
X79387400Y-176746200D01*
X82044538Y-162918138D02*
X82396769Y-162565908D01*
X81559400Y-164089368D02*
X81559400Y-167463670D01*
X79375000Y-161000439D02*
X79375000Y-160782000D01*
X68621776Y-162609776D02*
X68654550Y-162642550D01*
X79828799Y-173829999D02*
X80852400Y-172806398D01*
X70738279Y-162852101D02*
X69160450Y-162852101D01*
X81074263Y-162918137D02*
G75*
G03*
X82044537Y-162918137I485137J485137D01*
G01*
X79828800Y-173830000D02*
G75*
G02*
X78921200Y-173830000I-453800J453800D01*
G01*
X68195000Y-162432985D02*
G75*
G02*
X68621776Y-162609776I0J-603515D01*
G01*
X81717688Y-167845870D02*
G75*
G02*
X81559400Y-167463670I382212J382170D01*
G01*
X79375012Y-174925570D02*
G75*
G03*
X78921200Y-173830000I-1549412J-30D01*
G01*
X71029592Y-163015694D02*
G75*
G03*
X71070714Y-163032726I41108J41094D01*
G01*
X71094758Y-166395060D02*
G75*
G02*
X71094700Y-166395299I-358J-40D01*
G01*
X79529470Y-161373326D02*
G75*
G02*
X79375000Y-161000439I372930J372926D01*
G01*
X80852398Y-172806396D02*
G75*
G03*
X81876001Y-170335206I-2471198J2471196D01*
G01*
X71094621Y-166395539D02*
G75*
G02*
X71094702Y-166395300I279J39D01*
G01*
X81717692Y-167845866D02*
G75*
G02*
X81876001Y-168228070I-382292J-382234D01*
G01*
X81559386Y-164089368D02*
G75*
G02*
X82044538Y-162918138I1656414J-32D01*
G01*
X81074252Y-162918148D02*
G75*
G02*
X81559400Y-164089368I-1171252J-1171252D01*
G01*
X79381146Y-176752346D02*
G75*
G02*
X79375000Y-176749831I-2546J2546D01*
G01*
X72648448Y-169295846D02*
G75*
G03*
X72414358Y-168730650I-799248J46D01*
G01*
X76367159Y-172199329D02*
G75*
G02*
X77943312Y-172852112I141J-2228871D01*
G01*
X79374987Y-174925570D02*
G75*
G02*
X79828800Y-173830000I1549413J-30D01*
G01*
X72648445Y-169295846D02*
G75*
G03*
X72882582Y-169861040I799355J46D01*
G01*
X71094566Y-166903146D02*
G75*
G03*
X71453630Y-167769922I1225834J46D01*
G01*
X68654564Y-162642536D02*
G75*
G03*
X69160450Y-162852101I505936J505936D01*
G01*
X76284759Y-172199307D02*
G75*
G02*
X74468517Y-171446975I41J2568607D01*
G01*
X82396745Y-162565884D02*
G75*
G02*
X82717639Y-162433000I320855J-320916D01*
G01*
X70956313Y-162942413D02*
G75*
G03*
X70738279Y-162852101I-218013J-217987D01*
G01*
D19*
X78105000Y-161112200D02*
X78105000Y-161442400D01*
X78105000Y-160885187D02*
X78105000Y-161009012D01*
X78105000Y-160472437D02*
X78105000Y-160451800D01*
X78105000Y-160864550D02*
X78105000Y-160885187D01*
X78105000Y-160534350D02*
X78105000Y-160513712D01*
X78105000Y-160472437D02*
X78105000Y-160513712D01*
X78105000Y-161442400D02*
X78105000Y-164220463D01*
X78105000Y-161112200D02*
X78105000Y-161009012D01*
X78105000Y-160699450D02*
X78105000Y-160782000D01*
X78105000Y-160782000D02*
X78105000Y-160864550D01*
X78511400Y-165201600D02*
X78917800Y-165608000D01*
X78105000Y-160616900D02*
X78105000Y-160699450D01*
X78105000Y-160534350D02*
X78105000Y-160616900D01*
X78105016Y-164220463D02*
G75*
G03*
X78511401Y-165201599I1387484J-37D01*
G01*
G04 #@! TA.AperFunction,Conductor*
G36*
X83785875Y-164078248D02*
G01*
X83800706Y-164092867D01*
X83805406Y-164098594D01*
X83917401Y-164190505D01*
X83921689Y-164192797D01*
X84031938Y-164251726D01*
X84045174Y-164258801D01*
X84049828Y-164260213D01*
X84049831Y-164260214D01*
X84179161Y-164299446D01*
X84179165Y-164299447D01*
X84183817Y-164300858D01*
X84320875Y-164314357D01*
X84328000Y-164316672D01*
X84335845Y-164314123D01*
X84339538Y-164315323D01*
X84339819Y-164312832D01*
X84435854Y-164323652D01*
X84457467Y-164328586D01*
X84549383Y-164360749D01*
X84569356Y-164370367D01*
X84651808Y-164422175D01*
X84669141Y-164435997D01*
X84738003Y-164504859D01*
X84751825Y-164522192D01*
X84803633Y-164604644D01*
X84813251Y-164624617D01*
X84845414Y-164716533D01*
X84850348Y-164738147D01*
X84861168Y-164834181D01*
X84859819Y-164834333D01*
X84860338Y-164836735D01*
X84857328Y-164846000D01*
X84862174Y-164860912D01*
X84862174Y-164875539D01*
X84862500Y-164877597D01*
X84862500Y-167197995D01*
X84843593Y-167256186D01*
X84794093Y-167292150D01*
X84771677Y-167296657D01*
X84750995Y-167298370D01*
X84740728Y-167299221D01*
X84740727Y-167299221D01*
X84736650Y-167299559D01*
X84516474Y-167355315D01*
X84308479Y-167446550D01*
X84118337Y-167570776D01*
X83951235Y-167724604D01*
X83928030Y-167754418D01*
X83823141Y-167889180D01*
X83811731Y-167903839D01*
X83809782Y-167907441D01*
X83721133Y-168071250D01*
X83703631Y-168103590D01*
X83702303Y-168107459D01*
X83702301Y-168107463D01*
X83649034Y-168262628D01*
X83629884Y-168318409D01*
X83592500Y-168542437D01*
X83592500Y-168769563D01*
X83629884Y-168993591D01*
X83640792Y-169025365D01*
X83701744Y-169202913D01*
X83703631Y-169208410D01*
X83705578Y-169212008D01*
X83705579Y-169212010D01*
X83740839Y-169277164D01*
X83811731Y-169408161D01*
X83814245Y-169411391D01*
X83814247Y-169411394D01*
X83854655Y-169463310D01*
X83951235Y-169587396D01*
X84118337Y-169741224D01*
X84308479Y-169865450D01*
X84516474Y-169956685D01*
X84736650Y-170012441D01*
X84740727Y-170012779D01*
X84740728Y-170012779D01*
X84750995Y-170013630D01*
X84771676Y-170015343D01*
X84828105Y-170038991D01*
X84859859Y-170091291D01*
X84862500Y-170114005D01*
X84862500Y-172434403D01*
X84862174Y-172436461D01*
X84862174Y-172451088D01*
X84857328Y-172466000D01*
X84859877Y-172473846D01*
X84858677Y-172477538D01*
X84861168Y-172477819D01*
X84852359Y-172556008D01*
X84850348Y-172573853D01*
X84845414Y-172595467D01*
X84813251Y-172687383D01*
X84803633Y-172707356D01*
X84751825Y-172789808D01*
X84738003Y-172807141D01*
X84669141Y-172876003D01*
X84651808Y-172889825D01*
X84569356Y-172941633D01*
X84549383Y-172951251D01*
X84457467Y-172983414D01*
X84435854Y-172988348D01*
X84339819Y-172999168D01*
X84339667Y-172997818D01*
X84337264Y-172998338D01*
X84328000Y-172995328D01*
X84320875Y-172997643D01*
X84183817Y-173011142D01*
X84179165Y-173012553D01*
X84179161Y-173012554D01*
X84049831Y-173051786D01*
X84049828Y-173051787D01*
X84045174Y-173053199D01*
X84040883Y-173055493D01*
X84040882Y-173055493D01*
X83950579Y-173103761D01*
X83917401Y-173121495D01*
X83805406Y-173213406D01*
X83713495Y-173325401D01*
X83711203Y-173329689D01*
X83647896Y-173448129D01*
X83645199Y-173453174D01*
X83643787Y-173457828D01*
X83643786Y-173457831D01*
X83604810Y-173586320D01*
X83603142Y-173591817D01*
X83589643Y-173728877D01*
X83587328Y-173736000D01*
X83592175Y-173750916D01*
X83592174Y-173765539D01*
X83592500Y-173767597D01*
X83592500Y-176244403D01*
X83592174Y-176246461D01*
X83592174Y-176261088D01*
X83587328Y-176276000D01*
X83589877Y-176283846D01*
X83588677Y-176287538D01*
X83591168Y-176287819D01*
X83584270Y-176349047D01*
X83580348Y-176383853D01*
X83575414Y-176405467D01*
X83543251Y-176497383D01*
X83533633Y-176517356D01*
X83481825Y-176599808D01*
X83468003Y-176617141D01*
X83399141Y-176686003D01*
X83381808Y-176699825D01*
X83299356Y-176751633D01*
X83279383Y-176761251D01*
X83187467Y-176793414D01*
X83165854Y-176798348D01*
X83069819Y-176809168D01*
X83069667Y-176807819D01*
X83067265Y-176808338D01*
X83058000Y-176805328D01*
X83043088Y-176810174D01*
X83028461Y-176810174D01*
X83026403Y-176810500D01*
X81819597Y-176810500D01*
X81817539Y-176810174D01*
X81802916Y-176810175D01*
X81788000Y-176805328D01*
X81780877Y-176807643D01*
X81767606Y-176808950D01*
X81648660Y-176820665D01*
X81643817Y-176821142D01*
X81639165Y-176822553D01*
X81639161Y-176822554D01*
X81509831Y-176861786D01*
X81509828Y-176861787D01*
X81505174Y-176863199D01*
X81377401Y-176931495D01*
X81310829Y-176986129D01*
X81248026Y-177008600D01*
X80910680Y-177008600D01*
X80897995Y-177012722D01*
X80895000Y-177016843D01*
X80895000Y-177742919D01*
X80899452Y-177756621D01*
X80934221Y-177804480D01*
X80934220Y-177865665D01*
X80910070Y-177905074D01*
X80859141Y-177956003D01*
X80841808Y-177969825D01*
X80759356Y-178021633D01*
X80739383Y-178031251D01*
X80647467Y-178063414D01*
X80625854Y-178068348D01*
X80529819Y-178079168D01*
X80529667Y-178077819D01*
X80527265Y-178078338D01*
X80518000Y-178075328D01*
X80503088Y-178080174D01*
X80488461Y-178080174D01*
X80486403Y-178080500D01*
X75873005Y-178080500D01*
X75814814Y-178061593D01*
X75778850Y-178012093D01*
X75774343Y-177989675D01*
X75771779Y-177958728D01*
X75771779Y-177958727D01*
X75771441Y-177954650D01*
X75715685Y-177734474D01*
X75624450Y-177526479D01*
X75500224Y-177336337D01*
X75346396Y-177169235D01*
X75167161Y-177029731D01*
X74967410Y-176921631D01*
X74963541Y-176920303D01*
X74963537Y-176920301D01*
X74756459Y-176849212D01*
X74756460Y-176849212D01*
X74752591Y-176847884D01*
X74748561Y-176847212D01*
X74748559Y-176847211D01*
X74675660Y-176835046D01*
X74528563Y-176810500D01*
X74301437Y-176810500D01*
X74154340Y-176835046D01*
X74081441Y-176847211D01*
X74081439Y-176847212D01*
X74077409Y-176847884D01*
X74073540Y-176849212D01*
X74073541Y-176849212D01*
X73866463Y-176920301D01*
X73866459Y-176920303D01*
X73862590Y-176921631D01*
X73662839Y-177029731D01*
X73483604Y-177169235D01*
X73329776Y-177336337D01*
X73205550Y-177526479D01*
X73114315Y-177734474D01*
X73058559Y-177954650D01*
X73058221Y-177958727D01*
X73058221Y-177958728D01*
X73055657Y-177989675D01*
X73032009Y-178046105D01*
X72979709Y-178077859D01*
X72956995Y-178080500D01*
X70389597Y-178080500D01*
X70387539Y-178080174D01*
X70372912Y-178080174D01*
X70358000Y-178075328D01*
X70350154Y-178077877D01*
X70346462Y-178076677D01*
X70346181Y-178079168D01*
X70250146Y-178068348D01*
X70228533Y-178063414D01*
X70136617Y-178031251D01*
X70116644Y-178021633D01*
X70034192Y-177969825D01*
X70016859Y-177956003D01*
X69947997Y-177887141D01*
X69934175Y-177869808D01*
X69882367Y-177787356D01*
X69872749Y-177767383D01*
X69840586Y-177675467D01*
X69835652Y-177653853D01*
X69824832Y-177557819D01*
X69826182Y-177557667D01*
X69825662Y-177555264D01*
X69828672Y-177546000D01*
X69826357Y-177538875D01*
X69812858Y-177401817D01*
X69810811Y-177395067D01*
X69772214Y-177267831D01*
X69772213Y-177267828D01*
X69770801Y-177263174D01*
X69765558Y-177253364D01*
X69746391Y-177217506D01*
X69735635Y-177157274D01*
X69762337Y-177102222D01*
X69805706Y-177079041D01*
X69804940Y-177076683D01*
X69819851Y-177071838D01*
X69835532Y-177071838D01*
X69835532Y-177056356D01*
X70924300Y-177056356D01*
X70931002Y-177118048D01*
X70981729Y-177253364D01*
X71068396Y-177369004D01*
X71184036Y-177455671D01*
X71319352Y-177506398D01*
X71381044Y-177513100D01*
X71976556Y-177513100D01*
X72038248Y-177506398D01*
X72173564Y-177455671D01*
X72289204Y-177369004D01*
X72375871Y-177253364D01*
X72426598Y-177118048D01*
X72433300Y-177056356D01*
X72433300Y-176460844D01*
X72426598Y-176399152D01*
X72375871Y-176263836D01*
X72289204Y-176148196D01*
X72173564Y-176061529D01*
X72038248Y-176010802D01*
X71976556Y-176004100D01*
X71381044Y-176004100D01*
X71319352Y-176010802D01*
X71184036Y-176061529D01*
X71068396Y-176148196D01*
X70981729Y-176263836D01*
X70931002Y-176399152D01*
X70924300Y-176460844D01*
X70924300Y-177056356D01*
X69835532Y-177056356D01*
X69835532Y-175302362D01*
X67382500Y-175302362D01*
X67324309Y-175283455D01*
X67288345Y-175233955D01*
X67283500Y-175203362D01*
X67283500Y-173767597D01*
X67283826Y-173765539D01*
X67283825Y-173750916D01*
X67288672Y-173736000D01*
X67286357Y-173728877D01*
X67282295Y-173687629D01*
X67273335Y-173596660D01*
X67272858Y-173591817D01*
X67271191Y-173586320D01*
X67232214Y-173457831D01*
X67232213Y-173457828D01*
X67230801Y-173453174D01*
X67228105Y-173448129D01*
X67164797Y-173329689D01*
X67162505Y-173325401D01*
X67070594Y-173213406D01*
X66958599Y-173121495D01*
X66925421Y-173103761D01*
X66835118Y-173055493D01*
X66835117Y-173055493D01*
X66830826Y-173053199D01*
X66826172Y-173051787D01*
X66826169Y-173051786D01*
X66696839Y-173012554D01*
X66696835Y-173012553D01*
X66692183Y-173011142D01*
X66555125Y-172997643D01*
X66548000Y-172995328D01*
X66540155Y-172997877D01*
X66536462Y-172996677D01*
X66536181Y-172999168D01*
X66440146Y-172988348D01*
X66418533Y-172983414D01*
X66326617Y-172951251D01*
X66306644Y-172941633D01*
X66224192Y-172889825D01*
X66206859Y-172876003D01*
X66137997Y-172807141D01*
X66124175Y-172789808D01*
X66072367Y-172707356D01*
X66062749Y-172687383D01*
X66030586Y-172595467D01*
X66025652Y-172573853D01*
X66023642Y-172556008D01*
X66014832Y-172477819D01*
X66016181Y-172477667D01*
X66015662Y-172475265D01*
X66018672Y-172466000D01*
X66013826Y-172451088D01*
X66013826Y-172436461D01*
X66013500Y-172434403D01*
X66013500Y-171813235D01*
X67287340Y-171813235D01*
X67287429Y-171814069D01*
X67287358Y-171814740D01*
X67287582Y-171815498D01*
X67291281Y-171850117D01*
X67291376Y-171851058D01*
X67291762Y-171855090D01*
X67292905Y-171867035D01*
X67294508Y-171883792D01*
X67294366Y-171885388D01*
X67294791Y-171886744D01*
X67294962Y-171888531D01*
X67295911Y-171890318D01*
X67302640Y-171911791D01*
X67303432Y-171914318D01*
X67303614Y-171914908D01*
X67311971Y-171942172D01*
X67311973Y-171942177D01*
X67314624Y-171950825D01*
X67314892Y-171953398D01*
X67316090Y-171955608D01*
X67317285Y-171959508D01*
X67319497Y-171962188D01*
X67321558Y-171965960D01*
X67328929Y-171979452D01*
X67328969Y-171979526D01*
X67337221Y-171994661D01*
X67342642Y-172004603D01*
X67346622Y-172011947D01*
X67347748Y-172015654D01*
X67350342Y-172018812D01*
X67350955Y-172019943D01*
X67351101Y-172020119D01*
X67353144Y-172023866D01*
X67356149Y-172026291D01*
X67367317Y-172039648D01*
X67374194Y-172047930D01*
X67380165Y-172055121D01*
X67380497Y-172055524D01*
X67383692Y-172059413D01*
X67390168Y-172067297D01*
X67391985Y-172070729D01*
X67395112Y-172073316D01*
X67395790Y-172074141D01*
X67396319Y-172074575D01*
X67396756Y-172075101D01*
X67397388Y-172075613D01*
X67399991Y-172078727D01*
X67403467Y-172080544D01*
X67415568Y-172090359D01*
X67415867Y-172090603D01*
X67431252Y-172103219D01*
X67431581Y-172103490D01*
X67444358Y-172114060D01*
X67446753Y-172117008D01*
X67450126Y-172118832D01*
X67450302Y-172118978D01*
X67450804Y-172119249D01*
X67451242Y-172119608D01*
X67452372Y-172120212D01*
X67455539Y-172122780D01*
X67459244Y-172123880D01*
X67472691Y-172131061D01*
X67472891Y-172131169D01*
X67490917Y-172140896D01*
X67491004Y-172140943D01*
X67501059Y-172146382D01*
X67501061Y-172146383D01*
X67508035Y-172150155D01*
X67510734Y-172152378D01*
X67515126Y-172153719D01*
X67518008Y-172155258D01*
X67521185Y-172155570D01*
X67525225Y-172156804D01*
X67575354Y-172191883D01*
X67581421Y-172200923D01*
X67604666Y-172240055D01*
X67698763Y-172398463D01*
X67701273Y-172402951D01*
X67710778Y-172421036D01*
X67711631Y-172422700D01*
X67722688Y-172444779D01*
X67723581Y-172446608D01*
X67726350Y-172452433D01*
X67732799Y-172466000D01*
X67733581Y-172467646D01*
X67734464Y-172469558D01*
X67738176Y-172477819D01*
X67743380Y-172489404D01*
X67744276Y-172491460D01*
X67752169Y-172510152D01*
X67753045Y-172512295D01*
X67759906Y-172529689D01*
X67760788Y-172532012D01*
X67766676Y-172548112D01*
X67767547Y-172550595D01*
X67769365Y-172556008D01*
X67771222Y-172612858D01*
X67770972Y-172613802D01*
X67767056Y-172622059D01*
X67766375Y-172631172D01*
X67765149Y-172635803D01*
X67763201Y-172645546D01*
X67762553Y-172650283D01*
X67759677Y-172658958D01*
X67760117Y-172668088D01*
X67761195Y-172690480D01*
X67761035Y-172702620D01*
X67759785Y-172719353D01*
X67758683Y-172734094D01*
X67759988Y-172740301D01*
X67760718Y-172742619D01*
X67761327Y-172744945D01*
X67761016Y-172745027D01*
X67762468Y-172753168D01*
X67762538Y-172753151D01*
X67764642Y-172762047D01*
X67765082Y-172771175D01*
X67776166Y-172796238D01*
X67784624Y-172836090D01*
X67784691Y-172871759D01*
X67787997Y-172880278D01*
X67787997Y-172880280D01*
X67797389Y-172904483D01*
X67800637Y-172914364D01*
X67809830Y-172948234D01*
X67815241Y-172955604D01*
X67818311Y-172961974D01*
X67822026Y-172967975D01*
X67825333Y-172976497D01*
X67831488Y-172983259D01*
X67848952Y-173002446D01*
X67855542Y-173010498D01*
X67876317Y-173038796D01*
X67884015Y-173043722D01*
X67889159Y-173048547D01*
X67894805Y-173052824D01*
X67900956Y-173059581D01*
X67932342Y-173075292D01*
X67941369Y-173080421D01*
X67970948Y-173099348D01*
X67979907Y-173101173D01*
X67986457Y-173103828D01*
X67993247Y-173105781D01*
X68001418Y-173109871D01*
X68010510Y-173110745D01*
X68010513Y-173110746D01*
X68030863Y-173112702D01*
X68036358Y-173113230D01*
X68046640Y-173114768D01*
X68071525Y-173119838D01*
X68074284Y-173120400D01*
X68127529Y-173150543D01*
X68152888Y-173206226D01*
X68140673Y-173266180D01*
X68132764Y-173278061D01*
X68127153Y-173285300D01*
X68125513Y-173287415D01*
X68123987Y-173289335D01*
X68113490Y-173302200D01*
X68112704Y-173303164D01*
X68111120Y-173305057D01*
X68100026Y-173317983D01*
X68098430Y-173319796D01*
X68087490Y-173331920D01*
X68085868Y-173333672D01*
X68075120Y-173345002D01*
X68073422Y-173346748D01*
X68062903Y-173357304D01*
X68061187Y-173358985D01*
X68050699Y-173369011D01*
X68048976Y-173370619D01*
X68038693Y-173379990D01*
X68037037Y-173381465D01*
X68026686Y-173390465D01*
X68025042Y-173391861D01*
X68014789Y-173400378D01*
X68013143Y-173401716D01*
X68002934Y-173409828D01*
X68001315Y-173411087D01*
X67991096Y-173418867D01*
X67989542Y-173420026D01*
X67979169Y-173427607D01*
X67977702Y-173428659D01*
X67967194Y-173436048D01*
X67965898Y-173436943D01*
X67962144Y-173439489D01*
X67955241Y-173444170D01*
X67953986Y-173445007D01*
X67943150Y-173452116D01*
X67942052Y-173452826D01*
X67931934Y-173459271D01*
X67930838Y-173459969D01*
X67929879Y-173460572D01*
X67918443Y-173467669D01*
X67917658Y-173468150D01*
X67910953Y-173472223D01*
X67905769Y-173475372D01*
X67905274Y-173475670D01*
X67892989Y-173483013D01*
X67892759Y-173483149D01*
X67883933Y-173488364D01*
X67883799Y-173488443D01*
X67874588Y-173493866D01*
X67874453Y-173493937D01*
X67874032Y-173494086D01*
X67865211Y-173499325D01*
X67860698Y-173502005D01*
X67860410Y-173502159D01*
X67859644Y-173502435D01*
X67857748Y-173503579D01*
X67857744Y-173503581D01*
X67856902Y-173504089D01*
X67846428Y-173510409D01*
X67845961Y-173510663D01*
X67844813Y-173511091D01*
X67835126Y-173517075D01*
X67833318Y-173518165D01*
X67831683Y-173519127D01*
X67831584Y-173518958D01*
X67829847Y-173520022D01*
X67829514Y-173520152D01*
X67822358Y-173524714D01*
X67819720Y-173526339D01*
X67818163Y-173527264D01*
X67818162Y-173527263D01*
X67817647Y-173527586D01*
X67817703Y-173527674D01*
X67817669Y-173527704D01*
X67816626Y-173528369D01*
X67816067Y-173528695D01*
X67816080Y-173528717D01*
X67815854Y-173528854D01*
X67815838Y-173528828D01*
X67815649Y-173528938D01*
X67813715Y-173529732D01*
X67808330Y-173533306D01*
X67808297Y-173533317D01*
X67807952Y-173533536D01*
X67807443Y-173533894D01*
X67806974Y-173534206D01*
X67806950Y-173534170D01*
X67805092Y-173535346D01*
X67804330Y-173535806D01*
X67804244Y-173535664D01*
X67803583Y-173536232D01*
X67803685Y-173536387D01*
X67803677Y-173536394D01*
X67802660Y-173537069D01*
X67802457Y-173537199D01*
X67802432Y-173537221D01*
X67801316Y-173537961D01*
X67801291Y-173537976D01*
X67801277Y-173537954D01*
X67801241Y-173537978D01*
X67801254Y-173537999D01*
X67800933Y-173538197D01*
X67800877Y-173538211D01*
X67799917Y-173538825D01*
X67799746Y-173538931D01*
X67799685Y-173538958D01*
X67799440Y-173538560D01*
X67798595Y-173538766D01*
X67797333Y-173539842D01*
X67797410Y-173539952D01*
X67792068Y-173543674D01*
X67792012Y-173543593D01*
X67791668Y-173543714D01*
X67789218Y-173545085D01*
X67789485Y-173545470D01*
X67789471Y-173545483D01*
X67787726Y-173546698D01*
X67786455Y-173547546D01*
X67786280Y-173547706D01*
X67786082Y-173547844D01*
X67786024Y-173547881D01*
X67786002Y-173547848D01*
X67784378Y-173548931D01*
X67782938Y-173549849D01*
X67782916Y-173549859D01*
X67782694Y-173549511D01*
X67781632Y-173550462D01*
X67780615Y-173550940D01*
X67776719Y-173553814D01*
X67776548Y-173553923D01*
X67776529Y-173553930D01*
X67774972Y-173554857D01*
X67775089Y-173555016D01*
X67772343Y-173557042D01*
X67768308Y-173559867D01*
X67765362Y-173561822D01*
X67765350Y-173561804D01*
X67765288Y-173561860D01*
X67763354Y-173562845D01*
X67760853Y-173564815D01*
X67760710Y-173564910D01*
X67760624Y-173564996D01*
X67759540Y-173565850D01*
X67759535Y-173565853D01*
X67756479Y-173568260D01*
X67751828Y-173571708D01*
X67746885Y-173575152D01*
X67745662Y-173575832D01*
X67741953Y-173578981D01*
X67741952Y-173578981D01*
X67740218Y-173580453D01*
X67734927Y-173584642D01*
X67734698Y-173584811D01*
X67729902Y-173588349D01*
X67729247Y-173589067D01*
X67727668Y-173590033D01*
X67724109Y-173593316D01*
X67724105Y-173593319D01*
X67723643Y-173593746D01*
X67717944Y-173598607D01*
X67717887Y-173598661D01*
X67714059Y-173601677D01*
X67712374Y-173603649D01*
X67709482Y-173605605D01*
X67706059Y-173609067D01*
X67705427Y-173609592D01*
X67702642Y-173612173D01*
X67701704Y-173613142D01*
X67697998Y-173616288D01*
X67695701Y-173619184D01*
X67694964Y-173619902D01*
X67691275Y-173622680D01*
X67688030Y-173626313D01*
X67686859Y-173627390D01*
X67685437Y-173628987D01*
X67681861Y-173632285D01*
X67679348Y-173635735D01*
X67678091Y-173637085D01*
X67677036Y-173638168D01*
X67673313Y-173641304D01*
X67670277Y-173645102D01*
X67669886Y-173645503D01*
X67669200Y-173646349D01*
X67665780Y-173649808D01*
X67663224Y-173653681D01*
X67662011Y-173655127D01*
X67659365Y-173658179D01*
X67655833Y-173661525D01*
X67652981Y-173665553D01*
X67652973Y-173665548D01*
X67652466Y-173666125D01*
X67652461Y-173666136D01*
X67649942Y-173668955D01*
X67647467Y-173673153D01*
X67646927Y-173673893D01*
X67645326Y-173675828D01*
X67645398Y-173675883D01*
X67642443Y-173679745D01*
X67639122Y-173683299D01*
X67636977Y-173686758D01*
X67634604Y-173689726D01*
X67632363Y-173694051D01*
X67630319Y-173697197D01*
X67629235Y-173698675D01*
X67629274Y-173698701D01*
X67626568Y-173702738D01*
X67623472Y-173706499D01*
X67621867Y-173709491D01*
X67620004Y-173712122D01*
X67618023Y-173716559D01*
X67615615Y-173720785D01*
X67615226Y-173720563D01*
X67614056Y-173722593D01*
X67614422Y-173722806D01*
X67611975Y-173727013D01*
X67609127Y-173730960D01*
X67607909Y-173733626D01*
X67606406Y-173736049D01*
X67604698Y-173740604D01*
X67602552Y-173744969D01*
X67602222Y-173744807D01*
X67600729Y-173747820D01*
X67601055Y-173747983D01*
X67598882Y-173752334D01*
X67596294Y-173756449D01*
X67595338Y-173758951D01*
X67594062Y-173761329D01*
X67592640Y-173765995D01*
X67591915Y-173767737D01*
X67591343Y-173769399D01*
X67591295Y-173769524D01*
X67588953Y-173775107D01*
X67588865Y-173775300D01*
X67588257Y-173776518D01*
X67587588Y-173778096D01*
X67587379Y-173778553D01*
X67585115Y-173782705D01*
X67584323Y-173785241D01*
X67583172Y-173787759D01*
X67582051Y-173792498D01*
X67581443Y-173794269D01*
X67581029Y-173795782D01*
X67580968Y-173795978D01*
X67579217Y-173800487D01*
X67579331Y-173800527D01*
X67577892Y-173804587D01*
X67577624Y-173805289D01*
X67575639Y-173809519D01*
X67574964Y-173812249D01*
X67573885Y-173815071D01*
X67573068Y-173819863D01*
X67571783Y-173824559D01*
X67571361Y-173824443D01*
X67570545Y-173827334D01*
X67571040Y-173827478D01*
X67569882Y-173831461D01*
X67569615Y-173832315D01*
X67567873Y-173836662D01*
X67567301Y-173839720D01*
X67566281Y-173842986D01*
X67565765Y-173847815D01*
X67564778Y-173852575D01*
X67564710Y-173852561D01*
X67564186Y-173855659D01*
X67563688Y-173857800D01*
X67563607Y-173858138D01*
X67563606Y-173858153D01*
X67563552Y-173858387D01*
X67563277Y-173859500D01*
X67561766Y-173863960D01*
X67561306Y-173867471D01*
X67560360Y-173871295D01*
X67560136Y-173876159D01*
X67559436Y-173880976D01*
X67559275Y-173880953D01*
X67558754Y-173885441D01*
X67558648Y-173886007D01*
X67558648Y-173886011D01*
X67558497Y-173886818D01*
X67557228Y-173891304D01*
X67556908Y-173895319D01*
X67556076Y-173899772D01*
X67556133Y-173904639D01*
X67555731Y-173909270D01*
X67555264Y-173913563D01*
X67555177Y-173914229D01*
X67554148Y-173918651D01*
X67554002Y-173923190D01*
X67553337Y-173928262D01*
X67553658Y-173933116D01*
X67553568Y-173935898D01*
X67553527Y-173936631D01*
X67553540Y-173936761D01*
X67553537Y-173936859D01*
X67553349Y-173940034D01*
X67553227Y-173941566D01*
X67552435Y-173945778D01*
X67552487Y-173950643D01*
X67552405Y-173951576D01*
X67552410Y-173951829D01*
X67552023Y-173956683D01*
X67552591Y-173961520D01*
X67552609Y-173962481D01*
X67552575Y-173967511D01*
X67552418Y-173972397D01*
X67552352Y-173972395D01*
X67552383Y-173972647D01*
X67551892Y-173976101D01*
X67552149Y-173980751D01*
X67552012Y-173985012D01*
X67552492Y-173987910D01*
X67552370Y-173988391D01*
X67552570Y-173988380D01*
X67552840Y-173993252D01*
X67552985Y-173997633D01*
X67553030Y-174001873D01*
X67553029Y-174001883D01*
X67553008Y-174001883D01*
X67553022Y-174001963D01*
X67552631Y-174006199D01*
X67553126Y-174010931D01*
X67553168Y-174014848D01*
X67553894Y-174018308D01*
X67553885Y-174018352D01*
X67553903Y-174018350D01*
X67554338Y-174022505D01*
X67554725Y-174027345D01*
X67554960Y-174031592D01*
X67554785Y-174036176D01*
X67555441Y-174040292D01*
X67555630Y-174043705D01*
X67556566Y-174047348D01*
X67556691Y-174048132D01*
X67556691Y-174048133D01*
X67557231Y-174051515D01*
X67557946Y-174056954D01*
X67557993Y-174057409D01*
X67558032Y-174058036D01*
X67558178Y-174059267D01*
X67558259Y-174059990D01*
X67558267Y-174060020D01*
X67558413Y-174061415D01*
X67558507Y-174066065D01*
X67559255Y-174069465D01*
X67559551Y-174072288D01*
X67560674Y-174075910D01*
X67561030Y-174077525D01*
X67561669Y-174080430D01*
X67562748Y-174086123D01*
X67563001Y-174087710D01*
X67563094Y-174088474D01*
X67563109Y-174088556D01*
X67563189Y-174089022D01*
X67563201Y-174089057D01*
X67563320Y-174089705D01*
X67563584Y-174091361D01*
X67563956Y-174095812D01*
X67564716Y-174098456D01*
X67565068Y-174100667D01*
X67566329Y-174104074D01*
X67567023Y-174106491D01*
X67567023Y-174106493D01*
X67567801Y-174109201D01*
X67569323Y-174115201D01*
X67569951Y-174118056D01*
X67570020Y-174118429D01*
X67570121Y-174118826D01*
X67570657Y-174121261D01*
X67571264Y-174125268D01*
X67571968Y-174127215D01*
X67572325Y-174128839D01*
X67573631Y-174131820D01*
X67574765Y-174134958D01*
X67574765Y-174134959D01*
X67575757Y-174137704D01*
X67577796Y-174143997D01*
X67579748Y-174150794D01*
X67580506Y-174154176D01*
X67581113Y-174155547D01*
X67581448Y-174156713D01*
X67582733Y-174159205D01*
X67585631Y-174165750D01*
X67588219Y-174172195D01*
X67590815Y-174179381D01*
X67591668Y-174182211D01*
X67592197Y-174183206D01*
X67592524Y-174184110D01*
X67593827Y-174186269D01*
X67595918Y-174190198D01*
X67597447Y-174193072D01*
X67600574Y-174199499D01*
X67601890Y-174202471D01*
X67601897Y-174202486D01*
X67603543Y-174206203D01*
X67603544Y-174206208D01*
X67603578Y-174206284D01*
X67603575Y-174206285D01*
X67603587Y-174206307D01*
X67604607Y-174208973D01*
X67605156Y-174209846D01*
X67605561Y-174210760D01*
X67607168Y-174213043D01*
X67611128Y-174219338D01*
X67614718Y-174225532D01*
X67617542Y-174230839D01*
X67619047Y-174234065D01*
X67619815Y-174235112D01*
X67620468Y-174236339D01*
X67622878Y-174239287D01*
X67624229Y-174241129D01*
X67624284Y-174241211D01*
X67624388Y-174241346D01*
X67625484Y-174242839D01*
X67626394Y-174244079D01*
X67630434Y-174250025D01*
X67630847Y-174250683D01*
X67631618Y-174251989D01*
X67632213Y-174252853D01*
X67632283Y-174252964D01*
X67634610Y-174257172D01*
X67635865Y-174258657D01*
X67637009Y-174260476D01*
X67640358Y-174264014D01*
X67643342Y-174267861D01*
X67643156Y-174268005D01*
X67644939Y-174270286D01*
X67645176Y-174270099D01*
X67648181Y-174273914D01*
X67650802Y-174278012D01*
X67652855Y-174280149D01*
X67654822Y-174282830D01*
X67658412Y-174286117D01*
X67661396Y-174289444D01*
X67662708Y-174290778D01*
X67664300Y-174292574D01*
X67667155Y-174296513D01*
X67669102Y-174298317D01*
X67669591Y-174298770D01*
X67670337Y-174299478D01*
X67670346Y-174299470D01*
X67673461Y-174303157D01*
X67677265Y-174306189D01*
X67680505Y-174309338D01*
X67680723Y-174309608D01*
X67680681Y-174309651D01*
X67680958Y-174309901D01*
X67683152Y-174312625D01*
X67686885Y-174315746D01*
X67688190Y-174317076D01*
X67688997Y-174317765D01*
X67692369Y-174321276D01*
X67696172Y-174323928D01*
X67698459Y-174326530D01*
X67702326Y-174329490D01*
X67703425Y-174330517D01*
X67706864Y-174333415D01*
X67707490Y-174333890D01*
X67711059Y-174337197D01*
X67712395Y-174338018D01*
X67712674Y-174338314D01*
X67716635Y-174341133D01*
X67716638Y-174341135D01*
X67717521Y-174341763D01*
X67718603Y-174342599D01*
X67719004Y-174342819D01*
X67720123Y-174343615D01*
X67720396Y-174343983D01*
X67723646Y-174346493D01*
X67725044Y-174347662D01*
X67725058Y-174347676D01*
X67725042Y-174347694D01*
X67725148Y-174347767D01*
X67725560Y-174348181D01*
X67726097Y-174348542D01*
X67728996Y-174350967D01*
X67730524Y-174351802D01*
X67732428Y-174353232D01*
X67733344Y-174353988D01*
X67732025Y-174355586D01*
X67764355Y-174397316D01*
X67769565Y-174441886D01*
X67768298Y-174453125D01*
X67767200Y-174462864D01*
X67767116Y-174463580D01*
X67766715Y-174466918D01*
X67766481Y-174468389D01*
X67765755Y-174470786D01*
X67764030Y-174488406D01*
X67763691Y-174491864D01*
X67763461Y-174493975D01*
X67762445Y-174502417D01*
X67762444Y-174502421D01*
X67761958Y-174502362D01*
X67761992Y-174504186D01*
X67761413Y-174506445D01*
X67760960Y-174514761D01*
X67760620Y-174514742D01*
X67760557Y-174515150D01*
X67760938Y-174515171D01*
X67760465Y-174523844D01*
X67760141Y-174528103D01*
X67758645Y-174543378D01*
X67758126Y-174546193D01*
X67758194Y-174551056D01*
X67758194Y-174551061D01*
X67758308Y-174559154D01*
X67758172Y-174565912D01*
X67757467Y-174578858D01*
X67757790Y-174581117D01*
X67757787Y-174581242D01*
X67757807Y-174581242D01*
X67757902Y-174581906D01*
X67757949Y-174586109D01*
X67757526Y-174590951D01*
X67758056Y-174595783D01*
X67758056Y-174595791D01*
X67758424Y-174599146D01*
X67759004Y-174608541D01*
X67759120Y-174616780D01*
X67760136Y-174621536D01*
X67760681Y-174626374D01*
X67760420Y-174626403D01*
X67760873Y-174630157D01*
X67760927Y-174630150D01*
X67761546Y-174634968D01*
X67761691Y-174639835D01*
X67762783Y-174644581D01*
X67762870Y-174645261D01*
X67764404Y-174654329D01*
X67764552Y-174655032D01*
X67765083Y-174659877D01*
X67766547Y-174664518D01*
X67767307Y-174666928D01*
X67770688Y-174681314D01*
X67771270Y-174685014D01*
X67771271Y-174685019D01*
X67772026Y-174689813D01*
X67773703Y-174694371D01*
X67774685Y-174698149D01*
X67774784Y-174698481D01*
X67776035Y-174702202D01*
X67777126Y-174706948D01*
X67779121Y-174711386D01*
X67780921Y-174715391D01*
X67785851Y-174728910D01*
X67788182Y-174737112D01*
X67790396Y-174741436D01*
X67791078Y-174743168D01*
X67793453Y-174748589D01*
X67794260Y-174750257D01*
X67795935Y-174754810D01*
X67798467Y-174758951D01*
X67799333Y-174760367D01*
X67805348Y-174772371D01*
X67806627Y-174774837D01*
X67808430Y-174779345D01*
X67811079Y-174783418D01*
X67811080Y-174783419D01*
X67812119Y-174785017D01*
X67817252Y-174793879D01*
X67820335Y-174799900D01*
X67823354Y-174803713D01*
X67825202Y-174806588D01*
X67827496Y-174809821D01*
X67829537Y-174813043D01*
X67831722Y-174817379D01*
X67834711Y-174821206D01*
X67834715Y-174821213D01*
X67837759Y-174825111D01*
X67842720Y-174832062D01*
X67845412Y-174836201D01*
X67845415Y-174836205D01*
X67848069Y-174840285D01*
X67851469Y-174843770D01*
X67853253Y-174845999D01*
X67854653Y-174847961D01*
X67857616Y-174851759D01*
X67860218Y-174855872D01*
X67863572Y-174859396D01*
X67863573Y-174859398D01*
X67865588Y-174861515D01*
X67871899Y-174868830D01*
X67876704Y-174874984D01*
X67880387Y-174878159D01*
X67883743Y-174881682D01*
X67883558Y-174881858D01*
X67886496Y-174884923D01*
X67886622Y-174884802D01*
X67889995Y-174888298D01*
X67893014Y-174892115D01*
X67897953Y-174896319D01*
X67905511Y-174903470D01*
X67906615Y-174904631D01*
X67906618Y-174904634D01*
X67909967Y-174908153D01*
X67913941Y-174910954D01*
X67917623Y-174914131D01*
X67917610Y-174914146D01*
X67926020Y-174921263D01*
X67926600Y-174921744D01*
X67930024Y-174925205D01*
X67934049Y-174927926D01*
X67934053Y-174927929D01*
X67934558Y-174928270D01*
X67943275Y-174934893D01*
X67947446Y-174938443D01*
X67952345Y-174941176D01*
X67966114Y-174950449D01*
X67970806Y-174954217D01*
X67975140Y-174956475D01*
X67984824Y-174962246D01*
X67988879Y-174964986D01*
X67993364Y-174966872D01*
X67993366Y-174966873D01*
X67994747Y-174967454D01*
X68009137Y-174974948D01*
X68010439Y-174975768D01*
X68014557Y-174978362D01*
X68019100Y-174980103D01*
X68019147Y-174980126D01*
X68029245Y-174984674D01*
X68029332Y-174984709D01*
X68033649Y-174986958D01*
X68039625Y-174988702D01*
X68054959Y-174994598D01*
X68055911Y-174995058D01*
X68055916Y-174995060D01*
X68060297Y-174997177D01*
X68065367Y-174998492D01*
X68075921Y-175001871D01*
X68076271Y-175002005D01*
X68076278Y-175002007D01*
X68080820Y-175003747D01*
X68085615Y-175004568D01*
X68085617Y-175004568D01*
X68085973Y-175004629D01*
X68100243Y-175008370D01*
X68102330Y-175008892D01*
X68106912Y-175010530D01*
X68111727Y-175011242D01*
X68111729Y-175011243D01*
X68113016Y-175011434D01*
X68123375Y-175013538D01*
X68124624Y-175013862D01*
X68124627Y-175013862D01*
X68129336Y-175015084D01*
X68134190Y-175015363D01*
X68139001Y-175016118D01*
X68138985Y-175016221D01*
X68143998Y-175016981D01*
X68144024Y-175016803D01*
X68148835Y-175017506D01*
X68153556Y-175018678D01*
X68159861Y-175018974D01*
X68160938Y-175019025D01*
X68170775Y-175019982D01*
X68173269Y-175020351D01*
X68173271Y-175020351D01*
X68178081Y-175021063D01*
X68182938Y-175020823D01*
X68187292Y-175021036D01*
X68187790Y-175021134D01*
X68187788Y-175021174D01*
X68188017Y-175021180D01*
X68188115Y-175021199D01*
X68204878Y-175021199D01*
X68209524Y-175021308D01*
X68226273Y-175022095D01*
X68227793Y-175021866D01*
X68228450Y-175021971D01*
X68246750Y-175021271D01*
X68250535Y-175021199D01*
X68263139Y-175021199D01*
X68263492Y-175021213D01*
X68264848Y-175021199D01*
X68266997Y-175021199D01*
X68271200Y-175021527D01*
X68276032Y-175020952D01*
X68276033Y-175020952D01*
X68281998Y-175020242D01*
X68289902Y-175019622D01*
X68295926Y-175019391D01*
X68295934Y-175019390D01*
X68300791Y-175019204D01*
X68305366Y-175018110D01*
X68307477Y-175017854D01*
X68309412Y-175017650D01*
X68314273Y-175017617D01*
X68324156Y-175015581D01*
X68332427Y-175014240D01*
X68333275Y-175014139D01*
X68342432Y-175013049D01*
X68347057Y-175011543D01*
X68347080Y-175011538D01*
X68349347Y-175011067D01*
X68352390Y-175010471D01*
X68357235Y-175010009D01*
X68366289Y-175007293D01*
X68374760Y-175005154D01*
X68379262Y-175004227D01*
X68379269Y-175004225D01*
X68384030Y-175003244D01*
X68388518Y-175001349D01*
X68389475Y-175001051D01*
X68391144Y-175000549D01*
X68394832Y-174999473D01*
X68399608Y-174998576D01*
X68404112Y-174996766D01*
X68404123Y-174996763D01*
X68408005Y-174995203D01*
X68416462Y-174992242D01*
X68420455Y-174991044D01*
X68420456Y-174991044D01*
X68425115Y-174989646D01*
X68429410Y-174987368D01*
X68431452Y-174986529D01*
X68432753Y-174986006D01*
X68436129Y-174984676D01*
X68440798Y-174983347D01*
X68445123Y-174981131D01*
X68445125Y-174981130D01*
X68448712Y-174979292D01*
X68456951Y-174975535D01*
X68460680Y-174974037D01*
X68460685Y-174974034D01*
X68465193Y-174972223D01*
X68469262Y-174969566D01*
X68472232Y-174968019D01*
X68473464Y-174967388D01*
X68475738Y-174966243D01*
X68480270Y-174964496D01*
X68487868Y-174959686D01*
X68495680Y-174955224D01*
X68499355Y-174953341D01*
X68499357Y-174953340D01*
X68503687Y-174951121D01*
X68507502Y-174948099D01*
X68511590Y-174945469D01*
X68511649Y-174945561D01*
X68512555Y-174944927D01*
X68516257Y-174943135D01*
X68524567Y-174936854D01*
X68531302Y-174932189D01*
X68535997Y-174929217D01*
X68535998Y-174929216D01*
X68540107Y-174926615D01*
X68543631Y-174923261D01*
X68547462Y-174920272D01*
X68547639Y-174920499D01*
X68555255Y-174914475D01*
X68556915Y-174913392D01*
X68560991Y-174910734D01*
X68564468Y-174907334D01*
X68567605Y-174904818D01*
X68570559Y-174902091D01*
X68574442Y-174899156D01*
X68582607Y-174889981D01*
X68588010Y-174884651D01*
X68588274Y-174884520D01*
X68589079Y-174883596D01*
X68591755Y-174880957D01*
X68602158Y-174871950D01*
X68605141Y-174868113D01*
X68607124Y-174866023D01*
X68608995Y-174863795D01*
X68612476Y-174860391D01*
X68615570Y-174855872D01*
X68618581Y-174851472D01*
X68620596Y-174848529D01*
X68624123Y-174843698D01*
X68624568Y-174843126D01*
X68624841Y-174842794D01*
X68625786Y-174842148D01*
X68627351Y-174839749D01*
X68628049Y-174838902D01*
X68638015Y-174827471D01*
X68640432Y-174823257D01*
X68641780Y-174821364D01*
X68643037Y-174819371D01*
X68646022Y-174815532D01*
X68648198Y-174811188D01*
X68648205Y-174811178D01*
X68652799Y-174802009D01*
X68654097Y-174799589D01*
X68655230Y-174797934D01*
X68655389Y-174797180D01*
X68655401Y-174797158D01*
X68655909Y-174796271D01*
X68656514Y-174796617D01*
X68658882Y-174791396D01*
X68667129Y-174778749D01*
X68668938Y-174774239D01*
X68670070Y-174772063D01*
X68671079Y-174769819D01*
X68673500Y-174765598D01*
X68678273Y-174751405D01*
X68678603Y-174750510D01*
X68679929Y-174747863D01*
X68680014Y-174746686D01*
X68680265Y-174746006D01*
X68680333Y-174745837D01*
X68682804Y-174740206D01*
X68686697Y-174732035D01*
X68688785Y-174727654D01*
X68688887Y-174727252D01*
X68691083Y-174724124D01*
X68693180Y-174714717D01*
X68693409Y-174714146D01*
X68695826Y-174708670D01*
X68736621Y-174663069D01*
X68796428Y-174650156D01*
X68852403Y-174674862D01*
X68876987Y-174715764D01*
X68878162Y-174715214D01*
X68882295Y-174724044D01*
X68884626Y-174733509D01*
X68887759Y-174737769D01*
X68891174Y-174744904D01*
X68891677Y-174746030D01*
X68891815Y-174746242D01*
X68892143Y-174746929D01*
X68892170Y-174747131D01*
X68893269Y-174749591D01*
X68893810Y-174750891D01*
X68893812Y-174750909D01*
X68892728Y-174751360D01*
X68893501Y-174757217D01*
X68895924Y-174756352D01*
X68901192Y-174771114D01*
X68903688Y-174775286D01*
X68904432Y-174776863D01*
X68905260Y-174778405D01*
X68907124Y-174782885D01*
X68913726Y-174792731D01*
X68914913Y-174794501D01*
X68914440Y-174794818D01*
X68917163Y-174802787D01*
X68919358Y-174801479D01*
X68919445Y-174801625D01*
X68920741Y-174803943D01*
X68920810Y-174803907D01*
X68922041Y-174806260D01*
X68922043Y-174806272D01*
X68922114Y-174806399D01*
X68929058Y-174819668D01*
X68932114Y-174823458D01*
X68933468Y-174825524D01*
X68934904Y-174827464D01*
X68937397Y-174831631D01*
X68940654Y-174835230D01*
X68940655Y-174835232D01*
X68946713Y-174841927D01*
X68945373Y-174843140D01*
X68954422Y-174851471D01*
X68962092Y-174862412D01*
X68965613Y-174865779D01*
X68968042Y-174868607D01*
X68970643Y-174871254D01*
X68973691Y-174875035D01*
X68982155Y-174882106D01*
X68992581Y-174892203D01*
X68998651Y-174899014D01*
X69002536Y-174901946D01*
X69002983Y-174902358D01*
X69010207Y-174908501D01*
X69010682Y-174908874D01*
X69014199Y-174912236D01*
X69018662Y-174915076D01*
X69025486Y-174920053D01*
X69027028Y-174921615D01*
X69031054Y-174924343D01*
X69031060Y-174924348D01*
X69040324Y-174930625D01*
X69044427Y-174933561D01*
X69053360Y-174940303D01*
X69053368Y-174940308D01*
X69057244Y-174943233D01*
X69057986Y-174943592D01*
X69058723Y-174944117D01*
X69058759Y-174944063D01*
X69062797Y-174946781D01*
X69066547Y-174949880D01*
X69072855Y-174953280D01*
X69081411Y-174958466D01*
X69087338Y-174962482D01*
X69091815Y-174964371D01*
X69096097Y-174966695D01*
X69096033Y-174966814D01*
X69101000Y-174969472D01*
X69101033Y-174969409D01*
X69105336Y-174971678D01*
X69109394Y-174974358D01*
X69114779Y-174976554D01*
X69115056Y-174976667D01*
X69124630Y-174981183D01*
X69125741Y-174981782D01*
X69125751Y-174981786D01*
X69130028Y-174984091D01*
X69134678Y-174985519D01*
X69136247Y-174986175D01*
X69150488Y-174991951D01*
X69155052Y-174994284D01*
X69159731Y-174995611D01*
X69159742Y-174995615D01*
X69160303Y-174995774D01*
X69170663Y-174999342D01*
X69171196Y-174999559D01*
X69175706Y-175001398D01*
X69180481Y-175002320D01*
X69180483Y-175002321D01*
X69180789Y-175002380D01*
X69181177Y-175002455D01*
X69197325Y-175007024D01*
X69197923Y-175007249D01*
X69202669Y-175009039D01*
X69207856Y-175009899D01*
X69218656Y-175012317D01*
X69223714Y-175013751D01*
X69229366Y-175014203D01*
X69245959Y-175016968D01*
X69246543Y-175017117D01*
X69246545Y-175017117D01*
X69251263Y-175018323D01*
X69256117Y-175018585D01*
X69256120Y-175018585D01*
X69256794Y-175018621D01*
X69267641Y-175019809D01*
X69273098Y-175020713D01*
X69277964Y-175020557D01*
X69280550Y-175020728D01*
X69284763Y-175020867D01*
X69286430Y-175021199D01*
X69301972Y-175021199D01*
X69307299Y-175021342D01*
X69322834Y-175022179D01*
X69325943Y-175021733D01*
X69326912Y-175021735D01*
X69329519Y-175022122D01*
X69345904Y-175021318D01*
X69350757Y-175021199D01*
X69367151Y-175021199D01*
X69367762Y-175021078D01*
X69368595Y-175021055D01*
X69368592Y-175021007D01*
X69373450Y-175020744D01*
X69378309Y-175020958D01*
X69385037Y-175019926D01*
X69395201Y-175018899D01*
X69395616Y-175018879D01*
X69397130Y-175018805D01*
X69397134Y-175018804D01*
X69401992Y-175018566D01*
X69406712Y-175017384D01*
X69411521Y-175016671D01*
X69411532Y-175016743D01*
X69417818Y-175015759D01*
X69417816Y-175015750D01*
X69422619Y-175014960D01*
X69427474Y-175014644D01*
X69433079Y-175013145D01*
X69443618Y-175010935D01*
X69444112Y-175010859D01*
X69444527Y-175010796D01*
X69444530Y-175010795D01*
X69449334Y-175010058D01*
X69453978Y-175008370D01*
X69454171Y-175008300D01*
X69470555Y-175003891D01*
X69471240Y-175003768D01*
X69471243Y-175003767D01*
X69476031Y-175002910D01*
X69480873Y-175001012D01*
X69491441Y-174997541D01*
X69496452Y-174996201D01*
X69501776Y-174993579D01*
X69517183Y-174987535D01*
X69518290Y-174987205D01*
X69518297Y-174987202D01*
X69522955Y-174985811D01*
X69527448Y-174983434D01*
X69537597Y-174978780D01*
X69537793Y-174978703D01*
X69537797Y-174978701D01*
X69542326Y-174976926D01*
X69547284Y-174973749D01*
X69562056Y-174965957D01*
X69567219Y-174963768D01*
X69571745Y-174960689D01*
X69581126Y-174955042D01*
X69581658Y-174954761D01*
X69581666Y-174954756D01*
X69585963Y-174952483D01*
X69589736Y-174949414D01*
X69589742Y-174949410D01*
X69589824Y-174949343D01*
X69600576Y-174942066D01*
X69603819Y-174939822D01*
X69608067Y-174937463D01*
X69612882Y-174933380D01*
X69621212Y-174927042D01*
X69626437Y-174923488D01*
X69629849Y-174920019D01*
X69633580Y-174916905D01*
X69633655Y-174916995D01*
X69637498Y-174913758D01*
X69637375Y-174913614D01*
X69641081Y-174910463D01*
X69645075Y-174907692D01*
X69650270Y-174902312D01*
X69657441Y-174895590D01*
X69663140Y-174890757D01*
X69666166Y-174886946D01*
X69669547Y-174883454D01*
X69669812Y-174883710D01*
X69671333Y-174882146D01*
X69671007Y-174881827D01*
X69674413Y-174878345D01*
X69678134Y-174875222D01*
X69683649Y-174868350D01*
X69683667Y-174868327D01*
X69689663Y-174861518D01*
X69692430Y-174858652D01*
X69695811Y-174855151D01*
X69698445Y-174851056D01*
X69701460Y-174847248D01*
X69701566Y-174847332D01*
X69702390Y-174846229D01*
X69704020Y-174844676D01*
X69706812Y-174840708D01*
X69706818Y-174840701D01*
X69712033Y-174833288D01*
X69715786Y-174828297D01*
X69718011Y-174825524D01*
X69724493Y-174817446D01*
X69726685Y-174813235D01*
X69726703Y-174813220D01*
X69726696Y-174813215D01*
X69732741Y-174803961D01*
X69734638Y-174801163D01*
X69739188Y-174794695D01*
X69741551Y-174791605D01*
X69742451Y-174790273D01*
X69745559Y-174786528D01*
X69750556Y-174777298D01*
X69754718Y-174770311D01*
X69760467Y-174761510D01*
X69761814Y-174758159D01*
X69763669Y-174756314D01*
X69766701Y-174749048D01*
X69767740Y-174747299D01*
X69768513Y-174745746D01*
X69771098Y-174741627D01*
X69772830Y-174737080D01*
X69774319Y-174734090D01*
X69775617Y-174731003D01*
X69777936Y-174726720D01*
X69781988Y-174713612D01*
X69782263Y-174712813D01*
X69782301Y-174712599D01*
X69782928Y-174710571D01*
X69782935Y-174710551D01*
X69783032Y-174710581D01*
X69784056Y-174707610D01*
X69784427Y-174706636D01*
X69785499Y-174707044D01*
X69786059Y-174704362D01*
X69788028Y-174701621D01*
X69789992Y-174693241D01*
X69792820Y-174686464D01*
X69793617Y-174682512D01*
X69795051Y-174678748D01*
X69796719Y-174668891D01*
X69796995Y-174667733D01*
X69797123Y-174666504D01*
X69797813Y-174662423D01*
X69800291Y-174654408D01*
X69799973Y-174650997D01*
X69800006Y-174650836D01*
X69801209Y-174648552D01*
X69801695Y-174643296D01*
X69803989Y-174633506D01*
X69804187Y-174632664D01*
X69804188Y-174632658D01*
X69805296Y-174627929D01*
X69805431Y-174623936D01*
X69806223Y-174620010D01*
X69806243Y-174612603D01*
X69807678Y-174604120D01*
X69806870Y-174600590D01*
X69807580Y-174598170D01*
X69806306Y-174598127D01*
X69806305Y-174598123D01*
X69806457Y-174593633D01*
X69806821Y-174587864D01*
X69807206Y-174583703D01*
X69808179Y-174573185D01*
X69807673Y-174568347D01*
X69807658Y-174565752D01*
X69807489Y-174563132D01*
X69807654Y-174558265D01*
X69806407Y-174550660D01*
X69806424Y-174544322D01*
X69804989Y-174540831D01*
X69804423Y-174535314D01*
X69804375Y-174530254D01*
X69804318Y-174524410D01*
X69802877Y-174517514D01*
X69801320Y-174507557D01*
X69801092Y-174505373D01*
X69801092Y-174505372D01*
X69800587Y-174500540D01*
X69799147Y-174495894D01*
X69798704Y-174493733D01*
X69796670Y-174485389D01*
X69796519Y-174484549D01*
X69796132Y-174479704D01*
X69792674Y-174467500D01*
X69791023Y-174460783D01*
X69788428Y-174448362D01*
X69786521Y-174443881D01*
X69785067Y-174439248D01*
X69785095Y-174439239D01*
X69784633Y-174437964D01*
X69784265Y-174436750D01*
X69779834Y-174422114D01*
X69779350Y-174420464D01*
X69774688Y-174404008D01*
X69773363Y-174399331D01*
X69772425Y-174397495D01*
X69772068Y-174396467D01*
X69768189Y-174383658D01*
X69767745Y-174382146D01*
X69758760Y-174350679D01*
X69758324Y-174349104D01*
X69750197Y-174318753D01*
X69749776Y-174317126D01*
X69749764Y-174317076D01*
X69742542Y-174288147D01*
X69742147Y-174286504D01*
X69735690Y-174258562D01*
X69735305Y-174256825D01*
X69729671Y-174230278D01*
X69729303Y-174228461D01*
X69729285Y-174228369D01*
X69724387Y-174202953D01*
X69724072Y-174201229D01*
X69719843Y-174176781D01*
X69719536Y-174174896D01*
X69716963Y-174158053D01*
X69715996Y-174151716D01*
X69715715Y-174149748D01*
X69712802Y-174127692D01*
X69712554Y-174125650D01*
X69710215Y-174104577D01*
X69710006Y-174102487D01*
X69708226Y-174082611D01*
X69708057Y-174080464D01*
X69707083Y-174066065D01*
X69706775Y-174061516D01*
X69706654Y-174059366D01*
X69706145Y-174048133D01*
X69705840Y-174041424D01*
X69705764Y-174039204D01*
X69705378Y-174022156D01*
X69705353Y-174019907D01*
X69705360Y-174003831D01*
X69705388Y-174001534D01*
X69705747Y-173986349D01*
X69705830Y-173984001D01*
X69706511Y-173969636D01*
X69706651Y-173967280D01*
X69707623Y-173953653D01*
X69707821Y-173951278D01*
X69709046Y-173938461D01*
X69709302Y-173936088D01*
X69710768Y-173923868D01*
X69711081Y-173921498D01*
X69712765Y-173909847D01*
X69713133Y-173907502D01*
X69714980Y-173896580D01*
X69715402Y-173894253D01*
X69717444Y-173883720D01*
X69717903Y-173881489D01*
X69720113Y-173871369D01*
X69720628Y-173869135D01*
X69722979Y-173859451D01*
X69723533Y-173857279D01*
X69726018Y-173847968D01*
X69726602Y-173845871D01*
X69727317Y-173843410D01*
X69729279Y-173836662D01*
X69729849Y-173834779D01*
X69732644Y-173825876D01*
X69733255Y-173823997D01*
X69736213Y-173815209D01*
X69736835Y-173813421D01*
X69739544Y-173805862D01*
X69739946Y-173804741D01*
X69740574Y-173803038D01*
X69743832Y-173794449D01*
X69744450Y-173792861D01*
X69746487Y-173787759D01*
X69747902Y-173784213D01*
X69748483Y-173782788D01*
X69752102Y-173774117D01*
X69752660Y-173772808D01*
X69756570Y-173763806D01*
X69757067Y-173762681D01*
X69761068Y-173753774D01*
X69761511Y-173752801D01*
X69763738Y-173747983D01*
X69765879Y-173743353D01*
X69766204Y-173742659D01*
X69770783Y-173732979D01*
X69771067Y-173732383D01*
X69775986Y-173722161D01*
X69776053Y-173722023D01*
X69778199Y-173717610D01*
X69781163Y-173711539D01*
X69781231Y-173711414D01*
X69781488Y-173711074D01*
X69783047Y-173707852D01*
X69786938Y-173699805D01*
X69787085Y-173699534D01*
X69787557Y-173698900D01*
X69792917Y-173687623D01*
X69793142Y-173687199D01*
X69793819Y-173686271D01*
X69795086Y-173683537D01*
X69795092Y-173683525D01*
X69799067Y-173674945D01*
X69799405Y-173674290D01*
X69800307Y-173673018D01*
X69805362Y-173661711D01*
X69806349Y-173662152D01*
X69807328Y-173659251D01*
X69806962Y-173659095D01*
X69810422Y-173650984D01*
X69810957Y-173649797D01*
X69811009Y-173649609D01*
X69811210Y-173649138D01*
X69811247Y-173649154D01*
X69812069Y-173647331D01*
X69812704Y-173645995D01*
X69813169Y-173646216D01*
X69813668Y-173644518D01*
X69813746Y-173644399D01*
X69816230Y-173638216D01*
X69818271Y-173633496D01*
X69818884Y-173632175D01*
X69818891Y-173632158D01*
X69819652Y-173630516D01*
X69819711Y-173630271D01*
X69820589Y-173628849D01*
X69822290Y-173624285D01*
X69822357Y-173624147D01*
X69822817Y-173623025D01*
X69823290Y-173621608D01*
X69825275Y-173617167D01*
X69825628Y-173615619D01*
X69825865Y-173615013D01*
X69827437Y-173612288D01*
X69829409Y-173606471D01*
X69830862Y-173603064D01*
X69831347Y-173600753D01*
X69831470Y-173600391D01*
X69831835Y-173599371D01*
X69832361Y-173598060D01*
X69832376Y-173598031D01*
X69832402Y-173598042D01*
X69832427Y-173597937D01*
X69834143Y-173594711D01*
X69835451Y-173590369D01*
X69836360Y-173588106D01*
X69836397Y-173588121D01*
X69836708Y-173587234D01*
X69836727Y-173587189D01*
X69837126Y-173584811D01*
X69837508Y-173583541D01*
X69837674Y-173583044D01*
X69837659Y-173583039D01*
X69837816Y-173582618D01*
X69837819Y-173582609D01*
X69839242Y-173578790D01*
X69840615Y-173575946D01*
X69841331Y-173573183D01*
X69841689Y-173572222D01*
X69841870Y-173571102D01*
X69842493Y-173568699D01*
X69843521Y-173565256D01*
X69843396Y-173565214D01*
X69843404Y-173565183D01*
X69843757Y-173564140D01*
X69843919Y-173563924D01*
X69844571Y-173561741D01*
X69844853Y-173560908D01*
X69845970Y-173557613D01*
X69846659Y-173556011D01*
X69847882Y-173550270D01*
X69849915Y-173542350D01*
X69850048Y-173541909D01*
X69851452Y-173537249D01*
X69851538Y-173536357D01*
X69852093Y-173534875D01*
X69852877Y-173530075D01*
X69853003Y-173529601D01*
X69854266Y-173523612D01*
X69854405Y-173522725D01*
X69855624Y-173518021D01*
X69855765Y-173515560D01*
X69856715Y-173512553D01*
X69857247Y-173507717D01*
X69857692Y-173505609D01*
X69857801Y-173504934D01*
X69858087Y-173502382D01*
X69859100Y-173497630D01*
X69859154Y-173493647D01*
X69860299Y-173489165D01*
X69860560Y-173484311D01*
X69860793Y-173482792D01*
X69860916Y-173480870D01*
X69861699Y-173476074D01*
X69861545Y-173471587D01*
X69861576Y-173471189D01*
X69861723Y-173469610D01*
X69862645Y-173464840D01*
X69862619Y-173459977D01*
X69862685Y-173459271D01*
X69862697Y-173458225D01*
X69863228Y-173453402D01*
X69862820Y-173448703D01*
X69862832Y-173448129D01*
X69862942Y-173444620D01*
X69863570Y-173439797D01*
X69863245Y-173434939D01*
X69863250Y-173434784D01*
X69863237Y-173434550D01*
X69863494Y-173429772D01*
X69862805Y-173424974D01*
X69862762Y-173423839D01*
X69862617Y-173419195D01*
X69862941Y-173414348D01*
X69862352Y-173409822D01*
X69862354Y-173409822D01*
X69862351Y-173409675D01*
X69862346Y-173408675D01*
X69862346Y-173408674D01*
X69862328Y-173405340D01*
X69861353Y-173400571D01*
X69861187Y-173398976D01*
X69861099Y-173398089D01*
X69860670Y-173393562D01*
X69860687Y-173388692D01*
X69859876Y-173384535D01*
X69859596Y-173380353D01*
X69858333Y-173375664D01*
X69857594Y-173371228D01*
X69857471Y-173370475D01*
X69857094Y-173368099D01*
X69856807Y-173363235D01*
X69855771Y-173359268D01*
X69855234Y-173355139D01*
X69853676Y-173350525D01*
X69852578Y-173345784D01*
X69852612Y-173345776D01*
X69852335Y-173344774D01*
X69851936Y-173342977D01*
X69851354Y-173338158D01*
X69850039Y-173334144D01*
X69849210Y-173329896D01*
X69847364Y-173325394D01*
X69845969Y-173320734D01*
X69846302Y-173320634D01*
X69845448Y-173317820D01*
X69845279Y-173317872D01*
X69843846Y-173313222D01*
X69842876Y-173308450D01*
X69841897Y-173306115D01*
X69841612Y-173305022D01*
X69840340Y-173302400D01*
X69838669Y-173298413D01*
X69835907Y-173290999D01*
X69834040Y-173285300D01*
X69832526Y-173280678D01*
X69830169Y-173276491D01*
X69828186Y-173271270D01*
X69827235Y-173269078D01*
X69825744Y-173264445D01*
X69823071Y-173259639D01*
X69818296Y-173249810D01*
X69818054Y-173249233D01*
X69818053Y-173249232D01*
X69816170Y-173244739D01*
X69813448Y-173240702D01*
X69813221Y-173240282D01*
X69805703Y-173226933D01*
X69805256Y-173225965D01*
X69803219Y-173221551D01*
X69800355Y-173217613D01*
X69799344Y-173215890D01*
X69796389Y-173211261D01*
X69795247Y-173209612D01*
X69792883Y-173205362D01*
X69788009Y-173199621D01*
X69779657Y-173188225D01*
X69777796Y-173185264D01*
X69775207Y-173181144D01*
X69771863Y-173177608D01*
X69769520Y-173174584D01*
X69766996Y-173171746D01*
X69764135Y-173167812D01*
X69760564Y-173164515D01*
X69760561Y-173164511D01*
X69757415Y-173161606D01*
X69748368Y-173152062D01*
X69747109Y-173150543D01*
X69742353Y-173144807D01*
X69743339Y-173143989D01*
X69717891Y-173094644D01*
X69727166Y-173034166D01*
X69736395Y-173019460D01*
X69742720Y-173013775D01*
X69757094Y-172985506D01*
X69763207Y-172975107D01*
X69775809Y-172956384D01*
X69775809Y-172956383D01*
X69780912Y-172948802D01*
X69782942Y-172939895D01*
X69784979Y-172935188D01*
X69789595Y-172922433D01*
X69790476Y-172919856D01*
X69793642Y-172913630D01*
X69794831Y-172907400D01*
X69795333Y-172901890D01*
X69797211Y-172881258D01*
X69799277Y-172868240D01*
X69805883Y-172839265D01*
X69805405Y-172835973D01*
X69807140Y-172824403D01*
X69812729Y-172803192D01*
X69814109Y-172798439D01*
X69817953Y-172786341D01*
X69819335Y-172781992D01*
X69819898Y-172777461D01*
X69820872Y-172773012D01*
X69821010Y-172773042D01*
X69821939Y-172768231D01*
X69827069Y-172748760D01*
X69827069Y-172748758D01*
X69829398Y-172739919D01*
X69828389Y-172730837D01*
X69828401Y-172730672D01*
X69828546Y-172708039D01*
X69828537Y-172707886D01*
X69829663Y-172698816D01*
X69822568Y-172670404D01*
X69820224Y-172657354D01*
X69818001Y-172637343D01*
X69816992Y-172628260D01*
X69813140Y-172620840D01*
X69815242Y-172557536D01*
X69817633Y-172551204D01*
X69818734Y-172548419D01*
X69824948Y-172533364D01*
X69826133Y-172530613D01*
X69833347Y-172514533D01*
X69834600Y-172511847D01*
X69834905Y-172511219D01*
X69842852Y-172494837D01*
X69844145Y-172492269D01*
X69844568Y-172491460D01*
X69853593Y-172474172D01*
X69854954Y-172471654D01*
X69865707Y-172452433D01*
X69867120Y-172449991D01*
X69869342Y-172446272D01*
X69869584Y-172445904D01*
X69870308Y-172445088D01*
X69882161Y-172424813D01*
X69882571Y-172424120D01*
X69893118Y-172406460D01*
X69893123Y-172406450D01*
X69894602Y-172403974D01*
X69894967Y-172402948D01*
X69895180Y-172402544D01*
X69953235Y-172303239D01*
X70002908Y-172218271D01*
X70029901Y-172194231D01*
X70037654Y-172183946D01*
X70046010Y-172179885D01*
X70048600Y-172177578D01*
X70057682Y-172174212D01*
X70058325Y-172173900D01*
X70065889Y-172171590D01*
X70069062Y-172171279D01*
X70071939Y-172169743D01*
X70076327Y-172168403D01*
X70079028Y-172166178D01*
X70095756Y-172157130D01*
X70095840Y-172157085D01*
X70113811Y-172147387D01*
X70114198Y-172147179D01*
X70121804Y-172143118D01*
X70121805Y-172143117D01*
X70127840Y-172139895D01*
X70131538Y-172138796D01*
X70134698Y-172136233D01*
X70135829Y-172135629D01*
X70136268Y-172135269D01*
X70136761Y-172135003D01*
X70136952Y-172134845D01*
X70140326Y-172133020D01*
X70142720Y-172130073D01*
X70155370Y-172119608D01*
X70155681Y-172119352D01*
X70171383Y-172106477D01*
X70171647Y-172106262D01*
X70183601Y-172096566D01*
X70187075Y-172094750D01*
X70189678Y-172091636D01*
X70190320Y-172091116D01*
X70190754Y-172090593D01*
X70191281Y-172090161D01*
X70191952Y-172089344D01*
X70195079Y-172086757D01*
X70196896Y-172083325D01*
X70206832Y-172071229D01*
X70219764Y-172055655D01*
X70230920Y-172042313D01*
X70233927Y-172039886D01*
X70235973Y-172036133D01*
X70236120Y-172035956D01*
X70236729Y-172034832D01*
X70239323Y-172031674D01*
X70240449Y-172027967D01*
X70244367Y-172020738D01*
X70258158Y-171995442D01*
X70258165Y-171995446D01*
X70258198Y-171995369D01*
X70267573Y-171978209D01*
X70269787Y-171975528D01*
X70270986Y-171971614D01*
X70272181Y-171969410D01*
X70272449Y-171966844D01*
X70283422Y-171931039D01*
X70283553Y-171930617D01*
X70291165Y-171906327D01*
X70292109Y-171904549D01*
X70292279Y-171902772D01*
X70292705Y-171901413D01*
X70292562Y-171899813D01*
X70295699Y-171867035D01*
X70295798Y-171866058D01*
X70295836Y-171865704D01*
X70299489Y-171831518D01*
X70299713Y-171830760D01*
X70299642Y-171830089D01*
X70299731Y-171829255D01*
X70299453Y-171828312D01*
X70297943Y-171814069D01*
X70295873Y-171794556D01*
X70295770Y-171793534D01*
X70293616Y-171770994D01*
X70293616Y-171770993D01*
X70292607Y-171760437D01*
X70292755Y-171758808D01*
X70292316Y-171757398D01*
X70292116Y-171755305D01*
X70291040Y-171753278D01*
X70284513Y-171732326D01*
X70284433Y-171732066D01*
X70275208Y-171701957D01*
X70275205Y-171701951D01*
X70272670Y-171693677D01*
X70272393Y-171690945D01*
X70271093Y-171688531D01*
X70269798Y-171684303D01*
X70267569Y-171681603D01*
X70262908Y-171673037D01*
X70258516Y-171664965D01*
X70258512Y-171664958D01*
X70248230Y-171646058D01*
X70248020Y-171645670D01*
X70246251Y-171642383D01*
X70240825Y-171632303D01*
X70239737Y-171628677D01*
X70237197Y-171625563D01*
X70236517Y-171624300D01*
X70236158Y-171623865D01*
X70235888Y-171623369D01*
X70235864Y-171623341D01*
X70234059Y-171620023D01*
X70231126Y-171617652D01*
X70220281Y-171604633D01*
X70220020Y-171604318D01*
X70207411Y-171589046D01*
X70207037Y-171588591D01*
X70201810Y-171582182D01*
X70201809Y-171582181D01*
X70197413Y-171576792D01*
X70195634Y-171573405D01*
X70192562Y-171570846D01*
X70191894Y-171570027D01*
X70191308Y-171569543D01*
X70190824Y-171568957D01*
X70190004Y-171568288D01*
X70187444Y-171565215D01*
X70184056Y-171563436D01*
X70172026Y-171553622D01*
X70171663Y-171553323D01*
X70156500Y-171540804D01*
X70156163Y-171540525D01*
X70148850Y-171534432D01*
X70148847Y-171534430D01*
X70143199Y-171529725D01*
X70140826Y-171526789D01*
X70137505Y-171524982D01*
X70137480Y-171524961D01*
X70136983Y-171524691D01*
X70136550Y-171524333D01*
X70135289Y-171523654D01*
X70132175Y-171521114D01*
X70128549Y-171520026D01*
X70118926Y-171514846D01*
X70115187Y-171512833D01*
X70114805Y-171512626D01*
X70100643Y-171504922D01*
X70100631Y-171504916D01*
X70086300Y-171497117D01*
X70086298Y-171497116D01*
X70079243Y-171493277D01*
X70076546Y-171491051D01*
X70072320Y-171489756D01*
X70069905Y-171488456D01*
X70067171Y-171488179D01*
X70028818Y-171476427D01*
X70028378Y-171476291D01*
X70025049Y-171475254D01*
X70007573Y-171469810D01*
X70005544Y-171468733D01*
X70003451Y-171468533D01*
X70002041Y-171468094D01*
X70000412Y-171468242D01*
X69976283Y-171465936D01*
X69967281Y-171465075D01*
X69966263Y-171464972D01*
X69944146Y-171462627D01*
X69932538Y-171461396D01*
X69931594Y-171461118D01*
X69930760Y-171461207D01*
X69930089Y-171461136D01*
X69929331Y-171461360D01*
X69894788Y-171465051D01*
X69893732Y-171465158D01*
X69890362Y-171465480D01*
X69871730Y-171467263D01*
X69871727Y-171467264D01*
X69861036Y-171468287D01*
X69859436Y-171468144D01*
X69858076Y-171468570D01*
X69856301Y-171468740D01*
X69854525Y-171469683D01*
X69830326Y-171477267D01*
X69829853Y-171477414D01*
X69802623Y-171485759D01*
X69802621Y-171485760D01*
X69794000Y-171488402D01*
X69791431Y-171488670D01*
X69789225Y-171489865D01*
X69785321Y-171491062D01*
X69782640Y-171493276D01*
X69776045Y-171496879D01*
X69765136Y-171502838D01*
X69765064Y-171502878D01*
X69739989Y-171516549D01*
X69732889Y-171520397D01*
X69729182Y-171521523D01*
X69726023Y-171524118D01*
X69724886Y-171524734D01*
X69724714Y-171524877D01*
X69720963Y-171526922D01*
X69718536Y-171529929D01*
X69715756Y-171532254D01*
X69715755Y-171532254D01*
X69705234Y-171541051D01*
X69704975Y-171541267D01*
X69689834Y-171553840D01*
X69689429Y-171554174D01*
X69682838Y-171559588D01*
X69682836Y-171559591D01*
X69677525Y-171563953D01*
X69674092Y-171565770D01*
X69671506Y-171568896D01*
X69670694Y-171569563D01*
X69670257Y-171570096D01*
X69669727Y-171570536D01*
X69669212Y-171571171D01*
X69666099Y-171573774D01*
X69664283Y-171577248D01*
X69654364Y-171589478D01*
X69654158Y-171589729D01*
X69641632Y-171605005D01*
X69641374Y-171605319D01*
X69630776Y-171618129D01*
X69627829Y-171620523D01*
X69626004Y-171623897D01*
X69625846Y-171624088D01*
X69625580Y-171624581D01*
X69625225Y-171625014D01*
X69624617Y-171626153D01*
X69622048Y-171629320D01*
X69620948Y-171633024D01*
X69619506Y-171635724D01*
X69613825Y-171646362D01*
X69613624Y-171646736D01*
X69603794Y-171664954D01*
X69603787Y-171664950D01*
X69603748Y-171665040D01*
X69594671Y-171681821D01*
X69592446Y-171684522D01*
X69591108Y-171688905D01*
X69589573Y-171691779D01*
X69589262Y-171694950D01*
X69588165Y-171698542D01*
X69588164Y-171698544D01*
X69582861Y-171715913D01*
X69577758Y-171732627D01*
X69570503Y-171756121D01*
X69570477Y-171756372D01*
X69569458Y-171759684D01*
X69569513Y-171760262D01*
X69567985Y-171763379D01*
X69567371Y-171773114D01*
X69567371Y-171773115D01*
X69566646Y-171784620D01*
X69544115Y-171841506D01*
X69531652Y-171854084D01*
X69515538Y-171867668D01*
X69514961Y-171868150D01*
X69505485Y-171875986D01*
X69496561Y-171883365D01*
X69495850Y-171883947D01*
X69477027Y-171899192D01*
X69476421Y-171899676D01*
X69465506Y-171908320D01*
X69457616Y-171914568D01*
X69456701Y-171915284D01*
X69437805Y-171929888D01*
X69436850Y-171930617D01*
X69417923Y-171944866D01*
X69416835Y-171945673D01*
X69398055Y-171959413D01*
X69396864Y-171960271D01*
X69378256Y-171973466D01*
X69376955Y-171974373D01*
X69358551Y-171986985D01*
X69357116Y-171987950D01*
X69339149Y-171999807D01*
X69337593Y-172000814D01*
X69329653Y-172005839D01*
X69270373Y-172020985D01*
X69213511Y-171998395D01*
X69183508Y-171955584D01*
X69180365Y-171946813D01*
X69179789Y-171945157D01*
X69173584Y-171926777D01*
X69173111Y-171925333D01*
X69167134Y-171906544D01*
X69166651Y-171904978D01*
X69160913Y-171885818D01*
X69160498Y-171884393D01*
X69154977Y-171864819D01*
X69154594Y-171863418D01*
X69149297Y-171843469D01*
X69148936Y-171842070D01*
X69143902Y-171821931D01*
X69143577Y-171820591D01*
X69138704Y-171799874D01*
X69138414Y-171798601D01*
X69133820Y-171777846D01*
X69133559Y-171776634D01*
X69129148Y-171755452D01*
X69128916Y-171754304D01*
X69124691Y-171732740D01*
X69124484Y-171731648D01*
X69120491Y-171709981D01*
X69120306Y-171708947D01*
X69117330Y-171691779D01*
X69116492Y-171686942D01*
X69116339Y-171686033D01*
X69112723Y-171663867D01*
X69112598Y-171663080D01*
X69109141Y-171640566D01*
X69109022Y-171639768D01*
X69108469Y-171635941D01*
X69105740Y-171617067D01*
X69105655Y-171616463D01*
X69105442Y-171614896D01*
X69102531Y-171593530D01*
X69102480Y-171593150D01*
X69099509Y-171570031D01*
X69099452Y-171569570D01*
X69097759Y-171555618D01*
X69109519Y-171495573D01*
X69115331Y-171486527D01*
X69117795Y-171483790D01*
X69122779Y-171475410D01*
X69124792Y-171473003D01*
X69125439Y-171470938D01*
X69126610Y-171468970D01*
X69128935Y-171465251D01*
X69133386Y-171458470D01*
X69134851Y-171456338D01*
X69134968Y-171456114D01*
X69140136Y-171448926D01*
X69140329Y-171448757D01*
X69140490Y-171448433D01*
X69146014Y-171440747D01*
X69147920Y-171436558D01*
X69148310Y-171435925D01*
X69148396Y-171435770D01*
X69148721Y-171435106D01*
X69151247Y-171431256D01*
X69155940Y-171419656D01*
X69156486Y-171418739D01*
X69156583Y-171418067D01*
X69157845Y-171414950D01*
X69159495Y-171411108D01*
X69164044Y-171401106D01*
X69165484Y-171398077D01*
X69171816Y-171385320D01*
X69171819Y-171385311D01*
X69173979Y-171380960D01*
X69175115Y-171376765D01*
X69176912Y-171372813D01*
X69181281Y-171354197D01*
X69182086Y-171351011D01*
X69186168Y-171335931D01*
X69186743Y-171333893D01*
X69192732Y-171313569D01*
X69192988Y-171310734D01*
X69193732Y-171307987D01*
X69195168Y-171286898D01*
X69195341Y-171284719D01*
X69196977Y-171266638D01*
X69197235Y-171264137D01*
X69198247Y-171255429D01*
X69198553Y-171254582D01*
X69198494Y-171253299D01*
X69199606Y-171243730D01*
X69199342Y-171240468D01*
X69199637Y-171237209D01*
X69197456Y-171216737D01*
X69197222Y-171214240D01*
X69196609Y-171206656D01*
X69196173Y-171201268D01*
X69196077Y-171199745D01*
X69196034Y-171199513D01*
X69195708Y-171192398D01*
X69195957Y-171191090D01*
X69195561Y-171189183D01*
X69195094Y-171178973D01*
X69194018Y-171174617D01*
X69193657Y-171170147D01*
X69191792Y-171163587D01*
X69191617Y-171161947D01*
X69191007Y-171160828D01*
X69188478Y-171151932D01*
X69187608Y-171148652D01*
X69185140Y-171138655D01*
X69185044Y-171138234D01*
X69185015Y-171138152D01*
X69184700Y-171136877D01*
X69183569Y-171131432D01*
X69183618Y-171129901D01*
X69182803Y-171127743D01*
X69180569Y-171116982D01*
X69178833Y-171112888D01*
X69178616Y-171112237D01*
X69177551Y-171107923D01*
X69173520Y-171099326D01*
X69172957Y-171097345D01*
X69172061Y-171096213D01*
X69169691Y-171091160D01*
X69168221Y-171087866D01*
X69163941Y-171077771D01*
X69162407Y-171073707D01*
X69162211Y-171072114D01*
X69160993Y-171069961D01*
X69156889Y-171059089D01*
X69154571Y-171055370D01*
X69154504Y-171055223D01*
X69153951Y-171054159D01*
X69153866Y-171054013D01*
X69152155Y-171049979D01*
X69146459Y-171041607D01*
X69145421Y-171039393D01*
X69144186Y-171038266D01*
X69142034Y-171035102D01*
X69139880Y-171031796D01*
X69135732Y-171025141D01*
X69135016Y-171023934D01*
X69134871Y-171023759D01*
X69134629Y-171023370D01*
X69132814Y-171020162D01*
X69132369Y-171018587D01*
X69130791Y-171016586D01*
X69124936Y-171006240D01*
X69121935Y-171002758D01*
X69121538Y-171002159D01*
X69121406Y-171001979D01*
X69120947Y-171001416D01*
X69118517Y-170997516D01*
X69111040Y-170989548D01*
X69109579Y-170987401D01*
X69108137Y-170986455D01*
X69107445Y-170985717D01*
X69107444Y-170985716D01*
X69106493Y-170984703D01*
X69103699Y-170981597D01*
X69098992Y-170976135D01*
X69098168Y-170975135D01*
X69098011Y-170974997D01*
X69097602Y-170974522D01*
X69095334Y-170971647D01*
X69094647Y-170970145D01*
X69092773Y-170968401D01*
X69085487Y-170959167D01*
X69081914Y-170956118D01*
X69081334Y-170955481D01*
X69080701Y-170954909D01*
X69077638Y-170951356D01*
X69068503Y-170944220D01*
X69066724Y-170942324D01*
X69065187Y-170941629D01*
X69063905Y-170940627D01*
X69062231Y-170939260D01*
X69062201Y-170939295D01*
X69061804Y-170938955D01*
X69061749Y-170938867D01*
X69060595Y-170937924D01*
X69055727Y-170933769D01*
X69055722Y-170933765D01*
X69053591Y-170931947D01*
X69050452Y-170929027D01*
X69049540Y-170927647D01*
X69047455Y-170926239D01*
X69039233Y-170918589D01*
X69035275Y-170916146D01*
X69034613Y-170915612D01*
X69033906Y-170915148D01*
X69030369Y-170912130D01*
X69019996Y-170906326D01*
X69017992Y-170904761D01*
X69016418Y-170904325D01*
X69015119Y-170903598D01*
X69013257Y-170902504D01*
X69013234Y-170902542D01*
X69013173Y-170902504D01*
X69012703Y-170902214D01*
X69012642Y-170902142D01*
X69011486Y-170901463D01*
X69004948Y-170897427D01*
X69004746Y-170897297D01*
X69004702Y-170897275D01*
X69003248Y-170896378D01*
X68998740Y-170893333D01*
X68997671Y-170892166D01*
X68995545Y-170891175D01*
X68986820Y-170885281D01*
X68982698Y-170883550D01*
X68982343Y-170883344D01*
X68981655Y-170882990D01*
X68981287Y-170882823D01*
X68977477Y-170880471D01*
X68966422Y-170876352D01*
X68964316Y-170875174D01*
X68962770Y-170874992D01*
X68962007Y-170874708D01*
X68962006Y-170874707D01*
X68961589Y-170874552D01*
X68960753Y-170874240D01*
X68957027Y-170872764D01*
X68949099Y-170869433D01*
X68947870Y-170868889D01*
X68947623Y-170868813D01*
X68947332Y-170868691D01*
X68941016Y-170865746D01*
X68939953Y-170864905D01*
X68938066Y-170864370D01*
X68929075Y-170860177D01*
X68924833Y-170859139D01*
X68923724Y-170858772D01*
X68919693Y-170857079D01*
X68908630Y-170854821D01*
X68906551Y-170854046D01*
X68905093Y-170854099D01*
X68903989Y-170853874D01*
X68903988Y-170853873D01*
X68902438Y-170853557D01*
X68901790Y-170853424D01*
X68898071Y-170852589D01*
X68894651Y-170851752D01*
X68888562Y-170850262D01*
X68886592Y-170849742D01*
X68886387Y-170849714D01*
X68878735Y-170847543D01*
X68878012Y-170847140D01*
X68876822Y-170847001D01*
X68867136Y-170844254D01*
X68862641Y-170843894D01*
X68862344Y-170843846D01*
X68857961Y-170842773D01*
X68847342Y-170842309D01*
X68845534Y-170841940D01*
X68844312Y-170842177D01*
X68839674Y-170841974D01*
X68839309Y-170841958D01*
X68835732Y-170841736D01*
X68824953Y-170840872D01*
X68822843Y-170840664D01*
X68822642Y-170840669D01*
X68814807Y-170839753D01*
X68814029Y-170839470D01*
X68812832Y-170839522D01*
X68802835Y-170838354D01*
X68798348Y-170838714D01*
X68798024Y-170838714D01*
X68793536Y-170838354D01*
X68783541Y-170839522D01*
X68782345Y-170839470D01*
X68781568Y-170839753D01*
X68774997Y-170840521D01*
X68771445Y-170840871D01*
X68767070Y-170841221D01*
X68760650Y-170841736D01*
X68759448Y-170841811D01*
X68759240Y-170841849D01*
X68758843Y-170841881D01*
X68752062Y-170842177D01*
X68750839Y-170841940D01*
X68749030Y-170842309D01*
X68738413Y-170842773D01*
X68734045Y-170843842D01*
X68733719Y-170843894D01*
X68729236Y-170844254D01*
X68719545Y-170847003D01*
X68718360Y-170847141D01*
X68717641Y-170847543D01*
X68711266Y-170849350D01*
X68707838Y-170850256D01*
X68698288Y-170852593D01*
X68698156Y-170852623D01*
X68698133Y-170852631D01*
X68696438Y-170853046D01*
X68691276Y-170854099D01*
X68689822Y-170854047D01*
X68687749Y-170854819D01*
X68676680Y-170857079D01*
X68672642Y-170858776D01*
X68671540Y-170859139D01*
X68667298Y-170860177D01*
X68658307Y-170864370D01*
X68656420Y-170864905D01*
X68655357Y-170865746D01*
X68650757Y-170867891D01*
X68647288Y-170869428D01*
X68637478Y-170873549D01*
X68633607Y-170874991D01*
X68632057Y-170875174D01*
X68629946Y-170876355D01*
X68618896Y-170880472D01*
X68615085Y-170882823D01*
X68614712Y-170882993D01*
X68614034Y-170883342D01*
X68613681Y-170883546D01*
X68609553Y-170885281D01*
X68600828Y-170891175D01*
X68598702Y-170892166D01*
X68597633Y-170893333D01*
X68596545Y-170894068D01*
X68594778Y-170895261D01*
X68591376Y-170897459D01*
X68584902Y-170901454D01*
X68583801Y-170902101D01*
X68583651Y-170902226D01*
X68583128Y-170902549D01*
X68579955Y-170904325D01*
X68578381Y-170904761D01*
X68576377Y-170906326D01*
X68566004Y-170912130D01*
X68562467Y-170915149D01*
X68561764Y-170915610D01*
X68561100Y-170916146D01*
X68557140Y-170918590D01*
X68548921Y-170926237D01*
X68546833Y-170927647D01*
X68545920Y-170929029D01*
X68545190Y-170929708D01*
X68544352Y-170930487D01*
X68541180Y-170933314D01*
X68535764Y-170937935D01*
X68534659Y-170938837D01*
X68534504Y-170939011D01*
X68534148Y-170939315D01*
X68531186Y-170941629D01*
X68529649Y-170942324D01*
X68527870Y-170944220D01*
X68518735Y-170951356D01*
X68515673Y-170954908D01*
X68515034Y-170955485D01*
X68514452Y-170956123D01*
X68510886Y-170959167D01*
X68503603Y-170968398D01*
X68501725Y-170970145D01*
X68501037Y-170971650D01*
X68500958Y-170971750D01*
X68500957Y-170971751D01*
X68500097Y-170972841D01*
X68498772Y-170974449D01*
X68498806Y-170974478D01*
X68498771Y-170974522D01*
X68498397Y-170974956D01*
X68498310Y-170975009D01*
X68497387Y-170976128D01*
X68491316Y-170983173D01*
X68488236Y-170986455D01*
X68486794Y-170987401D01*
X68485333Y-170989548D01*
X68477856Y-170997516D01*
X68475426Y-171001416D01*
X68474967Y-171001979D01*
X68474835Y-171002159D01*
X68474438Y-171002758D01*
X68471437Y-171006240D01*
X68465582Y-171016586D01*
X68464004Y-171018587D01*
X68463559Y-171020162D01*
X68462774Y-171021550D01*
X68461735Y-171023298D01*
X68461772Y-171023321D01*
X68461744Y-171023370D01*
X68461542Y-171023695D01*
X68461502Y-171023759D01*
X68461421Y-171023827D01*
X68460641Y-171025140D01*
X68456493Y-171031796D01*
X68456123Y-171032364D01*
X68456062Y-171032487D01*
X68455444Y-171033479D01*
X68452187Y-171038266D01*
X68450952Y-171039393D01*
X68449914Y-171041607D01*
X68444218Y-171049979D01*
X68442507Y-171054013D01*
X68442422Y-171054159D01*
X68441869Y-171055223D01*
X68441802Y-171055370D01*
X68439484Y-171059089D01*
X68435380Y-171069961D01*
X68434162Y-171072114D01*
X68433966Y-171073707D01*
X68433134Y-171075912D01*
X68431673Y-171079562D01*
X68428152Y-171087866D01*
X68427470Y-171089394D01*
X68427394Y-171089642D01*
X68424312Y-171096213D01*
X68423416Y-171097345D01*
X68422853Y-171099326D01*
X68418822Y-171107923D01*
X68417757Y-171112237D01*
X68417540Y-171112888D01*
X68415804Y-171116982D01*
X68413570Y-171127743D01*
X68412755Y-171129901D01*
X68412804Y-171131432D01*
X68412566Y-171132579D01*
X68412049Y-171135066D01*
X68411232Y-171138661D01*
X68408768Y-171148639D01*
X68408021Y-171151453D01*
X68408012Y-171151521D01*
X68405805Y-171159284D01*
X68405323Y-171160153D01*
X68405166Y-171161530D01*
X68402716Y-171170147D01*
X68402355Y-171174617D01*
X68401279Y-171178973D01*
X68400812Y-171189183D01*
X68400416Y-171191090D01*
X68400665Y-171192398D01*
X68400413Y-171197895D01*
X68400199Y-171201278D01*
X68400134Y-171202080D01*
X68399255Y-171212954D01*
X68398941Y-171216172D01*
X68398877Y-171216737D01*
X68397919Y-171225156D01*
X68397593Y-171226079D01*
X68397664Y-171227397D01*
X68396757Y-171235355D01*
X68397105Y-171239545D01*
X68396767Y-171243730D01*
X68397879Y-171253299D01*
X68397820Y-171254582D01*
X68398126Y-171255429D01*
X68398376Y-171257577D01*
X68398375Y-171257580D01*
X68398991Y-171262883D01*
X68399311Y-171266096D01*
X68400378Y-171278924D01*
X68400576Y-171281829D01*
X68400991Y-171289564D01*
X68400724Y-171291077D01*
X68401182Y-171293144D01*
X68401638Y-171301659D01*
X68402573Y-171305323D01*
X68402886Y-171309089D01*
X68405365Y-171317733D01*
X68405502Y-171318913D01*
X68405917Y-171319657D01*
X68407714Y-171325925D01*
X68408359Y-171328173D01*
X68409120Y-171330983D01*
X68412170Y-171342936D01*
X68412638Y-171344898D01*
X68412681Y-171345013D01*
X68414143Y-171351605D01*
X68414119Y-171353370D01*
X68415054Y-171355715D01*
X68417106Y-171364972D01*
X68418741Y-171368689D01*
X68419746Y-171372626D01*
X68423145Y-171379732D01*
X68423751Y-171381845D01*
X68424767Y-171383122D01*
X68428167Y-171390231D01*
X68429440Y-171393005D01*
X68433828Y-171402976D01*
X68434144Y-171403731D01*
X68434215Y-171403856D01*
X68434524Y-171404558D01*
X68436639Y-171409862D01*
X68436893Y-171411616D01*
X68438240Y-171413880D01*
X68442146Y-171423678D01*
X68444603Y-171427463D01*
X68446422Y-171431598D01*
X68451260Y-171438508D01*
X68452407Y-171440905D01*
X68453841Y-171442193D01*
X68454855Y-171443641D01*
X68454856Y-171443644D01*
X68457240Y-171447048D01*
X68459190Y-171449940D01*
X68464144Y-171457574D01*
X68464148Y-171457579D01*
X68465311Y-171459371D01*
X68467641Y-171463286D01*
X68468135Y-171464890D01*
X68469773Y-171466869D01*
X68475599Y-171476659D01*
X68478509Y-171479891D01*
X68479279Y-171480894D01*
X68481652Y-171484549D01*
X68483571Y-171486520D01*
X68504876Y-171543163D01*
X68504343Y-171558878D01*
X68502199Y-171577699D01*
X68501885Y-171580457D01*
X68501829Y-171580937D01*
X68499264Y-171602386D01*
X68498598Y-171607960D01*
X68498524Y-171608560D01*
X68495162Y-171635295D01*
X68495079Y-171635941D01*
X68491559Y-171662519D01*
X68491462Y-171663232D01*
X68491133Y-171665586D01*
X68488208Y-171686505D01*
X68487794Y-171689462D01*
X68487706Y-171690077D01*
X68483885Y-171715913D01*
X68483858Y-171716098D01*
X68483731Y-171716928D01*
X68479986Y-171740838D01*
X68479767Y-171742233D01*
X68479621Y-171743136D01*
X68475479Y-171768067D01*
X68475310Y-171769053D01*
X68471017Y-171793371D01*
X68470831Y-171794394D01*
X68466381Y-171818098D01*
X68466190Y-171819085D01*
X68461663Y-171841731D01*
X68461573Y-171842179D01*
X68461315Y-171843424D01*
X68456562Y-171865704D01*
X68456279Y-171866987D01*
X68451420Y-171888321D01*
X68451099Y-171889682D01*
X68446089Y-171910236D01*
X68445697Y-171911791D01*
X68440590Y-171931357D01*
X68440176Y-171932887D01*
X68435009Y-171951334D01*
X68434494Y-171953103D01*
X68431737Y-171962262D01*
X68396860Y-172012533D01*
X68339094Y-172032703D01*
X68284371Y-172017616D01*
X68281240Y-172015654D01*
X68269205Y-172008112D01*
X68267506Y-172007023D01*
X68266360Y-172006271D01*
X68254349Y-171998395D01*
X68250232Y-171995695D01*
X68248687Y-171994661D01*
X68230884Y-171982502D01*
X68229484Y-171981528D01*
X68211275Y-171968626D01*
X68210075Y-171967762D01*
X68191590Y-171954217D01*
X68190527Y-171953426D01*
X68171855Y-171939319D01*
X68170787Y-171938501D01*
X68152089Y-171923971D01*
X68151115Y-171923204D01*
X68132449Y-171908320D01*
X68131659Y-171907683D01*
X68112919Y-171892379D01*
X68112219Y-171891800D01*
X68093602Y-171876254D01*
X68092918Y-171875677D01*
X68074596Y-171860060D01*
X68074085Y-171859620D01*
X68068872Y-171855090D01*
X68056061Y-171843959D01*
X68055400Y-171843379D01*
X68053537Y-171841731D01*
X68022479Y-171789015D01*
X68020478Y-171775862D01*
X68019046Y-171758808D01*
X68017649Y-171742161D01*
X68016541Y-171740015D01*
X68014148Y-171732263D01*
X68009257Y-171716424D01*
X68009166Y-171716126D01*
X68000120Y-171686496D01*
X68000118Y-171686493D01*
X67997810Y-171678932D01*
X67997499Y-171675760D01*
X67995964Y-171672885D01*
X67994626Y-171668503D01*
X67992400Y-171665801D01*
X67983422Y-171649203D01*
X67973413Y-171630654D01*
X67966122Y-171617000D01*
X67965023Y-171613300D01*
X67962457Y-171610136D01*
X67961847Y-171608994D01*
X67961492Y-171608561D01*
X67961226Y-171608068D01*
X67961067Y-171607876D01*
X67959242Y-171604502D01*
X67956296Y-171602109D01*
X67949270Y-171593616D01*
X67945716Y-171589321D01*
X67945438Y-171588983D01*
X67932792Y-171573560D01*
X67932566Y-171573283D01*
X67922782Y-171561220D01*
X67920965Y-171557745D01*
X67917853Y-171555143D01*
X67917345Y-171554517D01*
X67916815Y-171554077D01*
X67916378Y-171553544D01*
X67915566Y-171552877D01*
X67912979Y-171549750D01*
X67909546Y-171547932D01*
X67897715Y-171538215D01*
X67897325Y-171537892D01*
X67881922Y-171525102D01*
X67881662Y-171524886D01*
X67881652Y-171524877D01*
X67868535Y-171513910D01*
X67866108Y-171510903D01*
X67862361Y-171508860D01*
X67862185Y-171508714D01*
X67861045Y-171508096D01*
X67857889Y-171505504D01*
X67854187Y-171504379D01*
X67851502Y-171502924D01*
X67851501Y-171502923D01*
X67846856Y-171500406D01*
X67846639Y-171500288D01*
X67822132Y-171486927D01*
X67822057Y-171486886D01*
X67811606Y-171481176D01*
X67811604Y-171481175D01*
X67804439Y-171477261D01*
X67801759Y-171475049D01*
X67797865Y-171473855D01*
X67795641Y-171472650D01*
X67793052Y-171472380D01*
X67780503Y-171468533D01*
X67757385Y-171461446D01*
X67756801Y-171461265D01*
X67742349Y-171456737D01*
X67742348Y-171456737D01*
X67732554Y-171453668D01*
X67730760Y-171452716D01*
X67728967Y-171452545D01*
X67727625Y-171452124D01*
X67726045Y-171452265D01*
X67720204Y-171451706D01*
X67720203Y-171451706D01*
X67697416Y-171449527D01*
X67693266Y-171449130D01*
X67692209Y-171449024D01*
X67657740Y-171445341D01*
X67656982Y-171445117D01*
X67656311Y-171445188D01*
X67655477Y-171445099D01*
X67654534Y-171445377D01*
X67620885Y-171448946D01*
X67619940Y-171449040D01*
X67586649Y-171452221D01*
X67585040Y-171452074D01*
X67583648Y-171452507D01*
X67581538Y-171452709D01*
X67579503Y-171453789D01*
X67558634Y-171460291D01*
X67558294Y-171460395D01*
X67530313Y-171468970D01*
X67519913Y-171472157D01*
X67517166Y-171472436D01*
X67514738Y-171473743D01*
X67510515Y-171475037D01*
X67507814Y-171477267D01*
X67492529Y-171485584D01*
X67492512Y-171485588D01*
X67492514Y-171485592D01*
X67472134Y-171496677D01*
X67471892Y-171496808D01*
X67458522Y-171504006D01*
X67454896Y-171505094D01*
X67451782Y-171507634D01*
X67450521Y-171508313D01*
X67450091Y-171508668D01*
X67449600Y-171508935D01*
X67449564Y-171508965D01*
X67446245Y-171510771D01*
X67443874Y-171513705D01*
X67435840Y-171520397D01*
X67430880Y-171524528D01*
X67430554Y-171524798D01*
X67415391Y-171537318D01*
X67415004Y-171537636D01*
X67403015Y-171547416D01*
X67399627Y-171549195D01*
X67397067Y-171552268D01*
X67396247Y-171552937D01*
X67395763Y-171553523D01*
X67395177Y-171554007D01*
X67394514Y-171554820D01*
X67391444Y-171557377D01*
X67389666Y-171560763D01*
X67379775Y-171572888D01*
X67366977Y-171588389D01*
X67366812Y-171588587D01*
X67360662Y-171595969D01*
X67360660Y-171595972D01*
X67355947Y-171601630D01*
X67353011Y-171604003D01*
X67351204Y-171607324D01*
X67351183Y-171607349D01*
X67350913Y-171607845D01*
X67350554Y-171608280D01*
X67349875Y-171609541D01*
X67347334Y-171612656D01*
X67346245Y-171616285D01*
X67344799Y-171618971D01*
X67344798Y-171618972D01*
X67339015Y-171629716D01*
X67338804Y-171630106D01*
X67333548Y-171639768D01*
X67332130Y-171642374D01*
X67319499Y-171665586D01*
X67317272Y-171668284D01*
X67315976Y-171672513D01*
X67314678Y-171674925D01*
X67314401Y-171677655D01*
X67302620Y-171716108D01*
X67296032Y-171737257D01*
X67294954Y-171739287D01*
X67294754Y-171741382D01*
X67294316Y-171742788D01*
X67294464Y-171744413D01*
X67293923Y-171750070D01*
X67293923Y-171750071D01*
X67291294Y-171777576D01*
X67291191Y-171778595D01*
X67289552Y-171794057D01*
X67287618Y-171812291D01*
X67287340Y-171813235D01*
X66013500Y-171813235D01*
X66013500Y-170114005D01*
X66032407Y-170055814D01*
X66081907Y-170019850D01*
X66104323Y-170015343D01*
X66125005Y-170013630D01*
X66135272Y-170012779D01*
X66135273Y-170012779D01*
X66139350Y-170012441D01*
X66359526Y-169956685D01*
X66567521Y-169865450D01*
X66757663Y-169741224D01*
X66924765Y-169587396D01*
X67021345Y-169463310D01*
X67061753Y-169411394D01*
X67061755Y-169411391D01*
X67064269Y-169408161D01*
X67135161Y-169277164D01*
X67170421Y-169212010D01*
X67170422Y-169212008D01*
X67172369Y-169208410D01*
X67174257Y-169202913D01*
X67235208Y-169025365D01*
X67246116Y-168993591D01*
X67283500Y-168769563D01*
X67283500Y-168542437D01*
X67246116Y-168318409D01*
X67226966Y-168262628D01*
X67173699Y-168107463D01*
X67173697Y-168107459D01*
X67172369Y-168103590D01*
X67154868Y-168071250D01*
X67066218Y-167907441D01*
X67064269Y-167903839D01*
X67052860Y-167889180D01*
X66947970Y-167754418D01*
X66924765Y-167724604D01*
X66757663Y-167570776D01*
X66567521Y-167446550D01*
X66359526Y-167355315D01*
X66139350Y-167299559D01*
X66135273Y-167299221D01*
X66135272Y-167299221D01*
X66125005Y-167298370D01*
X66104324Y-167296657D01*
X66047895Y-167273009D01*
X66016141Y-167220709D01*
X66013500Y-167197995D01*
X66013500Y-164877597D01*
X66013826Y-164875539D01*
X66013826Y-164860912D01*
X66018672Y-164846000D01*
X66016123Y-164838154D01*
X66017323Y-164834462D01*
X66014832Y-164834181D01*
X66025652Y-164738147D01*
X66030586Y-164716533D01*
X66062749Y-164624617D01*
X66072367Y-164604644D01*
X66124175Y-164522192D01*
X66137997Y-164504859D01*
X66206859Y-164435997D01*
X66224192Y-164422175D01*
X66306644Y-164370367D01*
X66326617Y-164360749D01*
X66418533Y-164328586D01*
X66440146Y-164323652D01*
X66536181Y-164312832D01*
X66536333Y-164314182D01*
X66538736Y-164313662D01*
X66548000Y-164316672D01*
X66555125Y-164314357D01*
X66692183Y-164300858D01*
X66696835Y-164299447D01*
X66696839Y-164299446D01*
X66826169Y-164260214D01*
X66826172Y-164260213D01*
X66830826Y-164258801D01*
X66844063Y-164251726D01*
X66954311Y-164192797D01*
X66958599Y-164190505D01*
X67070594Y-164098594D01*
X67072182Y-164100529D01*
X67118141Y-164077112D01*
X67178573Y-164086683D01*
X67221838Y-164129948D01*
X67226326Y-164140139D01*
X67247929Y-164197764D01*
X67297703Y-164264177D01*
X67308533Y-164278628D01*
X67328301Y-164336531D01*
X67308533Y-164397372D01*
X67247929Y-164478236D01*
X67197202Y-164613552D01*
X67190500Y-164675244D01*
X67190500Y-165270756D01*
X67197202Y-165332448D01*
X67247929Y-165467764D01*
X67334596Y-165583404D01*
X67450236Y-165670071D01*
X67495227Y-165686937D01*
X67499252Y-165688446D01*
X67547103Y-165726577D01*
X67563500Y-165781146D01*
X67563500Y-166459188D01*
X67562281Y-166474675D01*
X67558745Y-166497000D01*
X67559964Y-166504692D01*
X67559964Y-166507806D01*
X67560230Y-166510448D01*
X67569126Y-166714203D01*
X67575110Y-166851255D01*
X67584443Y-166922145D01*
X67621111Y-167200675D01*
X67621113Y-167200687D01*
X67621393Y-167202813D01*
X67660904Y-167381036D01*
X67687057Y-167499006D01*
X67698140Y-167549001D01*
X67699273Y-167552593D01*
X67798424Y-167867063D01*
X67804767Y-167887182D01*
X67940462Y-168214783D01*
X67941465Y-168216709D01*
X67941466Y-168216712D01*
X67949352Y-168231861D01*
X68104193Y-168529310D01*
X68105353Y-168531131D01*
X68105360Y-168531143D01*
X68219431Y-168710200D01*
X68294714Y-168828372D01*
X68510574Y-169109690D01*
X68675623Y-169289811D01*
X68741105Y-169361273D01*
X68742687Y-169363209D01*
X68744924Y-169365446D01*
X68749504Y-169371751D01*
X68755809Y-169376332D01*
X68755810Y-169376333D01*
X68767792Y-169385039D01*
X68779605Y-169395127D01*
X70749064Y-171364586D01*
X70759152Y-171376399D01*
X70772437Y-171394684D01*
X70778741Y-171399264D01*
X70778888Y-171399411D01*
X70786710Y-171405767D01*
X70977520Y-171578707D01*
X70979464Y-171580148D01*
X70979474Y-171580157D01*
X71196829Y-171741356D01*
X71196835Y-171741360D01*
X71198782Y-171742804D01*
X71221000Y-171756121D01*
X71431782Y-171882457D01*
X71435062Y-171884423D01*
X71437263Y-171885464D01*
X71669802Y-171995446D01*
X71684086Y-172002202D01*
X71686368Y-172003018D01*
X71686374Y-172003021D01*
X71758093Y-172028682D01*
X71919178Y-172086319D01*
X71967596Y-172123724D01*
X71984782Y-172182446D01*
X71964170Y-172240055D01*
X71934952Y-172265482D01*
X71917338Y-172275550D01*
X71914145Y-172277375D01*
X71709353Y-172438820D01*
X71706839Y-172441493D01*
X71706833Y-172441498D01*
X71620415Y-172533364D01*
X71530674Y-172628761D01*
X71382032Y-172843027D01*
X71266694Y-173076910D01*
X71187193Y-173325272D01*
X71186604Y-173328887D01*
X71186604Y-173328888D01*
X71145864Y-173579039D01*
X71145275Y-173582656D01*
X71141862Y-173843410D01*
X71142356Y-173847038D01*
X71142356Y-173847042D01*
X71154580Y-173936859D01*
X71177028Y-174101804D01*
X71250000Y-174352162D01*
X71251919Y-174356324D01*
X71357639Y-174585649D01*
X71357642Y-174585655D01*
X71359177Y-174588984D01*
X71452965Y-174732035D01*
X71500122Y-174803961D01*
X71502158Y-174807067D01*
X71504597Y-174809800D01*
X71504598Y-174809801D01*
X71672161Y-174997539D01*
X71675804Y-175001621D01*
X71678626Y-175003968D01*
X71678627Y-175003969D01*
X71700207Y-175021917D01*
X71876300Y-175168371D01*
X72099240Y-175303655D01*
X72339728Y-175404500D01*
X72343289Y-175405404D01*
X72343291Y-175405405D01*
X72588919Y-175467786D01*
X72588924Y-175467787D01*
X72592480Y-175468690D01*
X72809072Y-175490500D01*
X72964206Y-175490500D01*
X73051220Y-175484034D01*
X73154405Y-175476366D01*
X73154411Y-175476365D01*
X73158059Y-175476094D01*
X73412405Y-175418542D01*
X73415822Y-175417213D01*
X73415826Y-175417212D01*
X73652030Y-175325357D01*
X73655450Y-175324027D01*
X73881855Y-175194625D01*
X74086647Y-175033180D01*
X74089161Y-175030507D01*
X74089167Y-175030502D01*
X74221351Y-174889986D01*
X74265326Y-174843239D01*
X74413968Y-174628973D01*
X74529306Y-174395090D01*
X74608807Y-174146728D01*
X74611507Y-174130153D01*
X74650136Y-173892961D01*
X74650136Y-173892960D01*
X74650725Y-173889344D01*
X74651427Y-173835750D01*
X74654090Y-173632254D01*
X74654138Y-173628590D01*
X74653534Y-173624147D01*
X74634344Y-173483149D01*
X74618972Y-173370196D01*
X74575356Y-173220554D01*
X74565294Y-173186033D01*
X74567163Y-173124876D01*
X74604622Y-173076497D01*
X74663363Y-173059376D01*
X74698224Y-173066866D01*
X74778993Y-173100321D01*
X74778999Y-173100323D01*
X74781570Y-173101388D01*
X74787402Y-173103068D01*
X75004924Y-173165732D01*
X75004929Y-173165733D01*
X75007598Y-173166502D01*
X75010335Y-173166967D01*
X75236752Y-173205433D01*
X75236755Y-173205433D01*
X75239496Y-173205899D01*
X75407457Y-173215328D01*
X75410427Y-173215539D01*
X75410733Y-173215566D01*
X75411310Y-173215616D01*
X75411316Y-173215616D01*
X75413429Y-173215799D01*
X75415563Y-173215799D01*
X75416190Y-173215826D01*
X75417433Y-173215888D01*
X75434107Y-173216824D01*
X75454963Y-173217995D01*
X75464893Y-173219057D01*
X75466649Y-173219335D01*
X75466650Y-173219335D01*
X75474347Y-173220554D01*
X75496668Y-173217018D01*
X75512158Y-173215799D01*
X75937768Y-173215799D01*
X75953252Y-173217018D01*
X75975581Y-173220554D01*
X75983277Y-173219335D01*
X75990848Y-173219335D01*
X76006732Y-173218867D01*
X76060558Y-173224167D01*
X76114212Y-173229450D01*
X76133244Y-173233236D01*
X76257215Y-173270841D01*
X76275145Y-173278267D01*
X76389398Y-173339335D01*
X76405535Y-173350117D01*
X76451647Y-173387960D01*
X76484634Y-173439489D01*
X76486995Y-173477407D01*
X76477267Y-173551296D01*
X76477922Y-173557229D01*
X76477922Y-173557233D01*
X76492304Y-173687497D01*
X76494146Y-173704183D01*
X76500499Y-173721544D01*
X76544941Y-173842986D01*
X76547006Y-173848630D01*
X76632796Y-173976299D01*
X76679012Y-174018352D01*
X76738287Y-174072288D01*
X76746563Y-174079819D01*
X76800678Y-174109201D01*
X76876492Y-174150365D01*
X76876494Y-174150366D01*
X76881738Y-174153213D01*
X76980448Y-174179109D01*
X77024751Y-174190732D01*
X77024753Y-174190732D01*
X77030519Y-174192245D01*
X77036480Y-174192339D01*
X77036483Y-174192339D01*
X77107417Y-174193453D01*
X77184316Y-174194661D01*
X77191254Y-174193072D01*
X77328427Y-174161656D01*
X77328432Y-174161654D01*
X77334249Y-174160322D01*
X77341425Y-174156713D01*
X77466330Y-174093893D01*
X77466332Y-174093892D01*
X77471664Y-174091210D01*
X77588626Y-173991314D01*
X77678383Y-173866403D01*
X77723855Y-173753290D01*
X77733531Y-173729221D01*
X77733532Y-173729219D01*
X77735755Y-173723688D01*
X77736906Y-173715606D01*
X77747918Y-173638230D01*
X77752691Y-173604688D01*
X77779608Y-173549743D01*
X77833682Y-173521112D01*
X77894257Y-173529733D01*
X77920706Y-173548633D01*
X78224633Y-173852561D01*
X78525585Y-174153513D01*
X78536222Y-174166090D01*
X78549171Y-174184277D01*
X78553366Y-174188576D01*
X78553528Y-174188797D01*
X78553746Y-174188964D01*
X78557939Y-174193261D01*
X78560987Y-174195545D01*
X78560999Y-174195556D01*
X78567875Y-174200709D01*
X78572089Y-174204050D01*
X78572515Y-174204407D01*
X78584199Y-174215981D01*
X78658654Y-174303157D01*
X78662652Y-174307838D01*
X78671782Y-174320404D01*
X78748991Y-174446395D01*
X78756036Y-174460222D01*
X78812582Y-174596734D01*
X78817381Y-174611504D01*
X78841161Y-174710551D01*
X78851874Y-174755170D01*
X78854305Y-174770512D01*
X78863104Y-174882279D01*
X78863259Y-174884250D01*
X78862325Y-174905416D01*
X78862401Y-174905423D01*
X78862251Y-174907100D01*
X78862191Y-174908448D01*
X78861424Y-174913008D01*
X78861351Y-174919037D01*
X78861309Y-174919304D01*
X78861344Y-174919572D01*
X78861271Y-174925560D01*
X78861814Y-174929351D01*
X78861814Y-174929354D01*
X78865500Y-174955094D01*
X78866500Y-174969127D01*
X78866500Y-176022302D01*
X78847593Y-176080493D01*
X78826872Y-176101523D01*
X78799372Y-176122133D01*
X78741468Y-176141901D01*
X78680628Y-176122133D01*
X78653128Y-176101523D01*
X78599764Y-176061529D01*
X78464448Y-176010802D01*
X78402756Y-176004100D01*
X77807244Y-176004100D01*
X77745552Y-176010802D01*
X77610236Y-176061529D01*
X77556872Y-176101523D01*
X77529372Y-176122133D01*
X77471469Y-176141901D01*
X77410628Y-176122133D01*
X77383128Y-176101523D01*
X77329764Y-176061529D01*
X77194448Y-176010802D01*
X77132756Y-176004100D01*
X76537244Y-176004100D01*
X76475552Y-176010802D01*
X76340236Y-176061529D01*
X76224596Y-176148196D01*
X76137929Y-176263836D01*
X76087202Y-176399152D01*
X76080500Y-176460844D01*
X76080500Y-177056356D01*
X76087202Y-177118048D01*
X76137929Y-177253364D01*
X76224596Y-177369004D01*
X76340236Y-177455671D01*
X76475552Y-177506398D01*
X76537244Y-177513100D01*
X77132756Y-177513100D01*
X77194448Y-177506398D01*
X77329764Y-177455671D01*
X77410628Y-177395067D01*
X77468531Y-177375299D01*
X77529372Y-177395067D01*
X77610236Y-177455671D01*
X77745552Y-177506398D01*
X77807244Y-177513100D01*
X78402756Y-177513100D01*
X78464448Y-177506398D01*
X78599764Y-177455671D01*
X78680628Y-177395067D01*
X78738531Y-177375299D01*
X78799372Y-177395067D01*
X78880236Y-177455671D01*
X79015552Y-177506398D01*
X79077244Y-177513100D01*
X79672756Y-177513100D01*
X79734448Y-177506398D01*
X79745777Y-177502151D01*
X79806901Y-177499432D01*
X79850466Y-177524788D01*
X79922931Y-177597126D01*
X79931895Y-177604206D01*
X80070983Y-177689941D01*
X80081337Y-177694769D01*
X80236742Y-177746315D01*
X80247255Y-177748568D01*
X80342641Y-177758341D01*
X80347698Y-177758600D01*
X80379320Y-177758600D01*
X80392005Y-177754478D01*
X80395000Y-177750357D01*
X80395000Y-176492920D01*
X80895000Y-176492920D01*
X80899122Y-176505605D01*
X80903243Y-176508600D01*
X81629319Y-176508600D01*
X81642004Y-176504478D01*
X81644999Y-176500357D01*
X81644999Y-176461337D01*
X81644733Y-176456204D01*
X81634708Y-176359572D01*
X81632435Y-176349047D01*
X81580619Y-176193735D01*
X81575776Y-176183398D01*
X81489797Y-176044457D01*
X81482703Y-176035506D01*
X81367069Y-175920073D01*
X81358105Y-175912994D01*
X81219017Y-175827259D01*
X81208663Y-175822431D01*
X81053258Y-175770885D01*
X81042745Y-175768632D01*
X80947359Y-175758859D01*
X80942302Y-175758600D01*
X80910680Y-175758600D01*
X80897995Y-175762722D01*
X80895000Y-175766843D01*
X80895000Y-176492920D01*
X80395000Y-176492920D01*
X80395000Y-175774281D01*
X80390878Y-175761596D01*
X80386757Y-175758601D01*
X80347737Y-175758601D01*
X80342604Y-175758867D01*
X80245972Y-175768892D01*
X80235447Y-175771165D01*
X80080135Y-175822981D01*
X80069798Y-175827824D01*
X80034595Y-175849608D01*
X79975164Y-175864151D01*
X79918534Y-175840983D01*
X79886337Y-175788954D01*
X79883500Y-175765423D01*
X79883500Y-174976554D01*
X79884872Y-174960131D01*
X79886025Y-174953274D01*
X79888576Y-174938112D01*
X79888649Y-174932126D01*
X79888691Y-174931856D01*
X79888656Y-174931585D01*
X79888729Y-174925560D01*
X79886903Y-174912812D01*
X79886208Y-174891005D01*
X79895694Y-174770512D01*
X79898125Y-174755169D01*
X79932618Y-174611506D01*
X79937418Y-174596733D01*
X79964776Y-174530684D01*
X79993963Y-174460221D01*
X80001011Y-174446389D01*
X80078217Y-174320403D01*
X80087342Y-174307844D01*
X80161482Y-174221037D01*
X80177077Y-174206759D01*
X80177026Y-174206698D01*
X80178379Y-174205567D01*
X80179341Y-174204687D01*
X80179965Y-174204243D01*
X80183076Y-174202028D01*
X80187375Y-174197833D01*
X80187596Y-174197671D01*
X80187763Y-174197453D01*
X80192060Y-174193260D01*
X80209949Y-174169391D01*
X80219165Y-174158760D01*
X81175907Y-173202019D01*
X81188492Y-173191375D01*
X81203563Y-173180645D01*
X81203565Y-173180644D01*
X81206678Y-173178427D01*
X81209411Y-173175759D01*
X81209415Y-173175756D01*
X81212925Y-173172330D01*
X81212928Y-173172327D01*
X81215661Y-173169659D01*
X81221363Y-173162051D01*
X81227589Y-173154546D01*
X81231257Y-173150543D01*
X81450829Y-172910923D01*
X81663636Y-172633587D01*
X81689682Y-172592704D01*
X81850310Y-172340569D01*
X81850311Y-172340567D01*
X81851463Y-172338759D01*
X82012879Y-172028682D01*
X82146655Y-171705717D01*
X82167889Y-171638371D01*
X82251127Y-171374378D01*
X82251128Y-171374373D01*
X82251775Y-171372322D01*
X82293180Y-171185558D01*
X82326967Y-171033154D01*
X82326968Y-171033149D01*
X82327437Y-171031033D01*
X82373066Y-170684449D01*
X82386867Y-170368379D01*
X82388145Y-170356277D01*
X82388942Y-170351542D01*
X82388944Y-170351525D01*
X82389577Y-170347759D01*
X82389730Y-170335207D01*
X82385501Y-170305677D01*
X82384501Y-170291642D01*
X82384501Y-168279048D01*
X82385872Y-168262628D01*
X82388944Y-168244365D01*
X82388944Y-168244360D01*
X82389578Y-168240593D01*
X82389730Y-168228041D01*
X82389188Y-168224261D01*
X82389188Y-168224254D01*
X82385769Y-168200393D01*
X82385074Y-168194125D01*
X82375090Y-168067330D01*
X82375090Y-168067327D01*
X82374784Y-168063447D01*
X82373875Y-168059660D01*
X82337149Y-167906694D01*
X82337148Y-167906691D01*
X82336239Y-167902905D01*
X82303926Y-167824892D01*
X82274544Y-167753956D01*
X82274542Y-167753952D01*
X82273057Y-167750367D01*
X82186796Y-167609589D01*
X82111182Y-167521045D01*
X82105815Y-167514169D01*
X82098767Y-167504267D01*
X82089756Y-167491609D01*
X82089755Y-167491608D01*
X82090373Y-167491168D01*
X82069691Y-167443966D01*
X82069063Y-167439154D01*
X82068734Y-167436640D01*
X82067900Y-167423817D01*
X82067900Y-165577295D01*
X82086807Y-165519104D01*
X82136307Y-165483140D01*
X82197493Y-165483140D01*
X82246121Y-165517923D01*
X82295196Y-165583404D01*
X82410836Y-165670071D01*
X82546152Y-165720798D01*
X82607844Y-165727500D01*
X83203356Y-165727500D01*
X83265048Y-165720798D01*
X83400364Y-165670071D01*
X83516004Y-165583404D01*
X83602671Y-165467764D01*
X83653398Y-165332448D01*
X83660100Y-165270756D01*
X83660100Y-164675244D01*
X83653398Y-164613552D01*
X83602671Y-164478236D01*
X83542067Y-164397372D01*
X83522299Y-164339469D01*
X83542067Y-164278628D01*
X83552897Y-164264177D01*
X83602671Y-164197764D01*
X83631478Y-164120920D01*
X83669608Y-164073070D01*
X83728583Y-164056770D01*
X83785875Y-164078248D01*
G37*
G04 #@! TD.AperFunction*
G04 #@! TA.AperFunction,NonConductor*
G36*
X73015186Y-159250407D02*
G01*
X73051150Y-159299907D01*
X73055657Y-159322323D01*
X73058559Y-159357350D01*
X73114315Y-159577526D01*
X73205550Y-159785521D01*
X73329776Y-159975663D01*
X73483604Y-160142765D01*
X73662839Y-160282269D01*
X73862590Y-160390369D01*
X73866459Y-160391697D01*
X73866463Y-160391699D01*
X73956336Y-160422552D01*
X74077409Y-160464116D01*
X74081439Y-160464788D01*
X74081441Y-160464789D01*
X74154340Y-160476954D01*
X74301437Y-160501500D01*
X74528563Y-160501500D01*
X74675660Y-160476954D01*
X74748559Y-160464789D01*
X74748561Y-160464788D01*
X74752591Y-160464116D01*
X74873664Y-160422552D01*
X74963537Y-160391699D01*
X74963541Y-160391697D01*
X74967410Y-160390369D01*
X75167161Y-160282269D01*
X75346396Y-160142765D01*
X75500224Y-159975663D01*
X75624450Y-159785521D01*
X75715685Y-159577526D01*
X75771441Y-159357350D01*
X75774343Y-159322324D01*
X75797991Y-159265895D01*
X75850291Y-159234141D01*
X75873005Y-159231500D01*
X80486403Y-159231500D01*
X80488461Y-159231826D01*
X80503088Y-159231826D01*
X80518000Y-159236672D01*
X80525846Y-159234123D01*
X80529538Y-159235323D01*
X80529819Y-159232832D01*
X80625854Y-159243652D01*
X80647467Y-159248586D01*
X80739383Y-159280749D01*
X80759356Y-159290367D01*
X80841808Y-159342175D01*
X80859141Y-159355997D01*
X80928003Y-159424859D01*
X80941825Y-159442192D01*
X80993633Y-159524644D01*
X81003251Y-159544617D01*
X81035414Y-159636533D01*
X81040348Y-159658149D01*
X81041899Y-159671918D01*
X81029624Y-159731860D01*
X80984461Y-159773138D01*
X80943521Y-159782000D01*
X80910680Y-159782000D01*
X80897995Y-159786122D01*
X80895000Y-159790243D01*
X80895000Y-160516320D01*
X80899122Y-160529005D01*
X80903243Y-160532000D01*
X81629319Y-160532000D01*
X81655146Y-160523608D01*
X81683387Y-160503091D01*
X81723680Y-160498724D01*
X81744105Y-160500735D01*
X81780877Y-160504357D01*
X81788000Y-160506672D01*
X81802916Y-160501825D01*
X81817539Y-160501826D01*
X81819597Y-160501500D01*
X81864742Y-160501500D01*
X81922933Y-160520407D01*
X81958897Y-160569907D01*
X81958708Y-160631668D01*
X81917885Y-160754744D01*
X81915632Y-160765255D01*
X81905859Y-160860641D01*
X81905600Y-160865698D01*
X81905600Y-160897320D01*
X81909722Y-160910005D01*
X81913843Y-160913000D01*
X83056600Y-160913000D01*
X83114791Y-160931907D01*
X83150755Y-160981407D01*
X83155600Y-161012000D01*
X83155600Y-161314000D01*
X83136693Y-161372191D01*
X83087193Y-161408155D01*
X83056600Y-161413000D01*
X81921281Y-161413000D01*
X81908596Y-161417122D01*
X81905601Y-161421243D01*
X81905601Y-161460263D01*
X81905867Y-161465396D01*
X81915892Y-161562028D01*
X81918165Y-161572553D01*
X81969981Y-161727865D01*
X81974824Y-161738202D01*
X82060803Y-161877143D01*
X82067897Y-161886094D01*
X82139303Y-161957375D01*
X82167129Y-162011867D01*
X82162060Y-162062194D01*
X82157802Y-162073552D01*
X82157615Y-162075272D01*
X82126529Y-162126118D01*
X82074022Y-162170955D01*
X82067153Y-162176316D01*
X82045645Y-162191626D01*
X82045641Y-162191629D01*
X82042527Y-162193846D01*
X82033542Y-162202612D01*
X82015625Y-162226514D01*
X82006420Y-162237130D01*
X81932385Y-162311164D01*
X81721028Y-162522520D01*
X81708450Y-162533159D01*
X81690261Y-162546109D01*
X81685962Y-162550304D01*
X81685741Y-162550466D01*
X81685574Y-162550684D01*
X81681277Y-162554877D01*
X81678989Y-162557930D01*
X81677718Y-162559378D01*
X81658321Y-162576382D01*
X81643738Y-162586127D01*
X81608045Y-162600912D01*
X81578712Y-162606746D01*
X81540088Y-162606746D01*
X81510756Y-162600912D01*
X81475068Y-162586130D01*
X81463011Y-162578074D01*
X81451824Y-162568022D01*
X81446353Y-162563951D01*
X81446290Y-162563862D01*
X81442095Y-162559563D01*
X81441933Y-162559342D01*
X81441715Y-162559175D01*
X81437522Y-162554878D01*
X81413653Y-162536989D01*
X81403022Y-162527773D01*
X80826252Y-161951003D01*
X80798475Y-161896486D01*
X80808046Y-161836054D01*
X80851311Y-161792789D01*
X80896256Y-161781999D01*
X80942263Y-161781999D01*
X80947396Y-161781733D01*
X81044028Y-161771708D01*
X81054553Y-161769435D01*
X81209865Y-161717619D01*
X81220202Y-161712776D01*
X81359143Y-161626797D01*
X81368094Y-161619703D01*
X81483527Y-161504069D01*
X81490606Y-161495105D01*
X81576341Y-161356017D01*
X81581169Y-161345663D01*
X81632715Y-161190258D01*
X81634968Y-161179745D01*
X81644741Y-161084359D01*
X81645000Y-161079302D01*
X81645000Y-161047680D01*
X81640878Y-161034995D01*
X81636757Y-161032000D01*
X80494000Y-161032000D01*
X80435809Y-161013093D01*
X80399845Y-160963593D01*
X80395000Y-160933000D01*
X80395000Y-159797681D01*
X80390878Y-159784996D01*
X80386757Y-159782001D01*
X80347737Y-159782001D01*
X80342604Y-159782267D01*
X80245972Y-159792292D01*
X80235447Y-159794565D01*
X80080135Y-159846381D01*
X80069798Y-159851224D01*
X79930857Y-159937203D01*
X79921906Y-159944297D01*
X79850625Y-160015703D01*
X79796133Y-160043529D01*
X79745806Y-160038460D01*
X79740264Y-160036382D01*
X79740262Y-160036381D01*
X79734448Y-160034202D01*
X79728276Y-160033532D01*
X79728274Y-160033531D01*
X79692729Y-160029670D01*
X79672756Y-160027500D01*
X79077244Y-160027500D01*
X79015552Y-160034202D01*
X78880236Y-160084929D01*
X78874595Y-160089157D01*
X78799372Y-160145533D01*
X78741469Y-160165301D01*
X78680628Y-160145533D01*
X78605405Y-160089157D01*
X78599764Y-160084929D01*
X78464448Y-160034202D01*
X78402756Y-160027500D01*
X77807244Y-160027500D01*
X77745552Y-160034202D01*
X77610236Y-160084929D01*
X77604595Y-160089157D01*
X77529372Y-160145533D01*
X77471469Y-160165301D01*
X77410628Y-160145533D01*
X77335405Y-160089157D01*
X77329764Y-160084929D01*
X77194448Y-160034202D01*
X77132756Y-160027500D01*
X76537244Y-160027500D01*
X76475552Y-160034202D01*
X76340236Y-160084929D01*
X76224596Y-160171596D01*
X76137929Y-160287236D01*
X76087202Y-160422552D01*
X76080500Y-160484244D01*
X76080500Y-161079756D01*
X76087202Y-161141448D01*
X76089565Y-161147752D01*
X76089581Y-161148101D01*
X76090816Y-161153296D01*
X76089822Y-161153532D01*
X76092286Y-161208875D01*
X76058559Y-161259925D01*
X75996864Y-161281500D01*
X72516936Y-161281500D01*
X72458745Y-161262593D01*
X72422781Y-161213093D01*
X72424106Y-161153563D01*
X72422984Y-161153296D01*
X72424228Y-161148064D01*
X72424235Y-161147751D01*
X72426598Y-161141448D01*
X72433300Y-161079756D01*
X72433300Y-160484244D01*
X72426598Y-160422552D01*
X72375871Y-160287236D01*
X72289204Y-160171596D01*
X72173564Y-160084929D01*
X72038248Y-160034202D01*
X71976556Y-160027500D01*
X71381044Y-160027500D01*
X71319352Y-160034202D01*
X71184036Y-160084929D01*
X71068396Y-160171596D01*
X70981729Y-160287236D01*
X70931002Y-160422552D01*
X70924300Y-160484244D01*
X70924300Y-161079756D01*
X70931002Y-161141448D01*
X70933365Y-161147752D01*
X70933381Y-161148101D01*
X70934616Y-161153296D01*
X70933622Y-161153532D01*
X70936086Y-161208875D01*
X70902359Y-161259925D01*
X70840664Y-161281500D01*
X70594853Y-161281500D01*
X70545274Y-161264672D01*
X70543872Y-161267100D01*
X70538249Y-161263854D01*
X70533103Y-161259905D01*
X70398214Y-161204032D01*
X70253460Y-161184975D01*
X70108706Y-161204032D01*
X69973818Y-161259905D01*
X69857986Y-161348786D01*
X69769105Y-161464618D01*
X69713232Y-161599506D01*
X69694175Y-161744260D01*
X69713232Y-161889014D01*
X69769105Y-162023902D01*
X69857986Y-162139734D01*
X69863131Y-162143682D01*
X69863132Y-162143683D01*
X69892293Y-162166059D01*
X69926948Y-162216484D01*
X69925346Y-162277648D01*
X69888099Y-162326190D01*
X69832025Y-162343601D01*
X69207748Y-162343601D01*
X69192510Y-162342421D01*
X69173736Y-162339496D01*
X69173733Y-162339496D01*
X69166762Y-162338410D01*
X69156708Y-162339724D01*
X69130953Y-162339711D01*
X69119835Y-162338247D01*
X69094878Y-162331559D01*
X69069035Y-162320854D01*
X69046660Y-162307935D01*
X69042535Y-162304770D01*
X69031918Y-162293900D01*
X69031308Y-162294495D01*
X69026384Y-162289449D01*
X69022222Y-162283753D01*
X69015629Y-162278685D01*
X68998853Y-162261281D01*
X68998500Y-162261576D01*
X68996040Y-162258632D01*
X68993826Y-162255521D01*
X68985059Y-162246537D01*
X68965137Y-162231605D01*
X68960224Y-162227671D01*
X68853647Y-162136636D01*
X68850691Y-162134111D01*
X68847379Y-162132081D01*
X68847376Y-162132079D01*
X68761749Y-162079602D01*
X68722014Y-162033075D01*
X68717216Y-161972078D01*
X68743415Y-161925251D01*
X68783526Y-161885069D01*
X68790606Y-161876105D01*
X68876341Y-161737017D01*
X68881169Y-161726663D01*
X68932715Y-161571258D01*
X68934968Y-161560745D01*
X68944741Y-161465359D01*
X68945000Y-161460302D01*
X68945000Y-161428680D01*
X68940878Y-161415995D01*
X68936757Y-161413000D01*
X67794000Y-161413000D01*
X67735809Y-161394093D01*
X67699845Y-161344593D01*
X67695000Y-161314000D01*
X67695000Y-161012000D01*
X67713907Y-160953809D01*
X67763407Y-160917845D01*
X67794000Y-160913000D01*
X68929319Y-160913000D01*
X68942004Y-160908878D01*
X68944999Y-160904757D01*
X68944999Y-160865737D01*
X68944733Y-160860604D01*
X68934708Y-160763972D01*
X68932434Y-160753444D01*
X68891861Y-160631831D01*
X68891380Y-160570648D01*
X68926954Y-160520867D01*
X68985772Y-160501500D01*
X69056403Y-160501500D01*
X69058461Y-160501826D01*
X69073084Y-160501825D01*
X69088000Y-160506672D01*
X69095123Y-160504357D01*
X69108394Y-160503050D01*
X69227340Y-160491335D01*
X69232183Y-160490858D01*
X69236835Y-160489447D01*
X69236839Y-160489446D01*
X69366169Y-160450214D01*
X69366172Y-160450213D01*
X69370826Y-160448801D01*
X69419935Y-160422552D01*
X69494311Y-160382797D01*
X69498599Y-160380505D01*
X69610594Y-160288594D01*
X69702505Y-160176599D01*
X69751504Y-160084929D01*
X69768507Y-160053118D01*
X69768507Y-160053117D01*
X69770801Y-160048826D01*
X69772408Y-160043529D01*
X69811446Y-159914839D01*
X69811447Y-159914835D01*
X69812858Y-159910183D01*
X69826357Y-159773125D01*
X69828672Y-159766000D01*
X69826123Y-159758155D01*
X69827323Y-159754462D01*
X69824832Y-159754181D01*
X69829162Y-159715750D01*
X69835652Y-159658146D01*
X69840586Y-159636533D01*
X69872749Y-159544617D01*
X69882367Y-159524644D01*
X69934175Y-159442192D01*
X69947997Y-159424859D01*
X70016859Y-159355997D01*
X70034192Y-159342175D01*
X70116644Y-159290367D01*
X70136617Y-159280749D01*
X70228533Y-159248586D01*
X70250146Y-159243652D01*
X70346181Y-159232832D01*
X70346333Y-159234181D01*
X70348735Y-159233662D01*
X70358000Y-159236672D01*
X70372912Y-159231826D01*
X70387539Y-159231826D01*
X70389597Y-159231500D01*
X72956995Y-159231500D01*
X73015186Y-159250407D01*
G37*
G04 #@! TD.AperFunction*
G04 #@! TA.AperFunction,NonConductor*
G36*
X78799372Y-161418467D02*
G01*
X78880236Y-161479071D01*
X78929252Y-161497446D01*
X78978913Y-161516063D01*
X79028572Y-161557034D01*
X79054601Y-161599506D01*
X79061754Y-161611178D01*
X79064277Y-161614132D01*
X79135703Y-161697760D01*
X79141072Y-161704639D01*
X79155206Y-161724492D01*
X79155211Y-161724498D01*
X79157428Y-161727612D01*
X79166196Y-161736596D01*
X79169257Y-161738890D01*
X79190065Y-161754485D01*
X79200696Y-161763701D01*
X80517059Y-163080064D01*
X80544836Y-163134581D01*
X80535265Y-163195013D01*
X80492000Y-163238278D01*
X80484940Y-163241532D01*
X80467580Y-163248723D01*
X80351748Y-163337604D01*
X80262867Y-163453436D01*
X80206994Y-163588324D01*
X80192959Y-163694937D01*
X80189046Y-163724658D01*
X80166174Y-163776029D01*
X80105909Y-163846588D01*
X80053741Y-163878555D01*
X79992745Y-163873753D01*
X79946220Y-163834016D01*
X79933535Y-163801606D01*
X79928836Y-163777983D01*
X79928831Y-163777965D01*
X79928200Y-163774792D01*
X79853276Y-163554079D01*
X79750185Y-163345034D01*
X79748387Y-163342343D01*
X79622493Y-163153929D01*
X79622488Y-163153923D01*
X79620691Y-163151233D01*
X79512478Y-163027841D01*
X79511074Y-163025981D01*
X79510990Y-163026052D01*
X79508762Y-163023401D01*
X79508753Y-163023392D01*
X79507380Y-163021758D01*
X79505875Y-163020253D01*
X79505444Y-163019783D01*
X79503984Y-163018154D01*
X79476704Y-162987048D01*
X79472858Y-162982234D01*
X79472252Y-162981628D01*
X79467674Y-162975326D01*
X79449387Y-162962040D01*
X79437573Y-162951951D01*
X79371544Y-162885922D01*
X79343395Y-162828840D01*
X79327289Y-162706504D01*
X79325728Y-162694646D01*
X79269855Y-162559758D01*
X79180974Y-162443926D01*
X79175828Y-162439977D01*
X79070289Y-162358993D01*
X79070285Y-162358991D01*
X79065143Y-162355045D01*
X78930254Y-162299172D01*
X78785500Y-162280115D01*
X78640746Y-162299172D01*
X78623385Y-162306363D01*
X78562390Y-162311164D01*
X78510221Y-162279195D01*
X78486805Y-162222668D01*
X78486500Y-162214899D01*
X78486500Y-161590146D01*
X78505407Y-161531955D01*
X78550748Y-161497446D01*
X78554773Y-161495937D01*
X78599764Y-161479071D01*
X78680628Y-161418467D01*
X78738531Y-161398699D01*
X78799372Y-161418467D01*
G37*
G04 #@! TD.AperFunction*
G04 #@! TA.AperFunction,NonConductor*
G36*
X78623373Y-163372432D02*
G01*
X78640746Y-163379628D01*
X78705337Y-163388131D01*
X78774939Y-163397295D01*
X78832021Y-163425444D01*
X78898054Y-163491477D01*
X78908143Y-163503290D01*
X78921426Y-163521574D01*
X78927733Y-163526156D01*
X78928373Y-163526621D01*
X78945461Y-163542417D01*
X79023182Y-163633415D01*
X79032306Y-163645973D01*
X79085684Y-163733078D01*
X79107393Y-163768503D01*
X79114444Y-163782340D01*
X79167244Y-163909809D01*
X79169441Y-163915113D01*
X79174237Y-163929871D01*
X79207790Y-164069624D01*
X79210218Y-164084956D01*
X79219606Y-164204229D01*
X79218692Y-164227482D01*
X79217345Y-164235988D01*
X79218564Y-164243682D01*
X79220881Y-164258312D01*
X79222100Y-164273800D01*
X79222100Y-164985694D01*
X79203193Y-165043885D01*
X79153693Y-165079849D01*
X79092507Y-165079849D01*
X79085215Y-165077158D01*
X79068554Y-165070257D01*
X79068552Y-165070256D01*
X79062554Y-165067772D01*
X78997963Y-165059269D01*
X78928361Y-165050105D01*
X78871279Y-165021956D01*
X78807896Y-164958573D01*
X78797807Y-164946759D01*
X78789107Y-164934784D01*
X78784524Y-164928476D01*
X78777576Y-164923428D01*
X78760492Y-164907637D01*
X78683696Y-164817719D01*
X78674570Y-164805158D01*
X78600226Y-164683838D01*
X78593174Y-164669996D01*
X78575028Y-164626187D01*
X78538727Y-164538545D01*
X78533930Y-164523783D01*
X78500717Y-164385426D01*
X78498287Y-164370082D01*
X78489008Y-164252142D01*
X78489922Y-164228890D01*
X78490036Y-164228170D01*
X78490036Y-164228169D01*
X78491255Y-164220473D01*
X78487719Y-164198144D01*
X78486500Y-164182660D01*
X78486500Y-163463901D01*
X78505407Y-163405710D01*
X78554907Y-163369746D01*
X78616093Y-163369746D01*
X78623373Y-163372432D01*
G37*
G04 #@! TD.AperFunction*
G04 #@! TA.AperFunction,NonConductor*
G36*
X78081879Y-165294731D02*
G01*
X78082278Y-165294425D01*
X78083392Y-165295877D01*
X78083617Y-165296047D01*
X78086054Y-165299694D01*
X78088193Y-165302133D01*
X78193403Y-165422103D01*
X78194882Y-165424063D01*
X78194960Y-165423998D01*
X78198570Y-165428292D01*
X78200077Y-165429799D01*
X78201069Y-165430881D01*
X78202503Y-165432480D01*
X78229138Y-165462851D01*
X78233156Y-165467882D01*
X78233699Y-165468425D01*
X78238276Y-165474724D01*
X78249860Y-165483140D01*
X78256562Y-165488009D01*
X78268377Y-165498099D01*
X78331756Y-165561478D01*
X78359905Y-165618560D01*
X78377572Y-165752754D01*
X78433445Y-165887642D01*
X78522326Y-166003474D01*
X78527471Y-166007422D01*
X78527472Y-166007423D01*
X78633011Y-166088407D01*
X78633015Y-166088409D01*
X78638157Y-166092355D01*
X78773046Y-166148228D01*
X78779482Y-166149075D01*
X78785747Y-166150754D01*
X78784926Y-166153820D01*
X78828491Y-166174617D01*
X78857669Y-166228397D01*
X78849663Y-166289056D01*
X78807532Y-166333425D01*
X78798207Y-166337871D01*
X78663558Y-166393645D01*
X78547726Y-166482526D01*
X78458845Y-166598358D01*
X78456362Y-166604353D01*
X78453117Y-166609973D01*
X78451754Y-166609186D01*
X78417076Y-166649787D01*
X78357581Y-166664070D01*
X78301053Y-166640654D01*
X78278414Y-166609493D01*
X78277583Y-166609973D01*
X78274338Y-166604353D01*
X78271855Y-166598358D01*
X78182974Y-166482526D01*
X78177821Y-166478572D01*
X78072289Y-166397593D01*
X78072285Y-166397591D01*
X78067143Y-166393645D01*
X77963414Y-166350679D01*
X77916889Y-166310942D01*
X77902300Y-166259215D01*
X77902300Y-165351046D01*
X77921207Y-165292855D01*
X77970707Y-165256891D01*
X78031893Y-165256891D01*
X78081879Y-165294731D01*
G37*
G04 #@! TD.AperFunction*
G04 #@! TA.AperFunction,NonConductor*
G36*
X73545691Y-162063407D02*
G01*
X73581655Y-162112907D01*
X73586500Y-162143500D01*
X73586500Y-165119154D01*
X73595717Y-165131841D01*
X73596044Y-165132846D01*
X73596665Y-165133700D01*
X73601510Y-165148612D01*
X73614194Y-165157828D01*
X73614816Y-165158684D01*
X73615672Y-165159306D01*
X73624888Y-165171990D01*
X73639800Y-165176835D01*
X73640654Y-165177456D01*
X73641659Y-165177783D01*
X73654346Y-165187000D01*
X77040300Y-165187000D01*
X77098491Y-165205907D01*
X77134455Y-165255407D01*
X77139300Y-165286000D01*
X77139300Y-166384906D01*
X77138082Y-166400389D01*
X77134545Y-166422726D01*
X77135764Y-166430420D01*
X77135764Y-166430422D01*
X77138243Y-166446064D01*
X77139157Y-166453781D01*
X77147049Y-166554030D01*
X77177799Y-166682100D01*
X77196502Y-166727249D01*
X77225474Y-166797191D01*
X77232164Y-166848000D01*
X77229454Y-166868585D01*
X77228215Y-166878000D01*
X77229062Y-166884434D01*
X77230379Y-166894438D01*
X77247272Y-167022754D01*
X77249756Y-167028751D01*
X77251435Y-167035017D01*
X77248900Y-167035696D01*
X77252828Y-167085565D01*
X77220862Y-167137736D01*
X77164336Y-167161154D01*
X77104840Y-167146875D01*
X77084158Y-167129978D01*
X76996239Y-167035696D01*
X76977967Y-167016102D01*
X76967193Y-167007252D01*
X76750091Y-166828922D01*
X76750086Y-166828918D01*
X76747552Y-166826837D01*
X76606985Y-166739682D01*
X76496921Y-166671439D01*
X76496915Y-166671436D01*
X76494130Y-166669709D01*
X76264363Y-166566447D01*
X76225146Y-166548822D01*
X76225145Y-166548821D01*
X76222153Y-166547477D01*
X75936399Y-166462290D01*
X75933158Y-166461777D01*
X75933155Y-166461776D01*
X75833950Y-166446064D01*
X75641888Y-166415645D01*
X75571158Y-166412433D01*
X75549735Y-166411460D01*
X75549729Y-166411460D01*
X75548631Y-166411410D01*
X75362361Y-166411410D01*
X75140474Y-166426148D01*
X75000770Y-166454317D01*
X74851403Y-166484434D01*
X74851398Y-166484435D01*
X74848176Y-166485085D01*
X74813573Y-166497000D01*
X74569352Y-166581092D01*
X74569346Y-166581094D01*
X74566240Y-166582164D01*
X74563306Y-166583633D01*
X74563297Y-166583637D01*
X74387961Y-166671439D01*
X74299619Y-166715677D01*
X74052999Y-166883280D01*
X74050553Y-166885467D01*
X73911638Y-167009671D01*
X73855655Y-167034362D01*
X73795852Y-167021432D01*
X73755070Y-166975820D01*
X73747498Y-166922946D01*
X73747604Y-166922145D01*
X73753058Y-166880716D01*
X73734001Y-166735962D01*
X73678128Y-166601074D01*
X73589247Y-166485242D01*
X73575476Y-166474675D01*
X73478562Y-166400309D01*
X73478558Y-166400307D01*
X73473416Y-166396361D01*
X73338527Y-166340488D01*
X73193773Y-166321431D01*
X73049019Y-166340488D01*
X73043022Y-166342972D01*
X73031395Y-166347788D01*
X72914131Y-166396361D01*
X72798299Y-166485242D01*
X72709418Y-166601074D01*
X72706935Y-166607069D01*
X72662613Y-166714070D01*
X72622876Y-166760596D01*
X72563381Y-166774879D01*
X72506853Y-166751464D01*
X72479685Y-166714070D01*
X72434882Y-166605908D01*
X72431755Y-166598358D01*
X72349358Y-166490976D01*
X72328900Y-166430709D01*
X72328900Y-165044641D01*
X72330118Y-165029160D01*
X72330325Y-165027853D01*
X72333655Y-165006819D01*
X72332435Y-164999121D01*
X72332435Y-164991333D01*
X72333137Y-164991333D01*
X72332941Y-164976262D01*
X72333495Y-164972052D01*
X72359833Y-164916825D01*
X72418727Y-164886815D01*
X72428960Y-164885468D01*
X72483954Y-164878228D01*
X72618843Y-164822355D01*
X72623985Y-164818409D01*
X72623989Y-164818407D01*
X72729528Y-164737423D01*
X72729529Y-164737422D01*
X72734674Y-164733474D01*
X72823555Y-164617642D01*
X72879428Y-164482754D01*
X72898485Y-164338000D01*
X72879428Y-164193246D01*
X72823555Y-164058358D01*
X72734674Y-163942526D01*
X72708326Y-163922308D01*
X72623989Y-163857593D01*
X72623985Y-163857591D01*
X72618843Y-163853645D01*
X72483954Y-163797772D01*
X72339200Y-163778715D01*
X72194446Y-163797772D01*
X72188449Y-163800256D01*
X72162270Y-163811100D01*
X72059558Y-163853645D01*
X71943726Y-163942526D01*
X71854845Y-164058358D01*
X71798972Y-164193246D01*
X71798125Y-164199681D01*
X71797929Y-164200412D01*
X71764605Y-164251726D01*
X71707483Y-164273653D01*
X71648383Y-164257817D01*
X71609878Y-164210267D01*
X71603302Y-164174789D01*
X71603302Y-163554871D01*
X71621906Y-163497100D01*
X71708355Y-163376794D01*
X71708356Y-163376792D01*
X71711839Y-163371945D01*
X71716400Y-163360601D01*
X71761374Y-163248723D01*
X71774943Y-163214969D01*
X71798782Y-163047472D01*
X71798825Y-163043404D01*
X71798902Y-163035959D01*
X71798936Y-163032726D01*
X71778611Y-162864766D01*
X71718808Y-162706504D01*
X71706537Y-162688649D01*
X71626361Y-162571991D01*
X71626358Y-162571988D01*
X71622981Y-162567074D01*
X71496661Y-162454527D01*
X71486362Y-162449074D01*
X71352415Y-162378152D01*
X71352412Y-162378151D01*
X71347141Y-162375360D01*
X71250785Y-162351157D01*
X71188843Y-162335598D01*
X71188840Y-162335598D01*
X71183053Y-162334144D01*
X71097626Y-162333697D01*
X71019837Y-162333289D01*
X71019835Y-162333289D01*
X71013871Y-162333258D01*
X70986993Y-162339711D01*
X70925987Y-162354357D01*
X70879771Y-162354358D01*
X70866436Y-162351157D01*
X70862557Y-162350852D01*
X70862551Y-162350851D01*
X70794674Y-162345513D01*
X70786018Y-162344447D01*
X70754573Y-162339159D01*
X70754570Y-162339159D01*
X70750796Y-162338524D01*
X70744261Y-162338445D01*
X70742064Y-162338418D01*
X70742061Y-162338418D01*
X70738244Y-162338372D01*
X70734463Y-162338914D01*
X70734459Y-162338914D01*
X70708735Y-162342600D01*
X70694694Y-162343601D01*
X70674895Y-162343601D01*
X70616704Y-162324694D01*
X70580740Y-162275194D01*
X70580740Y-162214008D01*
X70614627Y-162166059D01*
X70643785Y-162143685D01*
X70648934Y-162139734D01*
X70692289Y-162083232D01*
X70742715Y-162048577D01*
X70770832Y-162044500D01*
X73487500Y-162044500D01*
X73545691Y-162063407D01*
G37*
G04 #@! TD.AperFunction*
G04 #@! TA.AperFunction,NonConductor*
G36*
X81027181Y-164291348D02*
G01*
X81050595Y-164347876D01*
X81050900Y-164355642D01*
X81050900Y-167412662D01*
X81049527Y-167429092D01*
X81045825Y-167451089D01*
X81045671Y-167463641D01*
X81049630Y-167491294D01*
X81050324Y-167497563D01*
X81054338Y-167548610D01*
X81040051Y-167608104D01*
X80993522Y-167647838D01*
X80932525Y-167652634D01*
X80918648Y-167648198D01*
X80827416Y-167611430D01*
X80800543Y-167606182D01*
X80627805Y-167572448D01*
X80627798Y-167572447D01*
X80624310Y-167571766D01*
X80618871Y-167571500D01*
X80485629Y-167571500D01*
X80427438Y-167552593D01*
X80391474Y-167503093D01*
X80391474Y-167441907D01*
X80427438Y-167392407D01*
X80447743Y-167381036D01*
X80492843Y-167362355D01*
X80497985Y-167358409D01*
X80497989Y-167358407D01*
X80603528Y-167277423D01*
X80603529Y-167277422D01*
X80608674Y-167273474D01*
X80697555Y-167157642D01*
X80753428Y-167022754D01*
X80770321Y-166894438D01*
X80771638Y-166884434D01*
X80772485Y-166878000D01*
X80753428Y-166733246D01*
X80697555Y-166598358D01*
X80615158Y-166490976D01*
X80594700Y-166430709D01*
X80594700Y-164682518D01*
X80595919Y-164667031D01*
X80598236Y-164652402D01*
X80599455Y-164644706D01*
X80598236Y-164637009D01*
X80598236Y-164629466D01*
X80597767Y-164613545D01*
X80603927Y-164550990D01*
X80607712Y-164531958D01*
X80632220Y-164451168D01*
X80639646Y-164433239D01*
X80679443Y-164358786D01*
X80690226Y-164342649D01*
X80704772Y-164324925D01*
X80756303Y-164291938D01*
X80768377Y-164289578D01*
X80791625Y-164286517D01*
X80891976Y-164273306D01*
X80909595Y-164266008D01*
X80914016Y-164264177D01*
X80975013Y-164259378D01*
X81027181Y-164291348D01*
G37*
G04 #@! TD.AperFunction*
G04 #@! TA.AperFunction,NonConductor*
G36*
X80055722Y-167415785D02*
G01*
X80056183Y-167414065D01*
X80062448Y-167415744D01*
X80068446Y-167418228D01*
X80167052Y-167431210D01*
X80222276Y-167457550D01*
X80251471Y-167511320D01*
X80243485Y-167571982D01*
X80201368Y-167616365D01*
X80181998Y-167624358D01*
X80139241Y-167636902D01*
X80113420Y-167644477D01*
X80109235Y-167646632D01*
X80109231Y-167646634D01*
X79930365Y-167738755D01*
X79869975Y-167748590D01*
X79815338Y-167721050D01*
X79787323Y-167666655D01*
X79796631Y-167606182D01*
X79815033Y-167580738D01*
X79957394Y-167438378D01*
X80011910Y-167410601D01*
X80055722Y-167415785D01*
G37*
G04 #@! TD.AperFunction*
G04 #@! TA.AperFunction,NonConductor*
G36*
X78429647Y-167115346D02*
G01*
X78452286Y-167146507D01*
X78453117Y-167146027D01*
X78456362Y-167151647D01*
X78458845Y-167157642D01*
X78547726Y-167273474D01*
X78552871Y-167277422D01*
X78552872Y-167277423D01*
X78658411Y-167358407D01*
X78658415Y-167358409D01*
X78663557Y-167362355D01*
X78669551Y-167364838D01*
X78669553Y-167364839D01*
X78732306Y-167390832D01*
X78778832Y-167430568D01*
X78793116Y-167490063D01*
X78769701Y-167546591D01*
X78764425Y-167552300D01*
X77842697Y-168474028D01*
X77830881Y-168484118D01*
X77827009Y-168486931D01*
X77768818Y-168505837D01*
X77710628Y-168486928D01*
X77674666Y-168437427D01*
X77670198Y-168415465D01*
X77661419Y-168315115D01*
X77661418Y-168315107D01*
X77661132Y-168311841D01*
X77636689Y-168202490D01*
X77596803Y-168024048D01*
X77596802Y-168024046D01*
X77596086Y-168020841D01*
X77591412Y-168008136D01*
X77500156Y-167760111D01*
X77493125Y-167741000D01*
X77491599Y-167738105D01*
X77491592Y-167738090D01*
X77358718Y-167486073D01*
X77348303Y-167425781D01*
X77375317Y-167370882D01*
X77429440Y-167342346D01*
X77490000Y-167351072D01*
X77496954Y-167355392D01*
X77497088Y-167355160D01*
X77502711Y-167358406D01*
X77507857Y-167362355D01*
X77578468Y-167391603D01*
X77635709Y-167415313D01*
X77642746Y-167418228D01*
X77787500Y-167437285D01*
X77932254Y-167418228D01*
X77939292Y-167415313D01*
X77996532Y-167391603D01*
X78067143Y-167362355D01*
X78072285Y-167358409D01*
X78072289Y-167358407D01*
X78177828Y-167277423D01*
X78177829Y-167277422D01*
X78182974Y-167273474D01*
X78271855Y-167157642D01*
X78274338Y-167151647D01*
X78277583Y-167146027D01*
X78278946Y-167146814D01*
X78313624Y-167106213D01*
X78373119Y-167091930D01*
X78429647Y-167115346D01*
G37*
G04 #@! TD.AperFunction*
G04 #@! TA.AperFunction,NonConductor*
G36*
X69583770Y-164085719D02*
G01*
X69606097Y-164089255D01*
X69611865Y-164088341D01*
X69669117Y-164106943D01*
X69705081Y-164156443D01*
X69709078Y-164174111D01*
X69716272Y-164228754D01*
X69772145Y-164363642D01*
X69861026Y-164479474D01*
X69866171Y-164483422D01*
X69866172Y-164483423D01*
X69971711Y-164564407D01*
X69971715Y-164564409D01*
X69976857Y-164568355D01*
X70111746Y-164624228D01*
X70256500Y-164643285D01*
X70401254Y-164624228D01*
X70407252Y-164621744D01*
X70407254Y-164621743D01*
X70449417Y-164604279D01*
X70510414Y-164599479D01*
X70562583Y-164631448D01*
X70585997Y-164687976D01*
X70586302Y-164695743D01*
X70586302Y-166335145D01*
X70585945Y-166342782D01*
X70584881Y-166347788D01*
X70585013Y-166353542D01*
X70584476Y-166359277D01*
X70584118Y-166359243D01*
X70583504Y-166367565D01*
X70582356Y-166374269D01*
X70581165Y-166381225D01*
X70581973Y-166388231D01*
X70581973Y-166388233D01*
X70582735Y-166394839D01*
X70583077Y-166414010D01*
X70582913Y-166416078D01*
X70581993Y-166427677D01*
X70583431Y-166434583D01*
X70583824Y-166440793D01*
X70583788Y-166441628D01*
X70583396Y-166441652D01*
X70583659Y-166444610D01*
X70583601Y-166445964D01*
X70584257Y-166448626D01*
X70584350Y-166450494D01*
X70584244Y-166454317D01*
X70584728Y-166458110D01*
X70585304Y-166462625D01*
X70586100Y-166475156D01*
X70586100Y-166852164D01*
X70584729Y-166868585D01*
X70581024Y-166890613D01*
X70580871Y-166903165D01*
X70581413Y-166906947D01*
X70581413Y-166906950D01*
X70583051Y-166918383D01*
X70583839Y-166925943D01*
X70594725Y-167091930D01*
X70597223Y-167130024D01*
X70641584Y-167353001D01*
X70642624Y-167356065D01*
X70642625Y-167356068D01*
X70646524Y-167367553D01*
X70668915Y-167433505D01*
X70671400Y-167440826D01*
X70672203Y-167502006D01*
X70636892Y-167551974D01*
X70578954Y-167571643D01*
X70558680Y-167569817D01*
X70469766Y-167552453D01*
X70469759Y-167552452D01*
X70466271Y-167551771D01*
X70460730Y-167551500D01*
X70305341Y-167551500D01*
X70172534Y-167564171D01*
X70152889Y-167566045D01*
X70152888Y-167566045D01*
X70148194Y-167566493D01*
X69945958Y-167625823D01*
X69758590Y-167722324D01*
X69725152Y-167748590D01*
X69620255Y-167830988D01*
X69592851Y-167852514D01*
X69589765Y-167856070D01*
X69589761Y-167856074D01*
X69514168Y-167943187D01*
X69454719Y-168011696D01*
X69349181Y-168194126D01*
X69280043Y-168393222D01*
X69279369Y-168397874D01*
X69279367Y-168397880D01*
X69268327Y-168474028D01*
X69258994Y-168538400D01*
X69257456Y-168549005D01*
X69230394Y-168603881D01*
X69176246Y-168632370D01*
X69115694Y-168623591D01*
X69086125Y-168601284D01*
X69078326Y-168592679D01*
X69072163Y-168585169D01*
X68885174Y-168333040D01*
X68879777Y-168324962D01*
X68718405Y-168055727D01*
X68713825Y-168047158D01*
X68579616Y-167763393D01*
X68575898Y-167754418D01*
X68470149Y-167458866D01*
X68467329Y-167449569D01*
X68391058Y-167145074D01*
X68389163Y-167135545D01*
X68343106Y-166825055D01*
X68342153Y-166815387D01*
X68329499Y-166557808D01*
X68328137Y-166530080D01*
X68329237Y-166509744D01*
X68331255Y-166497000D01*
X68327719Y-166474675D01*
X68326500Y-166459188D01*
X68326500Y-165781146D01*
X68345407Y-165722955D01*
X68390748Y-165688446D01*
X68394773Y-165686937D01*
X68439764Y-165670071D01*
X68555404Y-165583404D01*
X68642071Y-165467764D01*
X68692798Y-165332448D01*
X68699500Y-165270756D01*
X68699500Y-164675244D01*
X68692798Y-164613552D01*
X68642071Y-164478236D01*
X68581467Y-164397372D01*
X68561699Y-164339469D01*
X68581467Y-164278628D01*
X68592297Y-164264177D01*
X68642071Y-164197764D01*
X68660446Y-164148748D01*
X68698577Y-164100897D01*
X68753146Y-164084500D01*
X69568285Y-164084500D01*
X69583770Y-164085719D01*
G37*
G04 #@! TD.AperFunction*
G04 #@! TA.AperFunction,NonConductor*
G36*
X72634320Y-167007252D02*
G01*
X72661488Y-167044646D01*
X72709418Y-167160358D01*
X72798299Y-167276190D01*
X72803444Y-167280138D01*
X72803445Y-167280139D01*
X72908984Y-167361123D01*
X72908988Y-167361125D01*
X72914130Y-167365071D01*
X73049019Y-167420944D01*
X73193773Y-167440001D01*
X73338527Y-167420944D01*
X73352121Y-167415313D01*
X73413118Y-167410511D01*
X73465288Y-167442479D01*
X73488704Y-167499006D01*
X73476430Y-167555071D01*
X73476051Y-167555749D01*
X73474262Y-167558504D01*
X73472853Y-167561472D01*
X73472851Y-167561475D01*
X73379061Y-167758997D01*
X73346362Y-167827862D01*
X73255209Y-168111769D01*
X73229257Y-168256007D01*
X73204512Y-168393536D01*
X73202406Y-168405238D01*
X73202257Y-168408525D01*
X73191855Y-168637575D01*
X73170327Y-168694848D01*
X73119247Y-168728530D01*
X73058124Y-168725754D01*
X73008544Y-168684809D01*
X72912505Y-168528078D01*
X72912502Y-168528073D01*
X72910475Y-168524766D01*
X72907954Y-168521815D01*
X72907951Y-168521810D01*
X72802499Y-168398339D01*
X72797132Y-168391464D01*
X72788604Y-168379486D01*
X72786389Y-168376375D01*
X72777622Y-168367391D01*
X72774567Y-168365101D01*
X72774562Y-168365097D01*
X72753749Y-168349499D01*
X72743118Y-168340283D01*
X71994554Y-167591719D01*
X71966777Y-167537202D01*
X71976348Y-167476770D01*
X72019613Y-167433505D01*
X72051636Y-167423562D01*
X72092154Y-167418228D01*
X72099192Y-167415313D01*
X72156432Y-167391603D01*
X72227043Y-167362355D01*
X72232185Y-167358409D01*
X72232189Y-167358407D01*
X72337728Y-167277423D01*
X72337729Y-167277422D01*
X72342874Y-167273474D01*
X72431755Y-167157642D01*
X72478560Y-167044646D01*
X72518297Y-166998120D01*
X72577792Y-166983837D01*
X72634320Y-167007252D01*
G37*
G04 #@! TD.AperFunction*
G04 #@! TA.AperFunction,NonConductor*
G36*
X79567533Y-167924981D02*
G01*
X79610798Y-167968246D01*
X79620369Y-168028678D01*
X79608281Y-168062765D01*
X79527448Y-168202490D01*
X79512907Y-168244365D01*
X79461105Y-168393536D01*
X79461104Y-168393541D01*
X79459562Y-168397981D01*
X79429868Y-168602781D01*
X79439436Y-168809502D01*
X79487921Y-169010685D01*
X79489871Y-169014973D01*
X79489871Y-169014974D01*
X79494596Y-169025365D01*
X79573574Y-169199069D01*
X79576297Y-169202907D01*
X79576300Y-169202913D01*
X79651414Y-169308804D01*
X79669660Y-169367205D01*
X79650093Y-169425178D01*
X79600189Y-169460578D01*
X79554357Y-169463523D01*
X79553520Y-169463310D01*
X79549867Y-169462942D01*
X79549866Y-169462942D01*
X79488026Y-169456715D01*
X79336928Y-169441500D01*
X79181794Y-169441500D01*
X79094780Y-169447966D01*
X78991595Y-169455634D01*
X78991589Y-169455635D01*
X78987941Y-169455906D01*
X78733595Y-169513458D01*
X78730178Y-169514787D01*
X78730174Y-169514788D01*
X78536330Y-169590170D01*
X78490550Y-169607973D01*
X78463772Y-169623278D01*
X78326825Y-169701550D01*
X78266921Y-169714010D01*
X78211135Y-169688880D01*
X78180774Y-169635759D01*
X78178911Y-169609123D01*
X78187855Y-169472740D01*
X78188862Y-169463730D01*
X78190293Y-169454698D01*
X78190293Y-169454695D01*
X78191346Y-169448048D01*
X78191344Y-169448034D01*
X78191346Y-169448020D01*
X78190293Y-169441374D01*
X78190311Y-169439002D01*
X78190195Y-169435064D01*
X78190141Y-169434836D01*
X78190129Y-169433300D01*
X78190143Y-169433300D01*
X78189658Y-169416868D01*
X78194483Y-169367858D01*
X78196712Y-169345227D01*
X78200497Y-169326193D01*
X78203282Y-169317014D01*
X78227650Y-169236678D01*
X78235076Y-169218750D01*
X78279169Y-169136255D01*
X78289950Y-169120121D01*
X78335584Y-169064515D01*
X78347304Y-169053466D01*
X78352539Y-169048231D01*
X78358847Y-169043648D01*
X78372130Y-169025364D01*
X78382219Y-169013551D01*
X79452584Y-167943187D01*
X79507101Y-167915410D01*
X79567533Y-167924981D01*
G37*
G04 #@! TD.AperFunction*
G04 #@! TA.AperFunction,NonConductor*
G36*
X81323646Y-169489231D02*
G01*
X81361442Y-169537347D01*
X81367501Y-169571451D01*
X81367501Y-170287931D01*
X81366322Y-170303163D01*
X81362310Y-170328929D01*
X81365155Y-170350691D01*
X81365871Y-170368374D01*
X81353359Y-170623062D01*
X81352406Y-170632731D01*
X81319602Y-170853873D01*
X81312054Y-170904761D01*
X81310833Y-170912989D01*
X81308938Y-170922516D01*
X81304820Y-170938956D01*
X81240093Y-171197360D01*
X81237273Y-171206656D01*
X81193656Y-171328560D01*
X81156250Y-171376980D01*
X81097528Y-171394166D01*
X81039919Y-171373554D01*
X81005429Y-171323016D01*
X81001451Y-171293914D01*
X81004090Y-171092254D01*
X81004138Y-171088590D01*
X81002983Y-171080099D01*
X80983774Y-170938956D01*
X80968972Y-170830196D01*
X80896000Y-170579838D01*
X80798516Y-170368380D01*
X80788361Y-170346351D01*
X80788358Y-170346345D01*
X80786823Y-170343016D01*
X80643842Y-170124933D01*
X80634089Y-170114005D01*
X80472639Y-169933116D01*
X80472638Y-169933115D01*
X80470196Y-169930379D01*
X80452443Y-169915614D01*
X80419794Y-169863870D01*
X80423796Y-169802815D01*
X80462920Y-169755773D01*
X80515748Y-169740500D01*
X80569704Y-169740500D01*
X80702708Y-169727810D01*
X80719312Y-169726226D01*
X80719313Y-169726226D01*
X80724007Y-169725778D01*
X80922580Y-169667523D01*
X80926765Y-169665368D01*
X80926769Y-169665366D01*
X81102368Y-169574927D01*
X81106556Y-169572770D01*
X81207346Y-169493598D01*
X81264787Y-169472521D01*
X81323646Y-169489231D01*
G37*
G04 #@! TD.AperFunction*
G04 #@! TA.AperFunction,NonConductor*
G36*
X71606038Y-168648888D02*
G01*
X71632255Y-168667675D01*
X72021367Y-169056788D01*
X72031304Y-169068392D01*
X72046683Y-169089444D01*
X72052269Y-169093738D01*
X72052273Y-169093742D01*
X72054720Y-169095623D01*
X72072924Y-169113844D01*
X72093064Y-169140091D01*
X72105987Y-169162476D01*
X72125055Y-169208515D01*
X72131744Y-169233480D01*
X72135023Y-169258397D01*
X72135469Y-169279900D01*
X72134893Y-169283324D01*
X72134821Y-169289270D01*
X72134779Y-169289540D01*
X72134814Y-169289811D01*
X72134741Y-169295876D01*
X72135281Y-169299647D01*
X72135282Y-169299659D01*
X72136871Y-169310752D01*
X72137565Y-169317014D01*
X72141378Y-169365420D01*
X72152063Y-169501091D01*
X72152970Y-169504867D01*
X72152970Y-169504869D01*
X72172636Y-169586767D01*
X72200127Y-169701252D01*
X72209737Y-169724450D01*
X72268148Y-169865450D01*
X72278910Y-169891430D01*
X72280938Y-169894740D01*
X72280940Y-169894743D01*
X72354849Y-170015343D01*
X72386472Y-170066944D01*
X72436002Y-170124933D01*
X72494455Y-170193370D01*
X72499809Y-170200228D01*
X72510559Y-170215326D01*
X72519327Y-170224309D01*
X72522387Y-170226602D01*
X72543194Y-170242196D01*
X72553826Y-170251413D01*
X73644050Y-171341637D01*
X73671827Y-171396154D01*
X73662256Y-171456586D01*
X73618991Y-171499851D01*
X73558559Y-171509422D01*
X73546649Y-171506774D01*
X73518903Y-171498781D01*
X73509108Y-171497117D01*
X73289748Y-171459850D01*
X73289745Y-171459850D01*
X73287004Y-171459384D01*
X73118477Y-171449923D01*
X73115509Y-171449711D01*
X73113069Y-171449500D01*
X73111015Y-171449500D01*
X73110315Y-171449465D01*
X73091360Y-171448401D01*
X73071377Y-171447279D01*
X73061446Y-171446217D01*
X73059848Y-171445964D01*
X73052151Y-171444745D01*
X73044456Y-171445964D01*
X73029829Y-171448281D01*
X73014340Y-171449500D01*
X72796112Y-171449500D01*
X72780625Y-171448281D01*
X72772531Y-171446999D01*
X72758300Y-171444745D01*
X72750604Y-171445964D01*
X72750603Y-171445964D01*
X72746625Y-171446594D01*
X72725587Y-171447657D01*
X72535362Y-171436974D01*
X72524340Y-171435733D01*
X72309682Y-171399260D01*
X72298877Y-171396795D01*
X72134169Y-171349344D01*
X72089649Y-171336518D01*
X72079171Y-171332851D01*
X71878017Y-171249531D01*
X71868020Y-171244717D01*
X71741182Y-171174617D01*
X71677460Y-171139399D01*
X71668060Y-171133493D01*
X71490489Y-171007502D01*
X71481809Y-171000580D01*
X71462331Y-170983173D01*
X71371656Y-170902142D01*
X71339767Y-170873644D01*
X71325645Y-170858020D01*
X71318681Y-170848434D01*
X71300400Y-170835153D01*
X71288588Y-170825065D01*
X70388876Y-169925353D01*
X70361099Y-169870836D01*
X70370670Y-169810404D01*
X70413935Y-169767139D01*
X70449477Y-169756797D01*
X70563111Y-169745955D01*
X70563112Y-169745955D01*
X70567806Y-169745507D01*
X70770042Y-169686177D01*
X70841818Y-169649210D01*
X70953226Y-169591831D01*
X70953227Y-169591831D01*
X70957410Y-169589676D01*
X71070184Y-169501091D01*
X71119441Y-169462399D01*
X71119443Y-169462397D01*
X71123149Y-169459486D01*
X71126235Y-169455930D01*
X71126239Y-169455926D01*
X71258192Y-169303864D01*
X71258193Y-169303863D01*
X71261281Y-169300304D01*
X71366819Y-169117874D01*
X71435957Y-168918778D01*
X71436632Y-168914124D01*
X71436635Y-168914111D01*
X71464276Y-168723472D01*
X71491337Y-168668597D01*
X71545485Y-168640108D01*
X71606038Y-168648888D01*
G37*
G04 #@! TD.AperFunction*
G04 #@! TA.AperFunction,NonConductor*
G36*
X77460945Y-170825319D02*
G01*
X77504210Y-170868584D01*
X77513713Y-170929443D01*
X77496823Y-171033154D01*
X77495275Y-171042656D01*
X77495227Y-171046319D01*
X77495227Y-171046320D01*
X77494421Y-171107923D01*
X77491862Y-171303410D01*
X77492356Y-171307038D01*
X77492356Y-171307042D01*
X77506397Y-171410211D01*
X77527028Y-171561804D01*
X77594571Y-171793534D01*
X77596519Y-171800219D01*
X77594650Y-171861376D01*
X77557191Y-171909755D01*
X77498450Y-171926876D01*
X77463592Y-171919388D01*
X77452848Y-171914938D01*
X77272701Y-171840328D01*
X76977243Y-171755224D01*
X76974506Y-171754759D01*
X76974501Y-171754758D01*
X76676858Y-171704203D01*
X76676857Y-171704203D01*
X76674114Y-171703737D01*
X76671347Y-171703582D01*
X76671340Y-171703581D01*
X76649411Y-171702351D01*
X76592371Y-171680213D01*
X76559236Y-171628776D01*
X76562664Y-171567687D01*
X76601344Y-171520279D01*
X76605591Y-171517880D01*
X76605512Y-171517743D01*
X76608322Y-171516121D01*
X76611223Y-171514690D01*
X76614312Y-171512626D01*
X76761687Y-171414146D01*
X76761692Y-171414142D01*
X76764380Y-171412346D01*
X76766810Y-171410215D01*
X76766815Y-171410211D01*
X76846885Y-171339986D01*
X76852011Y-171336116D01*
X76853377Y-171335460D01*
X76857671Y-171331850D01*
X76866152Y-171323369D01*
X76870877Y-171318944D01*
X76877005Y-171313569D01*
X76885168Y-171306410D01*
X76892246Y-171300755D01*
X76904114Y-171292132D01*
X76917391Y-171273856D01*
X76927482Y-171262039D01*
X77345996Y-170843525D01*
X77400513Y-170815748D01*
X77460945Y-170825319D01*
G37*
G04 #@! TD.AperFunction*
G04 #@! TA.AperFunction,NonConductor*
G36*
X79924967Y-172888723D02*
G01*
X79947143Y-172945749D01*
X79931565Y-173004918D01*
X79918306Y-173021365D01*
X79505293Y-173434378D01*
X79492708Y-173445022D01*
X79477638Y-173455751D01*
X79477634Y-173455754D01*
X79474522Y-173457970D01*
X79470223Y-173462165D01*
X79470002Y-173462327D01*
X79469835Y-173462544D01*
X79465538Y-173466738D01*
X79463245Y-173469798D01*
X79461980Y-173471239D01*
X79442678Y-173488181D01*
X79442478Y-173488315D01*
X79406686Y-173503167D01*
X79394313Y-173505628D01*
X79355688Y-173505628D01*
X79344501Y-173503403D01*
X79324456Y-173492530D01*
X79313156Y-173490595D01*
X79293292Y-173475812D01*
X79293229Y-173475723D01*
X79289034Y-173471424D01*
X79288872Y-173471203D01*
X79288654Y-173471036D01*
X79284461Y-173466739D01*
X79260596Y-173448853D01*
X79249965Y-173439637D01*
X78912559Y-173102231D01*
X78884782Y-173047714D01*
X78894353Y-172987282D01*
X78937618Y-172944017D01*
X78992482Y-172933725D01*
X79159072Y-172950500D01*
X79314206Y-172950500D01*
X79401444Y-172944017D01*
X79504405Y-172936366D01*
X79504411Y-172936365D01*
X79508059Y-172936094D01*
X79762405Y-172878542D01*
X79765822Y-172877213D01*
X79765826Y-172877212D01*
X79812421Y-172859092D01*
X79873508Y-172855624D01*
X79924967Y-172888723D01*
G37*
G04 #@! TD.AperFunction*
M02*
