G04 #@! TF.GenerationSoftware,KiCad,Pcbnew,(6.0.7-1)-1*
G04 #@! TF.CreationDate,2022-08-17T19:26:05+01:00*
G04 #@! TF.ProjectId,amoeba-king,616d6f65-6261-42d6-9b69-6e672e6b6963,rev?*
G04 #@! TF.SameCoordinates,Original*
G04 #@! TF.FileFunction,Soldermask,Top*
G04 #@! TF.FilePolarity,Negative*
%FSLAX46Y46*%
G04 Gerber Fmt 4.6, Leading zero omitted, Abs format (unit mm)*
G04 Created by KiCad (PCBNEW (6.0.7-1)-1) date 2022-08-17 19:26:05*
%MOMM*%
%LPD*%
G01*
G04 APERTURE LIST*
G04 Aperture macros list*
%AMRoundRect*
0 Rectangle with rounded corners*
0 $1 Rounding radius*
0 $2 $3 $4 $5 $6 $7 $8 $9 X,Y pos of 4 corners*
0 Add a 4 corners polygon primitive as box body*
4,1,4,$2,$3,$4,$5,$6,$7,$8,$9,$2,$3,0*
0 Add four circle primitives for the rounded corners*
1,1,$1+$1,$2,$3*
1,1,$1+$1,$4,$5*
1,1,$1+$1,$6,$7*
1,1,$1+$1,$8,$9*
0 Add four rect primitives between the rounded corners*
20,1,$1+$1,$2,$3,$4,$5,0*
20,1,$1+$1,$4,$5,$6,$7,0*
20,1,$1+$1,$6,$7,$8,$9,0*
20,1,$1+$1,$8,$9,$2,$3,0*%
G04 Aperture macros list end*
%ADD10C,0.131817*%
%ADD11C,3.000000*%
%ADD12C,3.980180*%
%ADD13C,1.660000*%
%ADD14C,1.700000*%
%ADD15RoundRect,0.250000X-0.250000X0.250000X-0.250000X-0.250000X0.250000X-0.250000X0.250000X0.250000X0*%
%ADD16RoundRect,0.250000X-0.250000X-0.250000X0.250000X-0.250000X0.250000X0.250000X-0.250000X0.250000X0*%
%ADD17RoundRect,0.250000X0.250000X-0.250000X0.250000X0.250000X-0.250000X0.250000X-0.250000X-0.250000X0*%
G04 APERTURE END LIST*
G36*
X68813776Y-170919581D02*
G01*
X68837664Y-170922227D01*
X68861002Y-170926558D01*
X68883727Y-170932513D01*
X68905776Y-170940028D01*
X68927086Y-170949040D01*
X68947594Y-170959486D01*
X68967236Y-170971302D01*
X68985950Y-170984426D01*
X69003672Y-170998794D01*
X69020339Y-171014343D01*
X69035889Y-171031010D01*
X69050257Y-171048732D01*
X69063380Y-171067446D01*
X69075197Y-171087089D01*
X69085642Y-171107596D01*
X69094654Y-171128907D01*
X69102169Y-171150956D01*
X69108124Y-171173681D01*
X69112456Y-171197019D01*
X69115101Y-171220907D01*
X69115997Y-171245281D01*
X69114905Y-171271233D01*
X69111777Y-171296875D01*
X69106655Y-171322093D01*
X69099581Y-171346776D01*
X69090597Y-171370809D01*
X69079747Y-171394080D01*
X69067072Y-171416475D01*
X69052614Y-171437882D01*
X69036415Y-171458188D01*
X69040672Y-171484523D01*
X69044954Y-171510955D01*
X69049318Y-171537407D01*
X69053826Y-171563801D01*
X69058536Y-171590061D01*
X69063507Y-171616107D01*
X69068800Y-171641863D01*
X69074474Y-171667251D01*
X69080588Y-171692193D01*
X69087202Y-171716613D01*
X69094375Y-171740432D01*
X69102166Y-171763573D01*
X69110636Y-171785958D01*
X69119843Y-171807509D01*
X69129847Y-171828150D01*
X69140707Y-171847803D01*
X69152483Y-171866389D01*
X69165235Y-171883832D01*
X69179021Y-171900054D01*
X69193902Y-171914978D01*
X69209937Y-171928525D01*
X69227184Y-171940619D01*
X69245705Y-171951181D01*
X69265156Y-171952619D01*
X69285462Y-171954676D01*
X69306464Y-171957180D01*
X69327998Y-171959959D01*
X69349906Y-171962841D01*
X69372025Y-171965654D01*
X69394194Y-171968227D01*
X69416254Y-171970387D01*
X69438043Y-171971963D01*
X69459399Y-171972783D01*
X69480163Y-171972675D01*
X69500172Y-171971468D01*
X69519267Y-171968989D01*
X69537286Y-171965066D01*
X69554068Y-171959528D01*
X69569453Y-171952204D01*
X69583279Y-171942920D01*
X69595386Y-171931506D01*
X69605612Y-171917789D01*
X69613796Y-171901597D01*
X69619779Y-171882760D01*
X69623398Y-171861104D01*
X69624493Y-171836459D01*
X69625493Y-171811708D01*
X69628443Y-171787507D01*
X69633264Y-171763935D01*
X69639878Y-171741070D01*
X69648209Y-171718989D01*
X69658178Y-171697769D01*
X69669708Y-171677489D01*
X69682721Y-171658226D01*
X69697139Y-171640057D01*
X69712885Y-171623061D01*
X69729881Y-171607315D01*
X69748050Y-171592897D01*
X69767313Y-171579884D01*
X69787593Y-171568354D01*
X69808813Y-171558385D01*
X69830894Y-171550054D01*
X69853759Y-171543440D01*
X69877331Y-171538619D01*
X69901532Y-171535669D01*
X69926283Y-171534669D01*
X69951035Y-171535669D01*
X69975235Y-171538619D01*
X69998807Y-171543440D01*
X70021672Y-171550054D01*
X70043754Y-171558385D01*
X70064973Y-171568354D01*
X70085253Y-171579884D01*
X70104517Y-171592897D01*
X70122685Y-171607315D01*
X70139681Y-171623061D01*
X70155427Y-171640057D01*
X70169845Y-171658226D01*
X70182858Y-171677489D01*
X70194388Y-171697769D01*
X70204357Y-171718989D01*
X70212688Y-171741070D01*
X70219303Y-171763935D01*
X70224124Y-171787507D01*
X70227073Y-171811708D01*
X70228073Y-171836459D01*
X70216091Y-171861077D01*
X70204422Y-171883754D01*
X70193055Y-171904610D01*
X70181981Y-171923764D01*
X70171190Y-171941336D01*
X70160671Y-171957444D01*
X70150415Y-171972207D01*
X70140411Y-171985746D01*
X70130650Y-171998178D01*
X70121121Y-172009623D01*
X70111814Y-172020200D01*
X70102719Y-172030029D01*
X70093826Y-172039228D01*
X70085125Y-172047917D01*
X70076606Y-172056215D01*
X70068259Y-172064241D01*
X70060073Y-172072113D01*
X70052040Y-172079953D01*
X70044147Y-172087877D01*
X70036386Y-172096007D01*
X70028747Y-172104460D01*
X70021218Y-172113356D01*
X70013791Y-172122814D01*
X70006456Y-172132953D01*
X69999201Y-172143893D01*
X69992017Y-172155753D01*
X69984894Y-172168651D01*
X69977822Y-172182707D01*
X69970791Y-172198040D01*
X69963790Y-172214770D01*
X69956810Y-172233014D01*
X69949840Y-172252894D01*
X69942871Y-172274527D01*
X69935892Y-172298033D01*
X69928894Y-172323531D01*
X69921865Y-172351140D01*
X69914797Y-172380979D01*
X69907679Y-172413168D01*
X69902951Y-172438694D01*
X69897479Y-172464830D01*
X69891326Y-172491497D01*
X69884555Y-172518617D01*
X69877230Y-172546109D01*
X69869415Y-172573895D01*
X69861173Y-172601894D01*
X69852567Y-172630029D01*
X69843662Y-172658219D01*
X69834520Y-172686386D01*
X69825205Y-172714449D01*
X69815782Y-172742330D01*
X69806312Y-172769949D01*
X69796861Y-172797227D01*
X69787491Y-172824085D01*
X69778266Y-172850444D01*
X69769250Y-172876224D01*
X69760505Y-172901345D01*
X69752097Y-172925729D01*
X69744087Y-172949296D01*
X69736540Y-172971967D01*
X69729520Y-172993663D01*
X69723089Y-173014304D01*
X69717312Y-173033811D01*
X69712251Y-173052105D01*
X69707971Y-173069107D01*
X69704535Y-173084736D01*
X69702007Y-173098914D01*
X69678403Y-173091277D01*
X69654973Y-173083801D01*
X69631695Y-173076487D01*
X69608545Y-173069339D01*
X69585502Y-173062359D01*
X69562541Y-173055550D01*
X69539641Y-173048913D01*
X69516778Y-173042452D01*
X69493931Y-173036168D01*
X69471075Y-173030065D01*
X69448188Y-173024144D01*
X69425248Y-173018408D01*
X69402231Y-173012860D01*
X69379115Y-173007502D01*
X69355878Y-173002337D01*
X69332495Y-172997366D01*
X69308946Y-172992592D01*
X69285206Y-172988019D01*
X69261252Y-172983648D01*
X69237064Y-172979481D01*
X69212616Y-172975521D01*
X69187887Y-172971771D01*
X69162854Y-172968233D01*
X69137494Y-172964910D01*
X69111784Y-172961803D01*
X69085702Y-172958916D01*
X69059225Y-172956251D01*
X69032329Y-172953810D01*
X69004992Y-172951595D01*
X68977192Y-172949610D01*
X68948906Y-172947856D01*
X68920110Y-172946337D01*
X68890783Y-172945054D01*
X68860900Y-172944009D01*
X68830440Y-172943206D01*
X68799380Y-172942647D01*
X68767697Y-172942335D01*
X68734780Y-172941816D01*
X68702758Y-172941681D01*
X68671593Y-172941919D01*
X68641243Y-172942523D01*
X68611670Y-172943484D01*
X68582833Y-172944792D01*
X68554693Y-172946439D01*
X68527210Y-172948416D01*
X68500344Y-172950714D01*
X68474056Y-172953325D01*
X68448305Y-172956239D01*
X68423052Y-172959447D01*
X68398257Y-172962942D01*
X68373881Y-172966713D01*
X68349883Y-172970753D01*
X68326223Y-172975052D01*
X68302863Y-172979602D01*
X68279762Y-172984393D01*
X68256881Y-172989417D01*
X68234179Y-172994665D01*
X68211617Y-173000129D01*
X68189155Y-173005798D01*
X68166753Y-173011666D01*
X68144372Y-173017721D01*
X68121972Y-173023957D01*
X68099513Y-173030364D01*
X68076955Y-173036933D01*
X68054258Y-173043655D01*
X68031384Y-173050522D01*
X68008291Y-173057525D01*
X67984940Y-173064654D01*
X67961292Y-173071901D01*
X67937306Y-173079258D01*
X67912944Y-173086715D01*
X67888164Y-173094263D01*
X67886454Y-173080671D01*
X67884077Y-173065503D01*
X67881072Y-173048846D01*
X67877483Y-173030783D01*
X67873349Y-173011400D01*
X67868712Y-172990782D01*
X67863614Y-172969013D01*
X67858095Y-172946178D01*
X67852197Y-172922363D01*
X67845961Y-172897651D01*
X67839428Y-172872129D01*
X67832640Y-172845880D01*
X67825638Y-172818990D01*
X67818463Y-172791544D01*
X67811156Y-172763626D01*
X67803759Y-172735321D01*
X67796313Y-172706715D01*
X67788859Y-172677892D01*
X67781439Y-172648936D01*
X67774093Y-172619934D01*
X67766863Y-172590969D01*
X67759790Y-172562127D01*
X67752916Y-172533492D01*
X67746282Y-172505150D01*
X67739928Y-172477184D01*
X67733897Y-172449681D01*
X67728229Y-172422725D01*
X67722966Y-172396401D01*
X67718148Y-172370793D01*
X67709034Y-172347347D01*
X67702498Y-172327946D01*
X67697978Y-172311725D01*
X67694913Y-172297818D01*
X67692740Y-172285362D01*
X67690899Y-172273491D01*
X67688828Y-172261339D01*
X67685965Y-172248043D01*
X67681748Y-172232737D01*
X67675617Y-172214556D01*
X67667009Y-172192636D01*
X67655363Y-172166110D01*
X67640117Y-172134115D01*
X67615365Y-172133115D01*
X67591165Y-172130165D01*
X67567593Y-172125345D01*
X67544728Y-172118730D01*
X67522646Y-172110399D01*
X67501427Y-172100430D01*
X67481147Y-172088900D01*
X67461883Y-172075887D01*
X67443715Y-172061469D01*
X67426719Y-172045723D01*
X67410973Y-172028727D01*
X67396555Y-172010558D01*
X67383542Y-171991295D01*
X67372012Y-171971015D01*
X67362043Y-171949795D01*
X67353712Y-171927714D01*
X67347097Y-171904849D01*
X67342276Y-171881277D01*
X67339327Y-171857076D01*
X67338327Y-171832325D01*
X67339327Y-171807573D01*
X67342276Y-171783373D01*
X67347097Y-171759801D01*
X67353712Y-171736936D01*
X67362043Y-171714855D01*
X67372012Y-171693635D01*
X67383542Y-171673355D01*
X67396555Y-171654092D01*
X67410973Y-171635923D01*
X67426719Y-171618927D01*
X67443715Y-171603181D01*
X67461883Y-171588763D01*
X67481147Y-171575750D01*
X67501427Y-171564220D01*
X67522646Y-171554251D01*
X67544728Y-171545920D01*
X67567593Y-171539305D01*
X67591165Y-171534485D01*
X67615365Y-171531535D01*
X67640117Y-171530535D01*
X67664868Y-171531535D01*
X67689069Y-171534485D01*
X67712641Y-171539305D01*
X67735506Y-171545920D01*
X67757587Y-171554251D01*
X67778807Y-171564220D01*
X67799087Y-171575750D01*
X67818350Y-171588763D01*
X67836519Y-171603181D01*
X67853515Y-171618927D01*
X67869261Y-171635923D01*
X67883679Y-171654092D01*
X67896692Y-171673355D01*
X67908222Y-171693635D01*
X67918191Y-171714855D01*
X67926522Y-171736936D01*
X67933136Y-171759801D01*
X67937957Y-171783373D01*
X67940907Y-171807573D01*
X67941907Y-171832325D01*
X67953497Y-171841132D01*
X67965186Y-171851010D01*
X67977113Y-171861699D01*
X67989413Y-171872944D01*
X68002223Y-171884485D01*
X68015682Y-171896066D01*
X68029925Y-171907430D01*
X68045089Y-171918319D01*
X68061313Y-171928475D01*
X68078732Y-171937640D01*
X68097484Y-171945559D01*
X68117705Y-171951972D01*
X68139533Y-171956622D01*
X68163105Y-171959253D01*
X68188557Y-171959606D01*
X68216027Y-171957424D01*
X68245651Y-171952450D01*
X68277567Y-171944426D01*
X68311911Y-171933094D01*
X68331308Y-171922796D01*
X68349457Y-171910854D01*
X68366418Y-171897354D01*
X68382251Y-171882382D01*
X68397016Y-171866022D01*
X68410772Y-171848362D01*
X68423579Y-171829485D01*
X68435496Y-171809479D01*
X68446585Y-171788429D01*
X68456903Y-171766420D01*
X68466510Y-171743537D01*
X68475467Y-171719868D01*
X68483834Y-171695496D01*
X68491669Y-171670509D01*
X68499032Y-171644991D01*
X68505984Y-171619028D01*
X68512584Y-171592706D01*
X68518891Y-171566110D01*
X68524965Y-171539326D01*
X68530866Y-171512441D01*
X68536654Y-171485538D01*
X68542388Y-171458704D01*
X68526155Y-171438352D01*
X68511670Y-171416893D01*
X68498977Y-171394442D01*
X68488117Y-171371113D01*
X68479133Y-171347020D01*
X68472068Y-171322276D01*
X68466963Y-171296996D01*
X68463862Y-171271293D01*
X68462806Y-171245281D01*
X68463702Y-171220907D01*
X68466347Y-171197019D01*
X68470679Y-171173681D01*
X68476634Y-171150956D01*
X68484149Y-171128907D01*
X68493161Y-171107596D01*
X68503606Y-171087089D01*
X68515423Y-171067446D01*
X68528547Y-171048732D01*
X68542915Y-171031010D01*
X68558464Y-171014343D01*
X68575131Y-170998794D01*
X68592853Y-170984426D01*
X68611567Y-170971302D01*
X68631209Y-170959486D01*
X68651717Y-170949040D01*
X68673027Y-170940028D01*
X68695076Y-170932513D01*
X68717802Y-170926558D01*
X68741140Y-170922227D01*
X68765027Y-170919581D01*
X68789401Y-170918686D01*
X68789402Y-170918686D01*
X68813776Y-170919581D01*
G37*
D10*
X68813776Y-170919581D02*
X68837664Y-170922227D01*
X68861002Y-170926558D01*
X68883727Y-170932513D01*
X68905776Y-170940028D01*
X68927086Y-170949040D01*
X68947594Y-170959486D01*
X68967236Y-170971302D01*
X68985950Y-170984426D01*
X69003672Y-170998794D01*
X69020339Y-171014343D01*
X69035889Y-171031010D01*
X69050257Y-171048732D01*
X69063380Y-171067446D01*
X69075197Y-171087089D01*
X69085642Y-171107596D01*
X69094654Y-171128907D01*
X69102169Y-171150956D01*
X69108124Y-171173681D01*
X69112456Y-171197019D01*
X69115101Y-171220907D01*
X69115997Y-171245281D01*
X69114905Y-171271233D01*
X69111777Y-171296875D01*
X69106655Y-171322093D01*
X69099581Y-171346776D01*
X69090597Y-171370809D01*
X69079747Y-171394080D01*
X69067072Y-171416475D01*
X69052614Y-171437882D01*
X69036415Y-171458188D01*
X69040672Y-171484523D01*
X69044954Y-171510955D01*
X69049318Y-171537407D01*
X69053826Y-171563801D01*
X69058536Y-171590061D01*
X69063507Y-171616107D01*
X69068800Y-171641863D01*
X69074474Y-171667251D01*
X69080588Y-171692193D01*
X69087202Y-171716613D01*
X69094375Y-171740432D01*
X69102166Y-171763573D01*
X69110636Y-171785958D01*
X69119843Y-171807509D01*
X69129847Y-171828150D01*
X69140707Y-171847803D01*
X69152483Y-171866389D01*
X69165235Y-171883832D01*
X69179021Y-171900054D01*
X69193902Y-171914978D01*
X69209937Y-171928525D01*
X69227184Y-171940619D01*
X69245705Y-171951181D01*
X69265156Y-171952619D01*
X69285462Y-171954676D01*
X69306464Y-171957180D01*
X69327998Y-171959959D01*
X69349906Y-171962841D01*
X69372025Y-171965654D01*
X69394194Y-171968227D01*
X69416254Y-171970387D01*
X69438043Y-171971963D01*
X69459399Y-171972783D01*
X69480163Y-171972675D01*
X69500172Y-171971468D01*
X69519267Y-171968989D01*
X69537286Y-171965066D01*
X69554068Y-171959528D01*
X69569453Y-171952204D01*
X69583279Y-171942920D01*
X69595386Y-171931506D01*
X69605612Y-171917789D01*
X69613796Y-171901597D01*
X69619779Y-171882760D01*
X69623398Y-171861104D01*
X69624493Y-171836459D01*
X69625493Y-171811708D01*
X69628443Y-171787507D01*
X69633264Y-171763935D01*
X69639878Y-171741070D01*
X69648209Y-171718989D01*
X69658178Y-171697769D01*
X69669708Y-171677489D01*
X69682721Y-171658226D01*
X69697139Y-171640057D01*
X69712885Y-171623061D01*
X69729881Y-171607315D01*
X69748050Y-171592897D01*
X69767313Y-171579884D01*
X69787593Y-171568354D01*
X69808813Y-171558385D01*
X69830894Y-171550054D01*
X69853759Y-171543440D01*
X69877331Y-171538619D01*
X69901532Y-171535669D01*
X69926283Y-171534669D01*
X69951035Y-171535669D01*
X69975235Y-171538619D01*
X69998807Y-171543440D01*
X70021672Y-171550054D01*
X70043754Y-171558385D01*
X70064973Y-171568354D01*
X70085253Y-171579884D01*
X70104517Y-171592897D01*
X70122685Y-171607315D01*
X70139681Y-171623061D01*
X70155427Y-171640057D01*
X70169845Y-171658226D01*
X70182858Y-171677489D01*
X70194388Y-171697769D01*
X70204357Y-171718989D01*
X70212688Y-171741070D01*
X70219303Y-171763935D01*
X70224124Y-171787507D01*
X70227073Y-171811708D01*
X70228073Y-171836459D01*
X70216091Y-171861077D01*
X70204422Y-171883754D01*
X70193055Y-171904610D01*
X70181981Y-171923764D01*
X70171190Y-171941336D01*
X70160671Y-171957444D01*
X70150415Y-171972207D01*
X70140411Y-171985746D01*
X70130650Y-171998178D01*
X70121121Y-172009623D01*
X70111814Y-172020200D01*
X70102719Y-172030029D01*
X70093826Y-172039228D01*
X70085125Y-172047917D01*
X70076606Y-172056215D01*
X70068259Y-172064241D01*
X70060073Y-172072113D01*
X70052040Y-172079953D01*
X70044147Y-172087877D01*
X70036386Y-172096007D01*
X70028747Y-172104460D01*
X70021218Y-172113356D01*
X70013791Y-172122814D01*
X70006456Y-172132953D01*
X69999201Y-172143893D01*
X69992017Y-172155753D01*
X69984894Y-172168651D01*
X69977822Y-172182707D01*
X69970791Y-172198040D01*
X69963790Y-172214770D01*
X69956810Y-172233014D01*
X69949840Y-172252894D01*
X69942871Y-172274527D01*
X69935892Y-172298033D01*
X69928894Y-172323531D01*
X69921865Y-172351140D01*
X69914797Y-172380979D01*
X69907679Y-172413168D01*
X69902951Y-172438694D01*
X69897479Y-172464830D01*
X69891326Y-172491497D01*
X69884555Y-172518617D01*
X69877230Y-172546109D01*
X69869415Y-172573895D01*
X69861173Y-172601894D01*
X69852567Y-172630029D01*
X69843662Y-172658219D01*
X69834520Y-172686386D01*
X69825205Y-172714449D01*
X69815782Y-172742330D01*
X69806312Y-172769949D01*
X69796861Y-172797227D01*
X69787491Y-172824085D01*
X69778266Y-172850444D01*
X69769250Y-172876224D01*
X69760505Y-172901345D01*
X69752097Y-172925729D01*
X69744087Y-172949296D01*
X69736540Y-172971967D01*
X69729520Y-172993663D01*
X69723089Y-173014304D01*
X69717312Y-173033811D01*
X69712251Y-173052105D01*
X69707971Y-173069107D01*
X69704535Y-173084736D01*
X69702007Y-173098914D01*
X69678403Y-173091277D01*
X69654973Y-173083801D01*
X69631695Y-173076487D01*
X69608545Y-173069339D01*
X69585502Y-173062359D01*
X69562541Y-173055550D01*
X69539641Y-173048913D01*
X69516778Y-173042452D01*
X69493931Y-173036168D01*
X69471075Y-173030065D01*
X69448188Y-173024144D01*
X69425248Y-173018408D01*
X69402231Y-173012860D01*
X69379115Y-173007502D01*
X69355878Y-173002337D01*
X69332495Y-172997366D01*
X69308946Y-172992592D01*
X69285206Y-172988019D01*
X69261252Y-172983648D01*
X69237064Y-172979481D01*
X69212616Y-172975521D01*
X69187887Y-172971771D01*
X69162854Y-172968233D01*
X69137494Y-172964910D01*
X69111784Y-172961803D01*
X69085702Y-172958916D01*
X69059225Y-172956251D01*
X69032329Y-172953810D01*
X69004992Y-172951595D01*
X68977192Y-172949610D01*
X68948906Y-172947856D01*
X68920110Y-172946337D01*
X68890783Y-172945054D01*
X68860900Y-172944009D01*
X68830440Y-172943206D01*
X68799380Y-172942647D01*
X68767697Y-172942335D01*
X68734780Y-172941816D01*
X68702758Y-172941681D01*
X68671593Y-172941919D01*
X68641243Y-172942523D01*
X68611670Y-172943484D01*
X68582833Y-172944792D01*
X68554693Y-172946439D01*
X68527210Y-172948416D01*
X68500344Y-172950714D01*
X68474056Y-172953325D01*
X68448305Y-172956239D01*
X68423052Y-172959447D01*
X68398257Y-172962942D01*
X68373881Y-172966713D01*
X68349883Y-172970753D01*
X68326223Y-172975052D01*
X68302863Y-172979602D01*
X68279762Y-172984393D01*
X68256881Y-172989417D01*
X68234179Y-172994665D01*
X68211617Y-173000129D01*
X68189155Y-173005798D01*
X68166753Y-173011666D01*
X68144372Y-173017721D01*
X68121972Y-173023957D01*
X68099513Y-173030364D01*
X68076955Y-173036933D01*
X68054258Y-173043655D01*
X68031384Y-173050522D01*
X68008291Y-173057525D01*
X67984940Y-173064654D01*
X67961292Y-173071901D01*
X67937306Y-173079258D01*
X67912944Y-173086715D01*
X67888164Y-173094263D01*
X67886454Y-173080671D01*
X67884077Y-173065503D01*
X67881072Y-173048846D01*
X67877483Y-173030783D01*
X67873349Y-173011400D01*
X67868712Y-172990782D01*
X67863614Y-172969013D01*
X67858095Y-172946178D01*
X67852197Y-172922363D01*
X67845961Y-172897651D01*
X67839428Y-172872129D01*
X67832640Y-172845880D01*
X67825638Y-172818990D01*
X67818463Y-172791544D01*
X67811156Y-172763626D01*
X67803759Y-172735321D01*
X67796313Y-172706715D01*
X67788859Y-172677892D01*
X67781439Y-172648936D01*
X67774093Y-172619934D01*
X67766863Y-172590969D01*
X67759790Y-172562127D01*
X67752916Y-172533492D01*
X67746282Y-172505150D01*
X67739928Y-172477184D01*
X67733897Y-172449681D01*
X67728229Y-172422725D01*
X67722966Y-172396401D01*
X67718148Y-172370793D01*
X67709034Y-172347347D01*
X67702498Y-172327946D01*
X67697978Y-172311725D01*
X67694913Y-172297818D01*
X67692740Y-172285362D01*
X67690899Y-172273491D01*
X67688828Y-172261339D01*
X67685965Y-172248043D01*
X67681748Y-172232737D01*
X67675617Y-172214556D01*
X67667009Y-172192636D01*
X67655363Y-172166110D01*
X67640117Y-172134115D01*
X67615365Y-172133115D01*
X67591165Y-172130165D01*
X67567593Y-172125345D01*
X67544728Y-172118730D01*
X67522646Y-172110399D01*
X67501427Y-172100430D01*
X67481147Y-172088900D01*
X67461883Y-172075887D01*
X67443715Y-172061469D01*
X67426719Y-172045723D01*
X67410973Y-172028727D01*
X67396555Y-172010558D01*
X67383542Y-171991295D01*
X67372012Y-171971015D01*
X67362043Y-171949795D01*
X67353712Y-171927714D01*
X67347097Y-171904849D01*
X67342276Y-171881277D01*
X67339327Y-171857076D01*
X67338327Y-171832325D01*
X67339327Y-171807573D01*
X67342276Y-171783373D01*
X67347097Y-171759801D01*
X67353712Y-171736936D01*
X67362043Y-171714855D01*
X67372012Y-171693635D01*
X67383542Y-171673355D01*
X67396555Y-171654092D01*
X67410973Y-171635923D01*
X67426719Y-171618927D01*
X67443715Y-171603181D01*
X67461883Y-171588763D01*
X67481147Y-171575750D01*
X67501427Y-171564220D01*
X67522646Y-171554251D01*
X67544728Y-171545920D01*
X67567593Y-171539305D01*
X67591165Y-171534485D01*
X67615365Y-171531535D01*
X67640117Y-171530535D01*
X67664868Y-171531535D01*
X67689069Y-171534485D01*
X67712641Y-171539305D01*
X67735506Y-171545920D01*
X67757587Y-171554251D01*
X67778807Y-171564220D01*
X67799087Y-171575750D01*
X67818350Y-171588763D01*
X67836519Y-171603181D01*
X67853515Y-171618927D01*
X67869261Y-171635923D01*
X67883679Y-171654092D01*
X67896692Y-171673355D01*
X67908222Y-171693635D01*
X67918191Y-171714855D01*
X67926522Y-171736936D01*
X67933136Y-171759801D01*
X67937957Y-171783373D01*
X67940907Y-171807573D01*
X67941907Y-171832325D01*
X67953497Y-171841132D01*
X67965186Y-171851010D01*
X67977113Y-171861699D01*
X67989413Y-171872944D01*
X68002223Y-171884485D01*
X68015682Y-171896066D01*
X68029925Y-171907430D01*
X68045089Y-171918319D01*
X68061313Y-171928475D01*
X68078732Y-171937640D01*
X68097484Y-171945559D01*
X68117705Y-171951972D01*
X68139533Y-171956622D01*
X68163105Y-171959253D01*
X68188557Y-171959606D01*
X68216027Y-171957424D01*
X68245651Y-171952450D01*
X68277567Y-171944426D01*
X68311911Y-171933094D01*
X68331308Y-171922796D01*
X68349457Y-171910854D01*
X68366418Y-171897354D01*
X68382251Y-171882382D01*
X68397016Y-171866022D01*
X68410772Y-171848362D01*
X68423579Y-171829485D01*
X68435496Y-171809479D01*
X68446585Y-171788429D01*
X68456903Y-171766420D01*
X68466510Y-171743537D01*
X68475467Y-171719868D01*
X68483834Y-171695496D01*
X68491669Y-171670509D01*
X68499032Y-171644991D01*
X68505984Y-171619028D01*
X68512584Y-171592706D01*
X68518891Y-171566110D01*
X68524965Y-171539326D01*
X68530866Y-171512441D01*
X68536654Y-171485538D01*
X68542388Y-171458704D01*
X68526155Y-171438352D01*
X68511670Y-171416893D01*
X68498977Y-171394442D01*
X68488117Y-171371113D01*
X68479133Y-171347020D01*
X68472068Y-171322276D01*
X68466963Y-171296996D01*
X68463862Y-171271293D01*
X68462806Y-171245281D01*
X68463702Y-171220907D01*
X68466347Y-171197019D01*
X68470679Y-171173681D01*
X68476634Y-171150956D01*
X68484149Y-171128907D01*
X68493161Y-171107596D01*
X68503606Y-171087089D01*
X68515423Y-171067446D01*
X68528547Y-171048732D01*
X68542915Y-171031010D01*
X68558464Y-171014343D01*
X68575131Y-170998794D01*
X68592853Y-170984426D01*
X68611567Y-170971302D01*
X68631209Y-170959486D01*
X68651717Y-170949040D01*
X68673027Y-170940028D01*
X68695076Y-170932513D01*
X68717802Y-170926558D01*
X68741140Y-170922227D01*
X68765027Y-170919581D01*
X68789401Y-170918686D01*
X68789402Y-170918686D01*
X68813776Y-170919581D01*
G36*
X68765647Y-172617598D02*
G01*
X68787163Y-172619194D01*
X68808679Y-172621854D01*
X68830195Y-172625578D01*
X68851711Y-172630366D01*
X68873227Y-172636218D01*
X68894742Y-172643134D01*
X68916258Y-172651114D01*
X68937774Y-172660158D01*
X68959290Y-172670266D01*
X68980806Y-172681438D01*
X69002321Y-172693674D01*
X69023837Y-172706974D01*
X69045354Y-172721337D01*
X69064713Y-172736384D01*
X69083250Y-172753471D01*
X69100976Y-172772227D01*
X69117901Y-172792282D01*
X69134032Y-172813264D01*
X69149382Y-172834802D01*
X69163958Y-172856525D01*
X69177771Y-172878061D01*
X69190830Y-172899041D01*
X69203145Y-172919093D01*
X69214725Y-172937845D01*
X69225581Y-172954927D01*
X69235722Y-172969967D01*
X69245157Y-172982595D01*
X69253897Y-172992439D01*
X69267602Y-173005210D01*
X69281676Y-173016746D01*
X69296095Y-173027104D01*
X69310842Y-173036340D01*
X69325894Y-173044513D01*
X69341232Y-173051679D01*
X69356834Y-173057896D01*
X69372682Y-173063222D01*
X69388754Y-173067713D01*
X69405030Y-173071428D01*
X69421490Y-173074423D01*
X69438112Y-173076757D01*
X69454878Y-173078485D01*
X69471765Y-173079667D01*
X69488755Y-173080358D01*
X69505826Y-173080618D01*
X69522959Y-173080502D01*
X69540132Y-173080068D01*
X69557325Y-173079374D01*
X69574519Y-173078478D01*
X69591692Y-173077436D01*
X69608824Y-173076305D01*
X69625894Y-173075145D01*
X69642883Y-173074010D01*
X69659770Y-173072960D01*
X69676535Y-173072052D01*
X69693157Y-173071342D01*
X69709615Y-173070889D01*
X69725890Y-173070749D01*
X69741960Y-173070980D01*
X69757806Y-173071640D01*
X69773408Y-173072785D01*
X69788743Y-173074474D01*
X69803794Y-173076764D01*
X69818538Y-173079711D01*
X69832955Y-173083374D01*
X69847026Y-173087810D01*
X69860730Y-173093075D01*
X69874045Y-173099229D01*
X69886953Y-173106327D01*
X69899432Y-173114428D01*
X69911462Y-173123589D01*
X69923023Y-173133866D01*
X69934094Y-173145319D01*
X69944656Y-173158003D01*
X69954686Y-173171976D01*
X69964166Y-173187297D01*
X69973074Y-173204021D01*
X69981391Y-173222207D01*
X69989095Y-173241912D01*
X69992395Y-173251517D01*
X69995261Y-173260834D01*
X69997703Y-173269872D01*
X69999731Y-173278642D01*
X70001355Y-173287156D01*
X70002586Y-173295424D01*
X70003432Y-173303457D01*
X70003905Y-173311265D01*
X70004014Y-173318861D01*
X70003768Y-173326253D01*
X70003178Y-173333454D01*
X70002255Y-173340475D01*
X70001007Y-173347325D01*
X69999444Y-173354016D01*
X69997578Y-173360558D01*
X69995417Y-173366963D01*
X69992972Y-173373242D01*
X69990252Y-173379405D01*
X69987268Y-173385462D01*
X69984030Y-173391426D01*
X69980547Y-173397306D01*
X69976829Y-173403114D01*
X69972887Y-173408860D01*
X69968730Y-173414556D01*
X69964369Y-173420211D01*
X69959812Y-173425838D01*
X69955071Y-173431446D01*
X69950155Y-173437047D01*
X69945075Y-173442651D01*
X69939839Y-173448269D01*
X69934459Y-173453913D01*
X69928943Y-173459592D01*
X69923303Y-173465319D01*
X69917547Y-173471103D01*
X69911687Y-173476955D01*
X69905731Y-173482887D01*
X69899690Y-173488908D01*
X69893574Y-173495031D01*
X69887392Y-173501266D01*
X69881155Y-173507623D01*
X69874873Y-173514114D01*
X69868556Y-173520749D01*
X69862213Y-173527540D01*
X69855855Y-173534496D01*
X69849491Y-173541629D01*
X69843131Y-173548950D01*
X69836786Y-173556470D01*
X69830466Y-173564199D01*
X69824179Y-173572148D01*
X69817937Y-173580328D01*
X69811749Y-173588750D01*
X69805626Y-173597425D01*
X69799576Y-173606364D01*
X69793611Y-173615576D01*
X69787740Y-173625075D01*
X69781973Y-173634869D01*
X69776320Y-173644970D01*
X69770790Y-173655389D01*
X69765395Y-173666137D01*
X69760144Y-173677224D01*
X69755046Y-173688661D01*
X69750112Y-173700460D01*
X69745352Y-173712630D01*
X69740776Y-173725184D01*
X69736393Y-173738131D01*
X69732214Y-173751482D01*
X69728249Y-173765249D01*
X69724507Y-173779442D01*
X69720999Y-173794072D01*
X69717734Y-173809150D01*
X69714722Y-173824687D01*
X69711974Y-173840693D01*
X69709499Y-173857180D01*
X69707308Y-173874157D01*
X69705410Y-173891637D01*
X69703815Y-173909630D01*
X69702533Y-173928147D01*
X69701574Y-173947198D01*
X69700949Y-173966794D01*
X69700666Y-173986947D01*
X69700737Y-174007667D01*
X69701170Y-174028965D01*
X69701977Y-174050852D01*
X69703166Y-174073338D01*
X69704748Y-174096435D01*
X69706733Y-174120153D01*
X69709131Y-174144503D01*
X69711951Y-174169497D01*
X69715204Y-174195144D01*
X69718900Y-174221455D01*
X69723049Y-174248443D01*
X69727660Y-174276116D01*
X69732743Y-174304487D01*
X69738309Y-174333566D01*
X69744367Y-174363363D01*
X69750928Y-174393891D01*
X69758001Y-174425159D01*
X69765597Y-174457178D01*
X69773725Y-174489959D01*
X69782395Y-174523514D01*
X69791617Y-174557853D01*
X69801401Y-174592986D01*
X69811758Y-174628925D01*
X69822696Y-174665680D01*
X69834227Y-174703263D01*
X69844044Y-174736523D01*
X69851730Y-174766453D01*
X69857360Y-174793400D01*
X69861011Y-174817716D01*
X69862761Y-174839749D01*
X69862685Y-174859850D01*
X69860860Y-174878366D01*
X69857364Y-174895649D01*
X69852272Y-174912048D01*
X69845662Y-174927911D01*
X69837610Y-174943589D01*
X69828194Y-174959432D01*
X69817488Y-174975788D01*
X69805571Y-174993007D01*
X69792520Y-175011439D01*
X69777721Y-175030553D01*
X69762366Y-175048348D01*
X69746455Y-175064825D01*
X69729988Y-175079985D01*
X69712965Y-175093825D01*
X69695386Y-175106348D01*
X69677250Y-175117553D01*
X69658559Y-175127439D01*
X69639311Y-175136007D01*
X69619508Y-175143257D01*
X69599148Y-175149189D01*
X69578232Y-175153802D01*
X69556760Y-175157098D01*
X69534732Y-175159075D01*
X69512148Y-175159734D01*
X69461170Y-175159734D01*
X69439551Y-175159039D01*
X69418257Y-175156954D01*
X69397287Y-175153478D01*
X69376642Y-175148612D01*
X69356321Y-175142356D01*
X69336324Y-175134710D01*
X69316652Y-175125673D01*
X69297304Y-175115247D01*
X69278280Y-175103429D01*
X69259581Y-175090222D01*
X69240465Y-175076435D01*
X69222971Y-175061953D01*
X69207098Y-175046776D01*
X69192848Y-175030903D01*
X69180220Y-175014335D01*
X69169214Y-174997072D01*
X69159829Y-174979114D01*
X69152067Y-174960461D01*
X69145926Y-174941113D01*
X69141407Y-174921070D01*
X69122141Y-174904957D01*
X69102723Y-174889769D01*
X69083164Y-174875505D01*
X69063476Y-174862162D01*
X69043672Y-174849739D01*
X69023763Y-174838234D01*
X69003760Y-174827644D01*
X68983676Y-174817968D01*
X68963522Y-174809204D01*
X68943311Y-174801348D01*
X68923053Y-174794401D01*
X68902762Y-174788359D01*
X68882448Y-174783220D01*
X68862124Y-174778983D01*
X68841802Y-174775645D01*
X68821492Y-174773204D01*
X68801208Y-174771659D01*
X68780960Y-174771008D01*
X68760762Y-174771247D01*
X68740623Y-174772376D01*
X68720558Y-174774393D01*
X68700576Y-174777294D01*
X68680691Y-174781079D01*
X68660913Y-174785745D01*
X68641255Y-174791291D01*
X68621729Y-174797713D01*
X68602346Y-174805011D01*
X68583118Y-174813182D01*
X68564057Y-174822224D01*
X68545175Y-174832135D01*
X68526484Y-174842914D01*
X68507995Y-174854557D01*
X68503060Y-174876338D01*
X68496595Y-174897192D01*
X68488601Y-174917120D01*
X68479077Y-174936121D01*
X68468024Y-174954196D01*
X68455442Y-174971343D01*
X68441331Y-174987564D01*
X68425690Y-175002857D01*
X68408520Y-175017224D01*
X68389821Y-175030663D01*
X68371437Y-175042727D01*
X68352518Y-175053643D01*
X68333062Y-175063409D01*
X68313069Y-175072026D01*
X68292541Y-175079494D01*
X68271477Y-175085813D01*
X68249876Y-175090984D01*
X68227739Y-175095005D01*
X68205066Y-175097877D01*
X68181857Y-175099601D01*
X68158111Y-175100175D01*
X68107133Y-175100175D01*
X68084281Y-175099537D01*
X68062068Y-175097621D01*
X68040493Y-175094428D01*
X68019556Y-175089959D01*
X67999258Y-175084212D01*
X67979598Y-175077189D01*
X67960577Y-175068888D01*
X67942195Y-175059311D01*
X67924450Y-175048456D01*
X67907345Y-175036324D01*
X67890878Y-175022916D01*
X67875049Y-175008231D01*
X67859859Y-174992268D01*
X67845307Y-174975029D01*
X67831394Y-174956512D01*
X67818463Y-174937400D01*
X67807404Y-174918864D01*
X67798110Y-174900713D01*
X67790472Y-174882757D01*
X67784384Y-174864807D01*
X67779738Y-174846671D01*
X67776425Y-174828160D01*
X67774340Y-174809082D01*
X67773373Y-174789248D01*
X67773419Y-174768468D01*
X67774368Y-174746550D01*
X67776114Y-174723305D01*
X67778548Y-174698543D01*
X67781564Y-174672072D01*
X67785054Y-174643703D01*
X67788528Y-174614080D01*
X67791351Y-174585766D01*
X67793541Y-174558730D01*
X67795113Y-174532942D01*
X67796087Y-174508369D01*
X67796479Y-174484981D01*
X67796307Y-174462746D01*
X67795588Y-174441633D01*
X67794338Y-174421611D01*
X67792577Y-174402648D01*
X67790320Y-174384714D01*
X67787585Y-174367776D01*
X67784389Y-174351804D01*
X67780751Y-174336767D01*
X67776686Y-174322632D01*
X67772213Y-174309369D01*
X67767348Y-174296947D01*
X67762109Y-174285334D01*
X67756514Y-174274499D01*
X67750579Y-174264411D01*
X67744322Y-174255038D01*
X67737760Y-174246350D01*
X67730911Y-174238314D01*
X67723791Y-174230900D01*
X67716419Y-174224077D01*
X67708811Y-174217812D01*
X67700985Y-174212075D01*
X67692958Y-174206835D01*
X67684747Y-174202060D01*
X67676370Y-174197719D01*
X67667844Y-174193781D01*
X67659186Y-174190214D01*
X67650414Y-174186988D01*
X67641545Y-174184070D01*
X67632596Y-174181430D01*
X67623584Y-174179037D01*
X67614527Y-174176858D01*
X67605443Y-174174864D01*
X67596348Y-174173022D01*
X67587259Y-174171301D01*
X67578195Y-174169670D01*
X67569172Y-174168098D01*
X67560208Y-174166553D01*
X67551320Y-174165005D01*
X67542525Y-174163422D01*
X67533841Y-174161772D01*
X67525284Y-174160024D01*
X67516873Y-174158148D01*
X67508624Y-174156111D01*
X67500556Y-174153884D01*
X67492684Y-174151433D01*
X67485027Y-174148728D01*
X67477602Y-174145738D01*
X67470425Y-174142432D01*
X67463515Y-174138778D01*
X67456889Y-174134744D01*
X67450564Y-174130301D01*
X67444557Y-174125416D01*
X67438886Y-174120057D01*
X67433568Y-174114195D01*
X67428620Y-174107797D01*
X67424059Y-174100833D01*
X67419904Y-174093271D01*
X67416170Y-174085079D01*
X67412876Y-174076227D01*
X67410039Y-174066683D01*
X67407676Y-174056416D01*
X67405805Y-174045394D01*
X67404442Y-174033587D01*
X67403605Y-174020964D01*
X67403311Y-174007491D01*
X67403606Y-173990095D01*
X67404135Y-173973423D01*
X67404898Y-173957452D01*
X67405895Y-173942162D01*
X67407124Y-173927529D01*
X67408585Y-173913533D01*
X67410278Y-173900150D01*
X67412202Y-173887359D01*
X67414355Y-173875138D01*
X67416739Y-173863464D01*
X67419351Y-173852316D01*
X67422192Y-173841672D01*
X67425260Y-173831509D01*
X67428556Y-173821805D01*
X67432078Y-173812539D01*
X67435826Y-173803689D01*
X67439800Y-173795231D01*
X67443998Y-173787146D01*
X67448420Y-173779409D01*
X67453066Y-173771999D01*
X67457935Y-173764895D01*
X67463026Y-173758073D01*
X67468338Y-173751513D01*
X67473872Y-173745192D01*
X67479625Y-173739087D01*
X67485599Y-173733178D01*
X67491792Y-173727441D01*
X67498204Y-173721855D01*
X67504833Y-173716398D01*
X67511680Y-173711048D01*
X67518743Y-173705782D01*
X67526023Y-173700579D01*
X67533518Y-173695416D01*
X67541228Y-173690272D01*
X67549152Y-173685124D01*
X67557290Y-173679951D01*
X67565641Y-173674730D01*
X67574205Y-173669440D01*
X67582980Y-173664057D01*
X67591966Y-173658561D01*
X67601163Y-173652929D01*
X67610571Y-173647139D01*
X67620187Y-173641169D01*
X67630012Y-173634998D01*
X67640045Y-173628602D01*
X67650286Y-173621960D01*
X67660734Y-173615050D01*
X67671388Y-173607849D01*
X67682248Y-173600337D01*
X67693313Y-173592490D01*
X67704582Y-173584287D01*
X67716055Y-173575706D01*
X67727732Y-173566724D01*
X67739611Y-173557319D01*
X67751692Y-173547470D01*
X67763974Y-173537155D01*
X67776457Y-173526351D01*
X67789141Y-173515036D01*
X67802023Y-173503188D01*
X67815105Y-173490786D01*
X67828385Y-173477807D01*
X67841863Y-173464229D01*
X67855538Y-173450030D01*
X67869410Y-173435188D01*
X67883477Y-173419681D01*
X67897740Y-173403487D01*
X67912197Y-173386584D01*
X67926848Y-173368950D01*
X67941693Y-173350563D01*
X67956731Y-173331400D01*
X67971961Y-173311440D01*
X67987382Y-173290661D01*
X68002994Y-173269040D01*
X68018797Y-173246556D01*
X68034789Y-173223186D01*
X68050971Y-173198908D01*
X68067341Y-173173702D01*
X68083899Y-173147543D01*
X68100644Y-173120411D01*
X68117576Y-173092283D01*
X68134694Y-173063137D01*
X68151997Y-173032951D01*
X68169486Y-173001704D01*
X68175690Y-172990372D01*
X68183012Y-172976921D01*
X68191409Y-172961627D01*
X68200835Y-172944768D01*
X68211245Y-172926622D01*
X68222596Y-172907465D01*
X68234843Y-172887575D01*
X68247941Y-172867230D01*
X68261845Y-172846706D01*
X68276512Y-172826281D01*
X68291896Y-172806232D01*
X68307953Y-172786837D01*
X68324639Y-172768372D01*
X68341909Y-172751116D01*
X68359718Y-172735346D01*
X68378023Y-172721338D01*
X68399232Y-172706974D01*
X68420488Y-172693674D01*
X68441791Y-172681439D01*
X68463142Y-172670267D01*
X68484540Y-172660159D01*
X68505985Y-172651115D01*
X68527478Y-172643135D01*
X68549018Y-172636219D01*
X68570605Y-172630367D01*
X68592240Y-172625579D01*
X68613922Y-172621855D01*
X68635651Y-172619195D01*
X68657427Y-172617598D01*
X68679251Y-172617066D01*
X68744131Y-172617066D01*
X68765647Y-172617598D01*
G37*
D11*
X79248000Y-171196000D03*
D12*
X75438000Y-168656000D03*
D13*
X80518000Y-168656000D03*
D11*
X72898000Y-173736000D03*
D14*
X70358000Y-168656000D03*
D15*
X76835000Y-160782000D03*
X78105000Y-160782000D03*
X79375000Y-160782000D03*
X80645000Y-160782000D03*
D16*
X67945000Y-164973000D03*
X67945000Y-163703000D03*
X67945000Y-162433000D03*
X67945000Y-161163000D03*
D17*
X71678800Y-176758600D03*
D15*
X71678800Y-160782000D03*
D16*
X82905600Y-164973000D03*
X82905600Y-163703000D03*
X82905600Y-162433000D03*
X82905600Y-161163000D03*
D15*
X76835000Y-176758600D03*
X78105000Y-176758600D03*
X79375000Y-176758600D03*
X80645000Y-176758600D03*
M02*
