G04 #@! TF.GenerationSoftware,KiCad,Pcbnew,(6.0.7-1)-1*
G04 #@! TF.CreationDate,2022-08-17T19:26:05+01:00*
G04 #@! TF.ProjectId,amoeba-king,616d6f65-6261-42d6-9b69-6e672e6b6963,rev?*
G04 #@! TF.SameCoordinates,Original*
G04 #@! TF.FileFunction,Legend,Bot*
G04 #@! TF.FilePolarity,Positive*
%FSLAX46Y46*%
G04 Gerber Fmt 4.6, Leading zero omitted, Abs format (unit mm)*
G04 Created by KiCad (PCBNEW (6.0.7-1)-1) date 2022-08-17 19:26:05*
%MOMM*%
%LPD*%
G01*
G04 APERTURE LIST*
%ADD10C,0.100000*%
%ADD11C,0.158750*%
%ADD12C,0.152400*%
%ADD13C,0.150000*%
%ADD14C,0.127000*%
%ADD15C,0.120000*%
G04 APERTURE END LIST*
D10*
G36*
X77419200Y-165328600D02*
G01*
X77038200Y-165328600D01*
X77419200Y-164947600D01*
X77419200Y-165328600D01*
G37*
X77419200Y-165328600D02*
X77038200Y-165328600D01*
X77419200Y-164947600D01*
X77419200Y-165328600D01*
X65912712Y-170717638D02*
G75*
G03*
X65927338Y-166609033I148J2054328D01*
G01*
X84963000Y-166601671D02*
G75*
G03*
X84948374Y-170710278I-140J-2054329D01*
G01*
D11*
X69303843Y-176051028D02*
X69205569Y-176474361D01*
X69001462Y-176051028D01*
X68479855Y-176474361D02*
X68842712Y-176474361D01*
X68661283Y-176474361D02*
X68581908Y-175839361D01*
X68653724Y-175930076D01*
X68721759Y-175990552D01*
X68786015Y-176020790D01*
X68200152Y-176413885D02*
X68173694Y-176444123D01*
X68207712Y-176474361D01*
X68234170Y-176444123D01*
X68200152Y-176413885D01*
X68207712Y-176474361D01*
X67863754Y-175899838D02*
X67829736Y-175869600D01*
X67765480Y-175839361D01*
X67614289Y-175839361D01*
X67557593Y-175869600D01*
X67531134Y-175899838D01*
X67508456Y-175960314D01*
X67516015Y-176020790D01*
X67557593Y-176111504D01*
X67965807Y-176474361D01*
X67572712Y-176474361D01*
D12*
X69643171Y-164047714D02*
X69643171Y-163285714D01*
X69461742Y-163285714D01*
X69352885Y-163322000D01*
X69280314Y-163394571D01*
X69244028Y-163467142D01*
X69207742Y-163612285D01*
X69207742Y-163721142D01*
X69244028Y-163866285D01*
X69280314Y-163938857D01*
X69352885Y-164011428D01*
X69461742Y-164047714D01*
X69643171Y-164047714D01*
D13*
X81323542Y-165368514D02*
X81577542Y-165005657D01*
X81758971Y-165368514D02*
X81758971Y-164606514D01*
X81468685Y-164606514D01*
X81396114Y-164642800D01*
X81359828Y-164679085D01*
X81323542Y-164751657D01*
X81323542Y-164860514D01*
X81359828Y-164933085D01*
X81396114Y-164969371D01*
X81468685Y-165005657D01*
X81758971Y-165005657D01*
D12*
X79629000Y-177306514D02*
X79375000Y-178068514D01*
X79121000Y-177306514D01*
X78304571Y-160085314D02*
X78304571Y-159323314D01*
X78123142Y-159323314D01*
X78014285Y-159359600D01*
X77941714Y-159432171D01*
X77905428Y-159504742D01*
X77869142Y-159649885D01*
X77869142Y-159758742D01*
X77905428Y-159903885D01*
X77941714Y-159976457D01*
X78014285Y-160049028D01*
X78123142Y-160085314D01*
X78304571Y-160085314D01*
X81813400Y-162066514D02*
X81559400Y-162828514D01*
X81305400Y-162066514D01*
X81682771Y-164123914D02*
X81682771Y-163361914D01*
X81501342Y-163361914D01*
X81392485Y-163398200D01*
X81319914Y-163470771D01*
X81283628Y-163543342D01*
X81247342Y-163688485D01*
X81247342Y-163797342D01*
X81283628Y-163942485D01*
X81319914Y-164015057D01*
X81392485Y-164087628D01*
X81501342Y-164123914D01*
X81682771Y-164123914D01*
X78253771Y-178068514D02*
X78253771Y-177306514D01*
X78072342Y-177306514D01*
X77963485Y-177342800D01*
X77890914Y-177415371D01*
X77854628Y-177487942D01*
X77818342Y-177633085D01*
X77818342Y-177741942D01*
X77854628Y-177887085D01*
X77890914Y-177959657D01*
X77963485Y-178032228D01*
X78072342Y-178068514D01*
X78253771Y-178068514D01*
X69672200Y-162015714D02*
X69418200Y-162777714D01*
X69164200Y-162015714D01*
D14*
X80619600Y-165832971D02*
X80619600Y-165223371D01*
X80474457Y-165223371D01*
X80387371Y-165252400D01*
X80329314Y-165310457D01*
X80300285Y-165368514D01*
X80271257Y-165484628D01*
X80271257Y-165571714D01*
X80300285Y-165687828D01*
X80329314Y-165745885D01*
X80387371Y-165803942D01*
X80474457Y-165832971D01*
X80619600Y-165832971D01*
X80010000Y-165832971D02*
X80010000Y-165223371D01*
D13*
X69182342Y-165368514D02*
X69436342Y-165005657D01*
X69617771Y-165368514D02*
X69617771Y-164606514D01*
X69327485Y-164606514D01*
X69254914Y-164642800D01*
X69218628Y-164679085D01*
X69182342Y-164751657D01*
X69182342Y-164860514D01*
X69218628Y-164933085D01*
X69254914Y-164969371D01*
X69327485Y-165005657D01*
X69617771Y-165005657D01*
X71506442Y-160063542D02*
X71542728Y-160099828D01*
X71651585Y-160136114D01*
X71724157Y-160136114D01*
X71833014Y-160099828D01*
X71905585Y-160027257D01*
X71941871Y-159954685D01*
X71978157Y-159809542D01*
X71978157Y-159700685D01*
X71941871Y-159555542D01*
X71905585Y-159482971D01*
X71833014Y-159410400D01*
X71724157Y-159374114D01*
X71651585Y-159374114D01*
X71542728Y-159410400D01*
X71506442Y-159446685D01*
X76649942Y-160063542D02*
X76686228Y-160099828D01*
X76795085Y-160136114D01*
X76867657Y-160136114D01*
X76976514Y-160099828D01*
X77049085Y-160027257D01*
X77085371Y-159954685D01*
X77121657Y-159809542D01*
X77121657Y-159700685D01*
X77085371Y-159555542D01*
X77049085Y-159482971D01*
X76976514Y-159410400D01*
X76867657Y-159374114D01*
X76795085Y-159374114D01*
X76686228Y-159410400D01*
X76649942Y-159446685D01*
X76158900Y-171697633D02*
X75825566Y-171697633D01*
X76225566Y-171926204D02*
X75992233Y-171126204D01*
X75758900Y-171926204D01*
X75525566Y-171926204D02*
X75525566Y-171392871D01*
X75525566Y-171469061D02*
X75492233Y-171430966D01*
X75425566Y-171392871D01*
X75325566Y-171392871D01*
X75258900Y-171430966D01*
X75225566Y-171507157D01*
X75225566Y-171926204D01*
X75225566Y-171507157D02*
X75192233Y-171430966D01*
X75125566Y-171392871D01*
X75025566Y-171392871D01*
X74958900Y-171430966D01*
X74925566Y-171507157D01*
X74925566Y-171926204D01*
X74492233Y-171926204D02*
X74558900Y-171888109D01*
X74592233Y-171850014D01*
X74625566Y-171773823D01*
X74625566Y-171545252D01*
X74592233Y-171469061D01*
X74558900Y-171430966D01*
X74492233Y-171392871D01*
X74392233Y-171392871D01*
X74325566Y-171430966D01*
X74292233Y-171469061D01*
X74258900Y-171545252D01*
X74258900Y-171773823D01*
X74292233Y-171850014D01*
X74325566Y-171888109D01*
X74392233Y-171926204D01*
X74492233Y-171926204D01*
X73692233Y-171888109D02*
X73758900Y-171926204D01*
X73892233Y-171926204D01*
X73958900Y-171888109D01*
X73992233Y-171811919D01*
X73992233Y-171507157D01*
X73958900Y-171430966D01*
X73892233Y-171392871D01*
X73758900Y-171392871D01*
X73692233Y-171430966D01*
X73658900Y-171507157D01*
X73658900Y-171583347D01*
X73992233Y-171659538D01*
X73358900Y-171926204D02*
X73358900Y-171126204D01*
X73358900Y-171430966D02*
X73292233Y-171392871D01*
X73158900Y-171392871D01*
X73092233Y-171430966D01*
X73058900Y-171469061D01*
X73025566Y-171545252D01*
X73025566Y-171773823D01*
X73058900Y-171850014D01*
X73092233Y-171888109D01*
X73158900Y-171926204D01*
X73292233Y-171926204D01*
X73358900Y-171888109D01*
X72425566Y-171926204D02*
X72425566Y-171507157D01*
X72458900Y-171430966D01*
X72525566Y-171392871D01*
X72658900Y-171392871D01*
X72725566Y-171430966D01*
X72425566Y-171888109D02*
X72492233Y-171926204D01*
X72658900Y-171926204D01*
X72725566Y-171888109D01*
X72758900Y-171811919D01*
X72758900Y-171735728D01*
X72725566Y-171659538D01*
X72658900Y-171621442D01*
X72492233Y-171621442D01*
X72425566Y-171583347D01*
D14*
X73961171Y-165832971D02*
X73961171Y-165223371D01*
X73816028Y-165223371D01*
X73728942Y-165252400D01*
X73670885Y-165310457D01*
X73641857Y-165368514D01*
X73612828Y-165484628D01*
X73612828Y-165571714D01*
X73641857Y-165687828D01*
X73670885Y-165745885D01*
X73728942Y-165803942D01*
X73816028Y-165832971D01*
X73961171Y-165832971D01*
X73235457Y-165223371D02*
X73119342Y-165223371D01*
X73061285Y-165252400D01*
X73003228Y-165310457D01*
X72974200Y-165426571D01*
X72974200Y-165629771D01*
X73003228Y-165745885D01*
X73061285Y-165803942D01*
X73119342Y-165832971D01*
X73235457Y-165832971D01*
X73293514Y-165803942D01*
X73351571Y-165745885D01*
X73380600Y-165629771D01*
X73380600Y-165426571D01*
X73351571Y-165310457D01*
X73293514Y-165252400D01*
X73235457Y-165223371D01*
D13*
X72585942Y-177081542D02*
X72622228Y-177117828D01*
X72731085Y-177154114D01*
X72803657Y-177154114D01*
X72912514Y-177117828D01*
X72985085Y-177045257D01*
X73021371Y-176972685D01*
X73057657Y-176827542D01*
X73057657Y-176718685D01*
X73021371Y-176573542D01*
X72985085Y-176500971D01*
X72912514Y-176428400D01*
X72803657Y-176392114D01*
X72731085Y-176392114D01*
X72622228Y-176428400D01*
X72585942Y-176464685D01*
D12*
X79629000Y-159323314D02*
X79375000Y-160085314D01*
X79121000Y-159323314D01*
X69218628Y-160832800D02*
X69291200Y-160796514D01*
X69400057Y-160796514D01*
X69508914Y-160832800D01*
X69581485Y-160905371D01*
X69617771Y-160977942D01*
X69654057Y-161123085D01*
X69654057Y-161231942D01*
X69617771Y-161377085D01*
X69581485Y-161449657D01*
X69508914Y-161522228D01*
X69400057Y-161558514D01*
X69327485Y-161558514D01*
X69218628Y-161522228D01*
X69182342Y-161485942D01*
X69182342Y-161231942D01*
X69327485Y-161231942D01*
D13*
X75519642Y-177056142D02*
X75555928Y-177092428D01*
X75664785Y-177128714D01*
X75737357Y-177128714D01*
X75846214Y-177092428D01*
X75918785Y-177019857D01*
X75955071Y-176947285D01*
X75991357Y-176802142D01*
X75991357Y-176693285D01*
X75955071Y-176548142D01*
X75918785Y-176475571D01*
X75846214Y-176403000D01*
X75737357Y-176366714D01*
X75664785Y-176366714D01*
X75555928Y-176403000D01*
X75519642Y-176439285D01*
D12*
X81359828Y-160782000D02*
X81432400Y-160745714D01*
X81541257Y-160745714D01*
X81650114Y-160782000D01*
X81722685Y-160854571D01*
X81758971Y-160927142D01*
X81795257Y-161072285D01*
X81795257Y-161181142D01*
X81758971Y-161326285D01*
X81722685Y-161398857D01*
X81650114Y-161471428D01*
X81541257Y-161507714D01*
X81468685Y-161507714D01*
X81359828Y-161471428D01*
X81323542Y-161435142D01*
X81323542Y-161181142D01*
X81468685Y-161181142D01*
D13*
X73182833Y-170300604D02*
X73182833Y-169500604D01*
X72782833Y-170300604D02*
X73082833Y-169843461D01*
X72782833Y-169500604D02*
X73182833Y-169957747D01*
X72482833Y-170300604D02*
X72482833Y-169767271D01*
X72482833Y-169500604D02*
X72516166Y-169538700D01*
X72482833Y-169576795D01*
X72449500Y-169538700D01*
X72482833Y-169500604D01*
X72482833Y-169576795D01*
X72149500Y-169767271D02*
X72149500Y-170300604D01*
X72149500Y-169843461D02*
X72116166Y-169805366D01*
X72049500Y-169767271D01*
X71949500Y-169767271D01*
X71882833Y-169805366D01*
X71849500Y-169881557D01*
X71849500Y-170300604D01*
X71216166Y-169767271D02*
X71216166Y-170414890D01*
X71249500Y-170491080D01*
X71282833Y-170529176D01*
X71349500Y-170567271D01*
X71449500Y-170567271D01*
X71516166Y-170529176D01*
X71216166Y-170262509D02*
X71282833Y-170300604D01*
X71416166Y-170300604D01*
X71482833Y-170262509D01*
X71516166Y-170224414D01*
X71549500Y-170148223D01*
X71549500Y-169919652D01*
X71516166Y-169843461D01*
X71482833Y-169805366D01*
X71416166Y-169767271D01*
X71282833Y-169767271D01*
X71216166Y-169805366D01*
D12*
X80445428Y-177342800D02*
X80518000Y-177306514D01*
X80626857Y-177306514D01*
X80735714Y-177342800D01*
X80808285Y-177415371D01*
X80844571Y-177487942D01*
X80880857Y-177633085D01*
X80880857Y-177741942D01*
X80844571Y-177887085D01*
X80808285Y-177959657D01*
X80735714Y-178032228D01*
X80626857Y-178068514D01*
X80554285Y-178068514D01*
X80445428Y-178032228D01*
X80409142Y-177995942D01*
X80409142Y-177741942D01*
X80554285Y-177741942D01*
D13*
X68683095Y-172194480D02*
X68683095Y-171194480D01*
X68445000Y-171194480D01*
X68302142Y-171242100D01*
X68206904Y-171337338D01*
X68159285Y-171432576D01*
X68111666Y-171623052D01*
X68111666Y-171765909D01*
X68159285Y-171956385D01*
X68206904Y-172051623D01*
X68302142Y-172146861D01*
X68445000Y-172194480D01*
X68683095Y-172194480D01*
X67159285Y-172194480D02*
X67730714Y-172194480D01*
X67445000Y-172194480D02*
X67445000Y-171194480D01*
X67540238Y-171337338D01*
X67635476Y-171432576D01*
X67730714Y-171480195D01*
X76303000Y-171196000D02*
X70573000Y-171196000D01*
X81573000Y-173736000D02*
X81573000Y-169521000D01*
X79898000Y-175411000D02*
X70573000Y-175411000D01*
X81573000Y-169521000D02*
X77978000Y-169521000D01*
X70573000Y-175406000D02*
X70573000Y-171196000D01*
X76303000Y-171196000D02*
G75*
G03*
X77978000Y-169521000I0J1675000D01*
G01*
X79898000Y-175411000D02*
G75*
G03*
X81573000Y-173736000I0J1675000D01*
G01*
D15*
X71134600Y-168158000D02*
X71134600Y-167690800D01*
X73165180Y-167857020D02*
X73465180Y-168157020D01*
X72760200Y-167690800D02*
X72760200Y-168158000D01*
X72760200Y-166065200D02*
X73227400Y-166065200D01*
X71134600Y-166065200D02*
X71134600Y-165598000D01*
X71134600Y-167690800D02*
X70667400Y-167690800D01*
X72760200Y-165598000D02*
X72760200Y-166065200D01*
X73465180Y-168157020D02*
X72865180Y-168157020D01*
X70667400Y-166065200D02*
X71134600Y-166065200D01*
X73165180Y-167857020D02*
X72865180Y-168157020D01*
X73227400Y-167690800D02*
X72760200Y-167690800D01*
X71134600Y-168158000D02*
G75*
G03*
X72760200Y-168158000I812800J0D01*
G01*
X70667400Y-166065200D02*
G75*
G03*
X70667400Y-167690800I0J-812800D01*
G01*
X72760200Y-165598000D02*
G75*
G03*
X71134600Y-165598000I-812800J0D01*
G01*
X73227400Y-167690800D02*
G75*
G03*
X73227400Y-166065200I0J812800D01*
G01*
X80460980Y-168157020D02*
X79860980Y-168157020D01*
X78130400Y-168158000D02*
X78130400Y-167690800D01*
X78130400Y-166065200D02*
X78130400Y-165598000D01*
X80160980Y-167857020D02*
X80460980Y-168157020D01*
X79756000Y-167690800D02*
X79756000Y-168158000D01*
X80160980Y-167857020D02*
X79860980Y-168157020D01*
X79756000Y-166065200D02*
X80223200Y-166065200D01*
X77663200Y-166065200D02*
X78130400Y-166065200D01*
X80223200Y-167690800D02*
X79756000Y-167690800D01*
X79756000Y-165598000D02*
X79756000Y-166065200D01*
X78130400Y-167690800D02*
X77663200Y-167690800D01*
X79756000Y-165598000D02*
G75*
G03*
X78130400Y-165598000I-812800J0D01*
G01*
X80223200Y-167690800D02*
G75*
G03*
X80223200Y-166065200I0J812800D01*
G01*
X78130400Y-168158000D02*
G75*
G03*
X79756000Y-168158000I812800J0D01*
G01*
X77663200Y-166065200D02*
G75*
G03*
X77663200Y-167690800I0J-812800D01*
G01*
X69719700Y-166811400D02*
X69719700Y-170711400D01*
X67719700Y-166811400D02*
X69719700Y-166811400D01*
X67719700Y-166811400D02*
X67719700Y-170711400D01*
X73838000Y-164976000D02*
X77038000Y-164976000D01*
X73838000Y-162176000D02*
X73838000Y-164976000D01*
X77038000Y-164976000D02*
X77038000Y-162176000D01*
X77038000Y-162176000D02*
X73838000Y-162176000D01*
M02*
