M48
; DRILL file {KiCad (6.0.7-1)-1} date Wednesday 17 August 2022 at 19:26:00
; FORMAT={-:-/ absolute / metric / decimal}
; #@! TF.CreationDate,2022-08-17T19:26:00+01:00
; #@! TF.GenerationSoftware,Kicad,Pcbnew,(6.0.7-1)-1
; #@! TF.FileFunction,Plated,1,2,PTH
FMAT,2
METRIC
; #@! TA.AperFunction,Plated,PTH,ViaDrill
T1C0.400
; #@! TA.AperFunction,Plated,PTH,ViaDrill
T2C0.508
; #@! TA.AperFunction,Plated,PTH,ViaDrill
T3C0.635
; #@! TA.AperFunction,Plated,PTH,ComponentDrill
T4C0.650
%
G90
G05
T1
X70.253Y-161.744
X70.257Y-164.084
X71.947Y-166.878
X72.339Y-164.338
X73.194Y-166.881
X75.483Y-171.319
X77.787Y-166.878
X78.785Y-162.839
X78.918Y-165.608
X78.943Y-166.878
X80.213Y-166.878
X80.747Y-163.733
T2
X77.117Y-173.558
T3
X71.095Y-163.033
X82.575Y-166.275
T4
X67.945Y-161.163
X67.945Y-162.433
X67.945Y-163.703
X67.945Y-164.973
X71.679Y-160.782
X71.679Y-176.759
X76.835Y-160.782
X76.835Y-176.759
X78.105Y-160.782
X78.105Y-176.759
X79.375Y-160.782
X79.375Y-176.759
X80.645Y-160.782
X80.645Y-176.759
X82.906Y-161.163
X82.906Y-162.433
X82.906Y-163.703
X82.906Y-164.973
T0
M30
