%TF.GenerationSoftware,KiCad,Pcbnew,(6.0.7-1)-1*%
%TF.CreationDate,2022-08-17T19:26:01+01:00*%
%TF.ProjectId,amoeba-king,616d6f65-6261-42d6-9b69-6e672e6b6963,rev?*%
%TF.SameCoordinates,Original*%
%TF.FileFunction,Drillmap*%
%TF.FilePolarity,Positive*%
%FSLAX45Y45*%
G04 Gerber Fmt 4.5, Leading zero omitted, Abs format (unit mm)*
G04 Created by KiCad (PCBNEW (6.0.7-1)-1) date 2022-08-17 19:26:01*
%MOMM*%
%LPD*%
G01*
G04 APERTURE LIST*
%ADD10C,0.100000*%
%ADD11C,0.200000*%
%ADD12C,0.166000*%
%ADD13C,0.170000*%
%ADD14C,0.300000*%
%ADD15C,0.398018*%
G04 APERTURE END LIST*
D10*
X8305800Y-17691100D02*
X8178800Y-17691100D01*
X7368700Y-16206550D02*
X7368700Y-16508650D01*
X7368700Y-16508650D02*
X7718900Y-16508650D01*
X7718900Y-16508650D02*
X7718900Y-16206550D01*
X7718900Y-16206550D02*
X7368700Y-16206550D01*
X8178800Y-16040100D02*
X8305800Y-16040100D01*
X8369300Y-16103600D02*
X8369300Y-16357600D01*
X6781800Y-16040100D02*
X6908800Y-16040100D01*
X6718300Y-16103600D02*
X6718300Y-16357600D01*
X6718300Y-17373600D02*
X6718300Y-17627600D01*
X6781800Y-17691100D02*
X6908800Y-17691100D01*
X8369300Y-17627600D02*
X8369300Y-17373600D01*
X7035800Y-15913100D02*
X7314500Y-15913100D01*
X6591300Y-16992600D02*
X6591300Y-17246600D01*
X8496300Y-16992600D02*
X8496300Y-17246600D01*
X7314500Y-15913100D02*
G75*
G03*
X7568500Y-15913100I127000J0D01*
G01*
X7568500Y-17818100D02*
G75*
G03*
X7314500Y-17818100I-127000J0D01*
G01*
X7035800Y-17818100D02*
X7314500Y-17818100D01*
X6781800Y-16040100D02*
G75*
G03*
X6718300Y-16103600I0J-63500D01*
G01*
X8369300Y-16103600D02*
G75*
G03*
X8305800Y-16040100I-63500J0D01*
G01*
X6718300Y-17627600D02*
G75*
G03*
X6781800Y-17691100I63500J0D01*
G01*
X6591300Y-17246600D02*
G75*
G03*
X6654800Y-17310100I63500J0D01*
G01*
X8051800Y-15913100D02*
X7568500Y-15913100D01*
X8051800Y-17818100D02*
G75*
G03*
X8115300Y-17754600I0J63500D01*
G01*
X6591300Y-16992600D02*
G75*
G03*
X6591300Y-16738600I0J127000D01*
G01*
X8496300Y-16738600D02*
G75*
G03*
X8496300Y-16992600I0J-127000D01*
G01*
X8305800Y-17691100D02*
G75*
G03*
X8369300Y-17627600I0J63500D01*
G01*
X7568500Y-17818100D02*
X8051800Y-17818100D01*
X6654800Y-16421100D02*
G75*
G03*
X6718300Y-16357600I0J63500D01*
G01*
X6718300Y-17373600D02*
G75*
G03*
X6654800Y-17310100I-63500J0D01*
G01*
X6972300Y-17754600D02*
G75*
G03*
X7035800Y-17818100I63500J0D01*
G01*
X8496300Y-16738600D02*
X8496300Y-16484600D01*
X6908800Y-16040100D02*
G75*
G03*
X6972300Y-15976600I0J63500D01*
G01*
X8369300Y-16357600D02*
G75*
G03*
X8432800Y-16421100I63500J0D01*
G01*
X8115300Y-15976600D02*
G75*
G03*
X8178800Y-16040100I63500J0D01*
G01*
X7035800Y-15913100D02*
G75*
G03*
X6972300Y-15976600I0J-63500D01*
G01*
X8496300Y-16484600D02*
G75*
G03*
X8432800Y-16421100I-63500J0D01*
G01*
X8115300Y-15976600D02*
G75*
G03*
X8051800Y-15913100I-63500J0D01*
G01*
X6654800Y-16421100D02*
G75*
G03*
X6591300Y-16484600I0J-63500D01*
G01*
X8432800Y-17310100D02*
G75*
G03*
X8496300Y-17246600I0J63500D01*
G01*
X6591300Y-16738600D02*
X6591300Y-16484600D01*
X8178800Y-17691100D02*
G75*
G03*
X8115300Y-17754600I0J-63500D01*
G01*
X6972300Y-17754600D02*
G75*
G03*
X6908800Y-17691100I-63500J0D01*
G01*
X8432800Y-17310100D02*
G75*
G03*
X8369300Y-17373600I0J-63500D01*
G01*
D11*
D12*
X7968800Y-16782600D02*
X8134800Y-16948600D01*
X8134800Y-16782600D02*
X7968800Y-16948600D01*
D13*
X7120800Y-16865600D02*
G75*
G03*
X7120800Y-16865600I-85000J0D01*
G01*
D14*
X7289800Y-17223600D02*
X7289800Y-17523600D01*
X7139800Y-17373600D02*
X7439800Y-17373600D01*
X7924800Y-16969600D02*
X7924800Y-17269600D01*
X7774800Y-17119600D02*
X8074800Y-17119600D01*
D15*
X7684522Y-17006322D02*
X7684522Y-16724878D01*
X7403078Y-16724878D01*
X7403078Y-17006322D01*
X7684522Y-17006322D01*
D11*
X6843919Y-18133576D02*
X6843919Y-17933576D01*
X6891538Y-17933576D01*
X6920109Y-17943100D01*
X6939157Y-17962148D01*
X6948681Y-17981195D01*
X6958205Y-18019290D01*
X6958205Y-18047862D01*
X6948681Y-18085957D01*
X6939157Y-18105005D01*
X6920109Y-18124052D01*
X6891538Y-18133576D01*
X6843919Y-18133576D01*
X7043919Y-18133576D02*
X7043919Y-18000243D01*
X7043919Y-18038338D02*
X7053443Y-18019290D01*
X7062967Y-18009767D01*
X7082014Y-18000243D01*
X7101062Y-18000243D01*
X7167728Y-18133576D02*
X7167728Y-18000243D01*
X7167728Y-17933576D02*
X7158205Y-17943100D01*
X7167728Y-17952624D01*
X7177252Y-17943100D01*
X7167728Y-17933576D01*
X7167728Y-17952624D01*
X7291538Y-18133576D02*
X7272490Y-18124052D01*
X7262967Y-18105005D01*
X7262967Y-17933576D01*
X7396300Y-18133576D02*
X7377252Y-18124052D01*
X7367728Y-18105005D01*
X7367728Y-17933576D01*
X7624871Y-18133576D02*
X7624871Y-17933576D01*
X7691538Y-18076433D01*
X7758205Y-17933576D01*
X7758205Y-18133576D01*
X7939157Y-18133576D02*
X7939157Y-18028814D01*
X7929633Y-18009767D01*
X7910586Y-18000243D01*
X7872490Y-18000243D01*
X7853443Y-18009767D01*
X7939157Y-18124052D02*
X7920109Y-18133576D01*
X7872490Y-18133576D01*
X7853443Y-18124052D01*
X7843919Y-18105005D01*
X7843919Y-18085957D01*
X7853443Y-18066910D01*
X7872490Y-18057386D01*
X7920109Y-18057386D01*
X7939157Y-18047862D01*
X8034395Y-18000243D02*
X8034395Y-18200243D01*
X8034395Y-18009767D02*
X8053443Y-18000243D01*
X8091538Y-18000243D01*
X8110586Y-18009767D01*
X8120109Y-18019290D01*
X8129633Y-18038338D01*
X8129633Y-18095481D01*
X8120109Y-18114529D01*
X8110586Y-18124052D01*
X8091538Y-18133576D01*
X8053443Y-18133576D01*
X8034395Y-18124052D01*
X8215348Y-18114529D02*
X8224871Y-18124052D01*
X8215348Y-18133576D01*
X8205824Y-18124052D01*
X8215348Y-18114529D01*
X8215348Y-18133576D01*
X8215348Y-18009767D02*
X8224871Y-18019290D01*
X8215348Y-18028814D01*
X8205824Y-18019290D01*
X8215348Y-18009767D01*
X8215348Y-18028814D01*
D12*
X6420300Y-18380100D02*
X6586300Y-18546100D01*
X6586300Y-18380100D02*
X6420300Y-18546100D01*
D11*
X6948681Y-18553576D02*
X6834395Y-18553576D01*
X6891538Y-18553576D02*
X6891538Y-18353576D01*
X6872490Y-18382148D01*
X6853443Y-18401195D01*
X6834395Y-18410719D01*
X7034395Y-18534529D02*
X7043919Y-18544052D01*
X7034395Y-18553576D01*
X7024871Y-18544052D01*
X7034395Y-18534529D01*
X7034395Y-18553576D01*
X7215348Y-18353576D02*
X7177252Y-18353576D01*
X7158205Y-18363100D01*
X7148681Y-18372624D01*
X7129633Y-18401195D01*
X7120109Y-18439290D01*
X7120109Y-18515481D01*
X7129633Y-18534529D01*
X7139157Y-18544052D01*
X7158205Y-18553576D01*
X7196300Y-18553576D01*
X7215348Y-18544052D01*
X7224871Y-18534529D01*
X7234395Y-18515481D01*
X7234395Y-18467862D01*
X7224871Y-18448814D01*
X7215348Y-18439290D01*
X7196300Y-18429767D01*
X7158205Y-18429767D01*
X7139157Y-18439290D01*
X7129633Y-18448814D01*
X7120109Y-18467862D01*
X7405824Y-18353576D02*
X7367728Y-18353576D01*
X7348681Y-18363100D01*
X7339157Y-18372624D01*
X7320109Y-18401195D01*
X7310586Y-18439290D01*
X7310586Y-18515481D01*
X7320109Y-18534529D01*
X7329633Y-18544052D01*
X7348681Y-18553576D01*
X7386776Y-18553576D01*
X7405824Y-18544052D01*
X7415348Y-18534529D01*
X7424871Y-18515481D01*
X7424871Y-18467862D01*
X7415348Y-18448814D01*
X7405824Y-18439290D01*
X7386776Y-18429767D01*
X7348681Y-18429767D01*
X7329633Y-18439290D01*
X7320109Y-18448814D01*
X7310586Y-18467862D01*
X7548681Y-18353576D02*
X7567728Y-18353576D01*
X7586776Y-18363100D01*
X7596300Y-18372624D01*
X7605824Y-18391671D01*
X7615348Y-18429767D01*
X7615348Y-18477386D01*
X7605824Y-18515481D01*
X7596300Y-18534529D01*
X7586776Y-18544052D01*
X7567728Y-18553576D01*
X7548681Y-18553576D01*
X7529633Y-18544052D01*
X7520109Y-18534529D01*
X7510586Y-18515481D01*
X7501062Y-18477386D01*
X7501062Y-18429767D01*
X7510586Y-18391671D01*
X7520109Y-18372624D01*
X7529633Y-18363100D01*
X7548681Y-18353576D01*
X7701062Y-18553576D02*
X7701062Y-18420243D01*
X7701062Y-18439290D02*
X7710586Y-18429767D01*
X7729633Y-18420243D01*
X7758205Y-18420243D01*
X7777252Y-18429767D01*
X7786776Y-18448814D01*
X7786776Y-18553576D01*
X7786776Y-18448814D02*
X7796300Y-18429767D01*
X7815348Y-18420243D01*
X7843919Y-18420243D01*
X7862967Y-18429767D01*
X7872490Y-18448814D01*
X7872490Y-18553576D01*
X7967728Y-18553576D02*
X7967728Y-18420243D01*
X7967728Y-18439290D02*
X7977252Y-18429767D01*
X7996300Y-18420243D01*
X8024871Y-18420243D01*
X8043919Y-18429767D01*
X8053443Y-18448814D01*
X8053443Y-18553576D01*
X8053443Y-18448814D02*
X8062967Y-18429767D01*
X8082014Y-18420243D01*
X8110586Y-18420243D01*
X8129633Y-18429767D01*
X8139157Y-18448814D01*
X8139157Y-18553576D01*
X8529633Y-18344052D02*
X8358205Y-18601195D01*
X8786776Y-18353576D02*
X8805824Y-18353576D01*
X8824871Y-18363100D01*
X8834395Y-18372624D01*
X8843919Y-18391671D01*
X8853443Y-18429767D01*
X8853443Y-18477386D01*
X8843919Y-18515481D01*
X8834395Y-18534529D01*
X8824871Y-18544052D01*
X8805824Y-18553576D01*
X8786776Y-18553576D01*
X8767729Y-18544052D01*
X8758205Y-18534529D01*
X8748681Y-18515481D01*
X8739157Y-18477386D01*
X8739157Y-18429767D01*
X8748681Y-18391671D01*
X8758205Y-18372624D01*
X8767729Y-18363100D01*
X8786776Y-18353576D01*
X8939157Y-18534529D02*
X8948681Y-18544052D01*
X8939157Y-18553576D01*
X8929633Y-18544052D01*
X8939157Y-18534529D01*
X8939157Y-18553576D01*
X9072490Y-18353576D02*
X9091538Y-18353576D01*
X9110586Y-18363100D01*
X9120110Y-18372624D01*
X9129633Y-18391671D01*
X9139157Y-18429767D01*
X9139157Y-18477386D01*
X9129633Y-18515481D01*
X9120110Y-18534529D01*
X9110586Y-18544052D01*
X9091538Y-18553576D01*
X9072490Y-18553576D01*
X9053443Y-18544052D01*
X9043919Y-18534529D01*
X9034395Y-18515481D01*
X9024871Y-18477386D01*
X9024871Y-18429767D01*
X9034395Y-18391671D01*
X9043919Y-18372624D01*
X9053443Y-18363100D01*
X9072490Y-18353576D01*
X9310586Y-18353576D02*
X9272490Y-18353576D01*
X9253443Y-18363100D01*
X9243919Y-18372624D01*
X9224871Y-18401195D01*
X9215348Y-18439290D01*
X9215348Y-18515481D01*
X9224871Y-18534529D01*
X9234395Y-18544052D01*
X9253443Y-18553576D01*
X9291538Y-18553576D01*
X9310586Y-18544052D01*
X9320110Y-18534529D01*
X9329633Y-18515481D01*
X9329633Y-18467862D01*
X9320110Y-18448814D01*
X9310586Y-18439290D01*
X9291538Y-18429767D01*
X9253443Y-18429767D01*
X9234395Y-18439290D01*
X9224871Y-18448814D01*
X9215348Y-18467862D01*
X9510586Y-18353576D02*
X9415348Y-18353576D01*
X9405824Y-18448814D01*
X9415348Y-18439290D01*
X9434395Y-18429767D01*
X9482014Y-18429767D01*
X9501062Y-18439290D01*
X9510586Y-18448814D01*
X9520110Y-18467862D01*
X9520110Y-18515481D01*
X9510586Y-18534529D01*
X9501062Y-18544052D01*
X9482014Y-18553576D01*
X9434395Y-18553576D01*
X9415348Y-18544052D01*
X9405824Y-18534529D01*
X9691538Y-18420243D02*
X9691538Y-18553576D01*
X9643919Y-18344052D02*
X9596300Y-18486910D01*
X9720110Y-18486910D01*
X9786776Y-18353576D02*
X9786776Y-18391671D01*
X9862967Y-18353576D02*
X9862967Y-18391671D01*
X10158205Y-18629767D02*
X10148681Y-18620243D01*
X10129633Y-18591671D01*
X10120110Y-18572624D01*
X10110586Y-18544052D01*
X10101062Y-18496433D01*
X10101062Y-18458338D01*
X10110586Y-18410719D01*
X10120110Y-18382148D01*
X10129633Y-18363100D01*
X10148681Y-18334529D01*
X10158205Y-18325005D01*
X10339157Y-18553576D02*
X10224871Y-18553576D01*
X10282014Y-18553576D02*
X10282014Y-18353576D01*
X10262967Y-18382148D01*
X10243919Y-18401195D01*
X10224871Y-18410719D01*
X10577252Y-18553576D02*
X10577252Y-18353576D01*
X10662967Y-18553576D02*
X10662967Y-18448814D01*
X10653443Y-18429767D01*
X10634395Y-18420243D01*
X10605824Y-18420243D01*
X10586776Y-18429767D01*
X10577252Y-18439290D01*
X10786776Y-18553576D02*
X10767729Y-18544052D01*
X10758205Y-18534529D01*
X10748681Y-18515481D01*
X10748681Y-18458338D01*
X10758205Y-18439290D01*
X10767729Y-18429767D01*
X10786776Y-18420243D01*
X10815348Y-18420243D01*
X10834395Y-18429767D01*
X10843919Y-18439290D01*
X10853443Y-18458338D01*
X10853443Y-18515481D01*
X10843919Y-18534529D01*
X10834395Y-18544052D01*
X10815348Y-18553576D01*
X10786776Y-18553576D01*
X10967729Y-18553576D02*
X10948681Y-18544052D01*
X10939157Y-18525005D01*
X10939157Y-18353576D01*
X11120110Y-18544052D02*
X11101062Y-18553576D01*
X11062967Y-18553576D01*
X11043919Y-18544052D01*
X11034395Y-18525005D01*
X11034395Y-18448814D01*
X11043919Y-18429767D01*
X11062967Y-18420243D01*
X11101062Y-18420243D01*
X11120110Y-18429767D01*
X11129633Y-18448814D01*
X11129633Y-18467862D01*
X11034395Y-18486910D01*
X11196300Y-18629767D02*
X11205824Y-18620243D01*
X11224871Y-18591671D01*
X11234395Y-18572624D01*
X11243919Y-18544052D01*
X11253443Y-18496433D01*
X11253443Y-18458338D01*
X11243919Y-18410719D01*
X11234395Y-18382148D01*
X11224871Y-18363100D01*
X11205824Y-18334529D01*
X11196300Y-18325005D01*
X11558205Y-18629767D02*
X11548681Y-18620243D01*
X11529633Y-18591671D01*
X11520109Y-18572624D01*
X11510586Y-18544052D01*
X11501062Y-18496433D01*
X11501062Y-18458338D01*
X11510586Y-18410719D01*
X11520109Y-18382148D01*
X11529633Y-18363100D01*
X11548681Y-18334529D01*
X11558205Y-18325005D01*
X11634395Y-18420243D02*
X11634395Y-18553576D01*
X11634395Y-18439290D02*
X11643919Y-18429767D01*
X11662967Y-18420243D01*
X11691538Y-18420243D01*
X11710586Y-18429767D01*
X11720109Y-18448814D01*
X11720109Y-18553576D01*
X11843919Y-18553576D02*
X11824871Y-18544052D01*
X11815348Y-18534529D01*
X11805824Y-18515481D01*
X11805824Y-18458338D01*
X11815348Y-18439290D01*
X11824871Y-18429767D01*
X11843919Y-18420243D01*
X11872490Y-18420243D01*
X11891538Y-18429767D01*
X11901062Y-18439290D01*
X11910586Y-18458338D01*
X11910586Y-18515481D01*
X11901062Y-18534529D01*
X11891538Y-18544052D01*
X11872490Y-18553576D01*
X11843919Y-18553576D01*
X11967728Y-18420243D02*
X12043919Y-18420243D01*
X11996300Y-18353576D02*
X11996300Y-18525005D01*
X12005824Y-18544052D01*
X12024871Y-18553576D01*
X12043919Y-18553576D01*
X12262967Y-18420243D02*
X12262967Y-18620243D01*
X12262967Y-18429767D02*
X12282014Y-18420243D01*
X12320109Y-18420243D01*
X12339157Y-18429767D01*
X12348681Y-18439290D01*
X12358205Y-18458338D01*
X12358205Y-18515481D01*
X12348681Y-18534529D01*
X12339157Y-18544052D01*
X12320109Y-18553576D01*
X12282014Y-18553576D01*
X12262967Y-18544052D01*
X12472490Y-18553576D02*
X12453443Y-18544052D01*
X12443919Y-18525005D01*
X12443919Y-18353576D01*
X12634395Y-18553576D02*
X12634395Y-18448814D01*
X12624871Y-18429767D01*
X12605824Y-18420243D01*
X12567728Y-18420243D01*
X12548681Y-18429767D01*
X12634395Y-18544052D02*
X12615348Y-18553576D01*
X12567728Y-18553576D01*
X12548681Y-18544052D01*
X12539157Y-18525005D01*
X12539157Y-18505957D01*
X12548681Y-18486910D01*
X12567728Y-18477386D01*
X12615348Y-18477386D01*
X12634395Y-18467862D01*
X12701062Y-18420243D02*
X12777252Y-18420243D01*
X12729633Y-18353576D02*
X12729633Y-18525005D01*
X12739157Y-18544052D01*
X12758205Y-18553576D01*
X12777252Y-18553576D01*
X12920109Y-18544052D02*
X12901062Y-18553576D01*
X12862967Y-18553576D01*
X12843919Y-18544052D01*
X12834395Y-18525005D01*
X12834395Y-18448814D01*
X12843919Y-18429767D01*
X12862967Y-18420243D01*
X12901062Y-18420243D01*
X12920109Y-18429767D01*
X12929633Y-18448814D01*
X12929633Y-18467862D01*
X12834395Y-18486910D01*
X13101062Y-18553576D02*
X13101062Y-18353576D01*
X13101062Y-18544052D02*
X13082014Y-18553576D01*
X13043919Y-18553576D01*
X13024871Y-18544052D01*
X13015348Y-18534529D01*
X13005824Y-18515481D01*
X13005824Y-18458338D01*
X13015348Y-18439290D01*
X13024871Y-18429767D01*
X13043919Y-18420243D01*
X13082014Y-18420243D01*
X13101062Y-18429767D01*
X13177252Y-18629767D02*
X13186776Y-18620243D01*
X13205824Y-18591671D01*
X13215348Y-18572624D01*
X13224871Y-18544052D01*
X13234395Y-18496433D01*
X13234395Y-18458338D01*
X13224871Y-18410719D01*
X13215348Y-18382148D01*
X13205824Y-18363100D01*
X13186776Y-18334529D01*
X13177252Y-18325005D01*
D13*
X6586300Y-18749100D02*
G75*
G03*
X6586300Y-18749100I-85000J0D01*
G01*
D11*
X6948681Y-18839576D02*
X6834395Y-18839576D01*
X6891538Y-18839576D02*
X6891538Y-18639576D01*
X6872490Y-18668148D01*
X6853443Y-18687195D01*
X6834395Y-18696719D01*
X7034395Y-18820529D02*
X7043919Y-18830052D01*
X7034395Y-18839576D01*
X7024871Y-18830052D01*
X7034395Y-18820529D01*
X7034395Y-18839576D01*
X7110586Y-18639576D02*
X7243919Y-18639576D01*
X7158205Y-18839576D01*
X7358205Y-18639576D02*
X7377252Y-18639576D01*
X7396300Y-18649100D01*
X7405824Y-18658624D01*
X7415348Y-18677671D01*
X7424871Y-18715767D01*
X7424871Y-18763386D01*
X7415348Y-18801481D01*
X7405824Y-18820529D01*
X7396300Y-18830052D01*
X7377252Y-18839576D01*
X7358205Y-18839576D01*
X7339157Y-18830052D01*
X7329633Y-18820529D01*
X7320109Y-18801481D01*
X7310586Y-18763386D01*
X7310586Y-18715767D01*
X7320109Y-18677671D01*
X7329633Y-18658624D01*
X7339157Y-18649100D01*
X7358205Y-18639576D01*
X7548681Y-18639576D02*
X7567728Y-18639576D01*
X7586776Y-18649100D01*
X7596300Y-18658624D01*
X7605824Y-18677671D01*
X7615348Y-18715767D01*
X7615348Y-18763386D01*
X7605824Y-18801481D01*
X7596300Y-18820529D01*
X7586776Y-18830052D01*
X7567728Y-18839576D01*
X7548681Y-18839576D01*
X7529633Y-18830052D01*
X7520109Y-18820529D01*
X7510586Y-18801481D01*
X7501062Y-18763386D01*
X7501062Y-18715767D01*
X7510586Y-18677671D01*
X7520109Y-18658624D01*
X7529633Y-18649100D01*
X7548681Y-18639576D01*
X7701062Y-18839576D02*
X7701062Y-18706243D01*
X7701062Y-18725290D02*
X7710586Y-18715767D01*
X7729633Y-18706243D01*
X7758205Y-18706243D01*
X7777252Y-18715767D01*
X7786776Y-18734814D01*
X7786776Y-18839576D01*
X7786776Y-18734814D02*
X7796300Y-18715767D01*
X7815348Y-18706243D01*
X7843919Y-18706243D01*
X7862967Y-18715767D01*
X7872490Y-18734814D01*
X7872490Y-18839576D01*
X7967728Y-18839576D02*
X7967728Y-18706243D01*
X7967728Y-18725290D02*
X7977252Y-18715767D01*
X7996300Y-18706243D01*
X8024871Y-18706243D01*
X8043919Y-18715767D01*
X8053443Y-18734814D01*
X8053443Y-18839576D01*
X8053443Y-18734814D02*
X8062967Y-18715767D01*
X8082014Y-18706243D01*
X8110586Y-18706243D01*
X8129633Y-18715767D01*
X8139157Y-18734814D01*
X8139157Y-18839576D01*
X8529633Y-18630052D02*
X8358205Y-18887195D01*
X8786776Y-18639576D02*
X8805824Y-18639576D01*
X8824871Y-18649100D01*
X8834395Y-18658624D01*
X8843919Y-18677671D01*
X8853443Y-18715767D01*
X8853443Y-18763386D01*
X8843919Y-18801481D01*
X8834395Y-18820529D01*
X8824871Y-18830052D01*
X8805824Y-18839576D01*
X8786776Y-18839576D01*
X8767729Y-18830052D01*
X8758205Y-18820529D01*
X8748681Y-18801481D01*
X8739157Y-18763386D01*
X8739157Y-18715767D01*
X8748681Y-18677671D01*
X8758205Y-18658624D01*
X8767729Y-18649100D01*
X8786776Y-18639576D01*
X8939157Y-18820529D02*
X8948681Y-18830052D01*
X8939157Y-18839576D01*
X8929633Y-18830052D01*
X8939157Y-18820529D01*
X8939157Y-18839576D01*
X9072490Y-18639576D02*
X9091538Y-18639576D01*
X9110586Y-18649100D01*
X9120110Y-18658624D01*
X9129633Y-18677671D01*
X9139157Y-18715767D01*
X9139157Y-18763386D01*
X9129633Y-18801481D01*
X9120110Y-18820529D01*
X9110586Y-18830052D01*
X9091538Y-18839576D01*
X9072490Y-18839576D01*
X9053443Y-18830052D01*
X9043919Y-18820529D01*
X9034395Y-18801481D01*
X9024871Y-18763386D01*
X9024871Y-18715767D01*
X9034395Y-18677671D01*
X9043919Y-18658624D01*
X9053443Y-18649100D01*
X9072490Y-18639576D01*
X9310586Y-18639576D02*
X9272490Y-18639576D01*
X9253443Y-18649100D01*
X9243919Y-18658624D01*
X9224871Y-18687195D01*
X9215348Y-18725290D01*
X9215348Y-18801481D01*
X9224871Y-18820529D01*
X9234395Y-18830052D01*
X9253443Y-18839576D01*
X9291538Y-18839576D01*
X9310586Y-18830052D01*
X9320110Y-18820529D01*
X9329633Y-18801481D01*
X9329633Y-18753862D01*
X9320110Y-18734814D01*
X9310586Y-18725290D01*
X9291538Y-18715767D01*
X9253443Y-18715767D01*
X9234395Y-18725290D01*
X9224871Y-18734814D01*
X9215348Y-18753862D01*
X9501062Y-18639576D02*
X9462967Y-18639576D01*
X9443919Y-18649100D01*
X9434395Y-18658624D01*
X9415348Y-18687195D01*
X9405824Y-18725290D01*
X9405824Y-18801481D01*
X9415348Y-18820529D01*
X9424871Y-18830052D01*
X9443919Y-18839576D01*
X9482014Y-18839576D01*
X9501062Y-18830052D01*
X9510586Y-18820529D01*
X9520110Y-18801481D01*
X9520110Y-18753862D01*
X9510586Y-18734814D01*
X9501062Y-18725290D01*
X9482014Y-18715767D01*
X9443919Y-18715767D01*
X9424871Y-18725290D01*
X9415348Y-18734814D01*
X9405824Y-18753862D01*
X9615348Y-18839576D02*
X9653443Y-18839576D01*
X9672490Y-18830052D01*
X9682014Y-18820529D01*
X9701062Y-18791957D01*
X9710586Y-18753862D01*
X9710586Y-18677671D01*
X9701062Y-18658624D01*
X9691538Y-18649100D01*
X9672490Y-18639576D01*
X9634395Y-18639576D01*
X9615348Y-18649100D01*
X9605824Y-18658624D01*
X9596300Y-18677671D01*
X9596300Y-18725290D01*
X9605824Y-18744338D01*
X9615348Y-18753862D01*
X9634395Y-18763386D01*
X9672490Y-18763386D01*
X9691538Y-18753862D01*
X9701062Y-18744338D01*
X9710586Y-18725290D01*
X9786776Y-18639576D02*
X9786776Y-18677671D01*
X9862967Y-18639576D02*
X9862967Y-18677671D01*
X10158205Y-18915767D02*
X10148681Y-18906243D01*
X10129633Y-18877671D01*
X10120110Y-18858624D01*
X10110586Y-18830052D01*
X10101062Y-18782433D01*
X10101062Y-18744338D01*
X10110586Y-18696719D01*
X10120110Y-18668148D01*
X10129633Y-18649100D01*
X10148681Y-18620529D01*
X10158205Y-18611005D01*
X10339157Y-18839576D02*
X10224871Y-18839576D01*
X10282014Y-18839576D02*
X10282014Y-18639576D01*
X10262967Y-18668148D01*
X10243919Y-18687195D01*
X10224871Y-18696719D01*
X10577252Y-18839576D02*
X10577252Y-18639576D01*
X10662967Y-18839576D02*
X10662967Y-18734814D01*
X10653443Y-18715767D01*
X10634395Y-18706243D01*
X10605824Y-18706243D01*
X10586776Y-18715767D01*
X10577252Y-18725290D01*
X10786776Y-18839576D02*
X10767729Y-18830052D01*
X10758205Y-18820529D01*
X10748681Y-18801481D01*
X10748681Y-18744338D01*
X10758205Y-18725290D01*
X10767729Y-18715767D01*
X10786776Y-18706243D01*
X10815348Y-18706243D01*
X10834395Y-18715767D01*
X10843919Y-18725290D01*
X10853443Y-18744338D01*
X10853443Y-18801481D01*
X10843919Y-18820529D01*
X10834395Y-18830052D01*
X10815348Y-18839576D01*
X10786776Y-18839576D01*
X10967729Y-18839576D02*
X10948681Y-18830052D01*
X10939157Y-18811005D01*
X10939157Y-18639576D01*
X11120110Y-18830052D02*
X11101062Y-18839576D01*
X11062967Y-18839576D01*
X11043919Y-18830052D01*
X11034395Y-18811005D01*
X11034395Y-18734814D01*
X11043919Y-18715767D01*
X11062967Y-18706243D01*
X11101062Y-18706243D01*
X11120110Y-18715767D01*
X11129633Y-18734814D01*
X11129633Y-18753862D01*
X11034395Y-18772910D01*
X11196300Y-18915767D02*
X11205824Y-18906243D01*
X11224871Y-18877671D01*
X11234395Y-18858624D01*
X11243919Y-18830052D01*
X11253443Y-18782433D01*
X11253443Y-18744338D01*
X11243919Y-18696719D01*
X11234395Y-18668148D01*
X11224871Y-18649100D01*
X11205824Y-18620529D01*
X11196300Y-18611005D01*
X11558205Y-18915767D02*
X11548681Y-18906243D01*
X11529633Y-18877671D01*
X11520109Y-18858624D01*
X11510586Y-18830052D01*
X11501062Y-18782433D01*
X11501062Y-18744338D01*
X11510586Y-18696719D01*
X11520109Y-18668148D01*
X11529633Y-18649100D01*
X11548681Y-18620529D01*
X11558205Y-18611005D01*
X11634395Y-18706243D02*
X11634395Y-18839576D01*
X11634395Y-18725290D02*
X11643919Y-18715767D01*
X11662967Y-18706243D01*
X11691538Y-18706243D01*
X11710586Y-18715767D01*
X11720109Y-18734814D01*
X11720109Y-18839576D01*
X11843919Y-18839576D02*
X11824871Y-18830052D01*
X11815348Y-18820529D01*
X11805824Y-18801481D01*
X11805824Y-18744338D01*
X11815348Y-18725290D01*
X11824871Y-18715767D01*
X11843919Y-18706243D01*
X11872490Y-18706243D01*
X11891538Y-18715767D01*
X11901062Y-18725290D01*
X11910586Y-18744338D01*
X11910586Y-18801481D01*
X11901062Y-18820529D01*
X11891538Y-18830052D01*
X11872490Y-18839576D01*
X11843919Y-18839576D01*
X11967728Y-18706243D02*
X12043919Y-18706243D01*
X11996300Y-18639576D02*
X11996300Y-18811005D01*
X12005824Y-18830052D01*
X12024871Y-18839576D01*
X12043919Y-18839576D01*
X12262967Y-18706243D02*
X12262967Y-18906243D01*
X12262967Y-18715767D02*
X12282014Y-18706243D01*
X12320109Y-18706243D01*
X12339157Y-18715767D01*
X12348681Y-18725290D01*
X12358205Y-18744338D01*
X12358205Y-18801481D01*
X12348681Y-18820529D01*
X12339157Y-18830052D01*
X12320109Y-18839576D01*
X12282014Y-18839576D01*
X12262967Y-18830052D01*
X12472490Y-18839576D02*
X12453443Y-18830052D01*
X12443919Y-18811005D01*
X12443919Y-18639576D01*
X12634395Y-18839576D02*
X12634395Y-18734814D01*
X12624871Y-18715767D01*
X12605824Y-18706243D01*
X12567728Y-18706243D01*
X12548681Y-18715767D01*
X12634395Y-18830052D02*
X12615348Y-18839576D01*
X12567728Y-18839576D01*
X12548681Y-18830052D01*
X12539157Y-18811005D01*
X12539157Y-18791957D01*
X12548681Y-18772910D01*
X12567728Y-18763386D01*
X12615348Y-18763386D01*
X12634395Y-18753862D01*
X12701062Y-18706243D02*
X12777252Y-18706243D01*
X12729633Y-18639576D02*
X12729633Y-18811005D01*
X12739157Y-18830052D01*
X12758205Y-18839576D01*
X12777252Y-18839576D01*
X12920109Y-18830052D02*
X12901062Y-18839576D01*
X12862967Y-18839576D01*
X12843919Y-18830052D01*
X12834395Y-18811005D01*
X12834395Y-18734814D01*
X12843919Y-18715767D01*
X12862967Y-18706243D01*
X12901062Y-18706243D01*
X12920109Y-18715767D01*
X12929633Y-18734814D01*
X12929633Y-18753862D01*
X12834395Y-18772910D01*
X13101062Y-18839576D02*
X13101062Y-18639576D01*
X13101062Y-18830052D02*
X13082014Y-18839576D01*
X13043919Y-18839576D01*
X13024871Y-18830052D01*
X13015348Y-18820529D01*
X13005824Y-18801481D01*
X13005824Y-18744338D01*
X13015348Y-18725290D01*
X13024871Y-18715767D01*
X13043919Y-18706243D01*
X13082014Y-18706243D01*
X13101062Y-18715767D01*
X13177252Y-18915767D02*
X13186776Y-18906243D01*
X13205824Y-18877671D01*
X13215348Y-18858624D01*
X13224871Y-18830052D01*
X13234395Y-18782433D01*
X13234395Y-18744338D01*
X13224871Y-18696719D01*
X13215348Y-18668148D01*
X13205824Y-18649100D01*
X13186776Y-18620529D01*
X13177252Y-18611005D01*
X6486300Y-18939100D02*
X6486300Y-19139100D01*
X6386300Y-19039100D02*
X6586300Y-19039100D01*
X6824871Y-18929576D02*
X6948681Y-18929576D01*
X6882014Y-19005767D01*
X6910586Y-19005767D01*
X6929633Y-19015290D01*
X6939157Y-19024814D01*
X6948681Y-19043862D01*
X6948681Y-19091481D01*
X6939157Y-19110529D01*
X6929633Y-19120052D01*
X6910586Y-19129576D01*
X6853443Y-19129576D01*
X6834395Y-19120052D01*
X6824871Y-19110529D01*
X7034395Y-19110529D02*
X7043919Y-19120052D01*
X7034395Y-19129576D01*
X7024871Y-19120052D01*
X7034395Y-19110529D01*
X7034395Y-19129576D01*
X7167728Y-18929576D02*
X7186776Y-18929576D01*
X7205824Y-18939100D01*
X7215348Y-18948624D01*
X7224871Y-18967671D01*
X7234395Y-19005767D01*
X7234395Y-19053386D01*
X7224871Y-19091481D01*
X7215348Y-19110529D01*
X7205824Y-19120052D01*
X7186776Y-19129576D01*
X7167728Y-19129576D01*
X7148681Y-19120052D01*
X7139157Y-19110529D01*
X7129633Y-19091481D01*
X7120109Y-19053386D01*
X7120109Y-19005767D01*
X7129633Y-18967671D01*
X7139157Y-18948624D01*
X7148681Y-18939100D01*
X7167728Y-18929576D01*
X7358205Y-18929576D02*
X7377252Y-18929576D01*
X7396300Y-18939100D01*
X7405824Y-18948624D01*
X7415348Y-18967671D01*
X7424871Y-19005767D01*
X7424871Y-19053386D01*
X7415348Y-19091481D01*
X7405824Y-19110529D01*
X7396300Y-19120052D01*
X7377252Y-19129576D01*
X7358205Y-19129576D01*
X7339157Y-19120052D01*
X7329633Y-19110529D01*
X7320109Y-19091481D01*
X7310586Y-19053386D01*
X7310586Y-19005767D01*
X7320109Y-18967671D01*
X7329633Y-18948624D01*
X7339157Y-18939100D01*
X7358205Y-18929576D01*
X7548681Y-18929576D02*
X7567728Y-18929576D01*
X7586776Y-18939100D01*
X7596300Y-18948624D01*
X7605824Y-18967671D01*
X7615348Y-19005767D01*
X7615348Y-19053386D01*
X7605824Y-19091481D01*
X7596300Y-19110529D01*
X7586776Y-19120052D01*
X7567728Y-19129576D01*
X7548681Y-19129576D01*
X7529633Y-19120052D01*
X7520109Y-19110529D01*
X7510586Y-19091481D01*
X7501062Y-19053386D01*
X7501062Y-19005767D01*
X7510586Y-18967671D01*
X7520109Y-18948624D01*
X7529633Y-18939100D01*
X7548681Y-18929576D01*
X7701062Y-19129576D02*
X7701062Y-18996243D01*
X7701062Y-19015290D02*
X7710586Y-19005767D01*
X7729633Y-18996243D01*
X7758205Y-18996243D01*
X7777252Y-19005767D01*
X7786776Y-19024814D01*
X7786776Y-19129576D01*
X7786776Y-19024814D02*
X7796300Y-19005767D01*
X7815348Y-18996243D01*
X7843919Y-18996243D01*
X7862967Y-19005767D01*
X7872490Y-19024814D01*
X7872490Y-19129576D01*
X7967728Y-19129576D02*
X7967728Y-18996243D01*
X7967728Y-19015290D02*
X7977252Y-19005767D01*
X7996300Y-18996243D01*
X8024871Y-18996243D01*
X8043919Y-19005767D01*
X8053443Y-19024814D01*
X8053443Y-19129576D01*
X8053443Y-19024814D02*
X8062967Y-19005767D01*
X8082014Y-18996243D01*
X8110586Y-18996243D01*
X8129633Y-19005767D01*
X8139157Y-19024814D01*
X8139157Y-19129576D01*
X8529633Y-18920052D02*
X8358205Y-19177195D01*
X8786776Y-18929576D02*
X8805824Y-18929576D01*
X8824871Y-18939100D01*
X8834395Y-18948624D01*
X8843919Y-18967671D01*
X8853443Y-19005767D01*
X8853443Y-19053386D01*
X8843919Y-19091481D01*
X8834395Y-19110529D01*
X8824871Y-19120052D01*
X8805824Y-19129576D01*
X8786776Y-19129576D01*
X8767729Y-19120052D01*
X8758205Y-19110529D01*
X8748681Y-19091481D01*
X8739157Y-19053386D01*
X8739157Y-19005767D01*
X8748681Y-18967671D01*
X8758205Y-18948624D01*
X8767729Y-18939100D01*
X8786776Y-18929576D01*
X8939157Y-19110529D02*
X8948681Y-19120052D01*
X8939157Y-19129576D01*
X8929633Y-19120052D01*
X8939157Y-19110529D01*
X8939157Y-19129576D01*
X9139157Y-19129576D02*
X9024871Y-19129576D01*
X9082014Y-19129576D02*
X9082014Y-18929576D01*
X9062967Y-18958148D01*
X9043919Y-18977195D01*
X9024871Y-18986719D01*
X9329633Y-19129576D02*
X9215348Y-19129576D01*
X9272490Y-19129576D02*
X9272490Y-18929576D01*
X9253443Y-18958148D01*
X9234395Y-18977195D01*
X9215348Y-18986719D01*
X9443919Y-19015290D02*
X9424871Y-19005767D01*
X9415348Y-18996243D01*
X9405824Y-18977195D01*
X9405824Y-18967671D01*
X9415348Y-18948624D01*
X9424871Y-18939100D01*
X9443919Y-18929576D01*
X9482014Y-18929576D01*
X9501062Y-18939100D01*
X9510586Y-18948624D01*
X9520110Y-18967671D01*
X9520110Y-18977195D01*
X9510586Y-18996243D01*
X9501062Y-19005767D01*
X9482014Y-19015290D01*
X9443919Y-19015290D01*
X9424871Y-19024814D01*
X9415348Y-19034338D01*
X9405824Y-19053386D01*
X9405824Y-19091481D01*
X9415348Y-19110529D01*
X9424871Y-19120052D01*
X9443919Y-19129576D01*
X9482014Y-19129576D01*
X9501062Y-19120052D01*
X9510586Y-19110529D01*
X9520110Y-19091481D01*
X9520110Y-19053386D01*
X9510586Y-19034338D01*
X9501062Y-19024814D01*
X9482014Y-19015290D01*
X9710586Y-19129576D02*
X9596300Y-19129576D01*
X9653443Y-19129576D02*
X9653443Y-18929576D01*
X9634395Y-18958148D01*
X9615348Y-18977195D01*
X9596300Y-18986719D01*
X9786776Y-18929576D02*
X9786776Y-18967671D01*
X9862967Y-18929576D02*
X9862967Y-18967671D01*
X10158205Y-19205767D02*
X10148681Y-19196243D01*
X10129633Y-19167671D01*
X10120110Y-19148624D01*
X10110586Y-19120052D01*
X10101062Y-19072433D01*
X10101062Y-19034338D01*
X10110586Y-18986719D01*
X10120110Y-18958148D01*
X10129633Y-18939100D01*
X10148681Y-18910529D01*
X10158205Y-18901005D01*
X10224871Y-18948624D02*
X10234395Y-18939100D01*
X10253443Y-18929576D01*
X10301062Y-18929576D01*
X10320110Y-18939100D01*
X10329633Y-18948624D01*
X10339157Y-18967671D01*
X10339157Y-18986719D01*
X10329633Y-19015290D01*
X10215348Y-19129576D01*
X10339157Y-19129576D01*
X10577252Y-19129576D02*
X10577252Y-18929576D01*
X10662967Y-19129576D02*
X10662967Y-19024814D01*
X10653443Y-19005767D01*
X10634395Y-18996243D01*
X10605824Y-18996243D01*
X10586776Y-19005767D01*
X10577252Y-19015290D01*
X10786776Y-19129576D02*
X10767729Y-19120052D01*
X10758205Y-19110529D01*
X10748681Y-19091481D01*
X10748681Y-19034338D01*
X10758205Y-19015290D01*
X10767729Y-19005767D01*
X10786776Y-18996243D01*
X10815348Y-18996243D01*
X10834395Y-19005767D01*
X10843919Y-19015290D01*
X10853443Y-19034338D01*
X10853443Y-19091481D01*
X10843919Y-19110529D01*
X10834395Y-19120052D01*
X10815348Y-19129576D01*
X10786776Y-19129576D01*
X10967729Y-19129576D02*
X10948681Y-19120052D01*
X10939157Y-19101005D01*
X10939157Y-18929576D01*
X11120110Y-19120052D02*
X11101062Y-19129576D01*
X11062967Y-19129576D01*
X11043919Y-19120052D01*
X11034395Y-19101005D01*
X11034395Y-19024814D01*
X11043919Y-19005767D01*
X11062967Y-18996243D01*
X11101062Y-18996243D01*
X11120110Y-19005767D01*
X11129633Y-19024814D01*
X11129633Y-19043862D01*
X11034395Y-19062910D01*
X11205824Y-19120052D02*
X11224871Y-19129576D01*
X11262967Y-19129576D01*
X11282014Y-19120052D01*
X11291538Y-19101005D01*
X11291538Y-19091481D01*
X11282014Y-19072433D01*
X11262967Y-19062910D01*
X11234395Y-19062910D01*
X11215348Y-19053386D01*
X11205824Y-19034338D01*
X11205824Y-19024814D01*
X11215348Y-19005767D01*
X11234395Y-18996243D01*
X11262967Y-18996243D01*
X11282014Y-19005767D01*
X11358205Y-19205767D02*
X11367728Y-19196243D01*
X11386776Y-19167671D01*
X11396300Y-19148624D01*
X11405824Y-19120052D01*
X11415348Y-19072433D01*
X11415348Y-19034338D01*
X11405824Y-18986719D01*
X11396300Y-18958148D01*
X11386776Y-18939100D01*
X11367728Y-18910529D01*
X11358205Y-18901005D01*
X11720109Y-19205767D02*
X11710586Y-19196243D01*
X11691538Y-19167671D01*
X11682014Y-19148624D01*
X11672490Y-19120052D01*
X11662967Y-19072433D01*
X11662967Y-19034338D01*
X11672490Y-18986719D01*
X11682014Y-18958148D01*
X11691538Y-18939100D01*
X11710586Y-18910529D01*
X11720109Y-18901005D01*
X11796300Y-18996243D02*
X11796300Y-19129576D01*
X11796300Y-19015290D02*
X11805824Y-19005767D01*
X11824871Y-18996243D01*
X11853443Y-18996243D01*
X11872490Y-19005767D01*
X11882014Y-19024814D01*
X11882014Y-19129576D01*
X12005824Y-19129576D02*
X11986776Y-19120052D01*
X11977252Y-19110529D01*
X11967728Y-19091481D01*
X11967728Y-19034338D01*
X11977252Y-19015290D01*
X11986776Y-19005767D01*
X12005824Y-18996243D01*
X12034395Y-18996243D01*
X12053443Y-19005767D01*
X12062967Y-19015290D01*
X12072490Y-19034338D01*
X12072490Y-19091481D01*
X12062967Y-19110529D01*
X12053443Y-19120052D01*
X12034395Y-19129576D01*
X12005824Y-19129576D01*
X12129633Y-18996243D02*
X12205824Y-18996243D01*
X12158205Y-18929576D02*
X12158205Y-19101005D01*
X12167728Y-19120052D01*
X12186776Y-19129576D01*
X12205824Y-19129576D01*
X12424871Y-18996243D02*
X12424871Y-19196243D01*
X12424871Y-19005767D02*
X12443919Y-18996243D01*
X12482014Y-18996243D01*
X12501062Y-19005767D01*
X12510586Y-19015290D01*
X12520109Y-19034338D01*
X12520109Y-19091481D01*
X12510586Y-19110529D01*
X12501062Y-19120052D01*
X12482014Y-19129576D01*
X12443919Y-19129576D01*
X12424871Y-19120052D01*
X12634395Y-19129576D02*
X12615348Y-19120052D01*
X12605824Y-19101005D01*
X12605824Y-18929576D01*
X12796300Y-19129576D02*
X12796300Y-19024814D01*
X12786776Y-19005767D01*
X12767728Y-18996243D01*
X12729633Y-18996243D01*
X12710586Y-19005767D01*
X12796300Y-19120052D02*
X12777252Y-19129576D01*
X12729633Y-19129576D01*
X12710586Y-19120052D01*
X12701062Y-19101005D01*
X12701062Y-19081957D01*
X12710586Y-19062910D01*
X12729633Y-19053386D01*
X12777252Y-19053386D01*
X12796300Y-19043862D01*
X12862967Y-18996243D02*
X12939157Y-18996243D01*
X12891538Y-18929576D02*
X12891538Y-19101005D01*
X12901062Y-19120052D01*
X12920109Y-19129576D01*
X12939157Y-19129576D01*
X13082014Y-19120052D02*
X13062967Y-19129576D01*
X13024871Y-19129576D01*
X13005824Y-19120052D01*
X12996300Y-19101005D01*
X12996300Y-19024814D01*
X13005824Y-19005767D01*
X13024871Y-18996243D01*
X13062967Y-18996243D01*
X13082014Y-19005767D01*
X13091538Y-19024814D01*
X13091538Y-19043862D01*
X12996300Y-19062910D01*
X13262967Y-19129576D02*
X13262967Y-18929576D01*
X13262967Y-19120052D02*
X13243919Y-19129576D01*
X13205824Y-19129576D01*
X13186776Y-19120052D01*
X13177252Y-19110529D01*
X13167728Y-19091481D01*
X13167728Y-19034338D01*
X13177252Y-19015290D01*
X13186776Y-19005767D01*
X13205824Y-18996243D01*
X13243919Y-18996243D01*
X13262967Y-19005767D01*
X13339157Y-19205767D02*
X13348681Y-19196243D01*
X13367728Y-19167671D01*
X13377252Y-19148624D01*
X13386776Y-19120052D01*
X13396300Y-19072433D01*
X13396300Y-19034338D01*
X13386776Y-18986719D01*
X13377252Y-18958148D01*
X13367728Y-18939100D01*
X13348681Y-18910529D01*
X13339157Y-18901005D01*
X6557011Y-19429811D02*
X6557011Y-19288389D01*
X6415589Y-19288389D01*
X6415589Y-19429811D01*
X6557011Y-19429811D01*
X6824871Y-19249576D02*
X6948681Y-19249576D01*
X6882014Y-19325767D01*
X6910586Y-19325767D01*
X6929633Y-19335290D01*
X6939157Y-19344814D01*
X6948681Y-19363862D01*
X6948681Y-19411481D01*
X6939157Y-19430529D01*
X6929633Y-19440052D01*
X6910586Y-19449576D01*
X6853443Y-19449576D01*
X6834395Y-19440052D01*
X6824871Y-19430529D01*
X7034395Y-19430529D02*
X7043919Y-19440052D01*
X7034395Y-19449576D01*
X7024871Y-19440052D01*
X7034395Y-19430529D01*
X7034395Y-19449576D01*
X7139157Y-19449576D02*
X7177252Y-19449576D01*
X7196300Y-19440052D01*
X7205824Y-19430529D01*
X7224871Y-19401957D01*
X7234395Y-19363862D01*
X7234395Y-19287671D01*
X7224871Y-19268624D01*
X7215348Y-19259100D01*
X7196300Y-19249576D01*
X7158205Y-19249576D01*
X7139157Y-19259100D01*
X7129633Y-19268624D01*
X7120109Y-19287671D01*
X7120109Y-19335290D01*
X7129633Y-19354338D01*
X7139157Y-19363862D01*
X7158205Y-19373386D01*
X7196300Y-19373386D01*
X7215348Y-19363862D01*
X7224871Y-19354338D01*
X7234395Y-19335290D01*
X7348681Y-19335290D02*
X7329633Y-19325767D01*
X7320109Y-19316243D01*
X7310586Y-19297195D01*
X7310586Y-19287671D01*
X7320109Y-19268624D01*
X7329633Y-19259100D01*
X7348681Y-19249576D01*
X7386776Y-19249576D01*
X7405824Y-19259100D01*
X7415348Y-19268624D01*
X7424871Y-19287671D01*
X7424871Y-19297195D01*
X7415348Y-19316243D01*
X7405824Y-19325767D01*
X7386776Y-19335290D01*
X7348681Y-19335290D01*
X7329633Y-19344814D01*
X7320109Y-19354338D01*
X7310586Y-19373386D01*
X7310586Y-19411481D01*
X7320109Y-19430529D01*
X7329633Y-19440052D01*
X7348681Y-19449576D01*
X7386776Y-19449576D01*
X7405824Y-19440052D01*
X7415348Y-19430529D01*
X7424871Y-19411481D01*
X7424871Y-19373386D01*
X7415348Y-19354338D01*
X7405824Y-19344814D01*
X7386776Y-19335290D01*
X7548681Y-19249576D02*
X7567728Y-19249576D01*
X7586776Y-19259100D01*
X7596300Y-19268624D01*
X7605824Y-19287671D01*
X7615348Y-19325767D01*
X7615348Y-19373386D01*
X7605824Y-19411481D01*
X7596300Y-19430529D01*
X7586776Y-19440052D01*
X7567728Y-19449576D01*
X7548681Y-19449576D01*
X7529633Y-19440052D01*
X7520109Y-19430529D01*
X7510586Y-19411481D01*
X7501062Y-19373386D01*
X7501062Y-19325767D01*
X7510586Y-19287671D01*
X7520109Y-19268624D01*
X7529633Y-19259100D01*
X7548681Y-19249576D01*
X7701062Y-19449576D02*
X7701062Y-19316243D01*
X7701062Y-19335290D02*
X7710586Y-19325767D01*
X7729633Y-19316243D01*
X7758205Y-19316243D01*
X7777252Y-19325767D01*
X7786776Y-19344814D01*
X7786776Y-19449576D01*
X7786776Y-19344814D02*
X7796300Y-19325767D01*
X7815348Y-19316243D01*
X7843919Y-19316243D01*
X7862967Y-19325767D01*
X7872490Y-19344814D01*
X7872490Y-19449576D01*
X7967728Y-19449576D02*
X7967728Y-19316243D01*
X7967728Y-19335290D02*
X7977252Y-19325767D01*
X7996300Y-19316243D01*
X8024871Y-19316243D01*
X8043919Y-19325767D01*
X8053443Y-19344814D01*
X8053443Y-19449576D01*
X8053443Y-19344814D02*
X8062967Y-19325767D01*
X8082014Y-19316243D01*
X8110586Y-19316243D01*
X8129633Y-19325767D01*
X8139157Y-19344814D01*
X8139157Y-19449576D01*
X8529633Y-19240052D02*
X8358205Y-19497195D01*
X8786776Y-19249576D02*
X8805824Y-19249576D01*
X8824871Y-19259100D01*
X8834395Y-19268624D01*
X8843919Y-19287671D01*
X8853443Y-19325767D01*
X8853443Y-19373386D01*
X8843919Y-19411481D01*
X8834395Y-19430529D01*
X8824871Y-19440052D01*
X8805824Y-19449576D01*
X8786776Y-19449576D01*
X8767729Y-19440052D01*
X8758205Y-19430529D01*
X8748681Y-19411481D01*
X8739157Y-19373386D01*
X8739157Y-19325767D01*
X8748681Y-19287671D01*
X8758205Y-19268624D01*
X8767729Y-19259100D01*
X8786776Y-19249576D01*
X8939157Y-19430529D02*
X8948681Y-19440052D01*
X8939157Y-19449576D01*
X8929633Y-19440052D01*
X8939157Y-19430529D01*
X8939157Y-19449576D01*
X9139157Y-19449576D02*
X9024871Y-19449576D01*
X9082014Y-19449576D02*
X9082014Y-19249576D01*
X9062967Y-19278148D01*
X9043919Y-19297195D01*
X9024871Y-19306719D01*
X9320110Y-19249576D02*
X9224871Y-19249576D01*
X9215348Y-19344814D01*
X9224871Y-19335290D01*
X9243919Y-19325767D01*
X9291538Y-19325767D01*
X9310586Y-19335290D01*
X9320110Y-19344814D01*
X9329633Y-19363862D01*
X9329633Y-19411481D01*
X9320110Y-19430529D01*
X9310586Y-19440052D01*
X9291538Y-19449576D01*
X9243919Y-19449576D01*
X9224871Y-19440052D01*
X9215348Y-19430529D01*
X9501062Y-19249576D02*
X9462967Y-19249576D01*
X9443919Y-19259100D01*
X9434395Y-19268624D01*
X9415348Y-19297195D01*
X9405824Y-19335290D01*
X9405824Y-19411481D01*
X9415348Y-19430529D01*
X9424871Y-19440052D01*
X9443919Y-19449576D01*
X9482014Y-19449576D01*
X9501062Y-19440052D01*
X9510586Y-19430529D01*
X9520110Y-19411481D01*
X9520110Y-19363862D01*
X9510586Y-19344814D01*
X9501062Y-19335290D01*
X9482014Y-19325767D01*
X9443919Y-19325767D01*
X9424871Y-19335290D01*
X9415348Y-19344814D01*
X9405824Y-19363862D01*
X9586776Y-19249576D02*
X9720110Y-19249576D01*
X9634395Y-19449576D01*
X9786776Y-19249576D02*
X9786776Y-19287671D01*
X9862967Y-19249576D02*
X9862967Y-19287671D01*
X10158205Y-19525767D02*
X10148681Y-19516243D01*
X10129633Y-19487671D01*
X10120110Y-19468624D01*
X10110586Y-19440052D01*
X10101062Y-19392433D01*
X10101062Y-19354338D01*
X10110586Y-19306719D01*
X10120110Y-19278148D01*
X10129633Y-19259100D01*
X10148681Y-19230529D01*
X10158205Y-19221005D01*
X10339157Y-19449576D02*
X10224871Y-19449576D01*
X10282014Y-19449576D02*
X10282014Y-19249576D01*
X10262967Y-19278148D01*
X10243919Y-19297195D01*
X10224871Y-19306719D01*
X10577252Y-19449576D02*
X10577252Y-19249576D01*
X10662967Y-19449576D02*
X10662967Y-19344814D01*
X10653443Y-19325767D01*
X10634395Y-19316243D01*
X10605824Y-19316243D01*
X10586776Y-19325767D01*
X10577252Y-19335290D01*
X10786776Y-19449576D02*
X10767729Y-19440052D01*
X10758205Y-19430529D01*
X10748681Y-19411481D01*
X10748681Y-19354338D01*
X10758205Y-19335290D01*
X10767729Y-19325767D01*
X10786776Y-19316243D01*
X10815348Y-19316243D01*
X10834395Y-19325767D01*
X10843919Y-19335290D01*
X10853443Y-19354338D01*
X10853443Y-19411481D01*
X10843919Y-19430529D01*
X10834395Y-19440052D01*
X10815348Y-19449576D01*
X10786776Y-19449576D01*
X10967729Y-19449576D02*
X10948681Y-19440052D01*
X10939157Y-19421005D01*
X10939157Y-19249576D01*
X11120110Y-19440052D02*
X11101062Y-19449576D01*
X11062967Y-19449576D01*
X11043919Y-19440052D01*
X11034395Y-19421005D01*
X11034395Y-19344814D01*
X11043919Y-19325767D01*
X11062967Y-19316243D01*
X11101062Y-19316243D01*
X11120110Y-19325767D01*
X11129633Y-19344814D01*
X11129633Y-19363862D01*
X11034395Y-19382910D01*
X11196300Y-19525767D02*
X11205824Y-19516243D01*
X11224871Y-19487671D01*
X11234395Y-19468624D01*
X11243919Y-19440052D01*
X11253443Y-19392433D01*
X11253443Y-19354338D01*
X11243919Y-19306719D01*
X11234395Y-19278148D01*
X11224871Y-19259100D01*
X11205824Y-19230529D01*
X11196300Y-19221005D01*
X11558205Y-19525767D02*
X11548681Y-19516243D01*
X11529633Y-19487671D01*
X11520109Y-19468624D01*
X11510586Y-19440052D01*
X11501062Y-19392433D01*
X11501062Y-19354338D01*
X11510586Y-19306719D01*
X11520109Y-19278148D01*
X11529633Y-19259100D01*
X11548681Y-19230529D01*
X11558205Y-19221005D01*
X11634395Y-19316243D02*
X11634395Y-19449576D01*
X11634395Y-19335290D02*
X11643919Y-19325767D01*
X11662967Y-19316243D01*
X11691538Y-19316243D01*
X11710586Y-19325767D01*
X11720109Y-19344814D01*
X11720109Y-19449576D01*
X11843919Y-19449576D02*
X11824871Y-19440052D01*
X11815348Y-19430529D01*
X11805824Y-19411481D01*
X11805824Y-19354338D01*
X11815348Y-19335290D01*
X11824871Y-19325767D01*
X11843919Y-19316243D01*
X11872490Y-19316243D01*
X11891538Y-19325767D01*
X11901062Y-19335290D01*
X11910586Y-19354338D01*
X11910586Y-19411481D01*
X11901062Y-19430529D01*
X11891538Y-19440052D01*
X11872490Y-19449576D01*
X11843919Y-19449576D01*
X11967728Y-19316243D02*
X12043919Y-19316243D01*
X11996300Y-19249576D02*
X11996300Y-19421005D01*
X12005824Y-19440052D01*
X12024871Y-19449576D01*
X12043919Y-19449576D01*
X12262967Y-19316243D02*
X12262967Y-19516243D01*
X12262967Y-19325767D02*
X12282014Y-19316243D01*
X12320109Y-19316243D01*
X12339157Y-19325767D01*
X12348681Y-19335290D01*
X12358205Y-19354338D01*
X12358205Y-19411481D01*
X12348681Y-19430529D01*
X12339157Y-19440052D01*
X12320109Y-19449576D01*
X12282014Y-19449576D01*
X12262967Y-19440052D01*
X12472490Y-19449576D02*
X12453443Y-19440052D01*
X12443919Y-19421005D01*
X12443919Y-19249576D01*
X12634395Y-19449576D02*
X12634395Y-19344814D01*
X12624871Y-19325767D01*
X12605824Y-19316243D01*
X12567728Y-19316243D01*
X12548681Y-19325767D01*
X12634395Y-19440052D02*
X12615348Y-19449576D01*
X12567728Y-19449576D01*
X12548681Y-19440052D01*
X12539157Y-19421005D01*
X12539157Y-19401957D01*
X12548681Y-19382910D01*
X12567728Y-19373386D01*
X12615348Y-19373386D01*
X12634395Y-19363862D01*
X12701062Y-19316243D02*
X12777252Y-19316243D01*
X12729633Y-19249576D02*
X12729633Y-19421005D01*
X12739157Y-19440052D01*
X12758205Y-19449576D01*
X12777252Y-19449576D01*
X12920109Y-19440052D02*
X12901062Y-19449576D01*
X12862967Y-19449576D01*
X12843919Y-19440052D01*
X12834395Y-19421005D01*
X12834395Y-19344814D01*
X12843919Y-19325767D01*
X12862967Y-19316243D01*
X12901062Y-19316243D01*
X12920109Y-19325767D01*
X12929633Y-19344814D01*
X12929633Y-19363862D01*
X12834395Y-19382910D01*
X13101062Y-19449576D02*
X13101062Y-19249576D01*
X13101062Y-19440052D02*
X13082014Y-19449576D01*
X13043919Y-19449576D01*
X13024871Y-19440052D01*
X13015348Y-19430529D01*
X13005824Y-19411481D01*
X13005824Y-19354338D01*
X13015348Y-19335290D01*
X13024871Y-19325767D01*
X13043919Y-19316243D01*
X13082014Y-19316243D01*
X13101062Y-19325767D01*
X13177252Y-19525767D02*
X13186776Y-19516243D01*
X13205824Y-19487671D01*
X13215348Y-19468624D01*
X13224871Y-19440052D01*
X13234395Y-19392433D01*
X13234395Y-19354338D01*
X13224871Y-19306719D01*
X13215348Y-19278148D01*
X13205824Y-19259100D01*
X13186776Y-19230529D01*
X13177252Y-19221005D01*
M02*
