G04 #@! TF.GenerationSoftware,KiCad,Pcbnew,(6.0.7-1)-1*
G04 #@! TF.CreationDate,2022-08-17T19:26:05+01:00*
G04 #@! TF.ProjectId,amoeba-king,616d6f65-6261-42d6-9b69-6e672e6b6963,rev?*
G04 #@! TF.SameCoordinates,Original*
G04 #@! TF.FileFunction,Legend,Top*
G04 #@! TF.FilePolarity,Positive*
%FSLAX46Y46*%
G04 Gerber Fmt 4.6, Leading zero omitted, Abs format (unit mm)*
G04 Created by KiCad (PCBNEW (6.0.7-1)-1) date 2022-08-17 19:26:05*
%MOMM*%
%LPD*%
G01*
G04 APERTURE LIST*
%ADD10C,0.100000*%
%ADD11C,0.150000*%
%ADD12C,0.158750*%
G04 APERTURE END LIST*
D10*
G36*
X77698600Y-165481000D02*
G01*
X77317600Y-165481000D01*
X77698600Y-165100000D01*
X77698600Y-165481000D01*
G37*
X77698600Y-165481000D02*
X77317600Y-165481000D01*
X77698600Y-165100000D01*
X77698600Y-165481000D01*
D11*
X77656766Y-175279033D02*
X77990100Y-175279033D01*
X77590100Y-175507604D02*
X77823433Y-174707604D01*
X78056766Y-175507604D01*
X78290100Y-175507604D02*
X78290100Y-174974271D01*
X78290100Y-175050461D02*
X78323433Y-175012366D01*
X78390100Y-174974271D01*
X78490100Y-174974271D01*
X78556766Y-175012366D01*
X78590100Y-175088557D01*
X78590100Y-175507604D01*
X78590100Y-175088557D02*
X78623433Y-175012366D01*
X78690100Y-174974271D01*
X78790100Y-174974271D01*
X78856766Y-175012366D01*
X78890100Y-175088557D01*
X78890100Y-175507604D01*
X79323433Y-175507604D02*
X79256766Y-175469509D01*
X79223433Y-175431414D01*
X79190100Y-175355223D01*
X79190100Y-175126652D01*
X79223433Y-175050461D01*
X79256766Y-175012366D01*
X79323433Y-174974271D01*
X79423433Y-174974271D01*
X79490100Y-175012366D01*
X79523433Y-175050461D01*
X79556766Y-175126652D01*
X79556766Y-175355223D01*
X79523433Y-175431414D01*
X79490100Y-175469509D01*
X79423433Y-175507604D01*
X79323433Y-175507604D01*
X80123433Y-175469509D02*
X80056766Y-175507604D01*
X79923433Y-175507604D01*
X79856766Y-175469509D01*
X79823433Y-175393319D01*
X79823433Y-175088557D01*
X79856766Y-175012366D01*
X79923433Y-174974271D01*
X80056766Y-174974271D01*
X80123433Y-175012366D01*
X80156766Y-175088557D01*
X80156766Y-175164747D01*
X79823433Y-175240938D01*
X80456766Y-175507604D02*
X80456766Y-174707604D01*
X80456766Y-175012366D02*
X80523433Y-174974271D01*
X80656766Y-174974271D01*
X80723433Y-175012366D01*
X80756766Y-175050461D01*
X80790100Y-175126652D01*
X80790100Y-175355223D01*
X80756766Y-175431414D01*
X80723433Y-175469509D01*
X80656766Y-175507604D01*
X80523433Y-175507604D01*
X80456766Y-175469509D01*
X81390100Y-175507604D02*
X81390100Y-175088557D01*
X81356766Y-175012366D01*
X81290100Y-174974271D01*
X81156766Y-174974271D01*
X81090100Y-175012366D01*
X81390100Y-175469509D02*
X81323433Y-175507604D01*
X81156766Y-175507604D01*
X81090100Y-175469509D01*
X81056766Y-175393319D01*
X81056766Y-175317128D01*
X81090100Y-175240938D01*
X81156766Y-175202842D01*
X81323433Y-175202842D01*
X81390100Y-175164747D01*
D12*
X67589456Y-176051028D02*
X67687730Y-176474361D01*
X67891837Y-176051028D01*
X68413444Y-176474361D02*
X68050587Y-176474361D01*
X68232016Y-176474361D02*
X68311391Y-175839361D01*
X68239575Y-175930076D01*
X68171540Y-175990552D01*
X68107284Y-176020790D01*
X68693147Y-176413885D02*
X68719605Y-176444123D01*
X68685587Y-176474361D01*
X68659129Y-176444123D01*
X68693147Y-176413885D01*
X68685587Y-176474361D01*
X69029545Y-175899838D02*
X69063563Y-175869600D01*
X69127819Y-175839361D01*
X69279010Y-175839361D01*
X69335706Y-175869600D01*
X69362165Y-175899838D01*
X69384843Y-175960314D01*
X69377284Y-176020790D01*
X69335706Y-176111504D01*
X68927492Y-176474361D01*
X69320587Y-176474361D01*
D11*
X78226566Y-174402704D02*
X78226566Y-173602704D01*
X78626566Y-174402704D02*
X78326566Y-173945561D01*
X78626566Y-173602704D02*
X78226566Y-174059847D01*
X78926566Y-174402704D02*
X78926566Y-173869371D01*
X78926566Y-173602704D02*
X78893233Y-173640800D01*
X78926566Y-173678895D01*
X78959900Y-173640800D01*
X78926566Y-173602704D01*
X78926566Y-173678895D01*
X79259900Y-173869371D02*
X79259900Y-174402704D01*
X79259900Y-173945561D02*
X79293233Y-173907466D01*
X79359900Y-173869371D01*
X79459900Y-173869371D01*
X79526566Y-173907466D01*
X79559900Y-173983657D01*
X79559900Y-174402704D01*
X80193233Y-173869371D02*
X80193233Y-174516990D01*
X80159900Y-174593180D01*
X80126566Y-174631276D01*
X80059900Y-174669371D01*
X79959900Y-174669371D01*
X79893233Y-174631276D01*
X80193233Y-174364609D02*
X80126566Y-174402704D01*
X79993233Y-174402704D01*
X79926566Y-174364609D01*
X79893233Y-174326514D01*
X79859900Y-174250323D01*
X79859900Y-174021752D01*
X79893233Y-173945561D01*
X79926566Y-173907466D01*
X79993233Y-173869371D01*
X80126566Y-173869371D01*
X80193233Y-173907466D01*
M02*
