G04 #@! TF.GenerationSoftware,KiCad,Pcbnew,(6.0.7-1)-1*
G04 #@! TF.CreationDate,2022-08-17T19:26:05+01:00*
G04 #@! TF.ProjectId,amoeba-king,616d6f65-6261-42d6-9b69-6e672e6b6963,rev?*
G04 #@! TF.SameCoordinates,Original*
G04 #@! TF.FileFunction,Profile,NP*
%FSLAX46Y46*%
G04 Gerber Fmt 4.6, Leading zero omitted, Abs format (unit mm)*
G04 Created by KiCad (PCBNEW (6.0.7-1)-1) date 2022-08-17 19:26:05*
%MOMM*%
%LPD*%
G01*
G04 APERTURE LIST*
G04 #@! TA.AperFunction,Profile*
%ADD10C,0.100000*%
G04 #@! TD*
G04 APERTURE END LIST*
D10*
X83058000Y-176911000D02*
X81788000Y-176911000D01*
X73687000Y-162065500D02*
X73687000Y-165086500D01*
X73687000Y-165086500D02*
X77189000Y-165086500D01*
X77189000Y-165086500D02*
X77189000Y-162065500D01*
X77189000Y-162065500D02*
X73687000Y-162065500D01*
X81788000Y-160401000D02*
X83058000Y-160401000D01*
X83693000Y-161036000D02*
X83693000Y-163576000D01*
X67818000Y-160401000D02*
X69088000Y-160401000D01*
X67183000Y-161036000D02*
X67183000Y-163576000D01*
X67183000Y-173736000D02*
X67183000Y-176276000D01*
X67818000Y-176911000D02*
X69088000Y-176911000D01*
X83693000Y-176276000D02*
X83693000Y-173736000D01*
X70358000Y-159131000D02*
X73145000Y-159131000D01*
X65913000Y-169926000D02*
X65913000Y-172466000D01*
X84963000Y-169926000D02*
X84963000Y-172466000D01*
X73145000Y-159131000D02*
G75*
G03*
X75685000Y-159131000I1270000J0D01*
G01*
X75685000Y-178181000D02*
G75*
G03*
X73145000Y-178181000I-1270000J0D01*
G01*
X70358000Y-178181000D02*
X73145000Y-178181000D01*
X67818000Y-160401000D02*
G75*
G03*
X67183000Y-161036000I0J-635000D01*
G01*
X83693000Y-161036000D02*
G75*
G03*
X83058000Y-160401000I-635000J0D01*
G01*
X67183000Y-176276000D02*
G75*
G03*
X67818000Y-176911000I635000J0D01*
G01*
X65913000Y-172466000D02*
G75*
G03*
X66548000Y-173101000I635000J0D01*
G01*
X80518000Y-159131000D02*
X75685000Y-159131000D01*
X80518000Y-178181000D02*
G75*
G03*
X81153000Y-177546000I0J635000D01*
G01*
X65913000Y-169926000D02*
G75*
G03*
X65913000Y-167386000I0J1270000D01*
G01*
X84963000Y-167386000D02*
G75*
G03*
X84963000Y-169926000I0J-1270000D01*
G01*
X83058000Y-176911000D02*
G75*
G03*
X83693000Y-176276000I0J635000D01*
G01*
X75685000Y-178181000D02*
X80518000Y-178181000D01*
X66548000Y-164211000D02*
G75*
G03*
X67183000Y-163576000I0J635000D01*
G01*
X67183000Y-173736000D02*
G75*
G03*
X66548000Y-173101000I-635000J0D01*
G01*
X69723000Y-177546000D02*
G75*
G03*
X70358000Y-178181000I635000J0D01*
G01*
X84963000Y-167386000D02*
X84963000Y-164846000D01*
X69088000Y-160401000D02*
G75*
G03*
X69723000Y-159766000I0J635000D01*
G01*
X83693000Y-163576000D02*
G75*
G03*
X84328000Y-164211000I635000J0D01*
G01*
X81153000Y-159766000D02*
G75*
G03*
X81788000Y-160401000I635000J0D01*
G01*
X70358000Y-159131000D02*
G75*
G03*
X69723000Y-159766000I0J-635000D01*
G01*
X84963000Y-164846000D02*
G75*
G03*
X84328000Y-164211000I-635000J0D01*
G01*
X81153000Y-159766000D02*
G75*
G03*
X80518000Y-159131000I-635000J0D01*
G01*
X66548000Y-164211000D02*
G75*
G03*
X65913000Y-164846000I0J-635000D01*
G01*
X84328000Y-173101000D02*
G75*
G03*
X84963000Y-172466000I0J635000D01*
G01*
X65913000Y-167386000D02*
X65913000Y-164846000D01*
X81788000Y-176911000D02*
G75*
G03*
X81153000Y-177546000I0J-635000D01*
G01*
X69723000Y-177546000D02*
G75*
G03*
X69088000Y-176911000I-635000J0D01*
G01*
X84328000Y-173101000D02*
G75*
G03*
X83693000Y-173736000I0J-635000D01*
G01*
M02*
