M48
; DRILL file {KiCad 5.1.5} date Do 28 Mai 2020 17:34:43 CEST
; FORMAT={-:-/ absolute / inch / decimal}
; #@! TF.CreationDate,2020-05-28T17:34:43+02:00
; #@! TF.GenerationSoftware,Kicad,Pcbnew,5.1.5
FMAT,2
INCH
T1C0.0200
T2C0.0250
T3C0.0256
T4C0.0654
T5C0.0669
T6C0.1181
T7C0.1567
%
G90
G05
T1
X2.753Y-6.4625
X2.822Y-6.535
X2.9625Y-6.836
X3.057Y-6.846
X3.1105Y-6.413
X3.116Y-6.605
X3.1555Y-6.4965
X3.175Y-6.449
T2
X2.625Y-6.753
X2.64Y-6.5485
X2.7605Y-6.709
X2.771Y-6.945
X2.821Y-6.411
X2.835Y-6.733
X2.879Y-6.331
X2.907Y-6.549
X2.959Y-6.901
X3.0185Y-6.744
X3.033Y-6.549
X3.0865Y-6.6475
X3.103Y-6.4555
X3.199Y-6.86
X3.251Y-6.571
X3.315Y-6.523
T3
X2.822Y-6.33
X2.675Y-6.345
X2.675Y-6.395
X2.675Y-6.445
X2.675Y-6.495
X3.264Y-6.345
X3.264Y-6.395
X3.264Y-6.445
X3.264Y-6.495
X3.025Y-6.959
X3.075Y-6.959
X3.125Y-6.959
X3.175Y-6.959
X2.822Y-6.959
X3.025Y-6.33
X3.075Y-6.33
X3.125Y-6.33
X3.175Y-6.33
T4
X3.17Y-6.64
T5
X2.77Y-6.64
T6
X2.87Y-6.84
X3.12Y-6.74
T7
X2.97Y-6.64
T0
M30
