G04 #@! TF.GenerationSoftware,KiCad,Pcbnew,5.1.5*
G04 #@! TF.CreationDate,2020-05-28T17:34:41+02:00*
G04 #@! TF.ProjectId,amoeba-king,616d6f65-6261-42d6-9b69-6e672e6b6963,rev?*
G04 #@! TF.SameCoordinates,Original*
G04 #@! TF.FileFunction,Legend,Bot*
G04 #@! TF.FilePolarity,Positive*
%FSLAX46Y46*%
G04 Gerber Fmt 4.6, Leading zero omitted, Abs format (unit mm)*
G04 Created by KiCad (PCBNEW 5.1.5) date 2020-05-28 17:34:41*
%MOMM*%
%LPD*%
G04 APERTURE LIST*
%ADD10C,0.158750*%
%ADD11C,0.127000*%
%ADD12C,0.152400*%
%ADD13C,0.150000*%
%ADD14C,0.100000*%
%ADD15C,0.120000*%
G04 APERTURE END LIST*
D10*
X69312376Y-176051028D02*
X69214102Y-176474361D01*
X69009995Y-176051028D01*
X68488388Y-176474361D02*
X68851245Y-176474361D01*
X68669816Y-176474361D02*
X68590441Y-175839361D01*
X68662257Y-175930076D01*
X68730292Y-175990552D01*
X68794548Y-176020790D01*
X68208685Y-176413885D02*
X68182227Y-176444123D01*
X68216245Y-176474361D01*
X68242703Y-176444123D01*
X68208685Y-176413885D01*
X68216245Y-176474361D01*
X67581245Y-176474361D02*
X67944102Y-176474361D01*
X67762673Y-176474361D02*
X67683298Y-175839361D01*
X67755114Y-175930076D01*
X67823149Y-175990552D01*
X67887405Y-176020790D01*
D11*
X72382742Y-165807571D02*
X72382742Y-165197971D01*
X72237600Y-165197971D01*
X72150514Y-165227000D01*
X72092457Y-165285057D01*
X72063428Y-165343114D01*
X72034400Y-165459228D01*
X72034400Y-165546314D01*
X72063428Y-165662428D01*
X72092457Y-165720485D01*
X72150514Y-165778542D01*
X72237600Y-165807571D01*
X72382742Y-165807571D01*
X71802171Y-165256028D02*
X71773142Y-165227000D01*
X71715085Y-165197971D01*
X71569942Y-165197971D01*
X71511885Y-165227000D01*
X71482857Y-165256028D01*
X71453828Y-165314085D01*
X71453828Y-165372142D01*
X71482857Y-165459228D01*
X71831200Y-165807571D01*
X71453828Y-165807571D01*
X74904600Y-166569571D02*
X74904600Y-165959971D01*
X74759457Y-165959971D01*
X74672371Y-165989000D01*
X74614314Y-166047057D01*
X74585285Y-166105114D01*
X74556257Y-166221228D01*
X74556257Y-166308314D01*
X74585285Y-166424428D01*
X74614314Y-166482485D01*
X74672371Y-166540542D01*
X74759457Y-166569571D01*
X74904600Y-166569571D01*
X74295000Y-166569571D02*
X74295000Y-165959971D01*
X79570942Y-165553571D02*
X79570942Y-164943971D01*
X79425800Y-164943971D01*
X79338714Y-164973000D01*
X79280657Y-165031057D01*
X79251628Y-165089114D01*
X79222600Y-165205228D01*
X79222600Y-165292314D01*
X79251628Y-165408428D01*
X79280657Y-165466485D01*
X79338714Y-165524542D01*
X79425800Y-165553571D01*
X79570942Y-165553571D01*
X78642028Y-165553571D02*
X78990371Y-165553571D01*
X78816200Y-165553571D02*
X78816200Y-164943971D01*
X78874257Y-165031057D01*
X78932314Y-165089114D01*
X78990371Y-165118142D01*
X70138471Y-166340971D02*
X70138471Y-165731371D01*
X69993328Y-165731371D01*
X69906242Y-165760400D01*
X69848185Y-165818457D01*
X69819157Y-165876514D01*
X69790128Y-165992628D01*
X69790128Y-166079714D01*
X69819157Y-166195828D01*
X69848185Y-166253885D01*
X69906242Y-166311942D01*
X69993328Y-166340971D01*
X70138471Y-166340971D01*
X69412757Y-165731371D02*
X69296642Y-165731371D01*
X69238585Y-165760400D01*
X69180528Y-165818457D01*
X69151500Y-165934571D01*
X69151500Y-166137771D01*
X69180528Y-166253885D01*
X69238585Y-166311942D01*
X69296642Y-166340971D01*
X69412757Y-166340971D01*
X69470814Y-166311942D01*
X69528871Y-166253885D01*
X69557900Y-166137771D01*
X69557900Y-165934571D01*
X69528871Y-165818457D01*
X69470814Y-165760400D01*
X69412757Y-165731371D01*
X81555771Y-166252071D02*
X81555771Y-165642471D01*
X81410628Y-165642471D01*
X81323542Y-165671500D01*
X81265485Y-165729557D01*
X81236457Y-165787614D01*
X81207428Y-165903728D01*
X81207428Y-165990814D01*
X81236457Y-166106928D01*
X81265485Y-166164985D01*
X81323542Y-166223042D01*
X81410628Y-166252071D01*
X81555771Y-166252071D01*
X80830057Y-165642471D02*
X80713942Y-165642471D01*
X80655885Y-165671500D01*
X80597828Y-165729557D01*
X80568800Y-165845671D01*
X80568800Y-166048871D01*
X80597828Y-166164985D01*
X80655885Y-166223042D01*
X80713942Y-166252071D01*
X80830057Y-166252071D01*
X80888114Y-166223042D01*
X80946171Y-166164985D01*
X80975200Y-166048871D01*
X80975200Y-165845671D01*
X80946171Y-165729557D01*
X80888114Y-165671500D01*
X80830057Y-165642471D01*
X76581000Y-166569571D02*
X76581000Y-165959971D01*
X76435857Y-165959971D01*
X76348771Y-165989000D01*
X76290714Y-166047057D01*
X76261685Y-166105114D01*
X76232657Y-166221228D01*
X76232657Y-166308314D01*
X76261685Y-166424428D01*
X76290714Y-166482485D01*
X76348771Y-166540542D01*
X76435857Y-166569571D01*
X76581000Y-166569571D01*
X75971400Y-166569571D02*
X75971400Y-165959971D01*
D12*
X78667428Y-160085314D02*
X78667428Y-159323314D01*
X78486000Y-159323314D01*
X78377142Y-159359600D01*
X78304571Y-159432171D01*
X78268285Y-159504742D01*
X78232000Y-159649885D01*
X78232000Y-159758742D01*
X78268285Y-159903885D01*
X78304571Y-159976457D01*
X78377142Y-160049028D01*
X78486000Y-160085314D01*
X78667428Y-160085314D01*
X77506285Y-160085314D02*
X77941714Y-160085314D01*
X77724000Y-160085314D02*
X77724000Y-159323314D01*
X77796571Y-159432171D01*
X77869142Y-159504742D01*
X77941714Y-159541028D01*
X79629000Y-159323314D02*
X79375000Y-160085314D01*
X79121000Y-159323314D01*
X69218628Y-160832800D02*
X69291200Y-160796514D01*
X69400057Y-160796514D01*
X69508914Y-160832800D01*
X69581485Y-160905371D01*
X69617771Y-160977942D01*
X69654057Y-161123085D01*
X69654057Y-161231942D01*
X69617771Y-161377085D01*
X69581485Y-161449657D01*
X69508914Y-161522228D01*
X69400057Y-161558514D01*
X69327485Y-161558514D01*
X69218628Y-161522228D01*
X69182342Y-161485942D01*
X69182342Y-161231942D01*
X69327485Y-161231942D01*
X70183828Y-164047714D02*
X70183828Y-163285714D01*
X70002400Y-163285714D01*
X69893542Y-163322000D01*
X69820971Y-163394571D01*
X69784685Y-163467142D01*
X69748400Y-163612285D01*
X69748400Y-163721142D01*
X69784685Y-163866285D01*
X69820971Y-163938857D01*
X69893542Y-164011428D01*
X70002400Y-164047714D01*
X70183828Y-164047714D01*
X69458114Y-163358285D02*
X69421828Y-163322000D01*
X69349257Y-163285714D01*
X69167828Y-163285714D01*
X69095257Y-163322000D01*
X69058971Y-163358285D01*
X69022685Y-163430857D01*
X69022685Y-163503428D01*
X69058971Y-163612285D01*
X69494400Y-164047714D01*
X69022685Y-164047714D01*
D13*
X76649942Y-160063542D02*
X76686228Y-160099828D01*
X76795085Y-160136114D01*
X76867657Y-160136114D01*
X76976514Y-160099828D01*
X77049085Y-160027257D01*
X77085371Y-159954685D01*
X77121657Y-159809542D01*
X77121657Y-159700685D01*
X77085371Y-159555542D01*
X77049085Y-159482971D01*
X76976514Y-159410400D01*
X76867657Y-159374114D01*
X76795085Y-159374114D01*
X76686228Y-159410400D01*
X76649942Y-159446685D01*
X75519642Y-177056142D02*
X75555928Y-177092428D01*
X75664785Y-177128714D01*
X75737357Y-177128714D01*
X75846214Y-177092428D01*
X75918785Y-177019857D01*
X75955071Y-176947285D01*
X75991357Y-176802142D01*
X75991357Y-176693285D01*
X75955071Y-176548142D01*
X75918785Y-176475571D01*
X75846214Y-176403000D01*
X75737357Y-176366714D01*
X75664785Y-176366714D01*
X75555928Y-176403000D01*
X75519642Y-176439285D01*
D12*
X80445428Y-177342800D02*
X80518000Y-177306514D01*
X80626857Y-177306514D01*
X80735714Y-177342800D01*
X80808285Y-177415371D01*
X80844571Y-177487942D01*
X80880857Y-177633085D01*
X80880857Y-177741942D01*
X80844571Y-177887085D01*
X80808285Y-177959657D01*
X80735714Y-178032228D01*
X80626857Y-178068514D01*
X80554285Y-178068514D01*
X80445428Y-178032228D01*
X80409142Y-177995942D01*
X80409142Y-177741942D01*
X80554285Y-177741942D01*
D13*
X72585942Y-177081542D02*
X72622228Y-177117828D01*
X72731085Y-177154114D01*
X72803657Y-177154114D01*
X72912514Y-177117828D01*
X72985085Y-177045257D01*
X73021371Y-176972685D01*
X73057657Y-176827542D01*
X73057657Y-176718685D01*
X73021371Y-176573542D01*
X72985085Y-176500971D01*
X72912514Y-176428400D01*
X72803657Y-176392114D01*
X72731085Y-176392114D01*
X72622228Y-176428400D01*
X72585942Y-176464685D01*
D12*
X79629000Y-177306514D02*
X79375000Y-178068514D01*
X79121000Y-177306514D01*
X78616628Y-178068514D02*
X78616628Y-177306514D01*
X78435200Y-177306514D01*
X78326342Y-177342800D01*
X78253771Y-177415371D01*
X78217485Y-177487942D01*
X78181200Y-177633085D01*
X78181200Y-177741942D01*
X78217485Y-177887085D01*
X78253771Y-177959657D01*
X78326342Y-178032228D01*
X78435200Y-178068514D01*
X78616628Y-178068514D01*
X77890914Y-177379085D02*
X77854628Y-177342800D01*
X77782057Y-177306514D01*
X77600628Y-177306514D01*
X77528057Y-177342800D01*
X77491771Y-177379085D01*
X77455485Y-177451657D01*
X77455485Y-177524228D01*
X77491771Y-177633085D01*
X77927200Y-178068514D01*
X77455485Y-178068514D01*
D13*
X71506442Y-160063542D02*
X71542728Y-160099828D01*
X71651585Y-160136114D01*
X71724157Y-160136114D01*
X71833014Y-160099828D01*
X71905585Y-160027257D01*
X71941871Y-159954685D01*
X71978157Y-159809542D01*
X71978157Y-159700685D01*
X71941871Y-159555542D01*
X71905585Y-159482971D01*
X71833014Y-159410400D01*
X71724157Y-159374114D01*
X71651585Y-159374114D01*
X71542728Y-159410400D01*
X71506442Y-159446685D01*
X69182342Y-165368514D02*
X69436342Y-165005657D01*
X69617771Y-165368514D02*
X69617771Y-164606514D01*
X69327485Y-164606514D01*
X69254914Y-164642800D01*
X69218628Y-164679085D01*
X69182342Y-164751657D01*
X69182342Y-164860514D01*
X69218628Y-164933085D01*
X69254914Y-164969371D01*
X69327485Y-165005657D01*
X69617771Y-165005657D01*
D12*
X69672200Y-162015714D02*
X69418200Y-162777714D01*
X69164200Y-162015714D01*
X81359828Y-160782000D02*
X81432400Y-160745714D01*
X81541257Y-160745714D01*
X81650114Y-160782000D01*
X81722685Y-160854571D01*
X81758971Y-160927142D01*
X81795257Y-161072285D01*
X81795257Y-161181142D01*
X81758971Y-161326285D01*
X81722685Y-161398857D01*
X81650114Y-161471428D01*
X81541257Y-161507714D01*
X81468685Y-161507714D01*
X81359828Y-161471428D01*
X81323542Y-161435142D01*
X81323542Y-161181142D01*
X81468685Y-161181142D01*
D13*
X81323542Y-165368514D02*
X81577542Y-165005657D01*
X81758971Y-165368514D02*
X81758971Y-164606514D01*
X81468685Y-164606514D01*
X81396114Y-164642800D01*
X81359828Y-164679085D01*
X81323542Y-164751657D01*
X81323542Y-164860514D01*
X81359828Y-164933085D01*
X81396114Y-164969371D01*
X81468685Y-165005657D01*
X81758971Y-165005657D01*
D12*
X81813400Y-162066514D02*
X81559400Y-162828514D01*
X81305400Y-162066514D01*
X81817028Y-164098514D02*
X81817028Y-163336514D01*
X81635600Y-163336514D01*
X81526742Y-163372800D01*
X81454171Y-163445371D01*
X81417885Y-163517942D01*
X81381600Y-163663085D01*
X81381600Y-163771942D01*
X81417885Y-163917085D01*
X81454171Y-163989657D01*
X81526742Y-164062228D01*
X81635600Y-164098514D01*
X81817028Y-164098514D01*
X80655885Y-164098514D02*
X81091314Y-164098514D01*
X80873600Y-164098514D02*
X80873600Y-163336514D01*
X80946171Y-163445371D01*
X81018742Y-163517942D01*
X81091314Y-163554228D01*
D13*
X76158900Y-171697633D02*
X75825566Y-171697633D01*
X76225566Y-171926204D02*
X75992233Y-171126204D01*
X75758900Y-171926204D01*
X75525566Y-171926204D02*
X75525566Y-171392871D01*
X75525566Y-171469061D02*
X75492233Y-171430966D01*
X75425566Y-171392871D01*
X75325566Y-171392871D01*
X75258900Y-171430966D01*
X75225566Y-171507157D01*
X75225566Y-171926204D01*
X75225566Y-171507157D02*
X75192233Y-171430966D01*
X75125566Y-171392871D01*
X75025566Y-171392871D01*
X74958900Y-171430966D01*
X74925566Y-171507157D01*
X74925566Y-171926204D01*
X74492233Y-171926204D02*
X74558900Y-171888109D01*
X74592233Y-171850014D01*
X74625566Y-171773823D01*
X74625566Y-171545252D01*
X74592233Y-171469061D01*
X74558900Y-171430966D01*
X74492233Y-171392871D01*
X74392233Y-171392871D01*
X74325566Y-171430966D01*
X74292233Y-171469061D01*
X74258900Y-171545252D01*
X74258900Y-171773823D01*
X74292233Y-171850014D01*
X74325566Y-171888109D01*
X74392233Y-171926204D01*
X74492233Y-171926204D01*
X73692233Y-171888109D02*
X73758900Y-171926204D01*
X73892233Y-171926204D01*
X73958900Y-171888109D01*
X73992233Y-171811919D01*
X73992233Y-171507157D01*
X73958900Y-171430966D01*
X73892233Y-171392871D01*
X73758900Y-171392871D01*
X73692233Y-171430966D01*
X73658900Y-171507157D01*
X73658900Y-171583347D01*
X73992233Y-171659538D01*
X73358900Y-171926204D02*
X73358900Y-171126204D01*
X73358900Y-171430966D02*
X73292233Y-171392871D01*
X73158900Y-171392871D01*
X73092233Y-171430966D01*
X73058900Y-171469061D01*
X73025566Y-171545252D01*
X73025566Y-171773823D01*
X73058900Y-171850014D01*
X73092233Y-171888109D01*
X73158900Y-171926204D01*
X73292233Y-171926204D01*
X73358900Y-171888109D01*
X72425566Y-171926204D02*
X72425566Y-171507157D01*
X72458900Y-171430966D01*
X72525566Y-171392871D01*
X72658900Y-171392871D01*
X72725566Y-171430966D01*
X72425566Y-171888109D02*
X72492233Y-171926204D01*
X72658900Y-171926204D01*
X72725566Y-171888109D01*
X72758900Y-171811919D01*
X72758900Y-171735728D01*
X72725566Y-171659538D01*
X72658900Y-171621442D01*
X72492233Y-171621442D01*
X72425566Y-171583347D01*
X73182833Y-170300604D02*
X73182833Y-169500604D01*
X72782833Y-170300604D02*
X73082833Y-169843461D01*
X72782833Y-169500604D02*
X73182833Y-169957747D01*
X72482833Y-170300604D02*
X72482833Y-169767271D01*
X72482833Y-169500604D02*
X72516166Y-169538700D01*
X72482833Y-169576795D01*
X72449500Y-169538700D01*
X72482833Y-169500604D01*
X72482833Y-169576795D01*
X72149500Y-169767271D02*
X72149500Y-170300604D01*
X72149500Y-169843461D02*
X72116166Y-169805366D01*
X72049500Y-169767271D01*
X71949500Y-169767271D01*
X71882833Y-169805366D01*
X71849500Y-169881557D01*
X71849500Y-170300604D01*
X71216166Y-169767271D02*
X71216166Y-170414890D01*
X71249500Y-170491080D01*
X71282833Y-170529176D01*
X71349500Y-170567271D01*
X71449500Y-170567271D01*
X71516166Y-170529176D01*
X71216166Y-170262509D02*
X71282833Y-170300604D01*
X71416166Y-170300604D01*
X71482833Y-170262509D01*
X71516166Y-170224414D01*
X71549500Y-170148223D01*
X71549500Y-169919652D01*
X71516166Y-169843461D01*
X71482833Y-169805366D01*
X71416166Y-169767271D01*
X71282833Y-169767271D01*
X71216166Y-169805366D01*
D14*
G36*
X77419200Y-165328600D02*
G01*
X77038200Y-165328600D01*
X77419200Y-164947600D01*
X77419200Y-165328600D01*
G37*
X77419200Y-165328600D02*
X77038200Y-165328600D01*
X77419200Y-164947600D01*
X77419200Y-165328600D01*
D15*
X69947540Y-166983080D02*
G75*
G03X70647540Y-167683080I700000J0D01*
G01*
X70647540Y-166083080D02*
G75*
G03X69947540Y-166783080I0J-700000D01*
G01*
X73949800Y-166778000D02*
G75*
G03X73249800Y-166078000I-700000J0D01*
G01*
X73249800Y-167678000D02*
G75*
G03X73949800Y-166978000I0J700000D01*
G01*
X70647400Y-167678000D02*
X73247400Y-167678000D01*
X73949800Y-167078000D02*
X73949800Y-166678000D01*
X73247400Y-166078000D02*
X70647400Y-166078000D01*
X69947540Y-166783080D02*
X69947540Y-166983080D01*
X70729620Y-165898980D02*
X70429620Y-165598980D01*
X70429620Y-165598980D02*
X71029620Y-165598980D01*
X70729620Y-165898980D02*
X71029620Y-165598980D01*
X76943340Y-166983080D02*
G75*
G03X77643340Y-167683080I700000J0D01*
G01*
X77643340Y-166083080D02*
G75*
G03X76943340Y-166783080I0J-700000D01*
G01*
X80945600Y-166778000D02*
G75*
G03X80245600Y-166078000I-700000J0D01*
G01*
X80245600Y-167678000D02*
G75*
G03X80945600Y-166978000I0J700000D01*
G01*
X77643200Y-167678000D02*
X80243200Y-167678000D01*
X80945600Y-167078000D02*
X80945600Y-166678000D01*
X80243200Y-166078000D02*
X77643200Y-166078000D01*
X76943340Y-166783080D02*
X76943340Y-166983080D01*
X77725420Y-165898980D02*
X77425420Y-165598980D01*
X77425420Y-165598980D02*
X78025420Y-165598980D01*
X77725420Y-165898980D02*
X78025420Y-165598980D01*
D13*
X76303000Y-171196000D02*
X70573000Y-171196000D01*
X77978000Y-169521000D02*
G75*
G02X76303000Y-171196000I-1675000J0D01*
G01*
X81573000Y-173736000D02*
G75*
G02X79898000Y-175411000I-1675000J0D01*
G01*
X79898000Y-175411000D02*
X70573000Y-175411000D01*
X70573000Y-175406000D02*
X70573000Y-171196000D01*
X81573000Y-173736000D02*
X81573000Y-169521000D01*
X81573000Y-169521000D02*
X77978000Y-169521000D01*
D15*
X67719700Y-166811400D02*
X67719700Y-170711400D01*
X69719700Y-166811400D02*
X69719700Y-170711400D01*
X67719700Y-166811400D02*
X69719700Y-166811400D01*
X77038000Y-162176000D02*
X73838000Y-162176000D01*
X73838000Y-162176000D02*
X73838000Y-164976000D01*
X73838000Y-164976000D02*
X77038000Y-164976000D01*
X77038000Y-164976000D02*
X77038000Y-162176000D01*
D13*
X68683095Y-172194480D02*
X68683095Y-171194480D01*
X68445000Y-171194480D01*
X68302142Y-171242100D01*
X68206904Y-171337338D01*
X68159285Y-171432576D01*
X68111666Y-171623052D01*
X68111666Y-171765909D01*
X68159285Y-171956385D01*
X68206904Y-172051623D01*
X68302142Y-172146861D01*
X68445000Y-172194480D01*
X68683095Y-172194480D01*
X67159285Y-172194480D02*
X67730714Y-172194480D01*
X67445000Y-172194480D02*
X67445000Y-171194480D01*
X67540238Y-171337338D01*
X67635476Y-171432576D01*
X67730714Y-171480195D01*
M02*
