G04 #@! TF.GenerationSoftware,KiCad,Pcbnew,5.1.5*
G04 #@! TF.CreationDate,2020-05-28T17:34:41+02:00*
G04 #@! TF.ProjectId,amoeba-king,616d6f65-6261-42d6-9b69-6e672e6b6963,rev?*
G04 #@! TF.SameCoordinates,Original*
G04 #@! TF.FileFunction,Copper,L1,Top*
G04 #@! TF.FilePolarity,Positive*
%FSLAX46Y46*%
G04 Gerber Fmt 4.6, Leading zero omitted, Abs format (unit mm)*
G04 Created by KiCad (PCBNEW 5.1.5) date 2020-05-28 17:34:41*
%MOMM*%
%LPD*%
G04 APERTURE LIST*
%ADD10C,0.158750*%
%ADD11C,0.150000*%
%ADD12C,0.094155*%
%ADD13C,0.889000*%
%ADD14C,0.762000*%
%ADD15C,0.254000*%
%ADD16C,0.508000*%
%ADD17C,0.200000*%
G04 APERTURE END LIST*
D10*
X67580923Y-176051028D02*
X67679197Y-176474361D01*
X67883304Y-176051028D01*
X68404911Y-176474361D02*
X68042054Y-176474361D01*
X68223483Y-176474361D02*
X68302858Y-175839361D01*
X68231042Y-175930076D01*
X68163007Y-175990552D01*
X68098751Y-176020790D01*
X68684614Y-176413885D02*
X68711072Y-176444123D01*
X68677054Y-176474361D01*
X68650596Y-176444123D01*
X68684614Y-176413885D01*
X68677054Y-176474361D01*
X69312054Y-176474361D02*
X68949197Y-176474361D01*
X69130626Y-176474361D02*
X69210001Y-175839361D01*
X69138185Y-175930076D01*
X69070150Y-175990552D01*
X69005894Y-176020790D01*
D11*
G36*
X68747048Y-173038590D02*
G01*
X68763990Y-173473250D01*
X68862139Y-173473250D01*
X68868318Y-173481487D01*
X68867627Y-173571399D01*
X68901946Y-173571399D01*
X68906751Y-173585127D01*
X68946557Y-173585813D01*
X68952049Y-173589072D01*
X68956168Y-173594736D01*
X69013134Y-173724458D01*
X68999404Y-173729946D01*
X69000094Y-173751911D01*
X69003528Y-173751225D01*
X69003528Y-173793094D01*
X68982249Y-173874769D01*
X68916556Y-173874769D01*
X68916556Y-173883692D01*
X68858218Y-173883692D01*
X68858218Y-173962623D01*
X68844490Y-173976348D01*
X68829393Y-173962623D01*
X68830084Y-173933797D01*
X68809491Y-173961936D01*
X68736052Y-173961936D01*
X68720950Y-173934483D01*
X68721640Y-173884378D01*
X68684578Y-173884378D01*
X68685269Y-173963309D01*
X68670167Y-173977034D01*
X68654384Y-173963309D01*
X68654384Y-173883692D01*
X68630361Y-173883692D01*
X68630361Y-173873397D01*
X68606337Y-173874769D01*
X68582317Y-173792404D01*
X68583008Y-173753283D01*
X68586439Y-173752597D01*
X68585748Y-173729946D01*
X68580255Y-173729946D01*
X68573395Y-173725143D01*
X68633105Y-173590619D01*
X68636367Y-173587357D01*
X68640656Y-173585814D01*
X68679090Y-173585814D01*
X68685955Y-173570713D01*
X68718881Y-173570713D01*
X68718881Y-173480801D01*
X68763990Y-173473250D01*
X68747048Y-173038590D01*
X68726692Y-173039362D01*
X68706404Y-173041679D01*
X68686185Y-173045541D01*
X68666034Y-173050948D01*
X68645952Y-173057900D01*
X68625939Y-173066396D01*
X68605994Y-173076437D01*
X68586118Y-173088022D01*
X68566311Y-173101153D01*
X68548880Y-173115118D01*
X68532250Y-173131536D01*
X68516531Y-173149725D01*
X68501831Y-173169003D01*
X68488262Y-173188688D01*
X68475931Y-173208099D01*
X68464949Y-173226554D01*
X68455425Y-173243373D01*
X68447469Y-173257873D01*
X68441189Y-173269372D01*
X68424622Y-173298550D01*
X68407969Y-173326380D01*
X68391246Y-173352905D01*
X68374468Y-173378167D01*
X68357651Y-173402211D01*
X68340810Y-173425079D01*
X68323960Y-173446814D01*
X68307117Y-173467460D01*
X68290297Y-173487059D01*
X68273515Y-173505655D01*
X68256786Y-173523290D01*
X68240126Y-173540009D01*
X68223551Y-173555854D01*
X68207075Y-173570868D01*
X68190714Y-173585094D01*
X68174484Y-173598576D01*
X68158401Y-173611356D01*
X68142479Y-173623478D01*
X68126734Y-173634985D01*
X68111182Y-173645920D01*
X68095837Y-173656326D01*
X68080716Y-173666246D01*
X68065835Y-173675724D01*
X68051207Y-173684802D01*
X68036850Y-173693523D01*
X68022777Y-173701932D01*
X68009006Y-173710070D01*
X67995551Y-173717982D01*
X67982427Y-173725709D01*
X67969651Y-173733296D01*
X67957238Y-173740785D01*
X67945202Y-173748220D01*
X67933560Y-173755643D01*
X67922327Y-173763098D01*
X67911519Y-173770628D01*
X67901151Y-173778276D01*
X67891238Y-173786085D01*
X67881796Y-173794099D01*
X67872840Y-173802360D01*
X67864386Y-173810911D01*
X67856450Y-173819796D01*
X67849046Y-173829058D01*
X67842190Y-173838740D01*
X67835898Y-173848885D01*
X67830185Y-173859536D01*
X67825067Y-173870736D01*
X67820559Y-173882529D01*
X67816676Y-173894957D01*
X67813434Y-173908065D01*
X67810849Y-173921894D01*
X67808936Y-173936487D01*
X67807710Y-173951889D01*
X67807187Y-173968143D01*
X67807388Y-173987082D01*
X67808358Y-174004628D01*
X67810057Y-174020855D01*
X67812446Y-174035837D01*
X67815486Y-174049648D01*
X67819138Y-174062363D01*
X67823362Y-174074054D01*
X67828119Y-174084797D01*
X67833370Y-174094666D01*
X67839075Y-174103734D01*
X67845195Y-174112076D01*
X67851691Y-174119765D01*
X67858524Y-174126877D01*
X67865655Y-174133485D01*
X67873043Y-174139664D01*
X67880650Y-174145486D01*
X67888437Y-174151027D01*
X67896364Y-174156361D01*
X67904392Y-174161562D01*
X67912482Y-174166703D01*
X67920595Y-174171859D01*
X67928690Y-174177105D01*
X67936730Y-174182513D01*
X67944674Y-174188159D01*
X67952484Y-174194117D01*
X67960120Y-174200460D01*
X67967542Y-174207262D01*
X67974713Y-174214599D01*
X67981591Y-174222543D01*
X67988139Y-174231170D01*
X67994316Y-174240553D01*
X68000084Y-174250766D01*
X68005403Y-174261883D01*
X68010234Y-174273979D01*
X68014538Y-174287128D01*
X68018275Y-174301403D01*
X68021407Y-174316879D01*
X68023893Y-174333631D01*
X68025695Y-174351731D01*
X68026773Y-174371255D01*
X68027089Y-174392276D01*
X68026602Y-174414868D01*
X68025273Y-174439107D01*
X68023064Y-174465064D01*
X68019935Y-174492816D01*
X68016599Y-174520545D01*
X68014172Y-174545322D01*
X68012954Y-174567675D01*
X68013242Y-174588133D01*
X68015335Y-174607224D01*
X68019533Y-174625478D01*
X68026134Y-174643423D01*
X68035436Y-174661588D01*
X68047739Y-174680502D01*
X68061865Y-174698592D01*
X68077055Y-174714555D01*
X68093309Y-174728389D01*
X68110628Y-174740095D01*
X68129010Y-174749672D01*
X68148457Y-174757122D01*
X68168968Y-174762442D01*
X68190543Y-174765635D01*
X68213182Y-174766699D01*
X68243769Y-174766699D01*
X68266013Y-174765848D01*
X68287463Y-174763295D01*
X68308118Y-174759039D01*
X68327979Y-174753081D01*
X68347045Y-174745420D01*
X68365317Y-174736057D01*
X68382795Y-174724992D01*
X68400985Y-174711243D01*
X68416625Y-174695950D01*
X68429717Y-174679111D01*
X68440260Y-174660728D01*
X68448254Y-174640801D01*
X68453699Y-174619328D01*
X68453755Y-174616897D01*
X68454050Y-174609940D01*
X68454780Y-174598964D01*
X68456137Y-174584475D01*
X68458316Y-174566979D01*
X68461510Y-174546984D01*
X68465913Y-174524995D01*
X68471718Y-174501518D01*
X68479121Y-174477060D01*
X68488314Y-174452127D01*
X68499490Y-174427226D01*
X68512845Y-174402863D01*
X68528572Y-174379543D01*
X68546863Y-174357775D01*
X68567915Y-174338063D01*
X68584596Y-174325496D01*
X68602426Y-174314239D01*
X68621286Y-174304287D01*
X68641054Y-174295634D01*
X68661610Y-174288276D01*
X68682836Y-174282206D01*
X68704610Y-174277419D01*
X68726814Y-174273909D01*
X68749325Y-174271671D01*
X68772026Y-174270700D01*
X68794796Y-174270990D01*
X68817514Y-174272535D01*
X68840060Y-174275330D01*
X68862316Y-174279369D01*
X68884160Y-174284647D01*
X68905473Y-174291158D01*
X68926134Y-174298897D01*
X68946024Y-174307859D01*
X68965023Y-174318037D01*
X68983010Y-174329426D01*
X68999866Y-174342021D01*
X69021210Y-174361701D01*
X69039862Y-174383452D01*
X69056002Y-174406766D01*
X69069813Y-174431136D01*
X69081474Y-174456052D01*
X69091166Y-174481007D01*
X69099071Y-174505492D01*
X69105368Y-174529001D01*
X69110239Y-174551023D01*
X69113865Y-174571051D01*
X69116426Y-174588578D01*
X69118103Y-174603094D01*
X69119077Y-174614092D01*
X69119529Y-174621063D01*
X69119639Y-174623500D01*
X69124699Y-174643312D01*
X69132461Y-174661965D01*
X69142927Y-174679459D01*
X69156096Y-174695795D01*
X69171968Y-174710972D01*
X69190544Y-174724991D01*
X69209351Y-174737735D01*
X69228699Y-174748162D01*
X69248588Y-174756272D01*
X69269017Y-174762064D01*
X69289987Y-174765540D01*
X69311497Y-174766699D01*
X69342084Y-174766699D01*
X69364483Y-174765600D01*
X69385955Y-174762305D01*
X69406500Y-174756812D01*
X69426118Y-174749123D01*
X69444810Y-174739236D01*
X69462574Y-174727153D01*
X69479412Y-174712873D01*
X69495323Y-174696396D01*
X69510307Y-174677722D01*
X69522983Y-174659707D01*
X69533683Y-174643325D01*
X69542193Y-174627605D01*
X69548299Y-174611576D01*
X69551790Y-174594267D01*
X69552452Y-174574708D01*
X69550071Y-174551926D01*
X69544435Y-174524953D01*
X69535331Y-174492816D01*
X69523801Y-174454739D01*
X69513232Y-174417723D01*
X69503598Y-174381747D01*
X69494871Y-174346790D01*
X69487023Y-174312834D01*
X69480026Y-174279858D01*
X69473855Y-174247842D01*
X69468480Y-174216766D01*
X69463874Y-174186612D01*
X69460010Y-174157357D01*
X69456860Y-174128984D01*
X69454397Y-174101471D01*
X69452593Y-174074800D01*
X69451420Y-174048949D01*
X69450852Y-174023900D01*
X69450861Y-173999631D01*
X69451418Y-173976125D01*
X69452497Y-173953359D01*
X69454070Y-173931315D01*
X69456109Y-173909973D01*
X69458588Y-173889313D01*
X69461478Y-173869314D01*
X69464751Y-173849958D01*
X69468382Y-173831224D01*
X69472341Y-173813091D01*
X69476601Y-173795542D01*
X69481135Y-173778554D01*
X69485916Y-173762109D01*
X69490915Y-173746187D01*
X69496106Y-173730767D01*
X69501460Y-173715830D01*
X69506950Y-173701356D01*
X69512549Y-173687326D01*
X69518229Y-173673718D01*
X69523963Y-173660513D01*
X69529723Y-173647692D01*
X69535482Y-173635234D01*
X69541211Y-173623120D01*
X69546885Y-173611330D01*
X69552474Y-173599843D01*
X69557951Y-173588640D01*
X69563290Y-173577701D01*
X69568462Y-173567007D01*
X69573439Y-173556536D01*
X69578196Y-173546269D01*
X69582703Y-173536187D01*
X69586933Y-173526270D01*
X69590859Y-173516497D01*
X69594454Y-173506849D01*
X69597689Y-173497305D01*
X69600538Y-173487847D01*
X69602972Y-173478453D01*
X69604964Y-173469105D01*
X69606487Y-173459782D01*
X69607513Y-173450464D01*
X69608015Y-173441132D01*
X69607965Y-173431765D01*
X69607335Y-173422343D01*
X69606099Y-173412848D01*
X69604227Y-173403258D01*
X69601694Y-173393554D01*
X69598472Y-173383717D01*
X69591147Y-173366242D01*
X69582654Y-173350972D01*
X69573058Y-173337778D01*
X69562423Y-173326530D01*
X69550814Y-173317099D01*
X69538294Y-173309355D01*
X69524929Y-173303167D01*
X69510784Y-173298406D01*
X69495921Y-173294944D01*
X69480407Y-173292648D01*
X69464305Y-173291391D01*
X69447679Y-173291043D01*
X69430595Y-173291473D01*
X69413117Y-173292551D01*
X69395308Y-173294150D01*
X69377235Y-173296137D01*
X69358960Y-173298384D01*
X69340549Y-173300762D01*
X69322066Y-173303139D01*
X69303575Y-173305387D01*
X69285141Y-173307376D01*
X69266829Y-173308976D01*
X69248702Y-173310058D01*
X69230826Y-173310491D01*
X69213264Y-173310147D01*
X69196082Y-173308894D01*
X69179343Y-173306604D01*
X69163112Y-173303147D01*
X69147454Y-173298393D01*
X69132433Y-173292212D01*
X69118113Y-173284475D01*
X69104559Y-173275052D01*
X69091836Y-173263813D01*
X69082865Y-173253028D01*
X69072723Y-173238015D01*
X69061385Y-173219806D01*
X69048822Y-173199431D01*
X69035008Y-173177922D01*
X69019917Y-173156309D01*
X69003522Y-173135622D01*
X68985795Y-173116893D01*
X68966710Y-173101153D01*
X68946628Y-173088022D01*
X68926547Y-173076437D01*
X68906465Y-173066396D01*
X68886384Y-173057900D01*
X68866302Y-173050948D01*
X68846221Y-173045541D01*
X68826140Y-173041679D01*
X68806058Y-173039362D01*
X68785976Y-173038590D01*
X68747048Y-173038590D01*
G37*
D12*
G36*
X68794081Y-172597036D02*
G01*
X68765783Y-172596948D01*
X68737622Y-172597126D01*
X68709608Y-172597570D01*
X68681750Y-172598280D01*
X68654057Y-172599255D01*
X68626539Y-172600493D01*
X68599205Y-172601996D01*
X68572065Y-172603761D01*
X68545129Y-172605789D01*
X68518405Y-172608079D01*
X68491904Y-172610630D01*
X68465634Y-172613442D01*
X68439605Y-172616514D01*
X68413827Y-172619845D01*
X68388308Y-172623435D01*
X68363060Y-172627284D01*
X68338090Y-172631390D01*
X68313408Y-172635754D01*
X68289024Y-172640374D01*
X68264948Y-172645250D01*
X68241188Y-172650381D01*
X68217754Y-172655767D01*
X68194656Y-172661408D01*
X68171903Y-172667302D01*
X68149505Y-172673449D01*
X68127471Y-172679848D01*
X68105809Y-172686500D01*
X68084531Y-172693402D01*
X68063645Y-172700556D01*
X68071252Y-172724718D01*
X68077096Y-172747691D01*
X68081393Y-172770029D01*
X68084356Y-172792286D01*
X68086199Y-172815017D01*
X68107483Y-172808810D01*
X68129126Y-172802765D01*
X68151118Y-172796887D01*
X68173454Y-172791182D01*
X68196126Y-172785655D01*
X68219127Y-172780312D01*
X68242451Y-172775158D01*
X68266090Y-172770200D01*
X68290036Y-172765442D01*
X68314284Y-172760891D01*
X68338826Y-172756552D01*
X68363655Y-172752430D01*
X68388763Y-172748532D01*
X68414145Y-172744862D01*
X68439792Y-172741427D01*
X68465698Y-172738233D01*
X68491856Y-172735284D01*
X68518258Y-172732586D01*
X68544898Y-172730146D01*
X68571769Y-172727968D01*
X68598863Y-172726058D01*
X68626174Y-172724423D01*
X68653694Y-172723067D01*
X68681416Y-172721996D01*
X68709334Y-172721216D01*
X68737441Y-172720732D01*
X68765728Y-172720551D01*
X68794190Y-172720677D01*
X68822641Y-172721096D01*
X68850896Y-172721791D01*
X68878951Y-172722759D01*
X68906801Y-172723997D01*
X68934438Y-172725502D01*
X68961859Y-172727270D01*
X68989058Y-172729300D01*
X69016030Y-172731587D01*
X69042768Y-172734130D01*
X69069268Y-172736925D01*
X69095524Y-172739969D01*
X69121531Y-172743259D01*
X69147283Y-172746793D01*
X69172775Y-172750567D01*
X69198002Y-172754579D01*
X69222957Y-172758824D01*
X69247637Y-172763302D01*
X69272034Y-172768008D01*
X69296145Y-172772940D01*
X69319963Y-172778094D01*
X69343483Y-172783469D01*
X69366700Y-172789060D01*
X69389608Y-172794865D01*
X69412202Y-172800881D01*
X69434476Y-172807104D01*
X69456425Y-172813533D01*
X69478044Y-172820165D01*
X69499327Y-172826995D01*
X69501237Y-172806018D01*
X69504783Y-172784730D01*
X69509784Y-172762970D01*
X69516058Y-172740578D01*
X69523425Y-172717394D01*
X69502775Y-172709996D01*
X69481735Y-172702817D01*
X69460312Y-172695858D01*
X69438513Y-172689120D01*
X69416348Y-172682605D01*
X69393822Y-172676314D01*
X69370944Y-172670249D01*
X69347722Y-172664412D01*
X69324163Y-172658803D01*
X69300276Y-172653425D01*
X69276066Y-172648279D01*
X69251543Y-172643367D01*
X69226714Y-172638689D01*
X69201587Y-172634248D01*
X69176168Y-172630045D01*
X69150467Y-172626081D01*
X69124490Y-172622359D01*
X69098246Y-172618879D01*
X69071741Y-172615642D01*
X69044984Y-172612652D01*
X69017983Y-172609908D01*
X68990744Y-172607414D01*
X68963276Y-172605169D01*
X68935587Y-172603175D01*
X68907683Y-172601435D01*
X68879573Y-172599950D01*
X68851264Y-172598720D01*
X68822764Y-172597749D01*
X68794081Y-172597036D01*
G37*
X68794081Y-172597036D02*
X68765783Y-172596948D01*
X68737622Y-172597126D01*
X68709608Y-172597570D01*
X68681750Y-172598280D01*
X68654057Y-172599255D01*
X68626539Y-172600493D01*
X68599205Y-172601996D01*
X68572065Y-172603761D01*
X68545129Y-172605789D01*
X68518405Y-172608079D01*
X68491904Y-172610630D01*
X68465634Y-172613442D01*
X68439605Y-172616514D01*
X68413827Y-172619845D01*
X68388308Y-172623435D01*
X68363060Y-172627284D01*
X68338090Y-172631390D01*
X68313408Y-172635754D01*
X68289024Y-172640374D01*
X68264948Y-172645250D01*
X68241188Y-172650381D01*
X68217754Y-172655767D01*
X68194656Y-172661408D01*
X68171903Y-172667302D01*
X68149505Y-172673449D01*
X68127471Y-172679848D01*
X68105809Y-172686500D01*
X68084531Y-172693402D01*
X68063645Y-172700556D01*
X68071252Y-172724718D01*
X68077096Y-172747691D01*
X68081393Y-172770029D01*
X68084356Y-172792286D01*
X68086199Y-172815017D01*
X68107483Y-172808810D01*
X68129126Y-172802765D01*
X68151118Y-172796887D01*
X68173454Y-172791182D01*
X68196126Y-172785655D01*
X68219127Y-172780312D01*
X68242451Y-172775158D01*
X68266090Y-172770200D01*
X68290036Y-172765442D01*
X68314284Y-172760891D01*
X68338826Y-172756552D01*
X68363655Y-172752430D01*
X68388763Y-172748532D01*
X68414145Y-172744862D01*
X68439792Y-172741427D01*
X68465698Y-172738233D01*
X68491856Y-172735284D01*
X68518258Y-172732586D01*
X68544898Y-172730146D01*
X68571769Y-172727968D01*
X68598863Y-172726058D01*
X68626174Y-172724423D01*
X68653694Y-172723067D01*
X68681416Y-172721996D01*
X68709334Y-172721216D01*
X68737441Y-172720732D01*
X68765728Y-172720551D01*
X68794190Y-172720677D01*
X68822641Y-172721096D01*
X68850896Y-172721791D01*
X68878951Y-172722759D01*
X68906801Y-172723997D01*
X68934438Y-172725502D01*
X68961859Y-172727270D01*
X68989058Y-172729300D01*
X69016030Y-172731587D01*
X69042768Y-172734130D01*
X69069268Y-172736925D01*
X69095524Y-172739969D01*
X69121531Y-172743259D01*
X69147283Y-172746793D01*
X69172775Y-172750567D01*
X69198002Y-172754579D01*
X69222957Y-172758824D01*
X69247637Y-172763302D01*
X69272034Y-172768008D01*
X69296145Y-172772940D01*
X69319963Y-172778094D01*
X69343483Y-172783469D01*
X69366700Y-172789060D01*
X69389608Y-172794865D01*
X69412202Y-172800881D01*
X69434476Y-172807104D01*
X69456425Y-172813533D01*
X69478044Y-172820165D01*
X69499327Y-172826995D01*
X69501237Y-172806018D01*
X69504783Y-172784730D01*
X69509784Y-172762970D01*
X69516058Y-172740578D01*
X69523425Y-172717394D01*
X69502775Y-172709996D01*
X69481735Y-172702817D01*
X69460312Y-172695858D01*
X69438513Y-172689120D01*
X69416348Y-172682605D01*
X69393822Y-172676314D01*
X69370944Y-172670249D01*
X69347722Y-172664412D01*
X69324163Y-172658803D01*
X69300276Y-172653425D01*
X69276066Y-172648279D01*
X69251543Y-172643367D01*
X69226714Y-172638689D01*
X69201587Y-172634248D01*
X69176168Y-172630045D01*
X69150467Y-172626081D01*
X69124490Y-172622359D01*
X69098246Y-172618879D01*
X69071741Y-172615642D01*
X69044984Y-172612652D01*
X69017983Y-172609908D01*
X68990744Y-172607414D01*
X68963276Y-172605169D01*
X68935587Y-172603175D01*
X68907683Y-172601435D01*
X68879573Y-172599950D01*
X68851264Y-172598720D01*
X68822764Y-172597749D01*
X68794081Y-172597036D01*
D11*
G36*
X68798186Y-171094043D02*
G01*
X68774561Y-171095937D01*
X68752144Y-171101423D01*
X68731238Y-171110206D01*
X68712143Y-171121992D01*
X68695160Y-171136485D01*
X68680590Y-171153392D01*
X68668734Y-171172417D01*
X68659893Y-171193265D01*
X68654368Y-171215642D01*
X68652459Y-171239254D01*
X68654435Y-171263026D01*
X68660148Y-171285416D01*
X68669273Y-171306154D01*
X68681486Y-171324972D01*
X68696462Y-171341601D01*
X68713878Y-171355771D01*
X68733408Y-171367215D01*
X68754729Y-171375663D01*
X68777516Y-171380847D01*
X68775041Y-171408746D01*
X68772480Y-171436945D01*
X68769819Y-171465401D01*
X68767049Y-171494073D01*
X68764159Y-171522918D01*
X68761138Y-171551893D01*
X68757975Y-171580955D01*
X68754658Y-171610064D01*
X68751178Y-171639175D01*
X68747523Y-171668247D01*
X68743683Y-171697236D01*
X68739646Y-171726102D01*
X68735402Y-171754800D01*
X68730939Y-171783289D01*
X68726247Y-171811527D01*
X68721315Y-171839470D01*
X68716132Y-171867077D01*
X68710688Y-171894304D01*
X68704970Y-171921110D01*
X68698969Y-171947452D01*
X68692673Y-171973287D01*
X68686072Y-171998574D01*
X68679154Y-172023269D01*
X68671910Y-172047330D01*
X68664327Y-172070715D01*
X68656395Y-172093382D01*
X68648103Y-172115287D01*
X68639440Y-172136388D01*
X68630396Y-172156643D01*
X68620959Y-172176010D01*
X68611119Y-172194446D01*
X68600864Y-172211908D01*
X68590184Y-172228354D01*
X68579068Y-172243742D01*
X68567505Y-172258030D01*
X68555484Y-172271173D01*
X68542994Y-172283132D01*
X68530024Y-172293861D01*
X68516564Y-172303321D01*
X68502602Y-172311467D01*
X68488128Y-172318258D01*
X68471114Y-172324360D01*
X68453366Y-172328621D01*
X68434932Y-172331116D01*
X68415858Y-172331918D01*
X68396191Y-172331100D01*
X68375978Y-172328738D01*
X68355266Y-172324903D01*
X68334102Y-172319671D01*
X68312531Y-172313114D01*
X68290603Y-172305307D01*
X68268362Y-172296323D01*
X68245856Y-172286237D01*
X68223133Y-172275121D01*
X68200238Y-172263050D01*
X68177218Y-172250098D01*
X68154122Y-172236337D01*
X68130994Y-172221843D01*
X68107883Y-172206689D01*
X68084835Y-172190948D01*
X68061896Y-172174694D01*
X68039115Y-172158001D01*
X68016537Y-172140943D01*
X67994210Y-172123594D01*
X67972180Y-172106027D01*
X67950494Y-172088316D01*
X67929199Y-172070535D01*
X67908342Y-172052757D01*
X67887970Y-172035057D01*
X67868130Y-172017508D01*
X67848868Y-172000184D01*
X67830231Y-171983159D01*
X67812267Y-171966506D01*
X67795022Y-171950299D01*
X67778542Y-171934613D01*
X67762876Y-171919520D01*
X67748069Y-171905094D01*
X67734169Y-171891410D01*
X67747953Y-171875090D01*
X67758738Y-171856576D01*
X67765764Y-171836101D01*
X67768275Y-171813896D01*
X67766002Y-171791240D01*
X67759479Y-171770116D01*
X67749155Y-171750983D01*
X67735475Y-171734300D01*
X67718886Y-171720525D01*
X67699836Y-171710118D01*
X67678771Y-171703537D01*
X67656137Y-171701241D01*
X67633482Y-171703537D01*
X67612358Y-171710118D01*
X67593225Y-171720525D01*
X67576541Y-171734300D01*
X67562767Y-171750983D01*
X67552359Y-171770116D01*
X67545778Y-171791240D01*
X67543483Y-171813896D01*
X67545778Y-171836529D01*
X67552359Y-171857594D01*
X67562767Y-171876645D01*
X67576541Y-171893233D01*
X67593225Y-171906913D01*
X67612358Y-171917238D01*
X67633482Y-171923760D01*
X67656137Y-171926034D01*
X67677253Y-171926447D01*
X67692175Y-171922138D01*
X67706780Y-171913631D01*
X67922271Y-172276400D01*
X67937630Y-172305625D01*
X67951890Y-172334100D01*
X67965067Y-172361822D01*
X67977181Y-172388788D01*
X67988248Y-172414997D01*
X67998287Y-172440446D01*
X68007315Y-172465133D01*
X68015351Y-172489056D01*
X68022411Y-172512214D01*
X68028514Y-172534602D01*
X68033678Y-172556221D01*
X68037920Y-172577066D01*
X68041258Y-172597137D01*
X68043710Y-172616431D01*
X68065445Y-172609971D01*
X68087539Y-172603684D01*
X68109982Y-172597575D01*
X68132768Y-172591650D01*
X68155887Y-172585913D01*
X68179333Y-172580372D01*
X68203097Y-172575030D01*
X68227170Y-172569895D01*
X68251545Y-172564970D01*
X68276214Y-172560262D01*
X68301168Y-172555776D01*
X68326399Y-172551518D01*
X68351900Y-172547493D01*
X68377661Y-172543706D01*
X68403676Y-172540163D01*
X68429936Y-172536871D01*
X68456433Y-172533833D01*
X68483158Y-172531056D01*
X68510104Y-172528545D01*
X68537263Y-172526305D01*
X68564626Y-172524343D01*
X68592185Y-172522663D01*
X68619933Y-172521271D01*
X68647860Y-172520173D01*
X68675960Y-172519374D01*
X68704224Y-172518880D01*
X68732644Y-172518695D01*
X68761211Y-172518827D01*
X68789918Y-172519279D01*
X68818981Y-172519595D01*
X68847836Y-172520194D01*
X68876480Y-172521074D01*
X68904909Y-172522232D01*
X68933119Y-172523662D01*
X68961106Y-172525363D01*
X68988865Y-172527330D01*
X69016394Y-172529560D01*
X69043687Y-172532050D01*
X69070741Y-172534795D01*
X69097553Y-172537793D01*
X69124117Y-172541040D01*
X69150430Y-172544532D01*
X69176489Y-172548265D01*
X69202288Y-172552237D01*
X69227824Y-172556444D01*
X69253094Y-172560883D01*
X69278092Y-172565549D01*
X69302816Y-172570439D01*
X69327261Y-172575550D01*
X69351423Y-172580878D01*
X69375298Y-172586420D01*
X69398883Y-172592172D01*
X69422172Y-172598130D01*
X69445163Y-172604292D01*
X69467851Y-172610653D01*
X69490232Y-172617211D01*
X69512303Y-172623961D01*
X69534059Y-172630900D01*
X69537277Y-172611404D01*
X69541117Y-172591266D01*
X69545652Y-172570476D01*
X69550961Y-172549019D01*
X69557118Y-172526883D01*
X69564200Y-172504055D01*
X69572282Y-172480523D01*
X69581440Y-172456274D01*
X69591751Y-172431294D01*
X69603291Y-172405572D01*
X69616134Y-172379095D01*
X69630358Y-172351850D01*
X69646038Y-172323823D01*
X69663250Y-172295003D01*
X69879257Y-171925517D01*
X69895422Y-171933502D01*
X69912751Y-171939615D01*
X69930934Y-171942053D01*
X69953589Y-171939780D01*
X69974713Y-171933257D01*
X69993846Y-171922933D01*
X70010530Y-171909253D01*
X70024304Y-171892664D01*
X70034712Y-171873614D01*
X70041293Y-171852549D01*
X70043588Y-171829915D01*
X70041293Y-171807260D01*
X70034712Y-171786136D01*
X70024304Y-171767003D01*
X70010530Y-171750320D01*
X69993846Y-171736545D01*
X69974713Y-171726137D01*
X69953589Y-171719556D01*
X69930934Y-171717261D01*
X69908300Y-171719556D01*
X69887235Y-171726137D01*
X69868185Y-171736545D01*
X69851596Y-171750320D01*
X69837916Y-171767003D01*
X69827592Y-171786136D01*
X69821069Y-171807260D01*
X69818796Y-171829915D01*
X69821552Y-171850454D01*
X69828945Y-171870706D01*
X69839661Y-171889812D01*
X69852386Y-171906913D01*
X69838681Y-171919988D01*
X69824025Y-171933833D01*
X69808466Y-171948371D01*
X69792054Y-171963528D01*
X69774836Y-171979229D01*
X69756862Y-171995399D01*
X69738180Y-172011962D01*
X69718839Y-172028843D01*
X69698888Y-172045969D01*
X69678375Y-172063262D01*
X69657349Y-172080648D01*
X69635858Y-172098053D01*
X69613953Y-172115400D01*
X69591680Y-172132615D01*
X69569089Y-172149622D01*
X69546229Y-172166347D01*
X69523147Y-172182715D01*
X69499894Y-172198650D01*
X69476518Y-172214077D01*
X69453066Y-172228921D01*
X69429589Y-172243107D01*
X69406135Y-172256560D01*
X69382752Y-172269204D01*
X69359489Y-172280965D01*
X69336394Y-172291768D01*
X69313518Y-172301537D01*
X69290907Y-172310197D01*
X69268612Y-172317673D01*
X69246680Y-172323891D01*
X69225160Y-172328774D01*
X69204102Y-172332248D01*
X69183553Y-172334237D01*
X69163562Y-172334668D01*
X69144179Y-172333463D01*
X69125451Y-172330549D01*
X69107428Y-172325850D01*
X69090158Y-172319291D01*
X69075335Y-172299194D01*
X69061104Y-172278669D01*
X69047452Y-172257732D01*
X69034364Y-172236402D01*
X69021827Y-172214697D01*
X69009826Y-172192633D01*
X68998349Y-172170228D01*
X68987381Y-172147501D01*
X68976908Y-172124468D01*
X68966918Y-172101147D01*
X68957394Y-172077556D01*
X68948325Y-172053713D01*
X68939696Y-172029634D01*
X68931494Y-172005338D01*
X68923703Y-171980843D01*
X68916312Y-171956165D01*
X68909305Y-171931322D01*
X68902669Y-171906333D01*
X68896391Y-171881214D01*
X68890456Y-171855984D01*
X68884850Y-171830659D01*
X68879560Y-171805258D01*
X68874572Y-171779798D01*
X68869872Y-171754296D01*
X68865447Y-171728771D01*
X68861282Y-171703240D01*
X68857363Y-171677720D01*
X68853677Y-171652229D01*
X68850210Y-171626784D01*
X68846948Y-171601404D01*
X68843878Y-171576106D01*
X68840985Y-171550907D01*
X68838255Y-171525826D01*
X68835676Y-171500879D01*
X68833232Y-171476084D01*
X68830911Y-171451459D01*
X68828698Y-171427022D01*
X68826579Y-171402790D01*
X68824541Y-171378780D01*
X68848829Y-171374646D01*
X68864784Y-171370264D01*
X68881126Y-171361431D01*
X68897081Y-171348581D01*
X68911874Y-171332148D01*
X68924728Y-171312564D01*
X68934870Y-171290265D01*
X68941524Y-171265684D01*
X68943914Y-171239254D01*
X68942005Y-171215642D01*
X68936480Y-171193265D01*
X68927639Y-171172417D01*
X68915783Y-171153392D01*
X68901213Y-171136485D01*
X68884230Y-171121992D01*
X68865135Y-171110206D01*
X68844229Y-171101423D01*
X68821812Y-171095937D01*
X68798186Y-171094043D01*
G37*
G04 #@! TA.AperFunction,ComponentPad*
G36*
X68219504Y-160664204D02*
G01*
X68243773Y-160667804D01*
X68267571Y-160673765D01*
X68290671Y-160682030D01*
X68312849Y-160692520D01*
X68333893Y-160705133D01*
X68353598Y-160719747D01*
X68371777Y-160736223D01*
X68388253Y-160754402D01*
X68402867Y-160774107D01*
X68415480Y-160795151D01*
X68425970Y-160817329D01*
X68434235Y-160840429D01*
X68440196Y-160864227D01*
X68443796Y-160888496D01*
X68445000Y-160913000D01*
X68445000Y-161413000D01*
X68443796Y-161437504D01*
X68440196Y-161461773D01*
X68434235Y-161485571D01*
X68425970Y-161508671D01*
X68415480Y-161530849D01*
X68402867Y-161551893D01*
X68388253Y-161571598D01*
X68371777Y-161589777D01*
X68353598Y-161606253D01*
X68333893Y-161620867D01*
X68312849Y-161633480D01*
X68290671Y-161643970D01*
X68267571Y-161652235D01*
X68243773Y-161658196D01*
X68219504Y-161661796D01*
X68195000Y-161663000D01*
X67695000Y-161663000D01*
X67670496Y-161661796D01*
X67646227Y-161658196D01*
X67622429Y-161652235D01*
X67599329Y-161643970D01*
X67577151Y-161633480D01*
X67556107Y-161620867D01*
X67536402Y-161606253D01*
X67518223Y-161589777D01*
X67501747Y-161571598D01*
X67487133Y-161551893D01*
X67474520Y-161530849D01*
X67464030Y-161508671D01*
X67455765Y-161485571D01*
X67449804Y-161461773D01*
X67446204Y-161437504D01*
X67445000Y-161413000D01*
X67445000Y-160913000D01*
X67446204Y-160888496D01*
X67449804Y-160864227D01*
X67455765Y-160840429D01*
X67464030Y-160817329D01*
X67474520Y-160795151D01*
X67487133Y-160774107D01*
X67501747Y-160754402D01*
X67518223Y-160736223D01*
X67536402Y-160719747D01*
X67556107Y-160705133D01*
X67577151Y-160692520D01*
X67599329Y-160682030D01*
X67622429Y-160673765D01*
X67646227Y-160667804D01*
X67670496Y-160664204D01*
X67695000Y-160663000D01*
X68195000Y-160663000D01*
X68219504Y-160664204D01*
G37*
G04 #@! TD.AperFunction*
G04 #@! TA.AperFunction,ComponentPad*
G36*
X68219504Y-161934204D02*
G01*
X68243773Y-161937804D01*
X68267571Y-161943765D01*
X68290671Y-161952030D01*
X68312849Y-161962520D01*
X68333893Y-161975133D01*
X68353598Y-161989747D01*
X68371777Y-162006223D01*
X68388253Y-162024402D01*
X68402867Y-162044107D01*
X68415480Y-162065151D01*
X68425970Y-162087329D01*
X68434235Y-162110429D01*
X68440196Y-162134227D01*
X68443796Y-162158496D01*
X68445000Y-162183000D01*
X68445000Y-162683000D01*
X68443796Y-162707504D01*
X68440196Y-162731773D01*
X68434235Y-162755571D01*
X68425970Y-162778671D01*
X68415480Y-162800849D01*
X68402867Y-162821893D01*
X68388253Y-162841598D01*
X68371777Y-162859777D01*
X68353598Y-162876253D01*
X68333893Y-162890867D01*
X68312849Y-162903480D01*
X68290671Y-162913970D01*
X68267571Y-162922235D01*
X68243773Y-162928196D01*
X68219504Y-162931796D01*
X68195000Y-162933000D01*
X67695000Y-162933000D01*
X67670496Y-162931796D01*
X67646227Y-162928196D01*
X67622429Y-162922235D01*
X67599329Y-162913970D01*
X67577151Y-162903480D01*
X67556107Y-162890867D01*
X67536402Y-162876253D01*
X67518223Y-162859777D01*
X67501747Y-162841598D01*
X67487133Y-162821893D01*
X67474520Y-162800849D01*
X67464030Y-162778671D01*
X67455765Y-162755571D01*
X67449804Y-162731773D01*
X67446204Y-162707504D01*
X67445000Y-162683000D01*
X67445000Y-162183000D01*
X67446204Y-162158496D01*
X67449804Y-162134227D01*
X67455765Y-162110429D01*
X67464030Y-162087329D01*
X67474520Y-162065151D01*
X67487133Y-162044107D01*
X67501747Y-162024402D01*
X67518223Y-162006223D01*
X67536402Y-161989747D01*
X67556107Y-161975133D01*
X67577151Y-161962520D01*
X67599329Y-161952030D01*
X67622429Y-161943765D01*
X67646227Y-161937804D01*
X67670496Y-161934204D01*
X67695000Y-161933000D01*
X68195000Y-161933000D01*
X68219504Y-161934204D01*
G37*
G04 #@! TD.AperFunction*
G04 #@! TA.AperFunction,ComponentPad*
G36*
X68219504Y-163204204D02*
G01*
X68243773Y-163207804D01*
X68267571Y-163213765D01*
X68290671Y-163222030D01*
X68312849Y-163232520D01*
X68333893Y-163245133D01*
X68353598Y-163259747D01*
X68371777Y-163276223D01*
X68388253Y-163294402D01*
X68402867Y-163314107D01*
X68415480Y-163335151D01*
X68425970Y-163357329D01*
X68434235Y-163380429D01*
X68440196Y-163404227D01*
X68443796Y-163428496D01*
X68445000Y-163453000D01*
X68445000Y-163953000D01*
X68443796Y-163977504D01*
X68440196Y-164001773D01*
X68434235Y-164025571D01*
X68425970Y-164048671D01*
X68415480Y-164070849D01*
X68402867Y-164091893D01*
X68388253Y-164111598D01*
X68371777Y-164129777D01*
X68353598Y-164146253D01*
X68333893Y-164160867D01*
X68312849Y-164173480D01*
X68290671Y-164183970D01*
X68267571Y-164192235D01*
X68243773Y-164198196D01*
X68219504Y-164201796D01*
X68195000Y-164203000D01*
X67695000Y-164203000D01*
X67670496Y-164201796D01*
X67646227Y-164198196D01*
X67622429Y-164192235D01*
X67599329Y-164183970D01*
X67577151Y-164173480D01*
X67556107Y-164160867D01*
X67536402Y-164146253D01*
X67518223Y-164129777D01*
X67501747Y-164111598D01*
X67487133Y-164091893D01*
X67474520Y-164070849D01*
X67464030Y-164048671D01*
X67455765Y-164025571D01*
X67449804Y-164001773D01*
X67446204Y-163977504D01*
X67445000Y-163953000D01*
X67445000Y-163453000D01*
X67446204Y-163428496D01*
X67449804Y-163404227D01*
X67455765Y-163380429D01*
X67464030Y-163357329D01*
X67474520Y-163335151D01*
X67487133Y-163314107D01*
X67501747Y-163294402D01*
X67518223Y-163276223D01*
X67536402Y-163259747D01*
X67556107Y-163245133D01*
X67577151Y-163232520D01*
X67599329Y-163222030D01*
X67622429Y-163213765D01*
X67646227Y-163207804D01*
X67670496Y-163204204D01*
X67695000Y-163203000D01*
X68195000Y-163203000D01*
X68219504Y-163204204D01*
G37*
G04 #@! TD.AperFunction*
G04 #@! TA.AperFunction,ComponentPad*
G36*
X68219504Y-164474204D02*
G01*
X68243773Y-164477804D01*
X68267571Y-164483765D01*
X68290671Y-164492030D01*
X68312849Y-164502520D01*
X68333893Y-164515133D01*
X68353598Y-164529747D01*
X68371777Y-164546223D01*
X68388253Y-164564402D01*
X68402867Y-164584107D01*
X68415480Y-164605151D01*
X68425970Y-164627329D01*
X68434235Y-164650429D01*
X68440196Y-164674227D01*
X68443796Y-164698496D01*
X68445000Y-164723000D01*
X68445000Y-165223000D01*
X68443796Y-165247504D01*
X68440196Y-165271773D01*
X68434235Y-165295571D01*
X68425970Y-165318671D01*
X68415480Y-165340849D01*
X68402867Y-165361893D01*
X68388253Y-165381598D01*
X68371777Y-165399777D01*
X68353598Y-165416253D01*
X68333893Y-165430867D01*
X68312849Y-165443480D01*
X68290671Y-165453970D01*
X68267571Y-165462235D01*
X68243773Y-165468196D01*
X68219504Y-165471796D01*
X68195000Y-165473000D01*
X67695000Y-165473000D01*
X67670496Y-165471796D01*
X67646227Y-165468196D01*
X67622429Y-165462235D01*
X67599329Y-165453970D01*
X67577151Y-165443480D01*
X67556107Y-165430867D01*
X67536402Y-165416253D01*
X67518223Y-165399777D01*
X67501747Y-165381598D01*
X67487133Y-165361893D01*
X67474520Y-165340849D01*
X67464030Y-165318671D01*
X67455765Y-165295571D01*
X67449804Y-165271773D01*
X67446204Y-165247504D01*
X67445000Y-165223000D01*
X67445000Y-164723000D01*
X67446204Y-164698496D01*
X67449804Y-164674227D01*
X67455765Y-164650429D01*
X67464030Y-164627329D01*
X67474520Y-164605151D01*
X67487133Y-164584107D01*
X67501747Y-164564402D01*
X67518223Y-164546223D01*
X67536402Y-164529747D01*
X67556107Y-164515133D01*
X67577151Y-164502520D01*
X67599329Y-164492030D01*
X67622429Y-164483765D01*
X67646227Y-164477804D01*
X67670496Y-164474204D01*
X67695000Y-164473000D01*
X68195000Y-164473000D01*
X68219504Y-164474204D01*
G37*
G04 #@! TD.AperFunction*
G04 #@! TA.AperFunction,ComponentPad*
G36*
X83180104Y-160664204D02*
G01*
X83204373Y-160667804D01*
X83228171Y-160673765D01*
X83251271Y-160682030D01*
X83273449Y-160692520D01*
X83294493Y-160705133D01*
X83314198Y-160719747D01*
X83332377Y-160736223D01*
X83348853Y-160754402D01*
X83363467Y-160774107D01*
X83376080Y-160795151D01*
X83386570Y-160817329D01*
X83394835Y-160840429D01*
X83400796Y-160864227D01*
X83404396Y-160888496D01*
X83405600Y-160913000D01*
X83405600Y-161413000D01*
X83404396Y-161437504D01*
X83400796Y-161461773D01*
X83394835Y-161485571D01*
X83386570Y-161508671D01*
X83376080Y-161530849D01*
X83363467Y-161551893D01*
X83348853Y-161571598D01*
X83332377Y-161589777D01*
X83314198Y-161606253D01*
X83294493Y-161620867D01*
X83273449Y-161633480D01*
X83251271Y-161643970D01*
X83228171Y-161652235D01*
X83204373Y-161658196D01*
X83180104Y-161661796D01*
X83155600Y-161663000D01*
X82655600Y-161663000D01*
X82631096Y-161661796D01*
X82606827Y-161658196D01*
X82583029Y-161652235D01*
X82559929Y-161643970D01*
X82537751Y-161633480D01*
X82516707Y-161620867D01*
X82497002Y-161606253D01*
X82478823Y-161589777D01*
X82462347Y-161571598D01*
X82447733Y-161551893D01*
X82435120Y-161530849D01*
X82424630Y-161508671D01*
X82416365Y-161485571D01*
X82410404Y-161461773D01*
X82406804Y-161437504D01*
X82405600Y-161413000D01*
X82405600Y-160913000D01*
X82406804Y-160888496D01*
X82410404Y-160864227D01*
X82416365Y-160840429D01*
X82424630Y-160817329D01*
X82435120Y-160795151D01*
X82447733Y-160774107D01*
X82462347Y-160754402D01*
X82478823Y-160736223D01*
X82497002Y-160719747D01*
X82516707Y-160705133D01*
X82537751Y-160692520D01*
X82559929Y-160682030D01*
X82583029Y-160673765D01*
X82606827Y-160667804D01*
X82631096Y-160664204D01*
X82655600Y-160663000D01*
X83155600Y-160663000D01*
X83180104Y-160664204D01*
G37*
G04 #@! TD.AperFunction*
G04 #@! TA.AperFunction,ComponentPad*
G36*
X83180104Y-161934204D02*
G01*
X83204373Y-161937804D01*
X83228171Y-161943765D01*
X83251271Y-161952030D01*
X83273449Y-161962520D01*
X83294493Y-161975133D01*
X83314198Y-161989747D01*
X83332377Y-162006223D01*
X83348853Y-162024402D01*
X83363467Y-162044107D01*
X83376080Y-162065151D01*
X83386570Y-162087329D01*
X83394835Y-162110429D01*
X83400796Y-162134227D01*
X83404396Y-162158496D01*
X83405600Y-162183000D01*
X83405600Y-162683000D01*
X83404396Y-162707504D01*
X83400796Y-162731773D01*
X83394835Y-162755571D01*
X83386570Y-162778671D01*
X83376080Y-162800849D01*
X83363467Y-162821893D01*
X83348853Y-162841598D01*
X83332377Y-162859777D01*
X83314198Y-162876253D01*
X83294493Y-162890867D01*
X83273449Y-162903480D01*
X83251271Y-162913970D01*
X83228171Y-162922235D01*
X83204373Y-162928196D01*
X83180104Y-162931796D01*
X83155600Y-162933000D01*
X82655600Y-162933000D01*
X82631096Y-162931796D01*
X82606827Y-162928196D01*
X82583029Y-162922235D01*
X82559929Y-162913970D01*
X82537751Y-162903480D01*
X82516707Y-162890867D01*
X82497002Y-162876253D01*
X82478823Y-162859777D01*
X82462347Y-162841598D01*
X82447733Y-162821893D01*
X82435120Y-162800849D01*
X82424630Y-162778671D01*
X82416365Y-162755571D01*
X82410404Y-162731773D01*
X82406804Y-162707504D01*
X82405600Y-162683000D01*
X82405600Y-162183000D01*
X82406804Y-162158496D01*
X82410404Y-162134227D01*
X82416365Y-162110429D01*
X82424630Y-162087329D01*
X82435120Y-162065151D01*
X82447733Y-162044107D01*
X82462347Y-162024402D01*
X82478823Y-162006223D01*
X82497002Y-161989747D01*
X82516707Y-161975133D01*
X82537751Y-161962520D01*
X82559929Y-161952030D01*
X82583029Y-161943765D01*
X82606827Y-161937804D01*
X82631096Y-161934204D01*
X82655600Y-161933000D01*
X83155600Y-161933000D01*
X83180104Y-161934204D01*
G37*
G04 #@! TD.AperFunction*
G04 #@! TA.AperFunction,ComponentPad*
G36*
X83180104Y-163204204D02*
G01*
X83204373Y-163207804D01*
X83228171Y-163213765D01*
X83251271Y-163222030D01*
X83273449Y-163232520D01*
X83294493Y-163245133D01*
X83314198Y-163259747D01*
X83332377Y-163276223D01*
X83348853Y-163294402D01*
X83363467Y-163314107D01*
X83376080Y-163335151D01*
X83386570Y-163357329D01*
X83394835Y-163380429D01*
X83400796Y-163404227D01*
X83404396Y-163428496D01*
X83405600Y-163453000D01*
X83405600Y-163953000D01*
X83404396Y-163977504D01*
X83400796Y-164001773D01*
X83394835Y-164025571D01*
X83386570Y-164048671D01*
X83376080Y-164070849D01*
X83363467Y-164091893D01*
X83348853Y-164111598D01*
X83332377Y-164129777D01*
X83314198Y-164146253D01*
X83294493Y-164160867D01*
X83273449Y-164173480D01*
X83251271Y-164183970D01*
X83228171Y-164192235D01*
X83204373Y-164198196D01*
X83180104Y-164201796D01*
X83155600Y-164203000D01*
X82655600Y-164203000D01*
X82631096Y-164201796D01*
X82606827Y-164198196D01*
X82583029Y-164192235D01*
X82559929Y-164183970D01*
X82537751Y-164173480D01*
X82516707Y-164160867D01*
X82497002Y-164146253D01*
X82478823Y-164129777D01*
X82462347Y-164111598D01*
X82447733Y-164091893D01*
X82435120Y-164070849D01*
X82424630Y-164048671D01*
X82416365Y-164025571D01*
X82410404Y-164001773D01*
X82406804Y-163977504D01*
X82405600Y-163953000D01*
X82405600Y-163453000D01*
X82406804Y-163428496D01*
X82410404Y-163404227D01*
X82416365Y-163380429D01*
X82424630Y-163357329D01*
X82435120Y-163335151D01*
X82447733Y-163314107D01*
X82462347Y-163294402D01*
X82478823Y-163276223D01*
X82497002Y-163259747D01*
X82516707Y-163245133D01*
X82537751Y-163232520D01*
X82559929Y-163222030D01*
X82583029Y-163213765D01*
X82606827Y-163207804D01*
X82631096Y-163204204D01*
X82655600Y-163203000D01*
X83155600Y-163203000D01*
X83180104Y-163204204D01*
G37*
G04 #@! TD.AperFunction*
G04 #@! TA.AperFunction,ComponentPad*
G36*
X83180104Y-164474204D02*
G01*
X83204373Y-164477804D01*
X83228171Y-164483765D01*
X83251271Y-164492030D01*
X83273449Y-164502520D01*
X83294493Y-164515133D01*
X83314198Y-164529747D01*
X83332377Y-164546223D01*
X83348853Y-164564402D01*
X83363467Y-164584107D01*
X83376080Y-164605151D01*
X83386570Y-164627329D01*
X83394835Y-164650429D01*
X83400796Y-164674227D01*
X83404396Y-164698496D01*
X83405600Y-164723000D01*
X83405600Y-165223000D01*
X83404396Y-165247504D01*
X83400796Y-165271773D01*
X83394835Y-165295571D01*
X83386570Y-165318671D01*
X83376080Y-165340849D01*
X83363467Y-165361893D01*
X83348853Y-165381598D01*
X83332377Y-165399777D01*
X83314198Y-165416253D01*
X83294493Y-165430867D01*
X83273449Y-165443480D01*
X83251271Y-165453970D01*
X83228171Y-165462235D01*
X83204373Y-165468196D01*
X83180104Y-165471796D01*
X83155600Y-165473000D01*
X82655600Y-165473000D01*
X82631096Y-165471796D01*
X82606827Y-165468196D01*
X82583029Y-165462235D01*
X82559929Y-165453970D01*
X82537751Y-165443480D01*
X82516707Y-165430867D01*
X82497002Y-165416253D01*
X82478823Y-165399777D01*
X82462347Y-165381598D01*
X82447733Y-165361893D01*
X82435120Y-165340849D01*
X82424630Y-165318671D01*
X82416365Y-165295571D01*
X82410404Y-165271773D01*
X82406804Y-165247504D01*
X82405600Y-165223000D01*
X82405600Y-164723000D01*
X82406804Y-164698496D01*
X82410404Y-164674227D01*
X82416365Y-164650429D01*
X82424630Y-164627329D01*
X82435120Y-164605151D01*
X82447733Y-164584107D01*
X82462347Y-164564402D01*
X82478823Y-164546223D01*
X82497002Y-164529747D01*
X82516707Y-164515133D01*
X82537751Y-164502520D01*
X82559929Y-164492030D01*
X82583029Y-164483765D01*
X82606827Y-164477804D01*
X82631096Y-164474204D01*
X82655600Y-164473000D01*
X83155600Y-164473000D01*
X83180104Y-164474204D01*
G37*
G04 #@! TD.AperFunction*
G04 #@! TA.AperFunction,ComponentPad*
G36*
X80919504Y-160283204D02*
G01*
X80943773Y-160286804D01*
X80967571Y-160292765D01*
X80990671Y-160301030D01*
X81012849Y-160311520D01*
X81033893Y-160324133D01*
X81053598Y-160338747D01*
X81071777Y-160355223D01*
X81088253Y-160373402D01*
X81102867Y-160393107D01*
X81115480Y-160414151D01*
X81125970Y-160436329D01*
X81134235Y-160459429D01*
X81140196Y-160483227D01*
X81143796Y-160507496D01*
X81145000Y-160532000D01*
X81145000Y-161032000D01*
X81143796Y-161056504D01*
X81140196Y-161080773D01*
X81134235Y-161104571D01*
X81125970Y-161127671D01*
X81115480Y-161149849D01*
X81102867Y-161170893D01*
X81088253Y-161190598D01*
X81071777Y-161208777D01*
X81053598Y-161225253D01*
X81033893Y-161239867D01*
X81012849Y-161252480D01*
X80990671Y-161262970D01*
X80967571Y-161271235D01*
X80943773Y-161277196D01*
X80919504Y-161280796D01*
X80895000Y-161282000D01*
X80395000Y-161282000D01*
X80370496Y-161280796D01*
X80346227Y-161277196D01*
X80322429Y-161271235D01*
X80299329Y-161262970D01*
X80277151Y-161252480D01*
X80256107Y-161239867D01*
X80236402Y-161225253D01*
X80218223Y-161208777D01*
X80201747Y-161190598D01*
X80187133Y-161170893D01*
X80174520Y-161149849D01*
X80164030Y-161127671D01*
X80155765Y-161104571D01*
X80149804Y-161080773D01*
X80146204Y-161056504D01*
X80145000Y-161032000D01*
X80145000Y-160532000D01*
X80146204Y-160507496D01*
X80149804Y-160483227D01*
X80155765Y-160459429D01*
X80164030Y-160436329D01*
X80174520Y-160414151D01*
X80187133Y-160393107D01*
X80201747Y-160373402D01*
X80218223Y-160355223D01*
X80236402Y-160338747D01*
X80256107Y-160324133D01*
X80277151Y-160311520D01*
X80299329Y-160301030D01*
X80322429Y-160292765D01*
X80346227Y-160286804D01*
X80370496Y-160283204D01*
X80395000Y-160282000D01*
X80895000Y-160282000D01*
X80919504Y-160283204D01*
G37*
G04 #@! TD.AperFunction*
G04 #@! TA.AperFunction,ComponentPad*
G36*
X79649504Y-160283204D02*
G01*
X79673773Y-160286804D01*
X79697571Y-160292765D01*
X79720671Y-160301030D01*
X79742849Y-160311520D01*
X79763893Y-160324133D01*
X79783598Y-160338747D01*
X79801777Y-160355223D01*
X79818253Y-160373402D01*
X79832867Y-160393107D01*
X79845480Y-160414151D01*
X79855970Y-160436329D01*
X79864235Y-160459429D01*
X79870196Y-160483227D01*
X79873796Y-160507496D01*
X79875000Y-160532000D01*
X79875000Y-161032000D01*
X79873796Y-161056504D01*
X79870196Y-161080773D01*
X79864235Y-161104571D01*
X79855970Y-161127671D01*
X79845480Y-161149849D01*
X79832867Y-161170893D01*
X79818253Y-161190598D01*
X79801777Y-161208777D01*
X79783598Y-161225253D01*
X79763893Y-161239867D01*
X79742849Y-161252480D01*
X79720671Y-161262970D01*
X79697571Y-161271235D01*
X79673773Y-161277196D01*
X79649504Y-161280796D01*
X79625000Y-161282000D01*
X79125000Y-161282000D01*
X79100496Y-161280796D01*
X79076227Y-161277196D01*
X79052429Y-161271235D01*
X79029329Y-161262970D01*
X79007151Y-161252480D01*
X78986107Y-161239867D01*
X78966402Y-161225253D01*
X78948223Y-161208777D01*
X78931747Y-161190598D01*
X78917133Y-161170893D01*
X78904520Y-161149849D01*
X78894030Y-161127671D01*
X78885765Y-161104571D01*
X78879804Y-161080773D01*
X78876204Y-161056504D01*
X78875000Y-161032000D01*
X78875000Y-160532000D01*
X78876204Y-160507496D01*
X78879804Y-160483227D01*
X78885765Y-160459429D01*
X78894030Y-160436329D01*
X78904520Y-160414151D01*
X78917133Y-160393107D01*
X78931747Y-160373402D01*
X78948223Y-160355223D01*
X78966402Y-160338747D01*
X78986107Y-160324133D01*
X79007151Y-160311520D01*
X79029329Y-160301030D01*
X79052429Y-160292765D01*
X79076227Y-160286804D01*
X79100496Y-160283204D01*
X79125000Y-160282000D01*
X79625000Y-160282000D01*
X79649504Y-160283204D01*
G37*
G04 #@! TD.AperFunction*
G04 #@! TA.AperFunction,ComponentPad*
G36*
X78379504Y-160283204D02*
G01*
X78403773Y-160286804D01*
X78427571Y-160292765D01*
X78450671Y-160301030D01*
X78472849Y-160311520D01*
X78493893Y-160324133D01*
X78513598Y-160338747D01*
X78531777Y-160355223D01*
X78548253Y-160373402D01*
X78562867Y-160393107D01*
X78575480Y-160414151D01*
X78585970Y-160436329D01*
X78594235Y-160459429D01*
X78600196Y-160483227D01*
X78603796Y-160507496D01*
X78605000Y-160532000D01*
X78605000Y-161032000D01*
X78603796Y-161056504D01*
X78600196Y-161080773D01*
X78594235Y-161104571D01*
X78585970Y-161127671D01*
X78575480Y-161149849D01*
X78562867Y-161170893D01*
X78548253Y-161190598D01*
X78531777Y-161208777D01*
X78513598Y-161225253D01*
X78493893Y-161239867D01*
X78472849Y-161252480D01*
X78450671Y-161262970D01*
X78427571Y-161271235D01*
X78403773Y-161277196D01*
X78379504Y-161280796D01*
X78355000Y-161282000D01*
X77855000Y-161282000D01*
X77830496Y-161280796D01*
X77806227Y-161277196D01*
X77782429Y-161271235D01*
X77759329Y-161262970D01*
X77737151Y-161252480D01*
X77716107Y-161239867D01*
X77696402Y-161225253D01*
X77678223Y-161208777D01*
X77661747Y-161190598D01*
X77647133Y-161170893D01*
X77634520Y-161149849D01*
X77624030Y-161127671D01*
X77615765Y-161104571D01*
X77609804Y-161080773D01*
X77606204Y-161056504D01*
X77605000Y-161032000D01*
X77605000Y-160532000D01*
X77606204Y-160507496D01*
X77609804Y-160483227D01*
X77615765Y-160459429D01*
X77624030Y-160436329D01*
X77634520Y-160414151D01*
X77647133Y-160393107D01*
X77661747Y-160373402D01*
X77678223Y-160355223D01*
X77696402Y-160338747D01*
X77716107Y-160324133D01*
X77737151Y-160311520D01*
X77759329Y-160301030D01*
X77782429Y-160292765D01*
X77806227Y-160286804D01*
X77830496Y-160283204D01*
X77855000Y-160282000D01*
X78355000Y-160282000D01*
X78379504Y-160283204D01*
G37*
G04 #@! TD.AperFunction*
G04 #@! TA.AperFunction,ComponentPad*
G36*
X77109504Y-160283204D02*
G01*
X77133773Y-160286804D01*
X77157571Y-160292765D01*
X77180671Y-160301030D01*
X77202849Y-160311520D01*
X77223893Y-160324133D01*
X77243598Y-160338747D01*
X77261777Y-160355223D01*
X77278253Y-160373402D01*
X77292867Y-160393107D01*
X77305480Y-160414151D01*
X77315970Y-160436329D01*
X77324235Y-160459429D01*
X77330196Y-160483227D01*
X77333796Y-160507496D01*
X77335000Y-160532000D01*
X77335000Y-161032000D01*
X77333796Y-161056504D01*
X77330196Y-161080773D01*
X77324235Y-161104571D01*
X77315970Y-161127671D01*
X77305480Y-161149849D01*
X77292867Y-161170893D01*
X77278253Y-161190598D01*
X77261777Y-161208777D01*
X77243598Y-161225253D01*
X77223893Y-161239867D01*
X77202849Y-161252480D01*
X77180671Y-161262970D01*
X77157571Y-161271235D01*
X77133773Y-161277196D01*
X77109504Y-161280796D01*
X77085000Y-161282000D01*
X76585000Y-161282000D01*
X76560496Y-161280796D01*
X76536227Y-161277196D01*
X76512429Y-161271235D01*
X76489329Y-161262970D01*
X76467151Y-161252480D01*
X76446107Y-161239867D01*
X76426402Y-161225253D01*
X76408223Y-161208777D01*
X76391747Y-161190598D01*
X76377133Y-161170893D01*
X76364520Y-161149849D01*
X76354030Y-161127671D01*
X76345765Y-161104571D01*
X76339804Y-161080773D01*
X76336204Y-161056504D01*
X76335000Y-161032000D01*
X76335000Y-160532000D01*
X76336204Y-160507496D01*
X76339804Y-160483227D01*
X76345765Y-160459429D01*
X76354030Y-160436329D01*
X76364520Y-160414151D01*
X76377133Y-160393107D01*
X76391747Y-160373402D01*
X76408223Y-160355223D01*
X76426402Y-160338747D01*
X76446107Y-160324133D01*
X76467151Y-160311520D01*
X76489329Y-160301030D01*
X76512429Y-160292765D01*
X76536227Y-160286804D01*
X76560496Y-160283204D01*
X76585000Y-160282000D01*
X77085000Y-160282000D01*
X77109504Y-160283204D01*
G37*
G04 #@! TD.AperFunction*
G04 #@! TA.AperFunction,ComponentPad*
G36*
X80919504Y-176259804D02*
G01*
X80943773Y-176263404D01*
X80967571Y-176269365D01*
X80990671Y-176277630D01*
X81012849Y-176288120D01*
X81033893Y-176300733D01*
X81053598Y-176315347D01*
X81071777Y-176331823D01*
X81088253Y-176350002D01*
X81102867Y-176369707D01*
X81115480Y-176390751D01*
X81125970Y-176412929D01*
X81134235Y-176436029D01*
X81140196Y-176459827D01*
X81143796Y-176484096D01*
X81145000Y-176508600D01*
X81145000Y-177008600D01*
X81143796Y-177033104D01*
X81140196Y-177057373D01*
X81134235Y-177081171D01*
X81125970Y-177104271D01*
X81115480Y-177126449D01*
X81102867Y-177147493D01*
X81088253Y-177167198D01*
X81071777Y-177185377D01*
X81053598Y-177201853D01*
X81033893Y-177216467D01*
X81012849Y-177229080D01*
X80990671Y-177239570D01*
X80967571Y-177247835D01*
X80943773Y-177253796D01*
X80919504Y-177257396D01*
X80895000Y-177258600D01*
X80395000Y-177258600D01*
X80370496Y-177257396D01*
X80346227Y-177253796D01*
X80322429Y-177247835D01*
X80299329Y-177239570D01*
X80277151Y-177229080D01*
X80256107Y-177216467D01*
X80236402Y-177201853D01*
X80218223Y-177185377D01*
X80201747Y-177167198D01*
X80187133Y-177147493D01*
X80174520Y-177126449D01*
X80164030Y-177104271D01*
X80155765Y-177081171D01*
X80149804Y-177057373D01*
X80146204Y-177033104D01*
X80145000Y-177008600D01*
X80145000Y-176508600D01*
X80146204Y-176484096D01*
X80149804Y-176459827D01*
X80155765Y-176436029D01*
X80164030Y-176412929D01*
X80174520Y-176390751D01*
X80187133Y-176369707D01*
X80201747Y-176350002D01*
X80218223Y-176331823D01*
X80236402Y-176315347D01*
X80256107Y-176300733D01*
X80277151Y-176288120D01*
X80299329Y-176277630D01*
X80322429Y-176269365D01*
X80346227Y-176263404D01*
X80370496Y-176259804D01*
X80395000Y-176258600D01*
X80895000Y-176258600D01*
X80919504Y-176259804D01*
G37*
G04 #@! TD.AperFunction*
G04 #@! TA.AperFunction,ComponentPad*
G36*
X79649504Y-176259804D02*
G01*
X79673773Y-176263404D01*
X79697571Y-176269365D01*
X79720671Y-176277630D01*
X79742849Y-176288120D01*
X79763893Y-176300733D01*
X79783598Y-176315347D01*
X79801777Y-176331823D01*
X79818253Y-176350002D01*
X79832867Y-176369707D01*
X79845480Y-176390751D01*
X79855970Y-176412929D01*
X79864235Y-176436029D01*
X79870196Y-176459827D01*
X79873796Y-176484096D01*
X79875000Y-176508600D01*
X79875000Y-177008600D01*
X79873796Y-177033104D01*
X79870196Y-177057373D01*
X79864235Y-177081171D01*
X79855970Y-177104271D01*
X79845480Y-177126449D01*
X79832867Y-177147493D01*
X79818253Y-177167198D01*
X79801777Y-177185377D01*
X79783598Y-177201853D01*
X79763893Y-177216467D01*
X79742849Y-177229080D01*
X79720671Y-177239570D01*
X79697571Y-177247835D01*
X79673773Y-177253796D01*
X79649504Y-177257396D01*
X79625000Y-177258600D01*
X79125000Y-177258600D01*
X79100496Y-177257396D01*
X79076227Y-177253796D01*
X79052429Y-177247835D01*
X79029329Y-177239570D01*
X79007151Y-177229080D01*
X78986107Y-177216467D01*
X78966402Y-177201853D01*
X78948223Y-177185377D01*
X78931747Y-177167198D01*
X78917133Y-177147493D01*
X78904520Y-177126449D01*
X78894030Y-177104271D01*
X78885765Y-177081171D01*
X78879804Y-177057373D01*
X78876204Y-177033104D01*
X78875000Y-177008600D01*
X78875000Y-176508600D01*
X78876204Y-176484096D01*
X78879804Y-176459827D01*
X78885765Y-176436029D01*
X78894030Y-176412929D01*
X78904520Y-176390751D01*
X78917133Y-176369707D01*
X78931747Y-176350002D01*
X78948223Y-176331823D01*
X78966402Y-176315347D01*
X78986107Y-176300733D01*
X79007151Y-176288120D01*
X79029329Y-176277630D01*
X79052429Y-176269365D01*
X79076227Y-176263404D01*
X79100496Y-176259804D01*
X79125000Y-176258600D01*
X79625000Y-176258600D01*
X79649504Y-176259804D01*
G37*
G04 #@! TD.AperFunction*
G04 #@! TA.AperFunction,ComponentPad*
G36*
X78379504Y-176259804D02*
G01*
X78403773Y-176263404D01*
X78427571Y-176269365D01*
X78450671Y-176277630D01*
X78472849Y-176288120D01*
X78493893Y-176300733D01*
X78513598Y-176315347D01*
X78531777Y-176331823D01*
X78548253Y-176350002D01*
X78562867Y-176369707D01*
X78575480Y-176390751D01*
X78585970Y-176412929D01*
X78594235Y-176436029D01*
X78600196Y-176459827D01*
X78603796Y-176484096D01*
X78605000Y-176508600D01*
X78605000Y-177008600D01*
X78603796Y-177033104D01*
X78600196Y-177057373D01*
X78594235Y-177081171D01*
X78585970Y-177104271D01*
X78575480Y-177126449D01*
X78562867Y-177147493D01*
X78548253Y-177167198D01*
X78531777Y-177185377D01*
X78513598Y-177201853D01*
X78493893Y-177216467D01*
X78472849Y-177229080D01*
X78450671Y-177239570D01*
X78427571Y-177247835D01*
X78403773Y-177253796D01*
X78379504Y-177257396D01*
X78355000Y-177258600D01*
X77855000Y-177258600D01*
X77830496Y-177257396D01*
X77806227Y-177253796D01*
X77782429Y-177247835D01*
X77759329Y-177239570D01*
X77737151Y-177229080D01*
X77716107Y-177216467D01*
X77696402Y-177201853D01*
X77678223Y-177185377D01*
X77661747Y-177167198D01*
X77647133Y-177147493D01*
X77634520Y-177126449D01*
X77624030Y-177104271D01*
X77615765Y-177081171D01*
X77609804Y-177057373D01*
X77606204Y-177033104D01*
X77605000Y-177008600D01*
X77605000Y-176508600D01*
X77606204Y-176484096D01*
X77609804Y-176459827D01*
X77615765Y-176436029D01*
X77624030Y-176412929D01*
X77634520Y-176390751D01*
X77647133Y-176369707D01*
X77661747Y-176350002D01*
X77678223Y-176331823D01*
X77696402Y-176315347D01*
X77716107Y-176300733D01*
X77737151Y-176288120D01*
X77759329Y-176277630D01*
X77782429Y-176269365D01*
X77806227Y-176263404D01*
X77830496Y-176259804D01*
X77855000Y-176258600D01*
X78355000Y-176258600D01*
X78379504Y-176259804D01*
G37*
G04 #@! TD.AperFunction*
G04 #@! TA.AperFunction,ComponentPad*
G36*
X77109504Y-176259804D02*
G01*
X77133773Y-176263404D01*
X77157571Y-176269365D01*
X77180671Y-176277630D01*
X77202849Y-176288120D01*
X77223893Y-176300733D01*
X77243598Y-176315347D01*
X77261777Y-176331823D01*
X77278253Y-176350002D01*
X77292867Y-176369707D01*
X77305480Y-176390751D01*
X77315970Y-176412929D01*
X77324235Y-176436029D01*
X77330196Y-176459827D01*
X77333796Y-176484096D01*
X77335000Y-176508600D01*
X77335000Y-177008600D01*
X77333796Y-177033104D01*
X77330196Y-177057373D01*
X77324235Y-177081171D01*
X77315970Y-177104271D01*
X77305480Y-177126449D01*
X77292867Y-177147493D01*
X77278253Y-177167198D01*
X77261777Y-177185377D01*
X77243598Y-177201853D01*
X77223893Y-177216467D01*
X77202849Y-177229080D01*
X77180671Y-177239570D01*
X77157571Y-177247835D01*
X77133773Y-177253796D01*
X77109504Y-177257396D01*
X77085000Y-177258600D01*
X76585000Y-177258600D01*
X76560496Y-177257396D01*
X76536227Y-177253796D01*
X76512429Y-177247835D01*
X76489329Y-177239570D01*
X76467151Y-177229080D01*
X76446107Y-177216467D01*
X76426402Y-177201853D01*
X76408223Y-177185377D01*
X76391747Y-177167198D01*
X76377133Y-177147493D01*
X76364520Y-177126449D01*
X76354030Y-177104271D01*
X76345765Y-177081171D01*
X76339804Y-177057373D01*
X76336204Y-177033104D01*
X76335000Y-177008600D01*
X76335000Y-176508600D01*
X76336204Y-176484096D01*
X76339804Y-176459827D01*
X76345765Y-176436029D01*
X76354030Y-176412929D01*
X76364520Y-176390751D01*
X76377133Y-176369707D01*
X76391747Y-176350002D01*
X76408223Y-176331823D01*
X76426402Y-176315347D01*
X76446107Y-176300733D01*
X76467151Y-176288120D01*
X76489329Y-176277630D01*
X76512429Y-176269365D01*
X76536227Y-176263404D01*
X76560496Y-176259804D01*
X76585000Y-176258600D01*
X77085000Y-176258600D01*
X77109504Y-176259804D01*
G37*
G04 #@! TD.AperFunction*
G04 #@! TA.AperFunction,ComponentPad*
G36*
X71953304Y-160283204D02*
G01*
X71977573Y-160286804D01*
X72001371Y-160292765D01*
X72024471Y-160301030D01*
X72046649Y-160311520D01*
X72067693Y-160324133D01*
X72087398Y-160338747D01*
X72105577Y-160355223D01*
X72122053Y-160373402D01*
X72136667Y-160393107D01*
X72149280Y-160414151D01*
X72159770Y-160436329D01*
X72168035Y-160459429D01*
X72173996Y-160483227D01*
X72177596Y-160507496D01*
X72178800Y-160532000D01*
X72178800Y-161032000D01*
X72177596Y-161056504D01*
X72173996Y-161080773D01*
X72168035Y-161104571D01*
X72159770Y-161127671D01*
X72149280Y-161149849D01*
X72136667Y-161170893D01*
X72122053Y-161190598D01*
X72105577Y-161208777D01*
X72087398Y-161225253D01*
X72067693Y-161239867D01*
X72046649Y-161252480D01*
X72024471Y-161262970D01*
X72001371Y-161271235D01*
X71977573Y-161277196D01*
X71953304Y-161280796D01*
X71928800Y-161282000D01*
X71428800Y-161282000D01*
X71404296Y-161280796D01*
X71380027Y-161277196D01*
X71356229Y-161271235D01*
X71333129Y-161262970D01*
X71310951Y-161252480D01*
X71289907Y-161239867D01*
X71270202Y-161225253D01*
X71252023Y-161208777D01*
X71235547Y-161190598D01*
X71220933Y-161170893D01*
X71208320Y-161149849D01*
X71197830Y-161127671D01*
X71189565Y-161104571D01*
X71183604Y-161080773D01*
X71180004Y-161056504D01*
X71178800Y-161032000D01*
X71178800Y-160532000D01*
X71180004Y-160507496D01*
X71183604Y-160483227D01*
X71189565Y-160459429D01*
X71197830Y-160436329D01*
X71208320Y-160414151D01*
X71220933Y-160393107D01*
X71235547Y-160373402D01*
X71252023Y-160355223D01*
X71270202Y-160338747D01*
X71289907Y-160324133D01*
X71310951Y-160311520D01*
X71333129Y-160301030D01*
X71356229Y-160292765D01*
X71380027Y-160286804D01*
X71404296Y-160283204D01*
X71428800Y-160282000D01*
X71928800Y-160282000D01*
X71953304Y-160283204D01*
G37*
G04 #@! TD.AperFunction*
G04 #@! TA.AperFunction,ComponentPad*
G36*
X71953304Y-176259804D02*
G01*
X71977573Y-176263404D01*
X72001371Y-176269365D01*
X72024471Y-176277630D01*
X72046649Y-176288120D01*
X72067693Y-176300733D01*
X72087398Y-176315347D01*
X72105577Y-176331823D01*
X72122053Y-176350002D01*
X72136667Y-176369707D01*
X72149280Y-176390751D01*
X72159770Y-176412929D01*
X72168035Y-176436029D01*
X72173996Y-176459827D01*
X72177596Y-176484096D01*
X72178800Y-176508600D01*
X72178800Y-177008600D01*
X72177596Y-177033104D01*
X72173996Y-177057373D01*
X72168035Y-177081171D01*
X72159770Y-177104271D01*
X72149280Y-177126449D01*
X72136667Y-177147493D01*
X72122053Y-177167198D01*
X72105577Y-177185377D01*
X72087398Y-177201853D01*
X72067693Y-177216467D01*
X72046649Y-177229080D01*
X72024471Y-177239570D01*
X72001371Y-177247835D01*
X71977573Y-177253796D01*
X71953304Y-177257396D01*
X71928800Y-177258600D01*
X71428800Y-177258600D01*
X71404296Y-177257396D01*
X71380027Y-177253796D01*
X71356229Y-177247835D01*
X71333129Y-177239570D01*
X71310951Y-177229080D01*
X71289907Y-177216467D01*
X71270202Y-177201853D01*
X71252023Y-177185377D01*
X71235547Y-177167198D01*
X71220933Y-177147493D01*
X71208320Y-177126449D01*
X71197830Y-177104271D01*
X71189565Y-177081171D01*
X71183604Y-177057373D01*
X71180004Y-177033104D01*
X71178800Y-177008600D01*
X71178800Y-176508600D01*
X71180004Y-176484096D01*
X71183604Y-176459827D01*
X71189565Y-176436029D01*
X71197830Y-176412929D01*
X71208320Y-176390751D01*
X71220933Y-176369707D01*
X71235547Y-176350002D01*
X71252023Y-176331823D01*
X71270202Y-176315347D01*
X71289907Y-176300733D01*
X71310951Y-176288120D01*
X71333129Y-176277630D01*
X71356229Y-176269365D01*
X71380027Y-176263404D01*
X71404296Y-176259804D01*
X71428800Y-176258600D01*
X71928800Y-176258600D01*
X71953304Y-176259804D01*
G37*
G04 #@! TD.AperFunction*
D13*
X77038200Y-166344600D03*
X73837800Y-166344600D03*
D14*
X79006700Y-162890200D03*
D13*
X71653400Y-162839400D03*
X78397100Y-168846500D03*
X82575400Y-166903400D03*
X84201000Y-165684200D03*
X81254600Y-174244000D03*
X75158600Y-175285400D03*
X72009000Y-171018200D03*
X70383400Y-176403000D03*
X67056000Y-166331900D03*
X73126600Y-160807400D03*
X78816200Y-163969700D03*
X76669900Y-171297600D03*
D14*
X80149700Y-165011100D03*
X69926200Y-164147500D03*
D13*
X66675000Y-171526200D03*
X70116700Y-170408600D03*
D14*
X77647800Y-173888400D03*
X79146400Y-167767000D03*
X80645000Y-163804600D03*
X75247500Y-173634400D03*
X71678800Y-165989000D03*
D15*
X76377800Y-166344600D02*
X77038200Y-166344600D01*
X76276200Y-166243000D02*
X76377800Y-166344600D01*
X74568017Y-166243000D02*
X76276200Y-166243000D01*
X73837800Y-166344600D02*
X74466417Y-166344600D01*
X74466417Y-166344600D02*
X74568017Y-166243000D01*
X77851000Y-166344600D02*
X77038200Y-166344600D01*
X79882999Y-163766499D02*
X79882999Y-164150039D01*
X79374999Y-164820601D02*
X77851000Y-166344600D01*
X79006700Y-162890200D02*
X79882999Y-163766499D01*
X79374999Y-164658039D02*
X79374999Y-164820601D01*
X79882999Y-164150039D02*
X79374999Y-164658039D01*
D16*
X82405600Y-162433000D02*
X82905600Y-162433000D01*
X81559400Y-163279200D02*
X82405600Y-162433000D01*
X81559400Y-163403278D02*
X81559400Y-163279200D01*
X79375000Y-161218878D02*
X79375000Y-160782000D01*
X81559400Y-163403278D02*
X79375000Y-161218878D01*
X68864101Y-162852101D02*
X68445000Y-162433000D01*
X68445000Y-162433000D02*
X67945000Y-162433000D01*
X70866001Y-162852101D02*
X68864101Y-162852101D01*
X70878702Y-162839400D02*
X70866001Y-162852101D01*
X71653400Y-162839400D02*
X70878702Y-162839400D01*
X71653400Y-162839400D02*
X71653400Y-164673278D01*
X72885299Y-169800475D02*
X73868812Y-170783988D01*
X72567801Y-168145880D02*
X72885299Y-168463378D01*
X72885299Y-168463378D02*
X72885299Y-169800475D01*
X72567801Y-165587679D02*
X72567801Y-168145880D01*
X71653400Y-164673278D02*
X72567801Y-165587679D01*
X81559400Y-167687558D02*
X81876001Y-168004159D01*
X81559400Y-163403278D02*
X81559400Y-167687558D01*
X81876001Y-168004159D02*
X81876001Y-171613841D01*
X81876001Y-171613841D02*
X80235841Y-173254001D01*
X79375000Y-173316900D02*
X79375000Y-176758600D01*
X79312101Y-173254001D02*
X79375000Y-173316900D01*
X80235841Y-173254001D02*
X79312101Y-173254001D01*
X73868812Y-170783989D02*
X73868812Y-170783988D01*
X73868812Y-170783988D02*
X75284112Y-172199289D01*
X78329123Y-173254001D02*
X79312101Y-173254001D01*
X75284112Y-172199289D02*
X75955028Y-172199289D01*
X78329123Y-173229001D02*
X78329123Y-173254001D01*
X76120140Y-172364401D02*
X77464523Y-172364401D01*
X75955028Y-172199289D02*
X76120140Y-172364401D01*
X77464523Y-172364401D02*
X78329123Y-173229001D01*
D15*
X80645000Y-160782000D02*
X80645000Y-161569400D01*
X80645000Y-161569400D02*
X81000600Y-161925000D01*
D16*
X80645000Y-176758600D02*
X80645000Y-176403000D01*
X80895849Y-176403000D02*
X81635600Y-176403000D01*
D15*
X67945000Y-164973000D02*
X68496882Y-164973000D01*
X68496882Y-164973000D02*
X72250289Y-168726407D01*
X72250289Y-168726407D02*
X72250289Y-170063504D01*
X72250289Y-170063504D02*
X75021084Y-172834299D01*
X77502634Y-173888400D02*
X77647800Y-173888400D01*
X76740624Y-173126390D02*
X77502634Y-173888400D01*
X75984090Y-173126390D02*
X76740624Y-173126390D01*
X75021084Y-172834299D02*
X75691999Y-172834299D01*
X75691999Y-172834299D02*
X75984090Y-173126390D01*
X78510362Y-161315400D02*
X78105000Y-161315400D01*
X80645000Y-163804600D02*
X80645000Y-163450038D01*
X78105000Y-161315400D02*
X78105000Y-160782000D01*
X80645000Y-163450038D02*
X78510362Y-161315400D01*
X80924390Y-164083990D02*
X80645000Y-163804600D01*
X80683099Y-167373301D02*
X80924390Y-167132010D01*
X80924390Y-167132010D02*
X80924390Y-164083990D01*
X79540099Y-167373301D02*
X80683099Y-167373301D01*
X79146400Y-167767000D02*
X79540099Y-167373301D01*
X78105000Y-176606200D02*
X78105000Y-176758600D01*
X68826010Y-164084010D02*
X68826010Y-164583694D01*
X67945000Y-163703000D02*
X68445000Y-163703000D01*
X68445000Y-163703000D02*
X68826010Y-164084010D01*
X70739315Y-166496999D02*
X68826010Y-164583694D01*
X71196201Y-166496999D02*
X70739315Y-166496999D01*
X71678800Y-166014400D02*
X71196201Y-166496999D01*
X76885799Y-173989999D02*
X76530200Y-173634400D01*
X76885799Y-174254161D02*
X76885799Y-173989999D01*
X78105000Y-176758600D02*
X78105000Y-175473362D01*
X76530200Y-173634400D02*
X75247500Y-173634400D01*
X78105000Y-175473362D02*
X76885799Y-174254161D01*
D17*
G36*
X83719859Y-164218088D02*
G01*
X83722549Y-164220313D01*
X83818588Y-164298640D01*
X83837445Y-164311169D01*
X83856157Y-164323982D01*
X83859223Y-164325639D01*
X83859227Y-164325642D01*
X83859231Y-164325644D01*
X83968651Y-164383823D01*
X83989556Y-164392440D01*
X84010427Y-164401385D01*
X84013762Y-164402417D01*
X84132402Y-164438237D01*
X84154643Y-164442641D01*
X84176794Y-164447349D01*
X84180264Y-164447714D01*
X84180266Y-164447714D01*
X84303605Y-164459807D01*
X84402547Y-164469508D01*
X84474257Y-164491159D01*
X84540391Y-164526323D01*
X84598436Y-164573663D01*
X84646187Y-164631384D01*
X84681811Y-164697269D01*
X84703963Y-164768829D01*
X84713001Y-164854819D01*
X84713000Y-167160609D01*
X84671085Y-167165311D01*
X84648906Y-167170025D01*
X84626695Y-167174423D01*
X84623362Y-167175454D01*
X84623356Y-167175456D01*
X84387102Y-167250400D01*
X84366276Y-167259326D01*
X84345326Y-167267961D01*
X84342256Y-167269621D01*
X84125053Y-167389029D01*
X84106361Y-167401828D01*
X84087485Y-167414369D01*
X84084795Y-167416595D01*
X83894923Y-167575917D01*
X83879083Y-167592092D01*
X83862992Y-167608071D01*
X83860786Y-167610776D01*
X83705475Y-167803944D01*
X83693089Y-167822872D01*
X83680396Y-167841689D01*
X83678761Y-167844767D01*
X83678758Y-167844771D01*
X83678758Y-167844772D01*
X83563926Y-168064427D01*
X83555462Y-168085376D01*
X83546657Y-168106321D01*
X83545649Y-168109664D01*
X83475667Y-168347440D01*
X83471429Y-168369655D01*
X83466864Y-168391894D01*
X83466524Y-168395368D01*
X83444060Y-168642208D01*
X83444218Y-168664827D01*
X83444059Y-168687523D01*
X83444400Y-168690998D01*
X83470308Y-168937501D01*
X83474866Y-168959703D01*
X83479110Y-168981955D01*
X83480118Y-168985289D01*
X83480119Y-168985296D01*
X83480122Y-168985302D01*
X83553415Y-169222073D01*
X83562182Y-169242929D01*
X83570682Y-169263968D01*
X83572320Y-169267047D01*
X83572322Y-169267052D01*
X83572325Y-169267056D01*
X83690210Y-169485081D01*
X83702877Y-169503861D01*
X83715287Y-169522826D01*
X83717488Y-169525524D01*
X83717493Y-169525531D01*
X83717499Y-169525537D01*
X83875487Y-169716511D01*
X83891559Y-169732471D01*
X83907418Y-169748666D01*
X83910102Y-169750886D01*
X83910108Y-169750892D01*
X83910115Y-169750896D01*
X84102185Y-169907546D01*
X84121053Y-169920082D01*
X84139754Y-169932887D01*
X84142821Y-169934544D01*
X84142825Y-169934547D01*
X84142829Y-169934549D01*
X84361673Y-170050910D01*
X84382611Y-170059540D01*
X84403447Y-170068471D01*
X84406782Y-170069503D01*
X84644063Y-170141143D01*
X84666289Y-170145544D01*
X84688454Y-170150255D01*
X84691926Y-170150620D01*
X84713000Y-170152686D01*
X84713001Y-172453763D01*
X84704492Y-172540547D01*
X84682842Y-172612255D01*
X84647677Y-172678391D01*
X84600332Y-172736441D01*
X84542616Y-172784187D01*
X84476731Y-172819811D01*
X84405170Y-172841963D01*
X84308739Y-172852099D01*
X84300908Y-172852044D01*
X84297433Y-172852385D01*
X84174182Y-172865340D01*
X84152009Y-172869891D01*
X84129731Y-172874141D01*
X84126389Y-172875150D01*
X84008001Y-172911797D01*
X83987150Y-172920562D01*
X83966104Y-172929065D01*
X83963022Y-172930705D01*
X83854007Y-172989649D01*
X83835227Y-173002316D01*
X83816262Y-173014726D01*
X83813564Y-173016927D01*
X83813557Y-173016932D01*
X83813551Y-173016938D01*
X83718067Y-173095928D01*
X83702123Y-173111984D01*
X83685912Y-173127859D01*
X83683687Y-173130549D01*
X83605359Y-173226588D01*
X83592823Y-173245456D01*
X83580018Y-173264157D01*
X83578358Y-173267228D01*
X83520176Y-173376652D01*
X83511547Y-173397588D01*
X83502615Y-173418427D01*
X83501583Y-173421762D01*
X83465763Y-173540403D01*
X83461364Y-173562620D01*
X83456651Y-173584795D01*
X83456286Y-173588267D01*
X83444193Y-173711605D01*
X83444193Y-173711623D01*
X83443001Y-173723725D01*
X83443000Y-176263773D01*
X83434492Y-176350547D01*
X83412842Y-176422255D01*
X83377677Y-176488391D01*
X83330332Y-176546441D01*
X83272616Y-176594187D01*
X83206731Y-176629811D01*
X83135170Y-176651963D01*
X83049190Y-176661000D01*
X81775725Y-176661000D01*
X81764847Y-176662071D01*
X81760908Y-176662044D01*
X81757433Y-176662385D01*
X81745000Y-176663692D01*
X81745000Y-176608598D01*
X81595002Y-176608598D01*
X81745000Y-176458600D01*
X81747903Y-176258600D01*
X81736318Y-176140979D01*
X81702010Y-176027879D01*
X81646296Y-175923645D01*
X81571317Y-175832283D01*
X81479955Y-175757304D01*
X81375721Y-175701590D01*
X81262621Y-175667282D01*
X81145000Y-175655697D01*
X80945000Y-175658600D01*
X80795000Y-175808600D01*
X80795000Y-176608600D01*
X80815000Y-176608600D01*
X80815000Y-176908600D01*
X80795000Y-176908600D01*
X80795000Y-177708600D01*
X80840146Y-177753746D01*
X80837677Y-177758391D01*
X80790332Y-177816441D01*
X80732616Y-177864187D01*
X80666731Y-177899811D01*
X80595170Y-177921963D01*
X80509190Y-177931000D01*
X75910391Y-177931000D01*
X75905689Y-177889085D01*
X75900975Y-177866906D01*
X75896577Y-177844695D01*
X75895545Y-177841360D01*
X75820600Y-177605102D01*
X75811674Y-177584276D01*
X75803039Y-177563326D01*
X75801379Y-177560256D01*
X75681971Y-177343053D01*
X75669172Y-177324361D01*
X75656631Y-177305485D01*
X75654405Y-177302795D01*
X75495083Y-177112923D01*
X75478908Y-177097083D01*
X75462929Y-177080992D01*
X75460224Y-177078786D01*
X75267056Y-176923475D01*
X75248128Y-176911089D01*
X75229311Y-176898396D01*
X75226233Y-176896761D01*
X75226229Y-176896758D01*
X75226225Y-176896756D01*
X75006573Y-176781926D01*
X74985624Y-176773462D01*
X74964679Y-176764657D01*
X74961336Y-176763649D01*
X74961334Y-176763648D01*
X74961330Y-176763647D01*
X74723560Y-176693667D01*
X74701345Y-176689429D01*
X74679106Y-176684864D01*
X74675634Y-176684524D01*
X74675632Y-176684524D01*
X74428792Y-176662060D01*
X74406173Y-176662218D01*
X74383477Y-176662059D01*
X74380003Y-176662400D01*
X74379999Y-176662400D01*
X74133499Y-176688308D01*
X74111290Y-176692867D01*
X74089046Y-176697110D01*
X74085714Y-176698117D01*
X74085704Y-176698119D01*
X74085695Y-176698123D01*
X73848927Y-176771415D01*
X73828085Y-176780176D01*
X73807031Y-176788682D01*
X73803953Y-176790320D01*
X73803948Y-176790322D01*
X73803944Y-176790325D01*
X73585919Y-176908210D01*
X73567155Y-176920866D01*
X73548174Y-176933287D01*
X73545476Y-176935488D01*
X73545469Y-176935493D01*
X73545463Y-176935499D01*
X73354489Y-177093487D01*
X73338512Y-177109576D01*
X73322334Y-177125418D01*
X73320114Y-177128102D01*
X73320108Y-177128108D01*
X73320104Y-177128115D01*
X73163454Y-177320186D01*
X73150923Y-177339046D01*
X73138113Y-177357755D01*
X73136456Y-177360821D01*
X73136453Y-177360825D01*
X73136453Y-177360826D01*
X73020090Y-177579674D01*
X73011471Y-177600586D01*
X73002529Y-177621447D01*
X73001497Y-177624782D01*
X72929857Y-177862063D01*
X72925458Y-177884280D01*
X72920745Y-177906454D01*
X72920380Y-177909926D01*
X72918314Y-177931000D01*
X70370226Y-177931000D01*
X70283453Y-177922492D01*
X70211745Y-177900842D01*
X70145609Y-177865677D01*
X70087559Y-177818332D01*
X70039813Y-177760616D01*
X70004189Y-177694731D01*
X69982037Y-177623170D01*
X69971901Y-177526739D01*
X69971956Y-177518908D01*
X69971615Y-177515433D01*
X69958660Y-177392182D01*
X69954109Y-177370009D01*
X69949859Y-177347731D01*
X69948850Y-177344389D01*
X69912203Y-177226001D01*
X69903432Y-177205136D01*
X69894935Y-177184104D01*
X69893295Y-177181022D01*
X69879475Y-177155462D01*
X70004486Y-177155462D01*
X70004486Y-176508600D01*
X70823088Y-176508600D01*
X70823088Y-177008600D01*
X70834727Y-177126769D01*
X70869195Y-177240396D01*
X70925169Y-177345116D01*
X71000497Y-177436903D01*
X71092284Y-177512231D01*
X71197004Y-177568205D01*
X71310631Y-177602673D01*
X71428800Y-177614312D01*
X71928800Y-177614312D01*
X72046969Y-177602673D01*
X72160596Y-177568205D01*
X72265316Y-177512231D01*
X72357103Y-177436903D01*
X72432431Y-177345116D01*
X72488405Y-177240396D01*
X72522873Y-177126769D01*
X72534512Y-177008600D01*
X72534512Y-176508600D01*
X72522873Y-176390431D01*
X72488405Y-176276804D01*
X72432431Y-176172084D01*
X72357103Y-176080297D01*
X72265316Y-176004969D01*
X72160596Y-175948995D01*
X72046969Y-175914527D01*
X71928800Y-175902888D01*
X71428800Y-175902888D01*
X71310631Y-175914527D01*
X71197004Y-175948995D01*
X71092284Y-176004969D01*
X71000497Y-176080297D01*
X70925169Y-176172084D01*
X70869195Y-176276804D01*
X70834727Y-176390431D01*
X70823088Y-176508600D01*
X70004486Y-176508600D01*
X70004486Y-175336212D01*
X67433000Y-175336212D01*
X67433000Y-173723725D01*
X67431929Y-173712847D01*
X67431956Y-173708908D01*
X67431615Y-173705433D01*
X67418660Y-173582182D01*
X67414105Y-173559991D01*
X67409859Y-173537731D01*
X67408850Y-173534389D01*
X67372203Y-173416001D01*
X67363438Y-173395150D01*
X67354935Y-173374104D01*
X67353295Y-173371022D01*
X67294351Y-173262007D01*
X67281684Y-173243227D01*
X67269274Y-173224262D01*
X67267073Y-173221564D01*
X67267068Y-173221557D01*
X67267062Y-173221551D01*
X67188072Y-173126067D01*
X67172016Y-173110123D01*
X67156141Y-173093912D01*
X67153451Y-173091687D01*
X67057412Y-173013359D01*
X67038544Y-173000823D01*
X67019843Y-172988018D01*
X67016772Y-172986358D01*
X66907348Y-172928176D01*
X66886412Y-172919547D01*
X66865573Y-172910615D01*
X66862238Y-172909583D01*
X66743597Y-172873763D01*
X66721350Y-172869358D01*
X66699205Y-172864651D01*
X66695737Y-172864286D01*
X66695733Y-172864286D01*
X66572395Y-172852193D01*
X66572394Y-172852193D01*
X66473453Y-172842492D01*
X66401745Y-172820842D01*
X66335609Y-172785677D01*
X66277559Y-172738332D01*
X66229813Y-172680616D01*
X66194189Y-172614731D01*
X66172037Y-172543170D01*
X66163000Y-172457190D01*
X66163000Y-171844687D01*
X67190825Y-171844687D01*
X67191063Y-171847215D01*
X67191063Y-171847308D01*
X67191081Y-171847398D01*
X67191289Y-171849609D01*
X67193584Y-171872242D01*
X67200141Y-171904790D01*
X67206443Y-171937363D01*
X67207208Y-171939872D01*
X67207228Y-171939970D01*
X67207263Y-171940054D01*
X67207884Y-171942092D01*
X67214465Y-171963157D01*
X67227095Y-171992984D01*
X67239358Y-172022961D01*
X67241391Y-172026746D01*
X67241404Y-172026777D01*
X67241421Y-172026802D01*
X67241697Y-172027316D01*
X67252106Y-172046367D01*
X67269929Y-172072544D01*
X67287288Y-172098967D01*
X67290419Y-172102792D01*
X67304193Y-172119380D01*
X67326440Y-172141392D01*
X67348285Y-172163816D01*
X67352085Y-172166977D01*
X67368769Y-172180657D01*
X67394960Y-172198157D01*
X67420775Y-172216068D01*
X67425108Y-172218446D01*
X67444241Y-172228771D01*
X67473831Y-172241181D01*
X67495118Y-172250462D01*
X67613203Y-172449254D01*
X67622654Y-172467236D01*
X67633732Y-172489357D01*
X67643713Y-172510355D01*
X67652628Y-172530199D01*
X67660500Y-172548844D01*
X67667351Y-172566211D01*
X67673239Y-172582312D01*
X67677184Y-172594056D01*
X67676402Y-172596126D01*
X67670998Y-172628444D01*
X67664568Y-172660552D01*
X67664554Y-172666984D01*
X67663493Y-172673330D01*
X67664469Y-172706067D01*
X67664398Y-172738828D01*
X67665634Y-172745144D01*
X67665826Y-172751572D01*
X67673143Y-172783503D01*
X67679436Y-172815647D01*
X67681080Y-172821000D01*
X67685321Y-172834472D01*
X67685395Y-172834762D01*
X67685425Y-172834988D01*
X67686434Y-172847430D01*
X67686448Y-172847509D01*
X67686447Y-172847588D01*
X67692885Y-172883160D01*
X67700342Y-172924461D01*
X67700374Y-172924543D01*
X67700387Y-172924614D01*
X67713764Y-172958648D01*
X67728949Y-172997323D01*
X67728992Y-172997390D01*
X67729021Y-172997464D01*
X67749037Y-173028692D01*
X67771162Y-173063241D01*
X67771222Y-173063303D01*
X67771262Y-173063366D01*
X67796456Y-173089585D01*
X67825376Y-173119705D01*
X67825443Y-173119752D01*
X67825497Y-173119808D01*
X67857473Y-173142150D01*
X67889525Y-173164563D01*
X67889596Y-173164594D01*
X67889663Y-173164641D01*
X67925209Y-173180275D01*
X67961163Y-173196106D01*
X67961243Y-173196124D01*
X67961316Y-173196156D01*
X67998881Y-173204513D01*
X68037565Y-173213135D01*
X68037647Y-173213137D01*
X68037724Y-173213154D01*
X68056838Y-173213602D01*
X68046892Y-173226430D01*
X68035607Y-173240264D01*
X68024509Y-173253195D01*
X68013665Y-173265212D01*
X68002957Y-173276499D01*
X67992399Y-173287094D01*
X67982000Y-173297036D01*
X67971692Y-173306430D01*
X67961457Y-173315329D01*
X67951232Y-173323823D01*
X67941053Y-173331911D01*
X67930807Y-173339712D01*
X67920495Y-173347249D01*
X67910027Y-173354610D01*
X67899402Y-173361815D01*
X67888546Y-173368937D01*
X67877414Y-173376028D01*
X67865984Y-173383121D01*
X67854221Y-173390266D01*
X67841804Y-173397686D01*
X67829358Y-173405041D01*
X67816111Y-173412830D01*
X67816098Y-173412839D01*
X67815945Y-173412928D01*
X67802821Y-173420655D01*
X67802766Y-173420695D01*
X67801674Y-173421333D01*
X67788898Y-173428920D01*
X67788825Y-173428974D01*
X67786780Y-173430188D01*
X67774367Y-173437677D01*
X67774305Y-173437723D01*
X67771195Y-173439614D01*
X67759159Y-173447049D01*
X67759115Y-173447082D01*
X67759071Y-173447104D01*
X67754884Y-173449732D01*
X67743242Y-173457155D01*
X67742629Y-173457636D01*
X67741947Y-173457986D01*
X67737809Y-173460690D01*
X67726576Y-173468145D01*
X67725389Y-173469112D01*
X67724039Y-173469844D01*
X67719964Y-173472641D01*
X67709156Y-173480171D01*
X67707386Y-173481681D01*
X67705376Y-173482842D01*
X67701377Y-173485749D01*
X67691009Y-173493397D01*
X67688670Y-173495504D01*
X67685996Y-173497164D01*
X67682091Y-173500195D01*
X67672179Y-173508004D01*
X67669282Y-173510785D01*
X67665956Y-173513022D01*
X67662164Y-173516194D01*
X67652723Y-173524208D01*
X67649349Y-173527693D01*
X67645437Y-173530565D01*
X67641780Y-173533891D01*
X67632824Y-173542152D01*
X67629032Y-173546406D01*
X67624601Y-173549985D01*
X67621101Y-173553476D01*
X67612646Y-173562027D01*
X67608537Y-173567088D01*
X67603687Y-173571429D01*
X67600368Y-173575093D01*
X67592432Y-173583977D01*
X67588164Y-173589815D01*
X67583055Y-173594917D01*
X67579941Y-173598756D01*
X67572537Y-173608018D01*
X67568254Y-173614603D01*
X67563029Y-173620467D01*
X67560144Y-173624481D01*
X67553288Y-173634163D01*
X67549150Y-173641417D01*
X67543987Y-173647976D01*
X67541352Y-173652158D01*
X67535060Y-173662303D01*
X67531228Y-173670088D01*
X67526308Y-173677218D01*
X67523941Y-173681557D01*
X67518228Y-173692208D01*
X67514834Y-173700358D01*
X67510296Y-173707923D01*
X67508209Y-173712405D01*
X67503091Y-173723605D01*
X67500233Y-173731925D01*
X67496200Y-173739732D01*
X67494402Y-173744336D01*
X67489894Y-173756129D01*
X67487626Y-173764408D01*
X67484175Y-173772251D01*
X67482667Y-173776959D01*
X67478784Y-173789386D01*
X67477105Y-173797456D01*
X67474252Y-173805173D01*
X67473031Y-173809963D01*
X67469789Y-173823071D01*
X67468670Y-173830750D01*
X67466404Y-173838167D01*
X67465461Y-173843019D01*
X67462876Y-173856849D01*
X67462251Y-173864010D01*
X67460529Y-173870985D01*
X67459852Y-173875882D01*
X67457939Y-173890475D01*
X67457725Y-173897033D01*
X67456479Y-173903473D01*
X67456052Y-173908397D01*
X67454826Y-173923799D01*
X67454934Y-173929716D01*
X67454087Y-173935565D01*
X67453893Y-173940505D01*
X67453370Y-173956758D01*
X67453705Y-173961866D01*
X67453189Y-173966957D01*
X67453207Y-173971900D01*
X67453408Y-173990839D01*
X67453997Y-173996254D01*
X67453690Y-174001685D01*
X67453928Y-174006622D01*
X67454898Y-174024169D01*
X67455849Y-174030337D01*
X67455803Y-174036571D01*
X67456283Y-174041491D01*
X67457982Y-174057718D01*
X67459402Y-174064649D01*
X67459730Y-174071712D01*
X67460474Y-174076599D01*
X67462862Y-174091581D01*
X67464866Y-174099240D01*
X67465694Y-174107101D01*
X67466722Y-174111936D01*
X67469762Y-174125747D01*
X67472455Y-174134027D01*
X67473911Y-174142612D01*
X67475242Y-174147373D01*
X67478894Y-174160088D01*
X67482365Y-174168844D01*
X67484556Y-174177993D01*
X67486202Y-174182654D01*
X67490427Y-174194345D01*
X67494712Y-174203343D01*
X67497706Y-174212848D01*
X67499675Y-174217382D01*
X67504432Y-174228125D01*
X67509511Y-174237108D01*
X67513311Y-174246698D01*
X67515602Y-174251078D01*
X67520853Y-174260947D01*
X67526613Y-174269611D01*
X67531134Y-174278973D01*
X67533737Y-174283176D01*
X67539442Y-174292244D01*
X67545682Y-174300296D01*
X67550753Y-174309127D01*
X67553649Y-174313133D01*
X67559769Y-174321475D01*
X67566232Y-174328686D01*
X67571618Y-174336735D01*
X67574782Y-174340533D01*
X67581278Y-174348222D01*
X67587631Y-174354402D01*
X67593019Y-174361435D01*
X67596418Y-174365024D01*
X67603251Y-174372136D01*
X67609201Y-174377226D01*
X67614309Y-174383148D01*
X67617911Y-174386533D01*
X67625042Y-174393141D01*
X67630255Y-174397101D01*
X67634776Y-174401833D01*
X67638546Y-174405031D01*
X67645933Y-174411210D01*
X67650235Y-174414146D01*
X67653988Y-174417748D01*
X67657892Y-174420780D01*
X67665499Y-174426601D01*
X67668644Y-174428553D01*
X67670727Y-174430418D01*
X67668320Y-174451772D01*
X67665133Y-174478261D01*
X67665101Y-174479710D01*
X67664802Y-174481118D01*
X67664285Y-174486034D01*
X67661858Y-174510812D01*
X67661859Y-174516008D01*
X67661000Y-174521128D01*
X67660696Y-174526062D01*
X67659478Y-174548414D01*
X67659897Y-174558085D01*
X67658954Y-174567715D01*
X67658989Y-174572658D01*
X67659277Y-174593116D01*
X67660883Y-174607417D01*
X67660847Y-174621794D01*
X67661350Y-174626712D01*
X67663443Y-174645802D01*
X67667188Y-174663641D01*
X67669267Y-174681740D01*
X67670341Y-174686565D01*
X67674539Y-174704819D01*
X67680876Y-174723703D01*
X67685624Y-174743038D01*
X67687298Y-174747690D01*
X67693899Y-174765635D01*
X67702133Y-174782671D01*
X67708823Y-174800360D01*
X67711044Y-174804775D01*
X67720346Y-174822940D01*
X67728919Y-174836285D01*
X67736025Y-174850449D01*
X67738691Y-174854612D01*
X67750994Y-174873526D01*
X67759001Y-174883541D01*
X67765713Y-174894457D01*
X67768727Y-174898375D01*
X67782853Y-174916465D01*
X67793078Y-174927208D01*
X67802035Y-174939017D01*
X67805417Y-174942622D01*
X67820607Y-174958584D01*
X67832825Y-174969138D01*
X67843872Y-174980903D01*
X67847613Y-174984133D01*
X67863867Y-174997967D01*
X67877956Y-175007760D01*
X67890998Y-175018881D01*
X67895073Y-175021678D01*
X67912392Y-175033384D01*
X67927987Y-175041835D01*
X67942695Y-175051726D01*
X67947062Y-175054041D01*
X67965444Y-175063618D01*
X67981958Y-175070263D01*
X67997767Y-175078444D01*
X68002370Y-175080245D01*
X68021817Y-175087695D01*
X68038577Y-175092299D01*
X68054804Y-175098509D01*
X68059580Y-175099783D01*
X68080091Y-175105104D01*
X68096359Y-175107663D01*
X68112258Y-175111869D01*
X68117142Y-175112628D01*
X68138717Y-175115821D01*
X68153942Y-175116571D01*
X68168988Y-175118978D01*
X68173924Y-175119245D01*
X68196563Y-175120309D01*
X68202420Y-175120011D01*
X68208239Y-175120664D01*
X68213182Y-175120699D01*
X68243769Y-175120699D01*
X68248065Y-175120278D01*
X68252362Y-175120594D01*
X68257302Y-175120440D01*
X68279546Y-175119589D01*
X68291193Y-175117996D01*
X68302939Y-175117916D01*
X68307851Y-175117367D01*
X68329301Y-175114814D01*
X68341565Y-175112120D01*
X68354056Y-175110974D01*
X68358904Y-175110011D01*
X68379560Y-175105755D01*
X68392135Y-175101852D01*
X68405090Y-175099498D01*
X68409834Y-175098111D01*
X68429695Y-175092153D01*
X68442273Y-175086995D01*
X68455365Y-175083366D01*
X68459965Y-175081556D01*
X68479031Y-175073895D01*
X68491225Y-175067550D01*
X68504067Y-175062689D01*
X68508482Y-175060466D01*
X68526754Y-175051103D01*
X68538223Y-175043731D01*
X68550477Y-175037771D01*
X68554672Y-175035157D01*
X68572150Y-175024092D01*
X68581787Y-175016579D01*
X68592287Y-175010349D01*
X68596252Y-175007396D01*
X68614442Y-174993647D01*
X68629147Y-174980085D01*
X68644919Y-174967782D01*
X68648477Y-174964351D01*
X68664117Y-174949058D01*
X68677992Y-174932548D01*
X68693034Y-174917114D01*
X68696096Y-174913233D01*
X68709188Y-174896394D01*
X68721109Y-174877510D01*
X68734309Y-174859498D01*
X68736798Y-174855228D01*
X68747341Y-174836845D01*
X68756441Y-174816630D01*
X68766936Y-174797105D01*
X68768809Y-174792530D01*
X68776803Y-174772603D01*
X68782714Y-174752335D01*
X68786158Y-174743185D01*
X68789570Y-174752595D01*
X68796000Y-174774738D01*
X68797867Y-174779315D01*
X68805629Y-174797969D01*
X68816575Y-174818388D01*
X68826168Y-174839448D01*
X68828676Y-174843708D01*
X68839142Y-174861202D01*
X68852342Y-174879047D01*
X68864251Y-174897760D01*
X68867326Y-174901630D01*
X68880495Y-174917966D01*
X68894806Y-174932542D01*
X68907896Y-174948208D01*
X68911445Y-174951650D01*
X68927316Y-174966826D01*
X68941612Y-174978043D01*
X68954798Y-174990530D01*
X68958722Y-174993536D01*
X68977298Y-175007554D01*
X68982901Y-175010979D01*
X68987891Y-175015245D01*
X68991963Y-175018047D01*
X69010770Y-175030791D01*
X69024367Y-175038180D01*
X69037074Y-175046986D01*
X69041409Y-175049362D01*
X69060757Y-175059789D01*
X69075983Y-175066165D01*
X69090472Y-175074059D01*
X69095036Y-175075958D01*
X69114925Y-175084068D01*
X69131389Y-175088971D01*
X69147282Y-175095466D01*
X69152028Y-175096848D01*
X69172457Y-175102640D01*
X69189547Y-175105724D01*
X69206257Y-175110456D01*
X69211128Y-175111299D01*
X69232098Y-175114775D01*
X69249158Y-175115911D01*
X69266006Y-175118726D01*
X69270940Y-175119027D01*
X69292450Y-175120186D01*
X69299522Y-175119875D01*
X69306554Y-175120664D01*
X69311497Y-175120699D01*
X69342084Y-175120699D01*
X69348282Y-175120091D01*
X69354493Y-175120481D01*
X69359432Y-175120274D01*
X69381831Y-175119175D01*
X69397488Y-175116860D01*
X69413287Y-175116219D01*
X69418178Y-175115504D01*
X69439649Y-175112209D01*
X69455959Y-175108044D01*
X69472606Y-175105536D01*
X69477390Y-175104293D01*
X69497936Y-175098800D01*
X69514251Y-175092677D01*
X69531063Y-175088172D01*
X69535678Y-175086401D01*
X69555296Y-175078712D01*
X69570927Y-175070747D01*
X69587250Y-175064325D01*
X69591636Y-175062045D01*
X69610328Y-175052157D01*
X69624637Y-175042695D01*
X69639800Y-175034692D01*
X69643907Y-175031941D01*
X69661671Y-175019858D01*
X69674209Y-175009403D01*
X69687748Y-175000305D01*
X69691541Y-174997135D01*
X69708379Y-174982855D01*
X69718931Y-174971966D01*
X69730605Y-174962308D01*
X69734063Y-174958777D01*
X69749974Y-174942300D01*
X69758539Y-174931494D01*
X69768306Y-174921775D01*
X69771427Y-174917942D01*
X69786411Y-174899268D01*
X69791173Y-174891975D01*
X69796947Y-174885456D01*
X69799820Y-174881434D01*
X69812496Y-174863418D01*
X69814301Y-174860231D01*
X69816632Y-174857409D01*
X69819364Y-174853290D01*
X69830064Y-174836908D01*
X69835680Y-174826144D01*
X69842610Y-174816183D01*
X69844994Y-174811853D01*
X69853504Y-174796132D01*
X69861628Y-174776834D01*
X69871211Y-174758229D01*
X69873004Y-174753622D01*
X69879110Y-174737593D01*
X69886138Y-174711820D01*
X69894300Y-174686402D01*
X69895312Y-174681564D01*
X69898803Y-174664254D01*
X69901509Y-174637626D01*
X69905385Y-174611181D01*
X69905587Y-174606242D01*
X69906249Y-174586683D01*
X69904847Y-174564776D01*
X69905013Y-174542831D01*
X69904534Y-174537911D01*
X69902153Y-174515129D01*
X69899030Y-174499869D01*
X69897564Y-174484368D01*
X69896587Y-174479522D01*
X69890951Y-174452549D01*
X69887975Y-174443054D01*
X69886346Y-174433232D01*
X69885032Y-174428467D01*
X69875928Y-174396329D01*
X69875667Y-174395664D01*
X69875538Y-174394963D01*
X69874138Y-174390222D01*
X69863412Y-174354799D01*
X69854429Y-174323336D01*
X69846336Y-174293114D01*
X69839082Y-174264057D01*
X69832644Y-174236201D01*
X69827003Y-174209617D01*
X69822102Y-174184187D01*
X69817892Y-174159850D01*
X69814357Y-174136708D01*
X69811441Y-174114632D01*
X69809115Y-174093683D01*
X69807330Y-174073740D01*
X69806051Y-174054821D01*
X69805238Y-174036910D01*
X69804854Y-174019955D01*
X69804859Y-174003904D01*
X69805220Y-173988682D01*
X69805902Y-173974305D01*
X69806870Y-173960746D01*
X69808095Y-173947920D01*
X69809563Y-173935691D01*
X69811233Y-173924138D01*
X69813086Y-173913179D01*
X69815125Y-173902657D01*
X69817324Y-173892587D01*
X69819659Y-173882969D01*
X69822154Y-173873619D01*
X69824796Y-173864531D01*
X69827561Y-173855724D01*
X69830498Y-173847000D01*
X69833611Y-173838313D01*
X69836851Y-173829771D01*
X69840316Y-173821089D01*
X69843968Y-173812341D01*
X69847778Y-173803568D01*
X69851849Y-173794508D01*
X69856194Y-173785108D01*
X69860716Y-173775547D01*
X69865599Y-173765401D01*
X69870769Y-173754776D01*
X69875979Y-173744120D01*
X69875983Y-173744109D01*
X69876082Y-173743910D01*
X69881421Y-173732971D01*
X69881444Y-173732909D01*
X69881976Y-173731829D01*
X69887148Y-173721135D01*
X69887181Y-173721046D01*
X69888183Y-173718975D01*
X69893161Y-173708503D01*
X69893188Y-173708428D01*
X69894637Y-173705357D01*
X69899394Y-173695090D01*
X69899398Y-173695079D01*
X69901374Y-173690741D01*
X69905881Y-173680658D01*
X69906065Y-173680109D01*
X69906348Y-173679608D01*
X69908319Y-173675075D01*
X69912549Y-173665159D01*
X69912935Y-173663934D01*
X69913544Y-173662803D01*
X69915419Y-173658229D01*
X69919345Y-173648456D01*
X69919912Y-173646516D01*
X69920820Y-173644721D01*
X69922579Y-173640101D01*
X69926174Y-173630453D01*
X69926899Y-173627716D01*
X69928098Y-173625159D01*
X69929718Y-173620489D01*
X69932953Y-173610945D01*
X69933771Y-173607438D01*
X69935186Y-173604130D01*
X69936645Y-173599407D01*
X69939494Y-173589949D01*
X69940358Y-173585572D01*
X69941948Y-173581413D01*
X69943222Y-173576637D01*
X69945656Y-173567243D01*
X69946472Y-173562046D01*
X69948134Y-173557059D01*
X69949198Y-173552232D01*
X69951190Y-173542884D01*
X69951867Y-173536874D01*
X69953502Y-173531050D01*
X69954333Y-173526178D01*
X69955856Y-173516854D01*
X69956292Y-173510069D01*
X69957785Y-173503436D01*
X69958360Y-173498527D01*
X69959386Y-173489209D01*
X69959475Y-173481757D01*
X69960701Y-173474413D01*
X69961002Y-173469479D01*
X69961504Y-173460148D01*
X69961152Y-173452142D01*
X69962001Y-173444185D01*
X69962010Y-173439242D01*
X69961960Y-173429875D01*
X69961093Y-173421493D01*
X69961471Y-173413082D01*
X69961176Y-173408148D01*
X69960546Y-173398726D01*
X69959130Y-173390199D01*
X69958977Y-173381553D01*
X69958373Y-173376647D01*
X69957137Y-173367152D01*
X69955164Y-173358615D01*
X69954454Y-173349884D01*
X69953541Y-173345026D01*
X69951669Y-173335436D01*
X69949199Y-173327174D01*
X69947965Y-173318642D01*
X69946750Y-173313850D01*
X69944217Y-173304146D01*
X69941317Y-173296278D01*
X69939613Y-173288073D01*
X69938108Y-173283365D01*
X69934886Y-173273528D01*
X69930143Y-173262742D01*
X69926829Y-173251439D01*
X69924950Y-173246867D01*
X69917625Y-173229392D01*
X69909494Y-173214317D01*
X69902888Y-173198512D01*
X69900516Y-173194175D01*
X69892022Y-173178905D01*
X69881212Y-173163283D01*
X69871822Y-173146773D01*
X69868943Y-173142754D01*
X69859347Y-173129560D01*
X69845864Y-173114389D01*
X69833656Y-173098186D01*
X69830285Y-173094570D01*
X69819650Y-173083322D01*
X69813507Y-173077981D01*
X69813451Y-173077918D01*
X69813322Y-173077820D01*
X69812249Y-173076887D01*
X69828314Y-173053072D01*
X69848778Y-173023837D01*
X69850181Y-173020655D01*
X69852125Y-173017773D01*
X69865959Y-172984868D01*
X69880356Y-172952213D01*
X69881114Y-172948821D01*
X69882462Y-172945614D01*
X69889648Y-172910615D01*
X69897421Y-172875820D01*
X69897505Y-172872344D01*
X69898205Y-172868937D01*
X69898752Y-172863363D01*
X69899028Y-172860330D01*
X69900399Y-172855439D01*
X69905668Y-172838857D01*
X69912024Y-172809029D01*
X69919662Y-172779517D01*
X69920165Y-172770820D01*
X69921981Y-172762299D01*
X69922422Y-172731788D01*
X69924181Y-172701371D01*
X69922986Y-172692747D01*
X69923112Y-172684030D01*
X69917620Y-172654022D01*
X69913437Y-172623835D01*
X69910589Y-172615605D01*
X69909020Y-172607033D01*
X69905894Y-172599126D01*
X69910714Y-172586366D01*
X69916926Y-172571316D01*
X69924116Y-172555289D01*
X69932358Y-172538297D01*
X69941796Y-172520220D01*
X69952531Y-172501032D01*
X69967174Y-172476513D01*
X69967209Y-172476439D01*
X69968857Y-172473665D01*
X70089610Y-172267114D01*
X70108750Y-172259084D01*
X70138450Y-172247113D01*
X70142817Y-172244797D01*
X70161950Y-172234473D01*
X70188075Y-172216884D01*
X70214457Y-172199784D01*
X70218302Y-172196677D01*
X70234985Y-172182997D01*
X70257165Y-172160856D01*
X70279700Y-172139172D01*
X70282885Y-172135392D01*
X70296659Y-172118803D01*
X70314416Y-172092578D01*
X70332561Y-172066713D01*
X70334962Y-172062392D01*
X70345370Y-172043342D01*
X70358055Y-172013530D01*
X70371099Y-171983885D01*
X70372407Y-171979799D01*
X70372420Y-171979769D01*
X70372427Y-171979737D01*
X70372606Y-171979177D01*
X70379187Y-171958112D01*
X70385967Y-171925517D01*
X70392954Y-171893174D01*
X70393238Y-171890560D01*
X70393256Y-171890471D01*
X70393257Y-171890382D01*
X70393487Y-171888260D01*
X70395782Y-171865626D01*
X70395892Y-171832378D01*
X70396249Y-171799158D01*
X70396011Y-171796631D01*
X70396011Y-171796538D01*
X70395993Y-171796448D01*
X70395785Y-171794237D01*
X70393490Y-171771582D01*
X70386964Y-171739168D01*
X70380708Y-171706695D01*
X70379870Y-171703937D01*
X70379853Y-171703852D01*
X70379821Y-171703774D01*
X70379271Y-171701965D01*
X70372690Y-171680842D01*
X70360160Y-171651185D01*
X70348011Y-171621335D01*
X70345806Y-171617211D01*
X70345801Y-171617200D01*
X70345795Y-171617191D01*
X70345680Y-171616976D01*
X70335271Y-171597842D01*
X70317603Y-171571791D01*
X70300405Y-171545455D01*
X70297285Y-171541621D01*
X70283512Y-171524938D01*
X70261373Y-171502910D01*
X70239703Y-171480514D01*
X70235914Y-171477340D01*
X70219230Y-171463565D01*
X70193087Y-171445968D01*
X70167332Y-171427971D01*
X70163007Y-171425578D01*
X70143874Y-171415170D01*
X70114175Y-171402597D01*
X70084716Y-171389663D01*
X70080270Y-171388243D01*
X70080251Y-171388235D01*
X70080234Y-171388231D01*
X70080007Y-171388159D01*
X70058883Y-171381578D01*
X70026452Y-171374859D01*
X69994182Y-171367892D01*
X69991322Y-171367582D01*
X69991231Y-171367563D01*
X69991141Y-171367562D01*
X69989267Y-171367359D01*
X69966612Y-171365064D01*
X69933333Y-171364957D01*
X69900144Y-171364603D01*
X69897617Y-171364841D01*
X69897524Y-171364841D01*
X69897434Y-171364859D01*
X69895223Y-171365067D01*
X69872589Y-171367362D01*
X69840058Y-171373915D01*
X69807466Y-171380221D01*
X69804946Y-171380989D01*
X69804861Y-171381006D01*
X69804782Y-171381039D01*
X69802737Y-171381662D01*
X69781672Y-171388243D01*
X69751844Y-171400873D01*
X69721861Y-171413140D01*
X69718089Y-171415166D01*
X69718052Y-171415182D01*
X69718022Y-171415202D01*
X69717507Y-171415479D01*
X69698457Y-171425887D01*
X69672309Y-171443691D01*
X69645862Y-171461067D01*
X69642037Y-171464198D01*
X69625447Y-171477973D01*
X69603418Y-171500238D01*
X69581020Y-171522056D01*
X69577859Y-171525856D01*
X69564179Y-171542539D01*
X69546696Y-171568704D01*
X69528755Y-171594565D01*
X69526376Y-171598899D01*
X69516052Y-171618032D01*
X69503643Y-171647622D01*
X69490843Y-171676976D01*
X69489351Y-171681689D01*
X69482828Y-171702813D01*
X69476250Y-171734971D01*
X69469366Y-171767005D01*
X69468997Y-171770429D01*
X69468983Y-171770500D01*
X69468983Y-171770567D01*
X69468837Y-171771920D01*
X69468291Y-171777359D01*
X69451475Y-171791535D01*
X69433154Y-171806685D01*
X69414573Y-171821733D01*
X69395832Y-171836574D01*
X69376956Y-171851165D01*
X69358178Y-171865301D01*
X69339319Y-171879099D01*
X69320678Y-171892318D01*
X69302359Y-171904872D01*
X69284335Y-171916768D01*
X69276965Y-171921432D01*
X69274041Y-171913273D01*
X69267898Y-171895075D01*
X69261956Y-171876392D01*
X69256249Y-171857337D01*
X69250745Y-171837823D01*
X69245469Y-171817951D01*
X69240416Y-171797734D01*
X69235585Y-171777199D01*
X69230959Y-171756301D01*
X69226559Y-171735174D01*
X69222348Y-171713679D01*
X69218344Y-171691951D01*
X69214525Y-171669917D01*
X69210934Y-171647905D01*
X69207502Y-171625557D01*
X69204242Y-171603015D01*
X69201139Y-171580235D01*
X69198220Y-171557519D01*
X69196235Y-171541168D01*
X69205080Y-171530507D01*
X69207821Y-171526394D01*
X69220675Y-171506809D01*
X69232186Y-171484865D01*
X69244886Y-171463608D01*
X69246965Y-171459123D01*
X69257107Y-171436824D01*
X69265600Y-171411956D01*
X69275247Y-171387525D01*
X69276572Y-171382763D01*
X69283226Y-171358181D01*
X69287927Y-171330226D01*
X69293605Y-171302485D01*
X69294085Y-171297565D01*
X69296475Y-171271135D01*
X69296265Y-171243389D01*
X69297126Y-171215656D01*
X69296763Y-171210727D01*
X69294854Y-171187115D01*
X69290223Y-171161433D01*
X69286835Y-171135593D01*
X69285684Y-171130786D01*
X69280159Y-171108409D01*
X69271607Y-171084217D01*
X69264284Y-171059622D01*
X69262386Y-171055058D01*
X69253545Y-171034210D01*
X69241506Y-171012111D01*
X69230661Y-170989404D01*
X69228076Y-170985191D01*
X69216220Y-170966166D01*
X69201128Y-170946519D01*
X69187146Y-170926064D01*
X69183945Y-170922297D01*
X69169375Y-170905390D01*
X69151568Y-170888405D01*
X69134746Y-170870444D01*
X69131009Y-170867208D01*
X69114026Y-170852716D01*
X69093777Y-170838602D01*
X69074351Y-170823379D01*
X69070163Y-170820753D01*
X69051068Y-170808967D01*
X69028613Y-170797974D01*
X69006792Y-170785785D01*
X69002248Y-170783838D01*
X68981342Y-170775055D01*
X68957043Y-170767539D01*
X68933172Y-170758779D01*
X68928379Y-170757570D01*
X68905961Y-170752084D01*
X68880380Y-170748420D01*
X68855025Y-170743499D01*
X68850100Y-170743069D01*
X68826474Y-170741175D01*
X68800637Y-170741634D01*
X68774827Y-170740815D01*
X68769897Y-170741175D01*
X68746272Y-170743069D01*
X68720837Y-170747638D01*
X68695222Y-170750943D01*
X68690412Y-170752084D01*
X68667995Y-170757570D01*
X68643991Y-170766000D01*
X68619601Y-170773173D01*
X68615031Y-170775055D01*
X68594125Y-170783838D01*
X68572123Y-170795729D01*
X68549529Y-170806401D01*
X68545304Y-170808968D01*
X68526210Y-170820753D01*
X68506568Y-170835707D01*
X68486129Y-170849534D01*
X68482347Y-170852716D01*
X68465364Y-170867209D01*
X68448294Y-170884933D01*
X68430251Y-170901668D01*
X68426998Y-170905390D01*
X68412428Y-170922297D01*
X68398161Y-170942556D01*
X68382797Y-170961989D01*
X68380153Y-170966166D01*
X68368297Y-170985191D01*
X68357131Y-171007754D01*
X68344790Y-171029673D01*
X68342828Y-171034210D01*
X68333987Y-171055058D01*
X68326319Y-171079556D01*
X68317433Y-171103618D01*
X68316214Y-171108409D01*
X68310689Y-171130786D01*
X68306937Y-171156602D01*
X68301953Y-171182191D01*
X68301519Y-171187115D01*
X68299610Y-171210727D01*
X68300062Y-171237201D01*
X68299301Y-171263649D01*
X68299676Y-171268578D01*
X68301652Y-171292350D01*
X68306514Y-171318969D01*
X68310237Y-171345750D01*
X68311425Y-171350548D01*
X68317138Y-171372938D01*
X68326219Y-171398004D01*
X68334169Y-171423451D01*
X68336128Y-171427989D01*
X68345253Y-171448727D01*
X68358021Y-171471433D01*
X68369668Y-171494707D01*
X68372329Y-171498872D01*
X68384542Y-171517691D01*
X68400384Y-171537547D01*
X68405773Y-171545073D01*
X68403041Y-171569047D01*
X68399815Y-171596036D01*
X68396444Y-171622847D01*
X68392913Y-171649507D01*
X68389245Y-171675736D01*
X68385447Y-171701419D01*
X68381449Y-171726935D01*
X68377321Y-171751779D01*
X68373051Y-171775972D01*
X68368601Y-171799682D01*
X68364009Y-171822647D01*
X68359276Y-171844835D01*
X68354397Y-171866251D01*
X68349425Y-171886656D01*
X68344346Y-171906111D01*
X68339201Y-171924479D01*
X68336649Y-171932954D01*
X68322047Y-171923803D01*
X68304759Y-171912466D01*
X68287043Y-171900367D01*
X68268849Y-171887476D01*
X68250464Y-171874005D01*
X68231883Y-171859966D01*
X68213152Y-171845412D01*
X68194504Y-171830541D01*
X68175916Y-171815360D01*
X68157422Y-171799918D01*
X68139263Y-171784440D01*
X68121322Y-171768852D01*
X68119359Y-171767115D01*
X68118234Y-171755902D01*
X68111784Y-171723707D01*
X68105668Y-171691526D01*
X68104677Y-171688236D01*
X68104662Y-171688159D01*
X68104634Y-171688091D01*
X68104243Y-171686793D01*
X68097720Y-171665669D01*
X68085301Y-171636068D01*
X68073335Y-171606379D01*
X68071019Y-171602012D01*
X68060695Y-171582879D01*
X68043112Y-171556764D01*
X68026000Y-171530364D01*
X68022893Y-171526520D01*
X68009212Y-171509836D01*
X67987088Y-171487675D01*
X67965404Y-171465138D01*
X67961624Y-171461953D01*
X67945035Y-171448178D01*
X67918812Y-171430420D01*
X67892923Y-171412261D01*
X67888602Y-171409860D01*
X67869552Y-171399453D01*
X67839684Y-171386745D01*
X67810106Y-171373731D01*
X67806020Y-171372423D01*
X67805978Y-171372405D01*
X67805938Y-171372397D01*
X67805399Y-171372224D01*
X67784334Y-171365643D01*
X67751814Y-171358879D01*
X67719412Y-171351878D01*
X67716779Y-171351592D01*
X67716693Y-171351574D01*
X67716606Y-171351573D01*
X67714497Y-171351344D01*
X67691864Y-171349048D01*
X67658500Y-171348936D01*
X67625365Y-171348582D01*
X67622864Y-171348817D01*
X67622775Y-171348817D01*
X67622689Y-171348834D01*
X67620443Y-171349045D01*
X67597788Y-171351341D01*
X67565366Y-171357871D01*
X67532917Y-171364122D01*
X67530140Y-171364966D01*
X67530059Y-171364982D01*
X67529985Y-171365013D01*
X67528187Y-171365559D01*
X67507064Y-171372140D01*
X67477364Y-171384688D01*
X67447569Y-171396813D01*
X67443437Y-171399023D01*
X67443422Y-171399029D01*
X67443411Y-171399037D01*
X67443210Y-171399144D01*
X67424077Y-171409551D01*
X67398025Y-171427218D01*
X67371675Y-171444425D01*
X67367841Y-171447545D01*
X67351157Y-171461320D01*
X67329153Y-171483436D01*
X67306733Y-171505129D01*
X67303559Y-171508918D01*
X67289785Y-171525601D01*
X67272187Y-171551746D01*
X67254193Y-171577497D01*
X67251800Y-171581822D01*
X67241392Y-171600955D01*
X67228819Y-171630654D01*
X67215885Y-171660113D01*
X67214465Y-171664559D01*
X67214457Y-171664578D01*
X67214453Y-171664595D01*
X67214381Y-171664822D01*
X67207800Y-171685946D01*
X67201084Y-171718367D01*
X67194113Y-171750649D01*
X67193802Y-171753516D01*
X67193785Y-171753598D01*
X67193784Y-171753680D01*
X67193580Y-171755563D01*
X67191285Y-171778219D01*
X67191178Y-171811473D01*
X67190825Y-171844687D01*
X66163000Y-171844687D01*
X66163000Y-170151391D01*
X66204916Y-170146689D01*
X66227102Y-170141973D01*
X66249305Y-170137577D01*
X66252638Y-170136546D01*
X66252644Y-170136544D01*
X66488898Y-170061600D01*
X66509724Y-170052674D01*
X66530674Y-170044039D01*
X66533745Y-170042379D01*
X66750947Y-169922970D01*
X66769655Y-169910161D01*
X66788515Y-169897630D01*
X66791200Y-169895409D01*
X66791206Y-169895405D01*
X66791211Y-169895400D01*
X66981077Y-169736083D01*
X66996901Y-169719924D01*
X67013008Y-169703929D01*
X67015214Y-169701223D01*
X67170525Y-169508056D01*
X67182901Y-169489144D01*
X67195604Y-169470311D01*
X67197239Y-169467233D01*
X67197242Y-169467229D01*
X67197244Y-169467225D01*
X67312074Y-169247574D01*
X67320554Y-169226586D01*
X67329343Y-169205678D01*
X67330349Y-169202342D01*
X67330352Y-169202335D01*
X67330353Y-169202328D01*
X67400333Y-168964560D01*
X67404570Y-168942351D01*
X67409136Y-168920106D01*
X67409476Y-168916632D01*
X67431940Y-168669792D01*
X67431782Y-168647173D01*
X67431941Y-168624477D01*
X67431600Y-168621003D01*
X67405692Y-168374499D01*
X67401133Y-168352290D01*
X67396890Y-168330046D01*
X67395883Y-168326714D01*
X67395881Y-168326704D01*
X67395877Y-168326695D01*
X67322585Y-168089927D01*
X67313824Y-168069085D01*
X67305318Y-168048031D01*
X67303678Y-168044949D01*
X67303678Y-168044948D01*
X67303675Y-168044944D01*
X67185790Y-167826919D01*
X67173134Y-167808155D01*
X67160713Y-167789174D01*
X67158512Y-167786476D01*
X67158507Y-167786469D01*
X67158501Y-167786463D01*
X67000513Y-167595489D01*
X66984424Y-167579512D01*
X66968582Y-167563334D01*
X66965898Y-167561114D01*
X66965892Y-167561108D01*
X66965885Y-167561104D01*
X66773814Y-167404454D01*
X66754954Y-167391923D01*
X66736245Y-167379113D01*
X66733179Y-167377456D01*
X66733175Y-167377453D01*
X66733171Y-167377451D01*
X66514326Y-167261090D01*
X66493414Y-167252471D01*
X66472553Y-167243529D01*
X66469218Y-167242497D01*
X66231937Y-167170857D01*
X66209711Y-167166456D01*
X66187546Y-167161745D01*
X66184074Y-167161380D01*
X66163000Y-167159314D01*
X66163000Y-164858227D01*
X66171508Y-164771453D01*
X66193159Y-164699743D01*
X66228323Y-164633609D01*
X66275663Y-164575564D01*
X66333384Y-164527813D01*
X66399269Y-164492189D01*
X66470829Y-164470037D01*
X66567261Y-164459901D01*
X66575092Y-164459956D01*
X66578567Y-164459615D01*
X66701818Y-164446660D01*
X66723991Y-164442109D01*
X66746269Y-164437859D01*
X66749611Y-164436850D01*
X66867998Y-164400203D01*
X66888877Y-164391427D01*
X66909895Y-164382935D01*
X66912969Y-164381300D01*
X66912978Y-164381296D01*
X66912985Y-164381291D01*
X67021993Y-164322351D01*
X67040773Y-164309684D01*
X67059738Y-164297274D01*
X67062443Y-164295068D01*
X67153897Y-164219411D01*
X67191369Y-164289516D01*
X67231159Y-164338000D01*
X67191369Y-164386484D01*
X67135395Y-164491204D01*
X67100927Y-164604831D01*
X67089288Y-164723000D01*
X67089288Y-165223000D01*
X67100927Y-165341169D01*
X67135395Y-165454796D01*
X67191369Y-165559516D01*
X67266697Y-165651303D01*
X67358484Y-165726631D01*
X67463204Y-165782605D01*
X67576831Y-165817073D01*
X67695000Y-165828712D01*
X68195000Y-165828712D01*
X68313169Y-165817073D01*
X68426796Y-165782605D01*
X68531516Y-165726631D01*
X68552805Y-165709159D01*
X70295645Y-167452000D01*
X70239416Y-167452000D01*
X70006806Y-167498269D01*
X69787692Y-167589029D01*
X69590495Y-167720792D01*
X69422792Y-167888495D01*
X69291029Y-168085692D01*
X69200269Y-168304806D01*
X69154000Y-168537416D01*
X69154000Y-168774584D01*
X69200269Y-169007194D01*
X69291029Y-169226308D01*
X69422792Y-169423505D01*
X69590495Y-169591208D01*
X69787692Y-169722971D01*
X70006806Y-169813731D01*
X70239416Y-169860000D01*
X70476584Y-169860000D01*
X70709194Y-169813731D01*
X70928308Y-169722971D01*
X71125505Y-169591208D01*
X71293208Y-169423505D01*
X71424971Y-169226308D01*
X71515731Y-169007194D01*
X71562000Y-168774584D01*
X71562000Y-168718355D01*
X71769289Y-168925644D01*
X71769290Y-170039868D01*
X71766962Y-170063504D01*
X71776249Y-170157796D01*
X71798904Y-170232476D01*
X71803754Y-170248465D01*
X71848418Y-170332026D01*
X71908526Y-170405268D01*
X71926878Y-170420329D01*
X73474649Y-171968100D01*
X73438792Y-171953248D01*
X73080603Y-171882000D01*
X72715397Y-171882000D01*
X72357208Y-171953248D01*
X72019802Y-172093006D01*
X71716144Y-172295904D01*
X71457904Y-172554144D01*
X71255006Y-172857802D01*
X71115248Y-173195208D01*
X71044000Y-173553397D01*
X71044000Y-173918603D01*
X71115248Y-174276792D01*
X71255006Y-174614198D01*
X71457904Y-174917856D01*
X71716144Y-175176096D01*
X72019802Y-175378994D01*
X72357208Y-175518752D01*
X72715397Y-175590000D01*
X73080603Y-175590000D01*
X73438792Y-175518752D01*
X73776198Y-175378994D01*
X74079856Y-175176096D01*
X74338096Y-174917856D01*
X74540994Y-174614198D01*
X74680752Y-174276792D01*
X74708906Y-174135253D01*
X74778965Y-174205312D01*
X74899347Y-174285748D01*
X75033109Y-174341154D01*
X75175109Y-174369400D01*
X75319891Y-174369400D01*
X75461891Y-174341154D01*
X75595653Y-174285748D01*
X75716035Y-174205312D01*
X75805947Y-174115400D01*
X76330964Y-174115400D01*
X76404799Y-174189236D01*
X76404799Y-174230535D01*
X76402472Y-174254161D01*
X76411759Y-174348453D01*
X76419128Y-174372746D01*
X76439263Y-174439121D01*
X76483927Y-174522683D01*
X76544035Y-174595925D01*
X76562393Y-174610991D01*
X77624001Y-175672599D01*
X77624001Y-175948753D01*
X77623204Y-175948995D01*
X77518484Y-176004969D01*
X77470000Y-176044759D01*
X77421516Y-176004969D01*
X77316796Y-175948995D01*
X77203169Y-175914527D01*
X77085000Y-175902888D01*
X76585000Y-175902888D01*
X76466831Y-175914527D01*
X76353204Y-175948995D01*
X76248484Y-176004969D01*
X76156697Y-176080297D01*
X76081369Y-176172084D01*
X76025395Y-176276804D01*
X75990927Y-176390431D01*
X75979288Y-176508600D01*
X75979288Y-177008600D01*
X75990927Y-177126769D01*
X76025395Y-177240396D01*
X76081369Y-177345116D01*
X76156697Y-177436903D01*
X76248484Y-177512231D01*
X76353204Y-177568205D01*
X76466831Y-177602673D01*
X76585000Y-177614312D01*
X77085000Y-177614312D01*
X77203169Y-177602673D01*
X77316796Y-177568205D01*
X77421516Y-177512231D01*
X77470000Y-177472441D01*
X77518484Y-177512231D01*
X77623204Y-177568205D01*
X77736831Y-177602673D01*
X77855000Y-177614312D01*
X78355000Y-177614312D01*
X78473169Y-177602673D01*
X78586796Y-177568205D01*
X78691516Y-177512231D01*
X78740000Y-177472441D01*
X78788484Y-177512231D01*
X78893204Y-177568205D01*
X79006831Y-177602673D01*
X79125000Y-177614312D01*
X79625000Y-177614312D01*
X79658066Y-177611055D01*
X79718683Y-177684917D01*
X79810045Y-177759896D01*
X79914279Y-177815610D01*
X80027379Y-177849918D01*
X80145000Y-177861503D01*
X80345000Y-177858600D01*
X80495000Y-177708600D01*
X80495000Y-176908600D01*
X80475000Y-176908600D01*
X80475000Y-176608600D01*
X80495000Y-176608600D01*
X80495000Y-175808600D01*
X80345000Y-175658600D01*
X80145000Y-175655697D01*
X80027379Y-175667282D01*
X79983000Y-175680744D01*
X79983000Y-173862001D01*
X80205981Y-173862001D01*
X80235841Y-173864942D01*
X80265701Y-173862001D01*
X80265702Y-173862001D01*
X80355030Y-173853203D01*
X80469638Y-173818437D01*
X80575262Y-173761980D01*
X80667842Y-173686002D01*
X80686884Y-173662799D01*
X82284804Y-172064880D01*
X82308002Y-172045842D01*
X82383980Y-171953262D01*
X82440437Y-171847638D01*
X82475203Y-171733030D01*
X82475601Y-171728985D01*
X82486943Y-171613841D01*
X82484001Y-171583973D01*
X82484001Y-168034016D01*
X82486942Y-168004158D01*
X82484001Y-167974298D01*
X82475203Y-167884970D01*
X82440437Y-167770362D01*
X82383980Y-167664738D01*
X82308002Y-167572158D01*
X82284800Y-167553117D01*
X82167400Y-167435717D01*
X82167400Y-165578319D01*
X82227297Y-165651303D01*
X82319084Y-165726631D01*
X82423804Y-165782605D01*
X82537431Y-165817073D01*
X82655600Y-165828712D01*
X83155600Y-165828712D01*
X83273769Y-165817073D01*
X83387396Y-165782605D01*
X83492116Y-165726631D01*
X83583903Y-165651303D01*
X83659231Y-165559516D01*
X83715205Y-165454796D01*
X83749673Y-165341169D01*
X83761312Y-165223000D01*
X83761312Y-164723000D01*
X83749673Y-164604831D01*
X83715205Y-164491204D01*
X83659231Y-164386484D01*
X83619441Y-164338000D01*
X83659231Y-164289516D01*
X83705337Y-164203258D01*
X83719859Y-164218088D01*
G37*
X83719859Y-164218088D02*
X83722549Y-164220313D01*
X83818588Y-164298640D01*
X83837445Y-164311169D01*
X83856157Y-164323982D01*
X83859223Y-164325639D01*
X83859227Y-164325642D01*
X83859231Y-164325644D01*
X83968651Y-164383823D01*
X83989556Y-164392440D01*
X84010427Y-164401385D01*
X84013762Y-164402417D01*
X84132402Y-164438237D01*
X84154643Y-164442641D01*
X84176794Y-164447349D01*
X84180264Y-164447714D01*
X84180266Y-164447714D01*
X84303605Y-164459807D01*
X84402547Y-164469508D01*
X84474257Y-164491159D01*
X84540391Y-164526323D01*
X84598436Y-164573663D01*
X84646187Y-164631384D01*
X84681811Y-164697269D01*
X84703963Y-164768829D01*
X84713001Y-164854819D01*
X84713000Y-167160609D01*
X84671085Y-167165311D01*
X84648906Y-167170025D01*
X84626695Y-167174423D01*
X84623362Y-167175454D01*
X84623356Y-167175456D01*
X84387102Y-167250400D01*
X84366276Y-167259326D01*
X84345326Y-167267961D01*
X84342256Y-167269621D01*
X84125053Y-167389029D01*
X84106361Y-167401828D01*
X84087485Y-167414369D01*
X84084795Y-167416595D01*
X83894923Y-167575917D01*
X83879083Y-167592092D01*
X83862992Y-167608071D01*
X83860786Y-167610776D01*
X83705475Y-167803944D01*
X83693089Y-167822872D01*
X83680396Y-167841689D01*
X83678761Y-167844767D01*
X83678758Y-167844771D01*
X83678758Y-167844772D01*
X83563926Y-168064427D01*
X83555462Y-168085376D01*
X83546657Y-168106321D01*
X83545649Y-168109664D01*
X83475667Y-168347440D01*
X83471429Y-168369655D01*
X83466864Y-168391894D01*
X83466524Y-168395368D01*
X83444060Y-168642208D01*
X83444218Y-168664827D01*
X83444059Y-168687523D01*
X83444400Y-168690998D01*
X83470308Y-168937501D01*
X83474866Y-168959703D01*
X83479110Y-168981955D01*
X83480118Y-168985289D01*
X83480119Y-168985296D01*
X83480122Y-168985302D01*
X83553415Y-169222073D01*
X83562182Y-169242929D01*
X83570682Y-169263968D01*
X83572320Y-169267047D01*
X83572322Y-169267052D01*
X83572325Y-169267056D01*
X83690210Y-169485081D01*
X83702877Y-169503861D01*
X83715287Y-169522826D01*
X83717488Y-169525524D01*
X83717493Y-169525531D01*
X83717499Y-169525537D01*
X83875487Y-169716511D01*
X83891559Y-169732471D01*
X83907418Y-169748666D01*
X83910102Y-169750886D01*
X83910108Y-169750892D01*
X83910115Y-169750896D01*
X84102185Y-169907546D01*
X84121053Y-169920082D01*
X84139754Y-169932887D01*
X84142821Y-169934544D01*
X84142825Y-169934547D01*
X84142829Y-169934549D01*
X84361673Y-170050910D01*
X84382611Y-170059540D01*
X84403447Y-170068471D01*
X84406782Y-170069503D01*
X84644063Y-170141143D01*
X84666289Y-170145544D01*
X84688454Y-170150255D01*
X84691926Y-170150620D01*
X84713000Y-170152686D01*
X84713001Y-172453763D01*
X84704492Y-172540547D01*
X84682842Y-172612255D01*
X84647677Y-172678391D01*
X84600332Y-172736441D01*
X84542616Y-172784187D01*
X84476731Y-172819811D01*
X84405170Y-172841963D01*
X84308739Y-172852099D01*
X84300908Y-172852044D01*
X84297433Y-172852385D01*
X84174182Y-172865340D01*
X84152009Y-172869891D01*
X84129731Y-172874141D01*
X84126389Y-172875150D01*
X84008001Y-172911797D01*
X83987150Y-172920562D01*
X83966104Y-172929065D01*
X83963022Y-172930705D01*
X83854007Y-172989649D01*
X83835227Y-173002316D01*
X83816262Y-173014726D01*
X83813564Y-173016927D01*
X83813557Y-173016932D01*
X83813551Y-173016938D01*
X83718067Y-173095928D01*
X83702123Y-173111984D01*
X83685912Y-173127859D01*
X83683687Y-173130549D01*
X83605359Y-173226588D01*
X83592823Y-173245456D01*
X83580018Y-173264157D01*
X83578358Y-173267228D01*
X83520176Y-173376652D01*
X83511547Y-173397588D01*
X83502615Y-173418427D01*
X83501583Y-173421762D01*
X83465763Y-173540403D01*
X83461364Y-173562620D01*
X83456651Y-173584795D01*
X83456286Y-173588267D01*
X83444193Y-173711605D01*
X83444193Y-173711623D01*
X83443001Y-173723725D01*
X83443000Y-176263773D01*
X83434492Y-176350547D01*
X83412842Y-176422255D01*
X83377677Y-176488391D01*
X83330332Y-176546441D01*
X83272616Y-176594187D01*
X83206731Y-176629811D01*
X83135170Y-176651963D01*
X83049190Y-176661000D01*
X81775725Y-176661000D01*
X81764847Y-176662071D01*
X81760908Y-176662044D01*
X81757433Y-176662385D01*
X81745000Y-176663692D01*
X81745000Y-176608598D01*
X81595002Y-176608598D01*
X81745000Y-176458600D01*
X81747903Y-176258600D01*
X81736318Y-176140979D01*
X81702010Y-176027879D01*
X81646296Y-175923645D01*
X81571317Y-175832283D01*
X81479955Y-175757304D01*
X81375721Y-175701590D01*
X81262621Y-175667282D01*
X81145000Y-175655697D01*
X80945000Y-175658600D01*
X80795000Y-175808600D01*
X80795000Y-176608600D01*
X80815000Y-176608600D01*
X80815000Y-176908600D01*
X80795000Y-176908600D01*
X80795000Y-177708600D01*
X80840146Y-177753746D01*
X80837677Y-177758391D01*
X80790332Y-177816441D01*
X80732616Y-177864187D01*
X80666731Y-177899811D01*
X80595170Y-177921963D01*
X80509190Y-177931000D01*
X75910391Y-177931000D01*
X75905689Y-177889085D01*
X75900975Y-177866906D01*
X75896577Y-177844695D01*
X75895545Y-177841360D01*
X75820600Y-177605102D01*
X75811674Y-177584276D01*
X75803039Y-177563326D01*
X75801379Y-177560256D01*
X75681971Y-177343053D01*
X75669172Y-177324361D01*
X75656631Y-177305485D01*
X75654405Y-177302795D01*
X75495083Y-177112923D01*
X75478908Y-177097083D01*
X75462929Y-177080992D01*
X75460224Y-177078786D01*
X75267056Y-176923475D01*
X75248128Y-176911089D01*
X75229311Y-176898396D01*
X75226233Y-176896761D01*
X75226229Y-176896758D01*
X75226225Y-176896756D01*
X75006573Y-176781926D01*
X74985624Y-176773462D01*
X74964679Y-176764657D01*
X74961336Y-176763649D01*
X74961334Y-176763648D01*
X74961330Y-176763647D01*
X74723560Y-176693667D01*
X74701345Y-176689429D01*
X74679106Y-176684864D01*
X74675634Y-176684524D01*
X74675632Y-176684524D01*
X74428792Y-176662060D01*
X74406173Y-176662218D01*
X74383477Y-176662059D01*
X74380003Y-176662400D01*
X74379999Y-176662400D01*
X74133499Y-176688308D01*
X74111290Y-176692867D01*
X74089046Y-176697110D01*
X74085714Y-176698117D01*
X74085704Y-176698119D01*
X74085695Y-176698123D01*
X73848927Y-176771415D01*
X73828085Y-176780176D01*
X73807031Y-176788682D01*
X73803953Y-176790320D01*
X73803948Y-176790322D01*
X73803944Y-176790325D01*
X73585919Y-176908210D01*
X73567155Y-176920866D01*
X73548174Y-176933287D01*
X73545476Y-176935488D01*
X73545469Y-176935493D01*
X73545463Y-176935499D01*
X73354489Y-177093487D01*
X73338512Y-177109576D01*
X73322334Y-177125418D01*
X73320114Y-177128102D01*
X73320108Y-177128108D01*
X73320104Y-177128115D01*
X73163454Y-177320186D01*
X73150923Y-177339046D01*
X73138113Y-177357755D01*
X73136456Y-177360821D01*
X73136453Y-177360825D01*
X73136453Y-177360826D01*
X73020090Y-177579674D01*
X73011471Y-177600586D01*
X73002529Y-177621447D01*
X73001497Y-177624782D01*
X72929857Y-177862063D01*
X72925458Y-177884280D01*
X72920745Y-177906454D01*
X72920380Y-177909926D01*
X72918314Y-177931000D01*
X70370226Y-177931000D01*
X70283453Y-177922492D01*
X70211745Y-177900842D01*
X70145609Y-177865677D01*
X70087559Y-177818332D01*
X70039813Y-177760616D01*
X70004189Y-177694731D01*
X69982037Y-177623170D01*
X69971901Y-177526739D01*
X69971956Y-177518908D01*
X69971615Y-177515433D01*
X69958660Y-177392182D01*
X69954109Y-177370009D01*
X69949859Y-177347731D01*
X69948850Y-177344389D01*
X69912203Y-177226001D01*
X69903432Y-177205136D01*
X69894935Y-177184104D01*
X69893295Y-177181022D01*
X69879475Y-177155462D01*
X70004486Y-177155462D01*
X70004486Y-176508600D01*
X70823088Y-176508600D01*
X70823088Y-177008600D01*
X70834727Y-177126769D01*
X70869195Y-177240396D01*
X70925169Y-177345116D01*
X71000497Y-177436903D01*
X71092284Y-177512231D01*
X71197004Y-177568205D01*
X71310631Y-177602673D01*
X71428800Y-177614312D01*
X71928800Y-177614312D01*
X72046969Y-177602673D01*
X72160596Y-177568205D01*
X72265316Y-177512231D01*
X72357103Y-177436903D01*
X72432431Y-177345116D01*
X72488405Y-177240396D01*
X72522873Y-177126769D01*
X72534512Y-177008600D01*
X72534512Y-176508600D01*
X72522873Y-176390431D01*
X72488405Y-176276804D01*
X72432431Y-176172084D01*
X72357103Y-176080297D01*
X72265316Y-176004969D01*
X72160596Y-175948995D01*
X72046969Y-175914527D01*
X71928800Y-175902888D01*
X71428800Y-175902888D01*
X71310631Y-175914527D01*
X71197004Y-175948995D01*
X71092284Y-176004969D01*
X71000497Y-176080297D01*
X70925169Y-176172084D01*
X70869195Y-176276804D01*
X70834727Y-176390431D01*
X70823088Y-176508600D01*
X70004486Y-176508600D01*
X70004486Y-175336212D01*
X67433000Y-175336212D01*
X67433000Y-173723725D01*
X67431929Y-173712847D01*
X67431956Y-173708908D01*
X67431615Y-173705433D01*
X67418660Y-173582182D01*
X67414105Y-173559991D01*
X67409859Y-173537731D01*
X67408850Y-173534389D01*
X67372203Y-173416001D01*
X67363438Y-173395150D01*
X67354935Y-173374104D01*
X67353295Y-173371022D01*
X67294351Y-173262007D01*
X67281684Y-173243227D01*
X67269274Y-173224262D01*
X67267073Y-173221564D01*
X67267068Y-173221557D01*
X67267062Y-173221551D01*
X67188072Y-173126067D01*
X67172016Y-173110123D01*
X67156141Y-173093912D01*
X67153451Y-173091687D01*
X67057412Y-173013359D01*
X67038544Y-173000823D01*
X67019843Y-172988018D01*
X67016772Y-172986358D01*
X66907348Y-172928176D01*
X66886412Y-172919547D01*
X66865573Y-172910615D01*
X66862238Y-172909583D01*
X66743597Y-172873763D01*
X66721350Y-172869358D01*
X66699205Y-172864651D01*
X66695737Y-172864286D01*
X66695733Y-172864286D01*
X66572395Y-172852193D01*
X66572394Y-172852193D01*
X66473453Y-172842492D01*
X66401745Y-172820842D01*
X66335609Y-172785677D01*
X66277559Y-172738332D01*
X66229813Y-172680616D01*
X66194189Y-172614731D01*
X66172037Y-172543170D01*
X66163000Y-172457190D01*
X66163000Y-171844687D01*
X67190825Y-171844687D01*
X67191063Y-171847215D01*
X67191063Y-171847308D01*
X67191081Y-171847398D01*
X67191289Y-171849609D01*
X67193584Y-171872242D01*
X67200141Y-171904790D01*
X67206443Y-171937363D01*
X67207208Y-171939872D01*
X67207228Y-171939970D01*
X67207263Y-171940054D01*
X67207884Y-171942092D01*
X67214465Y-171963157D01*
X67227095Y-171992984D01*
X67239358Y-172022961D01*
X67241391Y-172026746D01*
X67241404Y-172026777D01*
X67241421Y-172026802D01*
X67241697Y-172027316D01*
X67252106Y-172046367D01*
X67269929Y-172072544D01*
X67287288Y-172098967D01*
X67290419Y-172102792D01*
X67304193Y-172119380D01*
X67326440Y-172141392D01*
X67348285Y-172163816D01*
X67352085Y-172166977D01*
X67368769Y-172180657D01*
X67394960Y-172198157D01*
X67420775Y-172216068D01*
X67425108Y-172218446D01*
X67444241Y-172228771D01*
X67473831Y-172241181D01*
X67495118Y-172250462D01*
X67613203Y-172449254D01*
X67622654Y-172467236D01*
X67633732Y-172489357D01*
X67643713Y-172510355D01*
X67652628Y-172530199D01*
X67660500Y-172548844D01*
X67667351Y-172566211D01*
X67673239Y-172582312D01*
X67677184Y-172594056D01*
X67676402Y-172596126D01*
X67670998Y-172628444D01*
X67664568Y-172660552D01*
X67664554Y-172666984D01*
X67663493Y-172673330D01*
X67664469Y-172706067D01*
X67664398Y-172738828D01*
X67665634Y-172745144D01*
X67665826Y-172751572D01*
X67673143Y-172783503D01*
X67679436Y-172815647D01*
X67681080Y-172821000D01*
X67685321Y-172834472D01*
X67685395Y-172834762D01*
X67685425Y-172834988D01*
X67686434Y-172847430D01*
X67686448Y-172847509D01*
X67686447Y-172847588D01*
X67692885Y-172883160D01*
X67700342Y-172924461D01*
X67700374Y-172924543D01*
X67700387Y-172924614D01*
X67713764Y-172958648D01*
X67728949Y-172997323D01*
X67728992Y-172997390D01*
X67729021Y-172997464D01*
X67749037Y-173028692D01*
X67771162Y-173063241D01*
X67771222Y-173063303D01*
X67771262Y-173063366D01*
X67796456Y-173089585D01*
X67825376Y-173119705D01*
X67825443Y-173119752D01*
X67825497Y-173119808D01*
X67857473Y-173142150D01*
X67889525Y-173164563D01*
X67889596Y-173164594D01*
X67889663Y-173164641D01*
X67925209Y-173180275D01*
X67961163Y-173196106D01*
X67961243Y-173196124D01*
X67961316Y-173196156D01*
X67998881Y-173204513D01*
X68037565Y-173213135D01*
X68037647Y-173213137D01*
X68037724Y-173213154D01*
X68056838Y-173213602D01*
X68046892Y-173226430D01*
X68035607Y-173240264D01*
X68024509Y-173253195D01*
X68013665Y-173265212D01*
X68002957Y-173276499D01*
X67992399Y-173287094D01*
X67982000Y-173297036D01*
X67971692Y-173306430D01*
X67961457Y-173315329D01*
X67951232Y-173323823D01*
X67941053Y-173331911D01*
X67930807Y-173339712D01*
X67920495Y-173347249D01*
X67910027Y-173354610D01*
X67899402Y-173361815D01*
X67888546Y-173368937D01*
X67877414Y-173376028D01*
X67865984Y-173383121D01*
X67854221Y-173390266D01*
X67841804Y-173397686D01*
X67829358Y-173405041D01*
X67816111Y-173412830D01*
X67816098Y-173412839D01*
X67815945Y-173412928D01*
X67802821Y-173420655D01*
X67802766Y-173420695D01*
X67801674Y-173421333D01*
X67788898Y-173428920D01*
X67788825Y-173428974D01*
X67786780Y-173430188D01*
X67774367Y-173437677D01*
X67774305Y-173437723D01*
X67771195Y-173439614D01*
X67759159Y-173447049D01*
X67759115Y-173447082D01*
X67759071Y-173447104D01*
X67754884Y-173449732D01*
X67743242Y-173457155D01*
X67742629Y-173457636D01*
X67741947Y-173457986D01*
X67737809Y-173460690D01*
X67726576Y-173468145D01*
X67725389Y-173469112D01*
X67724039Y-173469844D01*
X67719964Y-173472641D01*
X67709156Y-173480171D01*
X67707386Y-173481681D01*
X67705376Y-173482842D01*
X67701377Y-173485749D01*
X67691009Y-173493397D01*
X67688670Y-173495504D01*
X67685996Y-173497164D01*
X67682091Y-173500195D01*
X67672179Y-173508004D01*
X67669282Y-173510785D01*
X67665956Y-173513022D01*
X67662164Y-173516194D01*
X67652723Y-173524208D01*
X67649349Y-173527693D01*
X67645437Y-173530565D01*
X67641780Y-173533891D01*
X67632824Y-173542152D01*
X67629032Y-173546406D01*
X67624601Y-173549985D01*
X67621101Y-173553476D01*
X67612646Y-173562027D01*
X67608537Y-173567088D01*
X67603687Y-173571429D01*
X67600368Y-173575093D01*
X67592432Y-173583977D01*
X67588164Y-173589815D01*
X67583055Y-173594917D01*
X67579941Y-173598756D01*
X67572537Y-173608018D01*
X67568254Y-173614603D01*
X67563029Y-173620467D01*
X67560144Y-173624481D01*
X67553288Y-173634163D01*
X67549150Y-173641417D01*
X67543987Y-173647976D01*
X67541352Y-173652158D01*
X67535060Y-173662303D01*
X67531228Y-173670088D01*
X67526308Y-173677218D01*
X67523941Y-173681557D01*
X67518228Y-173692208D01*
X67514834Y-173700358D01*
X67510296Y-173707923D01*
X67508209Y-173712405D01*
X67503091Y-173723605D01*
X67500233Y-173731925D01*
X67496200Y-173739732D01*
X67494402Y-173744336D01*
X67489894Y-173756129D01*
X67487626Y-173764408D01*
X67484175Y-173772251D01*
X67482667Y-173776959D01*
X67478784Y-173789386D01*
X67477105Y-173797456D01*
X67474252Y-173805173D01*
X67473031Y-173809963D01*
X67469789Y-173823071D01*
X67468670Y-173830750D01*
X67466404Y-173838167D01*
X67465461Y-173843019D01*
X67462876Y-173856849D01*
X67462251Y-173864010D01*
X67460529Y-173870985D01*
X67459852Y-173875882D01*
X67457939Y-173890475D01*
X67457725Y-173897033D01*
X67456479Y-173903473D01*
X67456052Y-173908397D01*
X67454826Y-173923799D01*
X67454934Y-173929716D01*
X67454087Y-173935565D01*
X67453893Y-173940505D01*
X67453370Y-173956758D01*
X67453705Y-173961866D01*
X67453189Y-173966957D01*
X67453207Y-173971900D01*
X67453408Y-173990839D01*
X67453997Y-173996254D01*
X67453690Y-174001685D01*
X67453928Y-174006622D01*
X67454898Y-174024169D01*
X67455849Y-174030337D01*
X67455803Y-174036571D01*
X67456283Y-174041491D01*
X67457982Y-174057718D01*
X67459402Y-174064649D01*
X67459730Y-174071712D01*
X67460474Y-174076599D01*
X67462862Y-174091581D01*
X67464866Y-174099240D01*
X67465694Y-174107101D01*
X67466722Y-174111936D01*
X67469762Y-174125747D01*
X67472455Y-174134027D01*
X67473911Y-174142612D01*
X67475242Y-174147373D01*
X67478894Y-174160088D01*
X67482365Y-174168844D01*
X67484556Y-174177993D01*
X67486202Y-174182654D01*
X67490427Y-174194345D01*
X67494712Y-174203343D01*
X67497706Y-174212848D01*
X67499675Y-174217382D01*
X67504432Y-174228125D01*
X67509511Y-174237108D01*
X67513311Y-174246698D01*
X67515602Y-174251078D01*
X67520853Y-174260947D01*
X67526613Y-174269611D01*
X67531134Y-174278973D01*
X67533737Y-174283176D01*
X67539442Y-174292244D01*
X67545682Y-174300296D01*
X67550753Y-174309127D01*
X67553649Y-174313133D01*
X67559769Y-174321475D01*
X67566232Y-174328686D01*
X67571618Y-174336735D01*
X67574782Y-174340533D01*
X67581278Y-174348222D01*
X67587631Y-174354402D01*
X67593019Y-174361435D01*
X67596418Y-174365024D01*
X67603251Y-174372136D01*
X67609201Y-174377226D01*
X67614309Y-174383148D01*
X67617911Y-174386533D01*
X67625042Y-174393141D01*
X67630255Y-174397101D01*
X67634776Y-174401833D01*
X67638546Y-174405031D01*
X67645933Y-174411210D01*
X67650235Y-174414146D01*
X67653988Y-174417748D01*
X67657892Y-174420780D01*
X67665499Y-174426601D01*
X67668644Y-174428553D01*
X67670727Y-174430418D01*
X67668320Y-174451772D01*
X67665133Y-174478261D01*
X67665101Y-174479710D01*
X67664802Y-174481118D01*
X67664285Y-174486034D01*
X67661858Y-174510812D01*
X67661859Y-174516008D01*
X67661000Y-174521128D01*
X67660696Y-174526062D01*
X67659478Y-174548414D01*
X67659897Y-174558085D01*
X67658954Y-174567715D01*
X67658989Y-174572658D01*
X67659277Y-174593116D01*
X67660883Y-174607417D01*
X67660847Y-174621794D01*
X67661350Y-174626712D01*
X67663443Y-174645802D01*
X67667188Y-174663641D01*
X67669267Y-174681740D01*
X67670341Y-174686565D01*
X67674539Y-174704819D01*
X67680876Y-174723703D01*
X67685624Y-174743038D01*
X67687298Y-174747690D01*
X67693899Y-174765635D01*
X67702133Y-174782671D01*
X67708823Y-174800360D01*
X67711044Y-174804775D01*
X67720346Y-174822940D01*
X67728919Y-174836285D01*
X67736025Y-174850449D01*
X67738691Y-174854612D01*
X67750994Y-174873526D01*
X67759001Y-174883541D01*
X67765713Y-174894457D01*
X67768727Y-174898375D01*
X67782853Y-174916465D01*
X67793078Y-174927208D01*
X67802035Y-174939017D01*
X67805417Y-174942622D01*
X67820607Y-174958584D01*
X67832825Y-174969138D01*
X67843872Y-174980903D01*
X67847613Y-174984133D01*
X67863867Y-174997967D01*
X67877956Y-175007760D01*
X67890998Y-175018881D01*
X67895073Y-175021678D01*
X67912392Y-175033384D01*
X67927987Y-175041835D01*
X67942695Y-175051726D01*
X67947062Y-175054041D01*
X67965444Y-175063618D01*
X67981958Y-175070263D01*
X67997767Y-175078444D01*
X68002370Y-175080245D01*
X68021817Y-175087695D01*
X68038577Y-175092299D01*
X68054804Y-175098509D01*
X68059580Y-175099783D01*
X68080091Y-175105104D01*
X68096359Y-175107663D01*
X68112258Y-175111869D01*
X68117142Y-175112628D01*
X68138717Y-175115821D01*
X68153942Y-175116571D01*
X68168988Y-175118978D01*
X68173924Y-175119245D01*
X68196563Y-175120309D01*
X68202420Y-175120011D01*
X68208239Y-175120664D01*
X68213182Y-175120699D01*
X68243769Y-175120699D01*
X68248065Y-175120278D01*
X68252362Y-175120594D01*
X68257302Y-175120440D01*
X68279546Y-175119589D01*
X68291193Y-175117996D01*
X68302939Y-175117916D01*
X68307851Y-175117367D01*
X68329301Y-175114814D01*
X68341565Y-175112120D01*
X68354056Y-175110974D01*
X68358904Y-175110011D01*
X68379560Y-175105755D01*
X68392135Y-175101852D01*
X68405090Y-175099498D01*
X68409834Y-175098111D01*
X68429695Y-175092153D01*
X68442273Y-175086995D01*
X68455365Y-175083366D01*
X68459965Y-175081556D01*
X68479031Y-175073895D01*
X68491225Y-175067550D01*
X68504067Y-175062689D01*
X68508482Y-175060466D01*
X68526754Y-175051103D01*
X68538223Y-175043731D01*
X68550477Y-175037771D01*
X68554672Y-175035157D01*
X68572150Y-175024092D01*
X68581787Y-175016579D01*
X68592287Y-175010349D01*
X68596252Y-175007396D01*
X68614442Y-174993647D01*
X68629147Y-174980085D01*
X68644919Y-174967782D01*
X68648477Y-174964351D01*
X68664117Y-174949058D01*
X68677992Y-174932548D01*
X68693034Y-174917114D01*
X68696096Y-174913233D01*
X68709188Y-174896394D01*
X68721109Y-174877510D01*
X68734309Y-174859498D01*
X68736798Y-174855228D01*
X68747341Y-174836845D01*
X68756441Y-174816630D01*
X68766936Y-174797105D01*
X68768809Y-174792530D01*
X68776803Y-174772603D01*
X68782714Y-174752335D01*
X68786158Y-174743185D01*
X68789570Y-174752595D01*
X68796000Y-174774738D01*
X68797867Y-174779315D01*
X68805629Y-174797969D01*
X68816575Y-174818388D01*
X68826168Y-174839448D01*
X68828676Y-174843708D01*
X68839142Y-174861202D01*
X68852342Y-174879047D01*
X68864251Y-174897760D01*
X68867326Y-174901630D01*
X68880495Y-174917966D01*
X68894806Y-174932542D01*
X68907896Y-174948208D01*
X68911445Y-174951650D01*
X68927316Y-174966826D01*
X68941612Y-174978043D01*
X68954798Y-174990530D01*
X68958722Y-174993536D01*
X68977298Y-175007554D01*
X68982901Y-175010979D01*
X68987891Y-175015245D01*
X68991963Y-175018047D01*
X69010770Y-175030791D01*
X69024367Y-175038180D01*
X69037074Y-175046986D01*
X69041409Y-175049362D01*
X69060757Y-175059789D01*
X69075983Y-175066165D01*
X69090472Y-175074059D01*
X69095036Y-175075958D01*
X69114925Y-175084068D01*
X69131389Y-175088971D01*
X69147282Y-175095466D01*
X69152028Y-175096848D01*
X69172457Y-175102640D01*
X69189547Y-175105724D01*
X69206257Y-175110456D01*
X69211128Y-175111299D01*
X69232098Y-175114775D01*
X69249158Y-175115911D01*
X69266006Y-175118726D01*
X69270940Y-175119027D01*
X69292450Y-175120186D01*
X69299522Y-175119875D01*
X69306554Y-175120664D01*
X69311497Y-175120699D01*
X69342084Y-175120699D01*
X69348282Y-175120091D01*
X69354493Y-175120481D01*
X69359432Y-175120274D01*
X69381831Y-175119175D01*
X69397488Y-175116860D01*
X69413287Y-175116219D01*
X69418178Y-175115504D01*
X69439649Y-175112209D01*
X69455959Y-175108044D01*
X69472606Y-175105536D01*
X69477390Y-175104293D01*
X69497936Y-175098800D01*
X69514251Y-175092677D01*
X69531063Y-175088172D01*
X69535678Y-175086401D01*
X69555296Y-175078712D01*
X69570927Y-175070747D01*
X69587250Y-175064325D01*
X69591636Y-175062045D01*
X69610328Y-175052157D01*
X69624637Y-175042695D01*
X69639800Y-175034692D01*
X69643907Y-175031941D01*
X69661671Y-175019858D01*
X69674209Y-175009403D01*
X69687748Y-175000305D01*
X69691541Y-174997135D01*
X69708379Y-174982855D01*
X69718931Y-174971966D01*
X69730605Y-174962308D01*
X69734063Y-174958777D01*
X69749974Y-174942300D01*
X69758539Y-174931494D01*
X69768306Y-174921775D01*
X69771427Y-174917942D01*
X69786411Y-174899268D01*
X69791173Y-174891975D01*
X69796947Y-174885456D01*
X69799820Y-174881434D01*
X69812496Y-174863418D01*
X69814301Y-174860231D01*
X69816632Y-174857409D01*
X69819364Y-174853290D01*
X69830064Y-174836908D01*
X69835680Y-174826144D01*
X69842610Y-174816183D01*
X69844994Y-174811853D01*
X69853504Y-174796132D01*
X69861628Y-174776834D01*
X69871211Y-174758229D01*
X69873004Y-174753622D01*
X69879110Y-174737593D01*
X69886138Y-174711820D01*
X69894300Y-174686402D01*
X69895312Y-174681564D01*
X69898803Y-174664254D01*
X69901509Y-174637626D01*
X69905385Y-174611181D01*
X69905587Y-174606242D01*
X69906249Y-174586683D01*
X69904847Y-174564776D01*
X69905013Y-174542831D01*
X69904534Y-174537911D01*
X69902153Y-174515129D01*
X69899030Y-174499869D01*
X69897564Y-174484368D01*
X69896587Y-174479522D01*
X69890951Y-174452549D01*
X69887975Y-174443054D01*
X69886346Y-174433232D01*
X69885032Y-174428467D01*
X69875928Y-174396329D01*
X69875667Y-174395664D01*
X69875538Y-174394963D01*
X69874138Y-174390222D01*
X69863412Y-174354799D01*
X69854429Y-174323336D01*
X69846336Y-174293114D01*
X69839082Y-174264057D01*
X69832644Y-174236201D01*
X69827003Y-174209617D01*
X69822102Y-174184187D01*
X69817892Y-174159850D01*
X69814357Y-174136708D01*
X69811441Y-174114632D01*
X69809115Y-174093683D01*
X69807330Y-174073740D01*
X69806051Y-174054821D01*
X69805238Y-174036910D01*
X69804854Y-174019955D01*
X69804859Y-174003904D01*
X69805220Y-173988682D01*
X69805902Y-173974305D01*
X69806870Y-173960746D01*
X69808095Y-173947920D01*
X69809563Y-173935691D01*
X69811233Y-173924138D01*
X69813086Y-173913179D01*
X69815125Y-173902657D01*
X69817324Y-173892587D01*
X69819659Y-173882969D01*
X69822154Y-173873619D01*
X69824796Y-173864531D01*
X69827561Y-173855724D01*
X69830498Y-173847000D01*
X69833611Y-173838313D01*
X69836851Y-173829771D01*
X69840316Y-173821089D01*
X69843968Y-173812341D01*
X69847778Y-173803568D01*
X69851849Y-173794508D01*
X69856194Y-173785108D01*
X69860716Y-173775547D01*
X69865599Y-173765401D01*
X69870769Y-173754776D01*
X69875979Y-173744120D01*
X69875983Y-173744109D01*
X69876082Y-173743910D01*
X69881421Y-173732971D01*
X69881444Y-173732909D01*
X69881976Y-173731829D01*
X69887148Y-173721135D01*
X69887181Y-173721046D01*
X69888183Y-173718975D01*
X69893161Y-173708503D01*
X69893188Y-173708428D01*
X69894637Y-173705357D01*
X69899394Y-173695090D01*
X69899398Y-173695079D01*
X69901374Y-173690741D01*
X69905881Y-173680658D01*
X69906065Y-173680109D01*
X69906348Y-173679608D01*
X69908319Y-173675075D01*
X69912549Y-173665159D01*
X69912935Y-173663934D01*
X69913544Y-173662803D01*
X69915419Y-173658229D01*
X69919345Y-173648456D01*
X69919912Y-173646516D01*
X69920820Y-173644721D01*
X69922579Y-173640101D01*
X69926174Y-173630453D01*
X69926899Y-173627716D01*
X69928098Y-173625159D01*
X69929718Y-173620489D01*
X69932953Y-173610945D01*
X69933771Y-173607438D01*
X69935186Y-173604130D01*
X69936645Y-173599407D01*
X69939494Y-173589949D01*
X69940358Y-173585572D01*
X69941948Y-173581413D01*
X69943222Y-173576637D01*
X69945656Y-173567243D01*
X69946472Y-173562046D01*
X69948134Y-173557059D01*
X69949198Y-173552232D01*
X69951190Y-173542884D01*
X69951867Y-173536874D01*
X69953502Y-173531050D01*
X69954333Y-173526178D01*
X69955856Y-173516854D01*
X69956292Y-173510069D01*
X69957785Y-173503436D01*
X69958360Y-173498527D01*
X69959386Y-173489209D01*
X69959475Y-173481757D01*
X69960701Y-173474413D01*
X69961002Y-173469479D01*
X69961504Y-173460148D01*
X69961152Y-173452142D01*
X69962001Y-173444185D01*
X69962010Y-173439242D01*
X69961960Y-173429875D01*
X69961093Y-173421493D01*
X69961471Y-173413082D01*
X69961176Y-173408148D01*
X69960546Y-173398726D01*
X69959130Y-173390199D01*
X69958977Y-173381553D01*
X69958373Y-173376647D01*
X69957137Y-173367152D01*
X69955164Y-173358615D01*
X69954454Y-173349884D01*
X69953541Y-173345026D01*
X69951669Y-173335436D01*
X69949199Y-173327174D01*
X69947965Y-173318642D01*
X69946750Y-173313850D01*
X69944217Y-173304146D01*
X69941317Y-173296278D01*
X69939613Y-173288073D01*
X69938108Y-173283365D01*
X69934886Y-173273528D01*
X69930143Y-173262742D01*
X69926829Y-173251439D01*
X69924950Y-173246867D01*
X69917625Y-173229392D01*
X69909494Y-173214317D01*
X69902888Y-173198512D01*
X69900516Y-173194175D01*
X69892022Y-173178905D01*
X69881212Y-173163283D01*
X69871822Y-173146773D01*
X69868943Y-173142754D01*
X69859347Y-173129560D01*
X69845864Y-173114389D01*
X69833656Y-173098186D01*
X69830285Y-173094570D01*
X69819650Y-173083322D01*
X69813507Y-173077981D01*
X69813451Y-173077918D01*
X69813322Y-173077820D01*
X69812249Y-173076887D01*
X69828314Y-173053072D01*
X69848778Y-173023837D01*
X69850181Y-173020655D01*
X69852125Y-173017773D01*
X69865959Y-172984868D01*
X69880356Y-172952213D01*
X69881114Y-172948821D01*
X69882462Y-172945614D01*
X69889648Y-172910615D01*
X69897421Y-172875820D01*
X69897505Y-172872344D01*
X69898205Y-172868937D01*
X69898752Y-172863363D01*
X69899028Y-172860330D01*
X69900399Y-172855439D01*
X69905668Y-172838857D01*
X69912024Y-172809029D01*
X69919662Y-172779517D01*
X69920165Y-172770820D01*
X69921981Y-172762299D01*
X69922422Y-172731788D01*
X69924181Y-172701371D01*
X69922986Y-172692747D01*
X69923112Y-172684030D01*
X69917620Y-172654022D01*
X69913437Y-172623835D01*
X69910589Y-172615605D01*
X69909020Y-172607033D01*
X69905894Y-172599126D01*
X69910714Y-172586366D01*
X69916926Y-172571316D01*
X69924116Y-172555289D01*
X69932358Y-172538297D01*
X69941796Y-172520220D01*
X69952531Y-172501032D01*
X69967174Y-172476513D01*
X69967209Y-172476439D01*
X69968857Y-172473665D01*
X70089610Y-172267114D01*
X70108750Y-172259084D01*
X70138450Y-172247113D01*
X70142817Y-172244797D01*
X70161950Y-172234473D01*
X70188075Y-172216884D01*
X70214457Y-172199784D01*
X70218302Y-172196677D01*
X70234985Y-172182997D01*
X70257165Y-172160856D01*
X70279700Y-172139172D01*
X70282885Y-172135392D01*
X70296659Y-172118803D01*
X70314416Y-172092578D01*
X70332561Y-172066713D01*
X70334962Y-172062392D01*
X70345370Y-172043342D01*
X70358055Y-172013530D01*
X70371099Y-171983885D01*
X70372407Y-171979799D01*
X70372420Y-171979769D01*
X70372427Y-171979737D01*
X70372606Y-171979177D01*
X70379187Y-171958112D01*
X70385967Y-171925517D01*
X70392954Y-171893174D01*
X70393238Y-171890560D01*
X70393256Y-171890471D01*
X70393257Y-171890382D01*
X70393487Y-171888260D01*
X70395782Y-171865626D01*
X70395892Y-171832378D01*
X70396249Y-171799158D01*
X70396011Y-171796631D01*
X70396011Y-171796538D01*
X70395993Y-171796448D01*
X70395785Y-171794237D01*
X70393490Y-171771582D01*
X70386964Y-171739168D01*
X70380708Y-171706695D01*
X70379870Y-171703937D01*
X70379853Y-171703852D01*
X70379821Y-171703774D01*
X70379271Y-171701965D01*
X70372690Y-171680842D01*
X70360160Y-171651185D01*
X70348011Y-171621335D01*
X70345806Y-171617211D01*
X70345801Y-171617200D01*
X70345795Y-171617191D01*
X70345680Y-171616976D01*
X70335271Y-171597842D01*
X70317603Y-171571791D01*
X70300405Y-171545455D01*
X70297285Y-171541621D01*
X70283512Y-171524938D01*
X70261373Y-171502910D01*
X70239703Y-171480514D01*
X70235914Y-171477340D01*
X70219230Y-171463565D01*
X70193087Y-171445968D01*
X70167332Y-171427971D01*
X70163007Y-171425578D01*
X70143874Y-171415170D01*
X70114175Y-171402597D01*
X70084716Y-171389663D01*
X70080270Y-171388243D01*
X70080251Y-171388235D01*
X70080234Y-171388231D01*
X70080007Y-171388159D01*
X70058883Y-171381578D01*
X70026452Y-171374859D01*
X69994182Y-171367892D01*
X69991322Y-171367582D01*
X69991231Y-171367563D01*
X69991141Y-171367562D01*
X69989267Y-171367359D01*
X69966612Y-171365064D01*
X69933333Y-171364957D01*
X69900144Y-171364603D01*
X69897617Y-171364841D01*
X69897524Y-171364841D01*
X69897434Y-171364859D01*
X69895223Y-171365067D01*
X69872589Y-171367362D01*
X69840058Y-171373915D01*
X69807466Y-171380221D01*
X69804946Y-171380989D01*
X69804861Y-171381006D01*
X69804782Y-171381039D01*
X69802737Y-171381662D01*
X69781672Y-171388243D01*
X69751844Y-171400873D01*
X69721861Y-171413140D01*
X69718089Y-171415166D01*
X69718052Y-171415182D01*
X69718022Y-171415202D01*
X69717507Y-171415479D01*
X69698457Y-171425887D01*
X69672309Y-171443691D01*
X69645862Y-171461067D01*
X69642037Y-171464198D01*
X69625447Y-171477973D01*
X69603418Y-171500238D01*
X69581020Y-171522056D01*
X69577859Y-171525856D01*
X69564179Y-171542539D01*
X69546696Y-171568704D01*
X69528755Y-171594565D01*
X69526376Y-171598899D01*
X69516052Y-171618032D01*
X69503643Y-171647622D01*
X69490843Y-171676976D01*
X69489351Y-171681689D01*
X69482828Y-171702813D01*
X69476250Y-171734971D01*
X69469366Y-171767005D01*
X69468997Y-171770429D01*
X69468983Y-171770500D01*
X69468983Y-171770567D01*
X69468837Y-171771920D01*
X69468291Y-171777359D01*
X69451475Y-171791535D01*
X69433154Y-171806685D01*
X69414573Y-171821733D01*
X69395832Y-171836574D01*
X69376956Y-171851165D01*
X69358178Y-171865301D01*
X69339319Y-171879099D01*
X69320678Y-171892318D01*
X69302359Y-171904872D01*
X69284335Y-171916768D01*
X69276965Y-171921432D01*
X69274041Y-171913273D01*
X69267898Y-171895075D01*
X69261956Y-171876392D01*
X69256249Y-171857337D01*
X69250745Y-171837823D01*
X69245469Y-171817951D01*
X69240416Y-171797734D01*
X69235585Y-171777199D01*
X69230959Y-171756301D01*
X69226559Y-171735174D01*
X69222348Y-171713679D01*
X69218344Y-171691951D01*
X69214525Y-171669917D01*
X69210934Y-171647905D01*
X69207502Y-171625557D01*
X69204242Y-171603015D01*
X69201139Y-171580235D01*
X69198220Y-171557519D01*
X69196235Y-171541168D01*
X69205080Y-171530507D01*
X69207821Y-171526394D01*
X69220675Y-171506809D01*
X69232186Y-171484865D01*
X69244886Y-171463608D01*
X69246965Y-171459123D01*
X69257107Y-171436824D01*
X69265600Y-171411956D01*
X69275247Y-171387525D01*
X69276572Y-171382763D01*
X69283226Y-171358181D01*
X69287927Y-171330226D01*
X69293605Y-171302485D01*
X69294085Y-171297565D01*
X69296475Y-171271135D01*
X69296265Y-171243389D01*
X69297126Y-171215656D01*
X69296763Y-171210727D01*
X69294854Y-171187115D01*
X69290223Y-171161433D01*
X69286835Y-171135593D01*
X69285684Y-171130786D01*
X69280159Y-171108409D01*
X69271607Y-171084217D01*
X69264284Y-171059622D01*
X69262386Y-171055058D01*
X69253545Y-171034210D01*
X69241506Y-171012111D01*
X69230661Y-170989404D01*
X69228076Y-170985191D01*
X69216220Y-170966166D01*
X69201128Y-170946519D01*
X69187146Y-170926064D01*
X69183945Y-170922297D01*
X69169375Y-170905390D01*
X69151568Y-170888405D01*
X69134746Y-170870444D01*
X69131009Y-170867208D01*
X69114026Y-170852716D01*
X69093777Y-170838602D01*
X69074351Y-170823379D01*
X69070163Y-170820753D01*
X69051068Y-170808967D01*
X69028613Y-170797974D01*
X69006792Y-170785785D01*
X69002248Y-170783838D01*
X68981342Y-170775055D01*
X68957043Y-170767539D01*
X68933172Y-170758779D01*
X68928379Y-170757570D01*
X68905961Y-170752084D01*
X68880380Y-170748420D01*
X68855025Y-170743499D01*
X68850100Y-170743069D01*
X68826474Y-170741175D01*
X68800637Y-170741634D01*
X68774827Y-170740815D01*
X68769897Y-170741175D01*
X68746272Y-170743069D01*
X68720837Y-170747638D01*
X68695222Y-170750943D01*
X68690412Y-170752084D01*
X68667995Y-170757570D01*
X68643991Y-170766000D01*
X68619601Y-170773173D01*
X68615031Y-170775055D01*
X68594125Y-170783838D01*
X68572123Y-170795729D01*
X68549529Y-170806401D01*
X68545304Y-170808968D01*
X68526210Y-170820753D01*
X68506568Y-170835707D01*
X68486129Y-170849534D01*
X68482347Y-170852716D01*
X68465364Y-170867209D01*
X68448294Y-170884933D01*
X68430251Y-170901668D01*
X68426998Y-170905390D01*
X68412428Y-170922297D01*
X68398161Y-170942556D01*
X68382797Y-170961989D01*
X68380153Y-170966166D01*
X68368297Y-170985191D01*
X68357131Y-171007754D01*
X68344790Y-171029673D01*
X68342828Y-171034210D01*
X68333987Y-171055058D01*
X68326319Y-171079556D01*
X68317433Y-171103618D01*
X68316214Y-171108409D01*
X68310689Y-171130786D01*
X68306937Y-171156602D01*
X68301953Y-171182191D01*
X68301519Y-171187115D01*
X68299610Y-171210727D01*
X68300062Y-171237201D01*
X68299301Y-171263649D01*
X68299676Y-171268578D01*
X68301652Y-171292350D01*
X68306514Y-171318969D01*
X68310237Y-171345750D01*
X68311425Y-171350548D01*
X68317138Y-171372938D01*
X68326219Y-171398004D01*
X68334169Y-171423451D01*
X68336128Y-171427989D01*
X68345253Y-171448727D01*
X68358021Y-171471433D01*
X68369668Y-171494707D01*
X68372329Y-171498872D01*
X68384542Y-171517691D01*
X68400384Y-171537547D01*
X68405773Y-171545073D01*
X68403041Y-171569047D01*
X68399815Y-171596036D01*
X68396444Y-171622847D01*
X68392913Y-171649507D01*
X68389245Y-171675736D01*
X68385447Y-171701419D01*
X68381449Y-171726935D01*
X68377321Y-171751779D01*
X68373051Y-171775972D01*
X68368601Y-171799682D01*
X68364009Y-171822647D01*
X68359276Y-171844835D01*
X68354397Y-171866251D01*
X68349425Y-171886656D01*
X68344346Y-171906111D01*
X68339201Y-171924479D01*
X68336649Y-171932954D01*
X68322047Y-171923803D01*
X68304759Y-171912466D01*
X68287043Y-171900367D01*
X68268849Y-171887476D01*
X68250464Y-171874005D01*
X68231883Y-171859966D01*
X68213152Y-171845412D01*
X68194504Y-171830541D01*
X68175916Y-171815360D01*
X68157422Y-171799918D01*
X68139263Y-171784440D01*
X68121322Y-171768852D01*
X68119359Y-171767115D01*
X68118234Y-171755902D01*
X68111784Y-171723707D01*
X68105668Y-171691526D01*
X68104677Y-171688236D01*
X68104662Y-171688159D01*
X68104634Y-171688091D01*
X68104243Y-171686793D01*
X68097720Y-171665669D01*
X68085301Y-171636068D01*
X68073335Y-171606379D01*
X68071019Y-171602012D01*
X68060695Y-171582879D01*
X68043112Y-171556764D01*
X68026000Y-171530364D01*
X68022893Y-171526520D01*
X68009212Y-171509836D01*
X67987088Y-171487675D01*
X67965404Y-171465138D01*
X67961624Y-171461953D01*
X67945035Y-171448178D01*
X67918812Y-171430420D01*
X67892923Y-171412261D01*
X67888602Y-171409860D01*
X67869552Y-171399453D01*
X67839684Y-171386745D01*
X67810106Y-171373731D01*
X67806020Y-171372423D01*
X67805978Y-171372405D01*
X67805938Y-171372397D01*
X67805399Y-171372224D01*
X67784334Y-171365643D01*
X67751814Y-171358879D01*
X67719412Y-171351878D01*
X67716779Y-171351592D01*
X67716693Y-171351574D01*
X67716606Y-171351573D01*
X67714497Y-171351344D01*
X67691864Y-171349048D01*
X67658500Y-171348936D01*
X67625365Y-171348582D01*
X67622864Y-171348817D01*
X67622775Y-171348817D01*
X67622689Y-171348834D01*
X67620443Y-171349045D01*
X67597788Y-171351341D01*
X67565366Y-171357871D01*
X67532917Y-171364122D01*
X67530140Y-171364966D01*
X67530059Y-171364982D01*
X67529985Y-171365013D01*
X67528187Y-171365559D01*
X67507064Y-171372140D01*
X67477364Y-171384688D01*
X67447569Y-171396813D01*
X67443437Y-171399023D01*
X67443422Y-171399029D01*
X67443411Y-171399037D01*
X67443210Y-171399144D01*
X67424077Y-171409551D01*
X67398025Y-171427218D01*
X67371675Y-171444425D01*
X67367841Y-171447545D01*
X67351157Y-171461320D01*
X67329153Y-171483436D01*
X67306733Y-171505129D01*
X67303559Y-171508918D01*
X67289785Y-171525601D01*
X67272187Y-171551746D01*
X67254193Y-171577497D01*
X67251800Y-171581822D01*
X67241392Y-171600955D01*
X67228819Y-171630654D01*
X67215885Y-171660113D01*
X67214465Y-171664559D01*
X67214457Y-171664578D01*
X67214453Y-171664595D01*
X67214381Y-171664822D01*
X67207800Y-171685946D01*
X67201084Y-171718367D01*
X67194113Y-171750649D01*
X67193802Y-171753516D01*
X67193785Y-171753598D01*
X67193784Y-171753680D01*
X67193580Y-171755563D01*
X67191285Y-171778219D01*
X67191178Y-171811473D01*
X67190825Y-171844687D01*
X66163000Y-171844687D01*
X66163000Y-170151391D01*
X66204916Y-170146689D01*
X66227102Y-170141973D01*
X66249305Y-170137577D01*
X66252638Y-170136546D01*
X66252644Y-170136544D01*
X66488898Y-170061600D01*
X66509724Y-170052674D01*
X66530674Y-170044039D01*
X66533745Y-170042379D01*
X66750947Y-169922970D01*
X66769655Y-169910161D01*
X66788515Y-169897630D01*
X66791200Y-169895409D01*
X66791206Y-169895405D01*
X66791211Y-169895400D01*
X66981077Y-169736083D01*
X66996901Y-169719924D01*
X67013008Y-169703929D01*
X67015214Y-169701223D01*
X67170525Y-169508056D01*
X67182901Y-169489144D01*
X67195604Y-169470311D01*
X67197239Y-169467233D01*
X67197242Y-169467229D01*
X67197244Y-169467225D01*
X67312074Y-169247574D01*
X67320554Y-169226586D01*
X67329343Y-169205678D01*
X67330349Y-169202342D01*
X67330352Y-169202335D01*
X67330353Y-169202328D01*
X67400333Y-168964560D01*
X67404570Y-168942351D01*
X67409136Y-168920106D01*
X67409476Y-168916632D01*
X67431940Y-168669792D01*
X67431782Y-168647173D01*
X67431941Y-168624477D01*
X67431600Y-168621003D01*
X67405692Y-168374499D01*
X67401133Y-168352290D01*
X67396890Y-168330046D01*
X67395883Y-168326714D01*
X67395881Y-168326704D01*
X67395877Y-168326695D01*
X67322585Y-168089927D01*
X67313824Y-168069085D01*
X67305318Y-168048031D01*
X67303678Y-168044949D01*
X67303678Y-168044948D01*
X67303675Y-168044944D01*
X67185790Y-167826919D01*
X67173134Y-167808155D01*
X67160713Y-167789174D01*
X67158512Y-167786476D01*
X67158507Y-167786469D01*
X67158501Y-167786463D01*
X67000513Y-167595489D01*
X66984424Y-167579512D01*
X66968582Y-167563334D01*
X66965898Y-167561114D01*
X66965892Y-167561108D01*
X66965885Y-167561104D01*
X66773814Y-167404454D01*
X66754954Y-167391923D01*
X66736245Y-167379113D01*
X66733179Y-167377456D01*
X66733175Y-167377453D01*
X66733171Y-167377451D01*
X66514326Y-167261090D01*
X66493414Y-167252471D01*
X66472553Y-167243529D01*
X66469218Y-167242497D01*
X66231937Y-167170857D01*
X66209711Y-167166456D01*
X66187546Y-167161745D01*
X66184074Y-167161380D01*
X66163000Y-167159314D01*
X66163000Y-164858227D01*
X66171508Y-164771453D01*
X66193159Y-164699743D01*
X66228323Y-164633609D01*
X66275663Y-164575564D01*
X66333384Y-164527813D01*
X66399269Y-164492189D01*
X66470829Y-164470037D01*
X66567261Y-164459901D01*
X66575092Y-164459956D01*
X66578567Y-164459615D01*
X66701818Y-164446660D01*
X66723991Y-164442109D01*
X66746269Y-164437859D01*
X66749611Y-164436850D01*
X66867998Y-164400203D01*
X66888877Y-164391427D01*
X66909895Y-164382935D01*
X66912969Y-164381300D01*
X66912978Y-164381296D01*
X66912985Y-164381291D01*
X67021993Y-164322351D01*
X67040773Y-164309684D01*
X67059738Y-164297274D01*
X67062443Y-164295068D01*
X67153897Y-164219411D01*
X67191369Y-164289516D01*
X67231159Y-164338000D01*
X67191369Y-164386484D01*
X67135395Y-164491204D01*
X67100927Y-164604831D01*
X67089288Y-164723000D01*
X67089288Y-165223000D01*
X67100927Y-165341169D01*
X67135395Y-165454796D01*
X67191369Y-165559516D01*
X67266697Y-165651303D01*
X67358484Y-165726631D01*
X67463204Y-165782605D01*
X67576831Y-165817073D01*
X67695000Y-165828712D01*
X68195000Y-165828712D01*
X68313169Y-165817073D01*
X68426796Y-165782605D01*
X68531516Y-165726631D01*
X68552805Y-165709159D01*
X70295645Y-167452000D01*
X70239416Y-167452000D01*
X70006806Y-167498269D01*
X69787692Y-167589029D01*
X69590495Y-167720792D01*
X69422792Y-167888495D01*
X69291029Y-168085692D01*
X69200269Y-168304806D01*
X69154000Y-168537416D01*
X69154000Y-168774584D01*
X69200269Y-169007194D01*
X69291029Y-169226308D01*
X69422792Y-169423505D01*
X69590495Y-169591208D01*
X69787692Y-169722971D01*
X70006806Y-169813731D01*
X70239416Y-169860000D01*
X70476584Y-169860000D01*
X70709194Y-169813731D01*
X70928308Y-169722971D01*
X71125505Y-169591208D01*
X71293208Y-169423505D01*
X71424971Y-169226308D01*
X71515731Y-169007194D01*
X71562000Y-168774584D01*
X71562000Y-168718355D01*
X71769289Y-168925644D01*
X71769290Y-170039868D01*
X71766962Y-170063504D01*
X71776249Y-170157796D01*
X71798904Y-170232476D01*
X71803754Y-170248465D01*
X71848418Y-170332026D01*
X71908526Y-170405268D01*
X71926878Y-170420329D01*
X73474649Y-171968100D01*
X73438792Y-171953248D01*
X73080603Y-171882000D01*
X72715397Y-171882000D01*
X72357208Y-171953248D01*
X72019802Y-172093006D01*
X71716144Y-172295904D01*
X71457904Y-172554144D01*
X71255006Y-172857802D01*
X71115248Y-173195208D01*
X71044000Y-173553397D01*
X71044000Y-173918603D01*
X71115248Y-174276792D01*
X71255006Y-174614198D01*
X71457904Y-174917856D01*
X71716144Y-175176096D01*
X72019802Y-175378994D01*
X72357208Y-175518752D01*
X72715397Y-175590000D01*
X73080603Y-175590000D01*
X73438792Y-175518752D01*
X73776198Y-175378994D01*
X74079856Y-175176096D01*
X74338096Y-174917856D01*
X74540994Y-174614198D01*
X74680752Y-174276792D01*
X74708906Y-174135253D01*
X74778965Y-174205312D01*
X74899347Y-174285748D01*
X75033109Y-174341154D01*
X75175109Y-174369400D01*
X75319891Y-174369400D01*
X75461891Y-174341154D01*
X75595653Y-174285748D01*
X75716035Y-174205312D01*
X75805947Y-174115400D01*
X76330964Y-174115400D01*
X76404799Y-174189236D01*
X76404799Y-174230535D01*
X76402472Y-174254161D01*
X76411759Y-174348453D01*
X76419128Y-174372746D01*
X76439263Y-174439121D01*
X76483927Y-174522683D01*
X76544035Y-174595925D01*
X76562393Y-174610991D01*
X77624001Y-175672599D01*
X77624001Y-175948753D01*
X77623204Y-175948995D01*
X77518484Y-176004969D01*
X77470000Y-176044759D01*
X77421516Y-176004969D01*
X77316796Y-175948995D01*
X77203169Y-175914527D01*
X77085000Y-175902888D01*
X76585000Y-175902888D01*
X76466831Y-175914527D01*
X76353204Y-175948995D01*
X76248484Y-176004969D01*
X76156697Y-176080297D01*
X76081369Y-176172084D01*
X76025395Y-176276804D01*
X75990927Y-176390431D01*
X75979288Y-176508600D01*
X75979288Y-177008600D01*
X75990927Y-177126769D01*
X76025395Y-177240396D01*
X76081369Y-177345116D01*
X76156697Y-177436903D01*
X76248484Y-177512231D01*
X76353204Y-177568205D01*
X76466831Y-177602673D01*
X76585000Y-177614312D01*
X77085000Y-177614312D01*
X77203169Y-177602673D01*
X77316796Y-177568205D01*
X77421516Y-177512231D01*
X77470000Y-177472441D01*
X77518484Y-177512231D01*
X77623204Y-177568205D01*
X77736831Y-177602673D01*
X77855000Y-177614312D01*
X78355000Y-177614312D01*
X78473169Y-177602673D01*
X78586796Y-177568205D01*
X78691516Y-177512231D01*
X78740000Y-177472441D01*
X78788484Y-177512231D01*
X78893204Y-177568205D01*
X79006831Y-177602673D01*
X79125000Y-177614312D01*
X79625000Y-177614312D01*
X79658066Y-177611055D01*
X79718683Y-177684917D01*
X79810045Y-177759896D01*
X79914279Y-177815610D01*
X80027379Y-177849918D01*
X80145000Y-177861503D01*
X80345000Y-177858600D01*
X80495000Y-177708600D01*
X80495000Y-176908600D01*
X80475000Y-176908600D01*
X80475000Y-176608600D01*
X80495000Y-176608600D01*
X80495000Y-175808600D01*
X80345000Y-175658600D01*
X80145000Y-175655697D01*
X80027379Y-175667282D01*
X79983000Y-175680744D01*
X79983000Y-173862001D01*
X80205981Y-173862001D01*
X80235841Y-173864942D01*
X80265701Y-173862001D01*
X80265702Y-173862001D01*
X80355030Y-173853203D01*
X80469638Y-173818437D01*
X80575262Y-173761980D01*
X80667842Y-173686002D01*
X80686884Y-173662799D01*
X82284804Y-172064880D01*
X82308002Y-172045842D01*
X82383980Y-171953262D01*
X82440437Y-171847638D01*
X82475203Y-171733030D01*
X82475601Y-171728985D01*
X82486943Y-171613841D01*
X82484001Y-171583973D01*
X82484001Y-168034016D01*
X82486942Y-168004158D01*
X82484001Y-167974298D01*
X82475203Y-167884970D01*
X82440437Y-167770362D01*
X82383980Y-167664738D01*
X82308002Y-167572158D01*
X82284800Y-167553117D01*
X82167400Y-167435717D01*
X82167400Y-165578319D01*
X82227297Y-165651303D01*
X82319084Y-165726631D01*
X82423804Y-165782605D01*
X82537431Y-165817073D01*
X82655600Y-165828712D01*
X83155600Y-165828712D01*
X83273769Y-165817073D01*
X83387396Y-165782605D01*
X83492116Y-165726631D01*
X83583903Y-165651303D01*
X83659231Y-165559516D01*
X83715205Y-165454796D01*
X83749673Y-165341169D01*
X83761312Y-165223000D01*
X83761312Y-164723000D01*
X83749673Y-164604831D01*
X83715205Y-164491204D01*
X83659231Y-164386484D01*
X83619441Y-164338000D01*
X83659231Y-164289516D01*
X83705337Y-164203258D01*
X83719859Y-164218088D01*
G36*
X80296847Y-164455948D02*
G01*
X80430609Y-164511354D01*
X80443391Y-164513897D01*
X80443390Y-166892301D01*
X79563714Y-166892301D01*
X79540098Y-166889975D01*
X79516482Y-166892301D01*
X79516473Y-166892301D01*
X79445807Y-166899261D01*
X79355138Y-166926765D01*
X79271577Y-166971429D01*
X79198335Y-167031537D01*
X79197955Y-167032000D01*
X79074009Y-167032000D01*
X78932009Y-167060246D01*
X78798247Y-167115652D01*
X78677865Y-167196088D01*
X78575488Y-167298465D01*
X78495052Y-167418847D01*
X78439646Y-167552609D01*
X78411400Y-167694609D01*
X78411400Y-167839391D01*
X78439646Y-167981391D01*
X78495052Y-168115153D01*
X78575488Y-168235535D01*
X78677865Y-168337912D01*
X78798247Y-168418348D01*
X78932009Y-168473754D01*
X79074009Y-168502000D01*
X79218791Y-168502000D01*
X79346489Y-168476599D01*
X79334000Y-168539386D01*
X79334000Y-168772614D01*
X79379500Y-169001360D01*
X79468753Y-169216834D01*
X79571053Y-169369937D01*
X79430603Y-169342000D01*
X79065397Y-169342000D01*
X78707208Y-169413248D01*
X78369802Y-169553006D01*
X78066144Y-169755904D01*
X77807904Y-170014144D01*
X77605006Y-170317802D01*
X77465248Y-170655208D01*
X77394000Y-171013397D01*
X77394000Y-171378603D01*
X77465248Y-171736792D01*
X77472477Y-171754243D01*
X77464523Y-171753460D01*
X77434663Y-171756401D01*
X76373763Y-171756401D01*
X76294449Y-171691310D01*
X76188825Y-171634853D01*
X76074217Y-171600087D01*
X75984889Y-171591289D01*
X75984888Y-171591289D01*
X75955028Y-171588348D01*
X75925168Y-171591289D01*
X75535953Y-171591289D01*
X74879607Y-170934942D01*
X75207127Y-171000090D01*
X75668873Y-171000090D01*
X76121746Y-170910008D01*
X76548343Y-170733306D01*
X76932270Y-170476774D01*
X77258774Y-170150270D01*
X77515306Y-169766343D01*
X77692008Y-169339746D01*
X77782090Y-168886873D01*
X77782090Y-168425127D01*
X77692008Y-167972254D01*
X77515306Y-167545657D01*
X77258774Y-167161730D01*
X77219687Y-167122643D01*
X77271114Y-167112414D01*
X77416432Y-167052222D01*
X77547214Y-166964836D01*
X77658436Y-166853614D01*
X77677154Y-166825600D01*
X77827374Y-166825600D01*
X77851000Y-166827927D01*
X77874626Y-166825600D01*
X77945292Y-166818640D01*
X78035961Y-166791136D01*
X78119522Y-166746472D01*
X78192764Y-166686364D01*
X78207830Y-166668006D01*
X79698411Y-165177426D01*
X79716763Y-165162365D01*
X79776871Y-165089123D01*
X79821535Y-165005562D01*
X79841710Y-164939053D01*
X79849039Y-164914894D01*
X79854574Y-164858701D01*
X80206410Y-164506865D01*
X80224763Y-164491803D01*
X80269296Y-164437539D01*
X80296847Y-164455948D01*
G37*
X80296847Y-164455948D02*
X80430609Y-164511354D01*
X80443391Y-164513897D01*
X80443390Y-166892301D01*
X79563714Y-166892301D01*
X79540098Y-166889975D01*
X79516482Y-166892301D01*
X79516473Y-166892301D01*
X79445807Y-166899261D01*
X79355138Y-166926765D01*
X79271577Y-166971429D01*
X79198335Y-167031537D01*
X79197955Y-167032000D01*
X79074009Y-167032000D01*
X78932009Y-167060246D01*
X78798247Y-167115652D01*
X78677865Y-167196088D01*
X78575488Y-167298465D01*
X78495052Y-167418847D01*
X78439646Y-167552609D01*
X78411400Y-167694609D01*
X78411400Y-167839391D01*
X78439646Y-167981391D01*
X78495052Y-168115153D01*
X78575488Y-168235535D01*
X78677865Y-168337912D01*
X78798247Y-168418348D01*
X78932009Y-168473754D01*
X79074009Y-168502000D01*
X79218791Y-168502000D01*
X79346489Y-168476599D01*
X79334000Y-168539386D01*
X79334000Y-168772614D01*
X79379500Y-169001360D01*
X79468753Y-169216834D01*
X79571053Y-169369937D01*
X79430603Y-169342000D01*
X79065397Y-169342000D01*
X78707208Y-169413248D01*
X78369802Y-169553006D01*
X78066144Y-169755904D01*
X77807904Y-170014144D01*
X77605006Y-170317802D01*
X77465248Y-170655208D01*
X77394000Y-171013397D01*
X77394000Y-171378603D01*
X77465248Y-171736792D01*
X77472477Y-171754243D01*
X77464523Y-171753460D01*
X77434663Y-171756401D01*
X76373763Y-171756401D01*
X76294449Y-171691310D01*
X76188825Y-171634853D01*
X76074217Y-171600087D01*
X75984889Y-171591289D01*
X75984888Y-171591289D01*
X75955028Y-171588348D01*
X75925168Y-171591289D01*
X75535953Y-171591289D01*
X74879607Y-170934942D01*
X75207127Y-171000090D01*
X75668873Y-171000090D01*
X76121746Y-170910008D01*
X76548343Y-170733306D01*
X76932270Y-170476774D01*
X77258774Y-170150270D01*
X77515306Y-169766343D01*
X77692008Y-169339746D01*
X77782090Y-168886873D01*
X77782090Y-168425127D01*
X77692008Y-167972254D01*
X77515306Y-167545657D01*
X77258774Y-167161730D01*
X77219687Y-167122643D01*
X77271114Y-167112414D01*
X77416432Y-167052222D01*
X77547214Y-166964836D01*
X77658436Y-166853614D01*
X77677154Y-166825600D01*
X77827374Y-166825600D01*
X77851000Y-166827927D01*
X77874626Y-166825600D01*
X77945292Y-166818640D01*
X78035961Y-166791136D01*
X78119522Y-166746472D01*
X78192764Y-166686364D01*
X78207830Y-166668006D01*
X79698411Y-165177426D01*
X79716763Y-165162365D01*
X79776871Y-165089123D01*
X79821535Y-165005562D01*
X79841710Y-164939053D01*
X79849039Y-164914894D01*
X79854574Y-164858701D01*
X80206410Y-164506865D01*
X80224763Y-164491803D01*
X80269296Y-164437539D01*
X80296847Y-164455948D01*
G36*
X71045401Y-164643408D02*
G01*
X71042459Y-164673278D01*
X71054198Y-164792466D01*
X71088965Y-164907075D01*
X71141608Y-165005563D01*
X71145422Y-165012699D01*
X71221400Y-165105279D01*
X71244598Y-165124317D01*
X71420652Y-165300371D01*
X71330647Y-165337652D01*
X71210265Y-165418088D01*
X71107888Y-165520465D01*
X71027452Y-165640847D01*
X70972046Y-165774609D01*
X70943800Y-165916609D01*
X70943800Y-166015999D01*
X70938552Y-166015999D01*
X69307010Y-164384458D01*
X69307010Y-164107637D01*
X69309337Y-164084010D01*
X69300050Y-163989717D01*
X69272546Y-163899048D01*
X69235869Y-163830431D01*
X69227882Y-163815488D01*
X69167774Y-163742246D01*
X69149416Y-163727180D01*
X68883379Y-163461143D01*
X68893961Y-163460101D01*
X70836141Y-163460101D01*
X70866001Y-163463042D01*
X70895861Y-163460101D01*
X70895862Y-163460101D01*
X70985190Y-163451303D01*
X70998056Y-163447400D01*
X71045400Y-163447400D01*
X71045401Y-164643408D01*
G37*
X71045401Y-164643408D02*
X71042459Y-164673278D01*
X71054198Y-164792466D01*
X71088965Y-164907075D01*
X71141608Y-165005563D01*
X71145422Y-165012699D01*
X71221400Y-165105279D01*
X71244598Y-165124317D01*
X71420652Y-165300371D01*
X71330647Y-165337652D01*
X71210265Y-165418088D01*
X71107888Y-165520465D01*
X71027452Y-165640847D01*
X70972046Y-165774609D01*
X70943800Y-165916609D01*
X70943800Y-166015999D01*
X70938552Y-166015999D01*
X69307010Y-164384458D01*
X69307010Y-164107637D01*
X69309337Y-164084010D01*
X69300050Y-163989717D01*
X69272546Y-163899048D01*
X69235869Y-163830431D01*
X69227882Y-163815488D01*
X69167774Y-163742246D01*
X69149416Y-163727180D01*
X68883379Y-163461143D01*
X68893961Y-163460101D01*
X70836141Y-163460101D01*
X70866001Y-163463042D01*
X70895861Y-163460101D01*
X70895862Y-163460101D01*
X70985190Y-163451303D01*
X70998056Y-163447400D01*
X71045400Y-163447400D01*
X71045401Y-164643408D01*
G36*
X72924311Y-159422916D02*
G01*
X72929027Y-159445102D01*
X72933423Y-159467305D01*
X72934455Y-159470640D01*
X73009400Y-159706898D01*
X73018326Y-159727724D01*
X73026961Y-159748674D01*
X73028621Y-159751745D01*
X73148030Y-159968947D01*
X73160839Y-159987655D01*
X73173370Y-160006515D01*
X73175591Y-160009200D01*
X73175595Y-160009206D01*
X73175600Y-160009211D01*
X73334917Y-160199077D01*
X73351076Y-160214901D01*
X73367071Y-160231008D01*
X73369777Y-160233214D01*
X73562944Y-160388525D01*
X73581856Y-160400901D01*
X73600689Y-160413604D01*
X73603767Y-160415239D01*
X73603771Y-160415242D01*
X73603775Y-160415244D01*
X73823426Y-160530074D01*
X73844414Y-160538554D01*
X73865322Y-160547343D01*
X73868658Y-160548349D01*
X73868665Y-160548352D01*
X73868672Y-160548353D01*
X74106440Y-160618333D01*
X74128649Y-160622570D01*
X74150894Y-160627136D01*
X74154368Y-160627476D01*
X74401208Y-160649940D01*
X74423827Y-160649782D01*
X74446523Y-160649941D01*
X74449998Y-160649600D01*
X74450000Y-160649600D01*
X74696501Y-160623692D01*
X74718703Y-160619134D01*
X74740955Y-160614890D01*
X74744289Y-160613882D01*
X74744296Y-160613881D01*
X74744302Y-160613878D01*
X74981073Y-160540585D01*
X75001929Y-160531818D01*
X75022968Y-160523318D01*
X75026047Y-160521680D01*
X75026052Y-160521678D01*
X75026056Y-160521675D01*
X75244081Y-160403790D01*
X75262861Y-160391123D01*
X75281826Y-160378713D01*
X75284524Y-160376512D01*
X75284531Y-160376507D01*
X75284537Y-160376501D01*
X75475511Y-160218513D01*
X75491471Y-160202441D01*
X75507666Y-160186582D01*
X75509886Y-160183898D01*
X75509892Y-160183892D01*
X75509896Y-160183885D01*
X75666546Y-159991815D01*
X75679082Y-159972947D01*
X75691887Y-159954246D01*
X75693544Y-159951179D01*
X75693547Y-159951175D01*
X75693549Y-159951171D01*
X75809910Y-159732327D01*
X75818540Y-159711389D01*
X75827471Y-159690553D01*
X75828503Y-159687218D01*
X75900143Y-159449937D01*
X75904544Y-159427711D01*
X75909255Y-159405546D01*
X75909620Y-159402074D01*
X75911686Y-159381000D01*
X80505773Y-159381000D01*
X80592547Y-159389508D01*
X80664257Y-159411159D01*
X80730391Y-159446323D01*
X80788436Y-159493663D01*
X80836187Y-159551384D01*
X80871811Y-159617269D01*
X80893963Y-159688829D01*
X80898167Y-159728833D01*
X80795000Y-159832000D01*
X80795000Y-160632000D01*
X81595000Y-160632000D01*
X81597712Y-160629288D01*
X81614643Y-160632641D01*
X81636794Y-160637349D01*
X81640264Y-160637714D01*
X81640266Y-160637714D01*
X81763605Y-160649807D01*
X81763613Y-160649807D01*
X81775725Y-160651000D01*
X81803879Y-160651000D01*
X81802697Y-160663000D01*
X81805600Y-160863000D01*
X81955600Y-161013000D01*
X82755600Y-161013000D01*
X82755600Y-160651000D01*
X83045773Y-160651000D01*
X83055600Y-160651964D01*
X83055600Y-161013000D01*
X83439656Y-161013000D01*
X83443000Y-161044810D01*
X83443000Y-161313000D01*
X83055600Y-161313000D01*
X83055600Y-161333000D01*
X82755600Y-161333000D01*
X82755600Y-161313000D01*
X81955600Y-161313000D01*
X81805600Y-161463000D01*
X81802697Y-161663000D01*
X81814282Y-161780621D01*
X81848590Y-161893721D01*
X81904304Y-161997955D01*
X81938786Y-162039972D01*
X81497361Y-162481397D01*
X80795002Y-161779039D01*
X80795002Y-161732002D01*
X80945000Y-161882000D01*
X81145000Y-161884903D01*
X81262621Y-161873318D01*
X81375721Y-161839010D01*
X81479955Y-161783296D01*
X81571317Y-161708317D01*
X81646296Y-161616955D01*
X81702010Y-161512721D01*
X81736318Y-161399621D01*
X81747903Y-161282000D01*
X81745000Y-161082000D01*
X81595000Y-160932000D01*
X80795000Y-160932000D01*
X80795000Y-160952000D01*
X80495000Y-160952000D01*
X80495000Y-160932000D01*
X80475000Y-160932000D01*
X80475000Y-160632000D01*
X80495000Y-160632000D01*
X80495000Y-159832000D01*
X80345000Y-159682000D01*
X80145000Y-159679097D01*
X80027379Y-159690682D01*
X79914279Y-159724990D01*
X79810045Y-159780704D01*
X79718683Y-159855683D01*
X79658066Y-159929545D01*
X79625000Y-159926288D01*
X79125000Y-159926288D01*
X79006831Y-159937927D01*
X78893204Y-159972395D01*
X78788484Y-160028369D01*
X78740000Y-160068159D01*
X78691516Y-160028369D01*
X78586796Y-159972395D01*
X78473169Y-159937927D01*
X78355000Y-159926288D01*
X77855000Y-159926288D01*
X77736831Y-159937927D01*
X77623204Y-159972395D01*
X77518484Y-160028369D01*
X77470000Y-160068159D01*
X77421516Y-160028369D01*
X77316796Y-159972395D01*
X77203169Y-159937927D01*
X77085000Y-159926288D01*
X76585000Y-159926288D01*
X76466831Y-159937927D01*
X76353204Y-159972395D01*
X76248484Y-160028369D01*
X76156697Y-160103697D01*
X76081369Y-160195484D01*
X76025395Y-160300204D01*
X75990927Y-160413831D01*
X75979288Y-160532000D01*
X75979288Y-161032000D01*
X75990927Y-161150169D01*
X76025395Y-161263796D01*
X76081369Y-161368516D01*
X76156697Y-161460303D01*
X76248484Y-161535631D01*
X76353204Y-161591605D01*
X76466831Y-161626073D01*
X76585000Y-161637712D01*
X77085000Y-161637712D01*
X77203169Y-161626073D01*
X77316796Y-161591605D01*
X77421516Y-161535631D01*
X77470000Y-161495841D01*
X77518484Y-161535631D01*
X77623204Y-161591605D01*
X77736831Y-161626073D01*
X77737799Y-161626168D01*
X77763236Y-161657164D01*
X77836478Y-161717272D01*
X77920039Y-161761936D01*
X78010708Y-161789440D01*
X78105000Y-161798727D01*
X78128626Y-161796400D01*
X78311126Y-161796400D01*
X78725744Y-162211018D01*
X78658547Y-162238852D01*
X78538165Y-162319288D01*
X78435788Y-162421665D01*
X78355352Y-162542047D01*
X78299946Y-162675809D01*
X78271700Y-162817809D01*
X78271700Y-162962591D01*
X78299946Y-163104591D01*
X78355352Y-163238353D01*
X78435788Y-163358735D01*
X78538165Y-163461112D01*
X78658547Y-163541548D01*
X78792309Y-163596954D01*
X78934309Y-163625200D01*
X79061464Y-163625200D01*
X79394532Y-163958269D01*
X79051593Y-164301209D01*
X79033235Y-164316275D01*
X78973127Y-164389517D01*
X78928463Y-164473079D01*
X78909303Y-164536243D01*
X78900959Y-164563747D01*
X78895425Y-164619939D01*
X77666984Y-165848380D01*
X77658436Y-165835586D01*
X77547214Y-165724364D01*
X77416432Y-165636978D01*
X77271114Y-165576786D01*
X77116845Y-165546100D01*
X76959555Y-165546100D01*
X76805286Y-165576786D01*
X76659968Y-165636978D01*
X76529186Y-165724364D01*
X76458034Y-165795516D01*
X76370492Y-165768960D01*
X76299826Y-165762000D01*
X76276200Y-165759673D01*
X76252574Y-165762000D01*
X74591643Y-165762000D01*
X74568016Y-165759673D01*
X74473724Y-165768960D01*
X74455103Y-165774609D01*
X74410568Y-165788118D01*
X74346814Y-165724364D01*
X74216032Y-165636978D01*
X74070714Y-165576786D01*
X73916445Y-165546100D01*
X73759155Y-165546100D01*
X73604886Y-165576786D01*
X73459568Y-165636978D01*
X73328786Y-165724364D01*
X73217564Y-165835586D01*
X73175801Y-165898089D01*
X73175801Y-165617539D01*
X73178742Y-165587678D01*
X73167003Y-165468490D01*
X73162849Y-165454796D01*
X73132237Y-165353882D01*
X73075780Y-165248258D01*
X72999802Y-165155678D01*
X72976605Y-165136641D01*
X72261400Y-164421437D01*
X72261400Y-163360650D01*
X72273636Y-163348414D01*
X72361022Y-163217632D01*
X72421214Y-163072314D01*
X72451900Y-162918045D01*
X72451900Y-162760755D01*
X72421214Y-162606486D01*
X72361022Y-162461168D01*
X72273636Y-162330386D01*
X72162414Y-162219164D01*
X72031632Y-162131778D01*
X71886314Y-162071586D01*
X71855718Y-162065500D01*
X73435791Y-162065500D01*
X73437000Y-162077775D01*
X73437001Y-165074215D01*
X73435791Y-165086500D01*
X73440618Y-165135508D01*
X73454913Y-165182634D01*
X73478127Y-165226064D01*
X73509368Y-165264132D01*
X73547436Y-165295373D01*
X73590866Y-165318587D01*
X73637992Y-165332882D01*
X73674725Y-165336500D01*
X73687000Y-165337709D01*
X73699275Y-165336500D01*
X77176725Y-165336500D01*
X77189000Y-165337709D01*
X77201275Y-165336500D01*
X77238008Y-165332882D01*
X77285134Y-165318587D01*
X77328564Y-165295373D01*
X77366632Y-165264132D01*
X77397873Y-165226064D01*
X77421087Y-165182634D01*
X77435382Y-165135508D01*
X77440209Y-165086500D01*
X77439000Y-165074225D01*
X77439000Y-162077775D01*
X77440209Y-162065500D01*
X77435382Y-162016492D01*
X77421087Y-161969366D01*
X77397873Y-161925936D01*
X77366632Y-161887868D01*
X77328564Y-161856627D01*
X77285134Y-161833413D01*
X77238008Y-161819118D01*
X77201275Y-161815500D01*
X77189000Y-161814291D01*
X77176725Y-161815500D01*
X73699275Y-161815500D01*
X73687000Y-161814291D01*
X73674725Y-161815500D01*
X73637992Y-161819118D01*
X73590866Y-161833413D01*
X73547436Y-161856627D01*
X73509368Y-161887868D01*
X73478127Y-161925936D01*
X73454913Y-161969366D01*
X73440618Y-162016492D01*
X73435791Y-162065500D01*
X71855718Y-162065500D01*
X71732045Y-162040900D01*
X71574755Y-162040900D01*
X71420486Y-162071586D01*
X71275168Y-162131778D01*
X71144386Y-162219164D01*
X71132150Y-162231400D01*
X70908562Y-162231400D01*
X70878702Y-162228459D01*
X70848842Y-162231400D01*
X70848841Y-162231400D01*
X70759513Y-162240198D01*
X70746647Y-162244101D01*
X69115943Y-162244101D01*
X68911813Y-162039972D01*
X68946296Y-161997955D01*
X69002010Y-161893721D01*
X69036318Y-161780621D01*
X69047903Y-161663000D01*
X69045000Y-161463000D01*
X68895000Y-161313000D01*
X68095000Y-161313000D01*
X68095000Y-161333000D01*
X67795000Y-161333000D01*
X67795000Y-161313000D01*
X67433000Y-161313000D01*
X67433000Y-161048227D01*
X67436454Y-161013000D01*
X67795000Y-161013000D01*
X67795000Y-160654344D01*
X67826810Y-160651000D01*
X68095000Y-160651000D01*
X68095000Y-161013000D01*
X68895000Y-161013000D01*
X69045000Y-160863000D01*
X69047903Y-160663000D01*
X69046721Y-160651000D01*
X69100275Y-160651000D01*
X69111153Y-160649929D01*
X69115092Y-160649956D01*
X69118567Y-160649615D01*
X69241818Y-160636660D01*
X69263991Y-160632109D01*
X69286269Y-160627859D01*
X69289611Y-160626850D01*
X69407998Y-160590203D01*
X69428877Y-160581427D01*
X69449895Y-160572935D01*
X69452969Y-160571300D01*
X69452978Y-160571296D01*
X69452985Y-160571291D01*
X69525652Y-160532000D01*
X70823088Y-160532000D01*
X70823088Y-161032000D01*
X70834727Y-161150169D01*
X70869195Y-161263796D01*
X70925169Y-161368516D01*
X71000497Y-161460303D01*
X71092284Y-161535631D01*
X71197004Y-161591605D01*
X71310631Y-161626073D01*
X71428800Y-161637712D01*
X71928800Y-161637712D01*
X72046969Y-161626073D01*
X72160596Y-161591605D01*
X72265316Y-161535631D01*
X72357103Y-161460303D01*
X72432431Y-161368516D01*
X72488405Y-161263796D01*
X72522873Y-161150169D01*
X72534512Y-161032000D01*
X72534512Y-160532000D01*
X72522873Y-160413831D01*
X72488405Y-160300204D01*
X72432431Y-160195484D01*
X72357103Y-160103697D01*
X72265316Y-160028369D01*
X72160596Y-159972395D01*
X72046969Y-159937927D01*
X71928800Y-159926288D01*
X71428800Y-159926288D01*
X71310631Y-159937927D01*
X71197004Y-159972395D01*
X71092284Y-160028369D01*
X71000497Y-160103697D01*
X70925169Y-160195484D01*
X70869195Y-160300204D01*
X70834727Y-160413831D01*
X70823088Y-160532000D01*
X69525652Y-160532000D01*
X69561993Y-160512351D01*
X69580773Y-160499684D01*
X69599738Y-160487274D01*
X69602443Y-160485068D01*
X69697933Y-160406072D01*
X69713910Y-160389983D01*
X69730088Y-160374141D01*
X69732313Y-160371451D01*
X69810640Y-160275412D01*
X69823169Y-160256555D01*
X69835982Y-160237843D01*
X69837639Y-160234777D01*
X69837642Y-160234773D01*
X69837644Y-160234769D01*
X69895823Y-160125349D01*
X69904440Y-160104444D01*
X69913385Y-160083573D01*
X69914417Y-160080238D01*
X69950237Y-159961598D01*
X69954641Y-159939357D01*
X69959349Y-159917206D01*
X69959714Y-159913734D01*
X69971807Y-159790395D01*
X69981508Y-159691453D01*
X70003159Y-159619743D01*
X70038323Y-159553609D01*
X70085663Y-159495564D01*
X70143384Y-159447813D01*
X70209269Y-159412189D01*
X70280829Y-159390037D01*
X70366810Y-159381000D01*
X72919609Y-159381000D01*
X72924311Y-159422916D01*
G37*
X72924311Y-159422916D02*
X72929027Y-159445102D01*
X72933423Y-159467305D01*
X72934455Y-159470640D01*
X73009400Y-159706898D01*
X73018326Y-159727724D01*
X73026961Y-159748674D01*
X73028621Y-159751745D01*
X73148030Y-159968947D01*
X73160839Y-159987655D01*
X73173370Y-160006515D01*
X73175591Y-160009200D01*
X73175595Y-160009206D01*
X73175600Y-160009211D01*
X73334917Y-160199077D01*
X73351076Y-160214901D01*
X73367071Y-160231008D01*
X73369777Y-160233214D01*
X73562944Y-160388525D01*
X73581856Y-160400901D01*
X73600689Y-160413604D01*
X73603767Y-160415239D01*
X73603771Y-160415242D01*
X73603775Y-160415244D01*
X73823426Y-160530074D01*
X73844414Y-160538554D01*
X73865322Y-160547343D01*
X73868658Y-160548349D01*
X73868665Y-160548352D01*
X73868672Y-160548353D01*
X74106440Y-160618333D01*
X74128649Y-160622570D01*
X74150894Y-160627136D01*
X74154368Y-160627476D01*
X74401208Y-160649940D01*
X74423827Y-160649782D01*
X74446523Y-160649941D01*
X74449998Y-160649600D01*
X74450000Y-160649600D01*
X74696501Y-160623692D01*
X74718703Y-160619134D01*
X74740955Y-160614890D01*
X74744289Y-160613882D01*
X74744296Y-160613881D01*
X74744302Y-160613878D01*
X74981073Y-160540585D01*
X75001929Y-160531818D01*
X75022968Y-160523318D01*
X75026047Y-160521680D01*
X75026052Y-160521678D01*
X75026056Y-160521675D01*
X75244081Y-160403790D01*
X75262861Y-160391123D01*
X75281826Y-160378713D01*
X75284524Y-160376512D01*
X75284531Y-160376507D01*
X75284537Y-160376501D01*
X75475511Y-160218513D01*
X75491471Y-160202441D01*
X75507666Y-160186582D01*
X75509886Y-160183898D01*
X75509892Y-160183892D01*
X75509896Y-160183885D01*
X75666546Y-159991815D01*
X75679082Y-159972947D01*
X75691887Y-159954246D01*
X75693544Y-159951179D01*
X75693547Y-159951175D01*
X75693549Y-159951171D01*
X75809910Y-159732327D01*
X75818540Y-159711389D01*
X75827471Y-159690553D01*
X75828503Y-159687218D01*
X75900143Y-159449937D01*
X75904544Y-159427711D01*
X75909255Y-159405546D01*
X75909620Y-159402074D01*
X75911686Y-159381000D01*
X80505773Y-159381000D01*
X80592547Y-159389508D01*
X80664257Y-159411159D01*
X80730391Y-159446323D01*
X80788436Y-159493663D01*
X80836187Y-159551384D01*
X80871811Y-159617269D01*
X80893963Y-159688829D01*
X80898167Y-159728833D01*
X80795000Y-159832000D01*
X80795000Y-160632000D01*
X81595000Y-160632000D01*
X81597712Y-160629288D01*
X81614643Y-160632641D01*
X81636794Y-160637349D01*
X81640264Y-160637714D01*
X81640266Y-160637714D01*
X81763605Y-160649807D01*
X81763613Y-160649807D01*
X81775725Y-160651000D01*
X81803879Y-160651000D01*
X81802697Y-160663000D01*
X81805600Y-160863000D01*
X81955600Y-161013000D01*
X82755600Y-161013000D01*
X82755600Y-160651000D01*
X83045773Y-160651000D01*
X83055600Y-160651964D01*
X83055600Y-161013000D01*
X83439656Y-161013000D01*
X83443000Y-161044810D01*
X83443000Y-161313000D01*
X83055600Y-161313000D01*
X83055600Y-161333000D01*
X82755600Y-161333000D01*
X82755600Y-161313000D01*
X81955600Y-161313000D01*
X81805600Y-161463000D01*
X81802697Y-161663000D01*
X81814282Y-161780621D01*
X81848590Y-161893721D01*
X81904304Y-161997955D01*
X81938786Y-162039972D01*
X81497361Y-162481397D01*
X80795002Y-161779039D01*
X80795002Y-161732002D01*
X80945000Y-161882000D01*
X81145000Y-161884903D01*
X81262621Y-161873318D01*
X81375721Y-161839010D01*
X81479955Y-161783296D01*
X81571317Y-161708317D01*
X81646296Y-161616955D01*
X81702010Y-161512721D01*
X81736318Y-161399621D01*
X81747903Y-161282000D01*
X81745000Y-161082000D01*
X81595000Y-160932000D01*
X80795000Y-160932000D01*
X80795000Y-160952000D01*
X80495000Y-160952000D01*
X80495000Y-160932000D01*
X80475000Y-160932000D01*
X80475000Y-160632000D01*
X80495000Y-160632000D01*
X80495000Y-159832000D01*
X80345000Y-159682000D01*
X80145000Y-159679097D01*
X80027379Y-159690682D01*
X79914279Y-159724990D01*
X79810045Y-159780704D01*
X79718683Y-159855683D01*
X79658066Y-159929545D01*
X79625000Y-159926288D01*
X79125000Y-159926288D01*
X79006831Y-159937927D01*
X78893204Y-159972395D01*
X78788484Y-160028369D01*
X78740000Y-160068159D01*
X78691516Y-160028369D01*
X78586796Y-159972395D01*
X78473169Y-159937927D01*
X78355000Y-159926288D01*
X77855000Y-159926288D01*
X77736831Y-159937927D01*
X77623204Y-159972395D01*
X77518484Y-160028369D01*
X77470000Y-160068159D01*
X77421516Y-160028369D01*
X77316796Y-159972395D01*
X77203169Y-159937927D01*
X77085000Y-159926288D01*
X76585000Y-159926288D01*
X76466831Y-159937927D01*
X76353204Y-159972395D01*
X76248484Y-160028369D01*
X76156697Y-160103697D01*
X76081369Y-160195484D01*
X76025395Y-160300204D01*
X75990927Y-160413831D01*
X75979288Y-160532000D01*
X75979288Y-161032000D01*
X75990927Y-161150169D01*
X76025395Y-161263796D01*
X76081369Y-161368516D01*
X76156697Y-161460303D01*
X76248484Y-161535631D01*
X76353204Y-161591605D01*
X76466831Y-161626073D01*
X76585000Y-161637712D01*
X77085000Y-161637712D01*
X77203169Y-161626073D01*
X77316796Y-161591605D01*
X77421516Y-161535631D01*
X77470000Y-161495841D01*
X77518484Y-161535631D01*
X77623204Y-161591605D01*
X77736831Y-161626073D01*
X77737799Y-161626168D01*
X77763236Y-161657164D01*
X77836478Y-161717272D01*
X77920039Y-161761936D01*
X78010708Y-161789440D01*
X78105000Y-161798727D01*
X78128626Y-161796400D01*
X78311126Y-161796400D01*
X78725744Y-162211018D01*
X78658547Y-162238852D01*
X78538165Y-162319288D01*
X78435788Y-162421665D01*
X78355352Y-162542047D01*
X78299946Y-162675809D01*
X78271700Y-162817809D01*
X78271700Y-162962591D01*
X78299946Y-163104591D01*
X78355352Y-163238353D01*
X78435788Y-163358735D01*
X78538165Y-163461112D01*
X78658547Y-163541548D01*
X78792309Y-163596954D01*
X78934309Y-163625200D01*
X79061464Y-163625200D01*
X79394532Y-163958269D01*
X79051593Y-164301209D01*
X79033235Y-164316275D01*
X78973127Y-164389517D01*
X78928463Y-164473079D01*
X78909303Y-164536243D01*
X78900959Y-164563747D01*
X78895425Y-164619939D01*
X77666984Y-165848380D01*
X77658436Y-165835586D01*
X77547214Y-165724364D01*
X77416432Y-165636978D01*
X77271114Y-165576786D01*
X77116845Y-165546100D01*
X76959555Y-165546100D01*
X76805286Y-165576786D01*
X76659968Y-165636978D01*
X76529186Y-165724364D01*
X76458034Y-165795516D01*
X76370492Y-165768960D01*
X76299826Y-165762000D01*
X76276200Y-165759673D01*
X76252574Y-165762000D01*
X74591643Y-165762000D01*
X74568016Y-165759673D01*
X74473724Y-165768960D01*
X74455103Y-165774609D01*
X74410568Y-165788118D01*
X74346814Y-165724364D01*
X74216032Y-165636978D01*
X74070714Y-165576786D01*
X73916445Y-165546100D01*
X73759155Y-165546100D01*
X73604886Y-165576786D01*
X73459568Y-165636978D01*
X73328786Y-165724364D01*
X73217564Y-165835586D01*
X73175801Y-165898089D01*
X73175801Y-165617539D01*
X73178742Y-165587678D01*
X73167003Y-165468490D01*
X73162849Y-165454796D01*
X73132237Y-165353882D01*
X73075780Y-165248258D01*
X72999802Y-165155678D01*
X72976605Y-165136641D01*
X72261400Y-164421437D01*
X72261400Y-163360650D01*
X72273636Y-163348414D01*
X72361022Y-163217632D01*
X72421214Y-163072314D01*
X72451900Y-162918045D01*
X72451900Y-162760755D01*
X72421214Y-162606486D01*
X72361022Y-162461168D01*
X72273636Y-162330386D01*
X72162414Y-162219164D01*
X72031632Y-162131778D01*
X71886314Y-162071586D01*
X71855718Y-162065500D01*
X73435791Y-162065500D01*
X73437000Y-162077775D01*
X73437001Y-165074215D01*
X73435791Y-165086500D01*
X73440618Y-165135508D01*
X73454913Y-165182634D01*
X73478127Y-165226064D01*
X73509368Y-165264132D01*
X73547436Y-165295373D01*
X73590866Y-165318587D01*
X73637992Y-165332882D01*
X73674725Y-165336500D01*
X73687000Y-165337709D01*
X73699275Y-165336500D01*
X77176725Y-165336500D01*
X77189000Y-165337709D01*
X77201275Y-165336500D01*
X77238008Y-165332882D01*
X77285134Y-165318587D01*
X77328564Y-165295373D01*
X77366632Y-165264132D01*
X77397873Y-165226064D01*
X77421087Y-165182634D01*
X77435382Y-165135508D01*
X77440209Y-165086500D01*
X77439000Y-165074225D01*
X77439000Y-162077775D01*
X77440209Y-162065500D01*
X77435382Y-162016492D01*
X77421087Y-161969366D01*
X77397873Y-161925936D01*
X77366632Y-161887868D01*
X77328564Y-161856627D01*
X77285134Y-161833413D01*
X77238008Y-161819118D01*
X77201275Y-161815500D01*
X77189000Y-161814291D01*
X77176725Y-161815500D01*
X73699275Y-161815500D01*
X73687000Y-161814291D01*
X73674725Y-161815500D01*
X73637992Y-161819118D01*
X73590866Y-161833413D01*
X73547436Y-161856627D01*
X73509368Y-161887868D01*
X73478127Y-161925936D01*
X73454913Y-161969366D01*
X73440618Y-162016492D01*
X73435791Y-162065500D01*
X71855718Y-162065500D01*
X71732045Y-162040900D01*
X71574755Y-162040900D01*
X71420486Y-162071586D01*
X71275168Y-162131778D01*
X71144386Y-162219164D01*
X71132150Y-162231400D01*
X70908562Y-162231400D01*
X70878702Y-162228459D01*
X70848842Y-162231400D01*
X70848841Y-162231400D01*
X70759513Y-162240198D01*
X70746647Y-162244101D01*
X69115943Y-162244101D01*
X68911813Y-162039972D01*
X68946296Y-161997955D01*
X69002010Y-161893721D01*
X69036318Y-161780621D01*
X69047903Y-161663000D01*
X69045000Y-161463000D01*
X68895000Y-161313000D01*
X68095000Y-161313000D01*
X68095000Y-161333000D01*
X67795000Y-161333000D01*
X67795000Y-161313000D01*
X67433000Y-161313000D01*
X67433000Y-161048227D01*
X67436454Y-161013000D01*
X67795000Y-161013000D01*
X67795000Y-160654344D01*
X67826810Y-160651000D01*
X68095000Y-160651000D01*
X68095000Y-161013000D01*
X68895000Y-161013000D01*
X69045000Y-160863000D01*
X69047903Y-160663000D01*
X69046721Y-160651000D01*
X69100275Y-160651000D01*
X69111153Y-160649929D01*
X69115092Y-160649956D01*
X69118567Y-160649615D01*
X69241818Y-160636660D01*
X69263991Y-160632109D01*
X69286269Y-160627859D01*
X69289611Y-160626850D01*
X69407998Y-160590203D01*
X69428877Y-160581427D01*
X69449895Y-160572935D01*
X69452969Y-160571300D01*
X69452978Y-160571296D01*
X69452985Y-160571291D01*
X69525652Y-160532000D01*
X70823088Y-160532000D01*
X70823088Y-161032000D01*
X70834727Y-161150169D01*
X70869195Y-161263796D01*
X70925169Y-161368516D01*
X71000497Y-161460303D01*
X71092284Y-161535631D01*
X71197004Y-161591605D01*
X71310631Y-161626073D01*
X71428800Y-161637712D01*
X71928800Y-161637712D01*
X72046969Y-161626073D01*
X72160596Y-161591605D01*
X72265316Y-161535631D01*
X72357103Y-161460303D01*
X72432431Y-161368516D01*
X72488405Y-161263796D01*
X72522873Y-161150169D01*
X72534512Y-161032000D01*
X72534512Y-160532000D01*
X72522873Y-160413831D01*
X72488405Y-160300204D01*
X72432431Y-160195484D01*
X72357103Y-160103697D01*
X72265316Y-160028369D01*
X72160596Y-159972395D01*
X72046969Y-159937927D01*
X71928800Y-159926288D01*
X71428800Y-159926288D01*
X71310631Y-159937927D01*
X71197004Y-159972395D01*
X71092284Y-160028369D01*
X71000497Y-160103697D01*
X70925169Y-160195484D01*
X70869195Y-160300204D01*
X70834727Y-160413831D01*
X70823088Y-160532000D01*
X69525652Y-160532000D01*
X69561993Y-160512351D01*
X69580773Y-160499684D01*
X69599738Y-160487274D01*
X69602443Y-160485068D01*
X69697933Y-160406072D01*
X69713910Y-160389983D01*
X69730088Y-160374141D01*
X69732313Y-160371451D01*
X69810640Y-160275412D01*
X69823169Y-160256555D01*
X69835982Y-160237843D01*
X69837639Y-160234777D01*
X69837642Y-160234773D01*
X69837644Y-160234769D01*
X69895823Y-160125349D01*
X69904440Y-160104444D01*
X69913385Y-160083573D01*
X69914417Y-160080238D01*
X69950237Y-159961598D01*
X69954641Y-159939357D01*
X69959349Y-159917206D01*
X69959714Y-159913734D01*
X69971807Y-159790395D01*
X69981508Y-159691453D01*
X70003159Y-159619743D01*
X70038323Y-159553609D01*
X70085663Y-159495564D01*
X70143384Y-159447813D01*
X70209269Y-159412189D01*
X70280829Y-159390037D01*
X70366810Y-159381000D01*
X72919609Y-159381000D01*
X72924311Y-159422916D01*
M02*
