G04 #@! TF.GenerationSoftware,KiCad,Pcbnew,5.1.5*
G04 #@! TF.CreationDate,2020-05-28T17:34:41+02:00*
G04 #@! TF.ProjectId,amoeba-king,616d6f65-6261-42d6-9b69-6e672e6b6963,rev?*
G04 #@! TF.SameCoordinates,Original*
G04 #@! TF.FileFunction,Copper,L2,Bot*
G04 #@! TF.FilePolarity,Positive*
%FSLAX46Y46*%
G04 Gerber Fmt 4.6, Leading zero omitted, Abs format (unit mm)*
G04 Created by KiCad (PCBNEW 5.1.5) date 2020-05-28 17:34:41*
%MOMM*%
%LPD*%
G04 APERTURE LIST*
%ADD10C,0.158750*%
%ADD11C,0.094155*%
%ADD12C,0.150000*%
%ADD13R,1.000000X1.000000*%
%ADD14R,2.550000X2.500000*%
%ADD15R,1.200000X0.900000*%
%ADD16R,1.800000X0.820000*%
%ADD17C,0.889000*%
%ADD18C,0.762000*%
%ADD19C,0.254000*%
%ADD20C,0.508000*%
%ADD21C,0.200000*%
G04 APERTURE END LIST*
D10*
X69312376Y-176051028D02*
X69214102Y-176474361D01*
X69009995Y-176051028D01*
X68488388Y-176474361D02*
X68851245Y-176474361D01*
X68669816Y-176474361D02*
X68590441Y-175839361D01*
X68662257Y-175930076D01*
X68730292Y-175990552D01*
X68794548Y-176020790D01*
X68208685Y-176413885D02*
X68182227Y-176444123D01*
X68216245Y-176474361D01*
X68242703Y-176444123D01*
X68208685Y-176413885D01*
X68216245Y-176474361D01*
X67581245Y-176474361D02*
X67944102Y-176474361D01*
X67762673Y-176474361D02*
X67683298Y-175839361D01*
X67755114Y-175930076D01*
X67823149Y-175990552D01*
X67887405Y-176020790D01*
D11*
G36*
X82799987Y-175855641D02*
G01*
X82814060Y-175831090D01*
X82828294Y-175806791D01*
X82842686Y-175782752D01*
X82857230Y-175758982D01*
X82871921Y-175735486D01*
X82886752Y-175712274D01*
X82901720Y-175689354D01*
X82916819Y-175666732D01*
X82932043Y-175644419D01*
X82947388Y-175622420D01*
X82962848Y-175600745D01*
X82978418Y-175579401D01*
X82994093Y-175558395D01*
X83009867Y-175537736D01*
X83025736Y-175517431D01*
X83041693Y-175497490D01*
X83057734Y-175477918D01*
X83073854Y-175458725D01*
X83090047Y-175439918D01*
X83106308Y-175421506D01*
X83122631Y-175403494D01*
X83139013Y-175385893D01*
X83155447Y-175368710D01*
X83171928Y-175351952D01*
X83188450Y-175335629D01*
X83205009Y-175319746D01*
X83221601Y-175304312D01*
X83238217Y-175289336D01*
X83254856Y-175274825D01*
X83271977Y-175293494D01*
X83288950Y-175310041D01*
X83306147Y-175324932D01*
X83323941Y-175338626D01*
X83342705Y-175351588D01*
X83326687Y-175366917D01*
X83310631Y-175382638D01*
X83294544Y-175398744D01*
X83278436Y-175415235D01*
X83262313Y-175432107D01*
X83246185Y-175449354D01*
X83230060Y-175466977D01*
X83213947Y-175484970D01*
X83197853Y-175503328D01*
X83181788Y-175522052D01*
X83165759Y-175541137D01*
X83149775Y-175560578D01*
X83133845Y-175580374D01*
X83117976Y-175600520D01*
X83102178Y-175621013D01*
X83086459Y-175641852D01*
X83070826Y-175663031D01*
X83055288Y-175684546D01*
X83039855Y-175706397D01*
X83024533Y-175728579D01*
X83009332Y-175751088D01*
X82994261Y-175773923D01*
X82979326Y-175797078D01*
X82964538Y-175820550D01*
X82949903Y-175844338D01*
X82935431Y-175868438D01*
X82921130Y-175892844D01*
X82907009Y-175917556D01*
X82893146Y-175942405D01*
X82879620Y-175967222D01*
X82866431Y-175992002D01*
X82853578Y-176016740D01*
X82841063Y-176041427D01*
X82828884Y-176066058D01*
X82817042Y-176090628D01*
X82805537Y-176115130D01*
X82794370Y-176139557D01*
X82783541Y-176163905D01*
X82773049Y-176188165D01*
X82762895Y-176212333D01*
X82753079Y-176236402D01*
X82743602Y-176260365D01*
X82734463Y-176284219D01*
X82725661Y-176307953D01*
X82717199Y-176331565D01*
X82709076Y-176355047D01*
X82701292Y-176378393D01*
X82693847Y-176401597D01*
X82686742Y-176424654D01*
X82679975Y-176447556D01*
X82673548Y-176470297D01*
X82667461Y-176492872D01*
X82661714Y-176515274D01*
X82656307Y-176537496D01*
X82651241Y-176559535D01*
X82646514Y-176581382D01*
X82627393Y-176572547D01*
X82607184Y-176564974D01*
X82585838Y-176558425D01*
X82563309Y-176552663D01*
X82539548Y-176547451D01*
X82543466Y-176525868D01*
X82547769Y-176504058D01*
X82552454Y-176482025D01*
X82557518Y-176459778D01*
X82562958Y-176437325D01*
X82568773Y-176414671D01*
X82574960Y-176391826D01*
X82581516Y-176368796D01*
X82588438Y-176345589D01*
X82595724Y-176322213D01*
X82603372Y-176298674D01*
X82611380Y-176274980D01*
X82619743Y-176251139D01*
X82628460Y-176227158D01*
X82637530Y-176203043D01*
X82646948Y-176178803D01*
X82656713Y-176154445D01*
X82666821Y-176129977D01*
X82677270Y-176105405D01*
X82688059Y-176080738D01*
X82699183Y-176055982D01*
X82710643Y-176031145D01*
X82722433Y-176006235D01*
X82734550Y-175981259D01*
X82746995Y-175956223D01*
X82759764Y-175931136D01*
X82772854Y-175906005D01*
X82786263Y-175880838D01*
X82799987Y-175855641D01*
G37*
X82799987Y-175855641D02*
X82814060Y-175831090D01*
X82828294Y-175806791D01*
X82842686Y-175782752D01*
X82857230Y-175758982D01*
X82871921Y-175735486D01*
X82886752Y-175712274D01*
X82901720Y-175689354D01*
X82916819Y-175666732D01*
X82932043Y-175644419D01*
X82947388Y-175622420D01*
X82962848Y-175600745D01*
X82978418Y-175579401D01*
X82994093Y-175558395D01*
X83009867Y-175537736D01*
X83025736Y-175517431D01*
X83041693Y-175497490D01*
X83057734Y-175477918D01*
X83073854Y-175458725D01*
X83090047Y-175439918D01*
X83106308Y-175421506D01*
X83122631Y-175403494D01*
X83139013Y-175385893D01*
X83155447Y-175368710D01*
X83171928Y-175351952D01*
X83188450Y-175335629D01*
X83205009Y-175319746D01*
X83221601Y-175304312D01*
X83238217Y-175289336D01*
X83254856Y-175274825D01*
X83271977Y-175293494D01*
X83288950Y-175310041D01*
X83306147Y-175324932D01*
X83323941Y-175338626D01*
X83342705Y-175351588D01*
X83326687Y-175366917D01*
X83310631Y-175382638D01*
X83294544Y-175398744D01*
X83278436Y-175415235D01*
X83262313Y-175432107D01*
X83246185Y-175449354D01*
X83230060Y-175466977D01*
X83213947Y-175484970D01*
X83197853Y-175503328D01*
X83181788Y-175522052D01*
X83165759Y-175541137D01*
X83149775Y-175560578D01*
X83133845Y-175580374D01*
X83117976Y-175600520D01*
X83102178Y-175621013D01*
X83086459Y-175641852D01*
X83070826Y-175663031D01*
X83055288Y-175684546D01*
X83039855Y-175706397D01*
X83024533Y-175728579D01*
X83009332Y-175751088D01*
X82994261Y-175773923D01*
X82979326Y-175797078D01*
X82964538Y-175820550D01*
X82949903Y-175844338D01*
X82935431Y-175868438D01*
X82921130Y-175892844D01*
X82907009Y-175917556D01*
X82893146Y-175942405D01*
X82879620Y-175967222D01*
X82866431Y-175992002D01*
X82853578Y-176016740D01*
X82841063Y-176041427D01*
X82828884Y-176066058D01*
X82817042Y-176090628D01*
X82805537Y-176115130D01*
X82794370Y-176139557D01*
X82783541Y-176163905D01*
X82773049Y-176188165D01*
X82762895Y-176212333D01*
X82753079Y-176236402D01*
X82743602Y-176260365D01*
X82734463Y-176284219D01*
X82725661Y-176307953D01*
X82717199Y-176331565D01*
X82709076Y-176355047D01*
X82701292Y-176378393D01*
X82693847Y-176401597D01*
X82686742Y-176424654D01*
X82679975Y-176447556D01*
X82673548Y-176470297D01*
X82667461Y-176492872D01*
X82661714Y-176515274D01*
X82656307Y-176537496D01*
X82651241Y-176559535D01*
X82646514Y-176581382D01*
X82627393Y-176572547D01*
X82607184Y-176564974D01*
X82585838Y-176558425D01*
X82563309Y-176552663D01*
X82539548Y-176547451D01*
X82543466Y-176525868D01*
X82547769Y-176504058D01*
X82552454Y-176482025D01*
X82557518Y-176459778D01*
X82562958Y-176437325D01*
X82568773Y-176414671D01*
X82574960Y-176391826D01*
X82581516Y-176368796D01*
X82588438Y-176345589D01*
X82595724Y-176322213D01*
X82603372Y-176298674D01*
X82611380Y-176274980D01*
X82619743Y-176251139D01*
X82628460Y-176227158D01*
X82637530Y-176203043D01*
X82646948Y-176178803D01*
X82656713Y-176154445D01*
X82666821Y-176129977D01*
X82677270Y-176105405D01*
X82688059Y-176080738D01*
X82699183Y-176055982D01*
X82710643Y-176031145D01*
X82722433Y-176006235D01*
X82734550Y-175981259D01*
X82746995Y-175956223D01*
X82759764Y-175931136D01*
X82772854Y-175906005D01*
X82786263Y-175880838D01*
X82799987Y-175855641D01*
D12*
G36*
X81496304Y-175107700D02*
G01*
X81509757Y-175088187D01*
X81525716Y-175071516D01*
X81543776Y-175057803D01*
X81563530Y-175047159D01*
X81584573Y-175039698D01*
X81606500Y-175035533D01*
X81628904Y-175034778D01*
X81651379Y-175037546D01*
X81673521Y-175043949D01*
X81694924Y-175054102D01*
X81714523Y-175067699D01*
X81731057Y-175083842D01*
X81744454Y-175102113D01*
X81754645Y-175122099D01*
X81761558Y-175143383D01*
X81765121Y-175165551D01*
X81765267Y-175188186D01*
X81761923Y-175210875D01*
X81755019Y-175233201D01*
X81780417Y-175245007D01*
X81806119Y-175256889D01*
X81832093Y-175268812D01*
X81858309Y-175280749D01*
X81884734Y-175292669D01*
X81911338Y-175304540D01*
X81938088Y-175316332D01*
X81964955Y-175328014D01*
X81991906Y-175339556D01*
X82018911Y-175350926D01*
X82045936Y-175362095D01*
X82072953Y-175373032D01*
X82099929Y-175383706D01*
X82126832Y-175394085D01*
X82153633Y-175404141D01*
X82180298Y-175413841D01*
X82206798Y-175423156D01*
X82233100Y-175432055D01*
X82259173Y-175440506D01*
X82284987Y-175448480D01*
X82310508Y-175455945D01*
X82335708Y-175462872D01*
X82360554Y-175469228D01*
X82385013Y-175474985D01*
X82409056Y-175480110D01*
X82432653Y-175484575D01*
X82455769Y-175488346D01*
X82478374Y-175491394D01*
X82500438Y-175493689D01*
X82521929Y-175495200D01*
X82542815Y-175495896D01*
X82563065Y-175495746D01*
X82582647Y-175494720D01*
X82601532Y-175492788D01*
X82619687Y-175489918D01*
X82637080Y-175486079D01*
X82653681Y-175481242D01*
X82669458Y-175475374D01*
X82684381Y-175468447D01*
X82698416Y-175460429D01*
X82711534Y-175451289D01*
X82725326Y-175439606D01*
X82737890Y-175426366D01*
X82749268Y-175411649D01*
X82759499Y-175395531D01*
X82768624Y-175378090D01*
X82776685Y-175359404D01*
X82783720Y-175339550D01*
X82789771Y-175318605D01*
X82794878Y-175296646D01*
X82799081Y-175273752D01*
X82802421Y-175249999D01*
X82804939Y-175225465D01*
X82806674Y-175200228D01*
X82807668Y-175174365D01*
X82807961Y-175147953D01*
X82807592Y-175121071D01*
X82806604Y-175093795D01*
X82805035Y-175066203D01*
X82802927Y-175038372D01*
X82800320Y-175010379D01*
X82797254Y-174982304D01*
X82793771Y-174954222D01*
X82789910Y-174926212D01*
X82785711Y-174898350D01*
X82781216Y-174870713D01*
X82776465Y-174843381D01*
X82771497Y-174816429D01*
X82766354Y-174789937D01*
X82761076Y-174763980D01*
X82755704Y-174738637D01*
X82750279Y-174713984D01*
X82744839Y-174690100D01*
X82739426Y-174667062D01*
X82734081Y-174644947D01*
X82728843Y-174623833D01*
X82723753Y-174603797D01*
X82718853Y-174584918D01*
X82697827Y-174588695D01*
X82676401Y-174588778D01*
X82655156Y-174584625D01*
X82634671Y-174575697D01*
X82616187Y-174562401D01*
X82601154Y-174546190D01*
X82589746Y-174527682D01*
X82582139Y-174507494D01*
X82578504Y-174486240D01*
X82579016Y-174464538D01*
X82583849Y-174443005D01*
X82593178Y-174422255D01*
X82606493Y-174403784D01*
X82622755Y-174388780D01*
X82641334Y-174377414D01*
X82661606Y-174369853D01*
X82682940Y-174366266D01*
X82704714Y-174366818D01*
X82726299Y-174371681D01*
X82747067Y-174381022D01*
X82765520Y-174394326D01*
X82780472Y-174410557D01*
X82791767Y-174429097D01*
X82799246Y-174449319D01*
X82802751Y-174470608D01*
X82802126Y-174492340D01*
X82797212Y-174513895D01*
X82787854Y-174534652D01*
X82777654Y-174553145D01*
X82766461Y-174563914D01*
X82751791Y-174572308D01*
X82958213Y-174940314D01*
X82975843Y-174968227D01*
X82993373Y-174994814D01*
X83010793Y-175020087D01*
X83028089Y-175044061D01*
X83045253Y-175066750D01*
X83062273Y-175088168D01*
X83079138Y-175108330D01*
X83095838Y-175127251D01*
X83112364Y-175144944D01*
X83128701Y-175161424D01*
X83144841Y-175176705D01*
X83160773Y-175190802D01*
X83176486Y-175203728D01*
X83191969Y-175215498D01*
X83175507Y-175231091D01*
X83159015Y-175247082D01*
X83142503Y-175263464D01*
X83125979Y-175280234D01*
X83109451Y-175297388D01*
X83092929Y-175314922D01*
X83076421Y-175332831D01*
X83059938Y-175351111D01*
X83043485Y-175369758D01*
X83027073Y-175388768D01*
X83010711Y-175408136D01*
X82994408Y-175427858D01*
X82978172Y-175447930D01*
X82962012Y-175468346D01*
X82945936Y-175489104D01*
X82929955Y-175510200D01*
X82914075Y-175531628D01*
X82898308Y-175553384D01*
X82882660Y-175575464D01*
X82867141Y-175597865D01*
X82851760Y-175620581D01*
X82836526Y-175643608D01*
X82821446Y-175666942D01*
X82806532Y-175690579D01*
X82791790Y-175714514D01*
X82777230Y-175738745D01*
X82762860Y-175763265D01*
X82748691Y-175788070D01*
X82734729Y-175813157D01*
X82720471Y-175838485D01*
X82706562Y-175863773D01*
X82693002Y-175889020D01*
X82679791Y-175914219D01*
X82666924Y-175939365D01*
X82654404Y-175964453D01*
X82642228Y-175989476D01*
X82630394Y-176014432D01*
X82618904Y-176039313D01*
X82607755Y-176064115D01*
X82596945Y-176088834D01*
X82586475Y-176113463D01*
X82576343Y-176137997D01*
X82566546Y-176162431D01*
X82557086Y-176186759D01*
X82547962Y-176210978D01*
X82539171Y-176235082D01*
X82530713Y-176259064D01*
X82522586Y-176282920D01*
X82514789Y-176306646D01*
X82507323Y-176330235D01*
X82500185Y-176353682D01*
X82493373Y-176376983D01*
X82486889Y-176400131D01*
X82480730Y-176423123D01*
X82474894Y-176445952D01*
X82469383Y-176468613D01*
X82464194Y-176491102D01*
X82459325Y-176513413D01*
X82440832Y-176506452D01*
X82421472Y-176499708D01*
X82401200Y-176493241D01*
X82379963Y-176487110D01*
X82357714Y-176481374D01*
X82334403Y-176476093D01*
X82309983Y-176471327D01*
X82284404Y-176467133D01*
X82257615Y-176463573D01*
X82229569Y-176460706D01*
X82200218Y-176458590D01*
X82169511Y-176457285D01*
X82137399Y-176456851D01*
X82103834Y-176457347D01*
X81675846Y-176459672D01*
X81674679Y-176477664D01*
X81671309Y-176495727D01*
X81664328Y-176512693D01*
X81651032Y-176531177D01*
X81634821Y-176546209D01*
X81616314Y-176557617D01*
X81596125Y-176565225D01*
X81574871Y-176568860D01*
X81553169Y-176568348D01*
X81531636Y-176563515D01*
X81510887Y-176554186D01*
X81492415Y-176540870D01*
X81477411Y-176524609D01*
X81466046Y-176506029D01*
X81458485Y-176485759D01*
X81454897Y-176464423D01*
X81455450Y-176442649D01*
X81460313Y-176421065D01*
X81469653Y-176400297D01*
X81482957Y-176381843D01*
X81499189Y-176366891D01*
X81517728Y-176355597D01*
X81537952Y-176348118D01*
X81559240Y-176344612D01*
X81580971Y-176345238D01*
X81602527Y-176350151D01*
X81623283Y-176359510D01*
X81639692Y-176372166D01*
X81653535Y-176388695D01*
X81664723Y-176407528D01*
X81673170Y-176427099D01*
X81691346Y-176421767D01*
X81710664Y-176415997D01*
X81731034Y-176409792D01*
X81752366Y-176403157D01*
X81774573Y-176396096D01*
X81797563Y-176388616D01*
X81821248Y-176380718D01*
X81845538Y-176372409D01*
X81870345Y-176363694D01*
X81895578Y-176354575D01*
X81921148Y-176345059D01*
X81946966Y-176335150D01*
X81972942Y-176324853D01*
X81998987Y-176314172D01*
X82025011Y-176303111D01*
X82050925Y-176291676D01*
X82076641Y-176279870D01*
X82102068Y-176267700D01*
X82127116Y-176255170D01*
X82151697Y-176242281D01*
X82175721Y-176229043D01*
X82199099Y-176215458D01*
X82221740Y-176201529D01*
X82243557Y-176187263D01*
X82264460Y-176172664D01*
X82284359Y-176157737D01*
X82303164Y-176142486D01*
X82320786Y-176126916D01*
X82337137Y-176111031D01*
X82352126Y-176094836D01*
X82365663Y-176078336D01*
X82377660Y-176061534D01*
X82388029Y-176044437D01*
X82396677Y-176027048D01*
X82403517Y-176009373D01*
X82408459Y-175991415D01*
X82411414Y-175973179D01*
X82401421Y-175950293D01*
X82390761Y-175927706D01*
X82379455Y-175905415D01*
X82367527Y-175883415D01*
X82354999Y-175861706D01*
X82341891Y-175840280D01*
X82328226Y-175819138D01*
X82314028Y-175798276D01*
X82299317Y-175777690D01*
X82284116Y-175757378D01*
X82268447Y-175737334D01*
X82252333Y-175717559D01*
X82235795Y-175698047D01*
X82218855Y-175678795D01*
X82201537Y-175659801D01*
X82183861Y-175641061D01*
X82165850Y-175622571D01*
X82147526Y-175604330D01*
X82128912Y-175586333D01*
X82110029Y-175568578D01*
X82090900Y-175551061D01*
X82071547Y-175533779D01*
X82051992Y-175516729D01*
X82032257Y-175499908D01*
X82012364Y-175483313D01*
X81992336Y-175466941D01*
X81972195Y-175450787D01*
X81951962Y-175434849D01*
X81931659Y-175419124D01*
X81911311Y-175403609D01*
X81890937Y-175388302D01*
X81870561Y-175373197D01*
X81850205Y-175358292D01*
X81829890Y-175343585D01*
X81809638Y-175329071D01*
X81789473Y-175314748D01*
X81769416Y-175300613D01*
X81749490Y-175286662D01*
X81729716Y-175272892D01*
X81713992Y-175291859D01*
X81702220Y-175303486D01*
X81686399Y-175313222D01*
X81667293Y-175320614D01*
X81645665Y-175325209D01*
X81622278Y-175326549D01*
X81597895Y-175324183D01*
X81573281Y-175317655D01*
X81549197Y-175306509D01*
X81529703Y-175293050D01*
X81513086Y-175277077D01*
X81499452Y-175258996D01*
X81488903Y-175239216D01*
X81481547Y-175218145D01*
X81477487Y-175196191D01*
X81476827Y-175173761D01*
X81479674Y-175151264D01*
X81486131Y-175129107D01*
X81496304Y-175107700D01*
G37*
D13*
X71947400Y-166878000D03*
G04 #@! TA.AperFunction,SMDPad,CuDef*
D12*
G36*
X73227400Y-166378602D02*
G01*
X73251934Y-166378602D01*
X73300765Y-166383412D01*
X73348890Y-166392984D01*
X73395845Y-166407228D01*
X73441178Y-166426005D01*
X73484451Y-166449136D01*
X73525250Y-166476396D01*
X73563179Y-166507524D01*
X73597876Y-166542221D01*
X73629004Y-166580150D01*
X73656264Y-166620949D01*
X73679395Y-166664222D01*
X73698172Y-166709555D01*
X73712416Y-166756510D01*
X73721988Y-166804635D01*
X73726798Y-166853466D01*
X73726798Y-166902534D01*
X73721988Y-166951365D01*
X73712416Y-166999490D01*
X73698172Y-167046445D01*
X73679395Y-167091778D01*
X73656264Y-167135051D01*
X73629004Y-167175850D01*
X73597876Y-167213779D01*
X73563179Y-167248476D01*
X73525250Y-167279604D01*
X73484451Y-167306864D01*
X73441178Y-167329995D01*
X73395845Y-167348772D01*
X73348890Y-167363016D01*
X73300765Y-167372588D01*
X73251934Y-167377398D01*
X73227400Y-167377398D01*
X73227400Y-167378000D01*
X72727400Y-167378000D01*
X72727400Y-166378000D01*
X73227400Y-166378000D01*
X73227400Y-166378602D01*
G37*
G04 #@! TD.AperFunction*
G04 #@! TA.AperFunction,SMDPad,CuDef*
G36*
X71167400Y-167378000D02*
G01*
X70667400Y-167378000D01*
X70667400Y-167377398D01*
X70642866Y-167377398D01*
X70594035Y-167372588D01*
X70545910Y-167363016D01*
X70498955Y-167348772D01*
X70453622Y-167329995D01*
X70410349Y-167306864D01*
X70369550Y-167279604D01*
X70331621Y-167248476D01*
X70296924Y-167213779D01*
X70265796Y-167175850D01*
X70238536Y-167135051D01*
X70215405Y-167091778D01*
X70196628Y-167046445D01*
X70182384Y-166999490D01*
X70172812Y-166951365D01*
X70168002Y-166902534D01*
X70168002Y-166853466D01*
X70172812Y-166804635D01*
X70182384Y-166756510D01*
X70196628Y-166709555D01*
X70215405Y-166664222D01*
X70238536Y-166620949D01*
X70265796Y-166580150D01*
X70296924Y-166542221D01*
X70331621Y-166507524D01*
X70369550Y-166476396D01*
X70410349Y-166449136D01*
X70453622Y-166426005D01*
X70498955Y-166407228D01*
X70545910Y-166392984D01*
X70594035Y-166383412D01*
X70642866Y-166378602D01*
X70667400Y-166378602D01*
X70667400Y-166378000D01*
X71167400Y-166378000D01*
X71167400Y-167378000D01*
G37*
G04 #@! TD.AperFunction*
D13*
X78943200Y-166878000D03*
G04 #@! TA.AperFunction,SMDPad,CuDef*
D12*
G36*
X80223200Y-166378602D02*
G01*
X80247734Y-166378602D01*
X80296565Y-166383412D01*
X80344690Y-166392984D01*
X80391645Y-166407228D01*
X80436978Y-166426005D01*
X80480251Y-166449136D01*
X80521050Y-166476396D01*
X80558979Y-166507524D01*
X80593676Y-166542221D01*
X80624804Y-166580150D01*
X80652064Y-166620949D01*
X80675195Y-166664222D01*
X80693972Y-166709555D01*
X80708216Y-166756510D01*
X80717788Y-166804635D01*
X80722598Y-166853466D01*
X80722598Y-166902534D01*
X80717788Y-166951365D01*
X80708216Y-166999490D01*
X80693972Y-167046445D01*
X80675195Y-167091778D01*
X80652064Y-167135051D01*
X80624804Y-167175850D01*
X80593676Y-167213779D01*
X80558979Y-167248476D01*
X80521050Y-167279604D01*
X80480251Y-167306864D01*
X80436978Y-167329995D01*
X80391645Y-167348772D01*
X80344690Y-167363016D01*
X80296565Y-167372588D01*
X80247734Y-167377398D01*
X80223200Y-167377398D01*
X80223200Y-167378000D01*
X79723200Y-167378000D01*
X79723200Y-166378000D01*
X80223200Y-166378000D01*
X80223200Y-166378602D01*
G37*
G04 #@! TD.AperFunction*
G04 #@! TA.AperFunction,SMDPad,CuDef*
G36*
X78163200Y-167378000D02*
G01*
X77663200Y-167378000D01*
X77663200Y-167377398D01*
X77638666Y-167377398D01*
X77589835Y-167372588D01*
X77541710Y-167363016D01*
X77494755Y-167348772D01*
X77449422Y-167329995D01*
X77406149Y-167306864D01*
X77365350Y-167279604D01*
X77327421Y-167248476D01*
X77292724Y-167213779D01*
X77261596Y-167175850D01*
X77234336Y-167135051D01*
X77211205Y-167091778D01*
X77192428Y-167046445D01*
X77178184Y-166999490D01*
X77168612Y-166951365D01*
X77163802Y-166902534D01*
X77163802Y-166853466D01*
X77168612Y-166804635D01*
X77178184Y-166756510D01*
X77192428Y-166709555D01*
X77211205Y-166664222D01*
X77234336Y-166620949D01*
X77261596Y-166580150D01*
X77292724Y-166542221D01*
X77327421Y-166507524D01*
X77365350Y-166476396D01*
X77406149Y-166449136D01*
X77449422Y-166426005D01*
X77494755Y-166407228D01*
X77541710Y-166392984D01*
X77589835Y-166383412D01*
X77638666Y-166378602D01*
X77663200Y-166378602D01*
X77663200Y-166378000D01*
X78163200Y-166378000D01*
X78163200Y-167378000D01*
G37*
G04 #@! TD.AperFunction*
G04 #@! TA.AperFunction,ComponentPad*
G36*
X68219504Y-160664204D02*
G01*
X68243773Y-160667804D01*
X68267571Y-160673765D01*
X68290671Y-160682030D01*
X68312849Y-160692520D01*
X68333893Y-160705133D01*
X68353598Y-160719747D01*
X68371777Y-160736223D01*
X68388253Y-160754402D01*
X68402867Y-160774107D01*
X68415480Y-160795151D01*
X68425970Y-160817329D01*
X68434235Y-160840429D01*
X68440196Y-160864227D01*
X68443796Y-160888496D01*
X68445000Y-160913000D01*
X68445000Y-161413000D01*
X68443796Y-161437504D01*
X68440196Y-161461773D01*
X68434235Y-161485571D01*
X68425970Y-161508671D01*
X68415480Y-161530849D01*
X68402867Y-161551893D01*
X68388253Y-161571598D01*
X68371777Y-161589777D01*
X68353598Y-161606253D01*
X68333893Y-161620867D01*
X68312849Y-161633480D01*
X68290671Y-161643970D01*
X68267571Y-161652235D01*
X68243773Y-161658196D01*
X68219504Y-161661796D01*
X68195000Y-161663000D01*
X67695000Y-161663000D01*
X67670496Y-161661796D01*
X67646227Y-161658196D01*
X67622429Y-161652235D01*
X67599329Y-161643970D01*
X67577151Y-161633480D01*
X67556107Y-161620867D01*
X67536402Y-161606253D01*
X67518223Y-161589777D01*
X67501747Y-161571598D01*
X67487133Y-161551893D01*
X67474520Y-161530849D01*
X67464030Y-161508671D01*
X67455765Y-161485571D01*
X67449804Y-161461773D01*
X67446204Y-161437504D01*
X67445000Y-161413000D01*
X67445000Y-160913000D01*
X67446204Y-160888496D01*
X67449804Y-160864227D01*
X67455765Y-160840429D01*
X67464030Y-160817329D01*
X67474520Y-160795151D01*
X67487133Y-160774107D01*
X67501747Y-160754402D01*
X67518223Y-160736223D01*
X67536402Y-160719747D01*
X67556107Y-160705133D01*
X67577151Y-160692520D01*
X67599329Y-160682030D01*
X67622429Y-160673765D01*
X67646227Y-160667804D01*
X67670496Y-160664204D01*
X67695000Y-160663000D01*
X68195000Y-160663000D01*
X68219504Y-160664204D01*
G37*
G04 #@! TD.AperFunction*
G04 #@! TA.AperFunction,ComponentPad*
G36*
X68219504Y-161934204D02*
G01*
X68243773Y-161937804D01*
X68267571Y-161943765D01*
X68290671Y-161952030D01*
X68312849Y-161962520D01*
X68333893Y-161975133D01*
X68353598Y-161989747D01*
X68371777Y-162006223D01*
X68388253Y-162024402D01*
X68402867Y-162044107D01*
X68415480Y-162065151D01*
X68425970Y-162087329D01*
X68434235Y-162110429D01*
X68440196Y-162134227D01*
X68443796Y-162158496D01*
X68445000Y-162183000D01*
X68445000Y-162683000D01*
X68443796Y-162707504D01*
X68440196Y-162731773D01*
X68434235Y-162755571D01*
X68425970Y-162778671D01*
X68415480Y-162800849D01*
X68402867Y-162821893D01*
X68388253Y-162841598D01*
X68371777Y-162859777D01*
X68353598Y-162876253D01*
X68333893Y-162890867D01*
X68312849Y-162903480D01*
X68290671Y-162913970D01*
X68267571Y-162922235D01*
X68243773Y-162928196D01*
X68219504Y-162931796D01*
X68195000Y-162933000D01*
X67695000Y-162933000D01*
X67670496Y-162931796D01*
X67646227Y-162928196D01*
X67622429Y-162922235D01*
X67599329Y-162913970D01*
X67577151Y-162903480D01*
X67556107Y-162890867D01*
X67536402Y-162876253D01*
X67518223Y-162859777D01*
X67501747Y-162841598D01*
X67487133Y-162821893D01*
X67474520Y-162800849D01*
X67464030Y-162778671D01*
X67455765Y-162755571D01*
X67449804Y-162731773D01*
X67446204Y-162707504D01*
X67445000Y-162683000D01*
X67445000Y-162183000D01*
X67446204Y-162158496D01*
X67449804Y-162134227D01*
X67455765Y-162110429D01*
X67464030Y-162087329D01*
X67474520Y-162065151D01*
X67487133Y-162044107D01*
X67501747Y-162024402D01*
X67518223Y-162006223D01*
X67536402Y-161989747D01*
X67556107Y-161975133D01*
X67577151Y-161962520D01*
X67599329Y-161952030D01*
X67622429Y-161943765D01*
X67646227Y-161937804D01*
X67670496Y-161934204D01*
X67695000Y-161933000D01*
X68195000Y-161933000D01*
X68219504Y-161934204D01*
G37*
G04 #@! TD.AperFunction*
G04 #@! TA.AperFunction,ComponentPad*
G36*
X68219504Y-163204204D02*
G01*
X68243773Y-163207804D01*
X68267571Y-163213765D01*
X68290671Y-163222030D01*
X68312849Y-163232520D01*
X68333893Y-163245133D01*
X68353598Y-163259747D01*
X68371777Y-163276223D01*
X68388253Y-163294402D01*
X68402867Y-163314107D01*
X68415480Y-163335151D01*
X68425970Y-163357329D01*
X68434235Y-163380429D01*
X68440196Y-163404227D01*
X68443796Y-163428496D01*
X68445000Y-163453000D01*
X68445000Y-163953000D01*
X68443796Y-163977504D01*
X68440196Y-164001773D01*
X68434235Y-164025571D01*
X68425970Y-164048671D01*
X68415480Y-164070849D01*
X68402867Y-164091893D01*
X68388253Y-164111598D01*
X68371777Y-164129777D01*
X68353598Y-164146253D01*
X68333893Y-164160867D01*
X68312849Y-164173480D01*
X68290671Y-164183970D01*
X68267571Y-164192235D01*
X68243773Y-164198196D01*
X68219504Y-164201796D01*
X68195000Y-164203000D01*
X67695000Y-164203000D01*
X67670496Y-164201796D01*
X67646227Y-164198196D01*
X67622429Y-164192235D01*
X67599329Y-164183970D01*
X67577151Y-164173480D01*
X67556107Y-164160867D01*
X67536402Y-164146253D01*
X67518223Y-164129777D01*
X67501747Y-164111598D01*
X67487133Y-164091893D01*
X67474520Y-164070849D01*
X67464030Y-164048671D01*
X67455765Y-164025571D01*
X67449804Y-164001773D01*
X67446204Y-163977504D01*
X67445000Y-163953000D01*
X67445000Y-163453000D01*
X67446204Y-163428496D01*
X67449804Y-163404227D01*
X67455765Y-163380429D01*
X67464030Y-163357329D01*
X67474520Y-163335151D01*
X67487133Y-163314107D01*
X67501747Y-163294402D01*
X67518223Y-163276223D01*
X67536402Y-163259747D01*
X67556107Y-163245133D01*
X67577151Y-163232520D01*
X67599329Y-163222030D01*
X67622429Y-163213765D01*
X67646227Y-163207804D01*
X67670496Y-163204204D01*
X67695000Y-163203000D01*
X68195000Y-163203000D01*
X68219504Y-163204204D01*
G37*
G04 #@! TD.AperFunction*
G04 #@! TA.AperFunction,ComponentPad*
G36*
X68219504Y-164474204D02*
G01*
X68243773Y-164477804D01*
X68267571Y-164483765D01*
X68290671Y-164492030D01*
X68312849Y-164502520D01*
X68333893Y-164515133D01*
X68353598Y-164529747D01*
X68371777Y-164546223D01*
X68388253Y-164564402D01*
X68402867Y-164584107D01*
X68415480Y-164605151D01*
X68425970Y-164627329D01*
X68434235Y-164650429D01*
X68440196Y-164674227D01*
X68443796Y-164698496D01*
X68445000Y-164723000D01*
X68445000Y-165223000D01*
X68443796Y-165247504D01*
X68440196Y-165271773D01*
X68434235Y-165295571D01*
X68425970Y-165318671D01*
X68415480Y-165340849D01*
X68402867Y-165361893D01*
X68388253Y-165381598D01*
X68371777Y-165399777D01*
X68353598Y-165416253D01*
X68333893Y-165430867D01*
X68312849Y-165443480D01*
X68290671Y-165453970D01*
X68267571Y-165462235D01*
X68243773Y-165468196D01*
X68219504Y-165471796D01*
X68195000Y-165473000D01*
X67695000Y-165473000D01*
X67670496Y-165471796D01*
X67646227Y-165468196D01*
X67622429Y-165462235D01*
X67599329Y-165453970D01*
X67577151Y-165443480D01*
X67556107Y-165430867D01*
X67536402Y-165416253D01*
X67518223Y-165399777D01*
X67501747Y-165381598D01*
X67487133Y-165361893D01*
X67474520Y-165340849D01*
X67464030Y-165318671D01*
X67455765Y-165295571D01*
X67449804Y-165271773D01*
X67446204Y-165247504D01*
X67445000Y-165223000D01*
X67445000Y-164723000D01*
X67446204Y-164698496D01*
X67449804Y-164674227D01*
X67455765Y-164650429D01*
X67464030Y-164627329D01*
X67474520Y-164605151D01*
X67487133Y-164584107D01*
X67501747Y-164564402D01*
X67518223Y-164546223D01*
X67536402Y-164529747D01*
X67556107Y-164515133D01*
X67577151Y-164502520D01*
X67599329Y-164492030D01*
X67622429Y-164483765D01*
X67646227Y-164477804D01*
X67670496Y-164474204D01*
X67695000Y-164473000D01*
X68195000Y-164473000D01*
X68219504Y-164474204D01*
G37*
G04 #@! TD.AperFunction*
G04 #@! TA.AperFunction,SMDPad,CuDef*
G36*
X68969504Y-160664204D02*
G01*
X68993773Y-160667804D01*
X69017571Y-160673765D01*
X69040671Y-160682030D01*
X69062849Y-160692520D01*
X69083893Y-160705133D01*
X69103598Y-160719747D01*
X69121777Y-160736223D01*
X69138253Y-160754402D01*
X69152867Y-160774107D01*
X69165480Y-160795151D01*
X69175970Y-160817329D01*
X69184235Y-160840429D01*
X69190196Y-160864227D01*
X69193796Y-160888496D01*
X69195000Y-160913000D01*
X69195000Y-161413000D01*
X69193796Y-161437504D01*
X69190196Y-161461773D01*
X69184235Y-161485571D01*
X69175970Y-161508671D01*
X69165480Y-161530849D01*
X69152867Y-161551893D01*
X69138253Y-161571598D01*
X69121777Y-161589777D01*
X69103598Y-161606253D01*
X69083893Y-161620867D01*
X69062849Y-161633480D01*
X69040671Y-161643970D01*
X69017571Y-161652235D01*
X68993773Y-161658196D01*
X68969504Y-161661796D01*
X68945000Y-161663000D01*
X67695000Y-161663000D01*
X67670496Y-161661796D01*
X67646227Y-161658196D01*
X67622429Y-161652235D01*
X67599329Y-161643970D01*
X67577151Y-161633480D01*
X67556107Y-161620867D01*
X67536402Y-161606253D01*
X67518223Y-161589777D01*
X67501747Y-161571598D01*
X67487133Y-161551893D01*
X67474520Y-161530849D01*
X67464030Y-161508671D01*
X67455765Y-161485571D01*
X67449804Y-161461773D01*
X67446204Y-161437504D01*
X67445000Y-161413000D01*
X67445000Y-160913000D01*
X67446204Y-160888496D01*
X67449804Y-160864227D01*
X67455765Y-160840429D01*
X67464030Y-160817329D01*
X67474520Y-160795151D01*
X67487133Y-160774107D01*
X67501747Y-160754402D01*
X67518223Y-160736223D01*
X67536402Y-160719747D01*
X67556107Y-160705133D01*
X67577151Y-160692520D01*
X67599329Y-160682030D01*
X67622429Y-160673765D01*
X67646227Y-160667804D01*
X67670496Y-160664204D01*
X67695000Y-160663000D01*
X68945000Y-160663000D01*
X68969504Y-160664204D01*
G37*
G04 #@! TD.AperFunction*
G04 #@! TA.AperFunction,SMDPad,CuDef*
G36*
X68969504Y-161934204D02*
G01*
X68993773Y-161937804D01*
X69017571Y-161943765D01*
X69040671Y-161952030D01*
X69062849Y-161962520D01*
X69083893Y-161975133D01*
X69103598Y-161989747D01*
X69121777Y-162006223D01*
X69138253Y-162024402D01*
X69152867Y-162044107D01*
X69165480Y-162065151D01*
X69175970Y-162087329D01*
X69184235Y-162110429D01*
X69190196Y-162134227D01*
X69193796Y-162158496D01*
X69195000Y-162183000D01*
X69195000Y-162683000D01*
X69193796Y-162707504D01*
X69190196Y-162731773D01*
X69184235Y-162755571D01*
X69175970Y-162778671D01*
X69165480Y-162800849D01*
X69152867Y-162821893D01*
X69138253Y-162841598D01*
X69121777Y-162859777D01*
X69103598Y-162876253D01*
X69083893Y-162890867D01*
X69062849Y-162903480D01*
X69040671Y-162913970D01*
X69017571Y-162922235D01*
X68993773Y-162928196D01*
X68969504Y-162931796D01*
X68945000Y-162933000D01*
X67695000Y-162933000D01*
X67670496Y-162931796D01*
X67646227Y-162928196D01*
X67622429Y-162922235D01*
X67599329Y-162913970D01*
X67577151Y-162903480D01*
X67556107Y-162890867D01*
X67536402Y-162876253D01*
X67518223Y-162859777D01*
X67501747Y-162841598D01*
X67487133Y-162821893D01*
X67474520Y-162800849D01*
X67464030Y-162778671D01*
X67455765Y-162755571D01*
X67449804Y-162731773D01*
X67446204Y-162707504D01*
X67445000Y-162683000D01*
X67445000Y-162183000D01*
X67446204Y-162158496D01*
X67449804Y-162134227D01*
X67455765Y-162110429D01*
X67464030Y-162087329D01*
X67474520Y-162065151D01*
X67487133Y-162044107D01*
X67501747Y-162024402D01*
X67518223Y-162006223D01*
X67536402Y-161989747D01*
X67556107Y-161975133D01*
X67577151Y-161962520D01*
X67599329Y-161952030D01*
X67622429Y-161943765D01*
X67646227Y-161937804D01*
X67670496Y-161934204D01*
X67695000Y-161933000D01*
X68945000Y-161933000D01*
X68969504Y-161934204D01*
G37*
G04 #@! TD.AperFunction*
G04 #@! TA.AperFunction,SMDPad,CuDef*
G36*
X68969504Y-163204204D02*
G01*
X68993773Y-163207804D01*
X69017571Y-163213765D01*
X69040671Y-163222030D01*
X69062849Y-163232520D01*
X69083893Y-163245133D01*
X69103598Y-163259747D01*
X69121777Y-163276223D01*
X69138253Y-163294402D01*
X69152867Y-163314107D01*
X69165480Y-163335151D01*
X69175970Y-163357329D01*
X69184235Y-163380429D01*
X69190196Y-163404227D01*
X69193796Y-163428496D01*
X69195000Y-163453000D01*
X69195000Y-163953000D01*
X69193796Y-163977504D01*
X69190196Y-164001773D01*
X69184235Y-164025571D01*
X69175970Y-164048671D01*
X69165480Y-164070849D01*
X69152867Y-164091893D01*
X69138253Y-164111598D01*
X69121777Y-164129777D01*
X69103598Y-164146253D01*
X69083893Y-164160867D01*
X69062849Y-164173480D01*
X69040671Y-164183970D01*
X69017571Y-164192235D01*
X68993773Y-164198196D01*
X68969504Y-164201796D01*
X68945000Y-164203000D01*
X67695000Y-164203000D01*
X67670496Y-164201796D01*
X67646227Y-164198196D01*
X67622429Y-164192235D01*
X67599329Y-164183970D01*
X67577151Y-164173480D01*
X67556107Y-164160867D01*
X67536402Y-164146253D01*
X67518223Y-164129777D01*
X67501747Y-164111598D01*
X67487133Y-164091893D01*
X67474520Y-164070849D01*
X67464030Y-164048671D01*
X67455765Y-164025571D01*
X67449804Y-164001773D01*
X67446204Y-163977504D01*
X67445000Y-163953000D01*
X67445000Y-163453000D01*
X67446204Y-163428496D01*
X67449804Y-163404227D01*
X67455765Y-163380429D01*
X67464030Y-163357329D01*
X67474520Y-163335151D01*
X67487133Y-163314107D01*
X67501747Y-163294402D01*
X67518223Y-163276223D01*
X67536402Y-163259747D01*
X67556107Y-163245133D01*
X67577151Y-163232520D01*
X67599329Y-163222030D01*
X67622429Y-163213765D01*
X67646227Y-163207804D01*
X67670496Y-163204204D01*
X67695000Y-163203000D01*
X68945000Y-163203000D01*
X68969504Y-163204204D01*
G37*
G04 #@! TD.AperFunction*
G04 #@! TA.AperFunction,SMDPad,CuDef*
G36*
X68969504Y-164474204D02*
G01*
X68993773Y-164477804D01*
X69017571Y-164483765D01*
X69040671Y-164492030D01*
X69062849Y-164502520D01*
X69083893Y-164515133D01*
X69103598Y-164529747D01*
X69121777Y-164546223D01*
X69138253Y-164564402D01*
X69152867Y-164584107D01*
X69165480Y-164605151D01*
X69175970Y-164627329D01*
X69184235Y-164650429D01*
X69190196Y-164674227D01*
X69193796Y-164698496D01*
X69195000Y-164723000D01*
X69195000Y-165223000D01*
X69193796Y-165247504D01*
X69190196Y-165271773D01*
X69184235Y-165295571D01*
X69175970Y-165318671D01*
X69165480Y-165340849D01*
X69152867Y-165361893D01*
X69138253Y-165381598D01*
X69121777Y-165399777D01*
X69103598Y-165416253D01*
X69083893Y-165430867D01*
X69062849Y-165443480D01*
X69040671Y-165453970D01*
X69017571Y-165462235D01*
X68993773Y-165468196D01*
X68969504Y-165471796D01*
X68945000Y-165473000D01*
X67695000Y-165473000D01*
X67670496Y-165471796D01*
X67646227Y-165468196D01*
X67622429Y-165462235D01*
X67599329Y-165453970D01*
X67577151Y-165443480D01*
X67556107Y-165430867D01*
X67536402Y-165416253D01*
X67518223Y-165399777D01*
X67501747Y-165381598D01*
X67487133Y-165361893D01*
X67474520Y-165340849D01*
X67464030Y-165318671D01*
X67455765Y-165295571D01*
X67449804Y-165271773D01*
X67446204Y-165247504D01*
X67445000Y-165223000D01*
X67445000Y-164723000D01*
X67446204Y-164698496D01*
X67449804Y-164674227D01*
X67455765Y-164650429D01*
X67464030Y-164627329D01*
X67474520Y-164605151D01*
X67487133Y-164584107D01*
X67501747Y-164564402D01*
X67518223Y-164546223D01*
X67536402Y-164529747D01*
X67556107Y-164515133D01*
X67577151Y-164502520D01*
X67599329Y-164492030D01*
X67622429Y-164483765D01*
X67646227Y-164477804D01*
X67670496Y-164474204D01*
X67695000Y-164473000D01*
X68945000Y-164473000D01*
X68969504Y-164474204D01*
G37*
G04 #@! TD.AperFunction*
G04 #@! TA.AperFunction,ComponentPad*
G36*
X83180104Y-160664204D02*
G01*
X83204373Y-160667804D01*
X83228171Y-160673765D01*
X83251271Y-160682030D01*
X83273449Y-160692520D01*
X83294493Y-160705133D01*
X83314198Y-160719747D01*
X83332377Y-160736223D01*
X83348853Y-160754402D01*
X83363467Y-160774107D01*
X83376080Y-160795151D01*
X83386570Y-160817329D01*
X83394835Y-160840429D01*
X83400796Y-160864227D01*
X83404396Y-160888496D01*
X83405600Y-160913000D01*
X83405600Y-161413000D01*
X83404396Y-161437504D01*
X83400796Y-161461773D01*
X83394835Y-161485571D01*
X83386570Y-161508671D01*
X83376080Y-161530849D01*
X83363467Y-161551893D01*
X83348853Y-161571598D01*
X83332377Y-161589777D01*
X83314198Y-161606253D01*
X83294493Y-161620867D01*
X83273449Y-161633480D01*
X83251271Y-161643970D01*
X83228171Y-161652235D01*
X83204373Y-161658196D01*
X83180104Y-161661796D01*
X83155600Y-161663000D01*
X82655600Y-161663000D01*
X82631096Y-161661796D01*
X82606827Y-161658196D01*
X82583029Y-161652235D01*
X82559929Y-161643970D01*
X82537751Y-161633480D01*
X82516707Y-161620867D01*
X82497002Y-161606253D01*
X82478823Y-161589777D01*
X82462347Y-161571598D01*
X82447733Y-161551893D01*
X82435120Y-161530849D01*
X82424630Y-161508671D01*
X82416365Y-161485571D01*
X82410404Y-161461773D01*
X82406804Y-161437504D01*
X82405600Y-161413000D01*
X82405600Y-160913000D01*
X82406804Y-160888496D01*
X82410404Y-160864227D01*
X82416365Y-160840429D01*
X82424630Y-160817329D01*
X82435120Y-160795151D01*
X82447733Y-160774107D01*
X82462347Y-160754402D01*
X82478823Y-160736223D01*
X82497002Y-160719747D01*
X82516707Y-160705133D01*
X82537751Y-160692520D01*
X82559929Y-160682030D01*
X82583029Y-160673765D01*
X82606827Y-160667804D01*
X82631096Y-160664204D01*
X82655600Y-160663000D01*
X83155600Y-160663000D01*
X83180104Y-160664204D01*
G37*
G04 #@! TD.AperFunction*
G04 #@! TA.AperFunction,ComponentPad*
G36*
X83180104Y-161934204D02*
G01*
X83204373Y-161937804D01*
X83228171Y-161943765D01*
X83251271Y-161952030D01*
X83273449Y-161962520D01*
X83294493Y-161975133D01*
X83314198Y-161989747D01*
X83332377Y-162006223D01*
X83348853Y-162024402D01*
X83363467Y-162044107D01*
X83376080Y-162065151D01*
X83386570Y-162087329D01*
X83394835Y-162110429D01*
X83400796Y-162134227D01*
X83404396Y-162158496D01*
X83405600Y-162183000D01*
X83405600Y-162683000D01*
X83404396Y-162707504D01*
X83400796Y-162731773D01*
X83394835Y-162755571D01*
X83386570Y-162778671D01*
X83376080Y-162800849D01*
X83363467Y-162821893D01*
X83348853Y-162841598D01*
X83332377Y-162859777D01*
X83314198Y-162876253D01*
X83294493Y-162890867D01*
X83273449Y-162903480D01*
X83251271Y-162913970D01*
X83228171Y-162922235D01*
X83204373Y-162928196D01*
X83180104Y-162931796D01*
X83155600Y-162933000D01*
X82655600Y-162933000D01*
X82631096Y-162931796D01*
X82606827Y-162928196D01*
X82583029Y-162922235D01*
X82559929Y-162913970D01*
X82537751Y-162903480D01*
X82516707Y-162890867D01*
X82497002Y-162876253D01*
X82478823Y-162859777D01*
X82462347Y-162841598D01*
X82447733Y-162821893D01*
X82435120Y-162800849D01*
X82424630Y-162778671D01*
X82416365Y-162755571D01*
X82410404Y-162731773D01*
X82406804Y-162707504D01*
X82405600Y-162683000D01*
X82405600Y-162183000D01*
X82406804Y-162158496D01*
X82410404Y-162134227D01*
X82416365Y-162110429D01*
X82424630Y-162087329D01*
X82435120Y-162065151D01*
X82447733Y-162044107D01*
X82462347Y-162024402D01*
X82478823Y-162006223D01*
X82497002Y-161989747D01*
X82516707Y-161975133D01*
X82537751Y-161962520D01*
X82559929Y-161952030D01*
X82583029Y-161943765D01*
X82606827Y-161937804D01*
X82631096Y-161934204D01*
X82655600Y-161933000D01*
X83155600Y-161933000D01*
X83180104Y-161934204D01*
G37*
G04 #@! TD.AperFunction*
G04 #@! TA.AperFunction,ComponentPad*
G36*
X83180104Y-163204204D02*
G01*
X83204373Y-163207804D01*
X83228171Y-163213765D01*
X83251271Y-163222030D01*
X83273449Y-163232520D01*
X83294493Y-163245133D01*
X83314198Y-163259747D01*
X83332377Y-163276223D01*
X83348853Y-163294402D01*
X83363467Y-163314107D01*
X83376080Y-163335151D01*
X83386570Y-163357329D01*
X83394835Y-163380429D01*
X83400796Y-163404227D01*
X83404396Y-163428496D01*
X83405600Y-163453000D01*
X83405600Y-163953000D01*
X83404396Y-163977504D01*
X83400796Y-164001773D01*
X83394835Y-164025571D01*
X83386570Y-164048671D01*
X83376080Y-164070849D01*
X83363467Y-164091893D01*
X83348853Y-164111598D01*
X83332377Y-164129777D01*
X83314198Y-164146253D01*
X83294493Y-164160867D01*
X83273449Y-164173480D01*
X83251271Y-164183970D01*
X83228171Y-164192235D01*
X83204373Y-164198196D01*
X83180104Y-164201796D01*
X83155600Y-164203000D01*
X82655600Y-164203000D01*
X82631096Y-164201796D01*
X82606827Y-164198196D01*
X82583029Y-164192235D01*
X82559929Y-164183970D01*
X82537751Y-164173480D01*
X82516707Y-164160867D01*
X82497002Y-164146253D01*
X82478823Y-164129777D01*
X82462347Y-164111598D01*
X82447733Y-164091893D01*
X82435120Y-164070849D01*
X82424630Y-164048671D01*
X82416365Y-164025571D01*
X82410404Y-164001773D01*
X82406804Y-163977504D01*
X82405600Y-163953000D01*
X82405600Y-163453000D01*
X82406804Y-163428496D01*
X82410404Y-163404227D01*
X82416365Y-163380429D01*
X82424630Y-163357329D01*
X82435120Y-163335151D01*
X82447733Y-163314107D01*
X82462347Y-163294402D01*
X82478823Y-163276223D01*
X82497002Y-163259747D01*
X82516707Y-163245133D01*
X82537751Y-163232520D01*
X82559929Y-163222030D01*
X82583029Y-163213765D01*
X82606827Y-163207804D01*
X82631096Y-163204204D01*
X82655600Y-163203000D01*
X83155600Y-163203000D01*
X83180104Y-163204204D01*
G37*
G04 #@! TD.AperFunction*
G04 #@! TA.AperFunction,ComponentPad*
G36*
X83180104Y-164474204D02*
G01*
X83204373Y-164477804D01*
X83228171Y-164483765D01*
X83251271Y-164492030D01*
X83273449Y-164502520D01*
X83294493Y-164515133D01*
X83314198Y-164529747D01*
X83332377Y-164546223D01*
X83348853Y-164564402D01*
X83363467Y-164584107D01*
X83376080Y-164605151D01*
X83386570Y-164627329D01*
X83394835Y-164650429D01*
X83400796Y-164674227D01*
X83404396Y-164698496D01*
X83405600Y-164723000D01*
X83405600Y-165223000D01*
X83404396Y-165247504D01*
X83400796Y-165271773D01*
X83394835Y-165295571D01*
X83386570Y-165318671D01*
X83376080Y-165340849D01*
X83363467Y-165361893D01*
X83348853Y-165381598D01*
X83332377Y-165399777D01*
X83314198Y-165416253D01*
X83294493Y-165430867D01*
X83273449Y-165443480D01*
X83251271Y-165453970D01*
X83228171Y-165462235D01*
X83204373Y-165468196D01*
X83180104Y-165471796D01*
X83155600Y-165473000D01*
X82655600Y-165473000D01*
X82631096Y-165471796D01*
X82606827Y-165468196D01*
X82583029Y-165462235D01*
X82559929Y-165453970D01*
X82537751Y-165443480D01*
X82516707Y-165430867D01*
X82497002Y-165416253D01*
X82478823Y-165399777D01*
X82462347Y-165381598D01*
X82447733Y-165361893D01*
X82435120Y-165340849D01*
X82424630Y-165318671D01*
X82416365Y-165295571D01*
X82410404Y-165271773D01*
X82406804Y-165247504D01*
X82405600Y-165223000D01*
X82405600Y-164723000D01*
X82406804Y-164698496D01*
X82410404Y-164674227D01*
X82416365Y-164650429D01*
X82424630Y-164627329D01*
X82435120Y-164605151D01*
X82447733Y-164584107D01*
X82462347Y-164564402D01*
X82478823Y-164546223D01*
X82497002Y-164529747D01*
X82516707Y-164515133D01*
X82537751Y-164502520D01*
X82559929Y-164492030D01*
X82583029Y-164483765D01*
X82606827Y-164477804D01*
X82631096Y-164474204D01*
X82655600Y-164473000D01*
X83155600Y-164473000D01*
X83180104Y-164474204D01*
G37*
G04 #@! TD.AperFunction*
G04 #@! TA.AperFunction,SMDPad,CuDef*
G36*
X83180104Y-160664204D02*
G01*
X83204373Y-160667804D01*
X83228171Y-160673765D01*
X83251271Y-160682030D01*
X83273449Y-160692520D01*
X83294493Y-160705133D01*
X83314198Y-160719747D01*
X83332377Y-160736223D01*
X83348853Y-160754402D01*
X83363467Y-160774107D01*
X83376080Y-160795151D01*
X83386570Y-160817329D01*
X83394835Y-160840429D01*
X83400796Y-160864227D01*
X83404396Y-160888496D01*
X83405600Y-160913000D01*
X83405600Y-161413000D01*
X83404396Y-161437504D01*
X83400796Y-161461773D01*
X83394835Y-161485571D01*
X83386570Y-161508671D01*
X83376080Y-161530849D01*
X83363467Y-161551893D01*
X83348853Y-161571598D01*
X83332377Y-161589777D01*
X83314198Y-161606253D01*
X83294493Y-161620867D01*
X83273449Y-161633480D01*
X83251271Y-161643970D01*
X83228171Y-161652235D01*
X83204373Y-161658196D01*
X83180104Y-161661796D01*
X83155600Y-161663000D01*
X81905600Y-161663000D01*
X81881096Y-161661796D01*
X81856827Y-161658196D01*
X81833029Y-161652235D01*
X81809929Y-161643970D01*
X81787751Y-161633480D01*
X81766707Y-161620867D01*
X81747002Y-161606253D01*
X81728823Y-161589777D01*
X81712347Y-161571598D01*
X81697733Y-161551893D01*
X81685120Y-161530849D01*
X81674630Y-161508671D01*
X81666365Y-161485571D01*
X81660404Y-161461773D01*
X81656804Y-161437504D01*
X81655600Y-161413000D01*
X81655600Y-160913000D01*
X81656804Y-160888496D01*
X81660404Y-160864227D01*
X81666365Y-160840429D01*
X81674630Y-160817329D01*
X81685120Y-160795151D01*
X81697733Y-160774107D01*
X81712347Y-160754402D01*
X81728823Y-160736223D01*
X81747002Y-160719747D01*
X81766707Y-160705133D01*
X81787751Y-160692520D01*
X81809929Y-160682030D01*
X81833029Y-160673765D01*
X81856827Y-160667804D01*
X81881096Y-160664204D01*
X81905600Y-160663000D01*
X83155600Y-160663000D01*
X83180104Y-160664204D01*
G37*
G04 #@! TD.AperFunction*
G04 #@! TA.AperFunction,SMDPad,CuDef*
G36*
X83180104Y-161934204D02*
G01*
X83204373Y-161937804D01*
X83228171Y-161943765D01*
X83251271Y-161952030D01*
X83273449Y-161962520D01*
X83294493Y-161975133D01*
X83314198Y-161989747D01*
X83332377Y-162006223D01*
X83348853Y-162024402D01*
X83363467Y-162044107D01*
X83376080Y-162065151D01*
X83386570Y-162087329D01*
X83394835Y-162110429D01*
X83400796Y-162134227D01*
X83404396Y-162158496D01*
X83405600Y-162183000D01*
X83405600Y-162683000D01*
X83404396Y-162707504D01*
X83400796Y-162731773D01*
X83394835Y-162755571D01*
X83386570Y-162778671D01*
X83376080Y-162800849D01*
X83363467Y-162821893D01*
X83348853Y-162841598D01*
X83332377Y-162859777D01*
X83314198Y-162876253D01*
X83294493Y-162890867D01*
X83273449Y-162903480D01*
X83251271Y-162913970D01*
X83228171Y-162922235D01*
X83204373Y-162928196D01*
X83180104Y-162931796D01*
X83155600Y-162933000D01*
X81905600Y-162933000D01*
X81881096Y-162931796D01*
X81856827Y-162928196D01*
X81833029Y-162922235D01*
X81809929Y-162913970D01*
X81787751Y-162903480D01*
X81766707Y-162890867D01*
X81747002Y-162876253D01*
X81728823Y-162859777D01*
X81712347Y-162841598D01*
X81697733Y-162821893D01*
X81685120Y-162800849D01*
X81674630Y-162778671D01*
X81666365Y-162755571D01*
X81660404Y-162731773D01*
X81656804Y-162707504D01*
X81655600Y-162683000D01*
X81655600Y-162183000D01*
X81656804Y-162158496D01*
X81660404Y-162134227D01*
X81666365Y-162110429D01*
X81674630Y-162087329D01*
X81685120Y-162065151D01*
X81697733Y-162044107D01*
X81712347Y-162024402D01*
X81728823Y-162006223D01*
X81747002Y-161989747D01*
X81766707Y-161975133D01*
X81787751Y-161962520D01*
X81809929Y-161952030D01*
X81833029Y-161943765D01*
X81856827Y-161937804D01*
X81881096Y-161934204D01*
X81905600Y-161933000D01*
X83155600Y-161933000D01*
X83180104Y-161934204D01*
G37*
G04 #@! TD.AperFunction*
G04 #@! TA.AperFunction,SMDPad,CuDef*
G36*
X83180104Y-163204204D02*
G01*
X83204373Y-163207804D01*
X83228171Y-163213765D01*
X83251271Y-163222030D01*
X83273449Y-163232520D01*
X83294493Y-163245133D01*
X83314198Y-163259747D01*
X83332377Y-163276223D01*
X83348853Y-163294402D01*
X83363467Y-163314107D01*
X83376080Y-163335151D01*
X83386570Y-163357329D01*
X83394835Y-163380429D01*
X83400796Y-163404227D01*
X83404396Y-163428496D01*
X83405600Y-163453000D01*
X83405600Y-163953000D01*
X83404396Y-163977504D01*
X83400796Y-164001773D01*
X83394835Y-164025571D01*
X83386570Y-164048671D01*
X83376080Y-164070849D01*
X83363467Y-164091893D01*
X83348853Y-164111598D01*
X83332377Y-164129777D01*
X83314198Y-164146253D01*
X83294493Y-164160867D01*
X83273449Y-164173480D01*
X83251271Y-164183970D01*
X83228171Y-164192235D01*
X83204373Y-164198196D01*
X83180104Y-164201796D01*
X83155600Y-164203000D01*
X81905600Y-164203000D01*
X81881096Y-164201796D01*
X81856827Y-164198196D01*
X81833029Y-164192235D01*
X81809929Y-164183970D01*
X81787751Y-164173480D01*
X81766707Y-164160867D01*
X81747002Y-164146253D01*
X81728823Y-164129777D01*
X81712347Y-164111598D01*
X81697733Y-164091893D01*
X81685120Y-164070849D01*
X81674630Y-164048671D01*
X81666365Y-164025571D01*
X81660404Y-164001773D01*
X81656804Y-163977504D01*
X81655600Y-163953000D01*
X81655600Y-163453000D01*
X81656804Y-163428496D01*
X81660404Y-163404227D01*
X81666365Y-163380429D01*
X81674630Y-163357329D01*
X81685120Y-163335151D01*
X81697733Y-163314107D01*
X81712347Y-163294402D01*
X81728823Y-163276223D01*
X81747002Y-163259747D01*
X81766707Y-163245133D01*
X81787751Y-163232520D01*
X81809929Y-163222030D01*
X81833029Y-163213765D01*
X81856827Y-163207804D01*
X81881096Y-163204204D01*
X81905600Y-163203000D01*
X83155600Y-163203000D01*
X83180104Y-163204204D01*
G37*
G04 #@! TD.AperFunction*
G04 #@! TA.AperFunction,SMDPad,CuDef*
G36*
X83180104Y-164474204D02*
G01*
X83204373Y-164477804D01*
X83228171Y-164483765D01*
X83251271Y-164492030D01*
X83273449Y-164502520D01*
X83294493Y-164515133D01*
X83314198Y-164529747D01*
X83332377Y-164546223D01*
X83348853Y-164564402D01*
X83363467Y-164584107D01*
X83376080Y-164605151D01*
X83386570Y-164627329D01*
X83394835Y-164650429D01*
X83400796Y-164674227D01*
X83404396Y-164698496D01*
X83405600Y-164723000D01*
X83405600Y-165223000D01*
X83404396Y-165247504D01*
X83400796Y-165271773D01*
X83394835Y-165295571D01*
X83386570Y-165318671D01*
X83376080Y-165340849D01*
X83363467Y-165361893D01*
X83348853Y-165381598D01*
X83332377Y-165399777D01*
X83314198Y-165416253D01*
X83294493Y-165430867D01*
X83273449Y-165443480D01*
X83251271Y-165453970D01*
X83228171Y-165462235D01*
X83204373Y-165468196D01*
X83180104Y-165471796D01*
X83155600Y-165473000D01*
X81905600Y-165473000D01*
X81881096Y-165471796D01*
X81856827Y-165468196D01*
X81833029Y-165462235D01*
X81809929Y-165453970D01*
X81787751Y-165443480D01*
X81766707Y-165430867D01*
X81747002Y-165416253D01*
X81728823Y-165399777D01*
X81712347Y-165381598D01*
X81697733Y-165361893D01*
X81685120Y-165340849D01*
X81674630Y-165318671D01*
X81666365Y-165295571D01*
X81660404Y-165271773D01*
X81656804Y-165247504D01*
X81655600Y-165223000D01*
X81655600Y-164723000D01*
X81656804Y-164698496D01*
X81660404Y-164674227D01*
X81666365Y-164650429D01*
X81674630Y-164627329D01*
X81685120Y-164605151D01*
X81697733Y-164584107D01*
X81712347Y-164564402D01*
X81728823Y-164546223D01*
X81747002Y-164529747D01*
X81766707Y-164515133D01*
X81787751Y-164502520D01*
X81809929Y-164492030D01*
X81833029Y-164483765D01*
X81856827Y-164477804D01*
X81881096Y-164474204D01*
X81905600Y-164473000D01*
X83155600Y-164473000D01*
X83180104Y-164474204D01*
G37*
G04 #@! TD.AperFunction*
G04 #@! TA.AperFunction,ComponentPad*
G36*
X80919504Y-160283204D02*
G01*
X80943773Y-160286804D01*
X80967571Y-160292765D01*
X80990671Y-160301030D01*
X81012849Y-160311520D01*
X81033893Y-160324133D01*
X81053598Y-160338747D01*
X81071777Y-160355223D01*
X81088253Y-160373402D01*
X81102867Y-160393107D01*
X81115480Y-160414151D01*
X81125970Y-160436329D01*
X81134235Y-160459429D01*
X81140196Y-160483227D01*
X81143796Y-160507496D01*
X81145000Y-160532000D01*
X81145000Y-161032000D01*
X81143796Y-161056504D01*
X81140196Y-161080773D01*
X81134235Y-161104571D01*
X81125970Y-161127671D01*
X81115480Y-161149849D01*
X81102867Y-161170893D01*
X81088253Y-161190598D01*
X81071777Y-161208777D01*
X81053598Y-161225253D01*
X81033893Y-161239867D01*
X81012849Y-161252480D01*
X80990671Y-161262970D01*
X80967571Y-161271235D01*
X80943773Y-161277196D01*
X80919504Y-161280796D01*
X80895000Y-161282000D01*
X80395000Y-161282000D01*
X80370496Y-161280796D01*
X80346227Y-161277196D01*
X80322429Y-161271235D01*
X80299329Y-161262970D01*
X80277151Y-161252480D01*
X80256107Y-161239867D01*
X80236402Y-161225253D01*
X80218223Y-161208777D01*
X80201747Y-161190598D01*
X80187133Y-161170893D01*
X80174520Y-161149849D01*
X80164030Y-161127671D01*
X80155765Y-161104571D01*
X80149804Y-161080773D01*
X80146204Y-161056504D01*
X80145000Y-161032000D01*
X80145000Y-160532000D01*
X80146204Y-160507496D01*
X80149804Y-160483227D01*
X80155765Y-160459429D01*
X80164030Y-160436329D01*
X80174520Y-160414151D01*
X80187133Y-160393107D01*
X80201747Y-160373402D01*
X80218223Y-160355223D01*
X80236402Y-160338747D01*
X80256107Y-160324133D01*
X80277151Y-160311520D01*
X80299329Y-160301030D01*
X80322429Y-160292765D01*
X80346227Y-160286804D01*
X80370496Y-160283204D01*
X80395000Y-160282000D01*
X80895000Y-160282000D01*
X80919504Y-160283204D01*
G37*
G04 #@! TD.AperFunction*
G04 #@! TA.AperFunction,ComponentPad*
G36*
X79649504Y-160283204D02*
G01*
X79673773Y-160286804D01*
X79697571Y-160292765D01*
X79720671Y-160301030D01*
X79742849Y-160311520D01*
X79763893Y-160324133D01*
X79783598Y-160338747D01*
X79801777Y-160355223D01*
X79818253Y-160373402D01*
X79832867Y-160393107D01*
X79845480Y-160414151D01*
X79855970Y-160436329D01*
X79864235Y-160459429D01*
X79870196Y-160483227D01*
X79873796Y-160507496D01*
X79875000Y-160532000D01*
X79875000Y-161032000D01*
X79873796Y-161056504D01*
X79870196Y-161080773D01*
X79864235Y-161104571D01*
X79855970Y-161127671D01*
X79845480Y-161149849D01*
X79832867Y-161170893D01*
X79818253Y-161190598D01*
X79801777Y-161208777D01*
X79783598Y-161225253D01*
X79763893Y-161239867D01*
X79742849Y-161252480D01*
X79720671Y-161262970D01*
X79697571Y-161271235D01*
X79673773Y-161277196D01*
X79649504Y-161280796D01*
X79625000Y-161282000D01*
X79125000Y-161282000D01*
X79100496Y-161280796D01*
X79076227Y-161277196D01*
X79052429Y-161271235D01*
X79029329Y-161262970D01*
X79007151Y-161252480D01*
X78986107Y-161239867D01*
X78966402Y-161225253D01*
X78948223Y-161208777D01*
X78931747Y-161190598D01*
X78917133Y-161170893D01*
X78904520Y-161149849D01*
X78894030Y-161127671D01*
X78885765Y-161104571D01*
X78879804Y-161080773D01*
X78876204Y-161056504D01*
X78875000Y-161032000D01*
X78875000Y-160532000D01*
X78876204Y-160507496D01*
X78879804Y-160483227D01*
X78885765Y-160459429D01*
X78894030Y-160436329D01*
X78904520Y-160414151D01*
X78917133Y-160393107D01*
X78931747Y-160373402D01*
X78948223Y-160355223D01*
X78966402Y-160338747D01*
X78986107Y-160324133D01*
X79007151Y-160311520D01*
X79029329Y-160301030D01*
X79052429Y-160292765D01*
X79076227Y-160286804D01*
X79100496Y-160283204D01*
X79125000Y-160282000D01*
X79625000Y-160282000D01*
X79649504Y-160283204D01*
G37*
G04 #@! TD.AperFunction*
G04 #@! TA.AperFunction,ComponentPad*
G36*
X78379504Y-160283204D02*
G01*
X78403773Y-160286804D01*
X78427571Y-160292765D01*
X78450671Y-160301030D01*
X78472849Y-160311520D01*
X78493893Y-160324133D01*
X78513598Y-160338747D01*
X78531777Y-160355223D01*
X78548253Y-160373402D01*
X78562867Y-160393107D01*
X78575480Y-160414151D01*
X78585970Y-160436329D01*
X78594235Y-160459429D01*
X78600196Y-160483227D01*
X78603796Y-160507496D01*
X78605000Y-160532000D01*
X78605000Y-161032000D01*
X78603796Y-161056504D01*
X78600196Y-161080773D01*
X78594235Y-161104571D01*
X78585970Y-161127671D01*
X78575480Y-161149849D01*
X78562867Y-161170893D01*
X78548253Y-161190598D01*
X78531777Y-161208777D01*
X78513598Y-161225253D01*
X78493893Y-161239867D01*
X78472849Y-161252480D01*
X78450671Y-161262970D01*
X78427571Y-161271235D01*
X78403773Y-161277196D01*
X78379504Y-161280796D01*
X78355000Y-161282000D01*
X77855000Y-161282000D01*
X77830496Y-161280796D01*
X77806227Y-161277196D01*
X77782429Y-161271235D01*
X77759329Y-161262970D01*
X77737151Y-161252480D01*
X77716107Y-161239867D01*
X77696402Y-161225253D01*
X77678223Y-161208777D01*
X77661747Y-161190598D01*
X77647133Y-161170893D01*
X77634520Y-161149849D01*
X77624030Y-161127671D01*
X77615765Y-161104571D01*
X77609804Y-161080773D01*
X77606204Y-161056504D01*
X77605000Y-161032000D01*
X77605000Y-160532000D01*
X77606204Y-160507496D01*
X77609804Y-160483227D01*
X77615765Y-160459429D01*
X77624030Y-160436329D01*
X77634520Y-160414151D01*
X77647133Y-160393107D01*
X77661747Y-160373402D01*
X77678223Y-160355223D01*
X77696402Y-160338747D01*
X77716107Y-160324133D01*
X77737151Y-160311520D01*
X77759329Y-160301030D01*
X77782429Y-160292765D01*
X77806227Y-160286804D01*
X77830496Y-160283204D01*
X77855000Y-160282000D01*
X78355000Y-160282000D01*
X78379504Y-160283204D01*
G37*
G04 #@! TD.AperFunction*
G04 #@! TA.AperFunction,ComponentPad*
G36*
X77109504Y-160283204D02*
G01*
X77133773Y-160286804D01*
X77157571Y-160292765D01*
X77180671Y-160301030D01*
X77202849Y-160311520D01*
X77223893Y-160324133D01*
X77243598Y-160338747D01*
X77261777Y-160355223D01*
X77278253Y-160373402D01*
X77292867Y-160393107D01*
X77305480Y-160414151D01*
X77315970Y-160436329D01*
X77324235Y-160459429D01*
X77330196Y-160483227D01*
X77333796Y-160507496D01*
X77335000Y-160532000D01*
X77335000Y-161032000D01*
X77333796Y-161056504D01*
X77330196Y-161080773D01*
X77324235Y-161104571D01*
X77315970Y-161127671D01*
X77305480Y-161149849D01*
X77292867Y-161170893D01*
X77278253Y-161190598D01*
X77261777Y-161208777D01*
X77243598Y-161225253D01*
X77223893Y-161239867D01*
X77202849Y-161252480D01*
X77180671Y-161262970D01*
X77157571Y-161271235D01*
X77133773Y-161277196D01*
X77109504Y-161280796D01*
X77085000Y-161282000D01*
X76585000Y-161282000D01*
X76560496Y-161280796D01*
X76536227Y-161277196D01*
X76512429Y-161271235D01*
X76489329Y-161262970D01*
X76467151Y-161252480D01*
X76446107Y-161239867D01*
X76426402Y-161225253D01*
X76408223Y-161208777D01*
X76391747Y-161190598D01*
X76377133Y-161170893D01*
X76364520Y-161149849D01*
X76354030Y-161127671D01*
X76345765Y-161104571D01*
X76339804Y-161080773D01*
X76336204Y-161056504D01*
X76335000Y-161032000D01*
X76335000Y-160532000D01*
X76336204Y-160507496D01*
X76339804Y-160483227D01*
X76345765Y-160459429D01*
X76354030Y-160436329D01*
X76364520Y-160414151D01*
X76377133Y-160393107D01*
X76391747Y-160373402D01*
X76408223Y-160355223D01*
X76426402Y-160338747D01*
X76446107Y-160324133D01*
X76467151Y-160311520D01*
X76489329Y-160301030D01*
X76512429Y-160292765D01*
X76536227Y-160286804D01*
X76560496Y-160283204D01*
X76585000Y-160282000D01*
X77085000Y-160282000D01*
X77109504Y-160283204D01*
G37*
G04 #@! TD.AperFunction*
G04 #@! TA.AperFunction,SMDPad,CuDef*
G36*
X80919504Y-160283204D02*
G01*
X80943773Y-160286804D01*
X80967571Y-160292765D01*
X80990671Y-160301030D01*
X81012849Y-160311520D01*
X81033893Y-160324133D01*
X81053598Y-160338747D01*
X81071777Y-160355223D01*
X81088253Y-160373402D01*
X81102867Y-160393107D01*
X81115480Y-160414151D01*
X81125970Y-160436329D01*
X81134235Y-160459429D01*
X81140196Y-160483227D01*
X81143796Y-160507496D01*
X81145000Y-160532000D01*
X81145000Y-161782000D01*
X81143796Y-161806504D01*
X81140196Y-161830773D01*
X81134235Y-161854571D01*
X81125970Y-161877671D01*
X81115480Y-161899849D01*
X81102867Y-161920893D01*
X81088253Y-161940598D01*
X81071777Y-161958777D01*
X81053598Y-161975253D01*
X81033893Y-161989867D01*
X81012849Y-162002480D01*
X80990671Y-162012970D01*
X80967571Y-162021235D01*
X80943773Y-162027196D01*
X80919504Y-162030796D01*
X80895000Y-162032000D01*
X80395000Y-162032000D01*
X80370496Y-162030796D01*
X80346227Y-162027196D01*
X80322429Y-162021235D01*
X80299329Y-162012970D01*
X80277151Y-162002480D01*
X80256107Y-161989867D01*
X80236402Y-161975253D01*
X80218223Y-161958777D01*
X80201747Y-161940598D01*
X80187133Y-161920893D01*
X80174520Y-161899849D01*
X80164030Y-161877671D01*
X80155765Y-161854571D01*
X80149804Y-161830773D01*
X80146204Y-161806504D01*
X80145000Y-161782000D01*
X80145000Y-160532000D01*
X80146204Y-160507496D01*
X80149804Y-160483227D01*
X80155765Y-160459429D01*
X80164030Y-160436329D01*
X80174520Y-160414151D01*
X80187133Y-160393107D01*
X80201747Y-160373402D01*
X80218223Y-160355223D01*
X80236402Y-160338747D01*
X80256107Y-160324133D01*
X80277151Y-160311520D01*
X80299329Y-160301030D01*
X80322429Y-160292765D01*
X80346227Y-160286804D01*
X80370496Y-160283204D01*
X80395000Y-160282000D01*
X80895000Y-160282000D01*
X80919504Y-160283204D01*
G37*
G04 #@! TD.AperFunction*
G04 #@! TA.AperFunction,SMDPad,CuDef*
G36*
X79649504Y-160283204D02*
G01*
X79673773Y-160286804D01*
X79697571Y-160292765D01*
X79720671Y-160301030D01*
X79742849Y-160311520D01*
X79763893Y-160324133D01*
X79783598Y-160338747D01*
X79801777Y-160355223D01*
X79818253Y-160373402D01*
X79832867Y-160393107D01*
X79845480Y-160414151D01*
X79855970Y-160436329D01*
X79864235Y-160459429D01*
X79870196Y-160483227D01*
X79873796Y-160507496D01*
X79875000Y-160532000D01*
X79875000Y-161782000D01*
X79873796Y-161806504D01*
X79870196Y-161830773D01*
X79864235Y-161854571D01*
X79855970Y-161877671D01*
X79845480Y-161899849D01*
X79832867Y-161920893D01*
X79818253Y-161940598D01*
X79801777Y-161958777D01*
X79783598Y-161975253D01*
X79763893Y-161989867D01*
X79742849Y-162002480D01*
X79720671Y-162012970D01*
X79697571Y-162021235D01*
X79673773Y-162027196D01*
X79649504Y-162030796D01*
X79625000Y-162032000D01*
X79125000Y-162032000D01*
X79100496Y-162030796D01*
X79076227Y-162027196D01*
X79052429Y-162021235D01*
X79029329Y-162012970D01*
X79007151Y-162002480D01*
X78986107Y-161989867D01*
X78966402Y-161975253D01*
X78948223Y-161958777D01*
X78931747Y-161940598D01*
X78917133Y-161920893D01*
X78904520Y-161899849D01*
X78894030Y-161877671D01*
X78885765Y-161854571D01*
X78879804Y-161830773D01*
X78876204Y-161806504D01*
X78875000Y-161782000D01*
X78875000Y-160532000D01*
X78876204Y-160507496D01*
X78879804Y-160483227D01*
X78885765Y-160459429D01*
X78894030Y-160436329D01*
X78904520Y-160414151D01*
X78917133Y-160393107D01*
X78931747Y-160373402D01*
X78948223Y-160355223D01*
X78966402Y-160338747D01*
X78986107Y-160324133D01*
X79007151Y-160311520D01*
X79029329Y-160301030D01*
X79052429Y-160292765D01*
X79076227Y-160286804D01*
X79100496Y-160283204D01*
X79125000Y-160282000D01*
X79625000Y-160282000D01*
X79649504Y-160283204D01*
G37*
G04 #@! TD.AperFunction*
G04 #@! TA.AperFunction,SMDPad,CuDef*
G36*
X78379504Y-160283204D02*
G01*
X78403773Y-160286804D01*
X78427571Y-160292765D01*
X78450671Y-160301030D01*
X78472849Y-160311520D01*
X78493893Y-160324133D01*
X78513598Y-160338747D01*
X78531777Y-160355223D01*
X78548253Y-160373402D01*
X78562867Y-160393107D01*
X78575480Y-160414151D01*
X78585970Y-160436329D01*
X78594235Y-160459429D01*
X78600196Y-160483227D01*
X78603796Y-160507496D01*
X78605000Y-160532000D01*
X78605000Y-161782000D01*
X78603796Y-161806504D01*
X78600196Y-161830773D01*
X78594235Y-161854571D01*
X78585970Y-161877671D01*
X78575480Y-161899849D01*
X78562867Y-161920893D01*
X78548253Y-161940598D01*
X78531777Y-161958777D01*
X78513598Y-161975253D01*
X78493893Y-161989867D01*
X78472849Y-162002480D01*
X78450671Y-162012970D01*
X78427571Y-162021235D01*
X78403773Y-162027196D01*
X78379504Y-162030796D01*
X78355000Y-162032000D01*
X77855000Y-162032000D01*
X77830496Y-162030796D01*
X77806227Y-162027196D01*
X77782429Y-162021235D01*
X77759329Y-162012970D01*
X77737151Y-162002480D01*
X77716107Y-161989867D01*
X77696402Y-161975253D01*
X77678223Y-161958777D01*
X77661747Y-161940598D01*
X77647133Y-161920893D01*
X77634520Y-161899849D01*
X77624030Y-161877671D01*
X77615765Y-161854571D01*
X77609804Y-161830773D01*
X77606204Y-161806504D01*
X77605000Y-161782000D01*
X77605000Y-160532000D01*
X77606204Y-160507496D01*
X77609804Y-160483227D01*
X77615765Y-160459429D01*
X77624030Y-160436329D01*
X77634520Y-160414151D01*
X77647133Y-160393107D01*
X77661747Y-160373402D01*
X77678223Y-160355223D01*
X77696402Y-160338747D01*
X77716107Y-160324133D01*
X77737151Y-160311520D01*
X77759329Y-160301030D01*
X77782429Y-160292765D01*
X77806227Y-160286804D01*
X77830496Y-160283204D01*
X77855000Y-160282000D01*
X78355000Y-160282000D01*
X78379504Y-160283204D01*
G37*
G04 #@! TD.AperFunction*
G04 #@! TA.AperFunction,SMDPad,CuDef*
G36*
X77109504Y-160283204D02*
G01*
X77133773Y-160286804D01*
X77157571Y-160292765D01*
X77180671Y-160301030D01*
X77202849Y-160311520D01*
X77223893Y-160324133D01*
X77243598Y-160338747D01*
X77261777Y-160355223D01*
X77278253Y-160373402D01*
X77292867Y-160393107D01*
X77305480Y-160414151D01*
X77315970Y-160436329D01*
X77324235Y-160459429D01*
X77330196Y-160483227D01*
X77333796Y-160507496D01*
X77335000Y-160532000D01*
X77335000Y-161782000D01*
X77333796Y-161806504D01*
X77330196Y-161830773D01*
X77324235Y-161854571D01*
X77315970Y-161877671D01*
X77305480Y-161899849D01*
X77292867Y-161920893D01*
X77278253Y-161940598D01*
X77261777Y-161958777D01*
X77243598Y-161975253D01*
X77223893Y-161989867D01*
X77202849Y-162002480D01*
X77180671Y-162012970D01*
X77157571Y-162021235D01*
X77133773Y-162027196D01*
X77109504Y-162030796D01*
X77085000Y-162032000D01*
X76585000Y-162032000D01*
X76560496Y-162030796D01*
X76536227Y-162027196D01*
X76512429Y-162021235D01*
X76489329Y-162012970D01*
X76467151Y-162002480D01*
X76446107Y-161989867D01*
X76426402Y-161975253D01*
X76408223Y-161958777D01*
X76391747Y-161940598D01*
X76377133Y-161920893D01*
X76364520Y-161899849D01*
X76354030Y-161877671D01*
X76345765Y-161854571D01*
X76339804Y-161830773D01*
X76336204Y-161806504D01*
X76335000Y-161782000D01*
X76335000Y-160532000D01*
X76336204Y-160507496D01*
X76339804Y-160483227D01*
X76345765Y-160459429D01*
X76354030Y-160436329D01*
X76364520Y-160414151D01*
X76377133Y-160393107D01*
X76391747Y-160373402D01*
X76408223Y-160355223D01*
X76426402Y-160338747D01*
X76446107Y-160324133D01*
X76467151Y-160311520D01*
X76489329Y-160301030D01*
X76512429Y-160292765D01*
X76536227Y-160286804D01*
X76560496Y-160283204D01*
X76585000Y-160282000D01*
X77085000Y-160282000D01*
X77109504Y-160283204D01*
G37*
G04 #@! TD.AperFunction*
G04 #@! TA.AperFunction,ComponentPad*
G36*
X80919504Y-176259804D02*
G01*
X80943773Y-176263404D01*
X80967571Y-176269365D01*
X80990671Y-176277630D01*
X81012849Y-176288120D01*
X81033893Y-176300733D01*
X81053598Y-176315347D01*
X81071777Y-176331823D01*
X81088253Y-176350002D01*
X81102867Y-176369707D01*
X81115480Y-176390751D01*
X81125970Y-176412929D01*
X81134235Y-176436029D01*
X81140196Y-176459827D01*
X81143796Y-176484096D01*
X81145000Y-176508600D01*
X81145000Y-177008600D01*
X81143796Y-177033104D01*
X81140196Y-177057373D01*
X81134235Y-177081171D01*
X81125970Y-177104271D01*
X81115480Y-177126449D01*
X81102867Y-177147493D01*
X81088253Y-177167198D01*
X81071777Y-177185377D01*
X81053598Y-177201853D01*
X81033893Y-177216467D01*
X81012849Y-177229080D01*
X80990671Y-177239570D01*
X80967571Y-177247835D01*
X80943773Y-177253796D01*
X80919504Y-177257396D01*
X80895000Y-177258600D01*
X80395000Y-177258600D01*
X80370496Y-177257396D01*
X80346227Y-177253796D01*
X80322429Y-177247835D01*
X80299329Y-177239570D01*
X80277151Y-177229080D01*
X80256107Y-177216467D01*
X80236402Y-177201853D01*
X80218223Y-177185377D01*
X80201747Y-177167198D01*
X80187133Y-177147493D01*
X80174520Y-177126449D01*
X80164030Y-177104271D01*
X80155765Y-177081171D01*
X80149804Y-177057373D01*
X80146204Y-177033104D01*
X80145000Y-177008600D01*
X80145000Y-176508600D01*
X80146204Y-176484096D01*
X80149804Y-176459827D01*
X80155765Y-176436029D01*
X80164030Y-176412929D01*
X80174520Y-176390751D01*
X80187133Y-176369707D01*
X80201747Y-176350002D01*
X80218223Y-176331823D01*
X80236402Y-176315347D01*
X80256107Y-176300733D01*
X80277151Y-176288120D01*
X80299329Y-176277630D01*
X80322429Y-176269365D01*
X80346227Y-176263404D01*
X80370496Y-176259804D01*
X80395000Y-176258600D01*
X80895000Y-176258600D01*
X80919504Y-176259804D01*
G37*
G04 #@! TD.AperFunction*
G04 #@! TA.AperFunction,ComponentPad*
G36*
X79649504Y-176259804D02*
G01*
X79673773Y-176263404D01*
X79697571Y-176269365D01*
X79720671Y-176277630D01*
X79742849Y-176288120D01*
X79763893Y-176300733D01*
X79783598Y-176315347D01*
X79801777Y-176331823D01*
X79818253Y-176350002D01*
X79832867Y-176369707D01*
X79845480Y-176390751D01*
X79855970Y-176412929D01*
X79864235Y-176436029D01*
X79870196Y-176459827D01*
X79873796Y-176484096D01*
X79875000Y-176508600D01*
X79875000Y-177008600D01*
X79873796Y-177033104D01*
X79870196Y-177057373D01*
X79864235Y-177081171D01*
X79855970Y-177104271D01*
X79845480Y-177126449D01*
X79832867Y-177147493D01*
X79818253Y-177167198D01*
X79801777Y-177185377D01*
X79783598Y-177201853D01*
X79763893Y-177216467D01*
X79742849Y-177229080D01*
X79720671Y-177239570D01*
X79697571Y-177247835D01*
X79673773Y-177253796D01*
X79649504Y-177257396D01*
X79625000Y-177258600D01*
X79125000Y-177258600D01*
X79100496Y-177257396D01*
X79076227Y-177253796D01*
X79052429Y-177247835D01*
X79029329Y-177239570D01*
X79007151Y-177229080D01*
X78986107Y-177216467D01*
X78966402Y-177201853D01*
X78948223Y-177185377D01*
X78931747Y-177167198D01*
X78917133Y-177147493D01*
X78904520Y-177126449D01*
X78894030Y-177104271D01*
X78885765Y-177081171D01*
X78879804Y-177057373D01*
X78876204Y-177033104D01*
X78875000Y-177008600D01*
X78875000Y-176508600D01*
X78876204Y-176484096D01*
X78879804Y-176459827D01*
X78885765Y-176436029D01*
X78894030Y-176412929D01*
X78904520Y-176390751D01*
X78917133Y-176369707D01*
X78931747Y-176350002D01*
X78948223Y-176331823D01*
X78966402Y-176315347D01*
X78986107Y-176300733D01*
X79007151Y-176288120D01*
X79029329Y-176277630D01*
X79052429Y-176269365D01*
X79076227Y-176263404D01*
X79100496Y-176259804D01*
X79125000Y-176258600D01*
X79625000Y-176258600D01*
X79649504Y-176259804D01*
G37*
G04 #@! TD.AperFunction*
G04 #@! TA.AperFunction,ComponentPad*
G36*
X78379504Y-176259804D02*
G01*
X78403773Y-176263404D01*
X78427571Y-176269365D01*
X78450671Y-176277630D01*
X78472849Y-176288120D01*
X78493893Y-176300733D01*
X78513598Y-176315347D01*
X78531777Y-176331823D01*
X78548253Y-176350002D01*
X78562867Y-176369707D01*
X78575480Y-176390751D01*
X78585970Y-176412929D01*
X78594235Y-176436029D01*
X78600196Y-176459827D01*
X78603796Y-176484096D01*
X78605000Y-176508600D01*
X78605000Y-177008600D01*
X78603796Y-177033104D01*
X78600196Y-177057373D01*
X78594235Y-177081171D01*
X78585970Y-177104271D01*
X78575480Y-177126449D01*
X78562867Y-177147493D01*
X78548253Y-177167198D01*
X78531777Y-177185377D01*
X78513598Y-177201853D01*
X78493893Y-177216467D01*
X78472849Y-177229080D01*
X78450671Y-177239570D01*
X78427571Y-177247835D01*
X78403773Y-177253796D01*
X78379504Y-177257396D01*
X78355000Y-177258600D01*
X77855000Y-177258600D01*
X77830496Y-177257396D01*
X77806227Y-177253796D01*
X77782429Y-177247835D01*
X77759329Y-177239570D01*
X77737151Y-177229080D01*
X77716107Y-177216467D01*
X77696402Y-177201853D01*
X77678223Y-177185377D01*
X77661747Y-177167198D01*
X77647133Y-177147493D01*
X77634520Y-177126449D01*
X77624030Y-177104271D01*
X77615765Y-177081171D01*
X77609804Y-177057373D01*
X77606204Y-177033104D01*
X77605000Y-177008600D01*
X77605000Y-176508600D01*
X77606204Y-176484096D01*
X77609804Y-176459827D01*
X77615765Y-176436029D01*
X77624030Y-176412929D01*
X77634520Y-176390751D01*
X77647133Y-176369707D01*
X77661747Y-176350002D01*
X77678223Y-176331823D01*
X77696402Y-176315347D01*
X77716107Y-176300733D01*
X77737151Y-176288120D01*
X77759329Y-176277630D01*
X77782429Y-176269365D01*
X77806227Y-176263404D01*
X77830496Y-176259804D01*
X77855000Y-176258600D01*
X78355000Y-176258600D01*
X78379504Y-176259804D01*
G37*
G04 #@! TD.AperFunction*
G04 #@! TA.AperFunction,ComponentPad*
G36*
X77109504Y-176259804D02*
G01*
X77133773Y-176263404D01*
X77157571Y-176269365D01*
X77180671Y-176277630D01*
X77202849Y-176288120D01*
X77223893Y-176300733D01*
X77243598Y-176315347D01*
X77261777Y-176331823D01*
X77278253Y-176350002D01*
X77292867Y-176369707D01*
X77305480Y-176390751D01*
X77315970Y-176412929D01*
X77324235Y-176436029D01*
X77330196Y-176459827D01*
X77333796Y-176484096D01*
X77335000Y-176508600D01*
X77335000Y-177008600D01*
X77333796Y-177033104D01*
X77330196Y-177057373D01*
X77324235Y-177081171D01*
X77315970Y-177104271D01*
X77305480Y-177126449D01*
X77292867Y-177147493D01*
X77278253Y-177167198D01*
X77261777Y-177185377D01*
X77243598Y-177201853D01*
X77223893Y-177216467D01*
X77202849Y-177229080D01*
X77180671Y-177239570D01*
X77157571Y-177247835D01*
X77133773Y-177253796D01*
X77109504Y-177257396D01*
X77085000Y-177258600D01*
X76585000Y-177258600D01*
X76560496Y-177257396D01*
X76536227Y-177253796D01*
X76512429Y-177247835D01*
X76489329Y-177239570D01*
X76467151Y-177229080D01*
X76446107Y-177216467D01*
X76426402Y-177201853D01*
X76408223Y-177185377D01*
X76391747Y-177167198D01*
X76377133Y-177147493D01*
X76364520Y-177126449D01*
X76354030Y-177104271D01*
X76345765Y-177081171D01*
X76339804Y-177057373D01*
X76336204Y-177033104D01*
X76335000Y-177008600D01*
X76335000Y-176508600D01*
X76336204Y-176484096D01*
X76339804Y-176459827D01*
X76345765Y-176436029D01*
X76354030Y-176412929D01*
X76364520Y-176390751D01*
X76377133Y-176369707D01*
X76391747Y-176350002D01*
X76408223Y-176331823D01*
X76426402Y-176315347D01*
X76446107Y-176300733D01*
X76467151Y-176288120D01*
X76489329Y-176277630D01*
X76512429Y-176269365D01*
X76536227Y-176263404D01*
X76560496Y-176259804D01*
X76585000Y-176258600D01*
X77085000Y-176258600D01*
X77109504Y-176259804D01*
G37*
G04 #@! TD.AperFunction*
G04 #@! TA.AperFunction,SMDPad,CuDef*
G36*
X80919504Y-175509804D02*
G01*
X80943773Y-175513404D01*
X80967571Y-175519365D01*
X80990671Y-175527630D01*
X81012849Y-175538120D01*
X81033893Y-175550733D01*
X81053598Y-175565347D01*
X81071777Y-175581823D01*
X81088253Y-175600002D01*
X81102867Y-175619707D01*
X81115480Y-175640751D01*
X81125970Y-175662929D01*
X81134235Y-175686029D01*
X81140196Y-175709827D01*
X81143796Y-175734096D01*
X81145000Y-175758600D01*
X81145000Y-177008600D01*
X81143796Y-177033104D01*
X81140196Y-177057373D01*
X81134235Y-177081171D01*
X81125970Y-177104271D01*
X81115480Y-177126449D01*
X81102867Y-177147493D01*
X81088253Y-177167198D01*
X81071777Y-177185377D01*
X81053598Y-177201853D01*
X81033893Y-177216467D01*
X81012849Y-177229080D01*
X80990671Y-177239570D01*
X80967571Y-177247835D01*
X80943773Y-177253796D01*
X80919504Y-177257396D01*
X80895000Y-177258600D01*
X80395000Y-177258600D01*
X80370496Y-177257396D01*
X80346227Y-177253796D01*
X80322429Y-177247835D01*
X80299329Y-177239570D01*
X80277151Y-177229080D01*
X80256107Y-177216467D01*
X80236402Y-177201853D01*
X80218223Y-177185377D01*
X80201747Y-177167198D01*
X80187133Y-177147493D01*
X80174520Y-177126449D01*
X80164030Y-177104271D01*
X80155765Y-177081171D01*
X80149804Y-177057373D01*
X80146204Y-177033104D01*
X80145000Y-177008600D01*
X80145000Y-175758600D01*
X80146204Y-175734096D01*
X80149804Y-175709827D01*
X80155765Y-175686029D01*
X80164030Y-175662929D01*
X80174520Y-175640751D01*
X80187133Y-175619707D01*
X80201747Y-175600002D01*
X80218223Y-175581823D01*
X80236402Y-175565347D01*
X80256107Y-175550733D01*
X80277151Y-175538120D01*
X80299329Y-175527630D01*
X80322429Y-175519365D01*
X80346227Y-175513404D01*
X80370496Y-175509804D01*
X80395000Y-175508600D01*
X80895000Y-175508600D01*
X80919504Y-175509804D01*
G37*
G04 #@! TD.AperFunction*
G04 #@! TA.AperFunction,SMDPad,CuDef*
G36*
X79649504Y-175509804D02*
G01*
X79673773Y-175513404D01*
X79697571Y-175519365D01*
X79720671Y-175527630D01*
X79742849Y-175538120D01*
X79763893Y-175550733D01*
X79783598Y-175565347D01*
X79801777Y-175581823D01*
X79818253Y-175600002D01*
X79832867Y-175619707D01*
X79845480Y-175640751D01*
X79855970Y-175662929D01*
X79864235Y-175686029D01*
X79870196Y-175709827D01*
X79873796Y-175734096D01*
X79875000Y-175758600D01*
X79875000Y-177008600D01*
X79873796Y-177033104D01*
X79870196Y-177057373D01*
X79864235Y-177081171D01*
X79855970Y-177104271D01*
X79845480Y-177126449D01*
X79832867Y-177147493D01*
X79818253Y-177167198D01*
X79801777Y-177185377D01*
X79783598Y-177201853D01*
X79763893Y-177216467D01*
X79742849Y-177229080D01*
X79720671Y-177239570D01*
X79697571Y-177247835D01*
X79673773Y-177253796D01*
X79649504Y-177257396D01*
X79625000Y-177258600D01*
X79125000Y-177258600D01*
X79100496Y-177257396D01*
X79076227Y-177253796D01*
X79052429Y-177247835D01*
X79029329Y-177239570D01*
X79007151Y-177229080D01*
X78986107Y-177216467D01*
X78966402Y-177201853D01*
X78948223Y-177185377D01*
X78931747Y-177167198D01*
X78917133Y-177147493D01*
X78904520Y-177126449D01*
X78894030Y-177104271D01*
X78885765Y-177081171D01*
X78879804Y-177057373D01*
X78876204Y-177033104D01*
X78875000Y-177008600D01*
X78875000Y-175758600D01*
X78876204Y-175734096D01*
X78879804Y-175709827D01*
X78885765Y-175686029D01*
X78894030Y-175662929D01*
X78904520Y-175640751D01*
X78917133Y-175619707D01*
X78931747Y-175600002D01*
X78948223Y-175581823D01*
X78966402Y-175565347D01*
X78986107Y-175550733D01*
X79007151Y-175538120D01*
X79029329Y-175527630D01*
X79052429Y-175519365D01*
X79076227Y-175513404D01*
X79100496Y-175509804D01*
X79125000Y-175508600D01*
X79625000Y-175508600D01*
X79649504Y-175509804D01*
G37*
G04 #@! TD.AperFunction*
G04 #@! TA.AperFunction,SMDPad,CuDef*
G36*
X78379504Y-175509804D02*
G01*
X78403773Y-175513404D01*
X78427571Y-175519365D01*
X78450671Y-175527630D01*
X78472849Y-175538120D01*
X78493893Y-175550733D01*
X78513598Y-175565347D01*
X78531777Y-175581823D01*
X78548253Y-175600002D01*
X78562867Y-175619707D01*
X78575480Y-175640751D01*
X78585970Y-175662929D01*
X78594235Y-175686029D01*
X78600196Y-175709827D01*
X78603796Y-175734096D01*
X78605000Y-175758600D01*
X78605000Y-177008600D01*
X78603796Y-177033104D01*
X78600196Y-177057373D01*
X78594235Y-177081171D01*
X78585970Y-177104271D01*
X78575480Y-177126449D01*
X78562867Y-177147493D01*
X78548253Y-177167198D01*
X78531777Y-177185377D01*
X78513598Y-177201853D01*
X78493893Y-177216467D01*
X78472849Y-177229080D01*
X78450671Y-177239570D01*
X78427571Y-177247835D01*
X78403773Y-177253796D01*
X78379504Y-177257396D01*
X78355000Y-177258600D01*
X77855000Y-177258600D01*
X77830496Y-177257396D01*
X77806227Y-177253796D01*
X77782429Y-177247835D01*
X77759329Y-177239570D01*
X77737151Y-177229080D01*
X77716107Y-177216467D01*
X77696402Y-177201853D01*
X77678223Y-177185377D01*
X77661747Y-177167198D01*
X77647133Y-177147493D01*
X77634520Y-177126449D01*
X77624030Y-177104271D01*
X77615765Y-177081171D01*
X77609804Y-177057373D01*
X77606204Y-177033104D01*
X77605000Y-177008600D01*
X77605000Y-175758600D01*
X77606204Y-175734096D01*
X77609804Y-175709827D01*
X77615765Y-175686029D01*
X77624030Y-175662929D01*
X77634520Y-175640751D01*
X77647133Y-175619707D01*
X77661747Y-175600002D01*
X77678223Y-175581823D01*
X77696402Y-175565347D01*
X77716107Y-175550733D01*
X77737151Y-175538120D01*
X77759329Y-175527630D01*
X77782429Y-175519365D01*
X77806227Y-175513404D01*
X77830496Y-175509804D01*
X77855000Y-175508600D01*
X78355000Y-175508600D01*
X78379504Y-175509804D01*
G37*
G04 #@! TD.AperFunction*
G04 #@! TA.AperFunction,SMDPad,CuDef*
G36*
X77109504Y-175509804D02*
G01*
X77133773Y-175513404D01*
X77157571Y-175519365D01*
X77180671Y-175527630D01*
X77202849Y-175538120D01*
X77223893Y-175550733D01*
X77243598Y-175565347D01*
X77261777Y-175581823D01*
X77278253Y-175600002D01*
X77292867Y-175619707D01*
X77305480Y-175640751D01*
X77315970Y-175662929D01*
X77324235Y-175686029D01*
X77330196Y-175709827D01*
X77333796Y-175734096D01*
X77335000Y-175758600D01*
X77335000Y-177008600D01*
X77333796Y-177033104D01*
X77330196Y-177057373D01*
X77324235Y-177081171D01*
X77315970Y-177104271D01*
X77305480Y-177126449D01*
X77292867Y-177147493D01*
X77278253Y-177167198D01*
X77261777Y-177185377D01*
X77243598Y-177201853D01*
X77223893Y-177216467D01*
X77202849Y-177229080D01*
X77180671Y-177239570D01*
X77157571Y-177247835D01*
X77133773Y-177253796D01*
X77109504Y-177257396D01*
X77085000Y-177258600D01*
X76585000Y-177258600D01*
X76560496Y-177257396D01*
X76536227Y-177253796D01*
X76512429Y-177247835D01*
X76489329Y-177239570D01*
X76467151Y-177229080D01*
X76446107Y-177216467D01*
X76426402Y-177201853D01*
X76408223Y-177185377D01*
X76391747Y-177167198D01*
X76377133Y-177147493D01*
X76364520Y-177126449D01*
X76354030Y-177104271D01*
X76345765Y-177081171D01*
X76339804Y-177057373D01*
X76336204Y-177033104D01*
X76335000Y-177008600D01*
X76335000Y-175758600D01*
X76336204Y-175734096D01*
X76339804Y-175709827D01*
X76345765Y-175686029D01*
X76354030Y-175662929D01*
X76364520Y-175640751D01*
X76377133Y-175619707D01*
X76391747Y-175600002D01*
X76408223Y-175581823D01*
X76426402Y-175565347D01*
X76446107Y-175550733D01*
X76467151Y-175538120D01*
X76489329Y-175527630D01*
X76512429Y-175519365D01*
X76536227Y-175513404D01*
X76560496Y-175509804D01*
X76585000Y-175508600D01*
X77085000Y-175508600D01*
X77109504Y-175509804D01*
G37*
G04 #@! TD.AperFunction*
D14*
X82798000Y-171196000D03*
X69348000Y-173736000D03*
G04 #@! TA.AperFunction,ComponentPad*
D12*
G36*
X71953304Y-160283204D02*
G01*
X71977573Y-160286804D01*
X72001371Y-160292765D01*
X72024471Y-160301030D01*
X72046649Y-160311520D01*
X72067693Y-160324133D01*
X72087398Y-160338747D01*
X72105577Y-160355223D01*
X72122053Y-160373402D01*
X72136667Y-160393107D01*
X72149280Y-160414151D01*
X72159770Y-160436329D01*
X72168035Y-160459429D01*
X72173996Y-160483227D01*
X72177596Y-160507496D01*
X72178800Y-160532000D01*
X72178800Y-161032000D01*
X72177596Y-161056504D01*
X72173996Y-161080773D01*
X72168035Y-161104571D01*
X72159770Y-161127671D01*
X72149280Y-161149849D01*
X72136667Y-161170893D01*
X72122053Y-161190598D01*
X72105577Y-161208777D01*
X72087398Y-161225253D01*
X72067693Y-161239867D01*
X72046649Y-161252480D01*
X72024471Y-161262970D01*
X72001371Y-161271235D01*
X71977573Y-161277196D01*
X71953304Y-161280796D01*
X71928800Y-161282000D01*
X71428800Y-161282000D01*
X71404296Y-161280796D01*
X71380027Y-161277196D01*
X71356229Y-161271235D01*
X71333129Y-161262970D01*
X71310951Y-161252480D01*
X71289907Y-161239867D01*
X71270202Y-161225253D01*
X71252023Y-161208777D01*
X71235547Y-161190598D01*
X71220933Y-161170893D01*
X71208320Y-161149849D01*
X71197830Y-161127671D01*
X71189565Y-161104571D01*
X71183604Y-161080773D01*
X71180004Y-161056504D01*
X71178800Y-161032000D01*
X71178800Y-160532000D01*
X71180004Y-160507496D01*
X71183604Y-160483227D01*
X71189565Y-160459429D01*
X71197830Y-160436329D01*
X71208320Y-160414151D01*
X71220933Y-160393107D01*
X71235547Y-160373402D01*
X71252023Y-160355223D01*
X71270202Y-160338747D01*
X71289907Y-160324133D01*
X71310951Y-160311520D01*
X71333129Y-160301030D01*
X71356229Y-160292765D01*
X71380027Y-160286804D01*
X71404296Y-160283204D01*
X71428800Y-160282000D01*
X71928800Y-160282000D01*
X71953304Y-160283204D01*
G37*
G04 #@! TD.AperFunction*
G04 #@! TA.AperFunction,SMDPad,CuDef*
G36*
X71953304Y-160283204D02*
G01*
X71977573Y-160286804D01*
X72001371Y-160292765D01*
X72024471Y-160301030D01*
X72046649Y-160311520D01*
X72067693Y-160324133D01*
X72087398Y-160338747D01*
X72105577Y-160355223D01*
X72122053Y-160373402D01*
X72136667Y-160393107D01*
X72149280Y-160414151D01*
X72159770Y-160436329D01*
X72168035Y-160459429D01*
X72173996Y-160483227D01*
X72177596Y-160507496D01*
X72178800Y-160532000D01*
X72178800Y-161532000D01*
X72177596Y-161556504D01*
X72173996Y-161580773D01*
X72168035Y-161604571D01*
X72159770Y-161627671D01*
X72149280Y-161649849D01*
X72136667Y-161670893D01*
X72122053Y-161690598D01*
X72105577Y-161708777D01*
X72087398Y-161725253D01*
X72067693Y-161739867D01*
X72046649Y-161752480D01*
X72024471Y-161762970D01*
X72001371Y-161771235D01*
X71977573Y-161777196D01*
X71953304Y-161780796D01*
X71928800Y-161782000D01*
X71428800Y-161782000D01*
X71404296Y-161780796D01*
X71380027Y-161777196D01*
X71356229Y-161771235D01*
X71333129Y-161762970D01*
X71310951Y-161752480D01*
X71289907Y-161739867D01*
X71270202Y-161725253D01*
X71252023Y-161708777D01*
X71235547Y-161690598D01*
X71220933Y-161670893D01*
X71208320Y-161649849D01*
X71197830Y-161627671D01*
X71189565Y-161604571D01*
X71183604Y-161580773D01*
X71180004Y-161556504D01*
X71178800Y-161532000D01*
X71178800Y-160532000D01*
X71180004Y-160507496D01*
X71183604Y-160483227D01*
X71189565Y-160459429D01*
X71197830Y-160436329D01*
X71208320Y-160414151D01*
X71220933Y-160393107D01*
X71235547Y-160373402D01*
X71252023Y-160355223D01*
X71270202Y-160338747D01*
X71289907Y-160324133D01*
X71310951Y-160311520D01*
X71333129Y-160301030D01*
X71356229Y-160292765D01*
X71380027Y-160286804D01*
X71404296Y-160283204D01*
X71428800Y-160282000D01*
X71928800Y-160282000D01*
X71953304Y-160283204D01*
G37*
G04 #@! TD.AperFunction*
D15*
X68719700Y-170711400D03*
X68719700Y-167411400D03*
D16*
X72888000Y-162826000D03*
X72888000Y-164326000D03*
X77988000Y-164326000D03*
X77988000Y-162826000D03*
G04 #@! TA.AperFunction,ComponentPad*
D12*
G36*
X71953304Y-176259804D02*
G01*
X71977573Y-176263404D01*
X72001371Y-176269365D01*
X72024471Y-176277630D01*
X72046649Y-176288120D01*
X72067693Y-176300733D01*
X72087398Y-176315347D01*
X72105577Y-176331823D01*
X72122053Y-176350002D01*
X72136667Y-176369707D01*
X72149280Y-176390751D01*
X72159770Y-176412929D01*
X72168035Y-176436029D01*
X72173996Y-176459827D01*
X72177596Y-176484096D01*
X72178800Y-176508600D01*
X72178800Y-177008600D01*
X72177596Y-177033104D01*
X72173996Y-177057373D01*
X72168035Y-177081171D01*
X72159770Y-177104271D01*
X72149280Y-177126449D01*
X72136667Y-177147493D01*
X72122053Y-177167198D01*
X72105577Y-177185377D01*
X72087398Y-177201853D01*
X72067693Y-177216467D01*
X72046649Y-177229080D01*
X72024471Y-177239570D01*
X72001371Y-177247835D01*
X71977573Y-177253796D01*
X71953304Y-177257396D01*
X71928800Y-177258600D01*
X71428800Y-177258600D01*
X71404296Y-177257396D01*
X71380027Y-177253796D01*
X71356229Y-177247835D01*
X71333129Y-177239570D01*
X71310951Y-177229080D01*
X71289907Y-177216467D01*
X71270202Y-177201853D01*
X71252023Y-177185377D01*
X71235547Y-177167198D01*
X71220933Y-177147493D01*
X71208320Y-177126449D01*
X71197830Y-177104271D01*
X71189565Y-177081171D01*
X71183604Y-177057373D01*
X71180004Y-177033104D01*
X71178800Y-177008600D01*
X71178800Y-176508600D01*
X71180004Y-176484096D01*
X71183604Y-176459827D01*
X71189565Y-176436029D01*
X71197830Y-176412929D01*
X71208320Y-176390751D01*
X71220933Y-176369707D01*
X71235547Y-176350002D01*
X71252023Y-176331823D01*
X71270202Y-176315347D01*
X71289907Y-176300733D01*
X71310951Y-176288120D01*
X71333129Y-176277630D01*
X71356229Y-176269365D01*
X71380027Y-176263404D01*
X71404296Y-176259804D01*
X71428800Y-176258600D01*
X71928800Y-176258600D01*
X71953304Y-176259804D01*
G37*
G04 #@! TD.AperFunction*
G04 #@! TA.AperFunction,SMDPad,CuDef*
G36*
X71953304Y-175759804D02*
G01*
X71977573Y-175763404D01*
X72001371Y-175769365D01*
X72024471Y-175777630D01*
X72046649Y-175788120D01*
X72067693Y-175800733D01*
X72087398Y-175815347D01*
X72105577Y-175831823D01*
X72122053Y-175850002D01*
X72136667Y-175869707D01*
X72149280Y-175890751D01*
X72159770Y-175912929D01*
X72168035Y-175936029D01*
X72173996Y-175959827D01*
X72177596Y-175984096D01*
X72178800Y-176008600D01*
X72178800Y-177008600D01*
X72177596Y-177033104D01*
X72173996Y-177057373D01*
X72168035Y-177081171D01*
X72159770Y-177104271D01*
X72149280Y-177126449D01*
X72136667Y-177147493D01*
X72122053Y-177167198D01*
X72105577Y-177185377D01*
X72087398Y-177201853D01*
X72067693Y-177216467D01*
X72046649Y-177229080D01*
X72024471Y-177239570D01*
X72001371Y-177247835D01*
X71977573Y-177253796D01*
X71953304Y-177257396D01*
X71928800Y-177258600D01*
X71428800Y-177258600D01*
X71404296Y-177257396D01*
X71380027Y-177253796D01*
X71356229Y-177247835D01*
X71333129Y-177239570D01*
X71310951Y-177229080D01*
X71289907Y-177216467D01*
X71270202Y-177201853D01*
X71252023Y-177185377D01*
X71235547Y-177167198D01*
X71220933Y-177147493D01*
X71208320Y-177126449D01*
X71197830Y-177104271D01*
X71189565Y-177081171D01*
X71183604Y-177057373D01*
X71180004Y-177033104D01*
X71178800Y-177008600D01*
X71178800Y-176008600D01*
X71180004Y-175984096D01*
X71183604Y-175959827D01*
X71189565Y-175936029D01*
X71197830Y-175912929D01*
X71208320Y-175890751D01*
X71220933Y-175869707D01*
X71235547Y-175850002D01*
X71252023Y-175831823D01*
X71270202Y-175815347D01*
X71289907Y-175800733D01*
X71310951Y-175788120D01*
X71333129Y-175777630D01*
X71356229Y-175769365D01*
X71380027Y-175763404D01*
X71404296Y-175759804D01*
X71428800Y-175758600D01*
X71928800Y-175758600D01*
X71953304Y-175759804D01*
G37*
G04 #@! TD.AperFunction*
D17*
X77038200Y-166344600D03*
X73837800Y-166344600D03*
D18*
X79006700Y-162890200D03*
D17*
X71653400Y-162839400D03*
X78397100Y-168846500D03*
X82575400Y-166903400D03*
X84201000Y-165684200D03*
X81254600Y-174244000D03*
X75158600Y-175285400D03*
X72009000Y-171018200D03*
X70383400Y-176403000D03*
X67056000Y-166331900D03*
X73126600Y-160807400D03*
X78816200Y-163969700D03*
X76669900Y-171297600D03*
D18*
X80149700Y-165011100D03*
X69926200Y-164147500D03*
D17*
X66675000Y-171526200D03*
X70116700Y-170408600D03*
D18*
X77647800Y-173888400D03*
X79146400Y-167767000D03*
X80645000Y-163804600D03*
X75247500Y-173634400D03*
X71678800Y-165989000D03*
D19*
X73304400Y-166878000D02*
X73837800Y-166344600D01*
X73257400Y-166878000D02*
X73304400Y-166878000D01*
X77099800Y-166344600D02*
X77633200Y-166878000D01*
X77038200Y-166344600D02*
X77099800Y-166344600D01*
X78052200Y-162890200D02*
X77988000Y-162826000D01*
X79006700Y-162890200D02*
X78052200Y-162890200D01*
D20*
X71958200Y-162839400D02*
X72874600Y-162839400D01*
X72874600Y-162839400D02*
X72888000Y-162826000D01*
X71653400Y-162839400D02*
X72874600Y-162839400D01*
D19*
X72888000Y-165216998D02*
X72888000Y-164326000D01*
X73202799Y-165226999D02*
X73494899Y-165519099D01*
X70637400Y-166827200D02*
X70916799Y-166547801D01*
X70637400Y-166878000D02*
X70637400Y-166827200D01*
X70916799Y-166547801D02*
X70916799Y-165623239D01*
X70916799Y-165623239D02*
X71313039Y-165226999D01*
X71313039Y-165226999D02*
X73202799Y-165226999D01*
X79361891Y-165519099D02*
X73494899Y-165519099D01*
X80223200Y-166380408D02*
X79361891Y-165519099D01*
X80223200Y-166878000D02*
X80223200Y-166380408D01*
X72504300Y-176758600D02*
X71678800Y-176758600D01*
X75463400Y-176110900D02*
X73152000Y-176110900D01*
X73152000Y-176110900D02*
X72504300Y-176758600D01*
X76835000Y-176758600D02*
X76111100Y-176758600D01*
X76111100Y-176758600D02*
X75463400Y-176110900D01*
X69573700Y-167411400D02*
X68719700Y-167411400D01*
X69758798Y-167226302D02*
X69573700Y-167411400D01*
X71678800Y-161282000D02*
X70827899Y-162132901D01*
X70827899Y-162132901D02*
X70827899Y-164993705D01*
X70827899Y-164993705D02*
X70408790Y-165412814D01*
X69758798Y-166512002D02*
X69758798Y-167226302D01*
X70408790Y-165862010D02*
X69758798Y-166512002D01*
X70408790Y-165412814D02*
X70408790Y-165862010D01*
X71678800Y-176258600D02*
X71678800Y-176758600D01*
X70787201Y-175367001D02*
X71678800Y-176258600D01*
X68719700Y-168899398D02*
X67624399Y-169994699D01*
X67768199Y-175367001D02*
X70787201Y-175367001D01*
X67624399Y-169994699D02*
X67624399Y-175223201D01*
X68719700Y-167411400D02*
X68719700Y-168899398D01*
X67624399Y-175223201D02*
X67768199Y-175367001D01*
X76482510Y-161634490D02*
X73546652Y-161634490D01*
X76835000Y-161282000D02*
X76482510Y-161634490D01*
X76835000Y-160782000D02*
X76835000Y-161282000D01*
X71678800Y-161282000D02*
X71678800Y-160782000D01*
X72031290Y-161634490D02*
X71678800Y-161282000D01*
X73546652Y-161634490D02*
X72031290Y-161634490D01*
D20*
X80137000Y-164871400D02*
X79425800Y-164160200D01*
X79425800Y-163748722D02*
X79425800Y-164160200D01*
X80645000Y-162529522D02*
X79425800Y-163748722D01*
X80645000Y-160782000D02*
X80645000Y-162529522D01*
X82905600Y-161163000D02*
X81026000Y-161163000D01*
X81026000Y-161163000D02*
X80645000Y-160782000D01*
X80517999Y-165252399D02*
X80137000Y-164871400D01*
X80613009Y-165252399D02*
X80517999Y-165252399D01*
X81819511Y-166458901D02*
X80613009Y-165252399D01*
X82130901Y-166458901D02*
X81819511Y-166458901D01*
X82575400Y-166903400D02*
X82130901Y-166458901D01*
X80645000Y-174853600D02*
X81254600Y-174244000D01*
X80645000Y-176758600D02*
X80645000Y-174853600D01*
D19*
X67945000Y-161163000D02*
X69205224Y-161163000D01*
X69205224Y-161163000D02*
X70614923Y-159753301D01*
D20*
X79204822Y-163969700D02*
X79425800Y-163748722D01*
X78816200Y-163969700D02*
X79204822Y-163969700D01*
D19*
X82798000Y-169692000D02*
X82798000Y-171196000D01*
X82798000Y-168560195D02*
X82798000Y-169692000D01*
X83400901Y-167957294D02*
X82798000Y-168560195D01*
X83400901Y-165968301D02*
X83400901Y-167957294D01*
X82905600Y-165473000D02*
X83400901Y-165968301D01*
X82905600Y-164973000D02*
X82905600Y-165473000D01*
X77647800Y-173888400D02*
X80289400Y-173888400D01*
X80289400Y-173888400D02*
X81153000Y-173024800D01*
X81153000Y-173024800D02*
X82753200Y-173024800D01*
X82798000Y-172980000D02*
X82798000Y-171196000D01*
X82753200Y-173024800D02*
X82798000Y-172980000D01*
X68592700Y-170762200D02*
X68592700Y-171714700D01*
X69348000Y-173736000D02*
X69348000Y-173576900D01*
X68592700Y-172821600D02*
X68592700Y-171714700D01*
X69348000Y-173576900D02*
X68592700Y-172821600D01*
X80746600Y-163703000D02*
X80645000Y-163804600D01*
X82905600Y-163703000D02*
X80746600Y-163703000D01*
X79146400Y-167081200D02*
X78943200Y-166878000D01*
X79146400Y-167767000D02*
X79146400Y-167081200D01*
X71947400Y-166283000D02*
X71678800Y-166014400D01*
X71947400Y-166878000D02*
X71947400Y-166283000D01*
X71183499Y-169652383D02*
X71932800Y-168903082D01*
X71612759Y-171843701D02*
X71183499Y-171414441D01*
X71932800Y-168903082D02*
X71932800Y-166878000D01*
X72405241Y-171843701D02*
X71612759Y-171843701D01*
X73917614Y-171879999D02*
X73899881Y-171879999D01*
X71183499Y-171414441D02*
X71183499Y-169652383D01*
X72494142Y-171754800D02*
X72405241Y-171843701D01*
X73899881Y-171879999D02*
X73774682Y-171754800D01*
X75247500Y-173209885D02*
X73917614Y-171879999D01*
X75247500Y-173634400D02*
X75247500Y-173209885D01*
X73774682Y-171754800D02*
X72494142Y-171754800D01*
D21*
G36*
X72924311Y-159422916D02*
G01*
X72929027Y-159445102D01*
X72933423Y-159467305D01*
X72934455Y-159470640D01*
X73009400Y-159706898D01*
X73018326Y-159727724D01*
X73026961Y-159748674D01*
X73028621Y-159751745D01*
X73148030Y-159968947D01*
X73160839Y-159987655D01*
X73173370Y-160006515D01*
X73175591Y-160009200D01*
X73175595Y-160009206D01*
X73175600Y-160009211D01*
X73334917Y-160199077D01*
X73351076Y-160214901D01*
X73367071Y-160231008D01*
X73369777Y-160233214D01*
X73562944Y-160388525D01*
X73581856Y-160400901D01*
X73600689Y-160413604D01*
X73603767Y-160415239D01*
X73603771Y-160415242D01*
X73603775Y-160415244D01*
X73823426Y-160530074D01*
X73844414Y-160538554D01*
X73865322Y-160547343D01*
X73868658Y-160548349D01*
X73868665Y-160548352D01*
X73868672Y-160548353D01*
X74106440Y-160618333D01*
X74128649Y-160622570D01*
X74150894Y-160627136D01*
X74154368Y-160627476D01*
X74401208Y-160649940D01*
X74423827Y-160649782D01*
X74446523Y-160649941D01*
X74449998Y-160649600D01*
X74450000Y-160649600D01*
X74696501Y-160623692D01*
X74718703Y-160619134D01*
X74740955Y-160614890D01*
X74744289Y-160613882D01*
X74744296Y-160613881D01*
X74744302Y-160613878D01*
X74981073Y-160540585D01*
X75001929Y-160531818D01*
X75022968Y-160523318D01*
X75026047Y-160521680D01*
X75026052Y-160521678D01*
X75026056Y-160521675D01*
X75244081Y-160403790D01*
X75262861Y-160391123D01*
X75281826Y-160378713D01*
X75284524Y-160376512D01*
X75284531Y-160376507D01*
X75284537Y-160376501D01*
X75475511Y-160218513D01*
X75491471Y-160202441D01*
X75507666Y-160186582D01*
X75509886Y-160183898D01*
X75509892Y-160183892D01*
X75509896Y-160183885D01*
X75666546Y-159991815D01*
X75679082Y-159972947D01*
X75691887Y-159954246D01*
X75693544Y-159951179D01*
X75693547Y-159951175D01*
X75693549Y-159951171D01*
X75809910Y-159732327D01*
X75818540Y-159711389D01*
X75827471Y-159690553D01*
X75828503Y-159687218D01*
X75900143Y-159449937D01*
X75904544Y-159427711D01*
X75909255Y-159405546D01*
X75909620Y-159402074D01*
X75911686Y-159381000D01*
X80505773Y-159381000D01*
X80592547Y-159389508D01*
X80664257Y-159411159D01*
X80730391Y-159446323D01*
X80788436Y-159493663D01*
X80836187Y-159551384D01*
X80871811Y-159617269D01*
X80893963Y-159688829D01*
X80898167Y-159728833D01*
X80795000Y-159832000D01*
X80795000Y-162482000D01*
X80945000Y-162632000D01*
X81145000Y-162634903D01*
X81262621Y-162623318D01*
X81299888Y-162612013D01*
X81299888Y-162683000D01*
X81311527Y-162801169D01*
X81345995Y-162914796D01*
X81401969Y-163019516D01*
X81441759Y-163068000D01*
X81401969Y-163116484D01*
X81345995Y-163221204D01*
X81345754Y-163222000D01*
X81096043Y-163222000D01*
X80993153Y-163153252D01*
X80859391Y-163097846D01*
X80717391Y-163069600D01*
X80572609Y-163069600D01*
X80430609Y-163097846D01*
X80296847Y-163153252D01*
X80176465Y-163233688D01*
X80074088Y-163336065D01*
X79993652Y-163456447D01*
X79938246Y-163590209D01*
X79910000Y-163732209D01*
X79910000Y-163876991D01*
X79938246Y-164018991D01*
X79993652Y-164152753D01*
X80074088Y-164273135D01*
X80176465Y-164375512D01*
X80296847Y-164455948D01*
X80430609Y-164511354D01*
X80572609Y-164539600D01*
X80717391Y-164539600D01*
X80859391Y-164511354D01*
X80993153Y-164455948D01*
X81113535Y-164375512D01*
X81215912Y-164273135D01*
X81275470Y-164184000D01*
X81345754Y-164184000D01*
X81345995Y-164184796D01*
X81401969Y-164289516D01*
X81441759Y-164338000D01*
X81401969Y-164386484D01*
X81345995Y-164491204D01*
X81311527Y-164604831D01*
X81299888Y-164723000D01*
X81299888Y-165223000D01*
X81311527Y-165341169D01*
X81345995Y-165454796D01*
X81401969Y-165559516D01*
X81477297Y-165651303D01*
X81569084Y-165726631D01*
X81673804Y-165782605D01*
X81787431Y-165817073D01*
X81905600Y-165828712D01*
X82580833Y-165828712D01*
X82582189Y-165829825D01*
X82919901Y-166167538D01*
X82919902Y-167758056D01*
X82474594Y-168203365D01*
X82456236Y-168218431D01*
X82396128Y-168291673D01*
X82351464Y-168375235D01*
X82335944Y-168426397D01*
X82323960Y-168465903D01*
X82314673Y-168560195D01*
X82317000Y-168583822D01*
X82317001Y-169590288D01*
X81523000Y-169590288D01*
X81453604Y-169597123D01*
X81386875Y-169617365D01*
X81325377Y-169650236D01*
X81271474Y-169694474D01*
X81227236Y-169748377D01*
X81194365Y-169809875D01*
X81174123Y-169876604D01*
X81167288Y-169946000D01*
X81167288Y-172446000D01*
X81174123Y-172515396D01*
X81182739Y-172543800D01*
X81176626Y-172543800D01*
X81153000Y-172541473D01*
X81058707Y-172550760D01*
X81047552Y-172554144D01*
X80968039Y-172578264D01*
X80884478Y-172622928D01*
X80811236Y-172683036D01*
X80796175Y-172701388D01*
X80090164Y-173407400D01*
X78206247Y-173407400D01*
X78116335Y-173317488D01*
X77995953Y-173237052D01*
X77862191Y-173181646D01*
X77720191Y-173153400D01*
X77575409Y-173153400D01*
X77433409Y-173181646D01*
X77299647Y-173237052D01*
X77179265Y-173317488D01*
X77076888Y-173419865D01*
X76996452Y-173540247D01*
X76941046Y-173674009D01*
X76912800Y-173816009D01*
X76912800Y-173960791D01*
X76941046Y-174102791D01*
X76996452Y-174236553D01*
X77076888Y-174356935D01*
X77179265Y-174459312D01*
X77299647Y-174539748D01*
X77433409Y-174595154D01*
X77575409Y-174623400D01*
X77720191Y-174623400D01*
X77862191Y-174595154D01*
X77995953Y-174539748D01*
X78116335Y-174459312D01*
X78206247Y-174369400D01*
X80265774Y-174369400D01*
X80289400Y-174371727D01*
X80313026Y-174369400D01*
X80338643Y-174366877D01*
X80383692Y-174362440D01*
X80397834Y-174358150D01*
X80474361Y-174334936D01*
X80557922Y-174290272D01*
X80631164Y-174230164D01*
X80646230Y-174211806D01*
X81352237Y-173505800D01*
X82729574Y-173505800D01*
X82753200Y-173508127D01*
X82776826Y-173505800D01*
X82815764Y-173501965D01*
X82847492Y-173498840D01*
X82859185Y-173495293D01*
X82938161Y-173471336D01*
X83021722Y-173426672D01*
X83094964Y-173366564D01*
X83110030Y-173348206D01*
X83121406Y-173336830D01*
X83139764Y-173321764D01*
X83199872Y-173248522D01*
X83244536Y-173164961D01*
X83272040Y-173074292D01*
X83274279Y-173051560D01*
X83281327Y-172980000D01*
X83279000Y-172956374D01*
X83279000Y-172801712D01*
X84073000Y-172801712D01*
X84142396Y-172794877D01*
X84209125Y-172774635D01*
X84270623Y-172741764D01*
X84324526Y-172697526D01*
X84368764Y-172643623D01*
X84401635Y-172582125D01*
X84421877Y-172515396D01*
X84428712Y-172446000D01*
X84428712Y-170076124D01*
X84644063Y-170141143D01*
X84666289Y-170145544D01*
X84688454Y-170150255D01*
X84691926Y-170150620D01*
X84713000Y-170152686D01*
X84713001Y-172453763D01*
X84704492Y-172540547D01*
X84682842Y-172612255D01*
X84647677Y-172678391D01*
X84600332Y-172736441D01*
X84542616Y-172784187D01*
X84476731Y-172819811D01*
X84405170Y-172841963D01*
X84308739Y-172852099D01*
X84300908Y-172852044D01*
X84297433Y-172852385D01*
X84174182Y-172865340D01*
X84152009Y-172869891D01*
X84129731Y-172874141D01*
X84126389Y-172875150D01*
X84008001Y-172911797D01*
X83987150Y-172920562D01*
X83966104Y-172929065D01*
X83963022Y-172930705D01*
X83854007Y-172989649D01*
X83835227Y-173002316D01*
X83816262Y-173014726D01*
X83813564Y-173016927D01*
X83813557Y-173016932D01*
X83813551Y-173016938D01*
X83718067Y-173095928D01*
X83702123Y-173111984D01*
X83685912Y-173127859D01*
X83683687Y-173130549D01*
X83605359Y-173226588D01*
X83592823Y-173245456D01*
X83580018Y-173264157D01*
X83578358Y-173267228D01*
X83520176Y-173376652D01*
X83511547Y-173397588D01*
X83502615Y-173418427D01*
X83501583Y-173421762D01*
X83465763Y-173540403D01*
X83461358Y-173562650D01*
X83456651Y-173584795D01*
X83456286Y-173588267D01*
X83444193Y-173711605D01*
X83444193Y-173711623D01*
X83443001Y-173723725D01*
X83443001Y-174921398D01*
X83436368Y-174917171D01*
X83430373Y-174914833D01*
X83424844Y-174911553D01*
X83393959Y-174900630D01*
X83363442Y-174888727D01*
X83357114Y-174887599D01*
X83356193Y-174887273D01*
X83347663Y-174877608D01*
X83336656Y-174864451D01*
X83325034Y-174849826D01*
X83312822Y-174833683D01*
X83300089Y-174816033D01*
X83286920Y-174796926D01*
X83273290Y-174776255D01*
X83262442Y-174759078D01*
X83149060Y-174556944D01*
X83151318Y-174539176D01*
X83155803Y-174507457D01*
X83155980Y-174502517D01*
X83156605Y-174480785D01*
X83154434Y-174449375D01*
X83152817Y-174417983D01*
X83152049Y-174413100D01*
X83148544Y-174391811D01*
X83140463Y-174361547D01*
X83132948Y-174331172D01*
X83131266Y-174326523D01*
X83123787Y-174306301D01*
X83109947Y-174277794D01*
X83096624Y-174249159D01*
X83094083Y-174244920D01*
X83082787Y-174226379D01*
X83063299Y-174200471D01*
X83044159Y-174174369D01*
X83041280Y-174171199D01*
X83041256Y-174171167D01*
X83041229Y-174171143D01*
X83040836Y-174170710D01*
X83025884Y-174154479D01*
X83001086Y-174132347D01*
X82976536Y-174110094D01*
X82974409Y-174108538D01*
X82974339Y-174108475D01*
X82974259Y-174108428D01*
X82972547Y-174107175D01*
X82954094Y-174093871D01*
X82925336Y-174077140D01*
X82896770Y-174060235D01*
X82894452Y-174059172D01*
X82894376Y-174059128D01*
X82894294Y-174059100D01*
X82892277Y-174058175D01*
X82871509Y-174048834D01*
X82840117Y-174038259D01*
X82808918Y-174027458D01*
X82806120Y-174026806D01*
X82806035Y-174026778D01*
X82805949Y-174026767D01*
X82804103Y-174026337D01*
X82782518Y-174021474D01*
X82750511Y-174017489D01*
X82718626Y-174013092D01*
X82713979Y-174012942D01*
X82713959Y-174012939D01*
X82713941Y-174012940D01*
X82713685Y-174012932D01*
X82691911Y-174012380D01*
X82660538Y-174014655D01*
X82629124Y-174016381D01*
X82624244Y-174017166D01*
X82602910Y-174020753D01*
X82572797Y-174028903D01*
X82542540Y-174036478D01*
X82537896Y-174038172D01*
X82517625Y-174045733D01*
X82489312Y-174059576D01*
X82460832Y-174072891D01*
X82456597Y-174075440D01*
X82438018Y-174086806D01*
X82412294Y-174106230D01*
X82386361Y-174125277D01*
X82382895Y-174128430D01*
X82382882Y-174128440D01*
X82382873Y-174128450D01*
X82382705Y-174128603D01*
X82366443Y-174143607D01*
X82344391Y-174168354D01*
X82322246Y-174192788D01*
X82320539Y-174195120D01*
X82320479Y-174195188D01*
X82320435Y-174195264D01*
X82319327Y-174196777D01*
X82306012Y-174215249D01*
X82289276Y-174244019D01*
X82272367Y-174272602D01*
X82271318Y-174274892D01*
X82271273Y-174274969D01*
X82271244Y-174275052D01*
X82270308Y-174277096D01*
X82260979Y-174297846D01*
X82250385Y-174329313D01*
X82239559Y-174360664D01*
X82238960Y-174363245D01*
X82238934Y-174363323D01*
X82238924Y-174363403D01*
X82238442Y-174365479D01*
X82233609Y-174387013D01*
X82229628Y-174419198D01*
X82225266Y-174451248D01*
X82225134Y-174455538D01*
X82225129Y-174455579D01*
X82225132Y-174455615D01*
X82225114Y-174456189D01*
X82224602Y-174477891D01*
X82226950Y-174509489D01*
X82228772Y-174541039D01*
X82229570Y-174545917D01*
X82233205Y-174567171D01*
X82241475Y-174597391D01*
X82249166Y-174627679D01*
X82250876Y-174632317D01*
X82258483Y-174652505D01*
X82272401Y-174680732D01*
X82285829Y-174709204D01*
X82288393Y-174713430D01*
X82299801Y-174731938D01*
X82319225Y-174757483D01*
X82338250Y-174783249D01*
X82341585Y-174786897D01*
X82356618Y-174803108D01*
X82381188Y-174824891D01*
X82405479Y-174846861D01*
X82408257Y-174848889D01*
X82408315Y-174848941D01*
X82408378Y-174848978D01*
X82409471Y-174849776D01*
X82418615Y-174856354D01*
X82419134Y-174858908D01*
X82423668Y-174882261D01*
X82428003Y-174905780D01*
X82432110Y-174929406D01*
X82435975Y-174953167D01*
X82439530Y-174976758D01*
X82442760Y-175000192D01*
X82445623Y-175023275D01*
X82448106Y-175046011D01*
X82450170Y-175068165D01*
X82451796Y-175089633D01*
X82452968Y-175110250D01*
X82453591Y-175127452D01*
X82444955Y-175125420D01*
X82426492Y-175120696D01*
X82407143Y-175115377D01*
X82386934Y-175109467D01*
X82365956Y-175102986D01*
X82344445Y-175096014D01*
X82322264Y-175088510D01*
X82299505Y-175080511D01*
X82276364Y-175072092D01*
X82252716Y-175063219D01*
X82228738Y-175053969D01*
X82204550Y-175044398D01*
X82179945Y-175034438D01*
X82155175Y-175024201D01*
X82130235Y-175013700D01*
X82105306Y-175003024D01*
X82082814Y-174993244D01*
X82081168Y-174989475D01*
X82072227Y-174965710D01*
X82070013Y-174961291D01*
X82059822Y-174941305D01*
X82045782Y-174919367D01*
X82032829Y-174896795D01*
X82029934Y-174892788D01*
X82016537Y-174874517D01*
X81998740Y-174854648D01*
X81981872Y-174834028D01*
X81978360Y-174830549D01*
X81961826Y-174814406D01*
X81940706Y-174797477D01*
X81920350Y-174779687D01*
X81916309Y-174776841D01*
X81896710Y-174763244D01*
X81873590Y-174750348D01*
X81851097Y-174736414D01*
X81846646Y-174734264D01*
X81825243Y-174724111D01*
X81800698Y-174715285D01*
X81776600Y-174705289D01*
X81771861Y-174703882D01*
X81749719Y-174697479D01*
X81724484Y-174692789D01*
X81699552Y-174686840D01*
X81694651Y-174686201D01*
X81672175Y-174683433D01*
X81647013Y-174682809D01*
X81621923Y-174680847D01*
X81616981Y-174680979D01*
X81594577Y-174681734D01*
X81570011Y-174684981D01*
X81545302Y-174686863D01*
X81540439Y-174687751D01*
X81518512Y-174691916D01*
X81494891Y-174698848D01*
X81470946Y-174704430D01*
X81466275Y-174706049D01*
X81445232Y-174713510D01*
X81422874Y-174723994D01*
X81399978Y-174733206D01*
X81395610Y-174735520D01*
X81375856Y-174746164D01*
X81355114Y-174760111D01*
X81333659Y-174772906D01*
X81329701Y-174775867D01*
X81311641Y-174789580D01*
X81292973Y-174806873D01*
X81273442Y-174823174D01*
X81269999Y-174826721D01*
X81254040Y-174843391D01*
X81238077Y-174863714D01*
X81221145Y-174883203D01*
X81218310Y-174887253D01*
X81204857Y-174906765D01*
X81202321Y-174911343D01*
X81145000Y-174905697D01*
X80945000Y-174908600D01*
X80795000Y-175058600D01*
X80795000Y-177708600D01*
X80840146Y-177753746D01*
X80837677Y-177758391D01*
X80790332Y-177816441D01*
X80732616Y-177864187D01*
X80666731Y-177899811D01*
X80595170Y-177921963D01*
X80509190Y-177931000D01*
X75910391Y-177931000D01*
X75905689Y-177889085D01*
X75900975Y-177866906D01*
X75896577Y-177844695D01*
X75895545Y-177841360D01*
X75820600Y-177605102D01*
X75811674Y-177584276D01*
X75803039Y-177563326D01*
X75801379Y-177560256D01*
X75681971Y-177343053D01*
X75669172Y-177324361D01*
X75656631Y-177305485D01*
X75654405Y-177302795D01*
X75495083Y-177112923D01*
X75478908Y-177097083D01*
X75462929Y-177080992D01*
X75460224Y-177078786D01*
X75267056Y-176923475D01*
X75248128Y-176911089D01*
X75229311Y-176898396D01*
X75226233Y-176896761D01*
X75226229Y-176896758D01*
X75226225Y-176896756D01*
X75006573Y-176781926D01*
X74985624Y-176773462D01*
X74964679Y-176764657D01*
X74961336Y-176763649D01*
X74961334Y-176763648D01*
X74961330Y-176763647D01*
X74723560Y-176693667D01*
X74701345Y-176689429D01*
X74679106Y-176684864D01*
X74675634Y-176684524D01*
X74675632Y-176684524D01*
X74428792Y-176662060D01*
X74406173Y-176662218D01*
X74383477Y-176662059D01*
X74380003Y-176662400D01*
X74379999Y-176662400D01*
X74133499Y-176688308D01*
X74111290Y-176692867D01*
X74089046Y-176697110D01*
X74085714Y-176698117D01*
X74085704Y-176698119D01*
X74085695Y-176698123D01*
X73848927Y-176771415D01*
X73828085Y-176780176D01*
X73807031Y-176788682D01*
X73803953Y-176790320D01*
X73803948Y-176790322D01*
X73803944Y-176790325D01*
X73585919Y-176908210D01*
X73567155Y-176920866D01*
X73548174Y-176933287D01*
X73545476Y-176935488D01*
X73545469Y-176935493D01*
X73545463Y-176935499D01*
X73354489Y-177093487D01*
X73338512Y-177109576D01*
X73322334Y-177125418D01*
X73320114Y-177128102D01*
X73320108Y-177128108D01*
X73320104Y-177128115D01*
X73163454Y-177320186D01*
X73150923Y-177339046D01*
X73138113Y-177357755D01*
X73136456Y-177360821D01*
X73136453Y-177360825D01*
X73136453Y-177360826D01*
X73020090Y-177579674D01*
X73011471Y-177600586D01*
X73002529Y-177621447D01*
X73001497Y-177624782D01*
X72929857Y-177862063D01*
X72925458Y-177884280D01*
X72920745Y-177906454D01*
X72920380Y-177909926D01*
X72918314Y-177931000D01*
X70370226Y-177931000D01*
X70283453Y-177922492D01*
X70211745Y-177900842D01*
X70145609Y-177865677D01*
X70087559Y-177818332D01*
X70039813Y-177760616D01*
X70004189Y-177694731D01*
X69982037Y-177623170D01*
X69971901Y-177526739D01*
X69971956Y-177518908D01*
X69971615Y-177515433D01*
X69958660Y-177392182D01*
X69954109Y-177370009D01*
X69949859Y-177347731D01*
X69948850Y-177344389D01*
X69912203Y-177226001D01*
X69903432Y-177205136D01*
X69894935Y-177184104D01*
X69893295Y-177181022D01*
X69879475Y-177155462D01*
X69890186Y-177155462D01*
X69890186Y-175848001D01*
X70587965Y-175848001D01*
X70823088Y-176083124D01*
X70823088Y-177008600D01*
X70834727Y-177126769D01*
X70869195Y-177240396D01*
X70925169Y-177345116D01*
X71000497Y-177436903D01*
X71092284Y-177512231D01*
X71197004Y-177568205D01*
X71310631Y-177602673D01*
X71428800Y-177614312D01*
X71928800Y-177614312D01*
X72046969Y-177602673D01*
X72160596Y-177568205D01*
X72265316Y-177512231D01*
X72357103Y-177436903D01*
X72432431Y-177345116D01*
X72488405Y-177240396D01*
X72488415Y-177240362D01*
X72504300Y-177241927D01*
X72527926Y-177239600D01*
X72529216Y-177239473D01*
X72598592Y-177232640D01*
X72606810Y-177230147D01*
X72689261Y-177205136D01*
X72772822Y-177160472D01*
X72846064Y-177100364D01*
X72861130Y-177082006D01*
X73351237Y-176591900D01*
X75264164Y-176591900D01*
X75754274Y-177082011D01*
X75769336Y-177100364D01*
X75842578Y-177160472D01*
X75926139Y-177205136D01*
X75986315Y-177223390D01*
X76016807Y-177232640D01*
X76023234Y-177233273D01*
X76025395Y-177240396D01*
X76081369Y-177345116D01*
X76156697Y-177436903D01*
X76248484Y-177512231D01*
X76353204Y-177568205D01*
X76466831Y-177602673D01*
X76585000Y-177614312D01*
X77085000Y-177614312D01*
X77203169Y-177602673D01*
X77316796Y-177568205D01*
X77421516Y-177512231D01*
X77470000Y-177472441D01*
X77518484Y-177512231D01*
X77623204Y-177568205D01*
X77736831Y-177602673D01*
X77855000Y-177614312D01*
X78355000Y-177614312D01*
X78473169Y-177602673D01*
X78586796Y-177568205D01*
X78691516Y-177512231D01*
X78740000Y-177472441D01*
X78788484Y-177512231D01*
X78893204Y-177568205D01*
X79006831Y-177602673D01*
X79125000Y-177614312D01*
X79625000Y-177614312D01*
X79658066Y-177611055D01*
X79718683Y-177684917D01*
X79810045Y-177759896D01*
X79914279Y-177815610D01*
X80027379Y-177849918D01*
X80145000Y-177861503D01*
X80345000Y-177858600D01*
X80495000Y-177708600D01*
X80495000Y-175058600D01*
X80345000Y-174908600D01*
X80145000Y-174905697D01*
X80027379Y-174917282D01*
X79914279Y-174951590D01*
X79810045Y-175007304D01*
X79718683Y-175082283D01*
X79658066Y-175156145D01*
X79625000Y-175152888D01*
X79125000Y-175152888D01*
X79006831Y-175164527D01*
X78893204Y-175198995D01*
X78788484Y-175254969D01*
X78740000Y-175294759D01*
X78691516Y-175254969D01*
X78586796Y-175198995D01*
X78473169Y-175164527D01*
X78355000Y-175152888D01*
X77855000Y-175152888D01*
X77736831Y-175164527D01*
X77623204Y-175198995D01*
X77518484Y-175254969D01*
X77470000Y-175294759D01*
X77421516Y-175254969D01*
X77316796Y-175198995D01*
X77203169Y-175164527D01*
X77085000Y-175152888D01*
X76585000Y-175152888D01*
X76466831Y-175164527D01*
X76353204Y-175198995D01*
X76248484Y-175254969D01*
X76156697Y-175330297D01*
X76081369Y-175422084D01*
X76025395Y-175526804D01*
X75990927Y-175640431D01*
X75979288Y-175758600D01*
X75979288Y-175946552D01*
X75820230Y-175787494D01*
X75805164Y-175769136D01*
X75731922Y-175709028D01*
X75648361Y-175664364D01*
X75557692Y-175636860D01*
X75531314Y-175634262D01*
X75463400Y-175627573D01*
X75439774Y-175629900D01*
X73175626Y-175629900D01*
X73151999Y-175627573D01*
X73057707Y-175636860D01*
X73031138Y-175644920D01*
X72967039Y-175664364D01*
X72883478Y-175709028D01*
X72810236Y-175769136D01*
X72795174Y-175787489D01*
X72534512Y-176048151D01*
X72534512Y-176008600D01*
X72522873Y-175890431D01*
X72488405Y-175776804D01*
X72432431Y-175672084D01*
X72357103Y-175580297D01*
X72265316Y-175504969D01*
X72160596Y-175448995D01*
X72046969Y-175414527D01*
X71928800Y-175402888D01*
X71503324Y-175402888D01*
X71144031Y-175043595D01*
X71128965Y-175025237D01*
X71055723Y-174965129D01*
X70978712Y-174923966D01*
X70978712Y-172486000D01*
X70971877Y-172416604D01*
X70951635Y-172349875D01*
X70918764Y-172288377D01*
X70874526Y-172234474D01*
X70820623Y-172190236D01*
X70759125Y-172157365D01*
X70692396Y-172137123D01*
X70623000Y-172130288D01*
X69073700Y-172130288D01*
X69073700Y-171517112D01*
X69319700Y-171517112D01*
X69389096Y-171510277D01*
X69455825Y-171490035D01*
X69517323Y-171457164D01*
X69571226Y-171412926D01*
X69615464Y-171359023D01*
X69648335Y-171297525D01*
X69668577Y-171230796D01*
X69675412Y-171161400D01*
X69675412Y-170261400D01*
X69668577Y-170192004D01*
X69648335Y-170125275D01*
X69615464Y-170063777D01*
X69571226Y-170009874D01*
X69517323Y-169965636D01*
X69455825Y-169932765D01*
X69389096Y-169912523D01*
X69319700Y-169905688D01*
X68393646Y-169905688D01*
X69043106Y-169256228D01*
X69061464Y-169241162D01*
X69121572Y-169167920D01*
X69148592Y-169117369D01*
X69166236Y-169084360D01*
X69193740Y-168993691D01*
X69195013Y-168980769D01*
X69200269Y-169007194D01*
X69291029Y-169226308D01*
X69422792Y-169423505D01*
X69590495Y-169591208D01*
X69787692Y-169722971D01*
X70006806Y-169813731D01*
X70239416Y-169860000D01*
X70476584Y-169860000D01*
X70702500Y-169815063D01*
X70702499Y-171390814D01*
X70700172Y-171414441D01*
X70709459Y-171508733D01*
X70712001Y-171517112D01*
X70736963Y-171599401D01*
X70781627Y-171682963D01*
X70841735Y-171756205D01*
X70860092Y-171771271D01*
X71255933Y-172167112D01*
X71270995Y-172185465D01*
X71344237Y-172245573D01*
X71427798Y-172290237D01*
X71518467Y-172317741D01*
X71589133Y-172324701D01*
X71589134Y-172324701D01*
X71612758Y-172327028D01*
X71636382Y-172324701D01*
X71687347Y-172324701D01*
X71457904Y-172554144D01*
X71255006Y-172857802D01*
X71115248Y-173195208D01*
X71044000Y-173553397D01*
X71044000Y-173918603D01*
X71115248Y-174276792D01*
X71255006Y-174614198D01*
X71457904Y-174917856D01*
X71716144Y-175176096D01*
X72019802Y-175378994D01*
X72357208Y-175518752D01*
X72715397Y-175590000D01*
X73080603Y-175590000D01*
X73438792Y-175518752D01*
X73776198Y-175378994D01*
X74079856Y-175176096D01*
X74338096Y-174917856D01*
X74540994Y-174614198D01*
X74680752Y-174276792D01*
X74708906Y-174135253D01*
X74778965Y-174205312D01*
X74899347Y-174285748D01*
X75033109Y-174341154D01*
X75175109Y-174369400D01*
X75319891Y-174369400D01*
X75461891Y-174341154D01*
X75595653Y-174285748D01*
X75716035Y-174205312D01*
X75818412Y-174102935D01*
X75898848Y-173982553D01*
X75954254Y-173848791D01*
X75982500Y-173706791D01*
X75982500Y-173562009D01*
X75954254Y-173420009D01*
X75898848Y-173286247D01*
X75818412Y-173165865D01*
X75716035Y-173063488D01*
X75703116Y-173054856D01*
X75694036Y-173024924D01*
X75649372Y-172941363D01*
X75589264Y-172868121D01*
X75570912Y-172853060D01*
X74274444Y-171556593D01*
X74259378Y-171538235D01*
X74186136Y-171478127D01*
X74169184Y-171469066D01*
X74131512Y-171431394D01*
X74116446Y-171413036D01*
X74043204Y-171352928D01*
X73959643Y-171308264D01*
X73868974Y-171280760D01*
X73798308Y-171273800D01*
X73774682Y-171271473D01*
X73751056Y-171273800D01*
X72517768Y-171273800D01*
X72494142Y-171271473D01*
X72470516Y-171273800D01*
X72399850Y-171280760D01*
X72309181Y-171308264D01*
X72225620Y-171352928D01*
X72213712Y-171362701D01*
X71811996Y-171362701D01*
X71664499Y-171215205D01*
X71664499Y-169851619D01*
X72256206Y-169259912D01*
X72274564Y-169244846D01*
X72334672Y-169171604D01*
X72358596Y-169126845D01*
X72379336Y-169088044D01*
X72406840Y-168997375D01*
X72416127Y-168903082D01*
X72413800Y-168879456D01*
X72413800Y-167733712D01*
X72447400Y-167733712D01*
X72516796Y-167726877D01*
X72583525Y-167706635D01*
X72587399Y-167704564D01*
X72591275Y-167706636D01*
X72658004Y-167726878D01*
X72727400Y-167733713D01*
X73227400Y-167733713D01*
X73251849Y-167731305D01*
X73276409Y-167731305D01*
X73284110Y-167730546D01*
X73183992Y-167972254D01*
X73093910Y-168425127D01*
X73093910Y-168886873D01*
X73183992Y-169339746D01*
X73360694Y-169766343D01*
X73617226Y-170150270D01*
X73943730Y-170476774D01*
X74327657Y-170733306D01*
X74754254Y-170910008D01*
X75207127Y-171000090D01*
X75668873Y-171000090D01*
X76121746Y-170910008D01*
X76548343Y-170733306D01*
X76932270Y-170476774D01*
X77258774Y-170150270D01*
X77515306Y-169766343D01*
X77692008Y-169339746D01*
X77782090Y-168886873D01*
X77782090Y-168425127D01*
X77692008Y-167972254D01*
X77591269Y-167729047D01*
X77614191Y-167731305D01*
X77638751Y-167731305D01*
X77663200Y-167733713D01*
X78163200Y-167733713D01*
X78232596Y-167726878D01*
X78299325Y-167706636D01*
X78303201Y-167704564D01*
X78307075Y-167706635D01*
X78373804Y-167726877D01*
X78411400Y-167730580D01*
X78411400Y-167839391D01*
X78439646Y-167981391D01*
X78495052Y-168115153D01*
X78575488Y-168235535D01*
X78677865Y-168337912D01*
X78798247Y-168418348D01*
X78932009Y-168473754D01*
X79074009Y-168502000D01*
X79218791Y-168502000D01*
X79346489Y-168476599D01*
X79334000Y-168539386D01*
X79334000Y-168772614D01*
X79379500Y-169001360D01*
X79468753Y-169216834D01*
X79571053Y-169369937D01*
X79430603Y-169342000D01*
X79065397Y-169342000D01*
X78707208Y-169413248D01*
X78369802Y-169553006D01*
X78066144Y-169755904D01*
X77807904Y-170014144D01*
X77605006Y-170317802D01*
X77465248Y-170655208D01*
X77394000Y-171013397D01*
X77394000Y-171378603D01*
X77465248Y-171736792D01*
X77605006Y-172074198D01*
X77807904Y-172377856D01*
X78066144Y-172636096D01*
X78369802Y-172838994D01*
X78707208Y-172978752D01*
X79065397Y-173050000D01*
X79430603Y-173050000D01*
X79788792Y-172978752D01*
X80126198Y-172838994D01*
X80429856Y-172636096D01*
X80688096Y-172377856D01*
X80890994Y-172074198D01*
X81030752Y-171736792D01*
X81102000Y-171378603D01*
X81102000Y-171013397D01*
X81030752Y-170655208D01*
X80890994Y-170317802D01*
X80688096Y-170014144D01*
X80513952Y-169840000D01*
X80634614Y-169840000D01*
X80863360Y-169794500D01*
X81078834Y-169705247D01*
X81272756Y-169575673D01*
X81437673Y-169410756D01*
X81567247Y-169216834D01*
X81656500Y-169001360D01*
X81702000Y-168772614D01*
X81702000Y-168539386D01*
X81656500Y-168310640D01*
X81567247Y-168095166D01*
X81437673Y-167901244D01*
X81272756Y-167736327D01*
X81078834Y-167606753D01*
X80863360Y-167517500D01*
X80802551Y-167505405D01*
X80861232Y-167446724D01*
X80905469Y-167392821D01*
X80959925Y-167311322D01*
X80992798Y-167249822D01*
X81030307Y-167159266D01*
X81050548Y-167092538D01*
X81069670Y-166996405D01*
X81076505Y-166927009D01*
X81076505Y-166828991D01*
X81069670Y-166759595D01*
X81050548Y-166663462D01*
X81030307Y-166596734D01*
X80992798Y-166506178D01*
X80959925Y-166444678D01*
X80905469Y-166363179D01*
X80861232Y-166309276D01*
X80791924Y-166239968D01*
X80738021Y-166195731D01*
X80656522Y-166141275D01*
X80634484Y-166129495D01*
X80625072Y-166111886D01*
X80564964Y-166038644D01*
X80546611Y-166023583D01*
X79718721Y-165195693D01*
X79703655Y-165177335D01*
X79630413Y-165117227D01*
X79546852Y-165072563D01*
X79456183Y-165045059D01*
X79405791Y-165040096D01*
X79445010Y-164966721D01*
X79479318Y-164853621D01*
X79490903Y-164736000D01*
X79488000Y-164626000D01*
X79338000Y-164476000D01*
X78138000Y-164476000D01*
X78138000Y-164496000D01*
X77838000Y-164496000D01*
X77838000Y-164476000D01*
X77439000Y-164476000D01*
X77439000Y-164176000D01*
X77838000Y-164176000D01*
X77838000Y-164156000D01*
X78138000Y-164156000D01*
X78138000Y-164176000D01*
X79338000Y-164176000D01*
X79488000Y-164026000D01*
X79490903Y-163916000D01*
X79479318Y-163798379D01*
X79445010Y-163685279D01*
X79389296Y-163581045D01*
X79356163Y-163540673D01*
X79475235Y-163461112D01*
X79577612Y-163358735D01*
X79658048Y-163238353D01*
X79713454Y-163104591D01*
X79741700Y-162962591D01*
X79741700Y-162817809D01*
X79713454Y-162675809D01*
X79658048Y-162542047D01*
X79577612Y-162421665D01*
X79543659Y-162387712D01*
X79625000Y-162387712D01*
X79658066Y-162384455D01*
X79718683Y-162458317D01*
X79810045Y-162533296D01*
X79914279Y-162589010D01*
X80027379Y-162623318D01*
X80145000Y-162634903D01*
X80345000Y-162632000D01*
X80495000Y-162482000D01*
X80495000Y-159832000D01*
X80345000Y-159682000D01*
X80145000Y-159679097D01*
X80027379Y-159690682D01*
X79914279Y-159724990D01*
X79810045Y-159780704D01*
X79718683Y-159855683D01*
X79658066Y-159929545D01*
X79625000Y-159926288D01*
X79125000Y-159926288D01*
X79006831Y-159937927D01*
X78893204Y-159972395D01*
X78788484Y-160028369D01*
X78740000Y-160068159D01*
X78691516Y-160028369D01*
X78586796Y-159972395D01*
X78473169Y-159937927D01*
X78355000Y-159926288D01*
X77855000Y-159926288D01*
X77736831Y-159937927D01*
X77623204Y-159972395D01*
X77518484Y-160028369D01*
X77470000Y-160068159D01*
X77421516Y-160028369D01*
X77316796Y-159972395D01*
X77203169Y-159937927D01*
X77085000Y-159926288D01*
X76585000Y-159926288D01*
X76466831Y-159937927D01*
X76353204Y-159972395D01*
X76248484Y-160028369D01*
X76156697Y-160103697D01*
X76081369Y-160195484D01*
X76025395Y-160300204D01*
X75990927Y-160413831D01*
X75979288Y-160532000D01*
X75979288Y-161153490D01*
X72534512Y-161153490D01*
X72534512Y-160532000D01*
X72522873Y-160413831D01*
X72488405Y-160300204D01*
X72432431Y-160195484D01*
X72357103Y-160103697D01*
X72265316Y-160028369D01*
X72160596Y-159972395D01*
X72046969Y-159937927D01*
X71928800Y-159926288D01*
X71428800Y-159926288D01*
X71310631Y-159937927D01*
X71197004Y-159972395D01*
X71092284Y-160028369D01*
X71000497Y-160103697D01*
X70925169Y-160195484D01*
X70869195Y-160300204D01*
X70834727Y-160413831D01*
X70823088Y-160532000D01*
X70823088Y-161457476D01*
X70504493Y-161776071D01*
X70486135Y-161791137D01*
X70426027Y-161864379D01*
X70381363Y-161947941D01*
X70362203Y-162011105D01*
X70353859Y-162038609D01*
X70344572Y-162132901D01*
X70346899Y-162156527D01*
X70346900Y-164794468D01*
X70085384Y-165055984D01*
X70067026Y-165071050D01*
X70006918Y-165144292D01*
X69962254Y-165227854D01*
X69943997Y-165288039D01*
X69934750Y-165318522D01*
X69925463Y-165412814D01*
X69927790Y-165436440D01*
X69927790Y-165662774D01*
X69435392Y-166155172D01*
X69417034Y-166170238D01*
X69356926Y-166243480D01*
X69312262Y-166327042D01*
X69301403Y-166362840D01*
X69284758Y-166417710D01*
X69275471Y-166512002D01*
X69277798Y-166535629D01*
X69277798Y-166605688D01*
X68119700Y-166605688D01*
X68050304Y-166612523D01*
X67983575Y-166632765D01*
X67922077Y-166665636D01*
X67868174Y-166709874D01*
X67823936Y-166763777D01*
X67791065Y-166825275D01*
X67770823Y-166892004D01*
X67763988Y-166961400D01*
X67763988Y-167861400D01*
X67770823Y-167930796D01*
X67791065Y-167997525D01*
X67823936Y-168059023D01*
X67868174Y-168112926D01*
X67922077Y-168157164D01*
X67983575Y-168190035D01*
X68050304Y-168210277D01*
X68119700Y-168217112D01*
X68238701Y-168217112D01*
X68238701Y-168700161D01*
X67300993Y-169637869D01*
X67282635Y-169652935D01*
X67222527Y-169726177D01*
X67177863Y-169809739D01*
X67159443Y-169870462D01*
X67150359Y-169900407D01*
X67141072Y-169994699D01*
X67143399Y-170018325D01*
X67143400Y-173083489D01*
X67057412Y-173013359D01*
X67038544Y-173000823D01*
X67019843Y-172988018D01*
X67016772Y-172986358D01*
X66907348Y-172928176D01*
X66886412Y-172919547D01*
X66865573Y-172910615D01*
X66862238Y-172909583D01*
X66743597Y-172873763D01*
X66721350Y-172869358D01*
X66699205Y-172864651D01*
X66695737Y-172864286D01*
X66695733Y-172864286D01*
X66572395Y-172852193D01*
X66572394Y-172852193D01*
X66473453Y-172842492D01*
X66401745Y-172820842D01*
X66335609Y-172785677D01*
X66277559Y-172738332D01*
X66229813Y-172680616D01*
X66194189Y-172614731D01*
X66172037Y-172543170D01*
X66163000Y-172457190D01*
X66163000Y-170151391D01*
X66204916Y-170146689D01*
X66227102Y-170141973D01*
X66249305Y-170137577D01*
X66252638Y-170136546D01*
X66252644Y-170136544D01*
X66488898Y-170061600D01*
X66509724Y-170052674D01*
X66530674Y-170044039D01*
X66533745Y-170042379D01*
X66750947Y-169922970D01*
X66769655Y-169910161D01*
X66788515Y-169897630D01*
X66791200Y-169895409D01*
X66791206Y-169895405D01*
X66791211Y-169895400D01*
X66981077Y-169736083D01*
X66996901Y-169719924D01*
X67013008Y-169703929D01*
X67015214Y-169701223D01*
X67170525Y-169508056D01*
X67182901Y-169489144D01*
X67195604Y-169470311D01*
X67197239Y-169467233D01*
X67197242Y-169467229D01*
X67197244Y-169467225D01*
X67312074Y-169247574D01*
X67320554Y-169226586D01*
X67329343Y-169205678D01*
X67330349Y-169202342D01*
X67330352Y-169202335D01*
X67330353Y-169202328D01*
X67400333Y-168964560D01*
X67404570Y-168942351D01*
X67409136Y-168920106D01*
X67409476Y-168916632D01*
X67431940Y-168669792D01*
X67431782Y-168647173D01*
X67431941Y-168624477D01*
X67431600Y-168621003D01*
X67405692Y-168374499D01*
X67401133Y-168352290D01*
X67396890Y-168330046D01*
X67395883Y-168326714D01*
X67395881Y-168326704D01*
X67395877Y-168326695D01*
X67322585Y-168089927D01*
X67313824Y-168069085D01*
X67305318Y-168048031D01*
X67303678Y-168044949D01*
X67303678Y-168044948D01*
X67303675Y-168044944D01*
X67185790Y-167826919D01*
X67173134Y-167808155D01*
X67160713Y-167789174D01*
X67158512Y-167786476D01*
X67158507Y-167786469D01*
X67158501Y-167786463D01*
X67000513Y-167595489D01*
X66984424Y-167579512D01*
X66968582Y-167563334D01*
X66965898Y-167561114D01*
X66965892Y-167561108D01*
X66965885Y-167561104D01*
X66773814Y-167404454D01*
X66754954Y-167391923D01*
X66736245Y-167379113D01*
X66733179Y-167377456D01*
X66733175Y-167377453D01*
X66733171Y-167377451D01*
X66514326Y-167261090D01*
X66493414Y-167252471D01*
X66472553Y-167243529D01*
X66469218Y-167242497D01*
X66231937Y-167170857D01*
X66209711Y-167166456D01*
X66187546Y-167161745D01*
X66184074Y-167161380D01*
X66163000Y-167159314D01*
X66163000Y-164858227D01*
X66171508Y-164771453D01*
X66193159Y-164699743D01*
X66228323Y-164633609D01*
X66275663Y-164575564D01*
X66333384Y-164527813D01*
X66399269Y-164492189D01*
X66470829Y-164470037D01*
X66567261Y-164459901D01*
X66575092Y-164459956D01*
X66578567Y-164459615D01*
X66701818Y-164446660D01*
X66723991Y-164442109D01*
X66746269Y-164437859D01*
X66749611Y-164436850D01*
X66867998Y-164400203D01*
X66888877Y-164391427D01*
X66909895Y-164382935D01*
X66912969Y-164381300D01*
X66912978Y-164381296D01*
X66912985Y-164381291D01*
X67021993Y-164322351D01*
X67040773Y-164309684D01*
X67059738Y-164297274D01*
X67062443Y-164295068D01*
X67153897Y-164219411D01*
X67191369Y-164289516D01*
X67231159Y-164338000D01*
X67191369Y-164386484D01*
X67135395Y-164491204D01*
X67100927Y-164604831D01*
X67089288Y-164723000D01*
X67089288Y-165223000D01*
X67100927Y-165341169D01*
X67135395Y-165454796D01*
X67191369Y-165559516D01*
X67266697Y-165651303D01*
X67358484Y-165726631D01*
X67463204Y-165782605D01*
X67576831Y-165817073D01*
X67695000Y-165828712D01*
X68945000Y-165828712D01*
X69063169Y-165817073D01*
X69176796Y-165782605D01*
X69281516Y-165726631D01*
X69373303Y-165651303D01*
X69448631Y-165559516D01*
X69504605Y-165454796D01*
X69539073Y-165341169D01*
X69550712Y-165223000D01*
X69550712Y-164723000D01*
X69539073Y-164604831D01*
X69504605Y-164491204D01*
X69448631Y-164386484D01*
X69408841Y-164338000D01*
X69448631Y-164289516D01*
X69504605Y-164184796D01*
X69539073Y-164071169D01*
X69550712Y-163953000D01*
X69550712Y-163453000D01*
X69539073Y-163334831D01*
X69504605Y-163221204D01*
X69448631Y-163116484D01*
X69408841Y-163068000D01*
X69448631Y-163019516D01*
X69504605Y-162914796D01*
X69539073Y-162801169D01*
X69550712Y-162683000D01*
X69550712Y-162183000D01*
X69547455Y-162149934D01*
X69621317Y-162089317D01*
X69696296Y-161997955D01*
X69752010Y-161893721D01*
X69786318Y-161780621D01*
X69797903Y-161663000D01*
X69795000Y-161463000D01*
X69645000Y-161313000D01*
X67433000Y-161313000D01*
X67433000Y-161048227D01*
X67436454Y-161013000D01*
X69645000Y-161013000D01*
X69795000Y-160863000D01*
X69797903Y-160663000D01*
X69786318Y-160545379D01*
X69752010Y-160432279D01*
X69724080Y-160380025D01*
X69730088Y-160374141D01*
X69732313Y-160371451D01*
X69810640Y-160275412D01*
X69823169Y-160256555D01*
X69835982Y-160237843D01*
X69837639Y-160234777D01*
X69837642Y-160234773D01*
X69837644Y-160234769D01*
X69895823Y-160125349D01*
X69904440Y-160104444D01*
X69913385Y-160083573D01*
X69914417Y-160080238D01*
X69950237Y-159961598D01*
X69954641Y-159939357D01*
X69959349Y-159917206D01*
X69959714Y-159913734D01*
X69971807Y-159790395D01*
X69981508Y-159691453D01*
X70003159Y-159619743D01*
X70038323Y-159553609D01*
X70085663Y-159495564D01*
X70143384Y-159447813D01*
X70209269Y-159412189D01*
X70280829Y-159390037D01*
X70366810Y-159381000D01*
X72919609Y-159381000D01*
X72924311Y-159422916D01*
G37*
X72924311Y-159422916D02*
X72929027Y-159445102D01*
X72933423Y-159467305D01*
X72934455Y-159470640D01*
X73009400Y-159706898D01*
X73018326Y-159727724D01*
X73026961Y-159748674D01*
X73028621Y-159751745D01*
X73148030Y-159968947D01*
X73160839Y-159987655D01*
X73173370Y-160006515D01*
X73175591Y-160009200D01*
X73175595Y-160009206D01*
X73175600Y-160009211D01*
X73334917Y-160199077D01*
X73351076Y-160214901D01*
X73367071Y-160231008D01*
X73369777Y-160233214D01*
X73562944Y-160388525D01*
X73581856Y-160400901D01*
X73600689Y-160413604D01*
X73603767Y-160415239D01*
X73603771Y-160415242D01*
X73603775Y-160415244D01*
X73823426Y-160530074D01*
X73844414Y-160538554D01*
X73865322Y-160547343D01*
X73868658Y-160548349D01*
X73868665Y-160548352D01*
X73868672Y-160548353D01*
X74106440Y-160618333D01*
X74128649Y-160622570D01*
X74150894Y-160627136D01*
X74154368Y-160627476D01*
X74401208Y-160649940D01*
X74423827Y-160649782D01*
X74446523Y-160649941D01*
X74449998Y-160649600D01*
X74450000Y-160649600D01*
X74696501Y-160623692D01*
X74718703Y-160619134D01*
X74740955Y-160614890D01*
X74744289Y-160613882D01*
X74744296Y-160613881D01*
X74744302Y-160613878D01*
X74981073Y-160540585D01*
X75001929Y-160531818D01*
X75022968Y-160523318D01*
X75026047Y-160521680D01*
X75026052Y-160521678D01*
X75026056Y-160521675D01*
X75244081Y-160403790D01*
X75262861Y-160391123D01*
X75281826Y-160378713D01*
X75284524Y-160376512D01*
X75284531Y-160376507D01*
X75284537Y-160376501D01*
X75475511Y-160218513D01*
X75491471Y-160202441D01*
X75507666Y-160186582D01*
X75509886Y-160183898D01*
X75509892Y-160183892D01*
X75509896Y-160183885D01*
X75666546Y-159991815D01*
X75679082Y-159972947D01*
X75691887Y-159954246D01*
X75693544Y-159951179D01*
X75693547Y-159951175D01*
X75693549Y-159951171D01*
X75809910Y-159732327D01*
X75818540Y-159711389D01*
X75827471Y-159690553D01*
X75828503Y-159687218D01*
X75900143Y-159449937D01*
X75904544Y-159427711D01*
X75909255Y-159405546D01*
X75909620Y-159402074D01*
X75911686Y-159381000D01*
X80505773Y-159381000D01*
X80592547Y-159389508D01*
X80664257Y-159411159D01*
X80730391Y-159446323D01*
X80788436Y-159493663D01*
X80836187Y-159551384D01*
X80871811Y-159617269D01*
X80893963Y-159688829D01*
X80898167Y-159728833D01*
X80795000Y-159832000D01*
X80795000Y-162482000D01*
X80945000Y-162632000D01*
X81145000Y-162634903D01*
X81262621Y-162623318D01*
X81299888Y-162612013D01*
X81299888Y-162683000D01*
X81311527Y-162801169D01*
X81345995Y-162914796D01*
X81401969Y-163019516D01*
X81441759Y-163068000D01*
X81401969Y-163116484D01*
X81345995Y-163221204D01*
X81345754Y-163222000D01*
X81096043Y-163222000D01*
X80993153Y-163153252D01*
X80859391Y-163097846D01*
X80717391Y-163069600D01*
X80572609Y-163069600D01*
X80430609Y-163097846D01*
X80296847Y-163153252D01*
X80176465Y-163233688D01*
X80074088Y-163336065D01*
X79993652Y-163456447D01*
X79938246Y-163590209D01*
X79910000Y-163732209D01*
X79910000Y-163876991D01*
X79938246Y-164018991D01*
X79993652Y-164152753D01*
X80074088Y-164273135D01*
X80176465Y-164375512D01*
X80296847Y-164455948D01*
X80430609Y-164511354D01*
X80572609Y-164539600D01*
X80717391Y-164539600D01*
X80859391Y-164511354D01*
X80993153Y-164455948D01*
X81113535Y-164375512D01*
X81215912Y-164273135D01*
X81275470Y-164184000D01*
X81345754Y-164184000D01*
X81345995Y-164184796D01*
X81401969Y-164289516D01*
X81441759Y-164338000D01*
X81401969Y-164386484D01*
X81345995Y-164491204D01*
X81311527Y-164604831D01*
X81299888Y-164723000D01*
X81299888Y-165223000D01*
X81311527Y-165341169D01*
X81345995Y-165454796D01*
X81401969Y-165559516D01*
X81477297Y-165651303D01*
X81569084Y-165726631D01*
X81673804Y-165782605D01*
X81787431Y-165817073D01*
X81905600Y-165828712D01*
X82580833Y-165828712D01*
X82582189Y-165829825D01*
X82919901Y-166167538D01*
X82919902Y-167758056D01*
X82474594Y-168203365D01*
X82456236Y-168218431D01*
X82396128Y-168291673D01*
X82351464Y-168375235D01*
X82335944Y-168426397D01*
X82323960Y-168465903D01*
X82314673Y-168560195D01*
X82317000Y-168583822D01*
X82317001Y-169590288D01*
X81523000Y-169590288D01*
X81453604Y-169597123D01*
X81386875Y-169617365D01*
X81325377Y-169650236D01*
X81271474Y-169694474D01*
X81227236Y-169748377D01*
X81194365Y-169809875D01*
X81174123Y-169876604D01*
X81167288Y-169946000D01*
X81167288Y-172446000D01*
X81174123Y-172515396D01*
X81182739Y-172543800D01*
X81176626Y-172543800D01*
X81153000Y-172541473D01*
X81058707Y-172550760D01*
X81047552Y-172554144D01*
X80968039Y-172578264D01*
X80884478Y-172622928D01*
X80811236Y-172683036D01*
X80796175Y-172701388D01*
X80090164Y-173407400D01*
X78206247Y-173407400D01*
X78116335Y-173317488D01*
X77995953Y-173237052D01*
X77862191Y-173181646D01*
X77720191Y-173153400D01*
X77575409Y-173153400D01*
X77433409Y-173181646D01*
X77299647Y-173237052D01*
X77179265Y-173317488D01*
X77076888Y-173419865D01*
X76996452Y-173540247D01*
X76941046Y-173674009D01*
X76912800Y-173816009D01*
X76912800Y-173960791D01*
X76941046Y-174102791D01*
X76996452Y-174236553D01*
X77076888Y-174356935D01*
X77179265Y-174459312D01*
X77299647Y-174539748D01*
X77433409Y-174595154D01*
X77575409Y-174623400D01*
X77720191Y-174623400D01*
X77862191Y-174595154D01*
X77995953Y-174539748D01*
X78116335Y-174459312D01*
X78206247Y-174369400D01*
X80265774Y-174369400D01*
X80289400Y-174371727D01*
X80313026Y-174369400D01*
X80338643Y-174366877D01*
X80383692Y-174362440D01*
X80397834Y-174358150D01*
X80474361Y-174334936D01*
X80557922Y-174290272D01*
X80631164Y-174230164D01*
X80646230Y-174211806D01*
X81352237Y-173505800D01*
X82729574Y-173505800D01*
X82753200Y-173508127D01*
X82776826Y-173505800D01*
X82815764Y-173501965D01*
X82847492Y-173498840D01*
X82859185Y-173495293D01*
X82938161Y-173471336D01*
X83021722Y-173426672D01*
X83094964Y-173366564D01*
X83110030Y-173348206D01*
X83121406Y-173336830D01*
X83139764Y-173321764D01*
X83199872Y-173248522D01*
X83244536Y-173164961D01*
X83272040Y-173074292D01*
X83274279Y-173051560D01*
X83281327Y-172980000D01*
X83279000Y-172956374D01*
X83279000Y-172801712D01*
X84073000Y-172801712D01*
X84142396Y-172794877D01*
X84209125Y-172774635D01*
X84270623Y-172741764D01*
X84324526Y-172697526D01*
X84368764Y-172643623D01*
X84401635Y-172582125D01*
X84421877Y-172515396D01*
X84428712Y-172446000D01*
X84428712Y-170076124D01*
X84644063Y-170141143D01*
X84666289Y-170145544D01*
X84688454Y-170150255D01*
X84691926Y-170150620D01*
X84713000Y-170152686D01*
X84713001Y-172453763D01*
X84704492Y-172540547D01*
X84682842Y-172612255D01*
X84647677Y-172678391D01*
X84600332Y-172736441D01*
X84542616Y-172784187D01*
X84476731Y-172819811D01*
X84405170Y-172841963D01*
X84308739Y-172852099D01*
X84300908Y-172852044D01*
X84297433Y-172852385D01*
X84174182Y-172865340D01*
X84152009Y-172869891D01*
X84129731Y-172874141D01*
X84126389Y-172875150D01*
X84008001Y-172911797D01*
X83987150Y-172920562D01*
X83966104Y-172929065D01*
X83963022Y-172930705D01*
X83854007Y-172989649D01*
X83835227Y-173002316D01*
X83816262Y-173014726D01*
X83813564Y-173016927D01*
X83813557Y-173016932D01*
X83813551Y-173016938D01*
X83718067Y-173095928D01*
X83702123Y-173111984D01*
X83685912Y-173127859D01*
X83683687Y-173130549D01*
X83605359Y-173226588D01*
X83592823Y-173245456D01*
X83580018Y-173264157D01*
X83578358Y-173267228D01*
X83520176Y-173376652D01*
X83511547Y-173397588D01*
X83502615Y-173418427D01*
X83501583Y-173421762D01*
X83465763Y-173540403D01*
X83461358Y-173562650D01*
X83456651Y-173584795D01*
X83456286Y-173588267D01*
X83444193Y-173711605D01*
X83444193Y-173711623D01*
X83443001Y-173723725D01*
X83443001Y-174921398D01*
X83436368Y-174917171D01*
X83430373Y-174914833D01*
X83424844Y-174911553D01*
X83393959Y-174900630D01*
X83363442Y-174888727D01*
X83357114Y-174887599D01*
X83356193Y-174887273D01*
X83347663Y-174877608D01*
X83336656Y-174864451D01*
X83325034Y-174849826D01*
X83312822Y-174833683D01*
X83300089Y-174816033D01*
X83286920Y-174796926D01*
X83273290Y-174776255D01*
X83262442Y-174759078D01*
X83149060Y-174556944D01*
X83151318Y-174539176D01*
X83155803Y-174507457D01*
X83155980Y-174502517D01*
X83156605Y-174480785D01*
X83154434Y-174449375D01*
X83152817Y-174417983D01*
X83152049Y-174413100D01*
X83148544Y-174391811D01*
X83140463Y-174361547D01*
X83132948Y-174331172D01*
X83131266Y-174326523D01*
X83123787Y-174306301D01*
X83109947Y-174277794D01*
X83096624Y-174249159D01*
X83094083Y-174244920D01*
X83082787Y-174226379D01*
X83063299Y-174200471D01*
X83044159Y-174174369D01*
X83041280Y-174171199D01*
X83041256Y-174171167D01*
X83041229Y-174171143D01*
X83040836Y-174170710D01*
X83025884Y-174154479D01*
X83001086Y-174132347D01*
X82976536Y-174110094D01*
X82974409Y-174108538D01*
X82974339Y-174108475D01*
X82974259Y-174108428D01*
X82972547Y-174107175D01*
X82954094Y-174093871D01*
X82925336Y-174077140D01*
X82896770Y-174060235D01*
X82894452Y-174059172D01*
X82894376Y-174059128D01*
X82894294Y-174059100D01*
X82892277Y-174058175D01*
X82871509Y-174048834D01*
X82840117Y-174038259D01*
X82808918Y-174027458D01*
X82806120Y-174026806D01*
X82806035Y-174026778D01*
X82805949Y-174026767D01*
X82804103Y-174026337D01*
X82782518Y-174021474D01*
X82750511Y-174017489D01*
X82718626Y-174013092D01*
X82713979Y-174012942D01*
X82713959Y-174012939D01*
X82713941Y-174012940D01*
X82713685Y-174012932D01*
X82691911Y-174012380D01*
X82660538Y-174014655D01*
X82629124Y-174016381D01*
X82624244Y-174017166D01*
X82602910Y-174020753D01*
X82572797Y-174028903D01*
X82542540Y-174036478D01*
X82537896Y-174038172D01*
X82517625Y-174045733D01*
X82489312Y-174059576D01*
X82460832Y-174072891D01*
X82456597Y-174075440D01*
X82438018Y-174086806D01*
X82412294Y-174106230D01*
X82386361Y-174125277D01*
X82382895Y-174128430D01*
X82382882Y-174128440D01*
X82382873Y-174128450D01*
X82382705Y-174128603D01*
X82366443Y-174143607D01*
X82344391Y-174168354D01*
X82322246Y-174192788D01*
X82320539Y-174195120D01*
X82320479Y-174195188D01*
X82320435Y-174195264D01*
X82319327Y-174196777D01*
X82306012Y-174215249D01*
X82289276Y-174244019D01*
X82272367Y-174272602D01*
X82271318Y-174274892D01*
X82271273Y-174274969D01*
X82271244Y-174275052D01*
X82270308Y-174277096D01*
X82260979Y-174297846D01*
X82250385Y-174329313D01*
X82239559Y-174360664D01*
X82238960Y-174363245D01*
X82238934Y-174363323D01*
X82238924Y-174363403D01*
X82238442Y-174365479D01*
X82233609Y-174387013D01*
X82229628Y-174419198D01*
X82225266Y-174451248D01*
X82225134Y-174455538D01*
X82225129Y-174455579D01*
X82225132Y-174455615D01*
X82225114Y-174456189D01*
X82224602Y-174477891D01*
X82226950Y-174509489D01*
X82228772Y-174541039D01*
X82229570Y-174545917D01*
X82233205Y-174567171D01*
X82241475Y-174597391D01*
X82249166Y-174627679D01*
X82250876Y-174632317D01*
X82258483Y-174652505D01*
X82272401Y-174680732D01*
X82285829Y-174709204D01*
X82288393Y-174713430D01*
X82299801Y-174731938D01*
X82319225Y-174757483D01*
X82338250Y-174783249D01*
X82341585Y-174786897D01*
X82356618Y-174803108D01*
X82381188Y-174824891D01*
X82405479Y-174846861D01*
X82408257Y-174848889D01*
X82408315Y-174848941D01*
X82408378Y-174848978D01*
X82409471Y-174849776D01*
X82418615Y-174856354D01*
X82419134Y-174858908D01*
X82423668Y-174882261D01*
X82428003Y-174905780D01*
X82432110Y-174929406D01*
X82435975Y-174953167D01*
X82439530Y-174976758D01*
X82442760Y-175000192D01*
X82445623Y-175023275D01*
X82448106Y-175046011D01*
X82450170Y-175068165D01*
X82451796Y-175089633D01*
X82452968Y-175110250D01*
X82453591Y-175127452D01*
X82444955Y-175125420D01*
X82426492Y-175120696D01*
X82407143Y-175115377D01*
X82386934Y-175109467D01*
X82365956Y-175102986D01*
X82344445Y-175096014D01*
X82322264Y-175088510D01*
X82299505Y-175080511D01*
X82276364Y-175072092D01*
X82252716Y-175063219D01*
X82228738Y-175053969D01*
X82204550Y-175044398D01*
X82179945Y-175034438D01*
X82155175Y-175024201D01*
X82130235Y-175013700D01*
X82105306Y-175003024D01*
X82082814Y-174993244D01*
X82081168Y-174989475D01*
X82072227Y-174965710D01*
X82070013Y-174961291D01*
X82059822Y-174941305D01*
X82045782Y-174919367D01*
X82032829Y-174896795D01*
X82029934Y-174892788D01*
X82016537Y-174874517D01*
X81998740Y-174854648D01*
X81981872Y-174834028D01*
X81978360Y-174830549D01*
X81961826Y-174814406D01*
X81940706Y-174797477D01*
X81920350Y-174779687D01*
X81916309Y-174776841D01*
X81896710Y-174763244D01*
X81873590Y-174750348D01*
X81851097Y-174736414D01*
X81846646Y-174734264D01*
X81825243Y-174724111D01*
X81800698Y-174715285D01*
X81776600Y-174705289D01*
X81771861Y-174703882D01*
X81749719Y-174697479D01*
X81724484Y-174692789D01*
X81699552Y-174686840D01*
X81694651Y-174686201D01*
X81672175Y-174683433D01*
X81647013Y-174682809D01*
X81621923Y-174680847D01*
X81616981Y-174680979D01*
X81594577Y-174681734D01*
X81570011Y-174684981D01*
X81545302Y-174686863D01*
X81540439Y-174687751D01*
X81518512Y-174691916D01*
X81494891Y-174698848D01*
X81470946Y-174704430D01*
X81466275Y-174706049D01*
X81445232Y-174713510D01*
X81422874Y-174723994D01*
X81399978Y-174733206D01*
X81395610Y-174735520D01*
X81375856Y-174746164D01*
X81355114Y-174760111D01*
X81333659Y-174772906D01*
X81329701Y-174775867D01*
X81311641Y-174789580D01*
X81292973Y-174806873D01*
X81273442Y-174823174D01*
X81269999Y-174826721D01*
X81254040Y-174843391D01*
X81238077Y-174863714D01*
X81221145Y-174883203D01*
X81218310Y-174887253D01*
X81204857Y-174906765D01*
X81202321Y-174911343D01*
X81145000Y-174905697D01*
X80945000Y-174908600D01*
X80795000Y-175058600D01*
X80795000Y-177708600D01*
X80840146Y-177753746D01*
X80837677Y-177758391D01*
X80790332Y-177816441D01*
X80732616Y-177864187D01*
X80666731Y-177899811D01*
X80595170Y-177921963D01*
X80509190Y-177931000D01*
X75910391Y-177931000D01*
X75905689Y-177889085D01*
X75900975Y-177866906D01*
X75896577Y-177844695D01*
X75895545Y-177841360D01*
X75820600Y-177605102D01*
X75811674Y-177584276D01*
X75803039Y-177563326D01*
X75801379Y-177560256D01*
X75681971Y-177343053D01*
X75669172Y-177324361D01*
X75656631Y-177305485D01*
X75654405Y-177302795D01*
X75495083Y-177112923D01*
X75478908Y-177097083D01*
X75462929Y-177080992D01*
X75460224Y-177078786D01*
X75267056Y-176923475D01*
X75248128Y-176911089D01*
X75229311Y-176898396D01*
X75226233Y-176896761D01*
X75226229Y-176896758D01*
X75226225Y-176896756D01*
X75006573Y-176781926D01*
X74985624Y-176773462D01*
X74964679Y-176764657D01*
X74961336Y-176763649D01*
X74961334Y-176763648D01*
X74961330Y-176763647D01*
X74723560Y-176693667D01*
X74701345Y-176689429D01*
X74679106Y-176684864D01*
X74675634Y-176684524D01*
X74675632Y-176684524D01*
X74428792Y-176662060D01*
X74406173Y-176662218D01*
X74383477Y-176662059D01*
X74380003Y-176662400D01*
X74379999Y-176662400D01*
X74133499Y-176688308D01*
X74111290Y-176692867D01*
X74089046Y-176697110D01*
X74085714Y-176698117D01*
X74085704Y-176698119D01*
X74085695Y-176698123D01*
X73848927Y-176771415D01*
X73828085Y-176780176D01*
X73807031Y-176788682D01*
X73803953Y-176790320D01*
X73803948Y-176790322D01*
X73803944Y-176790325D01*
X73585919Y-176908210D01*
X73567155Y-176920866D01*
X73548174Y-176933287D01*
X73545476Y-176935488D01*
X73545469Y-176935493D01*
X73545463Y-176935499D01*
X73354489Y-177093487D01*
X73338512Y-177109576D01*
X73322334Y-177125418D01*
X73320114Y-177128102D01*
X73320108Y-177128108D01*
X73320104Y-177128115D01*
X73163454Y-177320186D01*
X73150923Y-177339046D01*
X73138113Y-177357755D01*
X73136456Y-177360821D01*
X73136453Y-177360825D01*
X73136453Y-177360826D01*
X73020090Y-177579674D01*
X73011471Y-177600586D01*
X73002529Y-177621447D01*
X73001497Y-177624782D01*
X72929857Y-177862063D01*
X72925458Y-177884280D01*
X72920745Y-177906454D01*
X72920380Y-177909926D01*
X72918314Y-177931000D01*
X70370226Y-177931000D01*
X70283453Y-177922492D01*
X70211745Y-177900842D01*
X70145609Y-177865677D01*
X70087559Y-177818332D01*
X70039813Y-177760616D01*
X70004189Y-177694731D01*
X69982037Y-177623170D01*
X69971901Y-177526739D01*
X69971956Y-177518908D01*
X69971615Y-177515433D01*
X69958660Y-177392182D01*
X69954109Y-177370009D01*
X69949859Y-177347731D01*
X69948850Y-177344389D01*
X69912203Y-177226001D01*
X69903432Y-177205136D01*
X69894935Y-177184104D01*
X69893295Y-177181022D01*
X69879475Y-177155462D01*
X69890186Y-177155462D01*
X69890186Y-175848001D01*
X70587965Y-175848001D01*
X70823088Y-176083124D01*
X70823088Y-177008600D01*
X70834727Y-177126769D01*
X70869195Y-177240396D01*
X70925169Y-177345116D01*
X71000497Y-177436903D01*
X71092284Y-177512231D01*
X71197004Y-177568205D01*
X71310631Y-177602673D01*
X71428800Y-177614312D01*
X71928800Y-177614312D01*
X72046969Y-177602673D01*
X72160596Y-177568205D01*
X72265316Y-177512231D01*
X72357103Y-177436903D01*
X72432431Y-177345116D01*
X72488405Y-177240396D01*
X72488415Y-177240362D01*
X72504300Y-177241927D01*
X72527926Y-177239600D01*
X72529216Y-177239473D01*
X72598592Y-177232640D01*
X72606810Y-177230147D01*
X72689261Y-177205136D01*
X72772822Y-177160472D01*
X72846064Y-177100364D01*
X72861130Y-177082006D01*
X73351237Y-176591900D01*
X75264164Y-176591900D01*
X75754274Y-177082011D01*
X75769336Y-177100364D01*
X75842578Y-177160472D01*
X75926139Y-177205136D01*
X75986315Y-177223390D01*
X76016807Y-177232640D01*
X76023234Y-177233273D01*
X76025395Y-177240396D01*
X76081369Y-177345116D01*
X76156697Y-177436903D01*
X76248484Y-177512231D01*
X76353204Y-177568205D01*
X76466831Y-177602673D01*
X76585000Y-177614312D01*
X77085000Y-177614312D01*
X77203169Y-177602673D01*
X77316796Y-177568205D01*
X77421516Y-177512231D01*
X77470000Y-177472441D01*
X77518484Y-177512231D01*
X77623204Y-177568205D01*
X77736831Y-177602673D01*
X77855000Y-177614312D01*
X78355000Y-177614312D01*
X78473169Y-177602673D01*
X78586796Y-177568205D01*
X78691516Y-177512231D01*
X78740000Y-177472441D01*
X78788484Y-177512231D01*
X78893204Y-177568205D01*
X79006831Y-177602673D01*
X79125000Y-177614312D01*
X79625000Y-177614312D01*
X79658066Y-177611055D01*
X79718683Y-177684917D01*
X79810045Y-177759896D01*
X79914279Y-177815610D01*
X80027379Y-177849918D01*
X80145000Y-177861503D01*
X80345000Y-177858600D01*
X80495000Y-177708600D01*
X80495000Y-175058600D01*
X80345000Y-174908600D01*
X80145000Y-174905697D01*
X80027379Y-174917282D01*
X79914279Y-174951590D01*
X79810045Y-175007304D01*
X79718683Y-175082283D01*
X79658066Y-175156145D01*
X79625000Y-175152888D01*
X79125000Y-175152888D01*
X79006831Y-175164527D01*
X78893204Y-175198995D01*
X78788484Y-175254969D01*
X78740000Y-175294759D01*
X78691516Y-175254969D01*
X78586796Y-175198995D01*
X78473169Y-175164527D01*
X78355000Y-175152888D01*
X77855000Y-175152888D01*
X77736831Y-175164527D01*
X77623204Y-175198995D01*
X77518484Y-175254969D01*
X77470000Y-175294759D01*
X77421516Y-175254969D01*
X77316796Y-175198995D01*
X77203169Y-175164527D01*
X77085000Y-175152888D01*
X76585000Y-175152888D01*
X76466831Y-175164527D01*
X76353204Y-175198995D01*
X76248484Y-175254969D01*
X76156697Y-175330297D01*
X76081369Y-175422084D01*
X76025395Y-175526804D01*
X75990927Y-175640431D01*
X75979288Y-175758600D01*
X75979288Y-175946552D01*
X75820230Y-175787494D01*
X75805164Y-175769136D01*
X75731922Y-175709028D01*
X75648361Y-175664364D01*
X75557692Y-175636860D01*
X75531314Y-175634262D01*
X75463400Y-175627573D01*
X75439774Y-175629900D01*
X73175626Y-175629900D01*
X73151999Y-175627573D01*
X73057707Y-175636860D01*
X73031138Y-175644920D01*
X72967039Y-175664364D01*
X72883478Y-175709028D01*
X72810236Y-175769136D01*
X72795174Y-175787489D01*
X72534512Y-176048151D01*
X72534512Y-176008600D01*
X72522873Y-175890431D01*
X72488405Y-175776804D01*
X72432431Y-175672084D01*
X72357103Y-175580297D01*
X72265316Y-175504969D01*
X72160596Y-175448995D01*
X72046969Y-175414527D01*
X71928800Y-175402888D01*
X71503324Y-175402888D01*
X71144031Y-175043595D01*
X71128965Y-175025237D01*
X71055723Y-174965129D01*
X70978712Y-174923966D01*
X70978712Y-172486000D01*
X70971877Y-172416604D01*
X70951635Y-172349875D01*
X70918764Y-172288377D01*
X70874526Y-172234474D01*
X70820623Y-172190236D01*
X70759125Y-172157365D01*
X70692396Y-172137123D01*
X70623000Y-172130288D01*
X69073700Y-172130288D01*
X69073700Y-171517112D01*
X69319700Y-171517112D01*
X69389096Y-171510277D01*
X69455825Y-171490035D01*
X69517323Y-171457164D01*
X69571226Y-171412926D01*
X69615464Y-171359023D01*
X69648335Y-171297525D01*
X69668577Y-171230796D01*
X69675412Y-171161400D01*
X69675412Y-170261400D01*
X69668577Y-170192004D01*
X69648335Y-170125275D01*
X69615464Y-170063777D01*
X69571226Y-170009874D01*
X69517323Y-169965636D01*
X69455825Y-169932765D01*
X69389096Y-169912523D01*
X69319700Y-169905688D01*
X68393646Y-169905688D01*
X69043106Y-169256228D01*
X69061464Y-169241162D01*
X69121572Y-169167920D01*
X69148592Y-169117369D01*
X69166236Y-169084360D01*
X69193740Y-168993691D01*
X69195013Y-168980769D01*
X69200269Y-169007194D01*
X69291029Y-169226308D01*
X69422792Y-169423505D01*
X69590495Y-169591208D01*
X69787692Y-169722971D01*
X70006806Y-169813731D01*
X70239416Y-169860000D01*
X70476584Y-169860000D01*
X70702500Y-169815063D01*
X70702499Y-171390814D01*
X70700172Y-171414441D01*
X70709459Y-171508733D01*
X70712001Y-171517112D01*
X70736963Y-171599401D01*
X70781627Y-171682963D01*
X70841735Y-171756205D01*
X70860092Y-171771271D01*
X71255933Y-172167112D01*
X71270995Y-172185465D01*
X71344237Y-172245573D01*
X71427798Y-172290237D01*
X71518467Y-172317741D01*
X71589133Y-172324701D01*
X71589134Y-172324701D01*
X71612758Y-172327028D01*
X71636382Y-172324701D01*
X71687347Y-172324701D01*
X71457904Y-172554144D01*
X71255006Y-172857802D01*
X71115248Y-173195208D01*
X71044000Y-173553397D01*
X71044000Y-173918603D01*
X71115248Y-174276792D01*
X71255006Y-174614198D01*
X71457904Y-174917856D01*
X71716144Y-175176096D01*
X72019802Y-175378994D01*
X72357208Y-175518752D01*
X72715397Y-175590000D01*
X73080603Y-175590000D01*
X73438792Y-175518752D01*
X73776198Y-175378994D01*
X74079856Y-175176096D01*
X74338096Y-174917856D01*
X74540994Y-174614198D01*
X74680752Y-174276792D01*
X74708906Y-174135253D01*
X74778965Y-174205312D01*
X74899347Y-174285748D01*
X75033109Y-174341154D01*
X75175109Y-174369400D01*
X75319891Y-174369400D01*
X75461891Y-174341154D01*
X75595653Y-174285748D01*
X75716035Y-174205312D01*
X75818412Y-174102935D01*
X75898848Y-173982553D01*
X75954254Y-173848791D01*
X75982500Y-173706791D01*
X75982500Y-173562009D01*
X75954254Y-173420009D01*
X75898848Y-173286247D01*
X75818412Y-173165865D01*
X75716035Y-173063488D01*
X75703116Y-173054856D01*
X75694036Y-173024924D01*
X75649372Y-172941363D01*
X75589264Y-172868121D01*
X75570912Y-172853060D01*
X74274444Y-171556593D01*
X74259378Y-171538235D01*
X74186136Y-171478127D01*
X74169184Y-171469066D01*
X74131512Y-171431394D01*
X74116446Y-171413036D01*
X74043204Y-171352928D01*
X73959643Y-171308264D01*
X73868974Y-171280760D01*
X73798308Y-171273800D01*
X73774682Y-171271473D01*
X73751056Y-171273800D01*
X72517768Y-171273800D01*
X72494142Y-171271473D01*
X72470516Y-171273800D01*
X72399850Y-171280760D01*
X72309181Y-171308264D01*
X72225620Y-171352928D01*
X72213712Y-171362701D01*
X71811996Y-171362701D01*
X71664499Y-171215205D01*
X71664499Y-169851619D01*
X72256206Y-169259912D01*
X72274564Y-169244846D01*
X72334672Y-169171604D01*
X72358596Y-169126845D01*
X72379336Y-169088044D01*
X72406840Y-168997375D01*
X72416127Y-168903082D01*
X72413800Y-168879456D01*
X72413800Y-167733712D01*
X72447400Y-167733712D01*
X72516796Y-167726877D01*
X72583525Y-167706635D01*
X72587399Y-167704564D01*
X72591275Y-167706636D01*
X72658004Y-167726878D01*
X72727400Y-167733713D01*
X73227400Y-167733713D01*
X73251849Y-167731305D01*
X73276409Y-167731305D01*
X73284110Y-167730546D01*
X73183992Y-167972254D01*
X73093910Y-168425127D01*
X73093910Y-168886873D01*
X73183992Y-169339746D01*
X73360694Y-169766343D01*
X73617226Y-170150270D01*
X73943730Y-170476774D01*
X74327657Y-170733306D01*
X74754254Y-170910008D01*
X75207127Y-171000090D01*
X75668873Y-171000090D01*
X76121746Y-170910008D01*
X76548343Y-170733306D01*
X76932270Y-170476774D01*
X77258774Y-170150270D01*
X77515306Y-169766343D01*
X77692008Y-169339746D01*
X77782090Y-168886873D01*
X77782090Y-168425127D01*
X77692008Y-167972254D01*
X77591269Y-167729047D01*
X77614191Y-167731305D01*
X77638751Y-167731305D01*
X77663200Y-167733713D01*
X78163200Y-167733713D01*
X78232596Y-167726878D01*
X78299325Y-167706636D01*
X78303201Y-167704564D01*
X78307075Y-167706635D01*
X78373804Y-167726877D01*
X78411400Y-167730580D01*
X78411400Y-167839391D01*
X78439646Y-167981391D01*
X78495052Y-168115153D01*
X78575488Y-168235535D01*
X78677865Y-168337912D01*
X78798247Y-168418348D01*
X78932009Y-168473754D01*
X79074009Y-168502000D01*
X79218791Y-168502000D01*
X79346489Y-168476599D01*
X79334000Y-168539386D01*
X79334000Y-168772614D01*
X79379500Y-169001360D01*
X79468753Y-169216834D01*
X79571053Y-169369937D01*
X79430603Y-169342000D01*
X79065397Y-169342000D01*
X78707208Y-169413248D01*
X78369802Y-169553006D01*
X78066144Y-169755904D01*
X77807904Y-170014144D01*
X77605006Y-170317802D01*
X77465248Y-170655208D01*
X77394000Y-171013397D01*
X77394000Y-171378603D01*
X77465248Y-171736792D01*
X77605006Y-172074198D01*
X77807904Y-172377856D01*
X78066144Y-172636096D01*
X78369802Y-172838994D01*
X78707208Y-172978752D01*
X79065397Y-173050000D01*
X79430603Y-173050000D01*
X79788792Y-172978752D01*
X80126198Y-172838994D01*
X80429856Y-172636096D01*
X80688096Y-172377856D01*
X80890994Y-172074198D01*
X81030752Y-171736792D01*
X81102000Y-171378603D01*
X81102000Y-171013397D01*
X81030752Y-170655208D01*
X80890994Y-170317802D01*
X80688096Y-170014144D01*
X80513952Y-169840000D01*
X80634614Y-169840000D01*
X80863360Y-169794500D01*
X81078834Y-169705247D01*
X81272756Y-169575673D01*
X81437673Y-169410756D01*
X81567247Y-169216834D01*
X81656500Y-169001360D01*
X81702000Y-168772614D01*
X81702000Y-168539386D01*
X81656500Y-168310640D01*
X81567247Y-168095166D01*
X81437673Y-167901244D01*
X81272756Y-167736327D01*
X81078834Y-167606753D01*
X80863360Y-167517500D01*
X80802551Y-167505405D01*
X80861232Y-167446724D01*
X80905469Y-167392821D01*
X80959925Y-167311322D01*
X80992798Y-167249822D01*
X81030307Y-167159266D01*
X81050548Y-167092538D01*
X81069670Y-166996405D01*
X81076505Y-166927009D01*
X81076505Y-166828991D01*
X81069670Y-166759595D01*
X81050548Y-166663462D01*
X81030307Y-166596734D01*
X80992798Y-166506178D01*
X80959925Y-166444678D01*
X80905469Y-166363179D01*
X80861232Y-166309276D01*
X80791924Y-166239968D01*
X80738021Y-166195731D01*
X80656522Y-166141275D01*
X80634484Y-166129495D01*
X80625072Y-166111886D01*
X80564964Y-166038644D01*
X80546611Y-166023583D01*
X79718721Y-165195693D01*
X79703655Y-165177335D01*
X79630413Y-165117227D01*
X79546852Y-165072563D01*
X79456183Y-165045059D01*
X79405791Y-165040096D01*
X79445010Y-164966721D01*
X79479318Y-164853621D01*
X79490903Y-164736000D01*
X79488000Y-164626000D01*
X79338000Y-164476000D01*
X78138000Y-164476000D01*
X78138000Y-164496000D01*
X77838000Y-164496000D01*
X77838000Y-164476000D01*
X77439000Y-164476000D01*
X77439000Y-164176000D01*
X77838000Y-164176000D01*
X77838000Y-164156000D01*
X78138000Y-164156000D01*
X78138000Y-164176000D01*
X79338000Y-164176000D01*
X79488000Y-164026000D01*
X79490903Y-163916000D01*
X79479318Y-163798379D01*
X79445010Y-163685279D01*
X79389296Y-163581045D01*
X79356163Y-163540673D01*
X79475235Y-163461112D01*
X79577612Y-163358735D01*
X79658048Y-163238353D01*
X79713454Y-163104591D01*
X79741700Y-162962591D01*
X79741700Y-162817809D01*
X79713454Y-162675809D01*
X79658048Y-162542047D01*
X79577612Y-162421665D01*
X79543659Y-162387712D01*
X79625000Y-162387712D01*
X79658066Y-162384455D01*
X79718683Y-162458317D01*
X79810045Y-162533296D01*
X79914279Y-162589010D01*
X80027379Y-162623318D01*
X80145000Y-162634903D01*
X80345000Y-162632000D01*
X80495000Y-162482000D01*
X80495000Y-159832000D01*
X80345000Y-159682000D01*
X80145000Y-159679097D01*
X80027379Y-159690682D01*
X79914279Y-159724990D01*
X79810045Y-159780704D01*
X79718683Y-159855683D01*
X79658066Y-159929545D01*
X79625000Y-159926288D01*
X79125000Y-159926288D01*
X79006831Y-159937927D01*
X78893204Y-159972395D01*
X78788484Y-160028369D01*
X78740000Y-160068159D01*
X78691516Y-160028369D01*
X78586796Y-159972395D01*
X78473169Y-159937927D01*
X78355000Y-159926288D01*
X77855000Y-159926288D01*
X77736831Y-159937927D01*
X77623204Y-159972395D01*
X77518484Y-160028369D01*
X77470000Y-160068159D01*
X77421516Y-160028369D01*
X77316796Y-159972395D01*
X77203169Y-159937927D01*
X77085000Y-159926288D01*
X76585000Y-159926288D01*
X76466831Y-159937927D01*
X76353204Y-159972395D01*
X76248484Y-160028369D01*
X76156697Y-160103697D01*
X76081369Y-160195484D01*
X76025395Y-160300204D01*
X75990927Y-160413831D01*
X75979288Y-160532000D01*
X75979288Y-161153490D01*
X72534512Y-161153490D01*
X72534512Y-160532000D01*
X72522873Y-160413831D01*
X72488405Y-160300204D01*
X72432431Y-160195484D01*
X72357103Y-160103697D01*
X72265316Y-160028369D01*
X72160596Y-159972395D01*
X72046969Y-159937927D01*
X71928800Y-159926288D01*
X71428800Y-159926288D01*
X71310631Y-159937927D01*
X71197004Y-159972395D01*
X71092284Y-160028369D01*
X71000497Y-160103697D01*
X70925169Y-160195484D01*
X70869195Y-160300204D01*
X70834727Y-160413831D01*
X70823088Y-160532000D01*
X70823088Y-161457476D01*
X70504493Y-161776071D01*
X70486135Y-161791137D01*
X70426027Y-161864379D01*
X70381363Y-161947941D01*
X70362203Y-162011105D01*
X70353859Y-162038609D01*
X70344572Y-162132901D01*
X70346899Y-162156527D01*
X70346900Y-164794468D01*
X70085384Y-165055984D01*
X70067026Y-165071050D01*
X70006918Y-165144292D01*
X69962254Y-165227854D01*
X69943997Y-165288039D01*
X69934750Y-165318522D01*
X69925463Y-165412814D01*
X69927790Y-165436440D01*
X69927790Y-165662774D01*
X69435392Y-166155172D01*
X69417034Y-166170238D01*
X69356926Y-166243480D01*
X69312262Y-166327042D01*
X69301403Y-166362840D01*
X69284758Y-166417710D01*
X69275471Y-166512002D01*
X69277798Y-166535629D01*
X69277798Y-166605688D01*
X68119700Y-166605688D01*
X68050304Y-166612523D01*
X67983575Y-166632765D01*
X67922077Y-166665636D01*
X67868174Y-166709874D01*
X67823936Y-166763777D01*
X67791065Y-166825275D01*
X67770823Y-166892004D01*
X67763988Y-166961400D01*
X67763988Y-167861400D01*
X67770823Y-167930796D01*
X67791065Y-167997525D01*
X67823936Y-168059023D01*
X67868174Y-168112926D01*
X67922077Y-168157164D01*
X67983575Y-168190035D01*
X68050304Y-168210277D01*
X68119700Y-168217112D01*
X68238701Y-168217112D01*
X68238701Y-168700161D01*
X67300993Y-169637869D01*
X67282635Y-169652935D01*
X67222527Y-169726177D01*
X67177863Y-169809739D01*
X67159443Y-169870462D01*
X67150359Y-169900407D01*
X67141072Y-169994699D01*
X67143399Y-170018325D01*
X67143400Y-173083489D01*
X67057412Y-173013359D01*
X67038544Y-173000823D01*
X67019843Y-172988018D01*
X67016772Y-172986358D01*
X66907348Y-172928176D01*
X66886412Y-172919547D01*
X66865573Y-172910615D01*
X66862238Y-172909583D01*
X66743597Y-172873763D01*
X66721350Y-172869358D01*
X66699205Y-172864651D01*
X66695737Y-172864286D01*
X66695733Y-172864286D01*
X66572395Y-172852193D01*
X66572394Y-172852193D01*
X66473453Y-172842492D01*
X66401745Y-172820842D01*
X66335609Y-172785677D01*
X66277559Y-172738332D01*
X66229813Y-172680616D01*
X66194189Y-172614731D01*
X66172037Y-172543170D01*
X66163000Y-172457190D01*
X66163000Y-170151391D01*
X66204916Y-170146689D01*
X66227102Y-170141973D01*
X66249305Y-170137577D01*
X66252638Y-170136546D01*
X66252644Y-170136544D01*
X66488898Y-170061600D01*
X66509724Y-170052674D01*
X66530674Y-170044039D01*
X66533745Y-170042379D01*
X66750947Y-169922970D01*
X66769655Y-169910161D01*
X66788515Y-169897630D01*
X66791200Y-169895409D01*
X66791206Y-169895405D01*
X66791211Y-169895400D01*
X66981077Y-169736083D01*
X66996901Y-169719924D01*
X67013008Y-169703929D01*
X67015214Y-169701223D01*
X67170525Y-169508056D01*
X67182901Y-169489144D01*
X67195604Y-169470311D01*
X67197239Y-169467233D01*
X67197242Y-169467229D01*
X67197244Y-169467225D01*
X67312074Y-169247574D01*
X67320554Y-169226586D01*
X67329343Y-169205678D01*
X67330349Y-169202342D01*
X67330352Y-169202335D01*
X67330353Y-169202328D01*
X67400333Y-168964560D01*
X67404570Y-168942351D01*
X67409136Y-168920106D01*
X67409476Y-168916632D01*
X67431940Y-168669792D01*
X67431782Y-168647173D01*
X67431941Y-168624477D01*
X67431600Y-168621003D01*
X67405692Y-168374499D01*
X67401133Y-168352290D01*
X67396890Y-168330046D01*
X67395883Y-168326714D01*
X67395881Y-168326704D01*
X67395877Y-168326695D01*
X67322585Y-168089927D01*
X67313824Y-168069085D01*
X67305318Y-168048031D01*
X67303678Y-168044949D01*
X67303678Y-168044948D01*
X67303675Y-168044944D01*
X67185790Y-167826919D01*
X67173134Y-167808155D01*
X67160713Y-167789174D01*
X67158512Y-167786476D01*
X67158507Y-167786469D01*
X67158501Y-167786463D01*
X67000513Y-167595489D01*
X66984424Y-167579512D01*
X66968582Y-167563334D01*
X66965898Y-167561114D01*
X66965892Y-167561108D01*
X66965885Y-167561104D01*
X66773814Y-167404454D01*
X66754954Y-167391923D01*
X66736245Y-167379113D01*
X66733179Y-167377456D01*
X66733175Y-167377453D01*
X66733171Y-167377451D01*
X66514326Y-167261090D01*
X66493414Y-167252471D01*
X66472553Y-167243529D01*
X66469218Y-167242497D01*
X66231937Y-167170857D01*
X66209711Y-167166456D01*
X66187546Y-167161745D01*
X66184074Y-167161380D01*
X66163000Y-167159314D01*
X66163000Y-164858227D01*
X66171508Y-164771453D01*
X66193159Y-164699743D01*
X66228323Y-164633609D01*
X66275663Y-164575564D01*
X66333384Y-164527813D01*
X66399269Y-164492189D01*
X66470829Y-164470037D01*
X66567261Y-164459901D01*
X66575092Y-164459956D01*
X66578567Y-164459615D01*
X66701818Y-164446660D01*
X66723991Y-164442109D01*
X66746269Y-164437859D01*
X66749611Y-164436850D01*
X66867998Y-164400203D01*
X66888877Y-164391427D01*
X66909895Y-164382935D01*
X66912969Y-164381300D01*
X66912978Y-164381296D01*
X66912985Y-164381291D01*
X67021993Y-164322351D01*
X67040773Y-164309684D01*
X67059738Y-164297274D01*
X67062443Y-164295068D01*
X67153897Y-164219411D01*
X67191369Y-164289516D01*
X67231159Y-164338000D01*
X67191369Y-164386484D01*
X67135395Y-164491204D01*
X67100927Y-164604831D01*
X67089288Y-164723000D01*
X67089288Y-165223000D01*
X67100927Y-165341169D01*
X67135395Y-165454796D01*
X67191369Y-165559516D01*
X67266697Y-165651303D01*
X67358484Y-165726631D01*
X67463204Y-165782605D01*
X67576831Y-165817073D01*
X67695000Y-165828712D01*
X68945000Y-165828712D01*
X69063169Y-165817073D01*
X69176796Y-165782605D01*
X69281516Y-165726631D01*
X69373303Y-165651303D01*
X69448631Y-165559516D01*
X69504605Y-165454796D01*
X69539073Y-165341169D01*
X69550712Y-165223000D01*
X69550712Y-164723000D01*
X69539073Y-164604831D01*
X69504605Y-164491204D01*
X69448631Y-164386484D01*
X69408841Y-164338000D01*
X69448631Y-164289516D01*
X69504605Y-164184796D01*
X69539073Y-164071169D01*
X69550712Y-163953000D01*
X69550712Y-163453000D01*
X69539073Y-163334831D01*
X69504605Y-163221204D01*
X69448631Y-163116484D01*
X69408841Y-163068000D01*
X69448631Y-163019516D01*
X69504605Y-162914796D01*
X69539073Y-162801169D01*
X69550712Y-162683000D01*
X69550712Y-162183000D01*
X69547455Y-162149934D01*
X69621317Y-162089317D01*
X69696296Y-161997955D01*
X69752010Y-161893721D01*
X69786318Y-161780621D01*
X69797903Y-161663000D01*
X69795000Y-161463000D01*
X69645000Y-161313000D01*
X67433000Y-161313000D01*
X67433000Y-161048227D01*
X67436454Y-161013000D01*
X69645000Y-161013000D01*
X69795000Y-160863000D01*
X69797903Y-160663000D01*
X69786318Y-160545379D01*
X69752010Y-160432279D01*
X69724080Y-160380025D01*
X69730088Y-160374141D01*
X69732313Y-160371451D01*
X69810640Y-160275412D01*
X69823169Y-160256555D01*
X69835982Y-160237843D01*
X69837639Y-160234777D01*
X69837642Y-160234773D01*
X69837644Y-160234769D01*
X69895823Y-160125349D01*
X69904440Y-160104444D01*
X69913385Y-160083573D01*
X69914417Y-160080238D01*
X69950237Y-159961598D01*
X69954641Y-159939357D01*
X69959349Y-159917206D01*
X69959714Y-159913734D01*
X69971807Y-159790395D01*
X69981508Y-159691453D01*
X70003159Y-159619743D01*
X70038323Y-159553609D01*
X70085663Y-159495564D01*
X70143384Y-159447813D01*
X70209269Y-159412189D01*
X70280829Y-159390037D01*
X70366810Y-159381000D01*
X72919609Y-159381000D01*
X72924311Y-159422916D01*
G36*
X83719859Y-164218088D02*
G01*
X83722549Y-164220313D01*
X83818588Y-164298640D01*
X83837445Y-164311169D01*
X83856157Y-164323982D01*
X83859223Y-164325639D01*
X83859227Y-164325642D01*
X83859231Y-164325644D01*
X83968651Y-164383823D01*
X83989556Y-164392440D01*
X84010427Y-164401385D01*
X84013762Y-164402417D01*
X84132402Y-164438237D01*
X84154643Y-164442641D01*
X84176794Y-164447349D01*
X84180264Y-164447714D01*
X84180266Y-164447714D01*
X84303605Y-164459807D01*
X84402547Y-164469508D01*
X84474257Y-164491159D01*
X84540391Y-164526323D01*
X84598436Y-164573663D01*
X84646187Y-164631384D01*
X84681811Y-164697269D01*
X84703963Y-164768829D01*
X84713001Y-164854819D01*
X84713000Y-167160609D01*
X84671085Y-167165311D01*
X84648906Y-167170025D01*
X84626695Y-167174423D01*
X84623362Y-167175454D01*
X84623356Y-167175456D01*
X84387102Y-167250400D01*
X84366276Y-167259326D01*
X84345326Y-167267961D01*
X84342256Y-167269621D01*
X84125053Y-167389029D01*
X84106361Y-167401828D01*
X84087485Y-167414369D01*
X84084795Y-167416595D01*
X83894923Y-167575917D01*
X83881901Y-167589214D01*
X83881901Y-165991924D01*
X83884228Y-165968300D01*
X83879425Y-165919536D01*
X83874941Y-165874009D01*
X83847437Y-165783340D01*
X83802773Y-165699779D01*
X83742665Y-165626537D01*
X83724312Y-165611475D01*
X83663802Y-165550965D01*
X83715205Y-165454796D01*
X83749673Y-165341169D01*
X83761312Y-165223000D01*
X83761312Y-164723000D01*
X83749673Y-164604831D01*
X83715205Y-164491204D01*
X83659231Y-164386484D01*
X83619441Y-164338000D01*
X83659231Y-164289516D01*
X83705337Y-164203258D01*
X83719859Y-164218088D01*
G37*
X83719859Y-164218088D02*
X83722549Y-164220313D01*
X83818588Y-164298640D01*
X83837445Y-164311169D01*
X83856157Y-164323982D01*
X83859223Y-164325639D01*
X83859227Y-164325642D01*
X83859231Y-164325644D01*
X83968651Y-164383823D01*
X83989556Y-164392440D01*
X84010427Y-164401385D01*
X84013762Y-164402417D01*
X84132402Y-164438237D01*
X84154643Y-164442641D01*
X84176794Y-164447349D01*
X84180264Y-164447714D01*
X84180266Y-164447714D01*
X84303605Y-164459807D01*
X84402547Y-164469508D01*
X84474257Y-164491159D01*
X84540391Y-164526323D01*
X84598436Y-164573663D01*
X84646187Y-164631384D01*
X84681811Y-164697269D01*
X84703963Y-164768829D01*
X84713001Y-164854819D01*
X84713000Y-167160609D01*
X84671085Y-167165311D01*
X84648906Y-167170025D01*
X84626695Y-167174423D01*
X84623362Y-167175454D01*
X84623356Y-167175456D01*
X84387102Y-167250400D01*
X84366276Y-167259326D01*
X84345326Y-167267961D01*
X84342256Y-167269621D01*
X84125053Y-167389029D01*
X84106361Y-167401828D01*
X84087485Y-167414369D01*
X84084795Y-167416595D01*
X83894923Y-167575917D01*
X83881901Y-167589214D01*
X83881901Y-165991924D01*
X83884228Y-165968300D01*
X83879425Y-165919536D01*
X83874941Y-165874009D01*
X83847437Y-165783340D01*
X83802773Y-165699779D01*
X83742665Y-165626537D01*
X83724312Y-165611475D01*
X83663802Y-165550965D01*
X83715205Y-165454796D01*
X83749673Y-165341169D01*
X83761312Y-165223000D01*
X83761312Y-164723000D01*
X83749673Y-164604831D01*
X83715205Y-164491204D01*
X83659231Y-164386484D01*
X83619441Y-164338000D01*
X83659231Y-164289516D01*
X83705337Y-164203258D01*
X83719859Y-164218088D01*
G36*
X83443000Y-161044810D02*
G01*
X83443000Y-161313000D01*
X82360600Y-161313000D01*
X82360600Y-161013000D01*
X83439656Y-161013000D01*
X83443000Y-161044810D01*
G37*
X83443000Y-161044810D02*
X83443000Y-161313000D01*
X82360600Y-161313000D01*
X82360600Y-161013000D01*
X83439656Y-161013000D01*
X83443000Y-161044810D01*
M02*
