G04 (created by PCBNEW (2013-jul-07)-stable) date Wed 26 Aug 2015 08:58:33 PM EDT*
%MOIN*%
G04 Gerber Fmt 3.4, Leading zero omitted, Abs format*
%FSLAX34Y34*%
G01*
G70*
G90*
G04 APERTURE LIST*
%ADD10C,0.00590551*%
%ADD11C,0.00393701*%
%ADD12C,0.011811*%
%ADD13C,0.0079*%
%ADD14C,0.015*%
%ADD15C,0.01*%
G04 APERTURE END LIST*
G54D10*
G54D11*
X108052Y-47847D02*
X108037Y-47832D01*
X108022Y-47787D01*
X108022Y-47757D01*
X108037Y-47712D01*
X108067Y-47682D01*
X108097Y-47667D01*
X108157Y-47652D01*
X108202Y-47652D01*
X108262Y-47667D01*
X108292Y-47682D01*
X108322Y-47712D01*
X108337Y-47757D01*
X108337Y-47787D01*
X108322Y-47832D01*
X108307Y-47847D01*
X108037Y-48102D02*
X108022Y-48072D01*
X108022Y-48012D01*
X108037Y-47982D01*
X108067Y-47967D01*
X108187Y-47967D01*
X108217Y-47982D01*
X108232Y-48012D01*
X108232Y-48072D01*
X108217Y-48102D01*
X108187Y-48117D01*
X108157Y-48117D01*
X108127Y-47967D01*
X108232Y-48252D02*
X108022Y-48252D01*
X108202Y-48252D02*
X108217Y-48267D01*
X108232Y-48297D01*
X108232Y-48342D01*
X108217Y-48372D01*
X108187Y-48387D01*
X108022Y-48387D01*
X108232Y-48492D02*
X108232Y-48612D01*
X108337Y-48537D02*
X108067Y-48537D01*
X108037Y-48552D01*
X108022Y-48582D01*
X108022Y-48612D01*
X108037Y-48837D02*
X108022Y-48807D01*
X108022Y-48747D01*
X108037Y-48717D01*
X108067Y-48702D01*
X108187Y-48702D01*
X108217Y-48717D01*
X108232Y-48747D01*
X108232Y-48807D01*
X108217Y-48837D01*
X108187Y-48852D01*
X108157Y-48852D01*
X108127Y-48702D01*
X108022Y-48987D02*
X108232Y-48987D01*
X108172Y-48987D02*
X108202Y-49002D01*
X108217Y-49017D01*
X108232Y-49047D01*
X108232Y-49077D01*
X107022Y-47832D02*
X107022Y-47682D01*
X107337Y-47682D01*
X107037Y-48057D02*
X107022Y-48027D01*
X107022Y-47967D01*
X107037Y-47937D01*
X107067Y-47922D01*
X107187Y-47922D01*
X107217Y-47937D01*
X107232Y-47967D01*
X107232Y-48027D01*
X107217Y-48057D01*
X107187Y-48072D01*
X107157Y-48072D01*
X107127Y-47922D01*
X107232Y-48162D02*
X107232Y-48282D01*
X107022Y-48207D02*
X107292Y-48207D01*
X107322Y-48222D01*
X107337Y-48252D01*
X107337Y-48282D01*
X107232Y-48342D02*
X107232Y-48462D01*
X107337Y-48387D02*
X107067Y-48387D01*
X107037Y-48402D01*
X107022Y-48432D01*
X107022Y-48462D01*
X109022Y-47847D02*
X109172Y-47742D01*
X109022Y-47667D02*
X109337Y-47667D01*
X109337Y-47787D01*
X109322Y-47817D01*
X109307Y-47832D01*
X109277Y-47847D01*
X109232Y-47847D01*
X109202Y-47832D01*
X109187Y-47817D01*
X109172Y-47787D01*
X109172Y-47667D01*
X109022Y-47982D02*
X109232Y-47982D01*
X109337Y-47982D02*
X109322Y-47967D01*
X109307Y-47982D01*
X109322Y-47997D01*
X109337Y-47982D01*
X109307Y-47982D01*
X109232Y-48267D02*
X108977Y-48267D01*
X108947Y-48252D01*
X108932Y-48237D01*
X108917Y-48207D01*
X108917Y-48162D01*
X108932Y-48132D01*
X109037Y-48267D02*
X109022Y-48237D01*
X109022Y-48177D01*
X109037Y-48147D01*
X109052Y-48132D01*
X109082Y-48117D01*
X109172Y-48117D01*
X109202Y-48132D01*
X109217Y-48147D01*
X109232Y-48177D01*
X109232Y-48237D01*
X109217Y-48267D01*
X109022Y-48417D02*
X109337Y-48417D01*
X109022Y-48552D02*
X109187Y-48552D01*
X109217Y-48537D01*
X109232Y-48507D01*
X109232Y-48462D01*
X109217Y-48432D01*
X109202Y-48417D01*
X109232Y-48657D02*
X109232Y-48777D01*
X109337Y-48702D02*
X109067Y-48702D01*
X109037Y-48717D01*
X109022Y-48747D01*
X109022Y-48777D01*
X110322Y-47810D02*
X110337Y-47780D01*
X110337Y-47735D01*
X110322Y-47690D01*
X110292Y-47660D01*
X110262Y-47645D01*
X110202Y-47630D01*
X110157Y-47630D01*
X110097Y-47645D01*
X110067Y-47660D01*
X110037Y-47690D01*
X110022Y-47735D01*
X110022Y-47765D01*
X110037Y-47810D01*
X110052Y-47825D01*
X110157Y-47825D01*
X110157Y-47765D01*
X110022Y-47960D02*
X110337Y-47960D01*
X110022Y-48139D01*
X110337Y-48139D01*
X110022Y-48289D02*
X110337Y-48289D01*
X110337Y-48364D01*
X110322Y-48409D01*
X110292Y-48439D01*
X110262Y-48454D01*
X110202Y-48469D01*
X110157Y-48469D01*
X110097Y-48454D01*
X110067Y-48439D01*
X110037Y-48409D01*
X110022Y-48364D01*
X110022Y-48289D01*
G54D12*
X111347Y-49057D02*
X111150Y-48776D01*
X111009Y-49057D02*
X111009Y-48467D01*
X111234Y-48467D01*
X111290Y-48495D01*
X111318Y-48523D01*
X111347Y-48579D01*
X111347Y-48664D01*
X111318Y-48720D01*
X111290Y-48748D01*
X111234Y-48776D01*
X111009Y-48776D01*
X111600Y-49057D02*
X111600Y-48664D01*
X111600Y-48467D02*
X111571Y-48495D01*
X111600Y-48523D01*
X111628Y-48495D01*
X111600Y-48467D01*
X111600Y-48523D01*
X112134Y-48664D02*
X112134Y-49142D01*
X112106Y-49198D01*
X112078Y-49226D01*
X112021Y-49254D01*
X111937Y-49254D01*
X111881Y-49226D01*
X112134Y-49029D02*
X112078Y-49057D01*
X111965Y-49057D01*
X111909Y-49029D01*
X111881Y-49001D01*
X111853Y-48945D01*
X111853Y-48776D01*
X111881Y-48720D01*
X111909Y-48692D01*
X111965Y-48664D01*
X112078Y-48664D01*
X112134Y-48692D01*
X112415Y-49057D02*
X112415Y-48467D01*
X112668Y-49057D02*
X112668Y-48748D01*
X112640Y-48692D01*
X112584Y-48664D01*
X112500Y-48664D01*
X112443Y-48692D01*
X112415Y-48720D01*
X112865Y-48664D02*
X113090Y-48664D01*
X112949Y-48467D02*
X112949Y-48973D01*
X112978Y-49029D01*
X113034Y-49057D01*
X113090Y-49057D01*
X102207Y-48607D02*
X102179Y-48636D01*
X102095Y-48664D01*
X102038Y-48664D01*
X101954Y-48636D01*
X101898Y-48579D01*
X101870Y-48523D01*
X101841Y-48411D01*
X101841Y-48326D01*
X101870Y-48214D01*
X101898Y-48158D01*
X101954Y-48101D01*
X102038Y-48073D01*
X102095Y-48073D01*
X102179Y-48101D01*
X102207Y-48129D01*
X102685Y-48636D02*
X102629Y-48664D01*
X102516Y-48664D01*
X102460Y-48636D01*
X102432Y-48579D01*
X102432Y-48354D01*
X102460Y-48298D01*
X102516Y-48270D01*
X102629Y-48270D01*
X102685Y-48298D01*
X102713Y-48354D01*
X102713Y-48411D01*
X102432Y-48467D01*
X102966Y-48270D02*
X102966Y-48664D01*
X102966Y-48326D02*
X102994Y-48298D01*
X103051Y-48270D01*
X103135Y-48270D01*
X103191Y-48298D01*
X103219Y-48354D01*
X103219Y-48664D01*
X103416Y-48270D02*
X103641Y-48270D01*
X103501Y-48073D02*
X103501Y-48579D01*
X103529Y-48636D01*
X103585Y-48664D01*
X103641Y-48664D01*
X104063Y-48636D02*
X104007Y-48664D01*
X103894Y-48664D01*
X103838Y-48636D01*
X103810Y-48579D01*
X103810Y-48354D01*
X103838Y-48298D01*
X103894Y-48270D01*
X104007Y-48270D01*
X104063Y-48298D01*
X104091Y-48354D01*
X104091Y-48411D01*
X103810Y-48467D01*
X104344Y-48664D02*
X104344Y-48270D01*
X104344Y-48383D02*
X104372Y-48326D01*
X104401Y-48298D01*
X104457Y-48270D01*
X104513Y-48270D01*
X93883Y-48861D02*
X93602Y-48861D01*
X93602Y-48270D01*
X94305Y-48832D02*
X94249Y-48861D01*
X94136Y-48861D01*
X94080Y-48832D01*
X94052Y-48776D01*
X94052Y-48551D01*
X94080Y-48495D01*
X94136Y-48467D01*
X94249Y-48467D01*
X94305Y-48495D01*
X94333Y-48551D01*
X94333Y-48607D01*
X94052Y-48664D01*
X94502Y-48467D02*
X94727Y-48467D01*
X94586Y-48861D02*
X94586Y-48354D01*
X94614Y-48298D01*
X94670Y-48270D01*
X94727Y-48270D01*
X94839Y-48467D02*
X95064Y-48467D01*
X94924Y-48270D02*
X94924Y-48776D01*
X94952Y-48832D01*
X95008Y-48861D01*
X95064Y-48861D01*
G54D13*
X94783Y-50984D02*
G75*
G03X94783Y-50984I-591J0D01*
G74*
G01*
X92972Y-50059D02*
X92775Y-50059D01*
X92775Y-50059D02*
X92775Y-50334D01*
X92775Y-50334D02*
X92972Y-50334D01*
X92775Y-51909D02*
X92972Y-51909D01*
X92775Y-51634D02*
X92775Y-51909D01*
X92972Y-51634D02*
X92775Y-51634D01*
X95412Y-51634D02*
X95609Y-51634D01*
X95609Y-51634D02*
X95609Y-51909D01*
X95609Y-51909D02*
X95412Y-51909D01*
X95412Y-50059D02*
X95609Y-50059D01*
X95609Y-50059D02*
X95609Y-50334D01*
X95609Y-50334D02*
X95412Y-50334D01*
G54D14*
X93090Y-52204D02*
X95294Y-52204D01*
X93090Y-49764D02*
X95294Y-49764D01*
X92972Y-49803D02*
X95412Y-49803D01*
X95412Y-49803D02*
X95412Y-52165D01*
X95412Y-52165D02*
X92972Y-52165D01*
X92972Y-52165D02*
X92972Y-49803D01*
G54D13*
X103740Y-50393D02*
G75*
G03X103740Y-50393I-591J0D01*
G74*
G01*
X101929Y-49468D02*
X101732Y-49468D01*
X101732Y-49468D02*
X101732Y-49743D01*
X101732Y-49743D02*
X101929Y-49743D01*
X101732Y-51318D02*
X101929Y-51318D01*
X101732Y-51043D02*
X101732Y-51318D01*
X101929Y-51043D02*
X101732Y-51043D01*
X104369Y-51043D02*
X104566Y-51043D01*
X104566Y-51043D02*
X104566Y-51318D01*
X104566Y-51318D02*
X104369Y-51318D01*
X104369Y-49468D02*
X104566Y-49468D01*
X104566Y-49468D02*
X104566Y-49743D01*
X104566Y-49743D02*
X104369Y-49743D01*
G54D14*
X102047Y-51613D02*
X104251Y-51613D01*
X102047Y-49173D02*
X104251Y-49173D01*
X101929Y-49212D02*
X104369Y-49212D01*
X104369Y-49212D02*
X104369Y-51574D01*
X104369Y-51574D02*
X101929Y-51574D01*
X101929Y-51574D02*
X101929Y-49212D01*
G54D13*
X112697Y-50984D02*
G75*
G03X112697Y-50984I-591J0D01*
G74*
G01*
X110886Y-50059D02*
X110689Y-50059D01*
X110689Y-50059D02*
X110689Y-50334D01*
X110689Y-50334D02*
X110886Y-50334D01*
X110689Y-51909D02*
X110886Y-51909D01*
X110689Y-51634D02*
X110689Y-51909D01*
X110886Y-51634D02*
X110689Y-51634D01*
X113326Y-51634D02*
X113523Y-51634D01*
X113523Y-51634D02*
X113523Y-51909D01*
X113523Y-51909D02*
X113326Y-51909D01*
X113326Y-50059D02*
X113523Y-50059D01*
X113523Y-50059D02*
X113523Y-50334D01*
X113523Y-50334D02*
X113326Y-50334D01*
G54D14*
X111004Y-52204D02*
X113208Y-52204D01*
X111004Y-49764D02*
X113208Y-49764D01*
X110886Y-49803D02*
X113326Y-49803D01*
X113326Y-49803D02*
X113326Y-52165D01*
X113326Y-52165D02*
X110886Y-52165D01*
X110886Y-52165D02*
X110886Y-49803D01*
G54D15*
M02*
