G04 (created by PCBNEW (2013-jul-07)-stable) date Wed 26 Aug 2015 08:58:33 PM EDT*
%MOIN*%
G04 Gerber Fmt 3.4, Leading zero omitted, Abs format*
%FSLAX34Y34*%
G01*
G70*
G90*
G04 APERTURE LIST*
%ADD10C,0.00590551*%
%ADD11C,0.0590551*%
%ADD12C,0.035*%
%ADD13C,0.01*%
G04 APERTURE END LIST*
G54D10*
G54D11*
X107165Y-47090D03*
X109165Y-47090D03*
X108165Y-47090D03*
X110165Y-47090D03*
G54D12*
X96700Y-49400D03*
X100000Y-49600D03*
G54D13*
X98050Y-48950D02*
X100000Y-48950D01*
X97600Y-49400D02*
X98050Y-48950D01*
X96700Y-49400D02*
X97600Y-49400D01*
X100000Y-49600D02*
X100000Y-48950D01*
X110165Y-47090D02*
X110159Y-47090D01*
X108300Y-48950D02*
X100000Y-48950D01*
X110159Y-47090D02*
X108300Y-48950D01*
G54D10*
G36*
X114297Y-52138D02*
X114282Y-52210D01*
X114256Y-52249D01*
X114218Y-52275D01*
X114146Y-52289D01*
X110715Y-52289D01*
X110715Y-47171D01*
X110704Y-46954D01*
X110642Y-46805D01*
X110547Y-46778D01*
X110477Y-46849D01*
X110477Y-46708D01*
X110450Y-46613D01*
X110245Y-46540D01*
X110029Y-46551D01*
X109880Y-46613D01*
X109853Y-46708D01*
X110165Y-47019D01*
X110477Y-46708D01*
X110477Y-46849D01*
X110236Y-47090D01*
X110547Y-47402D01*
X110642Y-47375D01*
X110715Y-47171D01*
X110715Y-52289D01*
X110477Y-52289D01*
X110477Y-47473D01*
X110165Y-47161D01*
X110094Y-47231D01*
X110094Y-47090D01*
X109782Y-46778D01*
X109688Y-46805D01*
X109664Y-46871D01*
X109627Y-46782D01*
X109474Y-46628D01*
X109274Y-46545D01*
X109057Y-46545D01*
X108856Y-46628D01*
X108703Y-46781D01*
X108665Y-46872D01*
X108627Y-46782D01*
X108474Y-46628D01*
X108274Y-46545D01*
X108057Y-46545D01*
X107856Y-46628D01*
X107703Y-46781D01*
X107665Y-46872D01*
X107627Y-46782D01*
X107474Y-46628D01*
X107274Y-46545D01*
X107057Y-46545D01*
X106856Y-46628D01*
X106703Y-46781D01*
X106620Y-46981D01*
X106619Y-47198D01*
X106702Y-47399D01*
X106856Y-47552D01*
X107056Y-47635D01*
X107273Y-47635D01*
X107473Y-47553D01*
X107627Y-47399D01*
X107665Y-47308D01*
X107702Y-47399D01*
X107856Y-47552D01*
X108056Y-47635D01*
X108273Y-47635D01*
X108473Y-47553D01*
X108627Y-47399D01*
X108665Y-47308D01*
X108702Y-47399D01*
X108856Y-47552D01*
X109056Y-47635D01*
X109273Y-47635D01*
X109473Y-47553D01*
X109627Y-47399D01*
X109662Y-47314D01*
X109688Y-47375D01*
X109782Y-47402D01*
X110094Y-47090D01*
X110094Y-47231D01*
X109853Y-47473D01*
X109880Y-47567D01*
X110084Y-47640D01*
X110301Y-47629D01*
X110450Y-47567D01*
X110477Y-47473D01*
X110477Y-52289D01*
X107080Y-52289D01*
X107080Y-50652D01*
X106977Y-50400D01*
X106785Y-50208D01*
X106534Y-50104D01*
X106262Y-50104D01*
X106011Y-50207D01*
X105818Y-50399D01*
X105714Y-50650D01*
X105714Y-50922D01*
X105818Y-51173D01*
X106010Y-51366D01*
X106261Y-51470D01*
X106532Y-51470D01*
X106784Y-51366D01*
X106976Y-51174D01*
X107080Y-50923D01*
X107080Y-50652D01*
X107080Y-52289D01*
X100584Y-52289D01*
X100584Y-50652D01*
X100480Y-50400D01*
X100289Y-50208D01*
X100038Y-50104D01*
X99766Y-50104D01*
X99515Y-50207D01*
X99322Y-50399D01*
X99218Y-50650D01*
X99218Y-50922D01*
X99322Y-51173D01*
X99514Y-51366D01*
X99765Y-51470D01*
X100036Y-51470D01*
X100287Y-51366D01*
X100480Y-51174D01*
X100584Y-50923D01*
X100584Y-50652D01*
X100584Y-52289D01*
X92153Y-52289D01*
X92080Y-52275D01*
X92041Y-52249D01*
X92016Y-52210D01*
X92001Y-52138D01*
X92001Y-47270D01*
X92075Y-46898D01*
X92273Y-46602D01*
X92565Y-46407D01*
X92941Y-46332D01*
X113359Y-46332D01*
X113731Y-46406D01*
X114027Y-46604D01*
X114222Y-46896D01*
X114297Y-47272D01*
X114297Y-52138D01*
X114297Y-52138D01*
G37*
G54D13*
X114297Y-52138D02*
X114282Y-52210D01*
X114256Y-52249D01*
X114218Y-52275D01*
X114146Y-52289D01*
X110715Y-52289D01*
X110715Y-47171D01*
X110704Y-46954D01*
X110642Y-46805D01*
X110547Y-46778D01*
X110477Y-46849D01*
X110477Y-46708D01*
X110450Y-46613D01*
X110245Y-46540D01*
X110029Y-46551D01*
X109880Y-46613D01*
X109853Y-46708D01*
X110165Y-47019D01*
X110477Y-46708D01*
X110477Y-46849D01*
X110236Y-47090D01*
X110547Y-47402D01*
X110642Y-47375D01*
X110715Y-47171D01*
X110715Y-52289D01*
X110477Y-52289D01*
X110477Y-47473D01*
X110165Y-47161D01*
X110094Y-47231D01*
X110094Y-47090D01*
X109782Y-46778D01*
X109688Y-46805D01*
X109664Y-46871D01*
X109627Y-46782D01*
X109474Y-46628D01*
X109274Y-46545D01*
X109057Y-46545D01*
X108856Y-46628D01*
X108703Y-46781D01*
X108665Y-46872D01*
X108627Y-46782D01*
X108474Y-46628D01*
X108274Y-46545D01*
X108057Y-46545D01*
X107856Y-46628D01*
X107703Y-46781D01*
X107665Y-46872D01*
X107627Y-46782D01*
X107474Y-46628D01*
X107274Y-46545D01*
X107057Y-46545D01*
X106856Y-46628D01*
X106703Y-46781D01*
X106620Y-46981D01*
X106619Y-47198D01*
X106702Y-47399D01*
X106856Y-47552D01*
X107056Y-47635D01*
X107273Y-47635D01*
X107473Y-47553D01*
X107627Y-47399D01*
X107665Y-47308D01*
X107702Y-47399D01*
X107856Y-47552D01*
X108056Y-47635D01*
X108273Y-47635D01*
X108473Y-47553D01*
X108627Y-47399D01*
X108665Y-47308D01*
X108702Y-47399D01*
X108856Y-47552D01*
X109056Y-47635D01*
X109273Y-47635D01*
X109473Y-47553D01*
X109627Y-47399D01*
X109662Y-47314D01*
X109688Y-47375D01*
X109782Y-47402D01*
X110094Y-47090D01*
X110094Y-47231D01*
X109853Y-47473D01*
X109880Y-47567D01*
X110084Y-47640D01*
X110301Y-47629D01*
X110450Y-47567D01*
X110477Y-47473D01*
X110477Y-52289D01*
X107080Y-52289D01*
X107080Y-50652D01*
X106977Y-50400D01*
X106785Y-50208D01*
X106534Y-50104D01*
X106262Y-50104D01*
X106011Y-50207D01*
X105818Y-50399D01*
X105714Y-50650D01*
X105714Y-50922D01*
X105818Y-51173D01*
X106010Y-51366D01*
X106261Y-51470D01*
X106532Y-51470D01*
X106784Y-51366D01*
X106976Y-51174D01*
X107080Y-50923D01*
X107080Y-50652D01*
X107080Y-52289D01*
X100584Y-52289D01*
X100584Y-50652D01*
X100480Y-50400D01*
X100289Y-50208D01*
X100038Y-50104D01*
X99766Y-50104D01*
X99515Y-50207D01*
X99322Y-50399D01*
X99218Y-50650D01*
X99218Y-50922D01*
X99322Y-51173D01*
X99514Y-51366D01*
X99765Y-51470D01*
X100036Y-51470D01*
X100287Y-51366D01*
X100480Y-51174D01*
X100584Y-50923D01*
X100584Y-50652D01*
X100584Y-52289D01*
X92153Y-52289D01*
X92080Y-52275D01*
X92041Y-52249D01*
X92016Y-52210D01*
X92001Y-52138D01*
X92001Y-47270D01*
X92075Y-46898D01*
X92273Y-46602D01*
X92565Y-46407D01*
X92941Y-46332D01*
X113359Y-46332D01*
X113731Y-46406D01*
X114027Y-46604D01*
X114222Y-46896D01*
X114297Y-47272D01*
X114297Y-52138D01*
M02*
