G04 (created by PCBNEW (2013-may-18)-stable) date Tue 25 Aug 2015 09:37:45 PM EDT*
%MOIN*%
G04 Gerber Fmt 3.4, Leading zero omitted, Abs format*
%FSLAX34Y34*%
G01*
G70*
G90*
G04 APERTURE LIST*
%ADD10C,0.00590551*%
%ADD11C,0.0590551*%
%ADD12R,0.0906X0.0551*%
%ADD13C,0.035*%
%ADD14C,0.01*%
G04 APERTURE END LIST*
G54D10*
G54D11*
X107165Y-47090D03*
X109165Y-47090D03*
X108165Y-47090D03*
X110165Y-47090D03*
G54D12*
X93051Y-49999D03*
X95531Y-51574D03*
X95531Y-50000D03*
X93051Y-51574D03*
X101909Y-49605D03*
X104389Y-51180D03*
X104389Y-49606D03*
X101909Y-51180D03*
X110767Y-49999D03*
X113247Y-51574D03*
X113247Y-50000D03*
X110767Y-51574D03*
G54D13*
X96700Y-49400D03*
X100000Y-49600D03*
G54D14*
X107165Y-47090D02*
X107159Y-47090D01*
X93825Y-50800D02*
X93051Y-51574D01*
X96200Y-50800D02*
X93825Y-50800D01*
X98050Y-48950D02*
X96200Y-50800D01*
X105300Y-48950D02*
X98050Y-48950D01*
X107159Y-47090D02*
X105300Y-48950D01*
X93051Y-49999D02*
X94050Y-49999D01*
X94650Y-49400D02*
X96700Y-49400D01*
X94050Y-49999D02*
X94650Y-49400D01*
X101909Y-49605D02*
X100005Y-49605D01*
X100005Y-49605D02*
X100000Y-49600D01*
X110165Y-47090D02*
X110165Y-49396D01*
X110165Y-49396D02*
X110767Y-49999D01*
X110165Y-47090D02*
X110165Y-47452D01*
X108165Y-47090D02*
X108159Y-47090D01*
X102740Y-50350D02*
X101909Y-51180D01*
X104900Y-50350D02*
X102740Y-50350D01*
X108159Y-47090D02*
X104900Y-50350D01*
X109165Y-47090D02*
X109165Y-49971D01*
X109165Y-49971D02*
X110767Y-51574D01*
G54D10*
G36*
X110064Y-51295D02*
X110064Y-51348D01*
X110064Y-51895D01*
X109324Y-51895D01*
X109324Y-51377D01*
X109304Y-51274D01*
X109245Y-51187D01*
X109158Y-51128D01*
X109055Y-51108D01*
X107086Y-51108D01*
X106983Y-51128D01*
X106982Y-51129D01*
X106982Y-50652D01*
X106878Y-50400D01*
X106686Y-50208D01*
X106435Y-50104D01*
X106163Y-50104D01*
X105912Y-50207D01*
X105720Y-50399D01*
X105616Y-50650D01*
X105616Y-50922D01*
X105719Y-51173D01*
X105911Y-51366D01*
X106162Y-51470D01*
X106434Y-51470D01*
X106685Y-51366D01*
X106877Y-51174D01*
X106982Y-50923D01*
X106982Y-50652D01*
X106982Y-51129D01*
X106895Y-51187D01*
X106837Y-51274D01*
X106816Y-51377D01*
X106816Y-51895D01*
X100683Y-51895D01*
X100683Y-50652D01*
X100579Y-50400D01*
X100387Y-50208D01*
X100136Y-50104D01*
X99864Y-50104D01*
X99613Y-50207D01*
X99421Y-50399D01*
X99317Y-50650D01*
X99316Y-50922D01*
X99420Y-51173D01*
X99612Y-51366D01*
X99863Y-51470D01*
X100135Y-51470D01*
X100386Y-51366D01*
X100578Y-51174D01*
X100682Y-50923D01*
X100683Y-50652D01*
X100683Y-51895D01*
X99482Y-51895D01*
X99482Y-51377D01*
X99461Y-51274D01*
X99403Y-51187D01*
X99315Y-51128D01*
X99212Y-51108D01*
X97244Y-51108D01*
X97140Y-51128D01*
X97053Y-51187D01*
X96994Y-51274D01*
X96974Y-51377D01*
X96974Y-51895D01*
X96234Y-51895D01*
X96234Y-51800D01*
X96234Y-51249D01*
X96196Y-51157D01*
X96139Y-51100D01*
X96200Y-51100D01*
X96200Y-51099D01*
X96314Y-51077D01*
X96314Y-51077D01*
X96412Y-51012D01*
X98174Y-49250D01*
X101219Y-49250D01*
X101206Y-49280D01*
X101206Y-49379D01*
X101206Y-49493D01*
X101269Y-49555D01*
X101859Y-49555D01*
X101859Y-49547D01*
X101959Y-49547D01*
X101959Y-49555D01*
X102550Y-49555D01*
X102612Y-49493D01*
X102612Y-49379D01*
X102612Y-49280D01*
X102599Y-49250D01*
X103699Y-49250D01*
X103686Y-49281D01*
X103686Y-49380D01*
X103686Y-49931D01*
X103724Y-50023D01*
X103750Y-50050D01*
X102740Y-50050D01*
X102625Y-50072D01*
X102612Y-50081D01*
X102612Y-49831D01*
X102612Y-49718D01*
X102550Y-49655D01*
X101959Y-49655D01*
X101959Y-50068D01*
X102022Y-50131D01*
X102412Y-50131D01*
X102504Y-50093D01*
X102574Y-50022D01*
X102612Y-49931D01*
X102612Y-49831D01*
X102612Y-50081D01*
X102528Y-50137D01*
X102010Y-50655D01*
X101859Y-50655D01*
X101859Y-50068D01*
X101859Y-49655D01*
X101269Y-49655D01*
X101206Y-49718D01*
X101206Y-49831D01*
X101206Y-49931D01*
X101244Y-50022D01*
X101315Y-50093D01*
X101407Y-50131D01*
X101797Y-50131D01*
X101859Y-50068D01*
X101859Y-50655D01*
X101407Y-50655D01*
X101315Y-50693D01*
X101244Y-50763D01*
X101206Y-50855D01*
X101206Y-50954D01*
X101206Y-51505D01*
X101244Y-51597D01*
X101314Y-51668D01*
X101406Y-51706D01*
X101506Y-51706D01*
X102412Y-51706D01*
X102504Y-51668D01*
X102574Y-51597D01*
X102612Y-51506D01*
X102612Y-51406D01*
X102612Y-50901D01*
X102864Y-50650D01*
X104671Y-50650D01*
X104671Y-50655D01*
X103887Y-50655D01*
X103795Y-50693D01*
X103724Y-50763D01*
X103686Y-50855D01*
X103686Y-50954D01*
X103686Y-51505D01*
X103724Y-51597D01*
X103794Y-51668D01*
X103886Y-51706D01*
X103986Y-51706D01*
X104892Y-51706D01*
X104984Y-51668D01*
X105054Y-51597D01*
X105092Y-51506D01*
X105092Y-51406D01*
X105092Y-50855D01*
X105054Y-50763D01*
X104984Y-50693D01*
X104977Y-50690D01*
X105094Y-50573D01*
X105112Y-50562D01*
X108043Y-47630D01*
X108056Y-47635D01*
X108273Y-47635D01*
X108473Y-47553D01*
X108627Y-47399D01*
X108665Y-47308D01*
X108702Y-47399D01*
X108856Y-47552D01*
X108865Y-47556D01*
X108865Y-49971D01*
X108888Y-50086D01*
X108953Y-50184D01*
X110064Y-51295D01*
X110064Y-51295D01*
G37*
G54D14*
X110064Y-51295D02*
X110064Y-51348D01*
X110064Y-51895D01*
X109324Y-51895D01*
X109324Y-51377D01*
X109304Y-51274D01*
X109245Y-51187D01*
X109158Y-51128D01*
X109055Y-51108D01*
X107086Y-51108D01*
X106983Y-51128D01*
X106982Y-51129D01*
X106982Y-50652D01*
X106878Y-50400D01*
X106686Y-50208D01*
X106435Y-50104D01*
X106163Y-50104D01*
X105912Y-50207D01*
X105720Y-50399D01*
X105616Y-50650D01*
X105616Y-50922D01*
X105719Y-51173D01*
X105911Y-51366D01*
X106162Y-51470D01*
X106434Y-51470D01*
X106685Y-51366D01*
X106877Y-51174D01*
X106982Y-50923D01*
X106982Y-50652D01*
X106982Y-51129D01*
X106895Y-51187D01*
X106837Y-51274D01*
X106816Y-51377D01*
X106816Y-51895D01*
X100683Y-51895D01*
X100683Y-50652D01*
X100579Y-50400D01*
X100387Y-50208D01*
X100136Y-50104D01*
X99864Y-50104D01*
X99613Y-50207D01*
X99421Y-50399D01*
X99317Y-50650D01*
X99316Y-50922D01*
X99420Y-51173D01*
X99612Y-51366D01*
X99863Y-51470D01*
X100135Y-51470D01*
X100386Y-51366D01*
X100578Y-51174D01*
X100682Y-50923D01*
X100683Y-50652D01*
X100683Y-51895D01*
X99482Y-51895D01*
X99482Y-51377D01*
X99461Y-51274D01*
X99403Y-51187D01*
X99315Y-51128D01*
X99212Y-51108D01*
X97244Y-51108D01*
X97140Y-51128D01*
X97053Y-51187D01*
X96994Y-51274D01*
X96974Y-51377D01*
X96974Y-51895D01*
X96234Y-51895D01*
X96234Y-51800D01*
X96234Y-51249D01*
X96196Y-51157D01*
X96139Y-51100D01*
X96200Y-51100D01*
X96200Y-51099D01*
X96314Y-51077D01*
X96314Y-51077D01*
X96412Y-51012D01*
X98174Y-49250D01*
X101219Y-49250D01*
X101206Y-49280D01*
X101206Y-49379D01*
X101206Y-49493D01*
X101269Y-49555D01*
X101859Y-49555D01*
X101859Y-49547D01*
X101959Y-49547D01*
X101959Y-49555D01*
X102550Y-49555D01*
X102612Y-49493D01*
X102612Y-49379D01*
X102612Y-49280D01*
X102599Y-49250D01*
X103699Y-49250D01*
X103686Y-49281D01*
X103686Y-49380D01*
X103686Y-49931D01*
X103724Y-50023D01*
X103750Y-50050D01*
X102740Y-50050D01*
X102625Y-50072D01*
X102612Y-50081D01*
X102612Y-49831D01*
X102612Y-49718D01*
X102550Y-49655D01*
X101959Y-49655D01*
X101959Y-50068D01*
X102022Y-50131D01*
X102412Y-50131D01*
X102504Y-50093D01*
X102574Y-50022D01*
X102612Y-49931D01*
X102612Y-49831D01*
X102612Y-50081D01*
X102528Y-50137D01*
X102010Y-50655D01*
X101859Y-50655D01*
X101859Y-50068D01*
X101859Y-49655D01*
X101269Y-49655D01*
X101206Y-49718D01*
X101206Y-49831D01*
X101206Y-49931D01*
X101244Y-50022D01*
X101315Y-50093D01*
X101407Y-50131D01*
X101797Y-50131D01*
X101859Y-50068D01*
X101859Y-50655D01*
X101407Y-50655D01*
X101315Y-50693D01*
X101244Y-50763D01*
X101206Y-50855D01*
X101206Y-50954D01*
X101206Y-51505D01*
X101244Y-51597D01*
X101314Y-51668D01*
X101406Y-51706D01*
X101506Y-51706D01*
X102412Y-51706D01*
X102504Y-51668D01*
X102574Y-51597D01*
X102612Y-51506D01*
X102612Y-51406D01*
X102612Y-50901D01*
X102864Y-50650D01*
X104671Y-50650D01*
X104671Y-50655D01*
X103887Y-50655D01*
X103795Y-50693D01*
X103724Y-50763D01*
X103686Y-50855D01*
X103686Y-50954D01*
X103686Y-51505D01*
X103724Y-51597D01*
X103794Y-51668D01*
X103886Y-51706D01*
X103986Y-51706D01*
X104892Y-51706D01*
X104984Y-51668D01*
X105054Y-51597D01*
X105092Y-51506D01*
X105092Y-51406D01*
X105092Y-50855D01*
X105054Y-50763D01*
X104984Y-50693D01*
X104977Y-50690D01*
X105094Y-50573D01*
X105112Y-50562D01*
X108043Y-47630D01*
X108056Y-47635D01*
X108273Y-47635D01*
X108473Y-47553D01*
X108627Y-47399D01*
X108665Y-47308D01*
X108702Y-47399D01*
X108856Y-47552D01*
X108865Y-47556D01*
X108865Y-49971D01*
X108888Y-50086D01*
X108953Y-50184D01*
X110064Y-51295D01*
G54D10*
G36*
X114297Y-51895D02*
X113950Y-51895D01*
X113950Y-51800D01*
X113950Y-51249D01*
X113950Y-50226D01*
X113950Y-49675D01*
X113912Y-49583D01*
X113842Y-49513D01*
X113750Y-49474D01*
X113651Y-49474D01*
X112745Y-49474D01*
X112653Y-49512D01*
X112583Y-49583D01*
X112544Y-49674D01*
X112544Y-49774D01*
X112544Y-50325D01*
X112582Y-50417D01*
X112653Y-50487D01*
X112744Y-50525D01*
X112844Y-50525D01*
X113750Y-50525D01*
X113842Y-50487D01*
X113912Y-50417D01*
X113950Y-50325D01*
X113950Y-50226D01*
X113950Y-51249D01*
X113912Y-51157D01*
X113842Y-51087D01*
X113750Y-51048D01*
X113651Y-51048D01*
X112745Y-51048D01*
X112653Y-51086D01*
X112583Y-51157D01*
X112544Y-51248D01*
X112544Y-51348D01*
X112544Y-51895D01*
X111470Y-51895D01*
X111470Y-51800D01*
X111470Y-51249D01*
X111470Y-50225D01*
X111470Y-49773D01*
X111470Y-49673D01*
X111432Y-49582D01*
X111362Y-49511D01*
X111270Y-49473D01*
X110880Y-49473D01*
X110817Y-49536D01*
X110817Y-49949D01*
X111408Y-49949D01*
X111470Y-49886D01*
X111470Y-49773D01*
X111470Y-50225D01*
X111470Y-50111D01*
X111408Y-50049D01*
X110817Y-50049D01*
X110817Y-50462D01*
X110880Y-50524D01*
X111270Y-50524D01*
X111362Y-50486D01*
X111432Y-50416D01*
X111470Y-50324D01*
X111470Y-50225D01*
X111470Y-51249D01*
X111432Y-51157D01*
X111362Y-51087D01*
X111270Y-51048D01*
X111171Y-51048D01*
X110717Y-51048D01*
X110717Y-50462D01*
X110717Y-50049D01*
X110717Y-49949D01*
X110717Y-49536D01*
X110715Y-49533D01*
X110715Y-47171D01*
X110704Y-46954D01*
X110642Y-46805D01*
X110547Y-46778D01*
X110477Y-46849D01*
X110477Y-46708D01*
X110450Y-46613D01*
X110245Y-46540D01*
X110029Y-46551D01*
X109880Y-46613D01*
X109853Y-46708D01*
X110165Y-47019D01*
X110477Y-46708D01*
X110477Y-46849D01*
X110236Y-47090D01*
X110547Y-47402D01*
X110642Y-47375D01*
X110715Y-47171D01*
X110715Y-49533D01*
X110655Y-49473D01*
X110477Y-49473D01*
X110477Y-47473D01*
X110165Y-47161D01*
X109853Y-47473D01*
X109880Y-47567D01*
X110084Y-47640D01*
X110301Y-47629D01*
X110450Y-47567D01*
X110477Y-47473D01*
X110477Y-49473D01*
X110265Y-49473D01*
X110173Y-49511D01*
X110103Y-49582D01*
X110064Y-49673D01*
X110064Y-49773D01*
X110064Y-49886D01*
X110127Y-49949D01*
X110717Y-49949D01*
X110717Y-50049D01*
X110127Y-50049D01*
X110064Y-50111D01*
X110064Y-50225D01*
X110064Y-50324D01*
X110103Y-50416D01*
X110173Y-50486D01*
X110265Y-50524D01*
X110655Y-50524D01*
X110717Y-50462D01*
X110717Y-51048D01*
X110666Y-51048D01*
X109465Y-49847D01*
X109465Y-47556D01*
X109473Y-47553D01*
X109627Y-47399D01*
X109662Y-47314D01*
X109688Y-47375D01*
X109782Y-47402D01*
X110094Y-47090D01*
X109782Y-46778D01*
X109688Y-46805D01*
X109664Y-46871D01*
X109627Y-46782D01*
X109474Y-46628D01*
X109274Y-46545D01*
X109057Y-46545D01*
X108856Y-46628D01*
X108703Y-46781D01*
X108665Y-46872D01*
X108627Y-46782D01*
X108474Y-46628D01*
X108274Y-46545D01*
X108057Y-46545D01*
X107856Y-46628D01*
X107703Y-46781D01*
X107665Y-46872D01*
X107627Y-46782D01*
X107474Y-46628D01*
X107274Y-46545D01*
X107057Y-46545D01*
X106856Y-46628D01*
X106703Y-46781D01*
X106620Y-46981D01*
X106619Y-47198D01*
X106622Y-47203D01*
X105175Y-48650D01*
X98050Y-48650D01*
X97935Y-48672D01*
X97837Y-48737D01*
X96223Y-50352D01*
X96234Y-50325D01*
X96234Y-50226D01*
X96234Y-49675D01*
X96196Y-49583D01*
X96126Y-49513D01*
X96034Y-49474D01*
X95934Y-49474D01*
X95028Y-49474D01*
X94936Y-49512D01*
X94866Y-49583D01*
X94828Y-49674D01*
X94828Y-49774D01*
X94828Y-50325D01*
X94866Y-50417D01*
X94936Y-50487D01*
X94966Y-50500D01*
X93825Y-50500D01*
X93754Y-50514D01*
X93754Y-50225D01*
X93754Y-49773D01*
X93754Y-49673D01*
X93716Y-49582D01*
X93645Y-49511D01*
X93553Y-49473D01*
X93163Y-49473D01*
X93101Y-49536D01*
X93101Y-49949D01*
X93691Y-49949D01*
X93754Y-49886D01*
X93754Y-49773D01*
X93754Y-50225D01*
X93754Y-50111D01*
X93691Y-50049D01*
X93101Y-50049D01*
X93101Y-50462D01*
X93163Y-50524D01*
X93553Y-50524D01*
X93645Y-50486D01*
X93716Y-50416D01*
X93754Y-50324D01*
X93754Y-50225D01*
X93754Y-50514D01*
X93710Y-50522D01*
X93613Y-50587D01*
X93152Y-51048D01*
X93001Y-51048D01*
X93001Y-50462D01*
X93001Y-50049D01*
X93001Y-49949D01*
X93001Y-49536D01*
X92938Y-49473D01*
X92548Y-49473D01*
X92456Y-49511D01*
X92386Y-49582D01*
X92348Y-49673D01*
X92348Y-49773D01*
X92348Y-49886D01*
X92410Y-49949D01*
X93001Y-49949D01*
X93001Y-50049D01*
X92410Y-50049D01*
X92348Y-50111D01*
X92348Y-50225D01*
X92348Y-50324D01*
X92386Y-50416D01*
X92456Y-50486D01*
X92548Y-50524D01*
X92938Y-50524D01*
X93001Y-50462D01*
X93001Y-51048D01*
X92548Y-51048D01*
X92456Y-51086D01*
X92386Y-51157D01*
X92348Y-51248D01*
X92348Y-51348D01*
X92348Y-51895D01*
X92001Y-51895D01*
X92001Y-47270D01*
X92075Y-46898D01*
X92273Y-46602D01*
X92565Y-46407D01*
X92941Y-46332D01*
X113359Y-46332D01*
X113731Y-46406D01*
X114027Y-46604D01*
X114222Y-46896D01*
X114297Y-47272D01*
X114297Y-51895D01*
X114297Y-51895D01*
G37*
G54D14*
X114297Y-51895D02*
X113950Y-51895D01*
X113950Y-51800D01*
X113950Y-51249D01*
X113950Y-50226D01*
X113950Y-49675D01*
X113912Y-49583D01*
X113842Y-49513D01*
X113750Y-49474D01*
X113651Y-49474D01*
X112745Y-49474D01*
X112653Y-49512D01*
X112583Y-49583D01*
X112544Y-49674D01*
X112544Y-49774D01*
X112544Y-50325D01*
X112582Y-50417D01*
X112653Y-50487D01*
X112744Y-50525D01*
X112844Y-50525D01*
X113750Y-50525D01*
X113842Y-50487D01*
X113912Y-50417D01*
X113950Y-50325D01*
X113950Y-50226D01*
X113950Y-51249D01*
X113912Y-51157D01*
X113842Y-51087D01*
X113750Y-51048D01*
X113651Y-51048D01*
X112745Y-51048D01*
X112653Y-51086D01*
X112583Y-51157D01*
X112544Y-51248D01*
X112544Y-51348D01*
X112544Y-51895D01*
X111470Y-51895D01*
X111470Y-51800D01*
X111470Y-51249D01*
X111470Y-50225D01*
X111470Y-49773D01*
X111470Y-49673D01*
X111432Y-49582D01*
X111362Y-49511D01*
X111270Y-49473D01*
X110880Y-49473D01*
X110817Y-49536D01*
X110817Y-49949D01*
X111408Y-49949D01*
X111470Y-49886D01*
X111470Y-49773D01*
X111470Y-50225D01*
X111470Y-50111D01*
X111408Y-50049D01*
X110817Y-50049D01*
X110817Y-50462D01*
X110880Y-50524D01*
X111270Y-50524D01*
X111362Y-50486D01*
X111432Y-50416D01*
X111470Y-50324D01*
X111470Y-50225D01*
X111470Y-51249D01*
X111432Y-51157D01*
X111362Y-51087D01*
X111270Y-51048D01*
X111171Y-51048D01*
X110717Y-51048D01*
X110717Y-50462D01*
X110717Y-50049D01*
X110717Y-49949D01*
X110717Y-49536D01*
X110715Y-49533D01*
X110715Y-47171D01*
X110704Y-46954D01*
X110642Y-46805D01*
X110547Y-46778D01*
X110477Y-46849D01*
X110477Y-46708D01*
X110450Y-46613D01*
X110245Y-46540D01*
X110029Y-46551D01*
X109880Y-46613D01*
X109853Y-46708D01*
X110165Y-47019D01*
X110477Y-46708D01*
X110477Y-46849D01*
X110236Y-47090D01*
X110547Y-47402D01*
X110642Y-47375D01*
X110715Y-47171D01*
X110715Y-49533D01*
X110655Y-49473D01*
X110477Y-49473D01*
X110477Y-47473D01*
X110165Y-47161D01*
X109853Y-47473D01*
X109880Y-47567D01*
X110084Y-47640D01*
X110301Y-47629D01*
X110450Y-47567D01*
X110477Y-47473D01*
X110477Y-49473D01*
X110265Y-49473D01*
X110173Y-49511D01*
X110103Y-49582D01*
X110064Y-49673D01*
X110064Y-49773D01*
X110064Y-49886D01*
X110127Y-49949D01*
X110717Y-49949D01*
X110717Y-50049D01*
X110127Y-50049D01*
X110064Y-50111D01*
X110064Y-50225D01*
X110064Y-50324D01*
X110103Y-50416D01*
X110173Y-50486D01*
X110265Y-50524D01*
X110655Y-50524D01*
X110717Y-50462D01*
X110717Y-51048D01*
X110666Y-51048D01*
X109465Y-49847D01*
X109465Y-47556D01*
X109473Y-47553D01*
X109627Y-47399D01*
X109662Y-47314D01*
X109688Y-47375D01*
X109782Y-47402D01*
X110094Y-47090D01*
X109782Y-46778D01*
X109688Y-46805D01*
X109664Y-46871D01*
X109627Y-46782D01*
X109474Y-46628D01*
X109274Y-46545D01*
X109057Y-46545D01*
X108856Y-46628D01*
X108703Y-46781D01*
X108665Y-46872D01*
X108627Y-46782D01*
X108474Y-46628D01*
X108274Y-46545D01*
X108057Y-46545D01*
X107856Y-46628D01*
X107703Y-46781D01*
X107665Y-46872D01*
X107627Y-46782D01*
X107474Y-46628D01*
X107274Y-46545D01*
X107057Y-46545D01*
X106856Y-46628D01*
X106703Y-46781D01*
X106620Y-46981D01*
X106619Y-47198D01*
X106622Y-47203D01*
X105175Y-48650D01*
X98050Y-48650D01*
X97935Y-48672D01*
X97837Y-48737D01*
X96223Y-50352D01*
X96234Y-50325D01*
X96234Y-50226D01*
X96234Y-49675D01*
X96196Y-49583D01*
X96126Y-49513D01*
X96034Y-49474D01*
X95934Y-49474D01*
X95028Y-49474D01*
X94936Y-49512D01*
X94866Y-49583D01*
X94828Y-49674D01*
X94828Y-49774D01*
X94828Y-50325D01*
X94866Y-50417D01*
X94936Y-50487D01*
X94966Y-50500D01*
X93825Y-50500D01*
X93754Y-50514D01*
X93754Y-50225D01*
X93754Y-49773D01*
X93754Y-49673D01*
X93716Y-49582D01*
X93645Y-49511D01*
X93553Y-49473D01*
X93163Y-49473D01*
X93101Y-49536D01*
X93101Y-49949D01*
X93691Y-49949D01*
X93754Y-49886D01*
X93754Y-49773D01*
X93754Y-50225D01*
X93754Y-50111D01*
X93691Y-50049D01*
X93101Y-50049D01*
X93101Y-50462D01*
X93163Y-50524D01*
X93553Y-50524D01*
X93645Y-50486D01*
X93716Y-50416D01*
X93754Y-50324D01*
X93754Y-50225D01*
X93754Y-50514D01*
X93710Y-50522D01*
X93613Y-50587D01*
X93152Y-51048D01*
X93001Y-51048D01*
X93001Y-50462D01*
X93001Y-50049D01*
X93001Y-49949D01*
X93001Y-49536D01*
X92938Y-49473D01*
X92548Y-49473D01*
X92456Y-49511D01*
X92386Y-49582D01*
X92348Y-49673D01*
X92348Y-49773D01*
X92348Y-49886D01*
X92410Y-49949D01*
X93001Y-49949D01*
X93001Y-50049D01*
X92410Y-50049D01*
X92348Y-50111D01*
X92348Y-50225D01*
X92348Y-50324D01*
X92386Y-50416D01*
X92456Y-50486D01*
X92548Y-50524D01*
X92938Y-50524D01*
X93001Y-50462D01*
X93001Y-51048D01*
X92548Y-51048D01*
X92456Y-51086D01*
X92386Y-51157D01*
X92348Y-51248D01*
X92348Y-51348D01*
X92348Y-51895D01*
X92001Y-51895D01*
X92001Y-47270D01*
X92075Y-46898D01*
X92273Y-46602D01*
X92565Y-46407D01*
X92941Y-46332D01*
X113359Y-46332D01*
X113731Y-46406D01*
X114027Y-46604D01*
X114222Y-46896D01*
X114297Y-47272D01*
X114297Y-51895D01*
G54D10*
G36*
X94831Y-51240D02*
X94828Y-51248D01*
X94828Y-51348D01*
X94828Y-51800D01*
X94828Y-51895D01*
X93754Y-51895D01*
X93754Y-51800D01*
X93754Y-51295D01*
X93950Y-51100D01*
X94831Y-51100D01*
X94831Y-51240D01*
X94831Y-51240D01*
G37*
G54D14*
X94831Y-51240D02*
X94828Y-51248D01*
X94828Y-51348D01*
X94828Y-51800D01*
X94828Y-51895D01*
X93754Y-51895D01*
X93754Y-51800D01*
X93754Y-51295D01*
X93950Y-51100D01*
X94831Y-51100D01*
X94831Y-51240D01*
G54D10*
G36*
X107189Y-47635D02*
X105092Y-49733D01*
X105092Y-49380D01*
X105092Y-49281D01*
X105092Y-49281D01*
X105092Y-49281D01*
X105079Y-49250D01*
X105300Y-49250D01*
X105300Y-49249D01*
X105414Y-49227D01*
X105414Y-49227D01*
X105512Y-49162D01*
X107043Y-47630D01*
X107056Y-47635D01*
X107189Y-47635D01*
X107189Y-47635D01*
G37*
G54D14*
X107189Y-47635D02*
X105092Y-49733D01*
X105092Y-49380D01*
X105092Y-49281D01*
X105092Y-49281D01*
X105092Y-49281D01*
X105079Y-49250D01*
X105300Y-49250D01*
X105300Y-49249D01*
X105414Y-49227D01*
X105414Y-49227D01*
X105512Y-49162D01*
X107043Y-47630D01*
X107056Y-47635D01*
X107189Y-47635D01*
M02*
