G04 (created by PCBNEW (2013-jul-07)-stable) date Wed 26 Aug 2015 08:58:33 PM EDT*
%MOIN*%
G04 Gerber Fmt 3.4, Leading zero omitted, Abs format*
%FSLAX34Y34*%
G01*
G70*
G90*
G04 APERTURE LIST*
%ADD10C,0.00590551*%
%ADD11C,0.00393701*%
G04 APERTURE END LIST*
G54D10*
G54D11*
X110027Y-47810D02*
X110012Y-47780D01*
X110012Y-47735D01*
X110027Y-47690D01*
X110057Y-47660D01*
X110087Y-47645D01*
X110147Y-47630D01*
X110192Y-47630D01*
X110252Y-47645D01*
X110282Y-47660D01*
X110312Y-47690D01*
X110327Y-47735D01*
X110327Y-47765D01*
X110312Y-47810D01*
X110297Y-47825D01*
X110192Y-47825D01*
X110192Y-47765D01*
X110327Y-47960D02*
X110012Y-47960D01*
X110327Y-48139D01*
X110012Y-48139D01*
X110327Y-48289D02*
X110012Y-48289D01*
X110012Y-48364D01*
X110027Y-48409D01*
X110057Y-48439D01*
X110087Y-48454D01*
X110147Y-48469D01*
X110192Y-48469D01*
X110252Y-48454D01*
X110282Y-48439D01*
X110312Y-48409D01*
X110327Y-48364D01*
X110327Y-48289D01*
X109327Y-47847D02*
X109177Y-47742D01*
X109327Y-47667D02*
X109012Y-47667D01*
X109012Y-47787D01*
X109027Y-47817D01*
X109042Y-47832D01*
X109072Y-47847D01*
X109117Y-47847D01*
X109147Y-47832D01*
X109162Y-47817D01*
X109177Y-47787D01*
X109177Y-47667D01*
X109327Y-47982D02*
X109117Y-47982D01*
X109012Y-47982D02*
X109027Y-47967D01*
X109042Y-47982D01*
X109027Y-47997D01*
X109012Y-47982D01*
X109042Y-47982D01*
X109117Y-48267D02*
X109372Y-48267D01*
X109402Y-48252D01*
X109417Y-48237D01*
X109432Y-48207D01*
X109432Y-48162D01*
X109417Y-48132D01*
X109312Y-48267D02*
X109327Y-48237D01*
X109327Y-48177D01*
X109312Y-48147D01*
X109297Y-48132D01*
X109267Y-48117D01*
X109177Y-48117D01*
X109147Y-48132D01*
X109132Y-48147D01*
X109117Y-48177D01*
X109117Y-48237D01*
X109132Y-48267D01*
X109327Y-48417D02*
X109012Y-48417D01*
X109327Y-48552D02*
X109162Y-48552D01*
X109132Y-48537D01*
X109117Y-48507D01*
X109117Y-48462D01*
X109132Y-48432D01*
X109147Y-48417D01*
X109117Y-48657D02*
X109117Y-48777D01*
X109012Y-48702D02*
X109282Y-48702D01*
X109312Y-48717D01*
X109327Y-48747D01*
X109327Y-48777D01*
X107327Y-47832D02*
X107327Y-47682D01*
X107012Y-47682D01*
X107312Y-48057D02*
X107327Y-48027D01*
X107327Y-47967D01*
X107312Y-47937D01*
X107282Y-47922D01*
X107162Y-47922D01*
X107132Y-47937D01*
X107117Y-47967D01*
X107117Y-48027D01*
X107132Y-48057D01*
X107162Y-48072D01*
X107192Y-48072D01*
X107222Y-47922D01*
X107117Y-48162D02*
X107117Y-48282D01*
X107327Y-48207D02*
X107057Y-48207D01*
X107027Y-48222D01*
X107012Y-48252D01*
X107012Y-48282D01*
X107117Y-48342D02*
X107117Y-48462D01*
X107012Y-48387D02*
X107282Y-48387D01*
X107312Y-48402D01*
X107327Y-48432D01*
X107327Y-48462D01*
X108297Y-47847D02*
X108312Y-47832D01*
X108327Y-47787D01*
X108327Y-47757D01*
X108312Y-47712D01*
X108282Y-47682D01*
X108252Y-47667D01*
X108192Y-47652D01*
X108147Y-47652D01*
X108087Y-47667D01*
X108057Y-47682D01*
X108027Y-47712D01*
X108012Y-47757D01*
X108012Y-47787D01*
X108027Y-47832D01*
X108042Y-47847D01*
X108312Y-48102D02*
X108327Y-48072D01*
X108327Y-48012D01*
X108312Y-47982D01*
X108282Y-47967D01*
X108162Y-47967D01*
X108132Y-47982D01*
X108117Y-48012D01*
X108117Y-48072D01*
X108132Y-48102D01*
X108162Y-48117D01*
X108192Y-48117D01*
X108222Y-47967D01*
X108117Y-48252D02*
X108327Y-48252D01*
X108147Y-48252D02*
X108132Y-48267D01*
X108117Y-48297D01*
X108117Y-48342D01*
X108132Y-48372D01*
X108162Y-48387D01*
X108327Y-48387D01*
X108117Y-48492D02*
X108117Y-48612D01*
X108012Y-48537D02*
X108282Y-48537D01*
X108312Y-48552D01*
X108327Y-48582D01*
X108327Y-48612D01*
X108312Y-48837D02*
X108327Y-48807D01*
X108327Y-48747D01*
X108312Y-48717D01*
X108282Y-48702D01*
X108162Y-48702D01*
X108132Y-48717D01*
X108117Y-48747D01*
X108117Y-48807D01*
X108132Y-48837D01*
X108162Y-48852D01*
X108192Y-48852D01*
X108222Y-48702D01*
X108327Y-48987D02*
X108117Y-48987D01*
X108177Y-48987D02*
X108147Y-49002D01*
X108132Y-49017D01*
X108117Y-49047D01*
X108117Y-49077D01*
M02*
