G04 (created by PCBNEW (2013-jul-07)-stable) date Wed 26 Aug 2015 08:58:33 PM EDT*
%MOIN*%
G04 Gerber Fmt 3.4, Leading zero omitted, Abs format*
%FSLAX34Y34*%
G01*
G70*
G90*
G04 APERTURE LIST*
%ADD10C,0.00590551*%
%ADD11C,0.0590551*%
%ADD12R,0.0906X0.0551*%
%ADD13C,0.035*%
%ADD14C,0.01*%
G04 APERTURE END LIST*
G54D10*
G54D11*
X107165Y-47090D03*
X109165Y-47090D03*
X108165Y-47090D03*
X110165Y-47090D03*
G54D12*
X92952Y-50196D03*
X95432Y-51771D03*
X95432Y-50197D03*
X92952Y-51771D03*
X101909Y-49605D03*
X104389Y-51180D03*
X104389Y-49606D03*
X101909Y-51180D03*
X110866Y-50196D03*
X113346Y-51771D03*
X113346Y-50197D03*
X110866Y-51771D03*
G54D13*
X96700Y-49400D03*
X100000Y-49600D03*
G54D14*
X107165Y-47090D02*
X107159Y-47090D01*
X93825Y-50800D02*
X93051Y-51574D01*
X96200Y-50800D02*
X93825Y-50800D01*
X98050Y-48950D02*
X96200Y-50800D01*
X105300Y-48950D02*
X98050Y-48950D01*
X107159Y-47090D02*
X105300Y-48950D01*
X93051Y-49999D02*
X94050Y-49999D01*
X94650Y-49400D02*
X96700Y-49400D01*
X94050Y-49999D02*
X94650Y-49400D01*
X101909Y-49605D02*
X100005Y-49605D01*
X100005Y-49605D02*
X100000Y-49600D01*
X110165Y-47090D02*
X110165Y-49396D01*
X110165Y-49396D02*
X110767Y-49999D01*
X110165Y-47090D02*
X110165Y-47452D01*
X108165Y-47090D02*
X108159Y-47090D01*
X102740Y-50350D02*
X101909Y-51180D01*
X104900Y-50350D02*
X102740Y-50350D01*
X108159Y-47090D02*
X104900Y-50350D01*
X109165Y-47090D02*
X109165Y-49971D01*
X109165Y-49971D02*
X110767Y-51574D01*
G54D10*
G36*
X110345Y-52289D02*
X107080Y-52289D01*
X107080Y-50652D01*
X106977Y-50400D01*
X106785Y-50208D01*
X106534Y-50104D01*
X106262Y-50104D01*
X106011Y-50207D01*
X105818Y-50399D01*
X105714Y-50650D01*
X105714Y-50922D01*
X105818Y-51173D01*
X106010Y-51366D01*
X106261Y-51470D01*
X106532Y-51470D01*
X106784Y-51366D01*
X106976Y-51174D01*
X107080Y-50923D01*
X107080Y-50652D01*
X107080Y-52289D01*
X100584Y-52289D01*
X100584Y-50652D01*
X100480Y-50400D01*
X100289Y-50208D01*
X100038Y-50104D01*
X99766Y-50104D01*
X99515Y-50207D01*
X99322Y-50399D01*
X99218Y-50650D01*
X99218Y-50922D01*
X99322Y-51173D01*
X99514Y-51366D01*
X99765Y-51470D01*
X100036Y-51470D01*
X100287Y-51366D01*
X100480Y-51174D01*
X100584Y-50923D01*
X100584Y-50652D01*
X100584Y-52289D01*
X95953Y-52289D01*
X96027Y-52258D01*
X96097Y-52188D01*
X96135Y-52096D01*
X96135Y-51997D01*
X96135Y-51446D01*
X96097Y-51354D01*
X96027Y-51283D01*
X95935Y-51245D01*
X95836Y-51245D01*
X95131Y-51245D01*
X95131Y-51100D01*
X96200Y-51100D01*
X96200Y-51099D01*
X96314Y-51077D01*
X96314Y-51077D01*
X96412Y-51012D01*
X98174Y-49250D01*
X101219Y-49250D01*
X101206Y-49280D01*
X101206Y-49379D01*
X101206Y-49493D01*
X101269Y-49555D01*
X101859Y-49555D01*
X101859Y-49547D01*
X101959Y-49547D01*
X101959Y-49555D01*
X102550Y-49555D01*
X102612Y-49493D01*
X102612Y-49379D01*
X102612Y-49280D01*
X102599Y-49250D01*
X103699Y-49250D01*
X103686Y-49281D01*
X103686Y-49380D01*
X103686Y-49931D01*
X103724Y-50023D01*
X103750Y-50050D01*
X102740Y-50050D01*
X102625Y-50072D01*
X102612Y-50081D01*
X102612Y-49831D01*
X102612Y-49718D01*
X102550Y-49655D01*
X101959Y-49655D01*
X101959Y-50068D01*
X102022Y-50131D01*
X102412Y-50131D01*
X102504Y-50093D01*
X102574Y-50022D01*
X102612Y-49931D01*
X102612Y-49831D01*
X102612Y-50081D01*
X102528Y-50137D01*
X102010Y-50655D01*
X101859Y-50655D01*
X101859Y-50068D01*
X101859Y-49655D01*
X101269Y-49655D01*
X101206Y-49718D01*
X101206Y-49831D01*
X101206Y-49931D01*
X101244Y-50022D01*
X101315Y-50093D01*
X101407Y-50131D01*
X101797Y-50131D01*
X101859Y-50068D01*
X101859Y-50655D01*
X101407Y-50655D01*
X101315Y-50693D01*
X101244Y-50763D01*
X101206Y-50855D01*
X101206Y-50954D01*
X101206Y-51505D01*
X101244Y-51597D01*
X101314Y-51668D01*
X101406Y-51706D01*
X101506Y-51706D01*
X102412Y-51706D01*
X102504Y-51668D01*
X102574Y-51597D01*
X102612Y-51506D01*
X102612Y-51406D01*
X102612Y-50901D01*
X102864Y-50650D01*
X104671Y-50650D01*
X104671Y-50655D01*
X103887Y-50655D01*
X103795Y-50693D01*
X103724Y-50763D01*
X103686Y-50855D01*
X103686Y-50954D01*
X103686Y-51505D01*
X103724Y-51597D01*
X103794Y-51668D01*
X103886Y-51706D01*
X103986Y-51706D01*
X104892Y-51706D01*
X104984Y-51668D01*
X105054Y-51597D01*
X105092Y-51506D01*
X105092Y-51406D01*
X105092Y-50855D01*
X105054Y-50763D01*
X104984Y-50693D01*
X104977Y-50690D01*
X105094Y-50573D01*
X105112Y-50562D01*
X108043Y-47630D01*
X108056Y-47635D01*
X108273Y-47635D01*
X108473Y-47553D01*
X108627Y-47399D01*
X108665Y-47308D01*
X108702Y-47399D01*
X108856Y-47552D01*
X108865Y-47556D01*
X108865Y-49971D01*
X108888Y-50086D01*
X108953Y-50184D01*
X110178Y-51409D01*
X110163Y-51445D01*
X110163Y-51545D01*
X110163Y-52096D01*
X110201Y-52188D01*
X110271Y-52258D01*
X110345Y-52289D01*
X110345Y-52289D01*
G37*
G54D14*
X110345Y-52289D02*
X107080Y-52289D01*
X107080Y-50652D01*
X106977Y-50400D01*
X106785Y-50208D01*
X106534Y-50104D01*
X106262Y-50104D01*
X106011Y-50207D01*
X105818Y-50399D01*
X105714Y-50650D01*
X105714Y-50922D01*
X105818Y-51173D01*
X106010Y-51366D01*
X106261Y-51470D01*
X106532Y-51470D01*
X106784Y-51366D01*
X106976Y-51174D01*
X107080Y-50923D01*
X107080Y-50652D01*
X107080Y-52289D01*
X100584Y-52289D01*
X100584Y-50652D01*
X100480Y-50400D01*
X100289Y-50208D01*
X100038Y-50104D01*
X99766Y-50104D01*
X99515Y-50207D01*
X99322Y-50399D01*
X99218Y-50650D01*
X99218Y-50922D01*
X99322Y-51173D01*
X99514Y-51366D01*
X99765Y-51470D01*
X100036Y-51470D01*
X100287Y-51366D01*
X100480Y-51174D01*
X100584Y-50923D01*
X100584Y-50652D01*
X100584Y-52289D01*
X95953Y-52289D01*
X96027Y-52258D01*
X96097Y-52188D01*
X96135Y-52096D01*
X96135Y-51997D01*
X96135Y-51446D01*
X96097Y-51354D01*
X96027Y-51283D01*
X95935Y-51245D01*
X95836Y-51245D01*
X95131Y-51245D01*
X95131Y-51100D01*
X96200Y-51100D01*
X96200Y-51099D01*
X96314Y-51077D01*
X96314Y-51077D01*
X96412Y-51012D01*
X98174Y-49250D01*
X101219Y-49250D01*
X101206Y-49280D01*
X101206Y-49379D01*
X101206Y-49493D01*
X101269Y-49555D01*
X101859Y-49555D01*
X101859Y-49547D01*
X101959Y-49547D01*
X101959Y-49555D01*
X102550Y-49555D01*
X102612Y-49493D01*
X102612Y-49379D01*
X102612Y-49280D01*
X102599Y-49250D01*
X103699Y-49250D01*
X103686Y-49281D01*
X103686Y-49380D01*
X103686Y-49931D01*
X103724Y-50023D01*
X103750Y-50050D01*
X102740Y-50050D01*
X102625Y-50072D01*
X102612Y-50081D01*
X102612Y-49831D01*
X102612Y-49718D01*
X102550Y-49655D01*
X101959Y-49655D01*
X101959Y-50068D01*
X102022Y-50131D01*
X102412Y-50131D01*
X102504Y-50093D01*
X102574Y-50022D01*
X102612Y-49931D01*
X102612Y-49831D01*
X102612Y-50081D01*
X102528Y-50137D01*
X102010Y-50655D01*
X101859Y-50655D01*
X101859Y-50068D01*
X101859Y-49655D01*
X101269Y-49655D01*
X101206Y-49718D01*
X101206Y-49831D01*
X101206Y-49931D01*
X101244Y-50022D01*
X101315Y-50093D01*
X101407Y-50131D01*
X101797Y-50131D01*
X101859Y-50068D01*
X101859Y-50655D01*
X101407Y-50655D01*
X101315Y-50693D01*
X101244Y-50763D01*
X101206Y-50855D01*
X101206Y-50954D01*
X101206Y-51505D01*
X101244Y-51597D01*
X101314Y-51668D01*
X101406Y-51706D01*
X101506Y-51706D01*
X102412Y-51706D01*
X102504Y-51668D01*
X102574Y-51597D01*
X102612Y-51506D01*
X102612Y-51406D01*
X102612Y-50901D01*
X102864Y-50650D01*
X104671Y-50650D01*
X104671Y-50655D01*
X103887Y-50655D01*
X103795Y-50693D01*
X103724Y-50763D01*
X103686Y-50855D01*
X103686Y-50954D01*
X103686Y-51505D01*
X103724Y-51597D01*
X103794Y-51668D01*
X103886Y-51706D01*
X103986Y-51706D01*
X104892Y-51706D01*
X104984Y-51668D01*
X105054Y-51597D01*
X105092Y-51506D01*
X105092Y-51406D01*
X105092Y-50855D01*
X105054Y-50763D01*
X104984Y-50693D01*
X104977Y-50690D01*
X105094Y-50573D01*
X105112Y-50562D01*
X108043Y-47630D01*
X108056Y-47635D01*
X108273Y-47635D01*
X108473Y-47553D01*
X108627Y-47399D01*
X108665Y-47308D01*
X108702Y-47399D01*
X108856Y-47552D01*
X108865Y-47556D01*
X108865Y-49971D01*
X108888Y-50086D01*
X108953Y-50184D01*
X110178Y-51409D01*
X110163Y-51445D01*
X110163Y-51545D01*
X110163Y-52096D01*
X110201Y-52188D01*
X110271Y-52258D01*
X110345Y-52289D01*
G54D10*
G36*
X114297Y-52138D02*
X114282Y-52210D01*
X114256Y-52249D01*
X114218Y-52275D01*
X114146Y-52289D01*
X113866Y-52289D01*
X113940Y-52258D01*
X114011Y-52188D01*
X114049Y-52096D01*
X114049Y-51997D01*
X114049Y-51446D01*
X114049Y-50423D01*
X114049Y-49872D01*
X114011Y-49780D01*
X113941Y-49709D01*
X113849Y-49671D01*
X113749Y-49671D01*
X112843Y-49671D01*
X112751Y-49709D01*
X112681Y-49779D01*
X112643Y-49871D01*
X112643Y-49971D01*
X112643Y-50522D01*
X112681Y-50614D01*
X112751Y-50684D01*
X112843Y-50722D01*
X112942Y-50722D01*
X113848Y-50722D01*
X113940Y-50684D01*
X114011Y-50614D01*
X114049Y-50522D01*
X114049Y-50423D01*
X114049Y-51446D01*
X114011Y-51354D01*
X113941Y-51283D01*
X113849Y-51245D01*
X113749Y-51245D01*
X112843Y-51245D01*
X112751Y-51283D01*
X112681Y-51353D01*
X112643Y-51445D01*
X112643Y-51545D01*
X112643Y-52096D01*
X112681Y-52188D01*
X112751Y-52258D01*
X112825Y-52289D01*
X111386Y-52289D01*
X111460Y-52258D01*
X111531Y-52188D01*
X111569Y-52096D01*
X111569Y-51997D01*
X111569Y-51446D01*
X111569Y-50422D01*
X111569Y-49970D01*
X111569Y-49870D01*
X111531Y-49778D01*
X111460Y-49708D01*
X111368Y-49670D01*
X110978Y-49670D01*
X110916Y-49733D01*
X110916Y-50146D01*
X111506Y-50146D01*
X111569Y-50083D01*
X111569Y-49970D01*
X111569Y-50422D01*
X111569Y-50308D01*
X111506Y-50246D01*
X110916Y-50246D01*
X110916Y-50659D01*
X110978Y-50721D01*
X111368Y-50721D01*
X111460Y-50683D01*
X111531Y-50613D01*
X111569Y-50521D01*
X111569Y-50422D01*
X111569Y-51446D01*
X111531Y-51354D01*
X111461Y-51283D01*
X111369Y-51245D01*
X111269Y-51245D01*
X110863Y-51245D01*
X110322Y-50704D01*
X110363Y-50721D01*
X110753Y-50721D01*
X110816Y-50659D01*
X110816Y-50246D01*
X110816Y-50146D01*
X110816Y-49733D01*
X110753Y-49670D01*
X110715Y-49670D01*
X110715Y-47171D01*
X110704Y-46954D01*
X110642Y-46805D01*
X110547Y-46778D01*
X110477Y-46849D01*
X110477Y-46708D01*
X110450Y-46613D01*
X110245Y-46540D01*
X110029Y-46551D01*
X109880Y-46613D01*
X109853Y-46708D01*
X110165Y-47019D01*
X110477Y-46708D01*
X110477Y-46849D01*
X110236Y-47090D01*
X110547Y-47402D01*
X110642Y-47375D01*
X110715Y-47171D01*
X110715Y-49670D01*
X110477Y-49670D01*
X110477Y-47473D01*
X110165Y-47161D01*
X109853Y-47473D01*
X109880Y-47567D01*
X110084Y-47640D01*
X110301Y-47629D01*
X110450Y-47567D01*
X110477Y-47473D01*
X110477Y-49670D01*
X110363Y-49670D01*
X110271Y-49708D01*
X110201Y-49778D01*
X110163Y-49870D01*
X110163Y-49970D01*
X110163Y-50083D01*
X110225Y-50146D01*
X110816Y-50146D01*
X110816Y-50246D01*
X110225Y-50246D01*
X110163Y-50308D01*
X110163Y-50422D01*
X110163Y-50521D01*
X110180Y-50562D01*
X109465Y-49847D01*
X109465Y-47556D01*
X109473Y-47553D01*
X109627Y-47399D01*
X109662Y-47314D01*
X109688Y-47375D01*
X109782Y-47402D01*
X110094Y-47090D01*
X109782Y-46778D01*
X109688Y-46805D01*
X109664Y-46871D01*
X109627Y-46782D01*
X109474Y-46628D01*
X109274Y-46545D01*
X109057Y-46545D01*
X108856Y-46628D01*
X108703Y-46781D01*
X108665Y-46872D01*
X108627Y-46782D01*
X108474Y-46628D01*
X108274Y-46545D01*
X108057Y-46545D01*
X107856Y-46628D01*
X107703Y-46781D01*
X107665Y-46872D01*
X107627Y-46782D01*
X107474Y-46628D01*
X107274Y-46545D01*
X107057Y-46545D01*
X106856Y-46628D01*
X106703Y-46781D01*
X106620Y-46981D01*
X106619Y-47198D01*
X106622Y-47203D01*
X105175Y-48650D01*
X98050Y-48650D01*
X97935Y-48672D01*
X97837Y-48737D01*
X96135Y-50439D01*
X96135Y-50423D01*
X96135Y-49872D01*
X96097Y-49780D01*
X96027Y-49709D01*
X95935Y-49671D01*
X95836Y-49671D01*
X94930Y-49671D01*
X94838Y-49709D01*
X94768Y-49779D01*
X94729Y-49871D01*
X94729Y-49971D01*
X94729Y-50500D01*
X93825Y-50500D01*
X93710Y-50522D01*
X93634Y-50574D01*
X93655Y-50521D01*
X93655Y-50422D01*
X93655Y-49970D01*
X93655Y-49870D01*
X93617Y-49778D01*
X93547Y-49708D01*
X93455Y-49670D01*
X93065Y-49670D01*
X93002Y-49733D01*
X93002Y-50146D01*
X93593Y-50146D01*
X93655Y-50083D01*
X93655Y-49970D01*
X93655Y-50422D01*
X93655Y-50308D01*
X93593Y-50246D01*
X93002Y-50246D01*
X93002Y-50659D01*
X93065Y-50721D01*
X93455Y-50721D01*
X93496Y-50704D01*
X92955Y-51245D01*
X92902Y-51245D01*
X92902Y-50659D01*
X92902Y-50246D01*
X92902Y-50146D01*
X92902Y-49733D01*
X92840Y-49670D01*
X92450Y-49670D01*
X92358Y-49708D01*
X92288Y-49778D01*
X92249Y-49870D01*
X92249Y-49970D01*
X92249Y-50083D01*
X92312Y-50146D01*
X92902Y-50146D01*
X92902Y-50246D01*
X92312Y-50246D01*
X92249Y-50308D01*
X92249Y-50422D01*
X92249Y-50521D01*
X92288Y-50613D01*
X92358Y-50683D01*
X92450Y-50721D01*
X92840Y-50721D01*
X92902Y-50659D01*
X92902Y-51245D01*
X92450Y-51245D01*
X92358Y-51283D01*
X92288Y-51353D01*
X92249Y-51445D01*
X92249Y-51545D01*
X92249Y-52096D01*
X92287Y-52188D01*
X92358Y-52258D01*
X92432Y-52289D01*
X92153Y-52289D01*
X92080Y-52275D01*
X92041Y-52249D01*
X92016Y-52210D01*
X92001Y-52138D01*
X92001Y-47270D01*
X92075Y-46898D01*
X92273Y-46602D01*
X92565Y-46407D01*
X92941Y-46332D01*
X113359Y-46332D01*
X113731Y-46406D01*
X114027Y-46604D01*
X114222Y-46896D01*
X114297Y-47272D01*
X114297Y-52138D01*
X114297Y-52138D01*
G37*
G54D14*
X114297Y-52138D02*
X114282Y-52210D01*
X114256Y-52249D01*
X114218Y-52275D01*
X114146Y-52289D01*
X113866Y-52289D01*
X113940Y-52258D01*
X114011Y-52188D01*
X114049Y-52096D01*
X114049Y-51997D01*
X114049Y-51446D01*
X114049Y-50423D01*
X114049Y-49872D01*
X114011Y-49780D01*
X113941Y-49709D01*
X113849Y-49671D01*
X113749Y-49671D01*
X112843Y-49671D01*
X112751Y-49709D01*
X112681Y-49779D01*
X112643Y-49871D01*
X112643Y-49971D01*
X112643Y-50522D01*
X112681Y-50614D01*
X112751Y-50684D01*
X112843Y-50722D01*
X112942Y-50722D01*
X113848Y-50722D01*
X113940Y-50684D01*
X114011Y-50614D01*
X114049Y-50522D01*
X114049Y-50423D01*
X114049Y-51446D01*
X114011Y-51354D01*
X113941Y-51283D01*
X113849Y-51245D01*
X113749Y-51245D01*
X112843Y-51245D01*
X112751Y-51283D01*
X112681Y-51353D01*
X112643Y-51445D01*
X112643Y-51545D01*
X112643Y-52096D01*
X112681Y-52188D01*
X112751Y-52258D01*
X112825Y-52289D01*
X111386Y-52289D01*
X111460Y-52258D01*
X111531Y-52188D01*
X111569Y-52096D01*
X111569Y-51997D01*
X111569Y-51446D01*
X111569Y-50422D01*
X111569Y-49970D01*
X111569Y-49870D01*
X111531Y-49778D01*
X111460Y-49708D01*
X111368Y-49670D01*
X110978Y-49670D01*
X110916Y-49733D01*
X110916Y-50146D01*
X111506Y-50146D01*
X111569Y-50083D01*
X111569Y-49970D01*
X111569Y-50422D01*
X111569Y-50308D01*
X111506Y-50246D01*
X110916Y-50246D01*
X110916Y-50659D01*
X110978Y-50721D01*
X111368Y-50721D01*
X111460Y-50683D01*
X111531Y-50613D01*
X111569Y-50521D01*
X111569Y-50422D01*
X111569Y-51446D01*
X111531Y-51354D01*
X111461Y-51283D01*
X111369Y-51245D01*
X111269Y-51245D01*
X110863Y-51245D01*
X110322Y-50704D01*
X110363Y-50721D01*
X110753Y-50721D01*
X110816Y-50659D01*
X110816Y-50246D01*
X110816Y-50146D01*
X110816Y-49733D01*
X110753Y-49670D01*
X110715Y-49670D01*
X110715Y-47171D01*
X110704Y-46954D01*
X110642Y-46805D01*
X110547Y-46778D01*
X110477Y-46849D01*
X110477Y-46708D01*
X110450Y-46613D01*
X110245Y-46540D01*
X110029Y-46551D01*
X109880Y-46613D01*
X109853Y-46708D01*
X110165Y-47019D01*
X110477Y-46708D01*
X110477Y-46849D01*
X110236Y-47090D01*
X110547Y-47402D01*
X110642Y-47375D01*
X110715Y-47171D01*
X110715Y-49670D01*
X110477Y-49670D01*
X110477Y-47473D01*
X110165Y-47161D01*
X109853Y-47473D01*
X109880Y-47567D01*
X110084Y-47640D01*
X110301Y-47629D01*
X110450Y-47567D01*
X110477Y-47473D01*
X110477Y-49670D01*
X110363Y-49670D01*
X110271Y-49708D01*
X110201Y-49778D01*
X110163Y-49870D01*
X110163Y-49970D01*
X110163Y-50083D01*
X110225Y-50146D01*
X110816Y-50146D01*
X110816Y-50246D01*
X110225Y-50246D01*
X110163Y-50308D01*
X110163Y-50422D01*
X110163Y-50521D01*
X110180Y-50562D01*
X109465Y-49847D01*
X109465Y-47556D01*
X109473Y-47553D01*
X109627Y-47399D01*
X109662Y-47314D01*
X109688Y-47375D01*
X109782Y-47402D01*
X110094Y-47090D01*
X109782Y-46778D01*
X109688Y-46805D01*
X109664Y-46871D01*
X109627Y-46782D01*
X109474Y-46628D01*
X109274Y-46545D01*
X109057Y-46545D01*
X108856Y-46628D01*
X108703Y-46781D01*
X108665Y-46872D01*
X108627Y-46782D01*
X108474Y-46628D01*
X108274Y-46545D01*
X108057Y-46545D01*
X107856Y-46628D01*
X107703Y-46781D01*
X107665Y-46872D01*
X107627Y-46782D01*
X107474Y-46628D01*
X107274Y-46545D01*
X107057Y-46545D01*
X106856Y-46628D01*
X106703Y-46781D01*
X106620Y-46981D01*
X106619Y-47198D01*
X106622Y-47203D01*
X105175Y-48650D01*
X98050Y-48650D01*
X97935Y-48672D01*
X97837Y-48737D01*
X96135Y-50439D01*
X96135Y-50423D01*
X96135Y-49872D01*
X96097Y-49780D01*
X96027Y-49709D01*
X95935Y-49671D01*
X95836Y-49671D01*
X94930Y-49671D01*
X94838Y-49709D01*
X94768Y-49779D01*
X94729Y-49871D01*
X94729Y-49971D01*
X94729Y-50500D01*
X93825Y-50500D01*
X93710Y-50522D01*
X93634Y-50574D01*
X93655Y-50521D01*
X93655Y-50422D01*
X93655Y-49970D01*
X93655Y-49870D01*
X93617Y-49778D01*
X93547Y-49708D01*
X93455Y-49670D01*
X93065Y-49670D01*
X93002Y-49733D01*
X93002Y-50146D01*
X93593Y-50146D01*
X93655Y-50083D01*
X93655Y-49970D01*
X93655Y-50422D01*
X93655Y-50308D01*
X93593Y-50246D01*
X93002Y-50246D01*
X93002Y-50659D01*
X93065Y-50721D01*
X93455Y-50721D01*
X93496Y-50704D01*
X92955Y-51245D01*
X92902Y-51245D01*
X92902Y-50659D01*
X92902Y-50246D01*
X92902Y-50146D01*
X92902Y-49733D01*
X92840Y-49670D01*
X92450Y-49670D01*
X92358Y-49708D01*
X92288Y-49778D01*
X92249Y-49870D01*
X92249Y-49970D01*
X92249Y-50083D01*
X92312Y-50146D01*
X92902Y-50146D01*
X92902Y-50246D01*
X92312Y-50246D01*
X92249Y-50308D01*
X92249Y-50422D01*
X92249Y-50521D01*
X92288Y-50613D01*
X92358Y-50683D01*
X92450Y-50721D01*
X92840Y-50721D01*
X92902Y-50659D01*
X92902Y-51245D01*
X92450Y-51245D01*
X92358Y-51283D01*
X92288Y-51353D01*
X92249Y-51445D01*
X92249Y-51545D01*
X92249Y-52096D01*
X92287Y-52188D01*
X92358Y-52258D01*
X92432Y-52289D01*
X92153Y-52289D01*
X92080Y-52275D01*
X92041Y-52249D01*
X92016Y-52210D01*
X92001Y-52138D01*
X92001Y-47270D01*
X92075Y-46898D01*
X92273Y-46602D01*
X92565Y-46407D01*
X92941Y-46332D01*
X113359Y-46332D01*
X113731Y-46406D01*
X114027Y-46604D01*
X114222Y-46896D01*
X114297Y-47272D01*
X114297Y-52138D01*
G54D10*
G36*
X94831Y-52289D02*
X93750Y-52289D01*
X93750Y-51299D01*
X93950Y-51100D01*
X94831Y-51100D01*
X94831Y-51290D01*
X94768Y-51353D01*
X94729Y-51445D01*
X94729Y-51545D01*
X94729Y-51997D01*
X94729Y-52096D01*
X94729Y-52096D01*
X94729Y-52096D01*
X94748Y-52142D01*
X94767Y-52188D01*
X94768Y-52188D01*
X94768Y-52188D01*
X94803Y-52223D01*
X94831Y-52252D01*
X94831Y-52289D01*
X94831Y-52289D01*
G37*
G54D14*
X94831Y-52289D02*
X93750Y-52289D01*
X93750Y-51299D01*
X93950Y-51100D01*
X94831Y-51100D01*
X94831Y-51290D01*
X94768Y-51353D01*
X94729Y-51445D01*
X94729Y-51545D01*
X94729Y-51997D01*
X94729Y-52096D01*
X94729Y-52096D01*
X94729Y-52096D01*
X94748Y-52142D01*
X94767Y-52188D01*
X94768Y-52188D01*
X94768Y-52188D01*
X94803Y-52223D01*
X94831Y-52252D01*
X94831Y-52289D01*
G54D10*
G36*
X107189Y-47635D02*
X105092Y-49733D01*
X105092Y-49380D01*
X105092Y-49281D01*
X105092Y-49281D01*
X105092Y-49281D01*
X105079Y-49250D01*
X105300Y-49250D01*
X105300Y-49249D01*
X105414Y-49227D01*
X105414Y-49227D01*
X105512Y-49162D01*
X107043Y-47630D01*
X107056Y-47635D01*
X107189Y-47635D01*
X107189Y-47635D01*
G37*
G54D14*
X107189Y-47635D02*
X105092Y-49733D01*
X105092Y-49380D01*
X105092Y-49281D01*
X105092Y-49281D01*
X105092Y-49281D01*
X105079Y-49250D01*
X105300Y-49250D01*
X105300Y-49249D01*
X105414Y-49227D01*
X105414Y-49227D01*
X105512Y-49162D01*
X107043Y-47630D01*
X107056Y-47635D01*
X107189Y-47635D01*
M02*
