G04 (created by PCBNEW (2013-may-18)-stable) date Tue 15 Sep 2015 06:47:13 PM EDT*
%MOIN*%
G04 Gerber Fmt 3.4, Leading zero omitted, Abs format*
%FSLAX34Y34*%
G01*
G70*
G90*
G04 APERTURE LIST*
%ADD10C,0.00590551*%
%ADD11C,0.0001*%
%ADD12C,0.065*%
%ADD13C,0.0590551*%
%ADD14R,0.0590551X0.0590551*%
%ADD15C,0.055*%
%ADD16C,0.066*%
%ADD17C,0.09*%
%ADD18C,0.09*%
%ADD19C,0.157*%
%ADD20C,0.067*%
G04 APERTURE END LIST*
G54D10*
G54D11*
G36*
X95727Y-44804D02*
X95727Y-44825D01*
X95727Y-44845D01*
X95727Y-44864D01*
X95727Y-44881D01*
X95727Y-44896D01*
X95727Y-44911D01*
X95726Y-44923D01*
X95726Y-44935D01*
X95726Y-44946D01*
X95726Y-44955D01*
X95726Y-44964D01*
X95726Y-44971D01*
X95726Y-44978D01*
X95725Y-44984D01*
X95725Y-44989D01*
X95725Y-44994D01*
X95724Y-44998D01*
X95724Y-45001D01*
X95724Y-45005D01*
X95723Y-45007D01*
X95723Y-45010D01*
X95722Y-45012D01*
X95722Y-45015D01*
X95721Y-45017D01*
X95721Y-45019D01*
X95720Y-45021D01*
X95720Y-45024D01*
X95719Y-45026D01*
X95718Y-45028D01*
X95715Y-45040D01*
X95712Y-45051D01*
X95708Y-45061D01*
X95703Y-45072D01*
X95698Y-45083D01*
X95686Y-45105D01*
X95672Y-45125D01*
X95657Y-45144D01*
X95640Y-45162D01*
X95622Y-45178D01*
X95602Y-45192D01*
X95581Y-45205D01*
X95571Y-45210D01*
X95552Y-45219D01*
X95533Y-45226D01*
X95513Y-45231D01*
X95492Y-45236D01*
X95489Y-45236D01*
X95475Y-45239D01*
X94956Y-45239D01*
X94923Y-45239D01*
X94889Y-45239D01*
X94856Y-45239D01*
X94824Y-45239D01*
X94793Y-45239D01*
X94762Y-45239D01*
X94733Y-45239D01*
X94704Y-45239D01*
X94676Y-45239D01*
X94649Y-45239D01*
X94624Y-45239D01*
X94599Y-45239D01*
X94576Y-45239D01*
X94555Y-45239D01*
X94535Y-45239D01*
X94516Y-45239D01*
X94499Y-45239D01*
X94484Y-45239D01*
X94470Y-45239D01*
X94458Y-45239D01*
X94448Y-45239D01*
X94440Y-45238D01*
X94434Y-45238D01*
X94430Y-45238D01*
X94428Y-45238D01*
X94428Y-45238D01*
X94403Y-45235D01*
X94379Y-45229D01*
X94356Y-45222D01*
X94334Y-45212D01*
X94312Y-45201D01*
X94292Y-45188D01*
X94273Y-45174D01*
X94255Y-45157D01*
X94239Y-45140D01*
X94224Y-45120D01*
X94211Y-45100D01*
X94202Y-45083D01*
X94197Y-45072D01*
X94192Y-45061D01*
X94188Y-45050D01*
X94185Y-45040D01*
X94182Y-45028D01*
X94181Y-45025D01*
X94180Y-45022D01*
X94180Y-45020D01*
X94179Y-45018D01*
X94178Y-45016D01*
X94178Y-45013D01*
X94177Y-45011D01*
X94177Y-45009D01*
X94176Y-45006D01*
X94176Y-45003D01*
X94176Y-45000D01*
X94175Y-44996D01*
X94175Y-44992D01*
X94175Y-44987D01*
X94175Y-44981D01*
X94174Y-44975D01*
X94174Y-44968D01*
X94174Y-44960D01*
X94174Y-44951D01*
X94174Y-44941D01*
X94174Y-44930D01*
X94174Y-44917D01*
X94173Y-44904D01*
X94173Y-44889D01*
X94173Y-44873D01*
X94173Y-44855D01*
X94173Y-44836D01*
X94173Y-44815D01*
X94173Y-44793D01*
X94173Y-44769D01*
X94173Y-44743D01*
X94173Y-44715D01*
X94173Y-44685D01*
X94173Y-44653D01*
X94173Y-44619D01*
X94173Y-44600D01*
X94173Y-44566D01*
X94173Y-44533D01*
X94173Y-44502D01*
X94173Y-44473D01*
X94173Y-44446D01*
X94173Y-44421D01*
X94173Y-44397D01*
X94173Y-44376D01*
X94173Y-44356D01*
X94173Y-44337D01*
X94173Y-44320D01*
X94173Y-44305D01*
X94173Y-44291D01*
X94174Y-44278D01*
X94174Y-44266D01*
X94174Y-44255D01*
X94174Y-44246D01*
X94174Y-44237D01*
X94174Y-44230D01*
X94174Y-44223D01*
X94175Y-44217D01*
X94175Y-44212D01*
X94175Y-44207D01*
X94176Y-44203D01*
X94176Y-44200D01*
X94176Y-44197D01*
X94177Y-44194D01*
X94177Y-44191D01*
X94178Y-44189D01*
X94178Y-44187D01*
X94179Y-44184D01*
X94179Y-44182D01*
X94180Y-44180D01*
X94180Y-44177D01*
X94181Y-44175D01*
X94182Y-44173D01*
X94185Y-44161D01*
X94188Y-44150D01*
X94192Y-44140D01*
X94197Y-44129D01*
X94202Y-44118D01*
X94214Y-44096D01*
X94228Y-44076D01*
X94243Y-44056D01*
X94260Y-44039D01*
X94279Y-44022D01*
X94299Y-44008D01*
X94308Y-44002D01*
X94318Y-43997D01*
X94328Y-43991D01*
X94339Y-43986D01*
X94349Y-43982D01*
X94357Y-43979D01*
X94366Y-43976D01*
X94376Y-43973D01*
X94388Y-43970D01*
X94400Y-43967D01*
X94410Y-43965D01*
X94415Y-43964D01*
X94417Y-43964D01*
X94418Y-43964D01*
X94419Y-43964D01*
X94421Y-43964D01*
X94423Y-43963D01*
X94425Y-43963D01*
X94428Y-43963D01*
X94431Y-43963D01*
X94435Y-43963D01*
X94439Y-43963D01*
X94444Y-43963D01*
X94449Y-43963D01*
X94456Y-43963D01*
X94463Y-43963D01*
X94471Y-43963D01*
X94480Y-43963D01*
X94490Y-43962D01*
X94501Y-43962D01*
X94513Y-43962D01*
X94527Y-43962D01*
X94541Y-43962D01*
X94557Y-43962D01*
X94575Y-43962D01*
X94593Y-43962D01*
X94614Y-43962D01*
X94635Y-43962D01*
X94659Y-43962D01*
X94684Y-43962D01*
X94711Y-43962D01*
X94740Y-43962D01*
X94770Y-43962D01*
X94802Y-43962D01*
X94837Y-43962D01*
X94873Y-43962D01*
X94912Y-43962D01*
X94950Y-43962D01*
X94990Y-43962D01*
X95029Y-43962D01*
X95065Y-43962D01*
X95099Y-43962D01*
X95132Y-43962D01*
X95162Y-43962D01*
X95191Y-43962D01*
X95217Y-43962D01*
X95242Y-43962D01*
X95266Y-43962D01*
X95287Y-43962D01*
X95308Y-43962D01*
X95326Y-43962D01*
X95344Y-43962D01*
X95359Y-43962D01*
X95374Y-43962D01*
X95387Y-43962D01*
X95400Y-43962D01*
X95411Y-43962D01*
X95421Y-43963D01*
X95429Y-43963D01*
X95438Y-43963D01*
X95445Y-43963D01*
X95451Y-43963D01*
X95456Y-43963D01*
X95461Y-43963D01*
X95466Y-43963D01*
X95469Y-43963D01*
X95472Y-43963D01*
X95475Y-43963D01*
X95477Y-43963D01*
X95479Y-43964D01*
X95481Y-43964D01*
X95482Y-43964D01*
X95483Y-43964D01*
X95485Y-43964D01*
X95495Y-43966D01*
X95506Y-43968D01*
X95518Y-43971D01*
X95529Y-43974D01*
X95539Y-43977D01*
X95543Y-43979D01*
X95553Y-43983D01*
X95563Y-43987D01*
X95574Y-43993D01*
X95585Y-43998D01*
X95594Y-44004D01*
X95601Y-44008D01*
X95621Y-44023D01*
X95640Y-44039D01*
X95657Y-44057D01*
X95672Y-44076D01*
X95686Y-44096D01*
X95698Y-44118D01*
X95703Y-44129D01*
X95708Y-44140D01*
X95712Y-44151D01*
X95715Y-44162D01*
X95718Y-44173D01*
X95719Y-44176D01*
X95720Y-44179D01*
X95720Y-44181D01*
X95721Y-44183D01*
X95722Y-44185D01*
X95722Y-44188D01*
X95723Y-44190D01*
X95723Y-44192D01*
X95724Y-44195D01*
X95724Y-44198D01*
X95724Y-44201D01*
X95725Y-44205D01*
X95725Y-44209D01*
X95725Y-44214D01*
X95725Y-44220D01*
X95726Y-44226D01*
X95726Y-44233D01*
X95726Y-44241D01*
X95726Y-44250D01*
X95726Y-44260D01*
X95726Y-44271D01*
X95726Y-44284D01*
X95727Y-44297D01*
X95727Y-44312D01*
X95727Y-44328D01*
X95727Y-44346D01*
X95727Y-44365D01*
X95727Y-44386D01*
X95727Y-44408D01*
X95727Y-44432D01*
X95727Y-44459D01*
X95727Y-44486D01*
X95727Y-44516D01*
X95727Y-44548D01*
X95727Y-44582D01*
X95727Y-44600D01*
X95727Y-44635D01*
X95727Y-44668D01*
X95727Y-44699D01*
X95727Y-44728D01*
X95727Y-44755D01*
X95727Y-44780D01*
X95727Y-44804D01*
X95727Y-44804D01*
X95727Y-44804D01*
G37*
G54D12*
X96000Y-44500D03*
X100000Y-44500D03*
G54D13*
X98000Y-41300D03*
G54D14*
X96000Y-41300D03*
X95500Y-45500D03*
G54D13*
X95500Y-42250D03*
G54D14*
X95500Y-46500D03*
G54D13*
X100100Y-41300D03*
X100500Y-42250D03*
G54D14*
X100500Y-45500D03*
G54D15*
X99500Y-45500D03*
X96500Y-45500D03*
G54D13*
X96500Y-46500D03*
G54D14*
X99500Y-46500D03*
G54D16*
X97500Y-45500D03*
X98500Y-45500D03*
G54D17*
X99000Y-41500D02*
X98984Y-41728D01*
G54D18*
X97015Y-41925D03*
X96500Y-42500D03*
G54D19*
X98000Y-43500D03*
G54D20*
X96000Y-43500D03*
X100000Y-43500D03*
G54D13*
X100500Y-46500D03*
M02*
