G04 (created by PCBNEW (2013-may-18)-stable) date Mon 24 Aug 2015 12:51:38 AM EDT*
%MOIN*%
G04 Gerber Fmt 3.4, Leading zero omitted, Abs format*
%FSLAX34Y34*%
G01*
G70*
G90*
G04 APERTURE LIST*
%ADD10C,0.00590551*%
%ADD11C,0.00393701*%
%ADD12C,0.00984252*%
%ADD13C,0.00492126*%
%ADD14C,0.00787402*%
%ADD15C,0.015*%
%ADD16C,0.012*%
%ADD17C,0.011811*%
%ADD18C,0.0039*%
G04 APERTURE END LIST*
G54D10*
G54D11*
X101325Y-41700D02*
X101025Y-41700D01*
G54D10*
X101318Y-42045D02*
X101318Y-41809D01*
X101262Y-41809D01*
X101228Y-41820D01*
X101206Y-41843D01*
X101195Y-41865D01*
X101183Y-41910D01*
X101183Y-41944D01*
X101195Y-41989D01*
X101206Y-42011D01*
X101228Y-42034D01*
X101262Y-42045D01*
X101318Y-42045D01*
G54D11*
X95150Y-44600D02*
X95150Y-44200D01*
G54D10*
X94533Y-44520D02*
X94612Y-44408D01*
X94668Y-44520D02*
X94668Y-44284D01*
X94578Y-44284D01*
X94556Y-44295D01*
X94545Y-44306D01*
X94533Y-44329D01*
X94533Y-44363D01*
X94545Y-44385D01*
X94556Y-44396D01*
X94578Y-44408D01*
X94668Y-44408D01*
G54D11*
X95150Y-44400D02*
X94750Y-44400D01*
X95725Y-45350D02*
X95725Y-44950D01*
G54D10*
X97013Y-43355D02*
X96983Y-43119D01*
X96926Y-43288D01*
X96826Y-43119D01*
X96855Y-43355D01*
X96736Y-43119D02*
X96608Y-43355D01*
X96578Y-43119D02*
X96765Y-43355D01*
G54D12*
X98414Y-42150D02*
X98339Y-42150D01*
X98304Y-42169D01*
X98271Y-42206D01*
X98261Y-42281D01*
X98278Y-42413D01*
X98306Y-42488D01*
X98348Y-42525D01*
X98388Y-42544D01*
X98463Y-42544D01*
X98498Y-42525D01*
X98531Y-42488D01*
X98540Y-42413D01*
X98524Y-42281D01*
X98496Y-42206D01*
X98454Y-42169D01*
X98414Y-42150D01*
X99005Y-42733D02*
X98955Y-42339D01*
X98859Y-42620D01*
X98693Y-42339D01*
X98742Y-42733D01*
X97357Y-42501D02*
X97170Y-42501D01*
X97409Y-42614D02*
X97228Y-42220D01*
X97146Y-42614D01*
X99310Y-42872D02*
X99123Y-42872D01*
X99362Y-42985D02*
X99181Y-42591D01*
X99099Y-42985D01*
X98078Y-42247D02*
X97947Y-42247D01*
X97916Y-42453D02*
X98104Y-42453D01*
X98055Y-42059D01*
X97867Y-42059D01*
X97574Y-42247D02*
X97520Y-42265D01*
X97503Y-42284D01*
X97489Y-42322D01*
X97496Y-42378D01*
X97520Y-42415D01*
X97541Y-42434D01*
X97581Y-42453D01*
X97731Y-42453D01*
X97681Y-42059D01*
X97550Y-42059D01*
X97515Y-42078D01*
X97499Y-42097D01*
X97484Y-42134D01*
X97489Y-42172D01*
X97513Y-42209D01*
X97534Y-42228D01*
X97574Y-42247D01*
X97705Y-42247D01*
G54D11*
X99875Y-42650D02*
X100800Y-42650D01*
X100742Y-43110D02*
X100952Y-43159D01*
X100742Y-43260D01*
X100952Y-43519D02*
X100952Y-43339D01*
X100952Y-43429D02*
X100637Y-43468D01*
X100682Y-43432D01*
X100712Y-43399D01*
X100727Y-43367D01*
X100922Y-43657D02*
X100937Y-43670D01*
X100952Y-43654D01*
X100937Y-43640D01*
X100922Y-43657D01*
X100952Y-43654D01*
X100952Y-43969D02*
X100952Y-43789D01*
X100952Y-43879D02*
X100637Y-43918D01*
X100682Y-43882D01*
X100712Y-43849D01*
X100727Y-43817D01*
X100922Y-44107D02*
X100937Y-44120D01*
X100952Y-44104D01*
X100937Y-44090D01*
X100922Y-44107D01*
X100952Y-44104D01*
X100637Y-44353D02*
X100637Y-44383D01*
X100652Y-44411D01*
X100667Y-44424D01*
X100697Y-44435D01*
X100757Y-44443D01*
X100832Y-44433D01*
X100892Y-44411D01*
X100922Y-44392D01*
X100937Y-44375D01*
X100952Y-44343D01*
X100952Y-44313D01*
X100937Y-44285D01*
X100922Y-44272D01*
X100892Y-44261D01*
X100832Y-44254D01*
X100757Y-44263D01*
X100697Y-44285D01*
X100667Y-44304D01*
X100652Y-44321D01*
X100637Y-44353D01*
X98500Y-45700D02*
X98500Y-46200D01*
X97500Y-45700D02*
X97500Y-46200D01*
G54D13*
X96546Y-44998D02*
X96453Y-44998D01*
X96565Y-45054D02*
X96499Y-44857D01*
X96434Y-45054D01*
G54D11*
X96350Y-44900D02*
X96350Y-45400D01*
X99650Y-44900D02*
X99650Y-45400D01*
G54D14*
X96075Y-41400D02*
X97025Y-41400D01*
X95075Y-42275D02*
X95075Y-41600D01*
G54D10*
X99893Y-46145D02*
X99893Y-45909D01*
X99837Y-45909D01*
X99803Y-45920D01*
X99781Y-45943D01*
X99770Y-45965D01*
X99758Y-46010D01*
X99758Y-46044D01*
X99770Y-46089D01*
X99781Y-46111D01*
X99803Y-46134D01*
X99837Y-46145D01*
X99893Y-46145D01*
G54D11*
X99675Y-46050D02*
X99675Y-45650D01*
X96325Y-46025D02*
X96325Y-45625D01*
G54D10*
X96218Y-46070D02*
X96218Y-45834D01*
X96162Y-45834D01*
X96128Y-45845D01*
X96106Y-45868D01*
X96095Y-45890D01*
X96083Y-45935D01*
X96083Y-45969D01*
X96095Y-46014D01*
X96106Y-46036D01*
X96128Y-46059D01*
X96162Y-46070D01*
X96218Y-46070D01*
G54D13*
X97396Y-46148D02*
X97303Y-46148D01*
X97415Y-46204D02*
X97349Y-46007D01*
X97284Y-46204D01*
X98589Y-46185D02*
X98598Y-46195D01*
X98626Y-46204D01*
X98645Y-46204D01*
X98673Y-46195D01*
X98692Y-46176D01*
X98701Y-46157D01*
X98710Y-46120D01*
X98710Y-46092D01*
X98701Y-46054D01*
X98692Y-46035D01*
X98673Y-46017D01*
X98645Y-46007D01*
X98626Y-46007D01*
X98598Y-46017D01*
X98589Y-46026D01*
X99439Y-45035D02*
X99448Y-45045D01*
X99476Y-45054D01*
X99495Y-45054D01*
X99523Y-45045D01*
X99542Y-45026D01*
X99551Y-45007D01*
X99560Y-44970D01*
X99560Y-44942D01*
X99551Y-44904D01*
X99542Y-44885D01*
X99523Y-44867D01*
X99495Y-44857D01*
X99476Y-44857D01*
X99448Y-44867D01*
X99439Y-44876D01*
G54D14*
X97475Y-46375D02*
X96500Y-46375D01*
X98125Y-46075D02*
X98125Y-46600D01*
G54D11*
X97782Y-41541D02*
X97782Y-40891D01*
G54D14*
X101125Y-46250D02*
X100500Y-46250D01*
X94900Y-46250D02*
X95500Y-46250D01*
X101275Y-45275D02*
X100475Y-45275D01*
X98575Y-46375D02*
X99450Y-46375D01*
X97862Y-46587D02*
X97862Y-46462D01*
X98112Y-46337D02*
X97862Y-46587D01*
X97862Y-46087D02*
X98112Y-46337D01*
X97862Y-46487D02*
X97862Y-46087D01*
X95715Y-41887D02*
X95670Y-41902D01*
X95595Y-41902D01*
X95565Y-41887D01*
X95550Y-41872D01*
X95535Y-41842D01*
X95535Y-41812D01*
X95550Y-41782D01*
X95565Y-41767D01*
X95595Y-41752D01*
X95655Y-41737D01*
X95685Y-41722D01*
X95700Y-41707D01*
X95715Y-41677D01*
X95715Y-41647D01*
X95700Y-41617D01*
X95685Y-41602D01*
X95655Y-41587D01*
X95580Y-41587D01*
X95535Y-41602D01*
X95220Y-41902D02*
X95325Y-41752D01*
X95400Y-41902D02*
X95400Y-41587D01*
X95280Y-41587D01*
X95250Y-41602D01*
X95235Y-41617D01*
X95220Y-41647D01*
X95220Y-41692D01*
X95235Y-41722D01*
X95250Y-41737D01*
X95280Y-41752D01*
X95400Y-41752D01*
G54D10*
X97703Y-41132D02*
X97669Y-41143D01*
X97613Y-41143D01*
X97590Y-41132D01*
X97579Y-41121D01*
X97568Y-41098D01*
X97568Y-41076D01*
X97579Y-41053D01*
X97590Y-41042D01*
X97613Y-41031D01*
X97658Y-41019D01*
X97680Y-41008D01*
X97691Y-40997D01*
X97703Y-40974D01*
X97703Y-40952D01*
X97691Y-40929D01*
X97680Y-40918D01*
X97658Y-40907D01*
X97601Y-40907D01*
X97568Y-40918D01*
X97331Y-41121D02*
X97343Y-41132D01*
X97376Y-41143D01*
X97399Y-41143D01*
X97433Y-41132D01*
X97455Y-41109D01*
X97466Y-41087D01*
X97478Y-41042D01*
X97478Y-41008D01*
X97466Y-40963D01*
X97455Y-40941D01*
X97433Y-40918D01*
X97399Y-40907D01*
X97376Y-40907D01*
X97343Y-40918D01*
X97331Y-40929D01*
X101130Y-46109D02*
X101096Y-46120D01*
X101040Y-46120D01*
X101017Y-46109D01*
X101006Y-46098D01*
X100995Y-46075D01*
X100995Y-46053D01*
X101006Y-46030D01*
X101017Y-46019D01*
X101040Y-46008D01*
X101085Y-45996D01*
X101107Y-45985D01*
X101118Y-45974D01*
X101130Y-45951D01*
X101130Y-45929D01*
X101118Y-45906D01*
X101107Y-45895D01*
X101085Y-45884D01*
X101028Y-45884D01*
X100995Y-45895D01*
X100758Y-46098D02*
X100770Y-46109D01*
X100803Y-46120D01*
X100826Y-46120D01*
X100860Y-46109D01*
X100882Y-46086D01*
X100893Y-46064D01*
X100905Y-46019D01*
X100905Y-45985D01*
X100893Y-45940D01*
X100882Y-45918D01*
X100860Y-45895D01*
X100826Y-45884D01*
X100803Y-45884D01*
X100770Y-45895D01*
X100758Y-45906D01*
G54D14*
X98850Y-46827D02*
X99000Y-46827D01*
X99000Y-46512D01*
X98565Y-46797D02*
X98580Y-46812D01*
X98625Y-46827D01*
X98655Y-46827D01*
X98700Y-46812D01*
X98730Y-46782D01*
X98745Y-46752D01*
X98760Y-46692D01*
X98760Y-46647D01*
X98745Y-46587D01*
X98730Y-46557D01*
X98700Y-46527D01*
X98655Y-46512D01*
X98625Y-46512D01*
X98580Y-46527D01*
X98565Y-46542D01*
G54D10*
X95131Y-46120D02*
X95243Y-46120D01*
X95243Y-45884D01*
X94917Y-46098D02*
X94928Y-46109D01*
X94962Y-46120D01*
X94985Y-46120D01*
X95018Y-46109D01*
X95041Y-46086D01*
X95052Y-46064D01*
X95063Y-46019D01*
X95063Y-45985D01*
X95052Y-45940D01*
X95041Y-45918D01*
X95018Y-45895D01*
X94985Y-45884D01*
X94962Y-45884D01*
X94928Y-45895D01*
X94917Y-45906D01*
G54D14*
X101100Y-45152D02*
X101250Y-45152D01*
X101250Y-44837D01*
X100815Y-45152D02*
X100920Y-45002D01*
X100995Y-45152D02*
X100995Y-44837D01*
X100875Y-44837D01*
X100845Y-44852D01*
X100830Y-44867D01*
X100815Y-44897D01*
X100815Y-44942D01*
X100830Y-44972D01*
X100845Y-44987D01*
X100875Y-45002D01*
X100995Y-45002D01*
G54D10*
X100255Y-42534D02*
X100221Y-42545D01*
X100165Y-42545D01*
X100142Y-42534D01*
X100131Y-42523D01*
X100120Y-42500D01*
X100120Y-42478D01*
X100131Y-42455D01*
X100142Y-42444D01*
X100165Y-42433D01*
X100210Y-42421D01*
X100232Y-42410D01*
X100243Y-42399D01*
X100255Y-42376D01*
X100255Y-42354D01*
X100243Y-42331D01*
X100232Y-42320D01*
X100210Y-42309D01*
X100153Y-42309D01*
X100120Y-42320D01*
X99883Y-42545D02*
X99962Y-42433D01*
X100018Y-42545D02*
X100018Y-42309D01*
X99928Y-42309D01*
X99906Y-42320D01*
X99895Y-42331D01*
X99883Y-42354D01*
X99883Y-42388D01*
X99895Y-42410D01*
X99906Y-42421D01*
X99928Y-42433D01*
X100018Y-42433D01*
G54D14*
X97465Y-46812D02*
X97420Y-46827D01*
X97345Y-46827D01*
X97315Y-46812D01*
X97300Y-46797D01*
X97285Y-46767D01*
X97285Y-46737D01*
X97300Y-46707D01*
X97315Y-46692D01*
X97345Y-46677D01*
X97405Y-46662D01*
X97435Y-46647D01*
X97450Y-46632D01*
X97465Y-46602D01*
X97465Y-46572D01*
X97450Y-46542D01*
X97435Y-46527D01*
X97405Y-46512D01*
X97330Y-46512D01*
X97285Y-46527D01*
X96970Y-46797D02*
X96985Y-46812D01*
X97030Y-46827D01*
X97060Y-46827D01*
X97105Y-46812D01*
X97135Y-46782D01*
X97150Y-46752D01*
X97165Y-46692D01*
X97165Y-46647D01*
X97150Y-46587D01*
X97135Y-46557D01*
X97105Y-46527D01*
X97060Y-46512D01*
X97030Y-46512D01*
X96985Y-46527D01*
X96970Y-46542D01*
X96350Y-41852D02*
X96500Y-41852D01*
X96500Y-41537D01*
X96065Y-41822D02*
X96080Y-41837D01*
X96125Y-41852D01*
X96155Y-41852D01*
X96200Y-41837D01*
X96230Y-41807D01*
X96245Y-41777D01*
X96260Y-41717D01*
X96260Y-41672D01*
X96245Y-41612D01*
X96230Y-41582D01*
X96200Y-41552D01*
X96155Y-41537D01*
X96125Y-41537D01*
X96080Y-41552D01*
X96065Y-41567D01*
G54D10*
X96031Y-45195D02*
X96143Y-45195D01*
X96143Y-44959D01*
X95817Y-45195D02*
X95896Y-45083D01*
X95952Y-45195D02*
X95952Y-44959D01*
X95862Y-44959D01*
X95840Y-44970D01*
X95828Y-44981D01*
X95817Y-45004D01*
X95817Y-45038D01*
X95828Y-45060D01*
X95840Y-45071D01*
X95862Y-45083D01*
X95952Y-45083D01*
G54D15*
X96750Y-45000D02*
X99250Y-45000D01*
X99250Y-45000D02*
X99250Y-44000D01*
X99250Y-44000D02*
X96750Y-44000D01*
X96750Y-44000D02*
X96750Y-45000D01*
X100000Y-44500D02*
X99250Y-44500D01*
X96000Y-44500D02*
X96750Y-44500D01*
G54D16*
X99500Y-45500D02*
X99200Y-45500D01*
X99200Y-45500D02*
X99200Y-45900D01*
X99200Y-45900D02*
X96800Y-45900D01*
X96800Y-45900D02*
X96800Y-45500D01*
X96800Y-45500D02*
X96500Y-45500D01*
X96800Y-45500D02*
X96800Y-45100D01*
X96800Y-45100D02*
X99200Y-45100D01*
X99200Y-45100D02*
X99200Y-45500D01*
X99000Y-45900D02*
X99000Y-45100D01*
X98900Y-45100D02*
X98900Y-45900D01*
G54D17*
X100582Y-41900D02*
X101025Y-41900D01*
X101025Y-41900D02*
X101025Y-41100D01*
X101025Y-41100D02*
X100582Y-41100D01*
X100156Y-41900D02*
X99725Y-41900D01*
X99725Y-41900D02*
X99725Y-41100D01*
X99725Y-41100D02*
X100156Y-41100D01*
G54D14*
X100475Y-41650D02*
X100475Y-41350D01*
X100300Y-41650D02*
X100300Y-41350D01*
X100300Y-41350D02*
X100450Y-41500D01*
X100450Y-41500D02*
X100300Y-41650D01*
G54D18*
X95500Y-43750D02*
G75*
G03X95500Y-43750I-50J0D01*
G74*
G01*
X95450Y-44200D02*
X95450Y-43800D01*
X95450Y-43800D02*
X94850Y-43800D01*
X94850Y-43800D02*
X94850Y-44200D01*
X94850Y-44600D02*
X94850Y-45000D01*
X94850Y-45000D02*
X95450Y-45000D01*
X95450Y-45000D02*
X95450Y-44600D01*
G54D14*
X98862Y-44627D02*
X98967Y-44477D01*
X99042Y-44627D02*
X99042Y-44312D01*
X98922Y-44312D01*
X98892Y-44327D01*
X98877Y-44342D01*
X98862Y-44372D01*
X98862Y-44417D01*
X98877Y-44447D01*
X98892Y-44462D01*
X98922Y-44477D01*
X99042Y-44477D01*
X98727Y-44462D02*
X98622Y-44462D01*
X98577Y-44627D02*
X98727Y-44627D01*
X98727Y-44312D01*
X98577Y-44312D01*
X98457Y-44612D02*
X98412Y-44627D01*
X98337Y-44627D01*
X98307Y-44612D01*
X98292Y-44597D01*
X98277Y-44567D01*
X98277Y-44537D01*
X98292Y-44507D01*
X98307Y-44492D01*
X98337Y-44477D01*
X98397Y-44462D01*
X98427Y-44447D01*
X98442Y-44432D01*
X98457Y-44402D01*
X98457Y-44372D01*
X98442Y-44342D01*
X98427Y-44327D01*
X98397Y-44312D01*
X98322Y-44312D01*
X98277Y-44327D01*
X98142Y-44627D02*
X98142Y-44312D01*
X98007Y-44612D02*
X97962Y-44627D01*
X97887Y-44627D01*
X97857Y-44612D01*
X97842Y-44597D01*
X97827Y-44567D01*
X97827Y-44537D01*
X97842Y-44507D01*
X97857Y-44492D01*
X97887Y-44477D01*
X97947Y-44462D01*
X97977Y-44447D01*
X97992Y-44432D01*
X98007Y-44402D01*
X98007Y-44372D01*
X97992Y-44342D01*
X97977Y-44327D01*
X97947Y-44312D01*
X97872Y-44312D01*
X97827Y-44327D01*
X97737Y-44312D02*
X97557Y-44312D01*
X97647Y-44627D02*
X97647Y-44312D01*
X97392Y-44312D02*
X97332Y-44312D01*
X97302Y-44327D01*
X97272Y-44357D01*
X97257Y-44417D01*
X97257Y-44522D01*
X97272Y-44582D01*
X97302Y-44612D01*
X97332Y-44627D01*
X97392Y-44627D01*
X97422Y-44612D01*
X97452Y-44582D01*
X97467Y-44522D01*
X97467Y-44417D01*
X97452Y-44357D01*
X97422Y-44327D01*
X97392Y-44312D01*
X96942Y-44627D02*
X97047Y-44477D01*
X97122Y-44627D02*
X97122Y-44312D01*
X97002Y-44312D01*
X96972Y-44327D01*
X96957Y-44342D01*
X96942Y-44372D01*
X96942Y-44417D01*
X96957Y-44447D01*
X96972Y-44462D01*
X97002Y-44477D01*
X97122Y-44477D01*
M02*
