G04 (created by PCBNEW (2013-may-18)-stable) date Sun 20 Sep 2015 05:05:06 AM EDT*
%MOIN*%
G04 Gerber Fmt 3.4, Leading zero omitted, Abs format*
%FSLAX34Y34*%
G01*
G70*
G90*
G04 APERTURE LIST*
%ADD10C,0.00590551*%
%ADD11C,0.0001*%
%ADD12C,0.065*%
%ADD13C,0.0590551*%
%ADD14R,0.0590551X0.0590551*%
%ADD15C,0.055*%
%ADD16C,0.066*%
%ADD17C,0.09*%
%ADD18C,0.09*%
%ADD19C,0.157*%
%ADD20C,0.067*%
G04 APERTURE END LIST*
G54D10*
G54D11*
G36*
X94506Y-45337D02*
X95494Y-45337D01*
X95523Y-45335D01*
X95551Y-45331D01*
X95578Y-45324D01*
X95604Y-45315D01*
X95628Y-45303D01*
X95651Y-45289D01*
X95673Y-45273D01*
X95693Y-45255D01*
X95711Y-45235D01*
X95727Y-45213D01*
X95741Y-45190D01*
X95753Y-45166D01*
X95762Y-45140D01*
X95769Y-45113D01*
X95773Y-45085D01*
X95775Y-45056D01*
X95775Y-44344D01*
X95773Y-44315D01*
X95769Y-44287D01*
X95762Y-44260D01*
X95753Y-44234D01*
X95741Y-44210D01*
X95727Y-44187D01*
X95711Y-44165D01*
X95693Y-44145D01*
X95673Y-44127D01*
X95651Y-44111D01*
X95628Y-44097D01*
X95604Y-44085D01*
X95578Y-44076D01*
X95551Y-44069D01*
X95523Y-44065D01*
X95494Y-44063D01*
X94506Y-44063D01*
X94477Y-44065D01*
X94449Y-44069D01*
X94422Y-44076D01*
X94396Y-44085D01*
X94372Y-44097D01*
X94349Y-44111D01*
X94327Y-44127D01*
X94307Y-44145D01*
X94289Y-44165D01*
X94273Y-44187D01*
X94259Y-44210D01*
X94247Y-44234D01*
X94238Y-44260D01*
X94231Y-44287D01*
X94227Y-44315D01*
X94225Y-44344D01*
X94225Y-45056D01*
X94227Y-45085D01*
X94231Y-45113D01*
X94238Y-45140D01*
X94247Y-45166D01*
X94259Y-45190D01*
X94273Y-45213D01*
X94289Y-45235D01*
X94307Y-45255D01*
X94327Y-45273D01*
X94349Y-45289D01*
X94372Y-45303D01*
X94396Y-45315D01*
X94422Y-45324D01*
X94449Y-45331D01*
X94477Y-45335D01*
X94506Y-45337D01*
X94506Y-45337D01*
G37*
G54D12*
X96000Y-44500D03*
X100000Y-44500D03*
G54D13*
X98000Y-41300D03*
G54D14*
X96000Y-41300D03*
X95500Y-45500D03*
G54D13*
X95500Y-42250D03*
G54D14*
X95500Y-46500D03*
G54D13*
X100100Y-41300D03*
X100500Y-42250D03*
G54D14*
X100500Y-45500D03*
G54D15*
X99500Y-45500D03*
X96500Y-45500D03*
G54D13*
X96500Y-46500D03*
G54D14*
X99500Y-46500D03*
G54D16*
X97500Y-45500D03*
X98500Y-45500D03*
G54D17*
X99000Y-41500D02*
X98984Y-41728D01*
G54D18*
X97015Y-41925D03*
X96500Y-42500D03*
G54D19*
X98000Y-43500D03*
G54D20*
X96000Y-43500D03*
X100000Y-43500D03*
G54D13*
X100500Y-46500D03*
M02*
