G04 (created by PCBNEW (2013-may-18)-stable) date Sat 21 Nov 2015 02:45:17 PM EST*
%MOIN*%
G04 Gerber Fmt 3.4, Leading zero omitted, Abs format*
%FSLAX34Y34*%
G01*
G70*
G90*
G04 APERTURE LIST*
%ADD10C,0.00590551*%
%ADD11C,0.0001*%
%ADD12C,0.09*%
%ADD13C,0.09*%
%ADD14C,0.157*%
%ADD15C,0.070937*%
%ADD16C,0.065*%
%ADD17C,0.0590551*%
%ADD18R,0.0590551X0.0590551*%
%ADD19C,0.055*%
%ADD20R,0.035X0.055*%
%ADD21C,0.066*%
G04 APERTURE END LIST*
G54D10*
G54D11*
G36*
X95028Y-44009D02*
X94471Y-44009D01*
X94452Y-44010D01*
X94432Y-44013D01*
X94414Y-44018D01*
X94397Y-44025D01*
X94380Y-44033D01*
X94364Y-44044D01*
X94350Y-44055D01*
X94337Y-44068D01*
X94325Y-44082D01*
X94315Y-44098D01*
X94307Y-44114D01*
X94300Y-44132D01*
X94295Y-44150D01*
X94292Y-44169D01*
X94291Y-44189D01*
X94291Y-45109D01*
X94292Y-45128D01*
X94295Y-45147D01*
X94300Y-45166D01*
X94307Y-45183D01*
X94315Y-45200D01*
X94325Y-45215D01*
X94337Y-45229D01*
X94350Y-45242D01*
X94364Y-45254D01*
X94380Y-45264D01*
X94397Y-45273D01*
X94414Y-45279D01*
X94432Y-45284D01*
X94452Y-45287D01*
X94471Y-45288D01*
X95028Y-45288D01*
X95047Y-45287D01*
X95067Y-45284D01*
X95085Y-45279D01*
X95102Y-45273D01*
X95119Y-45264D01*
X95135Y-45254D01*
X95149Y-45242D01*
X95162Y-45229D01*
X95174Y-45215D01*
X95184Y-45200D01*
X95192Y-45183D01*
X95199Y-45166D01*
X95204Y-45147D01*
X95207Y-45128D01*
X95208Y-45109D01*
X95208Y-44189D01*
X95207Y-44169D01*
X95204Y-44150D01*
X95199Y-44132D01*
X95192Y-44114D01*
X95184Y-44098D01*
X95174Y-44082D01*
X95162Y-44068D01*
X95149Y-44055D01*
X95135Y-44044D01*
X95119Y-44033D01*
X95102Y-44025D01*
X95085Y-44018D01*
X95067Y-44013D01*
X95047Y-44010D01*
X95028Y-44009D01*
X95028Y-44009D01*
G37*
G36*
X101554Y-44157D02*
X101145Y-44157D01*
X101125Y-44159D01*
X101106Y-44163D01*
X101088Y-44170D01*
X101071Y-44179D01*
X101056Y-44191D01*
X101042Y-44204D01*
X101031Y-44219D01*
X101022Y-44236D01*
X101015Y-44254D01*
X101011Y-44273D01*
X101009Y-44293D01*
X101009Y-45006D01*
X101011Y-45026D01*
X101015Y-45045D01*
X101022Y-45063D01*
X101031Y-45080D01*
X101042Y-45095D01*
X101056Y-45108D01*
X101071Y-45120D01*
X101088Y-45129D01*
X101106Y-45136D01*
X101125Y-45140D01*
X101145Y-45142D01*
X101554Y-45142D01*
X101574Y-45140D01*
X101593Y-45136D01*
X101611Y-45129D01*
X101628Y-45120D01*
X101643Y-45108D01*
X101657Y-45095D01*
X101668Y-45080D01*
X101677Y-45063D01*
X101684Y-45045D01*
X101688Y-45026D01*
X101690Y-45006D01*
X101690Y-44293D01*
X101688Y-44273D01*
X101684Y-44254D01*
X101677Y-44236D01*
X101668Y-44219D01*
X101657Y-44204D01*
X101643Y-44191D01*
X101628Y-44179D01*
X101611Y-44170D01*
X101593Y-44163D01*
X101574Y-44159D01*
X101554Y-44157D01*
X101554Y-44157D01*
G37*
G36*
X99804Y-41301D02*
X99805Y-41321D01*
X99807Y-41341D01*
X99810Y-41360D01*
X99815Y-41379D01*
X99821Y-41398D01*
X99828Y-41416D01*
X99836Y-41433D01*
X99845Y-41450D01*
X99855Y-41466D01*
X99866Y-41481D01*
X99878Y-41496D01*
X99891Y-41510D01*
X99905Y-41522D01*
X99919Y-41534D01*
X99934Y-41546D01*
X99951Y-41556D01*
X99967Y-41565D01*
X99985Y-41573D01*
X100003Y-41580D01*
X100021Y-41585D01*
X100040Y-41590D01*
X100059Y-41593D01*
X100079Y-41595D01*
X100100Y-41596D01*
X100120Y-41595D01*
X100140Y-41593D01*
X100159Y-41590D01*
X100178Y-41585D01*
X100196Y-41580D01*
X100214Y-41573D01*
X100232Y-41565D01*
X100248Y-41556D01*
X100265Y-41546D01*
X100280Y-41534D01*
X100294Y-41522D01*
X100308Y-41510D01*
X100321Y-41496D01*
X100333Y-41481D01*
X100344Y-41466D01*
X100354Y-41450D01*
X100363Y-41433D01*
X100371Y-41416D01*
X100378Y-41398D01*
X100384Y-41379D01*
X100389Y-41360D01*
X100392Y-41341D01*
X100394Y-41321D01*
X100395Y-41301D01*
X100394Y-41280D01*
X100392Y-41261D01*
X100388Y-41241D01*
X100384Y-41222D01*
X100378Y-41204D01*
X100370Y-41186D01*
X100362Y-41168D01*
X100353Y-41152D01*
X100343Y-41131D01*
X100100Y-40773D01*
X99858Y-41131D01*
X99851Y-41142D01*
X99846Y-41152D01*
X99837Y-41168D01*
X99828Y-41186D01*
X99821Y-41204D01*
X99815Y-41222D01*
X99811Y-41241D01*
X99807Y-41260D01*
X99805Y-41280D01*
X99804Y-41301D01*
X99804Y-41301D01*
G37*
G36*
X97704Y-41301D02*
X97705Y-41321D01*
X97707Y-41341D01*
X97710Y-41360D01*
X97715Y-41379D01*
X97721Y-41398D01*
X97728Y-41416D01*
X97736Y-41433D01*
X97745Y-41450D01*
X97755Y-41466D01*
X97766Y-41481D01*
X97778Y-41496D01*
X97791Y-41510D01*
X97805Y-41522D01*
X97819Y-41534D01*
X97834Y-41546D01*
X97851Y-41556D01*
X97867Y-41565D01*
X97885Y-41573D01*
X97903Y-41580D01*
X97921Y-41585D01*
X97940Y-41590D01*
X97959Y-41593D01*
X97979Y-41595D01*
X98000Y-41596D01*
X98020Y-41595D01*
X98040Y-41593D01*
X98059Y-41590D01*
X98078Y-41585D01*
X98096Y-41580D01*
X98114Y-41573D01*
X98132Y-41565D01*
X98148Y-41556D01*
X98165Y-41546D01*
X98180Y-41534D01*
X98194Y-41522D01*
X98208Y-41510D01*
X98221Y-41496D01*
X98233Y-41481D01*
X98244Y-41466D01*
X98254Y-41450D01*
X98263Y-41433D01*
X98271Y-41416D01*
X98278Y-41398D01*
X98284Y-41379D01*
X98289Y-41360D01*
X98292Y-41341D01*
X98294Y-41321D01*
X98295Y-41301D01*
X98294Y-41280D01*
X98292Y-41261D01*
X98288Y-41241D01*
X98284Y-41222D01*
X98278Y-41204D01*
X98270Y-41186D01*
X98262Y-41168D01*
X98253Y-41152D01*
X98243Y-41131D01*
X98000Y-40773D01*
X97758Y-41131D01*
X97751Y-41142D01*
X97746Y-41152D01*
X97737Y-41168D01*
X97728Y-41186D01*
X97721Y-41204D01*
X97715Y-41222D01*
X97711Y-41241D01*
X97707Y-41260D01*
X97705Y-41280D01*
X97704Y-41301D01*
X97704Y-41301D01*
G37*
G36*
X95704Y-41594D02*
X96295Y-41594D01*
X96295Y-41004D01*
X96149Y-40883D01*
X96000Y-40765D01*
X95854Y-40883D01*
X95704Y-41004D01*
X95704Y-41594D01*
X95704Y-41594D01*
G37*
G36*
X95501Y-42545D02*
X95521Y-42544D01*
X95541Y-42542D01*
X95560Y-42539D01*
X95579Y-42534D01*
X95598Y-42528D01*
X95616Y-42521D01*
X95633Y-42513D01*
X95650Y-42504D01*
X95666Y-42494D01*
X95681Y-42483D01*
X95696Y-42471D01*
X95710Y-42458D01*
X95722Y-42444D01*
X95734Y-42430D01*
X95746Y-42415D01*
X95756Y-42398D01*
X95765Y-42382D01*
X95773Y-42364D01*
X95780Y-42346D01*
X95785Y-42328D01*
X95790Y-42309D01*
X95793Y-42290D01*
X95795Y-42270D01*
X95796Y-42250D01*
X95795Y-42229D01*
X95793Y-42209D01*
X95790Y-42190D01*
X95785Y-42171D01*
X95780Y-42153D01*
X95773Y-42135D01*
X95765Y-42117D01*
X95756Y-42101D01*
X95746Y-42084D01*
X95734Y-42069D01*
X95722Y-42055D01*
X95710Y-42041D01*
X95696Y-42028D01*
X95681Y-42016D01*
X95666Y-42005D01*
X95650Y-41995D01*
X95633Y-41986D01*
X95616Y-41978D01*
X95598Y-41971D01*
X95579Y-41965D01*
X95560Y-41960D01*
X95541Y-41957D01*
X95521Y-41955D01*
X95501Y-41954D01*
X95480Y-41955D01*
X95461Y-41957D01*
X95441Y-41961D01*
X95422Y-41965D01*
X95404Y-41971D01*
X95386Y-41979D01*
X95368Y-41987D01*
X95352Y-41996D01*
X95331Y-42006D01*
X94973Y-42250D01*
X95331Y-42491D01*
X95342Y-42498D01*
X95352Y-42503D01*
X95368Y-42512D01*
X95386Y-42521D01*
X95404Y-42528D01*
X95422Y-42534D01*
X95441Y-42538D01*
X95460Y-42542D01*
X95480Y-42544D01*
X95501Y-42545D01*
X95501Y-42545D01*
G37*
G36*
X95794Y-45795D02*
X95794Y-45204D01*
X95204Y-45204D01*
X95083Y-45350D01*
X94965Y-45500D01*
X95083Y-45645D01*
X95204Y-45795D01*
X95794Y-45795D01*
X95794Y-45795D01*
G37*
G36*
X95795Y-46205D02*
X95204Y-46205D01*
X95204Y-46795D01*
X95350Y-46916D01*
X95500Y-47034D01*
X95645Y-46916D01*
X95795Y-46795D01*
X95795Y-46205D01*
X95795Y-46205D01*
G37*
G36*
X96795Y-46498D02*
X96794Y-46478D01*
X96792Y-46458D01*
X96789Y-46439D01*
X96784Y-46420D01*
X96778Y-46401D01*
X96771Y-46383D01*
X96763Y-46366D01*
X96754Y-46349D01*
X96744Y-46333D01*
X96733Y-46318D01*
X96721Y-46303D01*
X96708Y-46289D01*
X96694Y-46277D01*
X96680Y-46265D01*
X96665Y-46253D01*
X96648Y-46243D01*
X96632Y-46234D01*
X96614Y-46226D01*
X96596Y-46219D01*
X96578Y-46214D01*
X96559Y-46209D01*
X96540Y-46206D01*
X96520Y-46204D01*
X96500Y-46203D01*
X96479Y-46204D01*
X96459Y-46206D01*
X96440Y-46209D01*
X96421Y-46214D01*
X96403Y-46219D01*
X96385Y-46226D01*
X96367Y-46234D01*
X96351Y-46243D01*
X96334Y-46253D01*
X96319Y-46265D01*
X96305Y-46277D01*
X96291Y-46289D01*
X96278Y-46303D01*
X96266Y-46318D01*
X96255Y-46333D01*
X96245Y-46349D01*
X96236Y-46366D01*
X96228Y-46383D01*
X96221Y-46401D01*
X96215Y-46420D01*
X96210Y-46439D01*
X96207Y-46458D01*
X96205Y-46478D01*
X96204Y-46498D01*
X96205Y-46519D01*
X96207Y-46538D01*
X96211Y-46558D01*
X96215Y-46577D01*
X96221Y-46595D01*
X96229Y-46613D01*
X96237Y-46631D01*
X96246Y-46647D01*
X96256Y-46668D01*
X96500Y-47026D01*
X96741Y-46668D01*
X96748Y-46657D01*
X96753Y-46647D01*
X96762Y-46631D01*
X96771Y-46613D01*
X96778Y-46595D01*
X96784Y-46577D01*
X96788Y-46558D01*
X96792Y-46539D01*
X96794Y-46519D01*
X96795Y-46498D01*
X96795Y-46498D01*
G37*
G36*
X99795Y-46205D02*
X99204Y-46205D01*
X99204Y-46795D01*
X99350Y-46916D01*
X99500Y-47034D01*
X99645Y-46916D01*
X99795Y-46795D01*
X99795Y-46205D01*
X99795Y-46205D01*
G37*
G36*
X100795Y-46498D02*
X100794Y-46478D01*
X100792Y-46458D01*
X100789Y-46439D01*
X100784Y-46420D01*
X100778Y-46401D01*
X100771Y-46383D01*
X100763Y-46366D01*
X100754Y-46349D01*
X100744Y-46333D01*
X100733Y-46318D01*
X100721Y-46303D01*
X100708Y-46289D01*
X100694Y-46277D01*
X100680Y-46265D01*
X100665Y-46253D01*
X100648Y-46243D01*
X100632Y-46234D01*
X100614Y-46226D01*
X100596Y-46219D01*
X100578Y-46214D01*
X100559Y-46209D01*
X100540Y-46206D01*
X100520Y-46204D01*
X100500Y-46203D01*
X100479Y-46204D01*
X100459Y-46206D01*
X100440Y-46209D01*
X100421Y-46214D01*
X100403Y-46219D01*
X100385Y-46226D01*
X100367Y-46234D01*
X100351Y-46243D01*
X100334Y-46253D01*
X100319Y-46265D01*
X100305Y-46277D01*
X100291Y-46289D01*
X100278Y-46303D01*
X100266Y-46318D01*
X100255Y-46333D01*
X100245Y-46349D01*
X100236Y-46366D01*
X100228Y-46383D01*
X100221Y-46401D01*
X100215Y-46420D01*
X100210Y-46439D01*
X100207Y-46458D01*
X100205Y-46478D01*
X100204Y-46498D01*
X100205Y-46519D01*
X100207Y-46538D01*
X100211Y-46558D01*
X100215Y-46577D01*
X100221Y-46595D01*
X100229Y-46613D01*
X100237Y-46631D01*
X100246Y-46647D01*
X100256Y-46668D01*
X100500Y-47026D01*
X100741Y-46668D01*
X100748Y-46657D01*
X100753Y-46647D01*
X100762Y-46631D01*
X100771Y-46613D01*
X100778Y-46595D01*
X100784Y-46577D01*
X100788Y-46558D01*
X100792Y-46539D01*
X100794Y-46519D01*
X100795Y-46498D01*
X100795Y-46498D01*
G37*
G36*
X100205Y-45204D02*
X100205Y-45795D01*
X100795Y-45795D01*
X100916Y-45649D01*
X101034Y-45500D01*
X100916Y-45354D01*
X100795Y-45204D01*
X100205Y-45204D01*
X100205Y-45204D01*
G37*
G36*
X100498Y-41954D02*
X100478Y-41955D01*
X100458Y-41957D01*
X100439Y-41960D01*
X100420Y-41965D01*
X100401Y-41971D01*
X100383Y-41978D01*
X100366Y-41986D01*
X100349Y-41995D01*
X100333Y-42005D01*
X100318Y-42016D01*
X100303Y-42028D01*
X100289Y-42041D01*
X100277Y-42055D01*
X100265Y-42069D01*
X100253Y-42084D01*
X100243Y-42101D01*
X100234Y-42117D01*
X100226Y-42135D01*
X100219Y-42153D01*
X100214Y-42171D01*
X100209Y-42190D01*
X100206Y-42209D01*
X100204Y-42229D01*
X100203Y-42250D01*
X100204Y-42270D01*
X100206Y-42290D01*
X100209Y-42309D01*
X100214Y-42328D01*
X100219Y-42346D01*
X100226Y-42364D01*
X100234Y-42382D01*
X100243Y-42398D01*
X100253Y-42415D01*
X100265Y-42430D01*
X100277Y-42444D01*
X100289Y-42458D01*
X100303Y-42471D01*
X100318Y-42483D01*
X100333Y-42494D01*
X100349Y-42504D01*
X100366Y-42513D01*
X100383Y-42521D01*
X100401Y-42528D01*
X100420Y-42534D01*
X100439Y-42539D01*
X100458Y-42542D01*
X100478Y-42544D01*
X100498Y-42545D01*
X100519Y-42544D01*
X100538Y-42542D01*
X100558Y-42538D01*
X100577Y-42534D01*
X100595Y-42528D01*
X100613Y-42520D01*
X100631Y-42512D01*
X100647Y-42503D01*
X100668Y-42493D01*
X101026Y-42250D01*
X100668Y-42008D01*
X100657Y-42001D01*
X100647Y-41996D01*
X100631Y-41987D01*
X100613Y-41978D01*
X100595Y-41971D01*
X100577Y-41965D01*
X100558Y-41961D01*
X100539Y-41957D01*
X100519Y-41955D01*
X100498Y-41954D01*
X100498Y-41954D01*
G37*
G54D12*
X99000Y-41500D02*
X98984Y-41728D01*
G54D13*
X97015Y-41925D03*
X96500Y-42500D03*
G54D14*
X98000Y-43500D03*
G54D15*
X96000Y-43500D03*
X100000Y-43500D03*
G54D16*
X96000Y-44500D03*
X100000Y-44500D03*
G54D17*
X98000Y-41300D03*
G54D18*
X96000Y-41300D03*
X95500Y-45500D03*
G54D17*
X95500Y-42250D03*
G54D18*
X95500Y-46500D03*
G54D17*
X100100Y-41300D03*
X100500Y-42250D03*
G54D18*
X100500Y-45500D03*
G54D19*
X99500Y-45500D03*
X96500Y-45500D03*
G54D17*
X96500Y-46500D03*
G54D18*
X99500Y-46500D03*
G54D20*
X97625Y-46450D03*
X98375Y-46450D03*
X97625Y-44700D03*
X98375Y-44700D03*
G54D21*
X97500Y-45500D03*
X98500Y-45500D03*
G54D17*
X100500Y-46500D03*
M02*
