G04 (created by PCBNEW (2013-may-18)-stable) date Sat 22 Aug 2015 11:26:01 PM EDT*
%MOIN*%
G04 Gerber Fmt 3.4, Leading zero omitted, Abs format*
%FSLAX34Y34*%
G01*
G70*
G90*
G04 APERTURE LIST*
%ADD10C,0.00590551*%
%ADD11C,0.065*%
%ADD12C,0.0590551*%
%ADD13C,0.066*%
%ADD14R,0.055X0.055*%
%ADD15C,0.055*%
%ADD16C,0.09*%
%ADD17C,0.035*%
%ADD18C,0.01*%
G04 APERTURE END LIST*
G54D10*
G54D11*
X96000Y-44500D03*
X100000Y-44500D03*
G54D12*
X98000Y-41500D03*
X97000Y-41500D03*
X95500Y-45500D03*
X95500Y-42000D03*
X95500Y-46500D03*
X96500Y-46500D03*
X100500Y-42000D03*
X100500Y-45500D03*
G54D13*
X97500Y-45500D03*
X98500Y-45500D03*
G54D14*
X99500Y-45500D03*
G54D15*
X96500Y-45500D03*
G54D16*
X99000Y-41500D03*
X96500Y-42500D03*
G54D12*
X100500Y-46500D03*
X99500Y-46500D03*
G54D17*
X99425Y-42475D03*
X99000Y-44500D03*
X99950Y-42675D03*
X96500Y-44000D03*
X97350Y-44500D03*
G54D18*
X99425Y-42475D02*
X99000Y-42900D01*
X99000Y-42900D02*
X99000Y-44500D01*
X98500Y-45500D02*
X99500Y-46500D01*
X95500Y-46500D02*
X96000Y-46000D01*
X98000Y-46000D02*
X96300Y-46000D01*
X98000Y-46000D02*
X98500Y-45500D01*
X96000Y-46000D02*
X96300Y-46000D01*
X96700Y-45000D02*
X99500Y-45000D01*
X96225Y-45000D02*
X96700Y-45000D01*
X100475Y-45525D02*
X99950Y-45000D01*
X99950Y-45000D02*
X99500Y-45000D01*
X99500Y-45000D02*
X100000Y-44500D01*
X95500Y-45475D02*
X95750Y-45475D01*
X95750Y-45475D02*
X96225Y-45000D01*
X98000Y-41500D02*
X98000Y-41650D01*
X97150Y-42500D02*
X96500Y-42500D01*
X98000Y-41650D02*
X97150Y-42500D01*
X100500Y-42000D02*
X100500Y-42125D01*
X100500Y-42125D02*
X99950Y-42675D01*
X96500Y-43650D02*
X96500Y-44000D01*
X98650Y-41500D02*
X96500Y-43650D01*
X99000Y-41500D02*
X98650Y-41500D01*
X96000Y-44500D02*
X97350Y-44500D01*
G54D10*
G36*
X95282Y-45999D02*
X95191Y-46037D01*
X95069Y-46159D01*
X95069Y-45840D01*
X95190Y-45961D01*
X95282Y-45999D01*
X95282Y-45999D01*
G37*
G54D18*
X95282Y-45999D02*
X95191Y-46037D01*
X95069Y-46159D01*
X95069Y-45840D01*
X95190Y-45961D01*
X95282Y-45999D01*
G54D10*
G36*
X96014Y-45700D02*
X96007Y-45700D01*
X96010Y-45691D01*
X96014Y-45700D01*
X96014Y-45700D01*
G37*
G54D18*
X96014Y-45700D02*
X96007Y-45700D01*
X96010Y-45691D01*
X96014Y-45700D01*
G54D10*
G36*
X96059Y-46830D02*
X95940Y-46830D01*
X95961Y-46809D01*
X95999Y-46717D01*
X96037Y-46808D01*
X96059Y-46830D01*
X96059Y-46830D01*
G37*
G54D18*
X96059Y-46830D02*
X95940Y-46830D01*
X95961Y-46809D01*
X95999Y-46717D01*
X96037Y-46808D01*
X96059Y-46830D01*
G54D10*
G36*
X96525Y-43200D02*
X96517Y-43208D01*
X96513Y-43200D01*
X96525Y-43200D01*
X96525Y-43200D01*
G37*
G54D18*
X96525Y-43200D02*
X96517Y-43208D01*
X96513Y-43200D01*
X96525Y-43200D01*
G54D10*
G36*
X96734Y-41019D02*
X96691Y-41037D01*
X96538Y-41190D01*
X96454Y-41391D01*
X96454Y-41607D01*
X96533Y-41800D01*
X96361Y-41799D01*
X96104Y-41906D01*
X96045Y-41964D01*
X96045Y-41892D01*
X95962Y-41691D01*
X95809Y-41538D01*
X95608Y-41454D01*
X95392Y-41454D01*
X95191Y-41537D01*
X95038Y-41690D01*
X94954Y-41891D01*
X94954Y-42107D01*
X95037Y-42308D01*
X95190Y-42461D01*
X95391Y-42545D01*
X95607Y-42545D01*
X95800Y-42466D01*
X95799Y-42638D01*
X95906Y-42896D01*
X95925Y-42914D01*
X95884Y-42914D01*
X95871Y-42920D01*
X95857Y-42920D01*
X95691Y-42989D01*
X95689Y-42995D01*
X95669Y-43003D01*
X95504Y-43168D01*
X95495Y-43189D01*
X95489Y-43191D01*
X95454Y-43287D01*
X95415Y-43383D01*
X95415Y-43396D01*
X95410Y-43409D01*
X95414Y-43512D01*
X95414Y-43615D01*
X95420Y-43628D01*
X95420Y-43642D01*
X95489Y-43808D01*
X95495Y-43810D01*
X95503Y-43830D01*
X95668Y-43995D01*
X95689Y-44004D01*
X95689Y-44006D01*
X95674Y-44012D01*
X95512Y-44173D01*
X95425Y-44385D01*
X95424Y-44613D01*
X95512Y-44825D01*
X95664Y-44977D01*
X95608Y-44954D01*
X95392Y-44954D01*
X95191Y-45037D01*
X95038Y-45190D01*
X94954Y-45391D01*
X94954Y-45418D01*
X94884Y-45314D01*
X94810Y-45239D01*
X94809Y-45239D01*
X94656Y-45137D01*
X94656Y-45136D01*
X94569Y-45100D01*
X94569Y-44154D01*
X94634Y-44127D01*
X94780Y-44030D01*
X94854Y-43955D01*
X94855Y-43955D01*
X94951Y-43810D01*
X94952Y-43809D01*
X94992Y-43712D01*
X95027Y-43540D01*
X95027Y-43540D01*
X95027Y-43539D01*
X95027Y-43487D01*
X95027Y-43435D01*
X95027Y-43434D01*
X95027Y-43434D01*
X94992Y-43262D01*
X94952Y-43165D01*
X94951Y-43164D01*
X94855Y-43019D01*
X94854Y-43019D01*
X94780Y-42944D01*
X94634Y-42847D01*
X94569Y-42820D01*
X94569Y-41924D01*
X94656Y-41888D01*
X94656Y-41887D01*
X94809Y-41785D01*
X94810Y-41785D01*
X94884Y-41710D01*
X94988Y-41556D01*
X95028Y-41459D01*
X95028Y-41458D01*
X95064Y-41277D01*
X95064Y-41253D01*
X95064Y-41252D01*
X95088Y-41132D01*
X95125Y-41076D01*
X95183Y-41038D01*
X95275Y-41019D01*
X96734Y-41019D01*
X96734Y-41019D01*
G37*
G54D18*
X96734Y-41019D02*
X96691Y-41037D01*
X96538Y-41190D01*
X96454Y-41391D01*
X96454Y-41607D01*
X96533Y-41800D01*
X96361Y-41799D01*
X96104Y-41906D01*
X96045Y-41964D01*
X96045Y-41892D01*
X95962Y-41691D01*
X95809Y-41538D01*
X95608Y-41454D01*
X95392Y-41454D01*
X95191Y-41537D01*
X95038Y-41690D01*
X94954Y-41891D01*
X94954Y-42107D01*
X95037Y-42308D01*
X95190Y-42461D01*
X95391Y-42545D01*
X95607Y-42545D01*
X95800Y-42466D01*
X95799Y-42638D01*
X95906Y-42896D01*
X95925Y-42914D01*
X95884Y-42914D01*
X95871Y-42920D01*
X95857Y-42920D01*
X95691Y-42989D01*
X95689Y-42995D01*
X95669Y-43003D01*
X95504Y-43168D01*
X95495Y-43189D01*
X95489Y-43191D01*
X95454Y-43287D01*
X95415Y-43383D01*
X95415Y-43396D01*
X95410Y-43409D01*
X95414Y-43512D01*
X95414Y-43615D01*
X95420Y-43628D01*
X95420Y-43642D01*
X95489Y-43808D01*
X95495Y-43810D01*
X95503Y-43830D01*
X95668Y-43995D01*
X95689Y-44004D01*
X95689Y-44006D01*
X95674Y-44012D01*
X95512Y-44173D01*
X95425Y-44385D01*
X95424Y-44613D01*
X95512Y-44825D01*
X95664Y-44977D01*
X95608Y-44954D01*
X95392Y-44954D01*
X95191Y-45037D01*
X95038Y-45190D01*
X94954Y-45391D01*
X94954Y-45418D01*
X94884Y-45314D01*
X94810Y-45239D01*
X94809Y-45239D01*
X94656Y-45137D01*
X94656Y-45136D01*
X94569Y-45100D01*
X94569Y-44154D01*
X94634Y-44127D01*
X94780Y-44030D01*
X94854Y-43955D01*
X94855Y-43955D01*
X94951Y-43810D01*
X94952Y-43809D01*
X94992Y-43712D01*
X95027Y-43540D01*
X95027Y-43540D01*
X95027Y-43539D01*
X95027Y-43487D01*
X95027Y-43435D01*
X95027Y-43434D01*
X95027Y-43434D01*
X94992Y-43262D01*
X94952Y-43165D01*
X94951Y-43164D01*
X94855Y-43019D01*
X94854Y-43019D01*
X94780Y-42944D01*
X94634Y-42847D01*
X94569Y-42820D01*
X94569Y-41924D01*
X94656Y-41888D01*
X94656Y-41887D01*
X94809Y-41785D01*
X94810Y-41785D01*
X94884Y-41710D01*
X94988Y-41556D01*
X95028Y-41459D01*
X95028Y-41458D01*
X95064Y-41277D01*
X95064Y-41253D01*
X95064Y-41252D01*
X95088Y-41132D01*
X95125Y-41076D01*
X95183Y-41038D01*
X95275Y-41019D01*
X96734Y-41019D01*
G54D10*
G36*
X97156Y-44120D02*
X97109Y-44139D01*
X97048Y-44200D01*
X96877Y-44200D01*
X96924Y-44084D01*
X96925Y-43915D01*
X96860Y-43759D01*
X96837Y-43736D01*
X96964Y-43609D01*
X96964Y-43704D01*
X96966Y-43709D01*
X96966Y-43714D01*
X97117Y-44079D01*
X97119Y-44080D01*
X97122Y-44085D01*
X97156Y-44120D01*
X97156Y-44120D01*
G37*
G54D18*
X97156Y-44120D02*
X97109Y-44139D01*
X97048Y-44200D01*
X96877Y-44200D01*
X96924Y-44084D01*
X96925Y-43915D01*
X96860Y-43759D01*
X96837Y-43736D01*
X96964Y-43609D01*
X96964Y-43704D01*
X96966Y-43709D01*
X96966Y-43714D01*
X97117Y-44079D01*
X97119Y-44080D01*
X97122Y-44085D01*
X97156Y-44120D01*
G54D10*
G36*
X97231Y-41994D02*
X97101Y-42123D01*
X97093Y-42104D01*
X97035Y-42045D01*
X97107Y-42045D01*
X97231Y-41994D01*
X97231Y-41994D01*
G37*
G54D18*
X97231Y-41994D02*
X97101Y-42123D01*
X97093Y-42104D01*
X97035Y-42045D01*
X97107Y-42045D01*
X97231Y-41994D01*
G54D10*
G36*
X97502Y-41723D02*
X97494Y-41731D01*
X97499Y-41717D01*
X97502Y-41723D01*
X97502Y-41723D01*
G37*
G54D18*
X97502Y-41723D02*
X97494Y-41731D01*
X97499Y-41717D01*
X97502Y-41723D01*
G54D10*
G36*
X97734Y-41019D02*
X97691Y-41037D01*
X97538Y-41190D01*
X97500Y-41282D01*
X97462Y-41191D01*
X97309Y-41038D01*
X97265Y-41019D01*
X97734Y-41019D01*
X97734Y-41019D01*
G37*
G54D18*
X97734Y-41019D02*
X97691Y-41037D01*
X97538Y-41190D01*
X97500Y-41282D01*
X97462Y-41191D01*
X97309Y-41038D01*
X97265Y-41019D01*
X97734Y-41019D01*
G54D10*
G36*
X98490Y-41019D02*
X98406Y-41102D01*
X98397Y-41126D01*
X98309Y-41038D01*
X98265Y-41019D01*
X98490Y-41019D01*
X98490Y-41019D01*
G37*
G54D18*
X98490Y-41019D02*
X98406Y-41102D01*
X98397Y-41126D01*
X98309Y-41038D01*
X98265Y-41019D01*
X98490Y-41019D01*
G54D10*
G36*
X98622Y-44700D02*
X97727Y-44700D01*
X97774Y-44584D01*
X97774Y-44527D01*
X97793Y-44534D01*
X97798Y-44534D01*
X97802Y-44536D01*
X98003Y-44535D01*
X98204Y-44535D01*
X98209Y-44533D01*
X98214Y-44533D01*
X98579Y-44382D01*
X98580Y-44380D01*
X98585Y-44377D01*
X98594Y-44369D01*
X98575Y-44415D01*
X98574Y-44584D01*
X98622Y-44700D01*
X98622Y-44700D01*
G37*
G54D18*
X98622Y-44700D02*
X97727Y-44700D01*
X97774Y-44584D01*
X97774Y-44527D01*
X97793Y-44534D01*
X97798Y-44534D01*
X97802Y-44536D01*
X98003Y-44535D01*
X98204Y-44535D01*
X98209Y-44533D01*
X98214Y-44533D01*
X98579Y-44382D01*
X98580Y-44380D01*
X98585Y-44377D01*
X98594Y-44369D01*
X98575Y-44415D01*
X98574Y-44584D01*
X98622Y-44700D01*
G54D10*
G36*
X99059Y-46830D02*
X96940Y-46830D01*
X96961Y-46809D01*
X97045Y-46608D01*
X97045Y-46392D01*
X97007Y-46300D01*
X98000Y-46300D01*
X98000Y-46299D01*
X98114Y-46277D01*
X98114Y-46277D01*
X98212Y-46212D01*
X98356Y-46068D01*
X98384Y-46079D01*
X98614Y-46080D01*
X98643Y-46068D01*
X98958Y-46382D01*
X98954Y-46391D01*
X98954Y-46607D01*
X99037Y-46808D01*
X99059Y-46830D01*
X99059Y-46830D01*
G37*
G54D18*
X99059Y-46830D02*
X96940Y-46830D01*
X96961Y-46809D01*
X97045Y-46608D01*
X97045Y-46392D01*
X97007Y-46300D01*
X98000Y-46300D01*
X98000Y-46299D01*
X98114Y-46277D01*
X98114Y-46277D01*
X98212Y-46212D01*
X98356Y-46068D01*
X98384Y-46079D01*
X98614Y-46080D01*
X98643Y-46068D01*
X98958Y-46382D01*
X98954Y-46391D01*
X98954Y-46607D01*
X99037Y-46808D01*
X99059Y-46830D01*
G54D10*
G36*
X99098Y-42200D02*
X99064Y-42233D01*
X99000Y-42390D01*
X98999Y-42475D01*
X98787Y-42687D01*
X98733Y-42769D01*
X98587Y-42623D01*
X98580Y-42620D01*
X98579Y-42617D01*
X98392Y-42542D01*
X98206Y-42465D01*
X98201Y-42465D01*
X98197Y-42463D01*
X98110Y-42464D01*
X98542Y-42032D01*
X98602Y-42093D01*
X98860Y-42199D01*
X99098Y-42200D01*
X99098Y-42200D01*
G37*
G54D18*
X99098Y-42200D02*
X99064Y-42233D01*
X99000Y-42390D01*
X98999Y-42475D01*
X98787Y-42687D01*
X98733Y-42769D01*
X98587Y-42623D01*
X98580Y-42620D01*
X98579Y-42617D01*
X98392Y-42542D01*
X98206Y-42465D01*
X98201Y-42465D01*
X98197Y-42463D01*
X98110Y-42464D01*
X98542Y-42032D01*
X98602Y-42093D01*
X98860Y-42199D01*
X99098Y-42200D01*
G54D10*
G36*
X99435Y-44640D02*
X99378Y-44697D01*
X99424Y-44584D01*
X99424Y-44613D01*
X99435Y-44640D01*
X99435Y-44640D01*
G37*
G54D18*
X99435Y-44640D02*
X99378Y-44697D01*
X99424Y-44584D01*
X99424Y-44613D01*
X99435Y-44640D01*
G54D10*
G36*
X99689Y-44006D02*
X99674Y-44012D01*
X99512Y-44173D01*
X99425Y-44385D01*
X99425Y-44415D01*
X99360Y-44259D01*
X99300Y-44198D01*
X99300Y-43024D01*
X99424Y-42899D01*
X99509Y-42900D01*
X99572Y-42873D01*
X99589Y-42915D01*
X99675Y-43001D01*
X99669Y-43003D01*
X99504Y-43168D01*
X99495Y-43189D01*
X99489Y-43191D01*
X99454Y-43287D01*
X99415Y-43383D01*
X99415Y-43396D01*
X99410Y-43409D01*
X99414Y-43512D01*
X99414Y-43615D01*
X99420Y-43628D01*
X99420Y-43642D01*
X99489Y-43808D01*
X99495Y-43810D01*
X99503Y-43830D01*
X99668Y-43995D01*
X99689Y-44004D01*
X99689Y-44006D01*
X99689Y-44006D01*
G37*
G54D18*
X99689Y-44006D02*
X99674Y-44012D01*
X99512Y-44173D01*
X99425Y-44385D01*
X99425Y-44415D01*
X99360Y-44259D01*
X99300Y-44198D01*
X99300Y-43024D01*
X99424Y-42899D01*
X99509Y-42900D01*
X99572Y-42873D01*
X99589Y-42915D01*
X99675Y-43001D01*
X99669Y-43003D01*
X99504Y-43168D01*
X99495Y-43189D01*
X99489Y-43191D01*
X99454Y-43287D01*
X99415Y-43383D01*
X99415Y-43396D01*
X99410Y-43409D01*
X99414Y-43512D01*
X99414Y-43615D01*
X99420Y-43628D01*
X99420Y-43642D01*
X99489Y-43808D01*
X99495Y-43810D01*
X99503Y-43830D01*
X99668Y-43995D01*
X99689Y-44004D01*
X99689Y-44006D01*
G54D10*
G36*
X100059Y-46830D02*
X99940Y-46830D01*
X99961Y-46809D01*
X99999Y-46717D01*
X100037Y-46808D01*
X100059Y-46830D01*
X100059Y-46830D01*
G37*
G54D18*
X100059Y-46830D02*
X99940Y-46830D01*
X99961Y-46809D01*
X99999Y-46717D01*
X100037Y-46808D01*
X100059Y-46830D01*
G54D10*
G36*
X100282Y-45999D02*
X100191Y-46037D01*
X100038Y-46190D01*
X100000Y-46282D01*
X99962Y-46191D01*
X99809Y-46038D01*
X99778Y-46025D01*
X99824Y-46025D01*
X99916Y-45987D01*
X99986Y-45916D01*
X100024Y-45824D01*
X100024Y-45778D01*
X100037Y-45808D01*
X100190Y-45961D01*
X100282Y-45999D01*
X100282Y-45999D01*
G37*
G54D18*
X100282Y-45999D02*
X100191Y-46037D01*
X100038Y-46190D01*
X100000Y-46282D01*
X99962Y-46191D01*
X99809Y-46038D01*
X99778Y-46025D01*
X99824Y-46025D01*
X99916Y-45987D01*
X99986Y-45916D01*
X100024Y-45824D01*
X100024Y-45778D01*
X100037Y-45808D01*
X100190Y-45961D01*
X100282Y-45999D01*
G54D10*
G36*
X100980Y-46234D02*
X100962Y-46191D01*
X100809Y-46038D01*
X100717Y-46000D01*
X100808Y-45962D01*
X100961Y-45809D01*
X100980Y-45765D01*
X100980Y-46234D01*
X100980Y-46234D01*
G37*
G54D18*
X100980Y-46234D02*
X100962Y-46191D01*
X100809Y-46038D01*
X100717Y-46000D01*
X100808Y-45962D01*
X100961Y-45809D01*
X100980Y-45765D01*
X100980Y-46234D01*
G54D10*
G36*
X101430Y-45088D02*
X101377Y-45110D01*
X101377Y-45110D01*
X101232Y-45207D01*
X101231Y-45207D01*
X101157Y-45282D01*
X101059Y-45428D01*
X101045Y-45463D01*
X101045Y-45392D01*
X100962Y-45191D01*
X100809Y-45038D01*
X100608Y-44954D01*
X100392Y-44954D01*
X100347Y-44973D01*
X100343Y-44969D01*
X100487Y-44826D01*
X100574Y-44614D01*
X100575Y-44386D01*
X100487Y-44174D01*
X100326Y-44012D01*
X100310Y-44006D01*
X100310Y-44004D01*
X100330Y-43996D01*
X100495Y-43831D01*
X100504Y-43810D01*
X100510Y-43808D01*
X100545Y-43712D01*
X100584Y-43616D01*
X100584Y-43603D01*
X100589Y-43590D01*
X100585Y-43487D01*
X100585Y-43384D01*
X100579Y-43371D01*
X100579Y-43357D01*
X100510Y-43191D01*
X100504Y-43189D01*
X100496Y-43169D01*
X100331Y-43004D01*
X100310Y-42995D01*
X100308Y-42989D01*
X100255Y-42970D01*
X100310Y-42916D01*
X100374Y-42759D01*
X100375Y-42674D01*
X100503Y-42545D01*
X100607Y-42545D01*
X100808Y-42462D01*
X100961Y-42309D01*
X101045Y-42108D01*
X101045Y-41892D01*
X100962Y-41691D01*
X100809Y-41538D01*
X100608Y-41454D01*
X100392Y-41454D01*
X100191Y-41537D01*
X100038Y-41690D01*
X99954Y-41891D01*
X99954Y-42107D01*
X99995Y-42205D01*
X99950Y-42250D01*
X99865Y-42249D01*
X99802Y-42276D01*
X99785Y-42234D01*
X99666Y-42114D01*
X99509Y-42050D01*
X99439Y-42050D01*
X99593Y-41897D01*
X99699Y-41639D01*
X99700Y-41361D01*
X99593Y-41104D01*
X99509Y-41019D01*
X100723Y-41019D01*
X100835Y-41041D01*
X100908Y-41090D01*
X100957Y-41164D01*
X100985Y-41302D01*
X100985Y-41303D01*
X101019Y-41473D01*
X101019Y-41474D01*
X101059Y-41571D01*
X101157Y-41717D01*
X101231Y-41792D01*
X101232Y-41792D01*
X101377Y-41889D01*
X101377Y-41889D01*
X101430Y-41911D01*
X101430Y-42838D01*
X101377Y-42860D01*
X101377Y-42860D01*
X101232Y-42957D01*
X101231Y-42957D01*
X101157Y-43032D01*
X101059Y-43178D01*
X101019Y-43275D01*
X101019Y-43276D01*
X100985Y-43447D01*
X100985Y-43447D01*
X100985Y-43447D01*
X100985Y-43500D01*
X100985Y-43552D01*
X100985Y-43552D01*
X100985Y-43552D01*
X101019Y-43723D01*
X101019Y-43724D01*
X101059Y-43821D01*
X101157Y-43967D01*
X101231Y-44042D01*
X101232Y-44042D01*
X101377Y-44139D01*
X101377Y-44139D01*
X101430Y-44161D01*
X101430Y-45088D01*
X101430Y-45088D01*
G37*
G54D18*
X101430Y-45088D02*
X101377Y-45110D01*
X101377Y-45110D01*
X101232Y-45207D01*
X101231Y-45207D01*
X101157Y-45282D01*
X101059Y-45428D01*
X101045Y-45463D01*
X101045Y-45392D01*
X100962Y-45191D01*
X100809Y-45038D01*
X100608Y-44954D01*
X100392Y-44954D01*
X100347Y-44973D01*
X100343Y-44969D01*
X100487Y-44826D01*
X100574Y-44614D01*
X100575Y-44386D01*
X100487Y-44174D01*
X100326Y-44012D01*
X100310Y-44006D01*
X100310Y-44004D01*
X100330Y-43996D01*
X100495Y-43831D01*
X100504Y-43810D01*
X100510Y-43808D01*
X100545Y-43712D01*
X100584Y-43616D01*
X100584Y-43603D01*
X100589Y-43590D01*
X100585Y-43487D01*
X100585Y-43384D01*
X100579Y-43371D01*
X100579Y-43357D01*
X100510Y-43191D01*
X100504Y-43189D01*
X100496Y-43169D01*
X100331Y-43004D01*
X100310Y-42995D01*
X100308Y-42989D01*
X100255Y-42970D01*
X100310Y-42916D01*
X100374Y-42759D01*
X100375Y-42674D01*
X100503Y-42545D01*
X100607Y-42545D01*
X100808Y-42462D01*
X100961Y-42309D01*
X101045Y-42108D01*
X101045Y-41892D01*
X100962Y-41691D01*
X100809Y-41538D01*
X100608Y-41454D01*
X100392Y-41454D01*
X100191Y-41537D01*
X100038Y-41690D01*
X99954Y-41891D01*
X99954Y-42107D01*
X99995Y-42205D01*
X99950Y-42250D01*
X99865Y-42249D01*
X99802Y-42276D01*
X99785Y-42234D01*
X99666Y-42114D01*
X99509Y-42050D01*
X99439Y-42050D01*
X99593Y-41897D01*
X99699Y-41639D01*
X99700Y-41361D01*
X99593Y-41104D01*
X99509Y-41019D01*
X100723Y-41019D01*
X100835Y-41041D01*
X100908Y-41090D01*
X100957Y-41164D01*
X100985Y-41302D01*
X100985Y-41303D01*
X101019Y-41473D01*
X101019Y-41474D01*
X101059Y-41571D01*
X101157Y-41717D01*
X101231Y-41792D01*
X101232Y-41792D01*
X101377Y-41889D01*
X101377Y-41889D01*
X101430Y-41911D01*
X101430Y-42838D01*
X101377Y-42860D01*
X101377Y-42860D01*
X101232Y-42957D01*
X101231Y-42957D01*
X101157Y-43032D01*
X101059Y-43178D01*
X101019Y-43275D01*
X101019Y-43276D01*
X100985Y-43447D01*
X100985Y-43447D01*
X100985Y-43447D01*
X100985Y-43500D01*
X100985Y-43552D01*
X100985Y-43552D01*
X100985Y-43552D01*
X101019Y-43723D01*
X101019Y-43724D01*
X101059Y-43821D01*
X101157Y-43967D01*
X101231Y-44042D01*
X101232Y-44042D01*
X101377Y-44139D01*
X101377Y-44139D01*
X101430Y-44161D01*
X101430Y-45088D01*
M02*
