G04 (created by PCBNEW (2013-may-18)-stable) date Tue 15 Sep 2015 06:47:13 PM EDT*
%MOIN*%
G04 Gerber Fmt 3.4, Leading zero omitted, Abs format*
%FSLAX34Y34*%
G01*
G70*
G90*
G04 APERTURE LIST*
%ADD10C,0.00590551*%
%ADD11C,0.059*%
%ADD12C,0.00393701*%
G04 APERTURE END LIST*
G54D10*
G54D11*
X98984Y-41728D02*
X99000Y-41500D01*
G54D12*
X94300Y-44000D02*
X94300Y-45350D01*
X94300Y-41650D02*
X94300Y-43000D01*
X94300Y-44000D02*
G75*
G03X94800Y-43500I0J500D01*
G74*
G01*
X94800Y-43500D02*
G75*
G03X94300Y-43000I-500J0D01*
G74*
G01*
X101700Y-45300D02*
X101700Y-44000D01*
X101700Y-43000D02*
X101700Y-41700D01*
X101200Y-43500D02*
G75*
G03X101700Y-44000I500J0D01*
G74*
G01*
X101700Y-43000D02*
G75*
G03X101200Y-43500I0J-500D01*
G74*
G01*
X95200Y-40750D02*
X100750Y-40750D01*
X94300Y-41650D02*
G75*
G03X94750Y-41200I0J450D01*
G74*
G01*
X95200Y-40750D02*
G75*
G03X94750Y-41200I0J-450D01*
G74*
G01*
X95200Y-47100D02*
X100750Y-47100D01*
X94750Y-45800D02*
G75*
G03X94300Y-45350I-450J0D01*
G74*
G01*
X94750Y-45800D02*
X94750Y-46650D01*
X101700Y-41700D02*
G75*
G02X101250Y-41250I0J450D01*
G74*
G01*
X100750Y-40750D02*
G75*
G02X101250Y-41250I0J-500D01*
G74*
G01*
X100750Y-47100D02*
G75*
G03X101250Y-46600I0J500D01*
G74*
G01*
X101700Y-45300D02*
G75*
G03X101250Y-45750I0J-450D01*
G74*
G01*
X101250Y-46600D02*
X101250Y-45750D01*
X95200Y-47100D02*
G75*
G02X94750Y-46650I0J450D01*
G74*
G01*
M02*
