G04 (created by PCBNEW (2013-jul-07)-stable) date Thu 27 Aug 2015 10:07:32 PM EDT*
%MOIN*%
G04 Gerber Fmt 3.4, Leading zero omitted, Abs format*
%FSLAX34Y34*%
G01*
G70*
G90*
G04 APERTURE LIST*
%ADD10C,0.00590551*%
%ADD11C,0.065*%
%ADD12C,0.0590551*%
%ADD13R,0.055X0.055*%
%ADD14C,0.055*%
%ADD15R,0.035X0.055*%
%ADD16C,0.066*%
%ADD17C,0.09*%
%ADD18C,0.09*%
%ADD19C,0.035*%
%ADD20C,0.01*%
G04 APERTURE END LIST*
G54D10*
G54D11*
X96000Y-44500D03*
X100000Y-44500D03*
G54D12*
X98000Y-41300D03*
X96000Y-41300D03*
X95500Y-45500D03*
X95500Y-42250D03*
X95500Y-46500D03*
X96500Y-46500D03*
X100500Y-42250D03*
X100500Y-45500D03*
G54D13*
X99500Y-45500D03*
G54D14*
X96500Y-45500D03*
G54D12*
X100500Y-46500D03*
X99500Y-46500D03*
G54D15*
X99975Y-41350D03*
X100725Y-41350D03*
X97625Y-46500D03*
X98375Y-46500D03*
G54D16*
X97500Y-45500D03*
X98500Y-45500D03*
G54D17*
X99000Y-41500D02*
X98984Y-41728D01*
G54D18*
X97015Y-41925D03*
X96500Y-42500D03*
G54D19*
X98000Y-45000D03*
X99400Y-42650D03*
X97075Y-44650D03*
X96600Y-43850D03*
G54D20*
X97200Y-41200D02*
X96100Y-41200D01*
X97200Y-41200D02*
X99150Y-43150D01*
X99150Y-43150D02*
X99150Y-44850D01*
X98500Y-45500D02*
X99150Y-44850D01*
X96100Y-41200D02*
X96000Y-41300D01*
X98375Y-46425D02*
X98375Y-46500D01*
X98000Y-46050D02*
X98375Y-46425D01*
X98000Y-45000D02*
X98000Y-46050D01*
X98375Y-46500D02*
X98375Y-46475D01*
X100000Y-46000D02*
X100500Y-45500D01*
X98850Y-46000D02*
X100000Y-46000D01*
X98375Y-46475D02*
X98850Y-46000D01*
X96500Y-42500D02*
X96500Y-42550D01*
X96500Y-46475D02*
X96975Y-46000D01*
X96975Y-46000D02*
X96975Y-45274D01*
X96975Y-45274D02*
X96700Y-45000D01*
X96700Y-45000D02*
X96700Y-44299D01*
X96700Y-44299D02*
X96950Y-44050D01*
X96950Y-44050D02*
X96950Y-43000D01*
X96500Y-46475D02*
X96500Y-46500D01*
X96500Y-42550D02*
X96950Y-43000D01*
X98000Y-41300D02*
X98000Y-41650D01*
X99400Y-42650D02*
X99100Y-42650D01*
X99000Y-42650D02*
X99100Y-42650D01*
X98000Y-41650D02*
X99000Y-42650D01*
X100500Y-42250D02*
X100375Y-42250D01*
X99500Y-43125D02*
X99500Y-45500D01*
X99500Y-43125D02*
X99950Y-42675D01*
X100375Y-42250D02*
X99950Y-42675D01*
X97075Y-44650D02*
X97425Y-45000D01*
X97425Y-45425D02*
X97500Y-45500D01*
X97425Y-45000D02*
X97425Y-45425D01*
X97625Y-46500D02*
X97625Y-45625D01*
X97625Y-45625D02*
X97500Y-45500D01*
X96500Y-45500D02*
X96500Y-43950D01*
X96500Y-43950D02*
X96600Y-43850D01*
X96500Y-45500D02*
X96500Y-45474D01*
X100000Y-41500D02*
X99000Y-41500D01*
G54D10*
G36*
X95282Y-45999D02*
X95191Y-46037D01*
X95038Y-46190D01*
X95019Y-46234D01*
X95019Y-45800D01*
X95014Y-45774D01*
X95014Y-45753D01*
X95037Y-45808D01*
X95190Y-45961D01*
X95282Y-45999D01*
X95282Y-45999D01*
G37*
G54D20*
X95282Y-45999D02*
X95191Y-46037D01*
X95038Y-46190D01*
X95019Y-46234D01*
X95019Y-45800D01*
X95014Y-45774D01*
X95014Y-45753D01*
X95037Y-45808D01*
X95190Y-45961D01*
X95282Y-45999D01*
G54D10*
G36*
X95925Y-42914D02*
X95884Y-42914D01*
X95871Y-42920D01*
X95857Y-42920D01*
X95691Y-42989D01*
X95689Y-42995D01*
X95669Y-43003D01*
X95504Y-43168D01*
X95495Y-43189D01*
X95489Y-43191D01*
X95454Y-43287D01*
X95415Y-43383D01*
X95415Y-43396D01*
X95410Y-43409D01*
X95414Y-43512D01*
X95414Y-43615D01*
X95420Y-43628D01*
X95420Y-43642D01*
X95489Y-43808D01*
X95495Y-43810D01*
X95503Y-43830D01*
X95668Y-43995D01*
X95689Y-44004D01*
X95689Y-44006D01*
X95674Y-44012D01*
X95512Y-44173D01*
X95425Y-44385D01*
X95424Y-44613D01*
X95512Y-44825D01*
X95664Y-44977D01*
X95608Y-44954D01*
X95392Y-44954D01*
X95191Y-45037D01*
X95038Y-45190D01*
X94954Y-45391D01*
X94954Y-45513D01*
X94939Y-45477D01*
X94939Y-45477D01*
X94842Y-45332D01*
X94842Y-45331D01*
X94767Y-45257D01*
X94621Y-45159D01*
X94569Y-45138D01*
X94569Y-44215D01*
X94641Y-44186D01*
X94641Y-44185D01*
X94803Y-44078D01*
X94877Y-44003D01*
X94878Y-44002D01*
X94985Y-43841D01*
X94986Y-43840D01*
X95026Y-43743D01*
X95064Y-43552D01*
X95064Y-43552D01*
X95064Y-43552D01*
X95064Y-43552D01*
X95064Y-43500D01*
X95064Y-43447D01*
X95064Y-43447D01*
X95064Y-43447D01*
X95064Y-43447D01*
X95026Y-43256D01*
X94986Y-43159D01*
X94985Y-43158D01*
X94878Y-42997D01*
X94877Y-42996D01*
X94803Y-42921D01*
X94641Y-42814D01*
X94641Y-42813D01*
X94569Y-42784D01*
X94569Y-41861D01*
X94621Y-41840D01*
X94767Y-41742D01*
X94842Y-41668D01*
X94842Y-41667D01*
X94939Y-41522D01*
X94939Y-41522D01*
X94980Y-41425D01*
X95014Y-41252D01*
X95014Y-41252D01*
X95038Y-41132D01*
X95075Y-41076D01*
X95133Y-41038D01*
X95225Y-41019D01*
X95525Y-41019D01*
X95454Y-41191D01*
X95454Y-41407D01*
X95537Y-41608D01*
X95651Y-41722D01*
X95608Y-41704D01*
X95392Y-41704D01*
X95191Y-41787D01*
X95038Y-41940D01*
X94954Y-42141D01*
X94954Y-42357D01*
X95037Y-42558D01*
X95190Y-42711D01*
X95391Y-42795D01*
X95607Y-42795D01*
X95808Y-42712D01*
X95824Y-42697D01*
X95906Y-42896D01*
X95925Y-42914D01*
X95925Y-42914D01*
G37*
G54D20*
X95925Y-42914D02*
X95884Y-42914D01*
X95871Y-42920D01*
X95857Y-42920D01*
X95691Y-42989D01*
X95689Y-42995D01*
X95669Y-43003D01*
X95504Y-43168D01*
X95495Y-43189D01*
X95489Y-43191D01*
X95454Y-43287D01*
X95415Y-43383D01*
X95415Y-43396D01*
X95410Y-43409D01*
X95414Y-43512D01*
X95414Y-43615D01*
X95420Y-43628D01*
X95420Y-43642D01*
X95489Y-43808D01*
X95495Y-43810D01*
X95503Y-43830D01*
X95668Y-43995D01*
X95689Y-44004D01*
X95689Y-44006D01*
X95674Y-44012D01*
X95512Y-44173D01*
X95425Y-44385D01*
X95424Y-44613D01*
X95512Y-44825D01*
X95664Y-44977D01*
X95608Y-44954D01*
X95392Y-44954D01*
X95191Y-45037D01*
X95038Y-45190D01*
X94954Y-45391D01*
X94954Y-45513D01*
X94939Y-45477D01*
X94939Y-45477D01*
X94842Y-45332D01*
X94842Y-45331D01*
X94767Y-45257D01*
X94621Y-45159D01*
X94569Y-45138D01*
X94569Y-44215D01*
X94641Y-44186D01*
X94641Y-44185D01*
X94803Y-44078D01*
X94877Y-44003D01*
X94878Y-44002D01*
X94985Y-43841D01*
X94986Y-43840D01*
X95026Y-43743D01*
X95064Y-43552D01*
X95064Y-43552D01*
X95064Y-43552D01*
X95064Y-43552D01*
X95064Y-43500D01*
X95064Y-43447D01*
X95064Y-43447D01*
X95064Y-43447D01*
X95064Y-43447D01*
X95026Y-43256D01*
X94986Y-43159D01*
X94985Y-43158D01*
X94878Y-42997D01*
X94877Y-42996D01*
X94803Y-42921D01*
X94641Y-42814D01*
X94641Y-42813D01*
X94569Y-42784D01*
X94569Y-41861D01*
X94621Y-41840D01*
X94767Y-41742D01*
X94842Y-41668D01*
X94842Y-41667D01*
X94939Y-41522D01*
X94939Y-41522D01*
X94980Y-41425D01*
X95014Y-41252D01*
X95014Y-41252D01*
X95038Y-41132D01*
X95075Y-41076D01*
X95133Y-41038D01*
X95225Y-41019D01*
X95525Y-41019D01*
X95454Y-41191D01*
X95454Y-41407D01*
X95537Y-41608D01*
X95651Y-41722D01*
X95608Y-41704D01*
X95392Y-41704D01*
X95191Y-41787D01*
X95038Y-41940D01*
X94954Y-42141D01*
X94954Y-42357D01*
X95037Y-42558D01*
X95190Y-42711D01*
X95391Y-42795D01*
X95607Y-42795D01*
X95808Y-42712D01*
X95824Y-42697D01*
X95906Y-42896D01*
X95925Y-42914D01*
G54D10*
G36*
X96059Y-46830D02*
X95940Y-46830D01*
X95961Y-46809D01*
X95999Y-46717D01*
X96037Y-46808D01*
X96059Y-46830D01*
X96059Y-46830D01*
G37*
G54D20*
X96059Y-46830D02*
X95940Y-46830D01*
X95961Y-46809D01*
X95999Y-46717D01*
X96037Y-46808D01*
X96059Y-46830D01*
G54D10*
G36*
X96200Y-45057D02*
X96055Y-45202D01*
X96010Y-45308D01*
X95962Y-45191D01*
X95818Y-45047D01*
X95885Y-45074D01*
X96113Y-45075D01*
X96200Y-45039D01*
X96200Y-45057D01*
X96200Y-45057D01*
G37*
G54D20*
X96200Y-45057D02*
X96055Y-45202D01*
X96010Y-45308D01*
X95962Y-45191D01*
X95818Y-45047D01*
X95885Y-45074D01*
X96113Y-45075D01*
X96200Y-45039D01*
X96200Y-45057D01*
G54D10*
G36*
X96308Y-45989D02*
X96191Y-46037D01*
X96038Y-46190D01*
X96000Y-46282D01*
X95962Y-46191D01*
X95809Y-46038D01*
X95717Y-46000D01*
X95808Y-45962D01*
X95961Y-45809D01*
X96010Y-45691D01*
X96054Y-45797D01*
X96202Y-45944D01*
X96308Y-45989D01*
X96308Y-45989D01*
G37*
G54D20*
X96308Y-45989D02*
X96191Y-46037D01*
X96038Y-46190D01*
X96000Y-46282D01*
X95962Y-46191D01*
X95809Y-46038D01*
X95717Y-46000D01*
X95808Y-45962D01*
X95961Y-45809D01*
X96010Y-45691D01*
X96054Y-45797D01*
X96202Y-45944D01*
X96308Y-45989D01*
G54D10*
G36*
X96337Y-41733D02*
X96315Y-41785D01*
X96315Y-41818D01*
X96104Y-41906D01*
X95993Y-42016D01*
X95962Y-41941D01*
X95848Y-41827D01*
X95891Y-41845D01*
X96107Y-41845D01*
X96308Y-41762D01*
X96337Y-41733D01*
X96337Y-41733D01*
G37*
G54D20*
X96337Y-41733D02*
X96315Y-41785D01*
X96315Y-41818D01*
X96104Y-41906D01*
X95993Y-42016D01*
X95962Y-41941D01*
X95848Y-41827D01*
X95891Y-41845D01*
X96107Y-41845D01*
X96308Y-41762D01*
X96337Y-41733D01*
G54D10*
G36*
X96650Y-43425D02*
X96585Y-43424D01*
X96585Y-43384D01*
X96579Y-43371D01*
X96579Y-43357D01*
X96513Y-43200D01*
X96638Y-43200D01*
X96650Y-43195D01*
X96650Y-43425D01*
X96650Y-43425D01*
G37*
G54D20*
X96650Y-43425D02*
X96585Y-43424D01*
X96585Y-43384D01*
X96579Y-43371D01*
X96579Y-43357D01*
X96513Y-43200D01*
X96638Y-43200D01*
X96650Y-43195D01*
X96650Y-43425D01*
G54D10*
G36*
X97202Y-46830D02*
X96940Y-46830D01*
X96961Y-46809D01*
X97045Y-46608D01*
X97045Y-46392D01*
X97034Y-46365D01*
X97187Y-46212D01*
X97187Y-46212D01*
X97200Y-46192D01*
X97199Y-46274D01*
X97199Y-46824D01*
X97202Y-46830D01*
X97202Y-46830D01*
G37*
G54D20*
X97202Y-46830D02*
X96940Y-46830D01*
X96961Y-46809D01*
X97045Y-46608D01*
X97045Y-46392D01*
X97034Y-46365D01*
X97187Y-46212D01*
X97187Y-46212D01*
X97200Y-46192D01*
X97199Y-46274D01*
X97199Y-46824D01*
X97202Y-46830D01*
G54D10*
G36*
X97283Y-46038D02*
X97263Y-46057D01*
X97268Y-46031D01*
X97283Y-46038D01*
X97283Y-46038D01*
G37*
G54D20*
X97283Y-46038D02*
X97263Y-46057D01*
X97268Y-46031D01*
X97283Y-46038D01*
G54D10*
G36*
X97525Y-41019D02*
X97501Y-41077D01*
X97443Y-41019D01*
X97525Y-41019D01*
X97525Y-41019D01*
G37*
G54D20*
X97525Y-41019D02*
X97501Y-41077D01*
X97443Y-41019D01*
X97525Y-41019D01*
G54D10*
G36*
X98040Y-42464D02*
X97996Y-42464D01*
X97795Y-42464D01*
X97790Y-42466D01*
X97785Y-42466D01*
X97420Y-42617D01*
X97419Y-42619D01*
X97414Y-42622D01*
X97196Y-42839D01*
X97162Y-42787D01*
X97145Y-42771D01*
X97199Y-42639D01*
X97199Y-42606D01*
X97411Y-42518D01*
X97608Y-42322D01*
X97693Y-42117D01*
X98040Y-42464D01*
X98040Y-42464D01*
G37*
G54D20*
X98040Y-42464D02*
X97996Y-42464D01*
X97795Y-42464D01*
X97790Y-42466D01*
X97785Y-42466D01*
X97420Y-42617D01*
X97419Y-42619D01*
X97414Y-42622D01*
X97196Y-42839D01*
X97162Y-42787D01*
X97145Y-42771D01*
X97199Y-42639D01*
X97199Y-42606D01*
X97411Y-42518D01*
X97608Y-42322D01*
X97693Y-42117D01*
X98040Y-42464D01*
G54D10*
G36*
X98492Y-41019D02*
X98480Y-41035D01*
X98474Y-41019D01*
X98492Y-41019D01*
X98492Y-41019D01*
G37*
G54D20*
X98492Y-41019D02*
X98480Y-41035D01*
X98474Y-41019D01*
X98492Y-41019D01*
G54D10*
G36*
X98850Y-44725D02*
X98643Y-44931D01*
X98615Y-44920D01*
X98425Y-44919D01*
X98425Y-44915D01*
X98360Y-44759D01*
X98241Y-44639D01*
X98084Y-44575D01*
X97915Y-44574D01*
X97759Y-44639D01*
X97639Y-44758D01*
X97630Y-44781D01*
X97499Y-44650D01*
X97500Y-44565D01*
X97435Y-44409D01*
X97316Y-44289D01*
X97181Y-44233D01*
X97216Y-44180D01*
X97412Y-44376D01*
X97419Y-44379D01*
X97420Y-44382D01*
X97607Y-44457D01*
X97793Y-44534D01*
X97798Y-44534D01*
X97802Y-44536D01*
X98003Y-44535D01*
X98204Y-44535D01*
X98209Y-44533D01*
X98214Y-44533D01*
X98579Y-44382D01*
X98580Y-44380D01*
X98585Y-44377D01*
X98850Y-44113D01*
X98850Y-44725D01*
X98850Y-44725D01*
G37*
G54D20*
X98850Y-44725D02*
X98643Y-44931D01*
X98615Y-44920D01*
X98425Y-44919D01*
X98425Y-44915D01*
X98360Y-44759D01*
X98241Y-44639D01*
X98084Y-44575D01*
X97915Y-44574D01*
X97759Y-44639D01*
X97639Y-44758D01*
X97630Y-44781D01*
X97499Y-44650D01*
X97500Y-44565D01*
X97435Y-44409D01*
X97316Y-44289D01*
X97181Y-44233D01*
X97216Y-44180D01*
X97412Y-44376D01*
X97419Y-44379D01*
X97420Y-44382D01*
X97607Y-44457D01*
X97793Y-44534D01*
X97798Y-44534D01*
X97802Y-44536D01*
X98003Y-44535D01*
X98204Y-44535D01*
X98209Y-44533D01*
X98214Y-44533D01*
X98579Y-44382D01*
X98580Y-44380D01*
X98585Y-44377D01*
X98850Y-44113D01*
X98850Y-44725D01*
G54D10*
G36*
X99059Y-46830D02*
X98797Y-46830D01*
X98799Y-46824D01*
X98800Y-46725D01*
X98800Y-46474D01*
X98974Y-46300D01*
X98992Y-46300D01*
X98954Y-46391D01*
X98954Y-46607D01*
X99037Y-46808D01*
X99059Y-46830D01*
X99059Y-46830D01*
G37*
G54D20*
X99059Y-46830D02*
X98797Y-46830D01*
X98799Y-46824D01*
X98800Y-46725D01*
X98800Y-46474D01*
X98974Y-46300D01*
X98992Y-46300D01*
X98954Y-46391D01*
X98954Y-46607D01*
X99037Y-46808D01*
X99059Y-46830D01*
G54D10*
G36*
X99552Y-41019D02*
X99550Y-41025D01*
X99550Y-41060D01*
X99529Y-41024D01*
X99522Y-41019D01*
X99552Y-41019D01*
X99552Y-41019D01*
G37*
G54D20*
X99552Y-41019D02*
X99550Y-41025D01*
X99550Y-41060D01*
X99529Y-41024D01*
X99522Y-41019D01*
X99552Y-41019D01*
G54D10*
G36*
X100059Y-46830D02*
X99940Y-46830D01*
X99961Y-46809D01*
X99999Y-46717D01*
X100037Y-46808D01*
X100059Y-46830D01*
X100059Y-46830D01*
G37*
G54D20*
X100059Y-46830D02*
X99940Y-46830D01*
X99961Y-46809D01*
X99999Y-46717D01*
X100037Y-46808D01*
X100059Y-46830D01*
G54D10*
G36*
X100103Y-41875D02*
X100038Y-41940D01*
X99954Y-42141D01*
X99954Y-42246D01*
X99769Y-42431D01*
X99760Y-42409D01*
X99641Y-42289D01*
X99484Y-42225D01*
X99479Y-42225D01*
X99609Y-42056D01*
X99668Y-41840D01*
X99750Y-41874D01*
X99849Y-41875D01*
X100103Y-41875D01*
X100103Y-41875D01*
G37*
G54D20*
X100103Y-41875D02*
X100038Y-41940D01*
X99954Y-42141D01*
X99954Y-42246D01*
X99769Y-42431D01*
X99760Y-42409D01*
X99641Y-42289D01*
X99484Y-42225D01*
X99479Y-42225D01*
X99609Y-42056D01*
X99668Y-41840D01*
X99750Y-41874D01*
X99849Y-41875D01*
X100103Y-41875D01*
G54D10*
G36*
X100182Y-45046D02*
X100038Y-45190D01*
X100025Y-45221D01*
X100025Y-45175D01*
X99987Y-45083D01*
X99978Y-45074D01*
X100113Y-45075D01*
X100182Y-45046D01*
X100182Y-45046D01*
G37*
G54D20*
X100182Y-45046D02*
X100038Y-45190D01*
X100025Y-45221D01*
X100025Y-45175D01*
X99987Y-45083D01*
X99978Y-45074D01*
X100113Y-45075D01*
X100182Y-45046D01*
G54D10*
G36*
X100980Y-46234D02*
X100962Y-46191D01*
X100809Y-46038D01*
X100717Y-46000D01*
X100808Y-45962D01*
X100961Y-45809D01*
X100980Y-45765D01*
X100980Y-46234D01*
X100980Y-46234D01*
G37*
G54D20*
X100980Y-46234D02*
X100962Y-46191D01*
X100809Y-46038D01*
X100717Y-46000D01*
X100808Y-45962D01*
X100961Y-45809D01*
X100980Y-45765D01*
X100980Y-46234D01*
G54D10*
G36*
X101430Y-45088D02*
X101377Y-45110D01*
X101377Y-45110D01*
X101232Y-45207D01*
X101231Y-45207D01*
X101157Y-45282D01*
X101059Y-45428D01*
X101045Y-45463D01*
X101045Y-45392D01*
X100962Y-45191D01*
X100809Y-45038D01*
X100608Y-44954D01*
X100392Y-44954D01*
X100334Y-44978D01*
X100487Y-44826D01*
X100574Y-44614D01*
X100575Y-44386D01*
X100487Y-44174D01*
X100326Y-44012D01*
X100310Y-44006D01*
X100310Y-44004D01*
X100330Y-43996D01*
X100495Y-43831D01*
X100504Y-43810D01*
X100510Y-43808D01*
X100545Y-43712D01*
X100584Y-43616D01*
X100584Y-43603D01*
X100589Y-43590D01*
X100585Y-43487D01*
X100585Y-43384D01*
X100579Y-43371D01*
X100579Y-43357D01*
X100510Y-43191D01*
X100504Y-43189D01*
X100496Y-43169D01*
X100331Y-43004D01*
X100310Y-42995D01*
X100308Y-42989D01*
X100212Y-42954D01*
X100129Y-42920D01*
X100162Y-42887D01*
X100294Y-42754D01*
X100391Y-42795D01*
X100607Y-42795D01*
X100808Y-42712D01*
X100961Y-42559D01*
X101045Y-42358D01*
X101045Y-42142D01*
X100962Y-41941D01*
X100896Y-41875D01*
X100949Y-41875D01*
X101041Y-41837D01*
X101111Y-41766D01*
X101141Y-41694D01*
X101157Y-41717D01*
X101231Y-41792D01*
X101232Y-41792D01*
X101377Y-41889D01*
X101377Y-41889D01*
X101430Y-41911D01*
X101430Y-42784D01*
X101359Y-42813D01*
X101358Y-42814D01*
X101197Y-42921D01*
X101196Y-42922D01*
X101121Y-42996D01*
X101014Y-43158D01*
X101013Y-43158D01*
X100973Y-43256D01*
X100935Y-43447D01*
X100935Y-43500D01*
X100935Y-43552D01*
X100973Y-43743D01*
X101013Y-43841D01*
X101014Y-43841D01*
X101121Y-44003D01*
X101196Y-44077D01*
X101197Y-44078D01*
X101358Y-44185D01*
X101359Y-44186D01*
X101430Y-44215D01*
X101430Y-45088D01*
X101430Y-45088D01*
G37*
G54D20*
X101430Y-45088D02*
X101377Y-45110D01*
X101377Y-45110D01*
X101232Y-45207D01*
X101231Y-45207D01*
X101157Y-45282D01*
X101059Y-45428D01*
X101045Y-45463D01*
X101045Y-45392D01*
X100962Y-45191D01*
X100809Y-45038D01*
X100608Y-44954D01*
X100392Y-44954D01*
X100334Y-44978D01*
X100487Y-44826D01*
X100574Y-44614D01*
X100575Y-44386D01*
X100487Y-44174D01*
X100326Y-44012D01*
X100310Y-44006D01*
X100310Y-44004D01*
X100330Y-43996D01*
X100495Y-43831D01*
X100504Y-43810D01*
X100510Y-43808D01*
X100545Y-43712D01*
X100584Y-43616D01*
X100584Y-43603D01*
X100589Y-43590D01*
X100585Y-43487D01*
X100585Y-43384D01*
X100579Y-43371D01*
X100579Y-43357D01*
X100510Y-43191D01*
X100504Y-43189D01*
X100496Y-43169D01*
X100331Y-43004D01*
X100310Y-42995D01*
X100308Y-42989D01*
X100212Y-42954D01*
X100129Y-42920D01*
X100162Y-42887D01*
X100294Y-42754D01*
X100391Y-42795D01*
X100607Y-42795D01*
X100808Y-42712D01*
X100961Y-42559D01*
X101045Y-42358D01*
X101045Y-42142D01*
X100962Y-41941D01*
X100896Y-41875D01*
X100949Y-41875D01*
X101041Y-41837D01*
X101111Y-41766D01*
X101141Y-41694D01*
X101157Y-41717D01*
X101231Y-41792D01*
X101232Y-41792D01*
X101377Y-41889D01*
X101377Y-41889D01*
X101430Y-41911D01*
X101430Y-42784D01*
X101359Y-42813D01*
X101358Y-42814D01*
X101197Y-42921D01*
X101196Y-42922D01*
X101121Y-42996D01*
X101014Y-43158D01*
X101013Y-43158D01*
X100973Y-43256D01*
X100935Y-43447D01*
X100935Y-43500D01*
X100935Y-43552D01*
X100973Y-43743D01*
X101013Y-43841D01*
X101014Y-43841D01*
X101121Y-44003D01*
X101196Y-44077D01*
X101197Y-44078D01*
X101358Y-44185D01*
X101359Y-44186D01*
X101430Y-44215D01*
X101430Y-45088D01*
M02*
