G04 (created by PCBNEW (2013-may-18)-stable) date Sun 20 Sep 2015 02:24:46 AM EDT*
%MOIN*%
G04 Gerber Fmt 3.4, Leading zero omitted, Abs format*
%FSLAX34Y34*%
G01*
G70*
G90*
G04 APERTURE LIST*
%ADD10C,0.00590551*%
%ADD11C,0.0001*%
%ADD12C,0.065*%
%ADD13C,0.0590551*%
%ADD14R,0.0590551X0.0590551*%
%ADD15C,0.055*%
%ADD16R,0.035X0.055*%
%ADD17C,0.066*%
%ADD18C,0.09*%
%ADD19C,0.09*%
%ADD20C,0.157*%
%ADD21C,0.067*%
G04 APERTURE END LIST*
G54D10*
G54D11*
G36*
X101520Y-45224D02*
X100530Y-45224D01*
X100501Y-45222D01*
X100473Y-45218D01*
X100446Y-45211D01*
X100420Y-45202D01*
X100396Y-45190D01*
X100373Y-45176D01*
X100351Y-45160D01*
X100331Y-45142D01*
X100313Y-45122D01*
X100297Y-45100D01*
X100283Y-45077D01*
X100271Y-45053D01*
X100262Y-45027D01*
X100255Y-45000D01*
X100251Y-44972D01*
X100250Y-44944D01*
X100250Y-44230D01*
X100251Y-44201D01*
X100255Y-44173D01*
X100262Y-44146D01*
X100271Y-44120D01*
X100283Y-44096D01*
X100297Y-44073D01*
X100313Y-44051D01*
X100331Y-44031D01*
X100351Y-44013D01*
X100373Y-43997D01*
X100396Y-43983D01*
X100420Y-43971D01*
X100446Y-43962D01*
X100473Y-43955D01*
X100501Y-43951D01*
X100530Y-43950D01*
X101520Y-43950D01*
X101548Y-43951D01*
X101576Y-43955D01*
X101603Y-43962D01*
X101629Y-43971D01*
X101653Y-43983D01*
X101676Y-43997D01*
X101698Y-44013D01*
X101718Y-44031D01*
X101736Y-44051D01*
X101752Y-44073D01*
X101766Y-44096D01*
X101778Y-44120D01*
X101787Y-44146D01*
X101794Y-44173D01*
X101798Y-44201D01*
X101800Y-44230D01*
X101800Y-44944D01*
X101798Y-44972D01*
X101794Y-45000D01*
X101787Y-45027D01*
X101778Y-45053D01*
X101766Y-45077D01*
X101752Y-45100D01*
X101736Y-45122D01*
X101718Y-45142D01*
X101698Y-45160D01*
X101676Y-45176D01*
X101653Y-45190D01*
X101629Y-45202D01*
X101603Y-45211D01*
X101576Y-45218D01*
X101548Y-45222D01*
X101520Y-45224D01*
X101520Y-45224D01*
G37*
G54D12*
X96000Y-44500D03*
X100000Y-44500D03*
G54D13*
X98000Y-41300D03*
G54D14*
X96000Y-41300D03*
X95500Y-45500D03*
G54D13*
X95500Y-42250D03*
G54D14*
X95500Y-46500D03*
G54D13*
X100100Y-41300D03*
X100500Y-42250D03*
G54D14*
X100500Y-45500D03*
G54D15*
X99500Y-45500D03*
X96500Y-45500D03*
G54D13*
X96500Y-46500D03*
G54D14*
X99500Y-46500D03*
G54D16*
X97625Y-46450D03*
X98375Y-46450D03*
X97625Y-44700D03*
X98375Y-44700D03*
G54D17*
X97500Y-45500D03*
X98500Y-45500D03*
G54D18*
X99000Y-41500D02*
X98984Y-41728D01*
G54D19*
X97015Y-41925D03*
X96500Y-42500D03*
G54D20*
X98000Y-43500D03*
G54D21*
X96000Y-43500D03*
X100000Y-43500D03*
G54D13*
X100500Y-46500D03*
M02*
