G04 (created by PCBNEW (2013-may-18)-stable) date Sun 22 Nov 2015 10:33:44 PM EST*
%MOIN*%
G04 Gerber Fmt 3.4, Leading zero omitted, Abs format*
%FSLAX34Y34*%
G01*
G70*
G90*
G04 APERTURE LIST*
%ADD10C,0.00590551*%
%ADD11C,0.0001*%
%ADD12C,0.09*%
%ADD13C,0.09*%
%ADD14C,0.157*%
%ADD15C,0.070937*%
%ADD16C,0.065*%
%ADD17C,0.0590551*%
%ADD18R,0.0590551X0.0590551*%
%ADD19C,0.055*%
%ADD20C,0.066*%
G04 APERTURE END LIST*
G54D10*
G54D11*
G36*
X101129Y-44506D02*
X101127Y-44526D01*
X101122Y-44544D01*
X101113Y-44561D01*
X101101Y-44576D01*
X101086Y-44588D01*
X101069Y-44597D01*
X101051Y-44602D01*
X101031Y-44604D01*
X101011Y-44602D01*
X100993Y-44597D01*
X100976Y-44588D01*
X100961Y-44576D01*
X100949Y-44561D01*
X100940Y-44544D01*
X100935Y-44526D01*
X100933Y-44506D01*
X100935Y-44486D01*
X100940Y-44468D01*
X100949Y-44451D01*
X100961Y-44436D01*
X100976Y-44424D01*
X100993Y-44415D01*
X101011Y-44410D01*
X101031Y-44408D01*
X101051Y-44410D01*
X101069Y-44415D01*
X101086Y-44424D01*
X101101Y-44436D01*
X101113Y-44451D01*
X101122Y-44468D01*
X101127Y-44486D01*
X101129Y-44506D01*
X101129Y-44506D01*
G37*
G36*
X101129Y-44695D02*
X101127Y-44715D01*
X101122Y-44733D01*
X101113Y-44750D01*
X101101Y-44765D01*
X101086Y-44777D01*
X101069Y-44786D01*
X101051Y-44791D01*
X101031Y-44793D01*
X101011Y-44791D01*
X100993Y-44786D01*
X100976Y-44777D01*
X100961Y-44765D01*
X100949Y-44750D01*
X100940Y-44733D01*
X100935Y-44715D01*
X100933Y-44695D01*
X100935Y-44675D01*
X100940Y-44657D01*
X100949Y-44640D01*
X100961Y-44625D01*
X100976Y-44613D01*
X100993Y-44604D01*
X101011Y-44599D01*
X101031Y-44597D01*
X101051Y-44599D01*
X101069Y-44604D01*
X101086Y-44613D01*
X101101Y-44625D01*
X101113Y-44640D01*
X101122Y-44657D01*
X101127Y-44675D01*
X101129Y-44695D01*
X101129Y-44695D01*
G37*
G36*
X101318Y-44506D02*
X101316Y-44526D01*
X101311Y-44544D01*
X101302Y-44561D01*
X101290Y-44576D01*
X101275Y-44588D01*
X101258Y-44597D01*
X101240Y-44602D01*
X101220Y-44604D01*
X101200Y-44602D01*
X101182Y-44597D01*
X101165Y-44588D01*
X101150Y-44576D01*
X101138Y-44561D01*
X101129Y-44544D01*
X101124Y-44526D01*
X101122Y-44506D01*
X101124Y-44486D01*
X101129Y-44468D01*
X101138Y-44451D01*
X101150Y-44436D01*
X101165Y-44424D01*
X101182Y-44415D01*
X101200Y-44410D01*
X101220Y-44408D01*
X101240Y-44410D01*
X101258Y-44415D01*
X101275Y-44424D01*
X101290Y-44436D01*
X101302Y-44451D01*
X101311Y-44468D01*
X101316Y-44486D01*
X101318Y-44506D01*
X101318Y-44506D01*
G37*
G36*
X101318Y-44317D02*
X101316Y-44337D01*
X101311Y-44355D01*
X101302Y-44372D01*
X101290Y-44387D01*
X101275Y-44399D01*
X101258Y-44408D01*
X101240Y-44413D01*
X101220Y-44415D01*
X101200Y-44413D01*
X101182Y-44408D01*
X101165Y-44399D01*
X101150Y-44387D01*
X101138Y-44372D01*
X101129Y-44355D01*
X101124Y-44337D01*
X101122Y-44317D01*
X101124Y-44297D01*
X101129Y-44279D01*
X101138Y-44262D01*
X101150Y-44247D01*
X101165Y-44235D01*
X101182Y-44226D01*
X101200Y-44221D01*
X101220Y-44219D01*
X101240Y-44221D01*
X101258Y-44226D01*
X101275Y-44235D01*
X101290Y-44247D01*
X101302Y-44262D01*
X101311Y-44279D01*
X101316Y-44297D01*
X101318Y-44317D01*
X101318Y-44317D01*
G37*
G36*
X101570Y-44317D02*
X101568Y-44337D01*
X101563Y-44355D01*
X101554Y-44372D01*
X101542Y-44387D01*
X101527Y-44399D01*
X101510Y-44408D01*
X101492Y-44413D01*
X101472Y-44415D01*
X101452Y-44413D01*
X101434Y-44408D01*
X101417Y-44399D01*
X101402Y-44387D01*
X101390Y-44372D01*
X101381Y-44355D01*
X101376Y-44337D01*
X101374Y-44317D01*
X101376Y-44297D01*
X101381Y-44279D01*
X101390Y-44262D01*
X101402Y-44247D01*
X101417Y-44235D01*
X101434Y-44226D01*
X101452Y-44221D01*
X101472Y-44219D01*
X101492Y-44221D01*
X101510Y-44226D01*
X101527Y-44235D01*
X101542Y-44247D01*
X101554Y-44262D01*
X101563Y-44279D01*
X101568Y-44297D01*
X101570Y-44317D01*
X101570Y-44317D01*
G37*
G36*
X101570Y-44506D02*
X101568Y-44526D01*
X101563Y-44544D01*
X101554Y-44561D01*
X101542Y-44576D01*
X101527Y-44588D01*
X101510Y-44597D01*
X101492Y-44602D01*
X101472Y-44604D01*
X101452Y-44602D01*
X101434Y-44597D01*
X101417Y-44588D01*
X101402Y-44576D01*
X101390Y-44561D01*
X101381Y-44544D01*
X101376Y-44526D01*
X101374Y-44506D01*
X101376Y-44486D01*
X101381Y-44468D01*
X101390Y-44451D01*
X101402Y-44436D01*
X101417Y-44424D01*
X101434Y-44415D01*
X101452Y-44410D01*
X101472Y-44408D01*
X101492Y-44410D01*
X101510Y-44415D01*
X101527Y-44424D01*
X101542Y-44436D01*
X101554Y-44451D01*
X101563Y-44468D01*
X101568Y-44486D01*
X101570Y-44506D01*
X101570Y-44506D01*
G37*
G36*
X101570Y-44695D02*
X101568Y-44715D01*
X101563Y-44733D01*
X101554Y-44750D01*
X101542Y-44765D01*
X101527Y-44777D01*
X101510Y-44786D01*
X101492Y-44791D01*
X101472Y-44793D01*
X101452Y-44791D01*
X101434Y-44786D01*
X101417Y-44777D01*
X101402Y-44765D01*
X101390Y-44750D01*
X101381Y-44733D01*
X101376Y-44715D01*
X101374Y-44695D01*
X101376Y-44675D01*
X101381Y-44657D01*
X101390Y-44640D01*
X101402Y-44625D01*
X101417Y-44613D01*
X101434Y-44604D01*
X101452Y-44599D01*
X101472Y-44597D01*
X101492Y-44599D01*
X101510Y-44604D01*
X101527Y-44613D01*
X101542Y-44625D01*
X101554Y-44640D01*
X101563Y-44657D01*
X101568Y-44675D01*
X101570Y-44695D01*
X101570Y-44695D01*
G37*
G36*
X100688Y-44317D02*
X100686Y-44337D01*
X100681Y-44355D01*
X100672Y-44372D01*
X100660Y-44387D01*
X100645Y-44399D01*
X100628Y-44408D01*
X100610Y-44413D01*
X100590Y-44415D01*
X100570Y-44413D01*
X100552Y-44408D01*
X100535Y-44399D01*
X100520Y-44387D01*
X100508Y-44372D01*
X100499Y-44355D01*
X100494Y-44337D01*
X100492Y-44317D01*
X100494Y-44297D01*
X100499Y-44279D01*
X100508Y-44262D01*
X100520Y-44247D01*
X100535Y-44235D01*
X100552Y-44226D01*
X100570Y-44221D01*
X100590Y-44219D01*
X100610Y-44221D01*
X100628Y-44226D01*
X100645Y-44235D01*
X100660Y-44247D01*
X100672Y-44262D01*
X100681Y-44279D01*
X100686Y-44297D01*
X100688Y-44317D01*
X100688Y-44317D01*
G37*
G36*
X100877Y-44317D02*
X100875Y-44337D01*
X100870Y-44355D01*
X100861Y-44372D01*
X100849Y-44387D01*
X100834Y-44399D01*
X100817Y-44408D01*
X100799Y-44413D01*
X100779Y-44415D01*
X100759Y-44413D01*
X100741Y-44408D01*
X100724Y-44399D01*
X100709Y-44387D01*
X100697Y-44372D01*
X100688Y-44355D01*
X100683Y-44337D01*
X100681Y-44317D01*
X100683Y-44297D01*
X100688Y-44279D01*
X100697Y-44262D01*
X100709Y-44247D01*
X100724Y-44235D01*
X100741Y-44226D01*
X100759Y-44221D01*
X100779Y-44219D01*
X100799Y-44221D01*
X100817Y-44226D01*
X100834Y-44235D01*
X100849Y-44247D01*
X100861Y-44262D01*
X100870Y-44279D01*
X100875Y-44297D01*
X100877Y-44317D01*
X100877Y-44317D01*
G37*
G36*
X100688Y-44695D02*
X100686Y-44715D01*
X100681Y-44733D01*
X100672Y-44750D01*
X100660Y-44765D01*
X100645Y-44777D01*
X100628Y-44786D01*
X100610Y-44791D01*
X100590Y-44793D01*
X100570Y-44791D01*
X100552Y-44786D01*
X100535Y-44777D01*
X100520Y-44765D01*
X100508Y-44750D01*
X100499Y-44733D01*
X100494Y-44715D01*
X100492Y-44695D01*
X100494Y-44675D01*
X100499Y-44657D01*
X100508Y-44640D01*
X100520Y-44625D01*
X100535Y-44613D01*
X100552Y-44604D01*
X100570Y-44599D01*
X100590Y-44597D01*
X100610Y-44599D01*
X100628Y-44604D01*
X100645Y-44613D01*
X100660Y-44625D01*
X100672Y-44640D01*
X100681Y-44657D01*
X100686Y-44675D01*
X100688Y-44695D01*
X100688Y-44695D01*
G37*
G54D12*
X99000Y-41500D02*
X98984Y-41728D01*
G54D13*
X97015Y-41925D03*
X96500Y-42500D03*
G54D14*
X98000Y-43500D03*
G54D15*
X96000Y-43500D03*
X100000Y-43500D03*
G54D16*
X96000Y-44500D03*
X100000Y-44500D03*
G54D17*
X98000Y-41300D03*
G54D18*
X96000Y-41300D03*
X95500Y-45500D03*
G54D17*
X95500Y-42250D03*
G54D18*
X95500Y-46500D03*
G54D17*
X100100Y-41300D03*
X100500Y-42250D03*
G54D18*
X100500Y-45500D03*
G54D19*
X99500Y-45500D03*
X96500Y-45500D03*
G54D17*
X96500Y-46500D03*
G54D18*
X99500Y-46500D03*
G54D20*
X97500Y-45500D03*
X98500Y-45500D03*
G54D17*
X100500Y-46500D03*
M02*
