G04 (created by PCBNEW (2013-may-18)-stable) date Sat 21 Nov 2015 02:45:17 PM EST*
%MOIN*%
G04 Gerber Fmt 3.4, Leading zero omitted, Abs format*
%FSLAX34Y34*%
G01*
G70*
G90*
G04 APERTURE LIST*
%ADD10C,0.00590551*%
%ADD11C,0.00393701*%
%ADD12C,0.015*%
%ADD13C,0.012*%
%ADD14C,0.011811*%
%ADD15C,0.00787402*%
%ADD16C,0.0039*%
%ADD17C,0.0001*%
G04 APERTURE END LIST*
G54D10*
X100955Y-41234D02*
X100921Y-41245D01*
X100865Y-41245D01*
X100842Y-41234D01*
X100831Y-41223D01*
X100820Y-41200D01*
X100820Y-41178D01*
X100831Y-41155D01*
X100842Y-41144D01*
X100865Y-41133D01*
X100910Y-41121D01*
X100932Y-41110D01*
X100943Y-41099D01*
X100955Y-41076D01*
X100955Y-41054D01*
X100943Y-41031D01*
X100932Y-41020D01*
X100910Y-41009D01*
X100853Y-41009D01*
X100820Y-41020D01*
X100583Y-41223D02*
X100595Y-41234D01*
X100628Y-41245D01*
X100651Y-41245D01*
X100685Y-41234D01*
X100707Y-41211D01*
X100718Y-41189D01*
X100730Y-41144D01*
X100730Y-41110D01*
X100718Y-41065D01*
X100707Y-41043D01*
X100685Y-41020D01*
X100651Y-41009D01*
X100628Y-41009D01*
X100595Y-41020D01*
X100583Y-41031D01*
G54D11*
X100953Y-41355D02*
X100303Y-41355D01*
X95550Y-45350D02*
X96150Y-45350D01*
G54D10*
X97933Y-44820D02*
X98012Y-44708D01*
X98068Y-44820D02*
X98068Y-44584D01*
X97978Y-44584D01*
X97956Y-44595D01*
X97945Y-44606D01*
X97933Y-44629D01*
X97933Y-44663D01*
X97945Y-44685D01*
X97956Y-44696D01*
X97978Y-44708D01*
X98068Y-44708D01*
G54D11*
X95600Y-42980D02*
X95600Y-42455D01*
X95185Y-41305D02*
X95765Y-41305D01*
X100440Y-42965D02*
X100440Y-42485D01*
X100450Y-45350D02*
X99900Y-45350D01*
X97135Y-46640D02*
X96560Y-46640D01*
X98870Y-46625D02*
X99395Y-46625D01*
G54D10*
X101167Y-41710D02*
X101377Y-41759D01*
X101167Y-41860D01*
X101377Y-42119D02*
X101377Y-41939D01*
X101377Y-42029D02*
X101062Y-42068D01*
X101107Y-42032D01*
X101137Y-41999D01*
X101152Y-41967D01*
X101347Y-42257D02*
X101362Y-42270D01*
X101377Y-42254D01*
X101362Y-42240D01*
X101347Y-42257D01*
X101377Y-42254D01*
X101062Y-42413D02*
X101062Y-42608D01*
X101182Y-42488D01*
X101182Y-42533D01*
X101197Y-42561D01*
X101212Y-42574D01*
X101242Y-42585D01*
X101317Y-42576D01*
X101347Y-42557D01*
X101362Y-42540D01*
X101377Y-42509D01*
X101377Y-42419D01*
X101362Y-42390D01*
X101347Y-42377D01*
G54D11*
X97803Y-41255D02*
X97153Y-41255D01*
X100625Y-46250D02*
X100000Y-46250D01*
X95425Y-46250D02*
X96025Y-46250D01*
G54D10*
X95500Y-42959D02*
X95466Y-42970D01*
X95410Y-42970D01*
X95387Y-42959D01*
X95376Y-42948D01*
X95365Y-42925D01*
X95365Y-42903D01*
X95376Y-42880D01*
X95387Y-42869D01*
X95410Y-42858D01*
X95455Y-42846D01*
X95477Y-42835D01*
X95488Y-42824D01*
X95500Y-42801D01*
X95500Y-42779D01*
X95488Y-42756D01*
X95477Y-42745D01*
X95455Y-42734D01*
X95398Y-42734D01*
X95365Y-42745D01*
X95128Y-42970D02*
X95207Y-42858D01*
X95263Y-42970D02*
X95263Y-42734D01*
X95173Y-42734D01*
X95151Y-42745D01*
X95140Y-42756D01*
X95128Y-42779D01*
X95128Y-42813D01*
X95140Y-42835D01*
X95151Y-42846D01*
X95173Y-42858D01*
X95263Y-42858D01*
X97530Y-41159D02*
X97496Y-41170D01*
X97440Y-41170D01*
X97417Y-41159D01*
X97406Y-41148D01*
X97395Y-41125D01*
X97395Y-41103D01*
X97406Y-41080D01*
X97417Y-41069D01*
X97440Y-41058D01*
X97485Y-41046D01*
X97507Y-41035D01*
X97518Y-41024D01*
X97530Y-41001D01*
X97530Y-40979D01*
X97518Y-40956D01*
X97507Y-40945D01*
X97485Y-40934D01*
X97428Y-40934D01*
X97395Y-40945D01*
X97158Y-41148D02*
X97170Y-41159D01*
X97203Y-41170D01*
X97226Y-41170D01*
X97260Y-41159D01*
X97282Y-41136D01*
X97293Y-41114D01*
X97305Y-41069D01*
X97305Y-41035D01*
X97293Y-40990D01*
X97282Y-40968D01*
X97260Y-40945D01*
X97226Y-40934D01*
X97203Y-40934D01*
X97170Y-40945D01*
X97158Y-40956D01*
X100205Y-46134D02*
X100171Y-46145D01*
X100115Y-46145D01*
X100092Y-46134D01*
X100081Y-46123D01*
X100070Y-46100D01*
X100070Y-46078D01*
X100081Y-46055D01*
X100092Y-46044D01*
X100115Y-46033D01*
X100160Y-46021D01*
X100182Y-46010D01*
X100193Y-45999D01*
X100205Y-45976D01*
X100205Y-45954D01*
X100193Y-45931D01*
X100182Y-45920D01*
X100160Y-45909D01*
X100103Y-45909D01*
X100070Y-45920D01*
X99833Y-46123D02*
X99845Y-46134D01*
X99878Y-46145D01*
X99901Y-46145D01*
X99935Y-46134D01*
X99957Y-46111D01*
X99968Y-46089D01*
X99980Y-46044D01*
X99980Y-46010D01*
X99968Y-45965D01*
X99957Y-45943D01*
X99935Y-45920D01*
X99901Y-45909D01*
X99878Y-45909D01*
X99845Y-45920D01*
X99833Y-45931D01*
X98991Y-46945D02*
X99103Y-46945D01*
X99103Y-46709D01*
X98777Y-46923D02*
X98788Y-46934D01*
X98822Y-46945D01*
X98845Y-46945D01*
X98878Y-46934D01*
X98901Y-46911D01*
X98912Y-46889D01*
X98923Y-46844D01*
X98923Y-46810D01*
X98912Y-46765D01*
X98901Y-46743D01*
X98878Y-46720D01*
X98845Y-46709D01*
X98822Y-46709D01*
X98788Y-46720D01*
X98777Y-46731D01*
X96031Y-46170D02*
X96143Y-46170D01*
X96143Y-45934D01*
X95817Y-46148D02*
X95828Y-46159D01*
X95862Y-46170D01*
X95885Y-46170D01*
X95918Y-46159D01*
X95941Y-46136D01*
X95952Y-46114D01*
X95963Y-46069D01*
X95963Y-46035D01*
X95952Y-45990D01*
X95941Y-45968D01*
X95918Y-45945D01*
X95885Y-45934D01*
X95862Y-45934D01*
X95828Y-45945D01*
X95817Y-45956D01*
X100031Y-45245D02*
X100143Y-45245D01*
X100143Y-45009D01*
X99817Y-45245D02*
X99896Y-45133D01*
X99952Y-45245D02*
X99952Y-45009D01*
X99862Y-45009D01*
X99840Y-45020D01*
X99828Y-45031D01*
X99817Y-45054D01*
X99817Y-45088D01*
X99828Y-45110D01*
X99840Y-45121D01*
X99862Y-45133D01*
X99952Y-45133D01*
X100350Y-42924D02*
X100316Y-42935D01*
X100260Y-42935D01*
X100237Y-42924D01*
X100226Y-42913D01*
X100215Y-42890D01*
X100215Y-42868D01*
X100226Y-42845D01*
X100237Y-42834D01*
X100260Y-42823D01*
X100305Y-42811D01*
X100327Y-42800D01*
X100338Y-42789D01*
X100350Y-42766D01*
X100350Y-42744D01*
X100338Y-42721D01*
X100327Y-42710D01*
X100305Y-42699D01*
X100248Y-42699D01*
X100215Y-42710D01*
X99978Y-42935D02*
X100057Y-42823D01*
X100113Y-42935D02*
X100113Y-42699D01*
X100023Y-42699D01*
X100001Y-42710D01*
X99990Y-42721D01*
X99978Y-42744D01*
X99978Y-42778D01*
X99990Y-42800D01*
X100001Y-42811D01*
X100023Y-42823D01*
X100113Y-42823D01*
X97225Y-46954D02*
X97191Y-46965D01*
X97135Y-46965D01*
X97112Y-46954D01*
X97101Y-46943D01*
X97090Y-46920D01*
X97090Y-46898D01*
X97101Y-46875D01*
X97112Y-46864D01*
X97135Y-46853D01*
X97180Y-46841D01*
X97202Y-46830D01*
X97213Y-46819D01*
X97225Y-46796D01*
X97225Y-46774D01*
X97213Y-46751D01*
X97202Y-46740D01*
X97180Y-46729D01*
X97123Y-46729D01*
X97090Y-46740D01*
X96853Y-46943D02*
X96865Y-46954D01*
X96898Y-46965D01*
X96921Y-46965D01*
X96955Y-46954D01*
X96977Y-46931D01*
X96988Y-46909D01*
X97000Y-46864D01*
X97000Y-46830D01*
X96988Y-46785D01*
X96977Y-46763D01*
X96955Y-46740D01*
X96921Y-46729D01*
X96898Y-46729D01*
X96865Y-46740D01*
X96853Y-46751D01*
X95401Y-41660D02*
X95513Y-41660D01*
X95513Y-41424D01*
X95187Y-41638D02*
X95198Y-41649D01*
X95232Y-41660D01*
X95255Y-41660D01*
X95288Y-41649D01*
X95311Y-41626D01*
X95322Y-41604D01*
X95333Y-41559D01*
X95333Y-41525D01*
X95322Y-41480D01*
X95311Y-41458D01*
X95288Y-41435D01*
X95255Y-41424D01*
X95232Y-41424D01*
X95198Y-41435D01*
X95187Y-41446D01*
X96081Y-45245D02*
X96193Y-45245D01*
X96193Y-45009D01*
X95867Y-45245D02*
X95946Y-45133D01*
X96002Y-45245D02*
X96002Y-45009D01*
X95912Y-45009D01*
X95890Y-45020D01*
X95878Y-45031D01*
X95867Y-45054D01*
X95867Y-45088D01*
X95878Y-45110D01*
X95890Y-45121D01*
X95912Y-45133D01*
X96002Y-45133D01*
G54D12*
X96750Y-45000D02*
X99250Y-45000D01*
X99250Y-45000D02*
X99250Y-44000D01*
X99250Y-44000D02*
X96750Y-44000D01*
X96750Y-44000D02*
X96750Y-45000D01*
X100000Y-44500D02*
X99250Y-44500D01*
X96000Y-44500D02*
X96750Y-44500D01*
G54D13*
X99500Y-45500D02*
X99200Y-45500D01*
X99200Y-45500D02*
X99200Y-45900D01*
X99200Y-45900D02*
X96800Y-45900D01*
X96800Y-45900D02*
X96800Y-45500D01*
X96800Y-45500D02*
X96500Y-45500D01*
X96800Y-45500D02*
X96800Y-45100D01*
X96800Y-45100D02*
X99200Y-45100D01*
X99200Y-45100D02*
X99200Y-45500D01*
X99000Y-45900D02*
X99000Y-45100D01*
X98900Y-45100D02*
X98900Y-45900D01*
G54D14*
X98207Y-46850D02*
X98650Y-46850D01*
X98650Y-46850D02*
X98650Y-46050D01*
X98650Y-46050D02*
X98207Y-46050D01*
X97781Y-46850D02*
X97350Y-46850D01*
X97350Y-46850D02*
X97350Y-46050D01*
X97350Y-46050D02*
X97781Y-46050D01*
G54D15*
X98100Y-46600D02*
X98100Y-46300D01*
X97925Y-46600D02*
X97925Y-46300D01*
X97925Y-46300D02*
X98075Y-46450D01*
X98075Y-46450D02*
X97925Y-46600D01*
G54D16*
X97400Y-44400D02*
G75*
G03X97400Y-44400I-50J0D01*
G74*
G01*
X97800Y-44400D02*
X97400Y-44400D01*
X97400Y-44400D02*
X97400Y-45000D01*
X97400Y-45000D02*
X97800Y-45000D01*
X98200Y-45000D02*
X98600Y-45000D01*
X98600Y-45000D02*
X98600Y-44400D01*
X98600Y-44400D02*
X98200Y-44400D01*
G54D17*
G36*
X98884Y-43705D02*
X99233Y-43435D01*
X99239Y-43432D01*
X99245Y-43429D01*
X99250Y-43425D01*
X99251Y-43420D01*
X99249Y-43416D01*
X99243Y-43413D01*
X99237Y-43410D01*
X99231Y-43408D01*
X99035Y-43349D01*
X99050Y-43527D01*
X99233Y-43435D01*
X98884Y-43705D01*
X98876Y-43612D01*
X98990Y-43555D01*
X98971Y-43331D01*
X98849Y-43294D01*
X98841Y-43201D01*
X99274Y-43341D01*
X99282Y-43344D01*
X99290Y-43348D01*
X99297Y-43351D01*
X99303Y-43355D01*
X99308Y-43359D01*
X99313Y-43363D01*
X99317Y-43368D01*
X99321Y-43373D01*
X99325Y-43380D01*
X99328Y-43387D01*
X99330Y-43395D01*
X99332Y-43404D01*
X99333Y-43413D01*
X99333Y-43422D01*
X99333Y-43430D01*
X99333Y-43437D01*
X99332Y-43444D01*
X99330Y-43451D01*
X99328Y-43457D01*
X99325Y-43462D01*
X99322Y-43467D01*
X99318Y-43472D01*
X99313Y-43476D01*
X99308Y-43481D01*
X99302Y-43485D01*
X99295Y-43490D01*
X99287Y-43494D01*
X98884Y-43705D01*
X98884Y-43705D01*
G37*
G36*
X98786Y-42565D02*
X98788Y-42561D01*
X98790Y-42555D01*
X98791Y-42550D01*
X98790Y-42546D01*
X98785Y-42545D01*
X98780Y-42546D01*
X98774Y-42550D01*
X98506Y-42795D01*
X98447Y-42730D01*
X98752Y-42455D01*
X98759Y-42449D01*
X98766Y-42445D01*
X98773Y-42442D01*
X98780Y-42439D01*
X98787Y-42438D01*
X98794Y-42438D01*
X98801Y-42439D01*
X98808Y-42442D01*
X98815Y-42444D01*
X98822Y-42448D01*
X98829Y-42452D01*
X98835Y-42457D01*
X98842Y-42463D01*
X98848Y-42470D01*
X98853Y-42476D01*
X98858Y-42482D01*
X98863Y-42489D01*
X98866Y-42496D01*
X98869Y-42503D01*
X98871Y-42511D01*
X98872Y-42517D01*
X98872Y-42524D01*
X98872Y-42531D01*
X98871Y-42538D01*
X98870Y-42544D01*
X98868Y-42550D01*
X98865Y-42556D01*
X98862Y-42563D01*
X98858Y-42571D01*
X98708Y-42869D01*
X98705Y-42876D01*
X98703Y-42882D01*
X98703Y-42887D01*
X98704Y-42890D01*
X98707Y-42892D01*
X98712Y-42892D01*
X98718Y-42890D01*
X98725Y-42888D01*
X99037Y-42769D01*
X99043Y-42766D01*
X99049Y-42765D01*
X99055Y-42763D01*
X99061Y-42761D01*
X99069Y-42760D01*
X99078Y-42759D01*
X99086Y-42760D01*
X99092Y-42760D01*
X99098Y-42762D01*
X99105Y-42764D01*
X99111Y-42768D01*
X99116Y-42771D01*
X99121Y-42774D01*
X99126Y-42779D01*
X99131Y-42784D01*
X99137Y-42789D01*
X99140Y-42793D01*
X99143Y-42797D01*
X99148Y-42804D01*
X99151Y-42808D01*
X99154Y-42814D01*
X99157Y-42820D01*
X99159Y-42826D01*
X99161Y-42833D01*
X99162Y-42840D01*
X99162Y-42848D01*
X99161Y-42856D01*
X99159Y-42862D01*
X99157Y-42868D01*
X99153Y-42874D01*
X99148Y-42880D01*
X99142Y-42886D01*
X98837Y-43162D01*
X98778Y-43096D01*
X99049Y-42854D01*
X99054Y-42849D01*
X99056Y-42844D01*
X99054Y-42839D01*
X99051Y-42838D01*
X99045Y-42838D01*
X99040Y-42840D01*
X99035Y-42841D01*
X98724Y-42961D01*
X98717Y-42964D01*
X98710Y-42967D01*
X98703Y-42969D01*
X98696Y-42971D01*
X98689Y-42972D01*
X98681Y-42972D01*
X98674Y-42972D01*
X98667Y-42970D01*
X98660Y-42967D01*
X98655Y-42964D01*
X98649Y-42960D01*
X98644Y-42955D01*
X98638Y-42949D01*
X98633Y-42944D01*
X98629Y-42938D01*
X98626Y-42933D01*
X98624Y-42927D01*
X98621Y-42921D01*
X98620Y-42914D01*
X98620Y-42907D01*
X98620Y-42900D01*
X98622Y-42893D01*
X98624Y-42886D01*
X98627Y-42881D01*
X98629Y-42875D01*
X98632Y-42869D01*
X98635Y-42862D01*
X98786Y-42565D01*
X98786Y-42565D01*
G37*
G36*
X98195Y-42203D02*
X98202Y-42204D01*
X98289Y-42314D01*
X98284Y-42309D01*
X98278Y-42304D01*
X98272Y-42299D01*
X98266Y-42295D01*
X98259Y-42292D01*
X98252Y-42289D01*
X98245Y-42286D01*
X98238Y-42284D01*
X98231Y-42282D01*
X98224Y-42280D01*
X98216Y-42278D01*
X98209Y-42276D01*
X98201Y-42275D01*
X98193Y-42273D01*
X98185Y-42272D01*
X98177Y-42271D01*
X98170Y-42270D01*
X98162Y-42269D01*
X98154Y-42269D01*
X98147Y-42268D01*
X98139Y-42268D01*
X98132Y-42268D01*
X98124Y-42268D01*
X98117Y-42269D01*
X98109Y-42269D01*
X98101Y-42271D01*
X98094Y-42273D01*
X98087Y-42275D01*
X98080Y-42278D01*
X98073Y-42282D01*
X98066Y-42287D01*
X98060Y-42292D01*
X98056Y-42296D01*
X98052Y-42301D01*
X98047Y-42307D01*
X98044Y-42312D01*
X98041Y-42317D01*
X98037Y-42324D01*
X98034Y-42331D01*
X98032Y-42337D01*
X98030Y-42343D01*
X98027Y-42351D01*
X98025Y-42358D01*
X98023Y-42367D01*
X98021Y-42373D01*
X98020Y-42379D01*
X98018Y-42386D01*
X98017Y-42393D01*
X98015Y-42401D01*
X98014Y-42409D01*
X98013Y-42417D01*
X98012Y-42426D01*
X98010Y-42435D01*
X98010Y-42443D01*
X98009Y-42451D01*
X98008Y-42459D01*
X98008Y-42466D01*
X98008Y-42475D01*
X98008Y-42482D01*
X98008Y-42490D01*
X98008Y-42497D01*
X98009Y-42503D01*
X98010Y-42511D01*
X98011Y-42518D01*
X98012Y-42525D01*
X98014Y-42530D01*
X98016Y-42538D01*
X98019Y-42544D01*
X98022Y-42550D01*
X98027Y-42557D01*
X98032Y-42563D01*
X98037Y-42569D01*
X98043Y-42574D01*
X98049Y-42579D01*
X98056Y-42583D01*
X98063Y-42587D01*
X98070Y-42590D01*
X98078Y-42593D01*
X98085Y-42596D01*
X98093Y-42598D01*
X98102Y-42600D01*
X98108Y-42601D01*
X98115Y-42602D01*
X98122Y-42604D01*
X98129Y-42605D01*
X98136Y-42606D01*
X98143Y-42607D01*
X98150Y-42608D01*
X98157Y-42609D01*
X98164Y-42610D01*
X98171Y-42610D01*
X98179Y-42611D01*
X98188Y-42611D01*
X98196Y-42610D01*
X98204Y-42610D01*
X98212Y-42609D01*
X98219Y-42607D01*
X98227Y-42605D01*
X98234Y-42603D01*
X98241Y-42599D01*
X98248Y-42595D01*
X98254Y-42591D01*
X98260Y-42585D01*
X98265Y-42581D01*
X98269Y-42575D01*
X98274Y-42570D01*
X98277Y-42564D01*
X98280Y-42559D01*
X98283Y-42552D01*
X98286Y-42545D01*
X98289Y-42539D01*
X98291Y-42532D01*
X98294Y-42525D01*
X98296Y-42518D01*
X98298Y-42510D01*
X98300Y-42504D01*
X98301Y-42497D01*
X98303Y-42491D01*
X98304Y-42484D01*
X98305Y-42476D01*
X98306Y-42469D01*
X98308Y-42461D01*
X98308Y-42461D01*
X98309Y-42451D01*
X98310Y-42442D01*
X98311Y-42433D01*
X98312Y-42425D01*
X98313Y-42417D01*
X98313Y-42409D01*
X98313Y-42402D01*
X98313Y-42395D01*
X98313Y-42389D01*
X98313Y-42383D01*
X98313Y-42377D01*
X98311Y-42369D01*
X98310Y-42360D01*
X98308Y-42353D01*
X98306Y-42346D01*
X98304Y-42339D01*
X98301Y-42333D01*
X98298Y-42327D01*
X98294Y-42320D01*
X98289Y-42314D01*
X98202Y-42204D01*
X98209Y-42205D01*
X98217Y-42206D01*
X98224Y-42207D01*
X98232Y-42209D01*
X98240Y-42210D01*
X98248Y-42212D01*
X98256Y-42213D01*
X98264Y-42215D01*
X98272Y-42217D01*
X98280Y-42220D01*
X98288Y-42223D01*
X98294Y-42225D01*
X98301Y-42228D01*
X98308Y-42231D01*
X98314Y-42234D01*
X98321Y-42237D01*
X98327Y-42240D01*
X98334Y-42244D01*
X98340Y-42248D01*
X98345Y-42252D01*
X98351Y-42257D01*
X98357Y-42262D01*
X98362Y-42267D01*
X98367Y-42273D01*
X98372Y-42279D01*
X98376Y-42285D01*
X98380Y-42291D01*
X98384Y-42297D01*
X98387Y-42304D01*
X98390Y-42310D01*
X98393Y-42317D01*
X98395Y-42324D01*
X98397Y-42331D01*
X98399Y-42338D01*
X98400Y-42345D01*
X98402Y-42352D01*
X98403Y-42359D01*
X98403Y-42367D01*
X98404Y-42374D01*
X98404Y-42381D01*
X98405Y-42388D01*
X98405Y-42396D01*
X98405Y-42403D01*
X98404Y-42410D01*
X98404Y-42418D01*
X98403Y-42425D01*
X98402Y-42433D01*
X98401Y-42442D01*
X98401Y-42450D01*
X98399Y-42458D01*
X98398Y-42466D01*
X98397Y-42474D01*
X98396Y-42481D01*
X98395Y-42488D01*
X98394Y-42495D01*
X98393Y-42502D01*
X98391Y-42510D01*
X98390Y-42518D01*
X98389Y-42525D01*
X98387Y-42532D01*
X98385Y-42539D01*
X98383Y-42546D01*
X98381Y-42553D01*
X98379Y-42560D01*
X98377Y-42567D01*
X98374Y-42574D01*
X98371Y-42581D01*
X98368Y-42588D01*
X98365Y-42595D01*
X98361Y-42601D01*
X98358Y-42608D01*
X98354Y-42614D01*
X98349Y-42621D01*
X98344Y-42627D01*
X98339Y-42633D01*
X98334Y-42638D01*
X98328Y-42644D01*
X98322Y-42649D01*
X98316Y-42653D01*
X98310Y-42658D01*
X98303Y-42662D01*
X98297Y-42665D01*
X98290Y-42668D01*
X98284Y-42671D01*
X98277Y-42673D01*
X98270Y-42675D01*
X98263Y-42677D01*
X98255Y-42679D01*
X98248Y-42680D01*
X98241Y-42681D01*
X98234Y-42682D01*
X98227Y-42682D01*
X98219Y-42683D01*
X98211Y-42683D01*
X98203Y-42683D01*
X98194Y-42683D01*
X98186Y-42682D01*
X98178Y-42682D01*
X98170Y-42681D01*
X98162Y-42680D01*
X98154Y-42679D01*
X98146Y-42678D01*
X98139Y-42677D01*
X98132Y-42676D01*
X98125Y-42675D01*
X98118Y-42674D01*
X98111Y-42673D01*
X98104Y-42672D01*
X98097Y-42670D01*
X98089Y-42669D01*
X98081Y-42668D01*
X98073Y-42666D01*
X98065Y-42664D01*
X98057Y-42662D01*
X98049Y-42660D01*
X98041Y-42658D01*
X98033Y-42655D01*
X98026Y-42653D01*
X98019Y-42650D01*
X98012Y-42647D01*
X98006Y-42644D01*
X97999Y-42641D01*
X97993Y-42637D01*
X97987Y-42634D01*
X97981Y-42630D01*
X97975Y-42625D01*
X97969Y-42621D01*
X97963Y-42616D01*
X97958Y-42610D01*
X97953Y-42605D01*
X97948Y-42599D01*
X97944Y-42593D01*
X97940Y-42587D01*
X97937Y-42581D01*
X97933Y-42575D01*
X97930Y-42568D01*
X97928Y-42561D01*
X97926Y-42554D01*
X97924Y-42547D01*
X97922Y-42540D01*
X97921Y-42533D01*
X97919Y-42526D01*
X97918Y-42519D01*
X97918Y-42511D01*
X97917Y-42504D01*
X97917Y-42497D01*
X97916Y-42489D01*
X97916Y-42482D01*
X97917Y-42475D01*
X97917Y-42467D01*
X97917Y-42460D01*
X97918Y-42453D01*
X97919Y-42444D01*
X97919Y-42436D01*
X97920Y-42428D01*
X97921Y-42420D01*
X97922Y-42412D01*
X97923Y-42404D01*
X97924Y-42396D01*
X97926Y-42389D01*
X97927Y-42381D01*
X97928Y-42373D01*
X97930Y-42364D01*
X97932Y-42356D01*
X97933Y-42349D01*
X97935Y-42341D01*
X97937Y-42334D01*
X97939Y-42327D01*
X97941Y-42320D01*
X97944Y-42313D01*
X97946Y-42306D01*
X97949Y-42299D01*
X97952Y-42292D01*
X97955Y-42286D01*
X97958Y-42279D01*
X97962Y-42273D01*
X97965Y-42267D01*
X97969Y-42260D01*
X97973Y-42254D01*
X97978Y-42249D01*
X97982Y-42243D01*
X97987Y-42238D01*
X97992Y-42233D01*
X97998Y-42229D01*
X98004Y-42224D01*
X98010Y-42220D01*
X98016Y-42216D01*
X98023Y-42213D01*
X98030Y-42209D01*
X98037Y-42207D01*
X98044Y-42204D01*
X98051Y-42202D01*
X98058Y-42201D01*
X98065Y-42199D01*
X98072Y-42198D01*
X98079Y-42197D01*
X98086Y-42196D01*
X98094Y-42195D01*
X98101Y-42195D01*
X98109Y-42195D01*
X98118Y-42195D01*
X98126Y-42195D01*
X98134Y-42195D01*
X98142Y-42196D01*
X98151Y-42197D01*
X98158Y-42198D01*
X98166Y-42199D01*
X98174Y-42200D01*
X98181Y-42201D01*
X98188Y-42202D01*
X98195Y-42203D01*
X98195Y-42203D01*
X98195Y-42203D01*
G37*
G36*
X97473Y-42811D02*
X97445Y-42747D01*
X97673Y-42647D01*
X97679Y-42645D01*
X97685Y-42642D01*
X97690Y-42639D01*
X97695Y-42635D01*
X97698Y-42630D01*
X97700Y-42624D01*
X97700Y-42618D01*
X97697Y-42611D01*
X97654Y-42510D01*
X97400Y-42621D01*
X97372Y-42557D01*
X97626Y-42446D01*
X97588Y-42360D01*
X97586Y-42355D01*
X97583Y-42350D01*
X97578Y-42346D01*
X97572Y-42342D01*
X97566Y-42341D01*
X97560Y-42342D01*
X97553Y-42344D01*
X97548Y-42346D01*
X97317Y-42447D01*
X97289Y-42382D01*
X97563Y-42263D01*
X97569Y-42260D01*
X97576Y-42258D01*
X97583Y-42256D01*
X97591Y-42253D01*
X97598Y-42252D01*
X97606Y-42252D01*
X97614Y-42254D01*
X97621Y-42257D01*
X97627Y-42260D01*
X97631Y-42263D01*
X97636Y-42267D01*
X97641Y-42272D01*
X97645Y-42277D01*
X97649Y-42283D01*
X97653Y-42289D01*
X97656Y-42295D01*
X97788Y-42598D01*
X97790Y-42604D01*
X97793Y-42611D01*
X97795Y-42618D01*
X97797Y-42625D01*
X97798Y-42633D01*
X97798Y-42640D01*
X97796Y-42648D01*
X97794Y-42655D01*
X97790Y-42662D01*
X97787Y-42668D01*
X97782Y-42673D01*
X97776Y-42677D01*
X97770Y-42680D01*
X97764Y-42684D01*
X97758Y-42687D01*
X97751Y-42690D01*
X97473Y-42811D01*
X97473Y-42811D01*
X97473Y-42811D01*
G37*
G36*
X97004Y-42629D02*
X97068Y-42705D01*
X97064Y-42702D01*
X97059Y-42700D01*
X97054Y-42698D01*
X97048Y-42698D01*
X97042Y-42699D01*
X97038Y-42702D01*
X97035Y-42706D01*
X97031Y-42711D01*
X96946Y-42827D01*
X96942Y-42833D01*
X96938Y-42839D01*
X96934Y-42846D01*
X96931Y-42853D01*
X96930Y-42860D01*
X96930Y-42869D01*
X96932Y-42876D01*
X96935Y-42883D01*
X96939Y-42889D01*
X96944Y-42895D01*
X96950Y-42901D01*
X96956Y-42907D01*
X96962Y-42911D01*
X96969Y-42916D01*
X96976Y-42920D01*
X96982Y-42924D01*
X96987Y-42926D01*
X96992Y-42928D01*
X97000Y-42930D01*
X97006Y-42931D01*
X97013Y-42930D01*
X97020Y-42928D01*
X97026Y-42925D01*
X97031Y-42922D01*
X97035Y-42917D01*
X97039Y-42912D01*
X97044Y-42907D01*
X97048Y-42902D01*
X97148Y-42764D01*
X97068Y-42705D01*
X97068Y-42705D01*
X97004Y-42629D01*
X97205Y-42805D01*
X97099Y-42950D01*
X97095Y-42956D01*
X97091Y-42963D01*
X97089Y-42969D01*
X97087Y-42974D01*
X97086Y-42980D01*
X97086Y-42988D01*
X97086Y-42994D01*
X97087Y-42999D01*
X97089Y-43004D01*
X97092Y-43010D01*
X97096Y-43015D01*
X97101Y-43019D01*
X97108Y-43026D01*
X97114Y-43031D01*
X97119Y-43035D01*
X97126Y-43040D01*
X97133Y-43044D01*
X97141Y-43048D01*
X97147Y-43050D01*
X97153Y-43052D01*
X97159Y-43053D01*
X97165Y-43053D01*
X97172Y-43052D01*
X97179Y-43050D01*
X97186Y-43046D01*
X97191Y-43042D01*
X97196Y-43036D01*
X97201Y-43031D01*
X97205Y-43026D01*
X97208Y-43022D01*
X97290Y-42910D01*
X97294Y-42905D01*
X97298Y-42898D01*
X97301Y-42890D01*
X97301Y-42883D01*
X97299Y-42878D01*
X97296Y-42874D01*
X97293Y-42870D01*
X97288Y-42866D01*
X97282Y-42862D01*
X97205Y-42805D01*
X97205Y-42805D01*
X97004Y-42629D01*
X97008Y-42624D01*
X97012Y-42620D01*
X97017Y-42615D01*
X97022Y-42610D01*
X97028Y-42606D01*
X97034Y-42604D01*
X97041Y-42602D01*
X97049Y-42600D01*
X97055Y-42601D01*
X97061Y-42601D01*
X97067Y-42603D01*
X97074Y-42604D01*
X97080Y-42607D01*
X97086Y-42610D01*
X97091Y-42613D01*
X97097Y-42617D01*
X97366Y-42814D01*
X97373Y-42820D01*
X97379Y-42826D01*
X97384Y-42832D01*
X97388Y-42838D01*
X97391Y-42845D01*
X97393Y-42851D01*
X97394Y-42855D01*
X97396Y-42863D01*
X97396Y-42870D01*
X97395Y-42877D01*
X97393Y-42883D01*
X97391Y-42889D01*
X97387Y-42895D01*
X97384Y-42900D01*
X97380Y-42906D01*
X97376Y-42911D01*
X97372Y-42917D01*
X97240Y-43097D01*
X97236Y-43103D01*
X97232Y-43109D01*
X97227Y-43114D01*
X97222Y-43120D01*
X97217Y-43125D01*
X97212Y-43130D01*
X97206Y-43134D01*
X97199Y-43138D01*
X97192Y-43142D01*
X97186Y-43144D01*
X97180Y-43146D01*
X97173Y-43147D01*
X97165Y-43148D01*
X97157Y-43149D01*
X97149Y-43149D01*
X97141Y-43148D01*
X97133Y-43146D01*
X97126Y-43144D01*
X97119Y-43142D01*
X97112Y-43138D01*
X97105Y-43134D01*
X97098Y-43130D01*
X97090Y-43125D01*
X97084Y-43121D01*
X97077Y-43116D01*
X97071Y-43112D01*
X97065Y-43108D01*
X97060Y-43104D01*
X97054Y-43099D01*
X97049Y-43095D01*
X97043Y-43090D01*
X97038Y-43085D01*
X97033Y-43079D01*
X97029Y-43073D01*
X97025Y-43067D01*
X97021Y-43060D01*
X97019Y-43053D01*
X97016Y-43045D01*
X97015Y-43039D01*
X97015Y-43032D01*
X97016Y-43025D01*
X97016Y-43018D01*
X97018Y-43010D01*
X97020Y-43003D01*
X97023Y-42996D01*
X97027Y-42989D01*
X97025Y-42987D01*
X97019Y-42993D01*
X97012Y-42998D01*
X97005Y-43002D01*
X97000Y-43005D01*
X96994Y-43007D01*
X96987Y-43008D01*
X96979Y-43009D01*
X96971Y-43009D01*
X96964Y-43008D01*
X96957Y-43008D01*
X96950Y-43006D01*
X96944Y-43004D01*
X96938Y-43002D01*
X96931Y-42998D01*
X96924Y-42994D01*
X96918Y-42990D01*
X96911Y-42986D01*
X96905Y-42982D01*
X96899Y-42977D01*
X96892Y-42972D01*
X96886Y-42966D01*
X96881Y-42962D01*
X96876Y-42957D01*
X96871Y-42952D01*
X96867Y-42947D01*
X96862Y-42942D01*
X96858Y-42936D01*
X96854Y-42931D01*
X96851Y-42925D01*
X96848Y-42919D01*
X96845Y-42912D01*
X96843Y-42906D01*
X96842Y-42899D01*
X96841Y-42892D01*
X96841Y-42886D01*
X96841Y-42880D01*
X96842Y-42874D01*
X96843Y-42866D01*
X96845Y-42858D01*
X96848Y-42851D01*
X96850Y-42844D01*
X96854Y-42837D01*
X96858Y-42830D01*
X96862Y-42825D01*
X96865Y-42819D01*
X96869Y-42814D01*
X97004Y-42629D01*
X97004Y-42629D01*
X97004Y-42629D01*
G37*
G36*
X97158Y-43201D02*
X96768Y-43408D01*
X96762Y-43410D01*
X96756Y-43412D01*
X96750Y-43416D01*
X96748Y-43420D01*
X96749Y-43424D01*
X96754Y-43428D01*
X96760Y-43432D01*
X96766Y-43435D01*
X96949Y-43527D01*
X96964Y-43348D01*
X96768Y-43408D01*
X96768Y-43408D01*
X97158Y-43201D01*
X97150Y-43294D01*
X97028Y-43331D01*
X97009Y-43555D01*
X97123Y-43612D01*
X97115Y-43705D01*
X96712Y-43494D01*
X96704Y-43489D01*
X96697Y-43485D01*
X96691Y-43480D01*
X96686Y-43475D01*
X96681Y-43470D01*
X96677Y-43465D01*
X96674Y-43460D01*
X96671Y-43454D01*
X96668Y-43447D01*
X96667Y-43440D01*
X96666Y-43431D01*
X96666Y-43422D01*
X96666Y-43413D01*
X96667Y-43404D01*
X96668Y-43396D01*
X96670Y-43389D01*
X96673Y-43382D01*
X96675Y-43376D01*
X96678Y-43371D01*
X96682Y-43366D01*
X96686Y-43362D01*
X96691Y-43358D01*
X96696Y-43354D01*
X96702Y-43350D01*
X96709Y-43347D01*
X96717Y-43344D01*
X96725Y-43341D01*
X97158Y-43201D01*
X97158Y-43201D01*
X97158Y-43201D01*
G37*
M02*
