G04 (created by PCBNEW (2013-may-18)-stable) date Sun 20 Sep 2015 05:05:06 AM EDT*
%MOIN*%
G04 Gerber Fmt 3.4, Leading zero omitted, Abs format*
%FSLAX34Y34*%
G01*
G70*
G90*
G04 APERTURE LIST*
%ADD10C,0.00590551*%
%ADD11C,0.00472441*%
%ADD12C,0.01*%
%ADD13C,0.006*%
%ADD14C,0.015*%
G04 APERTURE END LIST*
G54D10*
G54D11*
X97335Y-46567D02*
X97384Y-46777D01*
X97485Y-46567D01*
X97744Y-46777D02*
X97564Y-46777D01*
X97654Y-46777D02*
X97693Y-46462D01*
X97657Y-46507D01*
X97624Y-46537D01*
X97592Y-46552D01*
X97882Y-46747D02*
X97895Y-46762D01*
X97879Y-46777D01*
X97865Y-46762D01*
X97882Y-46747D01*
X97879Y-46777D01*
X98049Y-46492D02*
X98066Y-46477D01*
X98098Y-46462D01*
X98173Y-46462D01*
X98201Y-46477D01*
X98214Y-46492D01*
X98225Y-46522D01*
X98222Y-46552D01*
X98201Y-46597D01*
X97999Y-46777D01*
X98194Y-46777D01*
X98332Y-46747D02*
X98345Y-46762D01*
X98329Y-46777D01*
X98315Y-46762D01*
X98332Y-46747D01*
X98329Y-46777D01*
X98643Y-46777D02*
X98464Y-46777D01*
X98553Y-46777D02*
X98593Y-46462D01*
X98557Y-46507D01*
X98523Y-46537D01*
X98492Y-46552D01*
G54D12*
X98720Y-46000D02*
X98720Y-45000D01*
G54D13*
X97639Y-45115D02*
G75*
G03X97500Y-45500I460J-384D01*
G74*
G01*
X97500Y-45500D02*
G75*
G03X97651Y-45897I599J0D01*
G74*
G01*
X98699Y-45500D02*
G75*
G03X98555Y-45110I-599J0D01*
G74*
G01*
X98560Y-45884D02*
G75*
G03X98700Y-45500I-460J384D01*
G74*
G01*
X98587Y-45150D02*
G75*
G03X98100Y-44900I-487J-349D01*
G74*
G01*
X98100Y-44900D02*
G75*
G03X97620Y-45139I0J-600D01*
G74*
G01*
X98100Y-46099D02*
G75*
G03X98572Y-45868I0J599D01*
G74*
G01*
X97626Y-45868D02*
G75*
G03X98100Y-46100I473J368D01*
G74*
G01*
X98100Y-45250D02*
G75*
G03X97850Y-45500I0J-250D01*
G74*
G01*
X98100Y-45100D02*
G75*
G03X97700Y-45500I0J-400D01*
G74*
G01*
X98100Y-45750D02*
G75*
G03X98350Y-45500I0J250D01*
G74*
G01*
X98100Y-45900D02*
G75*
G03X98500Y-45500I0J400D01*
G74*
G01*
G54D12*
X98713Y-44986D02*
G75*
G03X98100Y-44700I-613J-513D01*
G74*
G01*
X98100Y-44701D02*
G75*
G03X97395Y-45123I0J-799D01*
G74*
G01*
X98101Y-46298D02*
G75*
G03X98710Y-46015I-1J798D01*
G74*
G01*
X97405Y-45897D02*
G75*
G03X98100Y-46300I694J397D01*
G74*
G01*
X97395Y-45120D02*
G75*
G03X97300Y-45500I704J-379D01*
G74*
G01*
X97300Y-45500D02*
G75*
G03X97418Y-45918I799J0D01*
G74*
G01*
G54D14*
X95500Y-41000D02*
X96200Y-41000D01*
X99800Y-41000D02*
X100500Y-41000D01*
X100500Y-41000D02*
X100500Y-41700D01*
X100500Y-45300D02*
X100500Y-46000D01*
X100500Y-46000D02*
X99800Y-46000D01*
X96200Y-46000D02*
X95500Y-46000D01*
X95500Y-46000D02*
X95500Y-45300D01*
X95500Y-41700D02*
X95500Y-41000D01*
M02*
