G04 (created by PCBNEW (2013-may-18)-stable) date Sun 23 Aug 2015 09:32:15 PM EDT*
%MOIN*%
G04 Gerber Fmt 3.4, Leading zero omitted, Abs format*
%FSLAX34Y34*%
G01*
G70*
G90*
G04 APERTURE LIST*
%ADD10C,0.00590551*%
%ADD11C,0.00984252*%
%ADD12C,0.00393701*%
%ADD13C,0.00787402*%
%ADD14C,0.00492126*%
%ADD15C,0.015*%
%ADD16C,0.012*%
G04 APERTURE END LIST*
G54D10*
X97013Y-43355D02*
X96983Y-43119D01*
X96926Y-43288D01*
X96826Y-43119D01*
X96855Y-43355D01*
X96736Y-43119D02*
X96608Y-43355D01*
X96578Y-43119D02*
X96765Y-43355D01*
G54D11*
X98414Y-42150D02*
X98339Y-42150D01*
X98304Y-42169D01*
X98271Y-42206D01*
X98261Y-42281D01*
X98278Y-42413D01*
X98306Y-42488D01*
X98348Y-42525D01*
X98388Y-42544D01*
X98463Y-42544D01*
X98498Y-42525D01*
X98531Y-42488D01*
X98540Y-42413D01*
X98524Y-42281D01*
X98496Y-42206D01*
X98454Y-42169D01*
X98414Y-42150D01*
X99005Y-42733D02*
X98955Y-42339D01*
X98859Y-42620D01*
X98693Y-42339D01*
X98742Y-42733D01*
X97357Y-42501D02*
X97170Y-42501D01*
X97409Y-42614D02*
X97228Y-42220D01*
X97146Y-42614D01*
X99310Y-42872D02*
X99123Y-42872D01*
X99362Y-42985D02*
X99181Y-42591D01*
X99099Y-42985D01*
X98078Y-42247D02*
X97947Y-42247D01*
X97916Y-42453D02*
X98104Y-42453D01*
X98055Y-42059D01*
X97867Y-42059D01*
X97574Y-42247D02*
X97520Y-42265D01*
X97503Y-42284D01*
X97489Y-42322D01*
X97496Y-42378D01*
X97520Y-42415D01*
X97541Y-42434D01*
X97581Y-42453D01*
X97731Y-42453D01*
X97681Y-42059D01*
X97550Y-42059D01*
X97515Y-42078D01*
X97499Y-42097D01*
X97484Y-42134D01*
X97489Y-42172D01*
X97513Y-42209D01*
X97534Y-42228D01*
X97574Y-42247D01*
X97705Y-42247D01*
G54D12*
X99675Y-42050D02*
X100600Y-42050D01*
G54D13*
X100989Y-41242D02*
X100940Y-41452D01*
X100839Y-41242D01*
X100580Y-41452D02*
X100760Y-41452D01*
X100670Y-41452D02*
X100631Y-41137D01*
X100667Y-41182D01*
X100700Y-41212D01*
X100732Y-41227D01*
X100442Y-41422D02*
X100429Y-41437D01*
X100445Y-41452D01*
X100459Y-41437D01*
X100442Y-41422D01*
X100445Y-41452D01*
X100196Y-41137D02*
X100166Y-41137D01*
X100138Y-41152D01*
X100125Y-41167D01*
X100114Y-41197D01*
X100106Y-41257D01*
X100115Y-41332D01*
X100138Y-41392D01*
X100157Y-41422D01*
X100174Y-41437D01*
X100205Y-41452D01*
X100235Y-41452D01*
X100264Y-41437D01*
X100277Y-41422D01*
X100288Y-41392D01*
X100295Y-41332D01*
X100286Y-41257D01*
X100264Y-41197D01*
X100245Y-41167D01*
X100228Y-41152D01*
X100196Y-41137D01*
X99992Y-41422D02*
X99979Y-41437D01*
X99995Y-41452D01*
X100009Y-41437D01*
X99992Y-41422D01*
X99995Y-41452D01*
X99746Y-41137D02*
X99716Y-41137D01*
X99688Y-41152D01*
X99675Y-41167D01*
X99664Y-41197D01*
X99656Y-41257D01*
X99666Y-41332D01*
X99688Y-41392D01*
X99707Y-41422D01*
X99724Y-41437D01*
X99756Y-41452D01*
X99786Y-41452D01*
X99814Y-41437D01*
X99827Y-41422D01*
X99838Y-41392D01*
X99845Y-41332D01*
X99836Y-41257D01*
X99814Y-41197D01*
X99795Y-41167D01*
X99778Y-41152D01*
X99746Y-41137D01*
G54D12*
X98500Y-45700D02*
X98500Y-46200D01*
X97500Y-45700D02*
X97500Y-46200D01*
G54D14*
X96546Y-44998D02*
X96453Y-44998D01*
X96565Y-45054D02*
X96499Y-44857D01*
X96434Y-45054D01*
G54D12*
X96350Y-44900D02*
X96350Y-45400D01*
X99650Y-44900D02*
X99650Y-45400D01*
G54D13*
X96075Y-41300D02*
X97025Y-41300D01*
X95525Y-42900D02*
X95525Y-42225D01*
G54D10*
X99893Y-46145D02*
X99893Y-45909D01*
X99837Y-45909D01*
X99803Y-45920D01*
X99781Y-45943D01*
X99770Y-45965D01*
X99758Y-46010D01*
X99758Y-46044D01*
X99770Y-46089D01*
X99781Y-46111D01*
X99803Y-46134D01*
X99837Y-46145D01*
X99893Y-46145D01*
G54D12*
X99675Y-46050D02*
X99675Y-45650D01*
X96325Y-46025D02*
X96325Y-45625D01*
G54D10*
X96218Y-46070D02*
X96218Y-45834D01*
X96162Y-45834D01*
X96128Y-45845D01*
X96106Y-45868D01*
X96095Y-45890D01*
X96083Y-45935D01*
X96083Y-45969D01*
X96095Y-46014D01*
X96106Y-46036D01*
X96128Y-46059D01*
X96162Y-46070D01*
X96218Y-46070D01*
G54D13*
X95275Y-44500D02*
X95900Y-44500D01*
X95295Y-44377D02*
X95400Y-44227D01*
X95475Y-44377D02*
X95475Y-44062D01*
X95355Y-44062D01*
X95325Y-44077D01*
X95310Y-44092D01*
X95295Y-44122D01*
X95295Y-44167D01*
X95310Y-44197D01*
X95325Y-44212D01*
X95355Y-44227D01*
X95475Y-44227D01*
X100700Y-44500D02*
X100250Y-44500D01*
X100520Y-44377D02*
X100625Y-44227D01*
X100700Y-44377D02*
X100700Y-44062D01*
X100580Y-44062D01*
X100550Y-44077D01*
X100535Y-44092D01*
X100520Y-44122D01*
X100520Y-44167D01*
X100535Y-44197D01*
X100550Y-44212D01*
X100580Y-44227D01*
X100700Y-44227D01*
G54D14*
X97396Y-46148D02*
X97303Y-46148D01*
X97415Y-46204D02*
X97349Y-46007D01*
X97284Y-46204D01*
X98589Y-46185D02*
X98598Y-46195D01*
X98626Y-46204D01*
X98645Y-46204D01*
X98673Y-46195D01*
X98692Y-46176D01*
X98701Y-46157D01*
X98710Y-46120D01*
X98710Y-46092D01*
X98701Y-46054D01*
X98692Y-46035D01*
X98673Y-46017D01*
X98645Y-46007D01*
X98626Y-46007D01*
X98598Y-46017D01*
X98589Y-46026D01*
X99439Y-45035D02*
X99448Y-45045D01*
X99476Y-45054D01*
X99495Y-45054D01*
X99523Y-45045D01*
X99542Y-45026D01*
X99551Y-45007D01*
X99560Y-44970D01*
X99560Y-44942D01*
X99551Y-44904D01*
X99542Y-44885D01*
X99523Y-44867D01*
X99495Y-44857D01*
X99476Y-44857D01*
X99448Y-44867D01*
X99439Y-44876D01*
G54D13*
X97475Y-46375D02*
X96500Y-46375D01*
X98125Y-46075D02*
X98125Y-46600D01*
G54D12*
X97782Y-41541D02*
X97782Y-40891D01*
G54D13*
X101125Y-46250D02*
X100500Y-46250D01*
X94900Y-46250D02*
X95500Y-46250D01*
X94700Y-45250D02*
X95500Y-45250D01*
X101275Y-45275D02*
X100475Y-45275D01*
X98575Y-46375D02*
X99450Y-46375D01*
X97862Y-46587D02*
X97862Y-46462D01*
X98112Y-46337D02*
X97862Y-46587D01*
X97862Y-46087D02*
X98112Y-46337D01*
X97862Y-46487D02*
X97862Y-46087D01*
X95390Y-42887D02*
X95345Y-42902D01*
X95270Y-42902D01*
X95240Y-42887D01*
X95225Y-42872D01*
X95210Y-42842D01*
X95210Y-42812D01*
X95225Y-42782D01*
X95240Y-42767D01*
X95270Y-42752D01*
X95330Y-42737D01*
X95360Y-42722D01*
X95375Y-42707D01*
X95390Y-42677D01*
X95390Y-42647D01*
X95375Y-42617D01*
X95360Y-42602D01*
X95330Y-42587D01*
X95255Y-42587D01*
X95210Y-42602D01*
X94895Y-42902D02*
X95000Y-42752D01*
X95075Y-42902D02*
X95075Y-42587D01*
X94955Y-42587D01*
X94925Y-42602D01*
X94910Y-42617D01*
X94895Y-42647D01*
X94895Y-42692D01*
X94910Y-42722D01*
X94925Y-42737D01*
X94955Y-42752D01*
X95075Y-42752D01*
G54D10*
X97703Y-41132D02*
X97669Y-41143D01*
X97613Y-41143D01*
X97590Y-41132D01*
X97579Y-41121D01*
X97568Y-41098D01*
X97568Y-41076D01*
X97579Y-41053D01*
X97590Y-41042D01*
X97613Y-41031D01*
X97658Y-41019D01*
X97680Y-41008D01*
X97691Y-40997D01*
X97703Y-40974D01*
X97703Y-40952D01*
X97691Y-40929D01*
X97680Y-40918D01*
X97658Y-40907D01*
X97601Y-40907D01*
X97568Y-40918D01*
X97331Y-41121D02*
X97343Y-41132D01*
X97376Y-41143D01*
X97399Y-41143D01*
X97433Y-41132D01*
X97455Y-41109D01*
X97466Y-41087D01*
X97478Y-41042D01*
X97478Y-41008D01*
X97466Y-40963D01*
X97455Y-40941D01*
X97433Y-40918D01*
X97399Y-40907D01*
X97376Y-40907D01*
X97343Y-40918D01*
X97331Y-40929D01*
X101130Y-46109D02*
X101096Y-46120D01*
X101040Y-46120D01*
X101017Y-46109D01*
X101006Y-46098D01*
X100995Y-46075D01*
X100995Y-46053D01*
X101006Y-46030D01*
X101017Y-46019D01*
X101040Y-46008D01*
X101085Y-45996D01*
X101107Y-45985D01*
X101118Y-45974D01*
X101130Y-45951D01*
X101130Y-45929D01*
X101118Y-45906D01*
X101107Y-45895D01*
X101085Y-45884D01*
X101028Y-45884D01*
X100995Y-45895D01*
X100758Y-46098D02*
X100770Y-46109D01*
X100803Y-46120D01*
X100826Y-46120D01*
X100860Y-46109D01*
X100882Y-46086D01*
X100893Y-46064D01*
X100905Y-46019D01*
X100905Y-45985D01*
X100893Y-45940D01*
X100882Y-45918D01*
X100860Y-45895D01*
X100826Y-45884D01*
X100803Y-45884D01*
X100770Y-45895D01*
X100758Y-45906D01*
G54D13*
X98850Y-46827D02*
X99000Y-46827D01*
X99000Y-46512D01*
X98565Y-46797D02*
X98580Y-46812D01*
X98625Y-46827D01*
X98655Y-46827D01*
X98700Y-46812D01*
X98730Y-46782D01*
X98745Y-46752D01*
X98760Y-46692D01*
X98760Y-46647D01*
X98745Y-46587D01*
X98730Y-46557D01*
X98700Y-46527D01*
X98655Y-46512D01*
X98625Y-46512D01*
X98580Y-46527D01*
X98565Y-46542D01*
G54D10*
X95131Y-46120D02*
X95243Y-46120D01*
X95243Y-45884D01*
X94917Y-46098D02*
X94928Y-46109D01*
X94962Y-46120D01*
X94985Y-46120D01*
X95018Y-46109D01*
X95041Y-46086D01*
X95052Y-46064D01*
X95063Y-46019D01*
X95063Y-45985D01*
X95052Y-45940D01*
X95041Y-45918D01*
X95018Y-45895D01*
X94985Y-45884D01*
X94962Y-45884D01*
X94928Y-45895D01*
X94917Y-45906D01*
G54D13*
X101100Y-45152D02*
X101250Y-45152D01*
X101250Y-44837D01*
X100815Y-45152D02*
X100920Y-45002D01*
X100995Y-45152D02*
X100995Y-44837D01*
X100875Y-44837D01*
X100845Y-44852D01*
X100830Y-44867D01*
X100815Y-44897D01*
X100815Y-44942D01*
X100830Y-44972D01*
X100845Y-44987D01*
X100875Y-45002D01*
X100995Y-45002D01*
G54D10*
X100055Y-41959D02*
X100021Y-41970D01*
X99965Y-41970D01*
X99942Y-41959D01*
X99931Y-41948D01*
X99920Y-41925D01*
X99920Y-41903D01*
X99931Y-41880D01*
X99942Y-41869D01*
X99965Y-41858D01*
X100010Y-41846D01*
X100032Y-41835D01*
X100043Y-41824D01*
X100055Y-41801D01*
X100055Y-41779D01*
X100043Y-41756D01*
X100032Y-41745D01*
X100010Y-41734D01*
X99953Y-41734D01*
X99920Y-41745D01*
X99683Y-41970D02*
X99762Y-41858D01*
X99818Y-41970D02*
X99818Y-41734D01*
X99728Y-41734D01*
X99706Y-41745D01*
X99695Y-41756D01*
X99683Y-41779D01*
X99683Y-41813D01*
X99695Y-41835D01*
X99706Y-41846D01*
X99728Y-41858D01*
X99818Y-41858D01*
G54D13*
X97465Y-46812D02*
X97420Y-46827D01*
X97345Y-46827D01*
X97315Y-46812D01*
X97300Y-46797D01*
X97285Y-46767D01*
X97285Y-46737D01*
X97300Y-46707D01*
X97315Y-46692D01*
X97345Y-46677D01*
X97405Y-46662D01*
X97435Y-46647D01*
X97450Y-46632D01*
X97465Y-46602D01*
X97465Y-46572D01*
X97450Y-46542D01*
X97435Y-46527D01*
X97405Y-46512D01*
X97330Y-46512D01*
X97285Y-46527D01*
X96970Y-46797D02*
X96985Y-46812D01*
X97030Y-46827D01*
X97060Y-46827D01*
X97105Y-46812D01*
X97135Y-46782D01*
X97150Y-46752D01*
X97165Y-46692D01*
X97165Y-46647D01*
X97150Y-46587D01*
X97135Y-46557D01*
X97105Y-46527D01*
X97060Y-46512D01*
X97030Y-46512D01*
X96985Y-46527D01*
X96970Y-46542D01*
X96350Y-41752D02*
X96500Y-41752D01*
X96500Y-41437D01*
X96065Y-41722D02*
X96080Y-41737D01*
X96125Y-41752D01*
X96155Y-41752D01*
X96200Y-41737D01*
X96230Y-41707D01*
X96245Y-41677D01*
X96260Y-41617D01*
X96260Y-41572D01*
X96245Y-41512D01*
X96230Y-41482D01*
X96200Y-41452D01*
X96155Y-41437D01*
X96125Y-41437D01*
X96080Y-41452D01*
X96065Y-41467D01*
X95000Y-45102D02*
X95150Y-45102D01*
X95150Y-44787D01*
X94715Y-45102D02*
X94820Y-44952D01*
X94895Y-45102D02*
X94895Y-44787D01*
X94775Y-44787D01*
X94745Y-44802D01*
X94730Y-44817D01*
X94715Y-44847D01*
X94715Y-44892D01*
X94730Y-44922D01*
X94745Y-44937D01*
X94775Y-44952D01*
X94895Y-44952D01*
G54D15*
X96750Y-45000D02*
X99250Y-45000D01*
X99250Y-45000D02*
X99250Y-44000D01*
X99250Y-44000D02*
X96750Y-44000D01*
X96750Y-44000D02*
X96750Y-45000D01*
X100000Y-44500D02*
X99250Y-44500D01*
X96000Y-44500D02*
X96750Y-44500D01*
G54D16*
X99500Y-45500D02*
X99200Y-45500D01*
X99200Y-45500D02*
X99200Y-45900D01*
X99200Y-45900D02*
X96800Y-45900D01*
X96800Y-45900D02*
X96800Y-45500D01*
X96800Y-45500D02*
X96500Y-45500D01*
X96800Y-45500D02*
X96800Y-45100D01*
X96800Y-45100D02*
X99200Y-45100D01*
X99200Y-45100D02*
X99200Y-45500D01*
X99000Y-45900D02*
X99000Y-45100D01*
X98900Y-45100D02*
X98900Y-45900D01*
M02*
