M48
INCH,TZ
T1C0.025
T2C0.032
T3C0.035
T4C0.039
T5C0.059
%
G90
G05
T1
X96600Y-43850
X97075Y-44650
X98000Y-45000
X99400Y-42650
T2
X96500Y-45500
X97500Y-45500
X98500Y-45500
X99500Y-45500
T3
X95500Y-42250
X95500Y-45500
X95500Y-46500
X96000Y-41300
X96500Y-46500
X98000Y-41300
X99500Y-46500
X100500Y-42250
X100500Y-45500
X100500Y-46500
T4
X96000Y-44500
X100000Y-44500
T5
X96500Y-42500
X97016Y-41925
T5
X99000Y-41500G85X98984Y-41728
G05
T0
M30
