G04 (created by PCBNEW (2013-may-18)-stable) date Thu 20 Aug 2015 06:56:04 AM EDT*
%MOIN*%
G04 Gerber Fmt 3.4, Leading zero omitted, Abs format*
%FSLAX34Y34*%
G01*
G70*
G90*
G04 APERTURE LIST*
%ADD10C,0.00590551*%
%ADD11C,0.00393701*%
G04 APERTURE END LIST*
G54D10*
G54D11*
X94300Y-43950D02*
X94300Y-45325D01*
X94800Y-45800D02*
G75*
G03X94325Y-45325I-475J0D01*
G74*
G01*
X94300Y-43025D02*
X94300Y-41700D01*
X94325Y-41700D02*
G75*
G03X94800Y-41225I0J475D01*
G74*
G01*
X94312Y-43937D02*
G75*
G03X94762Y-43487I0J450D01*
G74*
G01*
X94762Y-43487D02*
G75*
G03X94312Y-43037I-450J0D01*
G74*
G01*
X101250Y-43500D02*
G75*
G03X101700Y-43950I450J0D01*
G74*
G01*
X101700Y-45300D02*
X101700Y-43950D01*
X101700Y-41700D02*
X101700Y-43050D01*
X101700Y-43050D02*
G75*
G03X101250Y-43500I0J-450D01*
G74*
G01*
X95250Y-40750D02*
X100750Y-40750D01*
X101700Y-41700D02*
G75*
G02X101250Y-41250I0J450D01*
G74*
G01*
X100750Y-40750D02*
G75*
G02X101250Y-41250I0J-500D01*
G74*
G01*
X100750Y-47100D02*
X95250Y-47100D01*
X100750Y-47100D02*
G75*
G03X101250Y-46600I0J500D01*
G74*
G01*
X101700Y-45300D02*
G75*
G03X101250Y-45750I0J-450D01*
G74*
G01*
X101250Y-46600D02*
X101250Y-45750D01*
X94800Y-45800D02*
X94800Y-46650D01*
X95250Y-47100D02*
G75*
G02X94800Y-46650I0J450D01*
G74*
G01*
X95250Y-40750D02*
G75*
G03X94800Y-41200I0J-450D01*
G74*
G01*
M02*
