G04 (created by PCBNEW (2013-may-18)-stable) date Sat 21 Nov 2015 10:06:46 AM EST*
%MOIN*%
G04 Gerber Fmt 3.4, Leading zero omitted, Abs format*
%FSLAX34Y34*%
G01*
G70*
G90*
G04 APERTURE LIST*
%ADD10C,0.00590551*%
%ADD11C,0.0001*%
%ADD12C,0.09*%
%ADD13C,0.09*%
%ADD14C,0.157*%
%ADD15C,0.070937*%
%ADD16C,0.065*%
%ADD17C,0.0590551*%
%ADD18R,0.0590551X0.0590551*%
%ADD19C,0.055*%
%ADD20R,0.035X0.055*%
%ADD21C,0.066*%
G04 APERTURE END LIST*
G54D10*
G54D11*
G36*
X95028Y-44009D02*
X94471Y-44009D01*
X94452Y-44010D01*
X94432Y-44013D01*
X94414Y-44018D01*
X94397Y-44025D01*
X94380Y-44033D01*
X94364Y-44044D01*
X94350Y-44055D01*
X94337Y-44068D01*
X94325Y-44082D01*
X94315Y-44098D01*
X94307Y-44114D01*
X94300Y-44132D01*
X94295Y-44150D01*
X94292Y-44169D01*
X94291Y-44189D01*
X94291Y-45109D01*
X94292Y-45128D01*
X94295Y-45147D01*
X94300Y-45166D01*
X94307Y-45183D01*
X94315Y-45200D01*
X94325Y-45215D01*
X94337Y-45229D01*
X94350Y-45242D01*
X94364Y-45254D01*
X94380Y-45264D01*
X94397Y-45273D01*
X94414Y-45279D01*
X94432Y-45284D01*
X94452Y-45287D01*
X94471Y-45288D01*
X95028Y-45288D01*
X95047Y-45287D01*
X95067Y-45284D01*
X95085Y-45279D01*
X95102Y-45273D01*
X95119Y-45264D01*
X95135Y-45254D01*
X95149Y-45242D01*
X95162Y-45229D01*
X95174Y-45215D01*
X95184Y-45200D01*
X95192Y-45183D01*
X95199Y-45166D01*
X95204Y-45147D01*
X95207Y-45128D01*
X95208Y-45109D01*
X95208Y-44189D01*
X95207Y-44169D01*
X95204Y-44150D01*
X95199Y-44132D01*
X95192Y-44114D01*
X95184Y-44098D01*
X95174Y-44082D01*
X95162Y-44068D01*
X95149Y-44055D01*
X95135Y-44044D01*
X95119Y-44033D01*
X95102Y-44025D01*
X95085Y-44018D01*
X95067Y-44013D01*
X95047Y-44010D01*
X95028Y-44009D01*
X95028Y-44009D01*
G37*
G36*
X101554Y-44157D02*
X101145Y-44157D01*
X101125Y-44159D01*
X101106Y-44163D01*
X101088Y-44170D01*
X101071Y-44179D01*
X101056Y-44191D01*
X101042Y-44204D01*
X101031Y-44219D01*
X101022Y-44236D01*
X101015Y-44254D01*
X101011Y-44273D01*
X101009Y-44293D01*
X101009Y-45006D01*
X101011Y-45026D01*
X101015Y-45045D01*
X101022Y-45063D01*
X101031Y-45080D01*
X101042Y-45095D01*
X101056Y-45108D01*
X101071Y-45120D01*
X101088Y-45129D01*
X101106Y-45136D01*
X101125Y-45140D01*
X101145Y-45142D01*
X101554Y-45142D01*
X101574Y-45140D01*
X101593Y-45136D01*
X101611Y-45129D01*
X101628Y-45120D01*
X101643Y-45108D01*
X101657Y-45095D01*
X101668Y-45080D01*
X101677Y-45063D01*
X101684Y-45045D01*
X101688Y-45026D01*
X101690Y-45006D01*
X101690Y-44293D01*
X101688Y-44273D01*
X101684Y-44254D01*
X101677Y-44236D01*
X101668Y-44219D01*
X101657Y-44204D01*
X101643Y-44191D01*
X101628Y-44179D01*
X101611Y-44170D01*
X101593Y-44163D01*
X101574Y-44159D01*
X101554Y-44157D01*
X101554Y-44157D01*
G37*
G36*
X100503Y-41848D02*
X100482Y-41848D01*
X100462Y-41850D01*
X100441Y-41853D01*
X100421Y-41856D01*
X100401Y-41861D01*
X100382Y-41867D01*
X100363Y-41873D01*
X100345Y-41881D01*
X100327Y-41889D01*
X100309Y-41899D01*
X100292Y-41909D01*
X100276Y-41920D01*
X100260Y-41931D01*
X100245Y-41944D01*
X100230Y-41957D01*
X100217Y-41971D01*
X100203Y-41985D01*
X100191Y-42001D01*
X100179Y-42016D01*
X100168Y-42033D01*
X100158Y-42050D01*
X100149Y-42067D01*
X100141Y-42085D01*
X100133Y-42104D01*
X100126Y-42122D01*
X100121Y-42142D01*
X100116Y-42161D01*
X100112Y-42181D01*
X100110Y-42202D01*
X100108Y-42223D01*
X100107Y-42244D01*
X100108Y-42265D01*
X100110Y-42285D01*
X100112Y-42306D01*
X100116Y-42326D01*
X100121Y-42345D01*
X100126Y-42365D01*
X100133Y-42384D01*
X100141Y-42402D01*
X100149Y-42420D01*
X100158Y-42438D01*
X100168Y-42454D01*
X100179Y-42471D01*
X100191Y-42487D01*
X100203Y-42502D01*
X100217Y-42516D01*
X100230Y-42530D01*
X100245Y-42543D01*
X100260Y-42556D01*
X100276Y-42568D01*
X100292Y-42578D01*
X100309Y-42589D01*
X100327Y-42598D01*
X100345Y-42606D01*
X100363Y-42614D01*
X100382Y-42620D01*
X100401Y-42626D01*
X100421Y-42631D01*
X100441Y-42635D01*
X100462Y-42637D01*
X100482Y-42639D01*
X100503Y-42639D01*
X100525Y-42639D01*
X100547Y-42637D01*
X100568Y-42634D01*
X100589Y-42630D01*
X100609Y-42625D01*
X100629Y-42618D01*
X100649Y-42611D01*
X100668Y-42603D01*
X100687Y-42594D01*
X100705Y-42584D01*
X100725Y-42570D01*
X101132Y-42299D01*
X101132Y-42192D01*
X100725Y-41917D01*
X100715Y-41910D01*
X100698Y-41900D01*
X100681Y-41891D01*
X100663Y-41882D01*
X100644Y-41874D01*
X100625Y-41868D01*
X100606Y-41862D01*
X100586Y-41857D01*
X100566Y-41853D01*
X100545Y-41850D01*
X100524Y-41848D01*
X100503Y-41848D01*
X100503Y-41848D01*
G37*
G36*
X95500Y-42649D02*
X95521Y-42649D01*
X95541Y-42647D01*
X95562Y-42644D01*
X95582Y-42641D01*
X95602Y-42636D01*
X95621Y-42630D01*
X95640Y-42624D01*
X95658Y-42616D01*
X95676Y-42608D01*
X95694Y-42598D01*
X95711Y-42588D01*
X95727Y-42577D01*
X95743Y-42566D01*
X95758Y-42553D01*
X95772Y-42540D01*
X95786Y-42526D01*
X95799Y-42512D01*
X95812Y-42496D01*
X95824Y-42481D01*
X95835Y-42464D01*
X95845Y-42447D01*
X95854Y-42430D01*
X95862Y-42412D01*
X95870Y-42394D01*
X95877Y-42375D01*
X95882Y-42355D01*
X95887Y-42336D01*
X95891Y-42316D01*
X95893Y-42295D01*
X95895Y-42274D01*
X95896Y-42253D01*
X95895Y-42232D01*
X95893Y-42212D01*
X95891Y-42191D01*
X95887Y-42171D01*
X95882Y-42152D01*
X95877Y-42132D01*
X95870Y-42113D01*
X95862Y-42095D01*
X95854Y-42077D01*
X95845Y-42059D01*
X95835Y-42043D01*
X95824Y-42026D01*
X95812Y-42010D01*
X95799Y-41995D01*
X95786Y-41981D01*
X95772Y-41967D01*
X95758Y-41954D01*
X95743Y-41941D01*
X95727Y-41929D01*
X95711Y-41919D01*
X95694Y-41908D01*
X95676Y-41899D01*
X95658Y-41891D01*
X95640Y-41883D01*
X95621Y-41877D01*
X95602Y-41871D01*
X95582Y-41866D01*
X95562Y-41862D01*
X95541Y-41860D01*
X95521Y-41858D01*
X95500Y-41858D01*
X95478Y-41858D01*
X95456Y-41860D01*
X95435Y-41863D01*
X95414Y-41867D01*
X95394Y-41872D01*
X95373Y-41879D01*
X95354Y-41886D01*
X95335Y-41894D01*
X95316Y-41903D01*
X95298Y-41913D01*
X95277Y-41927D01*
X94871Y-42198D01*
X94871Y-42306D01*
X95277Y-42580D01*
X95288Y-42587D01*
X95305Y-42597D01*
X95322Y-42606D01*
X95340Y-42615D01*
X95359Y-42623D01*
X95378Y-42629D01*
X95397Y-42635D01*
X95417Y-42640D01*
X95437Y-42644D01*
X95458Y-42647D01*
X95479Y-42649D01*
X95500Y-42649D01*
X95500Y-42649D01*
G37*
G36*
X99702Y-41297D02*
X99703Y-41318D01*
X99704Y-41339D01*
X99707Y-41359D01*
X99711Y-41379D01*
X99715Y-41399D01*
X99721Y-41418D01*
X99728Y-41437D01*
X99735Y-41455D01*
X99744Y-41473D01*
X99753Y-41491D01*
X99763Y-41508D01*
X99774Y-41524D01*
X99786Y-41540D01*
X99798Y-41555D01*
X99811Y-41570D01*
X99825Y-41584D01*
X99840Y-41597D01*
X99855Y-41609D01*
X99871Y-41621D01*
X99887Y-41632D01*
X99904Y-41642D01*
X99921Y-41651D01*
X99939Y-41660D01*
X99958Y-41667D01*
X99977Y-41674D01*
X99996Y-41679D01*
X100016Y-41684D01*
X100036Y-41688D01*
X100056Y-41691D01*
X100077Y-41692D01*
X100098Y-41693D01*
X100119Y-41692D01*
X100140Y-41691D01*
X100160Y-41688D01*
X100180Y-41684D01*
X100200Y-41679D01*
X100219Y-41674D01*
X100238Y-41667D01*
X100256Y-41660D01*
X100274Y-41651D01*
X100292Y-41642D01*
X100309Y-41632D01*
X100325Y-41621D01*
X100341Y-41609D01*
X100356Y-41597D01*
X100371Y-41584D01*
X100385Y-41570D01*
X100398Y-41555D01*
X100410Y-41540D01*
X100422Y-41524D01*
X100433Y-41508D01*
X100443Y-41491D01*
X100452Y-41473D01*
X100461Y-41455D01*
X100468Y-41437D01*
X100475Y-41418D01*
X100480Y-41399D01*
X100485Y-41379D01*
X100489Y-41359D01*
X100492Y-41339D01*
X100493Y-41318D01*
X100494Y-41297D01*
X100493Y-41275D01*
X100491Y-41253D01*
X100488Y-41232D01*
X100484Y-41211D01*
X100479Y-41191D01*
X100473Y-41171D01*
X100466Y-41151D01*
X100457Y-41132D01*
X100448Y-41113D01*
X100438Y-41096D01*
X100424Y-41075D01*
X100153Y-40668D01*
X100046Y-40668D01*
X99772Y-41075D01*
X99765Y-41085D01*
X99754Y-41102D01*
X99745Y-41120D01*
X99736Y-41138D01*
X99729Y-41156D01*
X99722Y-41175D01*
X99716Y-41195D01*
X99711Y-41214D01*
X99707Y-41235D01*
X99704Y-41255D01*
X99703Y-41276D01*
X99702Y-41297D01*
X99702Y-41297D01*
G37*
G36*
X97606Y-41297D02*
X97606Y-41318D01*
X97608Y-41339D01*
X97610Y-41359D01*
X97614Y-41379D01*
X97619Y-41399D01*
X97625Y-41418D01*
X97631Y-41437D01*
X97639Y-41455D01*
X97647Y-41473D01*
X97656Y-41491D01*
X97667Y-41508D01*
X97678Y-41524D01*
X97689Y-41540D01*
X97702Y-41555D01*
X97715Y-41570D01*
X97729Y-41584D01*
X97743Y-41597D01*
X97758Y-41609D01*
X97774Y-41621D01*
X97791Y-41632D01*
X97808Y-41642D01*
X97825Y-41651D01*
X97843Y-41660D01*
X97861Y-41667D01*
X97880Y-41674D01*
X97900Y-41679D01*
X97919Y-41684D01*
X97939Y-41688D01*
X97960Y-41691D01*
X97980Y-41692D01*
X98001Y-41693D01*
X98022Y-41692D01*
X98043Y-41691D01*
X98064Y-41688D01*
X98084Y-41684D01*
X98103Y-41679D01*
X98123Y-41674D01*
X98142Y-41667D01*
X98160Y-41660D01*
X98178Y-41651D01*
X98195Y-41642D01*
X98212Y-41632D01*
X98229Y-41621D01*
X98245Y-41609D01*
X98260Y-41597D01*
X98274Y-41584D01*
X98288Y-41570D01*
X98301Y-41555D01*
X98314Y-41540D01*
X98325Y-41524D01*
X98336Y-41508D01*
X98346Y-41491D01*
X98356Y-41473D01*
X98364Y-41455D01*
X98372Y-41437D01*
X98378Y-41418D01*
X98384Y-41399D01*
X98389Y-41379D01*
X98392Y-41359D01*
X98395Y-41339D01*
X98397Y-41318D01*
X98397Y-41297D01*
X98397Y-41275D01*
X98395Y-41253D01*
X98392Y-41232D01*
X98388Y-41211D01*
X98383Y-41191D01*
X98376Y-41171D01*
X98369Y-41151D01*
X98361Y-41132D01*
X98352Y-41113D01*
X98342Y-41096D01*
X98328Y-41075D01*
X98057Y-40668D01*
X97949Y-40668D01*
X97675Y-41075D01*
X97668Y-41085D01*
X97658Y-41102D01*
X97649Y-41120D01*
X97640Y-41138D01*
X97632Y-41156D01*
X97625Y-41175D01*
X97620Y-41195D01*
X97615Y-41214D01*
X97611Y-41235D01*
X97608Y-41255D01*
X97606Y-41276D01*
X97606Y-41297D01*
X97606Y-41297D01*
G37*
G36*
X100897Y-46497D02*
X100897Y-46476D01*
X100895Y-46456D01*
X100892Y-46435D01*
X100889Y-46415D01*
X100884Y-46395D01*
X100878Y-46376D01*
X100872Y-46357D01*
X100864Y-46339D01*
X100856Y-46321D01*
X100846Y-46303D01*
X100836Y-46286D01*
X100825Y-46270D01*
X100814Y-46254D01*
X100801Y-46239D01*
X100788Y-46225D01*
X100774Y-46211D01*
X100760Y-46198D01*
X100745Y-46185D01*
X100729Y-46173D01*
X100712Y-46162D01*
X100695Y-46152D01*
X100678Y-46143D01*
X100660Y-46135D01*
X100642Y-46127D01*
X100623Y-46120D01*
X100603Y-46115D01*
X100584Y-46110D01*
X100564Y-46106D01*
X100543Y-46104D01*
X100522Y-46102D01*
X100501Y-46102D01*
X100480Y-46102D01*
X100460Y-46104D01*
X100439Y-46106D01*
X100419Y-46110D01*
X100400Y-46115D01*
X100380Y-46120D01*
X100361Y-46127D01*
X100343Y-46135D01*
X100325Y-46143D01*
X100308Y-46152D01*
X100291Y-46162D01*
X100274Y-46173D01*
X100258Y-46185D01*
X100243Y-46198D01*
X100229Y-46211D01*
X100215Y-46225D01*
X100202Y-46239D01*
X100189Y-46254D01*
X100178Y-46270D01*
X100167Y-46286D01*
X100156Y-46303D01*
X100147Y-46321D01*
X100139Y-46339D01*
X100131Y-46357D01*
X100125Y-46376D01*
X100119Y-46395D01*
X100114Y-46415D01*
X100110Y-46435D01*
X100108Y-46456D01*
X100106Y-46476D01*
X100106Y-46497D01*
X100106Y-46519D01*
X100108Y-46541D01*
X100111Y-46562D01*
X100115Y-46583D01*
X100120Y-46603D01*
X100127Y-46624D01*
X100134Y-46643D01*
X100142Y-46662D01*
X100151Y-46681D01*
X100161Y-46699D01*
X100175Y-46720D01*
X100446Y-47126D01*
X100554Y-47126D01*
X100828Y-46720D01*
X100835Y-46709D01*
X100845Y-46692D01*
X100854Y-46675D01*
X100863Y-46657D01*
X100871Y-46638D01*
X100877Y-46619D01*
X100883Y-46600D01*
X100888Y-46580D01*
X100892Y-46560D01*
X100895Y-46539D01*
X100897Y-46518D01*
X100897Y-46497D01*
X100897Y-46497D01*
G37*
G36*
X96891Y-46497D02*
X96891Y-46476D01*
X96889Y-46456D01*
X96887Y-46435D01*
X96883Y-46415D01*
X96878Y-46395D01*
X96872Y-46376D01*
X96866Y-46357D01*
X96858Y-46339D01*
X96850Y-46321D01*
X96841Y-46303D01*
X96830Y-46286D01*
X96820Y-46270D01*
X96808Y-46254D01*
X96795Y-46239D01*
X96782Y-46225D01*
X96768Y-46211D01*
X96754Y-46198D01*
X96739Y-46185D01*
X96723Y-46173D01*
X96706Y-46162D01*
X96690Y-46152D01*
X96672Y-46143D01*
X96654Y-46135D01*
X96636Y-46127D01*
X96617Y-46120D01*
X96597Y-46115D01*
X96578Y-46110D01*
X96558Y-46106D01*
X96537Y-46104D01*
X96517Y-46102D01*
X96496Y-46102D01*
X96475Y-46102D01*
X96454Y-46104D01*
X96433Y-46106D01*
X96413Y-46110D01*
X96394Y-46115D01*
X96374Y-46120D01*
X96355Y-46127D01*
X96337Y-46135D01*
X96319Y-46143D01*
X96302Y-46152D01*
X96285Y-46162D01*
X96268Y-46173D01*
X96253Y-46185D01*
X96237Y-46198D01*
X96223Y-46211D01*
X96209Y-46225D01*
X96196Y-46239D01*
X96183Y-46254D01*
X96172Y-46270D01*
X96161Y-46286D01*
X96151Y-46303D01*
X96141Y-46321D01*
X96133Y-46339D01*
X96125Y-46357D01*
X96119Y-46376D01*
X96113Y-46395D01*
X96108Y-46415D01*
X96105Y-46435D01*
X96102Y-46456D01*
X96100Y-46476D01*
X96100Y-46497D01*
X96100Y-46519D01*
X96102Y-46541D01*
X96105Y-46562D01*
X96109Y-46583D01*
X96114Y-46603D01*
X96121Y-46624D01*
X96128Y-46643D01*
X96136Y-46662D01*
X96145Y-46681D01*
X96155Y-46699D01*
X96169Y-46720D01*
X96440Y-47126D01*
X96548Y-47126D01*
X96822Y-46720D01*
X96829Y-46709D01*
X96839Y-46692D01*
X96848Y-46675D01*
X96857Y-46657D01*
X96865Y-46638D01*
X96872Y-46619D01*
X96877Y-46600D01*
X96882Y-46580D01*
X96886Y-46560D01*
X96889Y-46539D01*
X96891Y-46518D01*
X96891Y-46497D01*
X96891Y-46497D01*
G37*
G36*
X100104Y-45106D02*
X100104Y-45897D01*
X100840Y-45897D01*
X101135Y-45536D01*
X101135Y-45467D01*
X100840Y-45106D01*
X100104Y-45106D01*
X100104Y-45106D01*
G37*
G36*
X95899Y-45897D02*
X95899Y-45106D01*
X95163Y-45106D01*
X94868Y-45467D01*
X94868Y-45536D01*
X95163Y-45897D01*
X95899Y-45897D01*
X95899Y-45897D01*
G37*
G36*
X95598Y-41696D02*
X96389Y-41696D01*
X96389Y-40960D01*
X96028Y-40665D01*
X95959Y-40665D01*
X95598Y-40960D01*
X95598Y-41696D01*
X95598Y-41696D01*
G37*
G36*
X95897Y-46098D02*
X95106Y-46098D01*
X95106Y-46834D01*
X95467Y-47129D01*
X95536Y-47129D01*
X95897Y-46834D01*
X95897Y-46098D01*
X95897Y-46098D01*
G37*
G36*
X99893Y-46098D02*
X99102Y-46098D01*
X99102Y-46834D01*
X99463Y-47129D01*
X99532Y-47129D01*
X99893Y-46834D01*
X99893Y-46098D01*
X99893Y-46098D01*
G37*
G54D12*
X99000Y-41500D02*
X98984Y-41728D01*
G54D13*
X97015Y-41925D03*
X96500Y-42500D03*
G54D14*
X98000Y-43500D03*
G54D15*
X96000Y-43500D03*
X100000Y-43500D03*
G54D16*
X96000Y-44500D03*
X100000Y-44500D03*
G54D17*
X98000Y-41300D03*
G54D18*
X96000Y-41300D03*
X95500Y-45500D03*
G54D17*
X95500Y-42250D03*
G54D18*
X95500Y-46500D03*
G54D17*
X100100Y-41300D03*
X100500Y-42250D03*
G54D18*
X100500Y-45500D03*
G54D19*
X99500Y-45500D03*
X96500Y-45500D03*
G54D17*
X96500Y-46500D03*
G54D18*
X99500Y-46500D03*
G54D20*
X97625Y-46450D03*
X98375Y-46450D03*
X97625Y-44700D03*
X98375Y-44700D03*
G54D21*
X97500Y-45500D03*
X98500Y-45500D03*
G54D17*
X100500Y-46500D03*
M02*
