G04 (created by PCBNEW (2013-jul-07)-stable) date Thu 27 Aug 2015 10:17:58 PM EDT*
%MOIN*%
G04 Gerber Fmt 3.4, Leading zero omitted, Abs format*
%FSLAX34Y34*%
G01*
G70*
G90*
G04 APERTURE LIST*
%ADD10C,0.00590551*%
%ADD11C,0.00393701*%
%ADD12C,0.00984252*%
%ADD13C,0.015*%
%ADD14C,0.012*%
%ADD15C,0.011811*%
%ADD16C,0.00787402*%
%ADD17C,0.0039*%
G04 APERTURE END LIST*
G54D10*
G54D11*
X95600Y-42980D02*
X95600Y-42455D01*
X95185Y-41305D02*
X95765Y-41305D01*
X100440Y-42965D02*
X100440Y-42485D01*
X101150Y-45300D02*
X100600Y-45300D01*
X97275Y-46600D02*
X96700Y-46600D01*
X98750Y-46600D02*
X99275Y-46600D01*
G54D10*
X97933Y-46620D02*
X98012Y-46508D01*
X98068Y-46620D02*
X98068Y-46384D01*
X97978Y-46384D01*
X97956Y-46395D01*
X97945Y-46406D01*
X97933Y-46429D01*
X97933Y-46463D01*
X97945Y-46485D01*
X97956Y-46496D01*
X97978Y-46508D01*
X98068Y-46508D01*
G54D11*
X95725Y-45350D02*
X95725Y-44950D01*
G54D12*
X98225Y-42155D02*
X98150Y-42155D01*
X98115Y-42174D01*
X98082Y-42211D01*
X98072Y-42286D01*
X98089Y-42418D01*
X98117Y-42493D01*
X98159Y-42530D01*
X98199Y-42549D01*
X98274Y-42549D01*
X98309Y-42530D01*
X98342Y-42493D01*
X98351Y-42418D01*
X98335Y-42286D01*
X98307Y-42211D01*
X98265Y-42174D01*
X98225Y-42155D01*
X98940Y-42797D02*
X98890Y-42403D01*
X98794Y-42684D01*
X98628Y-42403D01*
X98677Y-42797D01*
X97005Y-43159D02*
X96818Y-43159D01*
X97057Y-43272D02*
X96876Y-42878D01*
X96794Y-43272D01*
X99234Y-43165D02*
X99047Y-43165D01*
X99286Y-43278D02*
X99105Y-42884D01*
X99023Y-43278D01*
X97773Y-42370D02*
X97642Y-42370D01*
X97611Y-42576D02*
X97799Y-42576D01*
X97750Y-42182D01*
X97562Y-42182D01*
X97202Y-42591D02*
X97148Y-42609D01*
X97131Y-42628D01*
X97117Y-42666D01*
X97124Y-42722D01*
X97148Y-42759D01*
X97169Y-42778D01*
X97209Y-42797D01*
X97359Y-42797D01*
X97309Y-42403D01*
X97178Y-42403D01*
X97143Y-42422D01*
X97127Y-42441D01*
X97112Y-42478D01*
X97117Y-42516D01*
X97141Y-42553D01*
X97162Y-42572D01*
X97202Y-42591D01*
X97333Y-42591D01*
G54D10*
X95277Y-44919D02*
X95067Y-44870D01*
X95277Y-44769D01*
X95067Y-44510D02*
X95067Y-44690D01*
X95067Y-44600D02*
X95382Y-44561D01*
X95337Y-44597D01*
X95307Y-44630D01*
X95292Y-44662D01*
X95097Y-44372D02*
X95082Y-44359D01*
X95067Y-44375D01*
X95082Y-44389D01*
X95097Y-44372D01*
X95067Y-44375D01*
X95352Y-44205D02*
X95367Y-44188D01*
X95382Y-44156D01*
X95382Y-44081D01*
X95367Y-44053D01*
X95352Y-44040D01*
X95322Y-44029D01*
X95292Y-44032D01*
X95247Y-44053D01*
X95067Y-44255D01*
X95067Y-44060D01*
X95097Y-43922D02*
X95082Y-43909D01*
X95067Y-43925D01*
X95082Y-43939D01*
X95097Y-43922D01*
X95067Y-43925D01*
X95382Y-43676D02*
X95382Y-43646D01*
X95367Y-43618D01*
X95352Y-43605D01*
X95322Y-43594D01*
X95262Y-43586D01*
X95187Y-43596D01*
X95127Y-43618D01*
X95097Y-43637D01*
X95082Y-43654D01*
X95067Y-43686D01*
X95067Y-43716D01*
X95082Y-43744D01*
X95097Y-43757D01*
X95127Y-43768D01*
X95187Y-43775D01*
X95262Y-43766D01*
X95322Y-43744D01*
X95352Y-43725D01*
X95367Y-43708D01*
X95382Y-43676D01*
G54D11*
X97803Y-41255D02*
X97153Y-41255D01*
X101125Y-46250D02*
X100500Y-46250D01*
X95525Y-46250D02*
X96125Y-46250D01*
G54D10*
X95500Y-42959D02*
X95466Y-42970D01*
X95410Y-42970D01*
X95387Y-42959D01*
X95376Y-42948D01*
X95365Y-42925D01*
X95365Y-42903D01*
X95376Y-42880D01*
X95387Y-42869D01*
X95410Y-42858D01*
X95455Y-42846D01*
X95477Y-42835D01*
X95488Y-42824D01*
X95500Y-42801D01*
X95500Y-42779D01*
X95488Y-42756D01*
X95477Y-42745D01*
X95455Y-42734D01*
X95398Y-42734D01*
X95365Y-42745D01*
X95128Y-42970D02*
X95207Y-42858D01*
X95263Y-42970D02*
X95263Y-42734D01*
X95173Y-42734D01*
X95151Y-42745D01*
X95140Y-42756D01*
X95128Y-42779D01*
X95128Y-42813D01*
X95140Y-42835D01*
X95151Y-42846D01*
X95173Y-42858D01*
X95263Y-42858D01*
X97530Y-41159D02*
X97496Y-41170D01*
X97440Y-41170D01*
X97417Y-41159D01*
X97406Y-41148D01*
X97395Y-41125D01*
X97395Y-41103D01*
X97406Y-41080D01*
X97417Y-41069D01*
X97440Y-41058D01*
X97485Y-41046D01*
X97507Y-41035D01*
X97518Y-41024D01*
X97530Y-41001D01*
X97530Y-40979D01*
X97518Y-40956D01*
X97507Y-40945D01*
X97485Y-40934D01*
X97428Y-40934D01*
X97395Y-40945D01*
X97158Y-41148D02*
X97170Y-41159D01*
X97203Y-41170D01*
X97226Y-41170D01*
X97260Y-41159D01*
X97282Y-41136D01*
X97293Y-41114D01*
X97305Y-41069D01*
X97305Y-41035D01*
X97293Y-40990D01*
X97282Y-40968D01*
X97260Y-40945D01*
X97226Y-40934D01*
X97203Y-40934D01*
X97170Y-40945D01*
X97158Y-40956D01*
X101130Y-46134D02*
X101096Y-46145D01*
X101040Y-46145D01*
X101017Y-46134D01*
X101006Y-46123D01*
X100995Y-46100D01*
X100995Y-46078D01*
X101006Y-46055D01*
X101017Y-46044D01*
X101040Y-46033D01*
X101085Y-46021D01*
X101107Y-46010D01*
X101118Y-45999D01*
X101130Y-45976D01*
X101130Y-45954D01*
X101118Y-45931D01*
X101107Y-45920D01*
X101085Y-45909D01*
X101028Y-45909D01*
X100995Y-45920D01*
X100758Y-46123D02*
X100770Y-46134D01*
X100803Y-46145D01*
X100826Y-46145D01*
X100860Y-46134D01*
X100882Y-46111D01*
X100893Y-46089D01*
X100905Y-46044D01*
X100905Y-46010D01*
X100893Y-45965D01*
X100882Y-45943D01*
X100860Y-45920D01*
X100826Y-45909D01*
X100803Y-45909D01*
X100770Y-45920D01*
X100758Y-45931D01*
X98956Y-46920D02*
X99068Y-46920D01*
X99068Y-46684D01*
X98742Y-46898D02*
X98753Y-46909D01*
X98787Y-46920D01*
X98810Y-46920D01*
X98843Y-46909D01*
X98866Y-46886D01*
X98877Y-46864D01*
X98888Y-46819D01*
X98888Y-46785D01*
X98877Y-46740D01*
X98866Y-46718D01*
X98843Y-46695D01*
X98810Y-46684D01*
X98787Y-46684D01*
X98753Y-46695D01*
X98742Y-46706D01*
X96031Y-46170D02*
X96143Y-46170D01*
X96143Y-45934D01*
X95817Y-46148D02*
X95828Y-46159D01*
X95862Y-46170D01*
X95885Y-46170D01*
X95918Y-46159D01*
X95941Y-46136D01*
X95952Y-46114D01*
X95963Y-46069D01*
X95963Y-46035D01*
X95952Y-45990D01*
X95941Y-45968D01*
X95918Y-45945D01*
X95885Y-45934D01*
X95862Y-45934D01*
X95828Y-45945D01*
X95817Y-45956D01*
X101031Y-45195D02*
X101143Y-45195D01*
X101143Y-44959D01*
X100817Y-45195D02*
X100896Y-45083D01*
X100952Y-45195D02*
X100952Y-44959D01*
X100862Y-44959D01*
X100840Y-44970D01*
X100828Y-44981D01*
X100817Y-45004D01*
X100817Y-45038D01*
X100828Y-45060D01*
X100840Y-45071D01*
X100862Y-45083D01*
X100952Y-45083D01*
X100350Y-42924D02*
X100316Y-42935D01*
X100260Y-42935D01*
X100237Y-42924D01*
X100226Y-42913D01*
X100215Y-42890D01*
X100215Y-42868D01*
X100226Y-42845D01*
X100237Y-42834D01*
X100260Y-42823D01*
X100305Y-42811D01*
X100327Y-42800D01*
X100338Y-42789D01*
X100350Y-42766D01*
X100350Y-42744D01*
X100338Y-42721D01*
X100327Y-42710D01*
X100305Y-42699D01*
X100248Y-42699D01*
X100215Y-42710D01*
X99978Y-42935D02*
X100057Y-42823D01*
X100113Y-42935D02*
X100113Y-42699D01*
X100023Y-42699D01*
X100001Y-42710D01*
X99990Y-42721D01*
X99978Y-42744D01*
X99978Y-42778D01*
X99990Y-42800D01*
X100001Y-42811D01*
X100023Y-42823D01*
X100113Y-42823D01*
X97280Y-46909D02*
X97246Y-46920D01*
X97190Y-46920D01*
X97167Y-46909D01*
X97156Y-46898D01*
X97145Y-46875D01*
X97145Y-46853D01*
X97156Y-46830D01*
X97167Y-46819D01*
X97190Y-46808D01*
X97235Y-46796D01*
X97257Y-46785D01*
X97268Y-46774D01*
X97280Y-46751D01*
X97280Y-46729D01*
X97268Y-46706D01*
X97257Y-46695D01*
X97235Y-46684D01*
X97178Y-46684D01*
X97145Y-46695D01*
X96908Y-46898D02*
X96920Y-46909D01*
X96953Y-46920D01*
X96976Y-46920D01*
X97010Y-46909D01*
X97032Y-46886D01*
X97043Y-46864D01*
X97055Y-46819D01*
X97055Y-46785D01*
X97043Y-46740D01*
X97032Y-46718D01*
X97010Y-46695D01*
X96976Y-46684D01*
X96953Y-46684D01*
X96920Y-46695D01*
X96908Y-46706D01*
X95401Y-41660D02*
X95513Y-41660D01*
X95513Y-41424D01*
X95187Y-41638D02*
X95198Y-41649D01*
X95232Y-41660D01*
X95255Y-41660D01*
X95288Y-41649D01*
X95311Y-41626D01*
X95322Y-41604D01*
X95333Y-41559D01*
X95333Y-41525D01*
X95322Y-41480D01*
X95311Y-41458D01*
X95288Y-41435D01*
X95255Y-41424D01*
X95232Y-41424D01*
X95198Y-41435D01*
X95187Y-41446D01*
X96031Y-45195D02*
X96143Y-45195D01*
X96143Y-44959D01*
X95817Y-45195D02*
X95896Y-45083D01*
X95952Y-45195D02*
X95952Y-44959D01*
X95862Y-44959D01*
X95840Y-44970D01*
X95828Y-44981D01*
X95817Y-45004D01*
X95817Y-45038D01*
X95828Y-45060D01*
X95840Y-45071D01*
X95862Y-45083D01*
X95952Y-45083D01*
G54D13*
X96750Y-45000D02*
X99250Y-45000D01*
X99250Y-45000D02*
X99250Y-44000D01*
X99250Y-44000D02*
X96750Y-44000D01*
X96750Y-44000D02*
X96750Y-45000D01*
X100000Y-44500D02*
X99250Y-44500D01*
X96000Y-44500D02*
X96750Y-44500D01*
G54D14*
X99500Y-45500D02*
X99200Y-45500D01*
X99200Y-45500D02*
X99200Y-45900D01*
X99200Y-45900D02*
X96800Y-45900D01*
X96800Y-45900D02*
X96800Y-45500D01*
X96800Y-45500D02*
X96500Y-45500D01*
X96800Y-45500D02*
X96800Y-45100D01*
X96800Y-45100D02*
X99200Y-45100D01*
X99200Y-45100D02*
X99200Y-45500D01*
X99000Y-45900D02*
X99000Y-45100D01*
X98900Y-45100D02*
X98900Y-45900D01*
G54D15*
X100557Y-41750D02*
X101000Y-41750D01*
X101000Y-41750D02*
X101000Y-40950D01*
X101000Y-40950D02*
X100557Y-40950D01*
X100131Y-41750D02*
X99700Y-41750D01*
X99700Y-41750D02*
X99700Y-40950D01*
X99700Y-40950D02*
X100131Y-40950D01*
G54D16*
X100450Y-41500D02*
X100450Y-41200D01*
X100275Y-41500D02*
X100275Y-41200D01*
X100275Y-41200D02*
X100425Y-41350D01*
X100425Y-41350D02*
X100275Y-41500D01*
G54D17*
X97400Y-46200D02*
G75*
G03X97400Y-46200I-50J0D01*
G74*
G01*
X97800Y-46200D02*
X97400Y-46200D01*
X97400Y-46200D02*
X97400Y-46800D01*
X97400Y-46800D02*
X97800Y-46800D01*
X98200Y-46800D02*
X98600Y-46800D01*
X98600Y-46800D02*
X98600Y-46200D01*
X98600Y-46200D02*
X98200Y-46200D01*
G54D16*
X98862Y-44627D02*
X98967Y-44477D01*
X99042Y-44627D02*
X99042Y-44312D01*
X98922Y-44312D01*
X98892Y-44327D01*
X98877Y-44342D01*
X98862Y-44372D01*
X98862Y-44417D01*
X98877Y-44447D01*
X98892Y-44462D01*
X98922Y-44477D01*
X99042Y-44477D01*
X98727Y-44462D02*
X98622Y-44462D01*
X98577Y-44627D02*
X98727Y-44627D01*
X98727Y-44312D01*
X98577Y-44312D01*
X98457Y-44612D02*
X98412Y-44627D01*
X98337Y-44627D01*
X98307Y-44612D01*
X98292Y-44597D01*
X98277Y-44567D01*
X98277Y-44537D01*
X98292Y-44507D01*
X98307Y-44492D01*
X98337Y-44477D01*
X98397Y-44462D01*
X98427Y-44447D01*
X98442Y-44432D01*
X98457Y-44402D01*
X98457Y-44372D01*
X98442Y-44342D01*
X98427Y-44327D01*
X98397Y-44312D01*
X98322Y-44312D01*
X98277Y-44327D01*
X98142Y-44627D02*
X98142Y-44312D01*
X98007Y-44612D02*
X97962Y-44627D01*
X97887Y-44627D01*
X97857Y-44612D01*
X97842Y-44597D01*
X97827Y-44567D01*
X97827Y-44537D01*
X97842Y-44507D01*
X97857Y-44492D01*
X97887Y-44477D01*
X97947Y-44462D01*
X97977Y-44447D01*
X97992Y-44432D01*
X98007Y-44402D01*
X98007Y-44372D01*
X97992Y-44342D01*
X97977Y-44327D01*
X97947Y-44312D01*
X97872Y-44312D01*
X97827Y-44327D01*
X97737Y-44312D02*
X97557Y-44312D01*
X97647Y-44627D02*
X97647Y-44312D01*
X97392Y-44312D02*
X97332Y-44312D01*
X97302Y-44327D01*
X97272Y-44357D01*
X97257Y-44417D01*
X97257Y-44522D01*
X97272Y-44582D01*
X97302Y-44612D01*
X97332Y-44627D01*
X97392Y-44627D01*
X97422Y-44612D01*
X97452Y-44582D01*
X97467Y-44522D01*
X97467Y-44417D01*
X97452Y-44357D01*
X97422Y-44327D01*
X97392Y-44312D01*
X96942Y-44627D02*
X97047Y-44477D01*
X97122Y-44627D02*
X97122Y-44312D01*
X97002Y-44312D01*
X96972Y-44327D01*
X96957Y-44342D01*
X96942Y-44372D01*
X96942Y-44417D01*
X96957Y-44447D01*
X96972Y-44462D01*
X97002Y-44477D01*
X97122Y-44477D01*
M02*
