G04 (created by PCBNEW (2013-may-18)-stable) date Sat 31 Oct 2015 04:05:48 PM EDT*
%MOIN*%
G04 Gerber Fmt 3.4, Leading zero omitted, Abs format*
%FSLAX34Y34*%
G01*
G70*
G90*
G04 APERTURE LIST*
%ADD10C,0.00590551*%
%ADD11C,0.0001*%
%ADD12C,0.09*%
%ADD13C,0.09*%
%ADD14C,0.157*%
%ADD15C,0.070937*%
%ADD16C,0.065*%
%ADD17C,0.0590551*%
%ADD18R,0.0590551X0.0590551*%
%ADD19C,0.055*%
%ADD20R,0.035X0.055*%
%ADD21C,0.066*%
G04 APERTURE END LIST*
G54D10*
G54D11*
G36*
X95028Y-44009D02*
X94471Y-44009D01*
X94452Y-44010D01*
X94432Y-44013D01*
X94414Y-44018D01*
X94397Y-44025D01*
X94380Y-44033D01*
X94364Y-44044D01*
X94350Y-44055D01*
X94337Y-44068D01*
X94325Y-44082D01*
X94315Y-44098D01*
X94307Y-44114D01*
X94300Y-44132D01*
X94295Y-44150D01*
X94292Y-44169D01*
X94291Y-44189D01*
X94291Y-45109D01*
X94292Y-45128D01*
X94295Y-45147D01*
X94300Y-45166D01*
X94307Y-45183D01*
X94315Y-45200D01*
X94325Y-45215D01*
X94337Y-45229D01*
X94350Y-45242D01*
X94364Y-45254D01*
X94380Y-45264D01*
X94397Y-45273D01*
X94414Y-45279D01*
X94432Y-45284D01*
X94452Y-45287D01*
X94471Y-45288D01*
X95028Y-45288D01*
X95047Y-45287D01*
X95067Y-45284D01*
X95085Y-45279D01*
X95102Y-45273D01*
X95119Y-45264D01*
X95135Y-45254D01*
X95149Y-45242D01*
X95162Y-45229D01*
X95174Y-45215D01*
X95184Y-45200D01*
X95192Y-45183D01*
X95199Y-45166D01*
X95204Y-45147D01*
X95207Y-45128D01*
X95208Y-45109D01*
X95208Y-44189D01*
X95207Y-44169D01*
X95204Y-44150D01*
X95199Y-44132D01*
X95192Y-44114D01*
X95184Y-44098D01*
X95174Y-44082D01*
X95162Y-44068D01*
X95149Y-44055D01*
X95135Y-44044D01*
X95119Y-44033D01*
X95102Y-44025D01*
X95085Y-44018D01*
X95067Y-44013D01*
X95047Y-44010D01*
X95028Y-44009D01*
X95028Y-44009D01*
G37*
G36*
X101554Y-44157D02*
X101145Y-44157D01*
X101125Y-44159D01*
X101106Y-44163D01*
X101088Y-44170D01*
X101071Y-44179D01*
X101056Y-44191D01*
X101042Y-44204D01*
X101031Y-44219D01*
X101022Y-44236D01*
X101015Y-44254D01*
X101011Y-44273D01*
X101009Y-44293D01*
X101009Y-45006D01*
X101011Y-45026D01*
X101015Y-45045D01*
X101022Y-45063D01*
X101031Y-45080D01*
X101042Y-45095D01*
X101056Y-45108D01*
X101071Y-45120D01*
X101088Y-45129D01*
X101106Y-45136D01*
X101125Y-45140D01*
X101145Y-45142D01*
X101554Y-45142D01*
X101574Y-45140D01*
X101593Y-45136D01*
X101611Y-45129D01*
X101628Y-45120D01*
X101643Y-45108D01*
X101657Y-45095D01*
X101668Y-45080D01*
X101677Y-45063D01*
X101684Y-45045D01*
X101688Y-45026D01*
X101690Y-45006D01*
X101690Y-44293D01*
X101688Y-44273D01*
X101684Y-44254D01*
X101677Y-44236D01*
X101668Y-44219D01*
X101657Y-44204D01*
X101643Y-44191D01*
X101628Y-44179D01*
X101611Y-44170D01*
X101593Y-44163D01*
X101574Y-44159D01*
X101554Y-44157D01*
X101554Y-44157D01*
G37*
G54D12*
X99000Y-41500D02*
X98984Y-41728D01*
G54D13*
X97015Y-41925D03*
X96500Y-42500D03*
G54D14*
X98000Y-43500D03*
G54D15*
X96000Y-43500D03*
X100000Y-43500D03*
G54D16*
X96000Y-44500D03*
X100000Y-44500D03*
G54D17*
X98000Y-41300D03*
G54D18*
X96000Y-41300D03*
X95500Y-45500D03*
G54D17*
X95500Y-42250D03*
G54D18*
X95500Y-46500D03*
G54D17*
X100100Y-41300D03*
X100500Y-42250D03*
G54D18*
X100500Y-45500D03*
G54D19*
X99500Y-45500D03*
X96500Y-45500D03*
G54D17*
X96500Y-46500D03*
G54D18*
X99500Y-46500D03*
G54D20*
X97625Y-46450D03*
X98375Y-46450D03*
X97625Y-44700D03*
X98375Y-44700D03*
G54D21*
X97500Y-45500D03*
X98500Y-45500D03*
G54D17*
X100500Y-46500D03*
M02*
