G04 (created by PCBNEW (2013-may-18)-stable) date Sun 23 Aug 2015 09:32:15 PM EDT*
%MOIN*%
G04 Gerber Fmt 3.4, Leading zero omitted, Abs format*
%FSLAX34Y34*%
G01*
G70*
G90*
G04 APERTURE LIST*
%ADD10C,0.00590551*%
%ADD11C,0.00492126*%
%ADD12C,0.00787402*%
%ADD13C,0.01*%
%ADD14C,0.006*%
%ADD15C,0.015*%
G04 APERTURE END LIST*
G54D10*
G54D11*
X100723Y-43640D02*
X100936Y-44034D01*
X100985Y-43640D02*
X100673Y-44034D01*
X100698Y-43384D02*
X100748Y-42990D01*
X100844Y-43271D01*
X101010Y-42990D01*
X100961Y-43384D01*
G54D12*
X97285Y-46617D02*
X97334Y-46827D01*
X97435Y-46617D01*
X97694Y-46827D02*
X97514Y-46827D01*
X97604Y-46827D02*
X97643Y-46512D01*
X97607Y-46557D01*
X97574Y-46587D01*
X97542Y-46602D01*
X97832Y-46797D02*
X97845Y-46812D01*
X97829Y-46827D01*
X97815Y-46812D01*
X97832Y-46797D01*
X97829Y-46827D01*
X98078Y-46512D02*
X98108Y-46512D01*
X98136Y-46527D01*
X98149Y-46542D01*
X98160Y-46572D01*
X98168Y-46632D01*
X98159Y-46707D01*
X98136Y-46767D01*
X98117Y-46797D01*
X98100Y-46812D01*
X98069Y-46827D01*
X98039Y-46827D01*
X98010Y-46812D01*
X97997Y-46797D01*
X97986Y-46767D01*
X97979Y-46707D01*
X97988Y-46632D01*
X98010Y-46572D01*
X98029Y-46542D01*
X98046Y-46527D01*
X98078Y-46512D01*
X98282Y-46797D02*
X98295Y-46812D01*
X98279Y-46827D01*
X98265Y-46812D01*
X98282Y-46797D01*
X98279Y-46827D01*
X98528Y-46512D02*
X98558Y-46512D01*
X98586Y-46527D01*
X98599Y-46542D01*
X98610Y-46572D01*
X98618Y-46632D01*
X98608Y-46707D01*
X98586Y-46767D01*
X98567Y-46797D01*
X98550Y-46812D01*
X98518Y-46827D01*
X98488Y-46827D01*
X98460Y-46812D01*
X98447Y-46797D01*
X98436Y-46767D01*
X98429Y-46707D01*
X98438Y-46632D01*
X98460Y-46572D01*
X98479Y-46542D01*
X98496Y-46527D01*
X98528Y-46512D01*
G54D11*
X94683Y-44403D02*
X94737Y-44421D01*
X94754Y-44440D01*
X94768Y-44478D01*
X94761Y-44534D01*
X94737Y-44571D01*
X94716Y-44590D01*
X94676Y-44609D01*
X94526Y-44609D01*
X94576Y-44215D01*
X94707Y-44215D01*
X94742Y-44234D01*
X94758Y-44253D01*
X94773Y-44290D01*
X94768Y-44328D01*
X94744Y-44365D01*
X94723Y-44384D01*
X94683Y-44403D01*
X94552Y-44403D01*
X95066Y-42965D02*
X95141Y-42965D01*
X95176Y-42984D01*
X95209Y-43021D01*
X95219Y-43096D01*
X95202Y-43228D01*
X95174Y-43303D01*
X95132Y-43340D01*
X95092Y-43359D01*
X95017Y-43359D01*
X94982Y-43340D01*
X94949Y-43303D01*
X94940Y-43228D01*
X94956Y-43096D01*
X94984Y-43021D01*
X95026Y-42984D01*
X95066Y-42965D01*
X94900Y-44946D02*
X95087Y-44946D01*
X94848Y-45059D02*
X95029Y-44665D01*
X95111Y-45059D01*
X94946Y-43853D02*
X95077Y-43853D01*
X95108Y-44059D02*
X94920Y-44059D01*
X94969Y-43665D01*
X95157Y-43665D01*
X94498Y-42834D02*
X94548Y-42440D01*
X94644Y-42721D01*
X94810Y-42440D01*
X94761Y-42834D01*
X94750Y-42046D02*
X94937Y-42046D01*
X94698Y-42159D02*
X94879Y-41765D01*
X94961Y-42159D01*
G54D13*
X98720Y-46000D02*
X98720Y-45000D01*
G54D14*
X97639Y-45115D02*
G75*
G03X97500Y-45500I460J-384D01*
G74*
G01*
X97500Y-45500D02*
G75*
G03X97651Y-45897I599J0D01*
G74*
G01*
X98699Y-45500D02*
G75*
G03X98555Y-45110I-599J0D01*
G74*
G01*
X98560Y-45884D02*
G75*
G03X98700Y-45500I-460J384D01*
G74*
G01*
X98587Y-45150D02*
G75*
G03X98100Y-44900I-487J-349D01*
G74*
G01*
X98100Y-44900D02*
G75*
G03X97620Y-45139I0J-600D01*
G74*
G01*
X98100Y-46099D02*
G75*
G03X98572Y-45868I0J599D01*
G74*
G01*
X97626Y-45868D02*
G75*
G03X98100Y-46100I473J368D01*
G74*
G01*
X98100Y-45250D02*
G75*
G03X97850Y-45500I0J-250D01*
G74*
G01*
X98100Y-45100D02*
G75*
G03X97700Y-45500I0J-400D01*
G74*
G01*
X98100Y-45750D02*
G75*
G03X98350Y-45500I0J250D01*
G74*
G01*
X98100Y-45900D02*
G75*
G03X98500Y-45500I0J400D01*
G74*
G01*
G54D13*
X98713Y-44986D02*
G75*
G03X98100Y-44700I-613J-513D01*
G74*
G01*
X98100Y-44701D02*
G75*
G03X97395Y-45123I0J-799D01*
G74*
G01*
X98101Y-46298D02*
G75*
G03X98710Y-46015I-1J798D01*
G74*
G01*
X97405Y-45897D02*
G75*
G03X98100Y-46300I694J397D01*
G74*
G01*
X97395Y-45120D02*
G75*
G03X97300Y-45500I704J-379D01*
G74*
G01*
X97300Y-45500D02*
G75*
G03X97418Y-45918I799J0D01*
G74*
G01*
G54D15*
X95500Y-41000D02*
X96200Y-41000D01*
X99800Y-41000D02*
X100500Y-41000D01*
X100500Y-41000D02*
X100500Y-41700D01*
X100500Y-45300D02*
X100500Y-46000D01*
X100500Y-46000D02*
X99800Y-46000D01*
X96200Y-46000D02*
X95500Y-46000D01*
X95500Y-46000D02*
X95500Y-45300D01*
X95500Y-41700D02*
X95500Y-41000D01*
M02*
