G04 (created by PCBNEW (2013-may-18)-stable) date Sat 21 Nov 2015 10:06:46 AM EST*
%MOIN*%
G04 Gerber Fmt 3.4, Leading zero omitted, Abs format*
%FSLAX34Y34*%
G01*
G70*
G90*
G04 APERTURE LIST*
%ADD10C,0.00590551*%
%ADD11C,0.0001*%
%ADD12C,0.09*%
%ADD13C,0.09*%
%ADD14C,0.065*%
%ADD15C,0.0590551*%
%ADD16R,0.0590551X0.0590551*%
%ADD17C,0.055*%
%ADD18R,0.035X0.055*%
%ADD19C,0.066*%
%ADD20C,0.035*%
%ADD21C,0.01*%
G04 APERTURE END LIST*
G54D10*
G54D11*
G36*
X94873Y-44358D02*
X94873Y-44939D01*
X94749Y-44939D01*
X94728Y-44938D01*
X94709Y-44933D01*
X94691Y-44925D01*
X94675Y-44915D01*
X94661Y-44903D01*
X94649Y-44888D01*
X94638Y-44872D01*
X94631Y-44854D01*
X94626Y-44835D01*
X94625Y-44815D01*
X94625Y-44483D01*
X94626Y-44463D01*
X94631Y-44444D01*
X94639Y-44427D01*
X94649Y-44411D01*
X94661Y-44397D01*
X94676Y-44384D01*
X94692Y-44374D01*
X94709Y-44366D01*
X94728Y-44360D01*
X94749Y-44358D01*
X94873Y-44358D01*
X94873Y-44358D01*
G37*
G36*
X95041Y-44107D02*
X94977Y-44257D01*
X94775Y-44257D01*
X94724Y-44257D01*
X94721Y-44257D01*
X94700Y-44258D01*
X94681Y-44261D01*
X94661Y-44266D01*
X94643Y-44272D01*
X94626Y-44281D01*
X94609Y-44291D01*
X94594Y-44302D01*
X94580Y-44315D01*
X94567Y-44329D01*
X94556Y-44345D01*
X94546Y-44361D01*
X94537Y-44378D01*
X94531Y-44397D01*
X94526Y-44416D01*
X94523Y-44436D01*
X94522Y-44456D01*
X94522Y-44841D01*
X94523Y-44862D01*
X94526Y-44881D01*
X94531Y-44901D01*
X94537Y-44919D01*
X94546Y-44936D01*
X94556Y-44953D01*
X94567Y-44968D01*
X94580Y-44982D01*
X94594Y-44995D01*
X94609Y-45007D01*
X94626Y-45017D01*
X94643Y-45025D01*
X94661Y-45032D01*
X94681Y-45037D01*
X94700Y-45040D01*
X94721Y-45041D01*
X94724Y-45041D01*
X94775Y-45041D01*
X94977Y-45041D01*
X94977Y-44257D01*
X95041Y-44107D01*
X95063Y-44110D01*
X95082Y-44117D01*
X95097Y-44129D01*
X95106Y-44143D01*
X95110Y-44160D01*
X95110Y-45138D01*
X95106Y-45154D01*
X95097Y-45169D01*
X95082Y-45180D01*
X95063Y-45187D01*
X95041Y-45190D01*
X94458Y-45190D01*
X94436Y-45187D01*
X94417Y-45180D01*
X94402Y-45169D01*
X94393Y-45154D01*
X94389Y-45138D01*
X94389Y-44160D01*
X94393Y-44143D01*
X94402Y-44129D01*
X94417Y-44117D01*
X94436Y-44110D01*
X94458Y-44107D01*
X95041Y-44107D01*
X95041Y-44107D01*
G37*
G36*
X101560Y-44256D02*
X101576Y-44261D01*
X101587Y-44276D01*
X101591Y-44298D01*
X101591Y-44320D01*
X101587Y-44342D01*
X101576Y-44357D01*
X101560Y-44362D01*
X101401Y-44362D01*
X101401Y-45004D01*
X101398Y-45019D01*
X101389Y-45032D01*
X101377Y-45040D01*
X101361Y-45043D01*
X101333Y-45043D01*
X101317Y-45040D01*
X101304Y-45032D01*
X101296Y-45019D01*
X101293Y-45004D01*
X101293Y-44362D01*
X101139Y-44362D01*
X101123Y-44357D01*
X101112Y-44342D01*
X101108Y-44320D01*
X101108Y-44298D01*
X101112Y-44276D01*
X101123Y-44261D01*
X101139Y-44256D01*
X101560Y-44256D01*
X101560Y-44256D01*
G37*
G36*
X100503Y-41949D02*
X100483Y-41949D01*
X100463Y-41951D01*
X100444Y-41955D01*
X100425Y-41959D01*
X100406Y-41965D01*
X100388Y-41972D01*
X100371Y-41980D01*
X100354Y-41989D01*
X100338Y-41999D01*
X100323Y-42010D01*
X100308Y-42022D01*
X100295Y-42035D01*
X100282Y-42049D01*
X100270Y-42063D01*
X100259Y-42079D01*
X100248Y-42095D01*
X100239Y-42112D01*
X100231Y-42129D01*
X100224Y-42147D01*
X100219Y-42165D01*
X100214Y-42184D01*
X100211Y-42204D01*
X100209Y-42224D01*
X100208Y-42244D01*
X100209Y-42264D01*
X100211Y-42284D01*
X100214Y-42303D01*
X100219Y-42322D01*
X100224Y-42341D01*
X100231Y-42359D01*
X100239Y-42376D01*
X100248Y-42393D01*
X100259Y-42409D01*
X100270Y-42424D01*
X100282Y-42439D01*
X100295Y-42453D01*
X100308Y-42465D01*
X100323Y-42478D01*
X100338Y-42489D01*
X100354Y-42499D01*
X100371Y-42508D01*
X100388Y-42516D01*
X100406Y-42523D01*
X100425Y-42528D01*
X100444Y-42533D01*
X100463Y-42536D01*
X100483Y-42538D01*
X100503Y-42539D01*
X100524Y-42538D01*
X100544Y-42536D01*
X100563Y-42533D01*
X100582Y-42528D01*
X100601Y-42522D01*
X100618Y-42515D01*
X100636Y-42507D01*
X100653Y-42497D01*
X100673Y-42487D01*
X101031Y-42244D01*
X100673Y-42003D01*
X100662Y-41996D01*
X100653Y-41990D01*
X100636Y-41981D01*
X100618Y-41973D01*
X100601Y-41966D01*
X100582Y-41960D01*
X100563Y-41955D01*
X100544Y-41951D01*
X100524Y-41949D01*
X100503Y-41949D01*
X100503Y-41949D01*
G37*
G36*
X95500Y-42548D02*
X95520Y-42548D01*
X95540Y-42546D01*
X95559Y-42542D01*
X95578Y-42538D01*
X95597Y-42532D01*
X95614Y-42525D01*
X95632Y-42517D01*
X95649Y-42508D01*
X95665Y-42498D01*
X95680Y-42487D01*
X95695Y-42475D01*
X95708Y-42462D01*
X95721Y-42448D01*
X95733Y-42434D01*
X95744Y-42418D01*
X95754Y-42402D01*
X95764Y-42385D01*
X95772Y-42368D01*
X95778Y-42350D01*
X95784Y-42332D01*
X95789Y-42313D01*
X95792Y-42293D01*
X95794Y-42273D01*
X95795Y-42253D01*
X95794Y-42233D01*
X95792Y-42213D01*
X95789Y-42194D01*
X95784Y-42175D01*
X95778Y-42156D01*
X95772Y-42138D01*
X95764Y-42121D01*
X95754Y-42104D01*
X95744Y-42088D01*
X95733Y-42073D01*
X95721Y-42058D01*
X95708Y-42044D01*
X95695Y-42032D01*
X95680Y-42020D01*
X95665Y-42008D01*
X95649Y-41998D01*
X95632Y-41989D01*
X95614Y-41981D01*
X95597Y-41974D01*
X95578Y-41969D01*
X95559Y-41964D01*
X95540Y-41961D01*
X95520Y-41959D01*
X95500Y-41958D01*
X95479Y-41959D01*
X95459Y-41961D01*
X95440Y-41964D01*
X95421Y-41969D01*
X95402Y-41975D01*
X95384Y-41982D01*
X95367Y-41990D01*
X95350Y-42000D01*
X95329Y-42010D01*
X94972Y-42253D01*
X95329Y-42495D01*
X95341Y-42501D01*
X95350Y-42507D01*
X95367Y-42516D01*
X95384Y-42524D01*
X95402Y-42531D01*
X95421Y-42537D01*
X95440Y-42542D01*
X95459Y-42546D01*
X95479Y-42548D01*
X95500Y-42548D01*
X95500Y-42548D01*
G37*
G36*
X99803Y-41297D02*
X99804Y-41317D01*
X99806Y-41337D01*
X99809Y-41356D01*
X99814Y-41375D01*
X99819Y-41394D01*
X99826Y-41412D01*
X99834Y-41429D01*
X99843Y-41446D01*
X99853Y-41462D01*
X99865Y-41477D01*
X99877Y-41492D01*
X99889Y-41506D01*
X99903Y-41518D01*
X99918Y-41530D01*
X99933Y-41542D01*
X99949Y-41552D01*
X99966Y-41561D01*
X99983Y-41569D01*
X100001Y-41576D01*
X100020Y-41581D01*
X100039Y-41586D01*
X100058Y-41589D01*
X100078Y-41591D01*
X100098Y-41592D01*
X100118Y-41591D01*
X100138Y-41589D01*
X100158Y-41586D01*
X100177Y-41581D01*
X100195Y-41576D01*
X100213Y-41569D01*
X100230Y-41561D01*
X100247Y-41552D01*
X100263Y-41542D01*
X100279Y-41530D01*
X100293Y-41518D01*
X100307Y-41506D01*
X100320Y-41492D01*
X100332Y-41477D01*
X100343Y-41462D01*
X100353Y-41446D01*
X100362Y-41429D01*
X100370Y-41412D01*
X100377Y-41394D01*
X100383Y-41375D01*
X100387Y-41356D01*
X100391Y-41337D01*
X100393Y-41317D01*
X100393Y-41297D01*
X100393Y-41276D01*
X100390Y-41257D01*
X100387Y-41237D01*
X100382Y-41218D01*
X100376Y-41200D01*
X100369Y-41182D01*
X100361Y-41164D01*
X100352Y-41148D01*
X100341Y-41127D01*
X100098Y-40769D01*
X99857Y-41127D01*
X99850Y-41138D01*
X99845Y-41148D01*
X99835Y-41164D01*
X99827Y-41182D01*
X99820Y-41200D01*
X99814Y-41218D01*
X99809Y-41237D01*
X99806Y-41256D01*
X99804Y-41276D01*
X99803Y-41297D01*
X99803Y-41297D01*
G37*
G36*
X97707Y-41297D02*
X97707Y-41317D01*
X97709Y-41337D01*
X97713Y-41356D01*
X97717Y-41375D01*
X97723Y-41394D01*
X97730Y-41412D01*
X97738Y-41429D01*
X97747Y-41446D01*
X97757Y-41462D01*
X97768Y-41477D01*
X97780Y-41492D01*
X97793Y-41506D01*
X97807Y-41518D01*
X97821Y-41530D01*
X97837Y-41542D01*
X97853Y-41552D01*
X97869Y-41561D01*
X97887Y-41569D01*
X97905Y-41576D01*
X97923Y-41581D01*
X97942Y-41586D01*
X97962Y-41589D01*
X97981Y-41591D01*
X98002Y-41592D01*
X98022Y-41591D01*
X98042Y-41589D01*
X98061Y-41586D01*
X98080Y-41581D01*
X98099Y-41576D01*
X98117Y-41569D01*
X98134Y-41561D01*
X98151Y-41552D01*
X98167Y-41542D01*
X98182Y-41530D01*
X98197Y-41518D01*
X98210Y-41506D01*
X98223Y-41492D01*
X98235Y-41477D01*
X98246Y-41462D01*
X98257Y-41446D01*
X98266Y-41429D01*
X98274Y-41412D01*
X98281Y-41394D01*
X98286Y-41375D01*
X98291Y-41356D01*
X98294Y-41337D01*
X98296Y-41317D01*
X98297Y-41297D01*
X98296Y-41276D01*
X98294Y-41257D01*
X98291Y-41237D01*
X98286Y-41218D01*
X98280Y-41200D01*
X98273Y-41182D01*
X98264Y-41164D01*
X98255Y-41148D01*
X98245Y-41127D01*
X98002Y-40769D01*
X97760Y-41127D01*
X97754Y-41138D01*
X97748Y-41148D01*
X97739Y-41164D01*
X97731Y-41182D01*
X97723Y-41200D01*
X97717Y-41218D01*
X97713Y-41237D01*
X97709Y-41256D01*
X97707Y-41276D01*
X97707Y-41297D01*
X97707Y-41297D01*
G37*
G36*
X100796Y-46497D02*
X100796Y-46477D01*
X100794Y-46457D01*
X100790Y-46438D01*
X100786Y-46419D01*
X100780Y-46400D01*
X100773Y-46383D01*
X100765Y-46365D01*
X100756Y-46348D01*
X100746Y-46332D01*
X100735Y-46317D01*
X100723Y-46302D01*
X100710Y-46289D01*
X100696Y-46276D01*
X100682Y-46264D01*
X100666Y-46253D01*
X100650Y-46243D01*
X100633Y-46234D01*
X100616Y-46225D01*
X100598Y-46219D01*
X100580Y-46213D01*
X100561Y-46208D01*
X100541Y-46205D01*
X100521Y-46203D01*
X100501Y-46202D01*
X100481Y-46203D01*
X100461Y-46205D01*
X100442Y-46208D01*
X100423Y-46213D01*
X100404Y-46219D01*
X100386Y-46225D01*
X100369Y-46234D01*
X100352Y-46243D01*
X100336Y-46253D01*
X100321Y-46264D01*
X100306Y-46276D01*
X100292Y-46289D01*
X100280Y-46302D01*
X100268Y-46317D01*
X100256Y-46332D01*
X100246Y-46348D01*
X100237Y-46365D01*
X100229Y-46383D01*
X100222Y-46400D01*
X100217Y-46419D01*
X100212Y-46438D01*
X100209Y-46457D01*
X100207Y-46477D01*
X100206Y-46497D01*
X100207Y-46518D01*
X100209Y-46538D01*
X100212Y-46557D01*
X100217Y-46576D01*
X100223Y-46595D01*
X100230Y-46613D01*
X100238Y-46630D01*
X100248Y-46647D01*
X100258Y-46668D01*
X100501Y-47025D01*
X100743Y-46668D01*
X100749Y-46656D01*
X100755Y-46647D01*
X100764Y-46630D01*
X100772Y-46613D01*
X100780Y-46595D01*
X100785Y-46576D01*
X100790Y-46557D01*
X100794Y-46538D01*
X100796Y-46518D01*
X100796Y-46497D01*
X100796Y-46497D01*
G37*
G36*
X96790Y-46497D02*
X96790Y-46477D01*
X96788Y-46457D01*
X96784Y-46438D01*
X96780Y-46419D01*
X96774Y-46400D01*
X96767Y-46383D01*
X96759Y-46365D01*
X96750Y-46348D01*
X96740Y-46332D01*
X96729Y-46317D01*
X96717Y-46302D01*
X96704Y-46289D01*
X96690Y-46276D01*
X96676Y-46264D01*
X96660Y-46253D01*
X96644Y-46243D01*
X96628Y-46234D01*
X96610Y-46225D01*
X96592Y-46219D01*
X96574Y-46213D01*
X96555Y-46208D01*
X96535Y-46205D01*
X96516Y-46203D01*
X96495Y-46202D01*
X96475Y-46203D01*
X96455Y-46205D01*
X96436Y-46208D01*
X96417Y-46213D01*
X96398Y-46219D01*
X96380Y-46225D01*
X96363Y-46234D01*
X96346Y-46243D01*
X96330Y-46253D01*
X96315Y-46264D01*
X96300Y-46276D01*
X96287Y-46289D01*
X96274Y-46302D01*
X96262Y-46317D01*
X96251Y-46332D01*
X96240Y-46348D01*
X96231Y-46365D01*
X96223Y-46383D01*
X96216Y-46400D01*
X96211Y-46419D01*
X96206Y-46438D01*
X96203Y-46457D01*
X96201Y-46477D01*
X96200Y-46497D01*
X96201Y-46518D01*
X96203Y-46538D01*
X96206Y-46557D01*
X96211Y-46576D01*
X96217Y-46595D01*
X96224Y-46613D01*
X96233Y-46630D01*
X96242Y-46647D01*
X96252Y-46668D01*
X96495Y-47025D01*
X96737Y-46668D01*
X96743Y-46656D01*
X96749Y-46647D01*
X96758Y-46630D01*
X96766Y-46613D01*
X96774Y-46595D01*
X96780Y-46576D01*
X96784Y-46557D01*
X96788Y-46538D01*
X96790Y-46518D01*
X96790Y-46497D01*
X96790Y-46497D01*
G37*
G36*
X100205Y-45206D02*
X100205Y-45797D01*
X100795Y-45797D01*
X100916Y-45651D01*
X101035Y-45501D01*
X100916Y-45356D01*
X100795Y-45206D01*
X100205Y-45206D01*
X100205Y-45206D01*
G37*
G36*
X95798Y-45797D02*
X95798Y-45206D01*
X95208Y-45206D01*
X95086Y-45352D01*
X94968Y-45501D01*
X95086Y-45647D01*
X95208Y-45797D01*
X95798Y-45797D01*
X95798Y-45797D01*
G37*
G36*
X95698Y-41596D02*
X96289Y-41596D01*
X96289Y-41005D01*
X96143Y-40884D01*
X95994Y-40766D01*
X95848Y-40884D01*
X95698Y-41005D01*
X95698Y-41596D01*
X95698Y-41596D01*
G37*
G36*
X95797Y-46199D02*
X95206Y-46199D01*
X95206Y-46789D01*
X95352Y-46911D01*
X95501Y-47029D01*
X95647Y-46911D01*
X95797Y-46789D01*
X95797Y-46199D01*
X95797Y-46199D01*
G37*
G36*
X99793Y-46199D02*
X99202Y-46199D01*
X99202Y-46789D01*
X99348Y-46911D01*
X99498Y-47029D01*
X99643Y-46911D01*
X99793Y-46789D01*
X99793Y-46199D01*
X99793Y-46199D01*
G37*
G54D12*
X99000Y-41500D02*
X98984Y-41728D01*
G54D13*
X97015Y-41925D03*
X96500Y-42500D03*
G54D14*
X96000Y-44500D03*
X100000Y-44500D03*
G54D15*
X98000Y-41300D03*
G54D16*
X96000Y-41300D03*
X95500Y-45500D03*
G54D15*
X95500Y-42250D03*
G54D16*
X95500Y-46500D03*
G54D15*
X100100Y-41300D03*
X100500Y-42250D03*
G54D16*
X100500Y-45500D03*
G54D17*
X99500Y-45500D03*
X96500Y-45500D03*
G54D15*
X96500Y-46500D03*
G54D16*
X99500Y-46500D03*
G54D18*
X97625Y-46450D03*
X98375Y-46450D03*
X97625Y-44700D03*
X98375Y-44700D03*
G54D19*
X97500Y-45500D03*
X98500Y-45500D03*
G54D15*
X100500Y-46500D03*
G54D20*
X99500Y-44000D03*
X98950Y-44600D03*
X96950Y-44000D03*
X99050Y-44000D03*
X97100Y-44600D03*
G54D21*
X100000Y-45300D02*
X100000Y-46000D01*
X99500Y-44800D02*
X100000Y-45300D01*
X99500Y-44000D02*
X99500Y-44000D01*
X99500Y-44000D02*
X99500Y-44800D01*
X100000Y-46000D02*
X99500Y-46500D01*
X98500Y-45500D02*
X99500Y-46500D01*
X98375Y-44700D02*
X98850Y-44700D01*
X98850Y-44700D02*
X98950Y-44600D01*
X96010Y-45260D02*
X96010Y-45110D01*
X96500Y-46490D02*
X96010Y-46000D01*
X96010Y-46000D02*
X96010Y-45260D01*
X96100Y-42500D02*
X95450Y-43150D01*
X95450Y-43150D02*
X95450Y-43300D01*
X95450Y-44700D02*
X95450Y-43300D01*
X96500Y-42500D02*
X96100Y-42500D01*
X95450Y-44850D02*
X95450Y-44700D01*
X95600Y-45000D02*
X95450Y-44850D01*
X95900Y-45000D02*
X95600Y-45000D01*
X96010Y-45110D02*
X95900Y-45000D01*
X98000Y-41300D02*
X97640Y-41300D01*
X97640Y-41300D02*
X97015Y-41925D01*
X96250Y-42500D02*
X96500Y-42500D01*
X99050Y-44000D02*
X99050Y-44200D01*
X99300Y-45300D02*
X99500Y-45500D01*
X99300Y-44450D02*
X99300Y-45300D01*
X99050Y-44200D02*
X99300Y-44450D01*
X99050Y-44000D02*
X99050Y-43100D01*
X99900Y-42250D02*
X100500Y-42250D01*
X99050Y-43100D02*
X99900Y-42250D01*
X97250Y-46000D02*
X96970Y-45720D01*
X98375Y-46375D02*
X98000Y-46000D01*
X98000Y-46000D02*
X97250Y-46000D01*
X96750Y-44200D02*
X96950Y-44000D01*
X96750Y-44850D02*
X96750Y-44200D01*
X98375Y-46375D02*
X98375Y-46450D01*
X96970Y-45070D02*
X96750Y-44850D01*
X96970Y-45720D02*
X96970Y-45070D01*
X97200Y-44700D02*
X97100Y-44600D01*
X97200Y-44700D02*
X97625Y-44700D01*
X97625Y-44700D02*
X97625Y-45375D01*
X97625Y-45375D02*
X97500Y-45500D01*
X97650Y-42350D02*
X98256Y-42350D01*
X96750Y-43600D02*
X96549Y-43800D01*
X96549Y-43800D02*
X96549Y-45450D01*
X96500Y-45500D02*
X96549Y-45450D01*
X97650Y-42350D02*
X96750Y-43250D01*
X96750Y-43250D02*
X96750Y-43600D01*
X98256Y-42350D02*
X98992Y-41614D01*
X96500Y-45500D02*
X96500Y-45650D01*
X97575Y-46500D02*
X97625Y-46450D01*
X97350Y-46500D02*
X97575Y-46500D01*
X96500Y-45650D02*
X97350Y-46500D01*
X96500Y-45500D02*
X96500Y-45474D01*
G54D10*
G36*
X95055Y-46000D02*
X95019Y-46000D01*
X95019Y-45963D01*
X95055Y-46000D01*
X95055Y-46000D01*
G37*
G54D21*
X95055Y-46000D02*
X95019Y-46000D01*
X95019Y-45963D01*
X95055Y-46000D01*
G54D10*
G36*
X95479Y-41704D02*
X95392Y-41704D01*
X95191Y-41787D01*
X95038Y-41940D01*
X95014Y-41996D01*
X94750Y-42173D01*
X94750Y-42326D01*
X95014Y-42503D01*
X95037Y-42558D01*
X95190Y-42711D01*
X95383Y-42792D01*
X95237Y-42937D01*
X95172Y-43035D01*
X95150Y-43150D01*
X95150Y-43300D01*
X95150Y-43900D01*
X94946Y-43900D01*
X94985Y-43841D01*
X94986Y-43840D01*
X95026Y-43743D01*
X95064Y-43552D01*
X95064Y-43552D01*
X95064Y-43552D01*
X95064Y-43552D01*
X95064Y-43500D01*
X95064Y-43447D01*
X95064Y-43447D01*
X95064Y-43447D01*
X95064Y-43447D01*
X95026Y-43256D01*
X94986Y-43159D01*
X94985Y-43158D01*
X94878Y-42997D01*
X94877Y-42996D01*
X94803Y-42921D01*
X94641Y-42814D01*
X94641Y-42813D01*
X94569Y-42784D01*
X94569Y-41811D01*
X94621Y-41790D01*
X94767Y-41692D01*
X94842Y-41618D01*
X94842Y-41617D01*
X94939Y-41472D01*
X94939Y-41472D01*
X94980Y-41375D01*
X95014Y-41202D01*
X95014Y-41202D01*
X95038Y-41082D01*
X95075Y-41026D01*
X95133Y-40988D01*
X95225Y-40969D01*
X95454Y-40969D01*
X95454Y-41054D01*
X95454Y-41644D01*
X95479Y-41704D01*
X95479Y-41704D01*
G37*
G54D21*
X95479Y-41704D02*
X95392Y-41704D01*
X95191Y-41787D01*
X95038Y-41940D01*
X95014Y-41996D01*
X94750Y-42173D01*
X94750Y-42326D01*
X95014Y-42503D01*
X95037Y-42558D01*
X95190Y-42711D01*
X95383Y-42792D01*
X95237Y-42937D01*
X95172Y-43035D01*
X95150Y-43150D01*
X95150Y-43300D01*
X95150Y-43900D01*
X94946Y-43900D01*
X94985Y-43841D01*
X94986Y-43840D01*
X95026Y-43743D01*
X95064Y-43552D01*
X95064Y-43552D01*
X95064Y-43552D01*
X95064Y-43552D01*
X95064Y-43500D01*
X95064Y-43447D01*
X95064Y-43447D01*
X95064Y-43447D01*
X95064Y-43447D01*
X95026Y-43256D01*
X94986Y-43159D01*
X94985Y-43158D01*
X94878Y-42997D01*
X94877Y-42996D01*
X94803Y-42921D01*
X94641Y-42814D01*
X94641Y-42813D01*
X94569Y-42784D01*
X94569Y-41811D01*
X94621Y-41790D01*
X94767Y-41692D01*
X94842Y-41618D01*
X94842Y-41617D01*
X94939Y-41472D01*
X94939Y-41472D01*
X94980Y-41375D01*
X95014Y-41202D01*
X95014Y-41202D01*
X95038Y-41082D01*
X95075Y-41026D01*
X95133Y-40988D01*
X95225Y-40969D01*
X95454Y-40969D01*
X95454Y-41054D01*
X95454Y-41644D01*
X95479Y-41704D01*
G54D10*
G36*
X96059Y-46830D02*
X96045Y-46830D01*
X96045Y-46816D01*
X96059Y-46830D01*
X96059Y-46830D01*
G37*
G54D21*
X96059Y-46830D02*
X96045Y-46830D01*
X96045Y-46816D01*
X96059Y-46830D01*
G54D10*
G36*
X96251Y-41845D02*
X96104Y-41906D01*
X95993Y-42016D01*
X95962Y-41941D01*
X95866Y-41845D01*
X96251Y-41845D01*
X96251Y-41845D01*
G37*
G54D21*
X96251Y-41845D02*
X96104Y-41906D01*
X95993Y-42016D01*
X95962Y-41941D01*
X95866Y-41845D01*
X96251Y-41845D01*
G54D10*
G36*
X97223Y-46830D02*
X96940Y-46830D01*
X96961Y-46809D01*
X97042Y-46616D01*
X97137Y-46712D01*
X97199Y-46753D01*
X97199Y-46774D01*
X97223Y-46830D01*
X97223Y-46830D01*
G37*
G54D21*
X97223Y-46830D02*
X96940Y-46830D01*
X96961Y-46809D01*
X97042Y-46616D01*
X97137Y-46712D01*
X97199Y-46753D01*
X97199Y-46774D01*
X97223Y-46830D01*
G54D10*
G36*
X97559Y-40969D02*
X97538Y-40990D01*
X97524Y-41024D01*
X97428Y-41087D01*
X97251Y-41265D01*
X97155Y-41225D01*
X96877Y-41225D01*
X96619Y-41331D01*
X96545Y-41405D01*
X96545Y-40969D01*
X97559Y-40969D01*
X97559Y-40969D01*
G37*
G54D21*
X97559Y-40969D02*
X97538Y-40990D01*
X97524Y-41024D01*
X97428Y-41087D01*
X97251Y-41265D01*
X97155Y-41225D01*
X96877Y-41225D01*
X96619Y-41331D01*
X96545Y-41405D01*
X96545Y-40969D01*
X97559Y-40969D01*
G54D10*
G36*
X98025Y-45154D02*
X98008Y-45171D01*
X98000Y-45191D01*
X97991Y-45171D01*
X97974Y-45154D01*
X98000Y-45128D01*
X98025Y-45154D01*
X98025Y-45154D01*
G37*
G54D21*
X98025Y-45154D02*
X98008Y-45171D01*
X98000Y-45191D01*
X97991Y-45171D01*
X97974Y-45154D01*
X98000Y-45128D01*
X98025Y-45154D01*
G54D10*
G36*
X98307Y-41874D02*
X98132Y-42050D01*
X97715Y-42050D01*
X97715Y-41793D01*
X97719Y-41800D01*
X97782Y-41800D01*
X97891Y-41845D01*
X98107Y-41845D01*
X98217Y-41800D01*
X98280Y-41800D01*
X98294Y-41772D01*
X98307Y-41874D01*
X98307Y-41874D01*
G37*
G54D21*
X98307Y-41874D02*
X98132Y-42050D01*
X97715Y-42050D01*
X97715Y-41793D01*
X97719Y-41800D01*
X97782Y-41800D01*
X97891Y-41845D01*
X98107Y-41845D01*
X98217Y-41800D01*
X98280Y-41800D01*
X98294Y-41772D01*
X98307Y-41874D01*
G54D10*
G36*
X98531Y-40969D02*
X98480Y-41035D01*
X98462Y-40991D01*
X98440Y-40969D01*
X98531Y-40969D01*
X98531Y-40969D01*
G37*
G54D21*
X98531Y-40969D02*
X98480Y-41035D01*
X98462Y-40991D01*
X98440Y-40969D01*
X98531Y-40969D01*
G54D10*
G36*
X98954Y-46830D02*
X98776Y-46830D01*
X98799Y-46774D01*
X98800Y-46675D01*
X98800Y-46224D01*
X98954Y-46378D01*
X98954Y-46830D01*
X98954Y-46830D01*
G37*
G54D21*
X98954Y-46830D02*
X98776Y-46830D01*
X98799Y-46774D01*
X98800Y-46675D01*
X98800Y-46224D01*
X98954Y-46378D01*
X98954Y-46830D01*
G54D10*
G36*
X99000Y-45191D02*
X98991Y-45171D01*
X98831Y-45010D01*
X98865Y-45024D01*
X99000Y-45025D01*
X99000Y-45191D01*
X99000Y-45191D01*
G37*
G54D21*
X99000Y-45191D02*
X98991Y-45171D01*
X98831Y-45010D01*
X98865Y-45024D01*
X99000Y-45025D01*
X99000Y-45191D01*
G54D10*
G36*
X99659Y-40969D02*
X99638Y-40990D01*
X99584Y-41120D01*
X99529Y-41024D01*
X99458Y-40969D01*
X99659Y-40969D01*
X99659Y-40969D01*
G37*
G54D21*
X99659Y-40969D02*
X99638Y-40990D01*
X99584Y-41120D01*
X99529Y-41024D01*
X99458Y-40969D01*
X99659Y-40969D01*
G54D10*
G36*
X100059Y-46830D02*
X100045Y-46830D01*
X100045Y-46816D01*
X100059Y-46830D01*
X100059Y-46830D01*
G37*
G54D21*
X100059Y-46830D02*
X100045Y-46830D01*
X100045Y-46816D01*
X100059Y-46830D01*
G54D10*
G36*
X100133Y-41845D02*
X100038Y-41940D01*
X100034Y-41950D01*
X99900Y-41950D01*
X99785Y-41972D01*
X99687Y-42037D01*
X98844Y-42881D01*
X98587Y-42623D01*
X98580Y-42620D01*
X98579Y-42617D01*
X98458Y-42568D01*
X98468Y-42562D01*
X98664Y-42365D01*
X98670Y-42370D01*
X98934Y-42442D01*
X99205Y-42408D01*
X99442Y-42272D01*
X99609Y-42056D01*
X99681Y-41793D01*
X99690Y-41661D01*
X99790Y-41761D01*
X99802Y-41766D01*
X99819Y-41800D01*
X99882Y-41800D01*
X99991Y-41845D01*
X100133Y-41845D01*
X100133Y-41845D01*
G37*
G54D21*
X100133Y-41845D02*
X100038Y-41940D01*
X100034Y-41950D01*
X99900Y-41950D01*
X99785Y-41972D01*
X99687Y-42037D01*
X98844Y-42881D01*
X98587Y-42623D01*
X98580Y-42620D01*
X98579Y-42617D01*
X98458Y-42568D01*
X98468Y-42562D01*
X98664Y-42365D01*
X98670Y-42370D01*
X98934Y-42442D01*
X99205Y-42408D01*
X99442Y-42272D01*
X99609Y-42056D01*
X99681Y-41793D01*
X99690Y-41661D01*
X99790Y-41761D01*
X99802Y-41766D01*
X99819Y-41800D01*
X99882Y-41800D01*
X99991Y-41845D01*
X100133Y-41845D01*
G54D10*
G36*
X100980Y-46234D02*
X100962Y-46191D01*
X100816Y-46045D01*
X100844Y-46045D01*
X100936Y-46007D01*
X100980Y-45963D01*
X100980Y-46234D01*
X100980Y-46234D01*
G37*
G54D21*
X100980Y-46234D02*
X100962Y-46191D01*
X100816Y-46045D01*
X100844Y-46045D01*
X100936Y-46007D01*
X100980Y-45963D01*
X100980Y-46234D01*
G54D10*
G36*
X101189Y-45250D02*
X101157Y-45282D01*
X101140Y-45306D01*
X101091Y-45250D01*
X101189Y-45250D01*
X101189Y-45250D01*
G37*
G54D21*
X101189Y-45250D02*
X101157Y-45282D01*
X101140Y-45306D01*
X101091Y-45250D01*
X101189Y-45250D01*
G54D10*
G36*
X101430Y-42784D02*
X101359Y-42813D01*
X101358Y-42814D01*
X101197Y-42921D01*
X101196Y-42922D01*
X101121Y-42996D01*
X101014Y-43158D01*
X101013Y-43158D01*
X100973Y-43256D01*
X100935Y-43447D01*
X100935Y-43500D01*
X100935Y-43552D01*
X100973Y-43743D01*
X101013Y-43841D01*
X101014Y-43841D01*
X101121Y-44003D01*
X101168Y-44050D01*
X100900Y-44050D01*
X100900Y-44977D01*
X100845Y-44954D01*
X100745Y-44954D01*
X100358Y-44954D01*
X100487Y-44826D01*
X100574Y-44614D01*
X100575Y-44386D01*
X100487Y-44174D01*
X100330Y-44017D01*
X100342Y-44012D01*
X100512Y-43842D01*
X100520Y-43822D01*
X100526Y-43820D01*
X100563Y-43719D01*
X100604Y-43620D01*
X100604Y-43607D01*
X100609Y-43594D01*
X100604Y-43487D01*
X100604Y-43380D01*
X100599Y-43367D01*
X100599Y-43354D01*
X100526Y-43179D01*
X100520Y-43177D01*
X100512Y-43157D01*
X100342Y-42987D01*
X100322Y-42979D01*
X100320Y-42973D01*
X100219Y-42936D01*
X100120Y-42895D01*
X100107Y-42895D01*
X100094Y-42890D01*
X99987Y-42895D01*
X99880Y-42895D01*
X99867Y-42900D01*
X99854Y-42900D01*
X99679Y-42973D01*
X99677Y-42979D01*
X99657Y-42987D01*
X99487Y-43157D01*
X99479Y-43177D01*
X99473Y-43179D01*
X99436Y-43280D01*
X99395Y-43379D01*
X99395Y-43392D01*
X99390Y-43405D01*
X99395Y-43512D01*
X99395Y-43583D01*
X99350Y-43602D01*
X99350Y-43224D01*
X100024Y-42550D01*
X100033Y-42550D01*
X100037Y-42558D01*
X100190Y-42711D01*
X100391Y-42795D01*
X100607Y-42795D01*
X100808Y-42712D01*
X100961Y-42559D01*
X100985Y-42503D01*
X101250Y-42326D01*
X101250Y-42173D01*
X100985Y-41996D01*
X100962Y-41941D01*
X100809Y-41788D01*
X100608Y-41704D01*
X100466Y-41704D01*
X100561Y-41609D01*
X100645Y-41408D01*
X100645Y-41271D01*
X100657Y-41247D01*
X100645Y-41228D01*
X100645Y-41192D01*
X100562Y-40991D01*
X100540Y-40969D01*
X100723Y-40969D01*
X100835Y-40991D01*
X100908Y-41040D01*
X100957Y-41114D01*
X100985Y-41252D01*
X100985Y-41253D01*
X101019Y-41423D01*
X101019Y-41424D01*
X101059Y-41521D01*
X101157Y-41667D01*
X101231Y-41742D01*
X101232Y-41742D01*
X101377Y-41839D01*
X101377Y-41839D01*
X101430Y-41861D01*
X101430Y-42784D01*
X101430Y-42784D01*
G37*
G54D21*
X101430Y-42784D02*
X101359Y-42813D01*
X101358Y-42814D01*
X101197Y-42921D01*
X101196Y-42922D01*
X101121Y-42996D01*
X101014Y-43158D01*
X101013Y-43158D01*
X100973Y-43256D01*
X100935Y-43447D01*
X100935Y-43500D01*
X100935Y-43552D01*
X100973Y-43743D01*
X101013Y-43841D01*
X101014Y-43841D01*
X101121Y-44003D01*
X101168Y-44050D01*
X100900Y-44050D01*
X100900Y-44977D01*
X100845Y-44954D01*
X100745Y-44954D01*
X100358Y-44954D01*
X100487Y-44826D01*
X100574Y-44614D01*
X100575Y-44386D01*
X100487Y-44174D01*
X100330Y-44017D01*
X100342Y-44012D01*
X100512Y-43842D01*
X100520Y-43822D01*
X100526Y-43820D01*
X100563Y-43719D01*
X100604Y-43620D01*
X100604Y-43607D01*
X100609Y-43594D01*
X100604Y-43487D01*
X100604Y-43380D01*
X100599Y-43367D01*
X100599Y-43354D01*
X100526Y-43179D01*
X100520Y-43177D01*
X100512Y-43157D01*
X100342Y-42987D01*
X100322Y-42979D01*
X100320Y-42973D01*
X100219Y-42936D01*
X100120Y-42895D01*
X100107Y-42895D01*
X100094Y-42890D01*
X99987Y-42895D01*
X99880Y-42895D01*
X99867Y-42900D01*
X99854Y-42900D01*
X99679Y-42973D01*
X99677Y-42979D01*
X99657Y-42987D01*
X99487Y-43157D01*
X99479Y-43177D01*
X99473Y-43179D01*
X99436Y-43280D01*
X99395Y-43379D01*
X99395Y-43392D01*
X99390Y-43405D01*
X99395Y-43512D01*
X99395Y-43583D01*
X99350Y-43602D01*
X99350Y-43224D01*
X100024Y-42550D01*
X100033Y-42550D01*
X100037Y-42558D01*
X100190Y-42711D01*
X100391Y-42795D01*
X100607Y-42795D01*
X100808Y-42712D01*
X100961Y-42559D01*
X100985Y-42503D01*
X101250Y-42326D01*
X101250Y-42173D01*
X100985Y-41996D01*
X100962Y-41941D01*
X100809Y-41788D01*
X100608Y-41704D01*
X100466Y-41704D01*
X100561Y-41609D01*
X100645Y-41408D01*
X100645Y-41271D01*
X100657Y-41247D01*
X100645Y-41228D01*
X100645Y-41192D01*
X100562Y-40991D01*
X100540Y-40969D01*
X100723Y-40969D01*
X100835Y-40991D01*
X100908Y-41040D01*
X100957Y-41114D01*
X100985Y-41252D01*
X100985Y-41253D01*
X101019Y-41423D01*
X101019Y-41424D01*
X101059Y-41521D01*
X101157Y-41667D01*
X101231Y-41742D01*
X101232Y-41742D01*
X101377Y-41839D01*
X101377Y-41839D01*
X101430Y-41861D01*
X101430Y-42784D01*
M02*
