G04 (created by PCBNEW (2013-may-18)-stable) date Sun 22 Nov 2015 10:33:44 PM EST*
%MOIN*%
G04 Gerber Fmt 3.4, Leading zero omitted, Abs format*
%FSLAX34Y34*%
G01*
G70*
G90*
G04 APERTURE LIST*
%ADD10C,0.00590551*%
%ADD11C,0.0001*%
%ADD12C,0.09*%
%ADD13C,0.09*%
%ADD14C,0.065*%
%ADD15C,0.0590551*%
%ADD16R,0.0590551X0.0590551*%
%ADD17C,0.055*%
%ADD18C,0.066*%
%ADD19C,0.035*%
%ADD20C,0.01*%
G04 APERTURE END LIST*
G54D10*
G54D11*
G36*
X100653Y-44317D02*
X100650Y-44337D01*
X100641Y-44354D01*
X100627Y-44368D01*
X100610Y-44377D01*
X100590Y-44380D01*
X100570Y-44377D01*
X100553Y-44368D01*
X100539Y-44354D01*
X100530Y-44337D01*
X100527Y-44317D01*
X100530Y-44297D01*
X100539Y-44280D01*
X100553Y-44266D01*
X100570Y-44257D01*
X100590Y-44254D01*
X100610Y-44257D01*
X100627Y-44266D01*
X100641Y-44280D01*
X100650Y-44297D01*
X100653Y-44317D01*
X100653Y-44317D01*
G37*
G36*
X100653Y-44695D02*
X100650Y-44715D01*
X100641Y-44732D01*
X100627Y-44746D01*
X100610Y-44755D01*
X100590Y-44758D01*
X100570Y-44755D01*
X100553Y-44746D01*
X100539Y-44732D01*
X100530Y-44715D01*
X100527Y-44695D01*
X100530Y-44675D01*
X100539Y-44658D01*
X100553Y-44644D01*
X100570Y-44635D01*
X100590Y-44632D01*
X100610Y-44635D01*
X100627Y-44644D01*
X100641Y-44658D01*
X100650Y-44675D01*
X100653Y-44695D01*
X100653Y-44695D01*
G37*
G36*
X100842Y-44317D02*
X100839Y-44337D01*
X100830Y-44354D01*
X100816Y-44368D01*
X100799Y-44377D01*
X100779Y-44380D01*
X100759Y-44377D01*
X100742Y-44368D01*
X100728Y-44354D01*
X100719Y-44337D01*
X100716Y-44317D01*
X100719Y-44297D01*
X100728Y-44280D01*
X100742Y-44266D01*
X100759Y-44257D01*
X100779Y-44254D01*
X100799Y-44257D01*
X100816Y-44266D01*
X100830Y-44280D01*
X100839Y-44297D01*
X100842Y-44317D01*
X100842Y-44317D01*
G37*
G36*
X101094Y-44506D02*
X101091Y-44526D01*
X101082Y-44543D01*
X101068Y-44557D01*
X101051Y-44566D01*
X101031Y-44569D01*
X101011Y-44566D01*
X100994Y-44557D01*
X100980Y-44543D01*
X100971Y-44526D01*
X100968Y-44506D01*
X100971Y-44486D01*
X100980Y-44469D01*
X100994Y-44455D01*
X101011Y-44446D01*
X101031Y-44443D01*
X101051Y-44446D01*
X101068Y-44455D01*
X101082Y-44469D01*
X101091Y-44486D01*
X101094Y-44506D01*
X101094Y-44506D01*
G37*
G36*
X101094Y-44695D02*
X101091Y-44715D01*
X101082Y-44732D01*
X101068Y-44746D01*
X101051Y-44755D01*
X101031Y-44758D01*
X101011Y-44755D01*
X100994Y-44746D01*
X100980Y-44732D01*
X100971Y-44715D01*
X100968Y-44695D01*
X100971Y-44675D01*
X100980Y-44658D01*
X100994Y-44644D01*
X101011Y-44635D01*
X101031Y-44632D01*
X101051Y-44635D01*
X101068Y-44644D01*
X101082Y-44658D01*
X101091Y-44675D01*
X101094Y-44695D01*
X101094Y-44695D01*
G37*
G36*
X101283Y-44317D02*
X101280Y-44337D01*
X101271Y-44354D01*
X101257Y-44368D01*
X101240Y-44377D01*
X101220Y-44380D01*
X101200Y-44377D01*
X101183Y-44368D01*
X101169Y-44354D01*
X101160Y-44337D01*
X101157Y-44317D01*
X101160Y-44297D01*
X101169Y-44280D01*
X101183Y-44266D01*
X101200Y-44257D01*
X101220Y-44254D01*
X101240Y-44257D01*
X101257Y-44266D01*
X101271Y-44280D01*
X101280Y-44297D01*
X101283Y-44317D01*
X101283Y-44317D01*
G37*
G36*
X101283Y-44506D02*
X101280Y-44526D01*
X101271Y-44543D01*
X101257Y-44557D01*
X101240Y-44566D01*
X101220Y-44569D01*
X101200Y-44566D01*
X101183Y-44557D01*
X101169Y-44543D01*
X101160Y-44526D01*
X101157Y-44506D01*
X101160Y-44486D01*
X101169Y-44469D01*
X101183Y-44455D01*
X101200Y-44446D01*
X101220Y-44443D01*
X101240Y-44446D01*
X101257Y-44455D01*
X101271Y-44469D01*
X101280Y-44486D01*
X101283Y-44506D01*
X101283Y-44506D01*
G37*
G36*
X101535Y-44317D02*
X101532Y-44337D01*
X101523Y-44354D01*
X101509Y-44368D01*
X101492Y-44377D01*
X101472Y-44380D01*
X101452Y-44377D01*
X101435Y-44368D01*
X101421Y-44354D01*
X101412Y-44337D01*
X101409Y-44317D01*
X101412Y-44297D01*
X101421Y-44280D01*
X101435Y-44266D01*
X101452Y-44257D01*
X101472Y-44254D01*
X101492Y-44257D01*
X101509Y-44266D01*
X101523Y-44280D01*
X101532Y-44297D01*
X101535Y-44317D01*
X101535Y-44317D01*
G37*
G36*
X101535Y-44506D02*
X101532Y-44526D01*
X101523Y-44543D01*
X101509Y-44557D01*
X101492Y-44566D01*
X101472Y-44569D01*
X101452Y-44566D01*
X101435Y-44557D01*
X101421Y-44543D01*
X101412Y-44526D01*
X101409Y-44506D01*
X101412Y-44486D01*
X101421Y-44469D01*
X101435Y-44455D01*
X101452Y-44446D01*
X101472Y-44443D01*
X101492Y-44446D01*
X101509Y-44455D01*
X101523Y-44469D01*
X101532Y-44486D01*
X101535Y-44506D01*
X101535Y-44506D01*
G37*
G36*
X101535Y-44695D02*
X101532Y-44715D01*
X101523Y-44732D01*
X101509Y-44746D01*
X101492Y-44755D01*
X101472Y-44758D01*
X101452Y-44755D01*
X101435Y-44746D01*
X101421Y-44732D01*
X101412Y-44715D01*
X101409Y-44695D01*
X101412Y-44675D01*
X101421Y-44658D01*
X101435Y-44644D01*
X101452Y-44635D01*
X101472Y-44632D01*
X101492Y-44635D01*
X101509Y-44644D01*
X101523Y-44658D01*
X101532Y-44675D01*
X101535Y-44695D01*
X101535Y-44695D01*
G37*
G54D12*
X99000Y-41500D02*
X98984Y-41728D01*
G54D13*
X97015Y-41925D03*
X96500Y-42500D03*
G54D14*
X96000Y-44500D03*
X100000Y-44500D03*
G54D15*
X98000Y-41300D03*
G54D16*
X96000Y-41300D03*
X95500Y-45500D03*
G54D15*
X95500Y-42250D03*
G54D16*
X95500Y-46500D03*
G54D15*
X100100Y-41300D03*
X100500Y-42250D03*
G54D16*
X100500Y-45500D03*
G54D17*
X99500Y-45500D03*
X96500Y-45500D03*
G54D15*
X96500Y-46500D03*
G54D16*
X99500Y-46500D03*
G54D18*
X97500Y-45500D03*
X98500Y-45500D03*
G54D15*
X100500Y-46500D03*
G54D19*
X99500Y-44000D03*
X98950Y-44600D03*
X96950Y-44000D03*
X99050Y-44000D03*
X97100Y-44600D03*
G54D20*
X99150Y-42850D02*
X98850Y-42850D01*
X99350Y-43050D02*
X99150Y-42850D01*
X99500Y-44000D02*
X99350Y-43850D01*
X97300Y-41300D02*
X97750Y-41750D01*
X96000Y-41300D02*
X97300Y-41300D01*
X97750Y-41750D02*
X98850Y-42850D01*
X99350Y-43850D02*
X99350Y-43050D01*
X95500Y-46500D02*
X95650Y-46500D01*
X98000Y-46000D02*
X98500Y-45500D01*
X96150Y-46000D02*
X98000Y-46000D01*
X95650Y-46500D02*
X96150Y-46000D01*
X100000Y-44500D02*
X100000Y-45000D01*
X100000Y-45000D02*
X100500Y-45500D01*
X96300Y-44950D02*
X98600Y-44950D01*
X95750Y-45500D02*
X96300Y-44950D01*
X95500Y-45500D02*
X95750Y-45500D01*
X98600Y-44950D02*
X98950Y-44600D01*
X100000Y-44500D02*
X99050Y-44500D01*
X99050Y-44500D02*
X98950Y-44600D01*
X99000Y-46000D02*
X98700Y-46300D01*
X100000Y-46000D02*
X99000Y-46000D01*
X100500Y-46500D02*
X100000Y-46000D01*
X96700Y-46300D02*
X96500Y-46500D01*
X98700Y-46300D02*
X96700Y-46300D01*
X98000Y-41300D02*
X98000Y-41700D01*
X100100Y-41700D02*
X100100Y-41300D01*
X99250Y-42550D02*
X100100Y-41700D01*
X98850Y-42550D02*
X99250Y-42550D01*
X98000Y-41700D02*
X98850Y-42550D01*
X95760Y-44010D02*
X96940Y-44010D01*
X95760Y-44010D02*
X95450Y-43700D01*
X95450Y-43700D02*
X95450Y-42300D01*
X95500Y-42250D02*
X95450Y-42300D01*
X96940Y-44010D02*
X96950Y-44000D01*
X96950Y-44000D02*
X97000Y-44000D01*
X98350Y-44700D02*
X99050Y-44000D01*
X97700Y-44700D02*
X98350Y-44700D01*
X97000Y-44000D02*
X97700Y-44700D01*
X96000Y-44500D02*
X97000Y-44500D01*
X97000Y-44500D02*
X97100Y-44600D01*
G54D10*
G36*
X95055Y-46000D02*
X95019Y-46036D01*
X95019Y-45963D01*
X95055Y-46000D01*
X95055Y-46000D01*
G37*
G54D20*
X95055Y-46000D02*
X95019Y-46036D01*
X95019Y-45963D01*
X95055Y-46000D01*
G54D10*
G36*
X95641Y-44954D02*
X95155Y-44954D01*
X95063Y-44992D01*
X94992Y-45062D01*
X94954Y-45154D01*
X94954Y-45254D01*
X94954Y-45513D01*
X94939Y-45477D01*
X94939Y-45477D01*
X94842Y-45332D01*
X94842Y-45331D01*
X94767Y-45257D01*
X94621Y-45159D01*
X94569Y-45138D01*
X94569Y-44215D01*
X94641Y-44186D01*
X94641Y-44185D01*
X94803Y-44078D01*
X94877Y-44003D01*
X94878Y-44002D01*
X94985Y-43841D01*
X94986Y-43840D01*
X95026Y-43743D01*
X95064Y-43552D01*
X95064Y-43552D01*
X95064Y-43552D01*
X95064Y-43552D01*
X95064Y-43500D01*
X95064Y-43447D01*
X95064Y-43447D01*
X95064Y-43447D01*
X95064Y-43447D01*
X95026Y-43256D01*
X94986Y-43159D01*
X94985Y-43158D01*
X94878Y-42997D01*
X94877Y-42996D01*
X94803Y-42921D01*
X94641Y-42814D01*
X94641Y-42813D01*
X94569Y-42784D01*
X94569Y-41811D01*
X94621Y-41790D01*
X94767Y-41692D01*
X94842Y-41618D01*
X94842Y-41617D01*
X94939Y-41472D01*
X94939Y-41472D01*
X94980Y-41375D01*
X95014Y-41202D01*
X95014Y-41202D01*
X95038Y-41082D01*
X95075Y-41026D01*
X95133Y-40988D01*
X95225Y-40969D01*
X95454Y-40969D01*
X95454Y-41054D01*
X95454Y-41644D01*
X95479Y-41704D01*
X95392Y-41704D01*
X95191Y-41787D01*
X95038Y-41940D01*
X94954Y-42141D01*
X94954Y-42357D01*
X95037Y-42558D01*
X95150Y-42671D01*
X95150Y-43700D01*
X95172Y-43814D01*
X95237Y-43912D01*
X95508Y-44183D01*
X95425Y-44385D01*
X95424Y-44613D01*
X95512Y-44825D01*
X95641Y-44954D01*
X95641Y-44954D01*
G37*
G54D20*
X95641Y-44954D02*
X95155Y-44954D01*
X95063Y-44992D01*
X94992Y-45062D01*
X94954Y-45154D01*
X94954Y-45254D01*
X94954Y-45513D01*
X94939Y-45477D01*
X94939Y-45477D01*
X94842Y-45332D01*
X94842Y-45331D01*
X94767Y-45257D01*
X94621Y-45159D01*
X94569Y-45138D01*
X94569Y-44215D01*
X94641Y-44186D01*
X94641Y-44185D01*
X94803Y-44078D01*
X94877Y-44003D01*
X94878Y-44002D01*
X94985Y-43841D01*
X94986Y-43840D01*
X95026Y-43743D01*
X95064Y-43552D01*
X95064Y-43552D01*
X95064Y-43552D01*
X95064Y-43552D01*
X95064Y-43500D01*
X95064Y-43447D01*
X95064Y-43447D01*
X95064Y-43447D01*
X95064Y-43447D01*
X95026Y-43256D01*
X94986Y-43159D01*
X94985Y-43158D01*
X94878Y-42997D01*
X94877Y-42996D01*
X94803Y-42921D01*
X94641Y-42814D01*
X94641Y-42813D01*
X94569Y-42784D01*
X94569Y-41811D01*
X94621Y-41790D01*
X94767Y-41692D01*
X94842Y-41618D01*
X94842Y-41617D01*
X94939Y-41472D01*
X94939Y-41472D01*
X94980Y-41375D01*
X95014Y-41202D01*
X95014Y-41202D01*
X95038Y-41082D01*
X95075Y-41026D01*
X95133Y-40988D01*
X95225Y-40969D01*
X95454Y-40969D01*
X95454Y-41054D01*
X95454Y-41644D01*
X95479Y-41704D01*
X95392Y-41704D01*
X95191Y-41787D01*
X95038Y-41940D01*
X94954Y-42141D01*
X94954Y-42357D01*
X95037Y-42558D01*
X95150Y-42671D01*
X95150Y-43700D01*
X95172Y-43814D01*
X95237Y-43912D01*
X95508Y-44183D01*
X95425Y-44385D01*
X95424Y-44613D01*
X95512Y-44825D01*
X95641Y-44954D01*
G54D10*
G36*
X95905Y-42895D02*
X95880Y-42895D01*
X95867Y-42900D01*
X95854Y-42900D01*
X95750Y-42944D01*
X95750Y-42736D01*
X95808Y-42712D01*
X95824Y-42697D01*
X95905Y-42895D01*
X95905Y-42895D01*
G37*
G54D20*
X95905Y-42895D02*
X95880Y-42895D01*
X95867Y-42900D01*
X95854Y-42900D01*
X95750Y-42944D01*
X95750Y-42736D01*
X95808Y-42712D01*
X95824Y-42697D01*
X95905Y-42895D01*
G54D10*
G36*
X96059Y-46830D02*
X96045Y-46830D01*
X96045Y-46816D01*
X96059Y-46830D01*
X96059Y-46830D01*
G37*
G54D20*
X96059Y-46830D02*
X96045Y-46830D01*
X96045Y-46816D01*
X96059Y-46830D01*
G54D10*
G36*
X96251Y-41845D02*
X96104Y-41906D01*
X95993Y-42016D01*
X95962Y-41941D01*
X95866Y-41845D01*
X96251Y-41845D01*
X96251Y-41845D01*
G37*
G54D20*
X96251Y-41845D02*
X96104Y-41906D01*
X95993Y-42016D01*
X95962Y-41941D01*
X95866Y-41845D01*
X96251Y-41845D01*
G54D10*
G36*
X96975Y-45250D02*
X96970Y-45263D01*
X96964Y-45250D01*
X96975Y-45250D01*
X96975Y-45250D01*
G37*
G54D20*
X96975Y-45250D02*
X96970Y-45263D01*
X96964Y-45250D01*
X96975Y-45250D01*
G54D10*
G36*
X97559Y-40969D02*
X97538Y-40990D01*
X97500Y-41080D01*
X97414Y-41022D01*
X97300Y-41000D01*
X96545Y-41000D01*
X96545Y-40969D01*
X97559Y-40969D01*
X97559Y-40969D01*
G37*
G54D20*
X97559Y-40969D02*
X97538Y-40990D01*
X97500Y-41080D01*
X97414Y-41022D01*
X97300Y-41000D01*
X96545Y-41000D01*
X96545Y-40969D01*
X97559Y-40969D01*
G54D10*
G36*
X98040Y-42464D02*
X97996Y-42464D01*
X97795Y-42464D01*
X97790Y-42466D01*
X97785Y-42466D01*
X97420Y-42617D01*
X97419Y-42619D01*
X97414Y-42622D01*
X97123Y-42912D01*
X97120Y-42919D01*
X97117Y-42920D01*
X97042Y-43107D01*
X96965Y-43293D01*
X96965Y-43298D01*
X96963Y-43302D01*
X96964Y-43503D01*
X96964Y-43575D01*
X96865Y-43574D01*
X96709Y-43639D01*
X96638Y-43710D01*
X96567Y-43710D01*
X96604Y-43620D01*
X96604Y-43607D01*
X96609Y-43594D01*
X96604Y-43487D01*
X96604Y-43380D01*
X96599Y-43367D01*
X96599Y-43354D01*
X96535Y-43200D01*
X96638Y-43200D01*
X96896Y-43093D01*
X97093Y-42897D01*
X97199Y-42639D01*
X97199Y-42606D01*
X97411Y-42518D01*
X97608Y-42322D01*
X97693Y-42117D01*
X98040Y-42464D01*
X98040Y-42464D01*
G37*
G54D20*
X98040Y-42464D02*
X97996Y-42464D01*
X97795Y-42464D01*
X97790Y-42466D01*
X97785Y-42466D01*
X97420Y-42617D01*
X97419Y-42619D01*
X97414Y-42622D01*
X97123Y-42912D01*
X97120Y-42919D01*
X97117Y-42920D01*
X97042Y-43107D01*
X96965Y-43293D01*
X96965Y-43298D01*
X96963Y-43302D01*
X96964Y-43503D01*
X96964Y-43575D01*
X96865Y-43574D01*
X96709Y-43639D01*
X96638Y-43710D01*
X96567Y-43710D01*
X96604Y-43620D01*
X96604Y-43607D01*
X96609Y-43594D01*
X96604Y-43487D01*
X96604Y-43380D01*
X96599Y-43367D01*
X96599Y-43354D01*
X96535Y-43200D01*
X96638Y-43200D01*
X96896Y-43093D01*
X97093Y-42897D01*
X97199Y-42639D01*
X97199Y-42606D01*
X97411Y-42518D01*
X97608Y-42322D01*
X97693Y-42117D01*
X98040Y-42464D01*
G54D10*
G36*
X98531Y-40969D02*
X98480Y-41035D01*
X98462Y-40991D01*
X98440Y-40969D01*
X98531Y-40969D01*
X98531Y-40969D01*
G37*
G54D20*
X98531Y-40969D02*
X98480Y-41035D01*
X98462Y-40991D01*
X98440Y-40969D01*
X98531Y-40969D01*
G54D10*
G36*
X98954Y-46830D02*
X96940Y-46830D01*
X96961Y-46809D01*
X97045Y-46608D01*
X97045Y-46600D01*
X98700Y-46600D01*
X98700Y-46599D01*
X98814Y-46577D01*
X98814Y-46577D01*
X98912Y-46512D01*
X98954Y-46469D01*
X98954Y-46830D01*
X98954Y-46830D01*
G37*
G54D20*
X98954Y-46830D02*
X96940Y-46830D01*
X96961Y-46809D01*
X97045Y-46608D01*
X97045Y-46600D01*
X98700Y-46600D01*
X98700Y-46599D01*
X98814Y-46577D01*
X98814Y-46577D01*
X98912Y-46512D01*
X98954Y-46469D01*
X98954Y-46830D01*
G54D10*
G36*
X99050Y-43574D02*
X99035Y-43574D01*
X99035Y-43496D01*
X99035Y-43295D01*
X99033Y-43290D01*
X99033Y-43285D01*
X98977Y-43150D01*
X99025Y-43150D01*
X99050Y-43174D01*
X99050Y-43574D01*
X99050Y-43574D01*
G37*
G54D20*
X99050Y-43574D02*
X99035Y-43574D01*
X99035Y-43496D01*
X99035Y-43295D01*
X99033Y-43290D01*
X99033Y-43285D01*
X98977Y-43150D01*
X99025Y-43150D01*
X99050Y-43174D01*
X99050Y-43574D01*
G54D10*
G36*
X99659Y-40969D02*
X99638Y-40990D01*
X99584Y-41120D01*
X99529Y-41024D01*
X99458Y-40969D01*
X99659Y-40969D01*
X99659Y-40969D01*
G37*
G54D20*
X99659Y-40969D02*
X99638Y-40990D01*
X99584Y-41120D01*
X99529Y-41024D01*
X99458Y-40969D01*
X99659Y-40969D01*
G54D10*
G36*
X99702Y-41673D02*
X99688Y-41686D01*
X99690Y-41661D01*
X99702Y-41673D01*
X99702Y-41673D01*
G37*
G54D20*
X99702Y-41673D02*
X99688Y-41686D01*
X99690Y-41661D01*
X99702Y-41673D01*
G54D10*
G36*
X99703Y-45015D02*
X99604Y-44975D01*
X99396Y-44974D01*
X99203Y-45054D01*
X99055Y-45202D01*
X99029Y-45263D01*
X98991Y-45171D01*
X98897Y-45076D01*
X98949Y-45024D01*
X99034Y-45025D01*
X99190Y-44960D01*
X99310Y-44841D01*
X99327Y-44800D01*
X99501Y-44800D01*
X99512Y-44825D01*
X99673Y-44987D01*
X99700Y-44998D01*
X99700Y-45000D01*
X99703Y-45015D01*
X99703Y-45015D01*
G37*
G54D20*
X99703Y-45015D02*
X99604Y-44975D01*
X99396Y-44974D01*
X99203Y-45054D01*
X99055Y-45202D01*
X99029Y-45263D01*
X98991Y-45171D01*
X98897Y-45076D01*
X98949Y-45024D01*
X99034Y-45025D01*
X99190Y-44960D01*
X99310Y-44841D01*
X99327Y-44800D01*
X99501Y-44800D01*
X99512Y-44825D01*
X99673Y-44987D01*
X99700Y-44998D01*
X99700Y-45000D01*
X99703Y-45015D01*
G54D10*
G36*
X100059Y-46830D02*
X100045Y-46830D01*
X100045Y-46816D01*
X100059Y-46830D01*
X100059Y-46830D01*
G37*
G54D20*
X100059Y-46830D02*
X100045Y-46830D01*
X100045Y-46816D01*
X100059Y-46830D01*
G54D10*
G36*
X100980Y-46234D02*
X100962Y-46191D01*
X100816Y-46045D01*
X100844Y-46045D01*
X100936Y-46007D01*
X100980Y-45963D01*
X100980Y-46234D01*
X100980Y-46234D01*
G37*
G54D20*
X100980Y-46234D02*
X100962Y-46191D01*
X100816Y-46045D01*
X100844Y-46045D01*
X100936Y-46007D01*
X100980Y-45963D01*
X100980Y-46234D01*
G54D10*
G36*
X101430Y-42784D02*
X101359Y-42813D01*
X101358Y-42814D01*
X101197Y-42921D01*
X101196Y-42922D01*
X101121Y-42996D01*
X101014Y-43158D01*
X101013Y-43158D01*
X100973Y-43256D01*
X100935Y-43447D01*
X100935Y-43500D01*
X100935Y-43552D01*
X100973Y-43743D01*
X101013Y-43841D01*
X101014Y-43841D01*
X101121Y-44003D01*
X101168Y-44050D01*
X100363Y-44050D01*
X100330Y-44017D01*
X100342Y-44012D01*
X100512Y-43842D01*
X100520Y-43822D01*
X100526Y-43820D01*
X100563Y-43719D01*
X100604Y-43620D01*
X100604Y-43607D01*
X100609Y-43594D01*
X100604Y-43487D01*
X100604Y-43380D01*
X100599Y-43367D01*
X100599Y-43354D01*
X100526Y-43179D01*
X100520Y-43177D01*
X100512Y-43157D01*
X100342Y-42987D01*
X100322Y-42979D01*
X100320Y-42973D01*
X100219Y-42936D01*
X100120Y-42895D01*
X100107Y-42895D01*
X100094Y-42890D01*
X99987Y-42895D01*
X99880Y-42895D01*
X99867Y-42900D01*
X99854Y-42900D01*
X99679Y-42973D01*
X99677Y-42979D01*
X99657Y-42987D01*
X99640Y-43004D01*
X99627Y-42935D01*
X99562Y-42837D01*
X99562Y-42837D01*
X99474Y-42749D01*
X99954Y-42269D01*
X99954Y-42357D01*
X100037Y-42558D01*
X100190Y-42711D01*
X100391Y-42795D01*
X100607Y-42795D01*
X100808Y-42712D01*
X100961Y-42559D01*
X101045Y-42358D01*
X101045Y-42142D01*
X100962Y-41941D01*
X100809Y-41788D01*
X100608Y-41704D01*
X100466Y-41704D01*
X100561Y-41609D01*
X100645Y-41408D01*
X100645Y-41192D01*
X100562Y-40991D01*
X100540Y-40969D01*
X100723Y-40969D01*
X100835Y-40991D01*
X100908Y-41040D01*
X100957Y-41114D01*
X100985Y-41252D01*
X100985Y-41253D01*
X101019Y-41423D01*
X101019Y-41424D01*
X101059Y-41521D01*
X101157Y-41667D01*
X101231Y-41742D01*
X101232Y-41742D01*
X101377Y-41839D01*
X101377Y-41839D01*
X101430Y-41861D01*
X101430Y-42784D01*
X101430Y-42784D01*
G37*
G54D20*
X101430Y-42784D02*
X101359Y-42813D01*
X101358Y-42814D01*
X101197Y-42921D01*
X101196Y-42922D01*
X101121Y-42996D01*
X101014Y-43158D01*
X101013Y-43158D01*
X100973Y-43256D01*
X100935Y-43447D01*
X100935Y-43500D01*
X100935Y-43552D01*
X100973Y-43743D01*
X101013Y-43841D01*
X101014Y-43841D01*
X101121Y-44003D01*
X101168Y-44050D01*
X100363Y-44050D01*
X100330Y-44017D01*
X100342Y-44012D01*
X100512Y-43842D01*
X100520Y-43822D01*
X100526Y-43820D01*
X100563Y-43719D01*
X100604Y-43620D01*
X100604Y-43607D01*
X100609Y-43594D01*
X100604Y-43487D01*
X100604Y-43380D01*
X100599Y-43367D01*
X100599Y-43354D01*
X100526Y-43179D01*
X100520Y-43177D01*
X100512Y-43157D01*
X100342Y-42987D01*
X100322Y-42979D01*
X100320Y-42973D01*
X100219Y-42936D01*
X100120Y-42895D01*
X100107Y-42895D01*
X100094Y-42890D01*
X99987Y-42895D01*
X99880Y-42895D01*
X99867Y-42900D01*
X99854Y-42900D01*
X99679Y-42973D01*
X99677Y-42979D01*
X99657Y-42987D01*
X99640Y-43004D01*
X99627Y-42935D01*
X99562Y-42837D01*
X99562Y-42837D01*
X99474Y-42749D01*
X99954Y-42269D01*
X99954Y-42357D01*
X100037Y-42558D01*
X100190Y-42711D01*
X100391Y-42795D01*
X100607Y-42795D01*
X100808Y-42712D01*
X100961Y-42559D01*
X101045Y-42358D01*
X101045Y-42142D01*
X100962Y-41941D01*
X100809Y-41788D01*
X100608Y-41704D01*
X100466Y-41704D01*
X100561Y-41609D01*
X100645Y-41408D01*
X100645Y-41192D01*
X100562Y-40991D01*
X100540Y-40969D01*
X100723Y-40969D01*
X100835Y-40991D01*
X100908Y-41040D01*
X100957Y-41114D01*
X100985Y-41252D01*
X100985Y-41253D01*
X101019Y-41423D01*
X101019Y-41424D01*
X101059Y-41521D01*
X101157Y-41667D01*
X101231Y-41742D01*
X101232Y-41742D01*
X101377Y-41839D01*
X101377Y-41839D01*
X101430Y-41861D01*
X101430Y-42784D01*
G54D10*
G36*
X101430Y-45088D02*
X101377Y-45110D01*
X101377Y-45110D01*
X101232Y-45207D01*
X101231Y-45207D01*
X101157Y-45282D01*
X101059Y-45428D01*
X101045Y-45463D01*
X101045Y-45155D01*
X101007Y-45063D01*
X100937Y-44992D01*
X100845Y-44954D01*
X100745Y-44954D01*
X100378Y-44954D01*
X100374Y-44950D01*
X101430Y-44950D01*
X101430Y-45088D01*
X101430Y-45088D01*
G37*
G54D20*
X101430Y-45088D02*
X101377Y-45110D01*
X101377Y-45110D01*
X101232Y-45207D01*
X101231Y-45207D01*
X101157Y-45282D01*
X101059Y-45428D01*
X101045Y-45463D01*
X101045Y-45155D01*
X101007Y-45063D01*
X100937Y-44992D01*
X100845Y-44954D01*
X100745Y-44954D01*
X100378Y-44954D01*
X100374Y-44950D01*
X101430Y-44950D01*
X101430Y-45088D01*
M02*
