G04 (created by PCBNEW (2013-may-18)-stable) date Sat 21 Nov 2015 02:45:17 PM EST*
%MOIN*%
G04 Gerber Fmt 3.4, Leading zero omitted, Abs format*
%FSLAX34Y34*%
G01*
G70*
G90*
G04 APERTURE LIST*
%ADD10C,0.00590551*%
%ADD11C,0.0001*%
%ADD12C,0.09*%
%ADD13C,0.09*%
%ADD14C,0.157*%
%ADD15C,0.070937*%
%ADD16C,0.065*%
%ADD17C,0.0590551*%
%ADD18R,0.0590551X0.0590551*%
%ADD19C,0.055*%
%ADD20C,0.066*%
G04 APERTURE END LIST*
G54D10*
G54D11*
G36*
X100539Y-44149D02*
X101460Y-44149D01*
X101479Y-44150D01*
X101498Y-44154D01*
X101515Y-44160D01*
X101532Y-44168D01*
X101547Y-44179D01*
X101560Y-44191D01*
X101572Y-44204D01*
X101583Y-44219D01*
X101591Y-44236D01*
X101597Y-44253D01*
X101601Y-44272D01*
X101602Y-44291D01*
X101602Y-44708D01*
X101601Y-44727D01*
X101597Y-44746D01*
X101591Y-44763D01*
X101583Y-44780D01*
X101572Y-44795D01*
X101560Y-44808D01*
X101547Y-44820D01*
X101532Y-44831D01*
X101515Y-44839D01*
X101498Y-44845D01*
X101479Y-44849D01*
X101460Y-44850D01*
X100539Y-44850D01*
X100520Y-44849D01*
X100501Y-44845D01*
X100484Y-44839D01*
X100467Y-44831D01*
X100452Y-44820D01*
X100439Y-44808D01*
X100427Y-44795D01*
X100416Y-44780D01*
X100408Y-44763D01*
X100402Y-44746D01*
X100398Y-44727D01*
X100397Y-44708D01*
X100397Y-44291D01*
X100398Y-44272D01*
X100402Y-44253D01*
X100408Y-44236D01*
X100416Y-44219D01*
X100427Y-44204D01*
X100439Y-44191D01*
X100452Y-44179D01*
X100467Y-44168D01*
X100484Y-44160D01*
X100501Y-44154D01*
X100520Y-44150D01*
X100539Y-44149D01*
X100539Y-44149D01*
G37*
G54D12*
X99000Y-41500D02*
X98984Y-41728D01*
G54D13*
X97015Y-41925D03*
X96500Y-42500D03*
G54D14*
X98000Y-43500D03*
G54D15*
X96000Y-43500D03*
X100000Y-43500D03*
G54D16*
X96000Y-44500D03*
X100000Y-44500D03*
G54D17*
X98000Y-41300D03*
G54D18*
X96000Y-41300D03*
X95500Y-45500D03*
G54D17*
X95500Y-42250D03*
G54D18*
X95500Y-46500D03*
G54D17*
X100100Y-41300D03*
X100500Y-42250D03*
G54D18*
X100500Y-45500D03*
G54D19*
X99500Y-45500D03*
X96500Y-45500D03*
G54D17*
X96500Y-46500D03*
G54D18*
X99500Y-46500D03*
G54D20*
X97500Y-45500D03*
X98500Y-45500D03*
G54D17*
X100500Y-46500D03*
M02*
