G04 (created by PCBNEW (2013-may-18)-stable) date Sun 20 Sep 2015 12:21:09 PM EDT*
%MOIN*%
G04 Gerber Fmt 3.4, Leading zero omitted, Abs format*
%FSLAX34Y34*%
G01*
G70*
G90*
G04 APERTURE LIST*
%ADD10C,0.00590551*%
%ADD11C,0.0001*%
%ADD12C,0.065*%
%ADD13C,0.0590551*%
%ADD14R,0.0590551X0.0590551*%
%ADD15C,0.055*%
%ADD16R,0.035X0.055*%
%ADD17C,0.066*%
%ADD18C,0.09*%
%ADD19C,0.09*%
%ADD20C,0.035*%
%ADD21C,0.01*%
G04 APERTURE END LIST*
G54D10*
G54D11*
G36*
X101495Y-44245D02*
X101507Y-44246D01*
X101518Y-44249D01*
X101528Y-44253D01*
X101536Y-44258D01*
X101543Y-44265D01*
X101549Y-44272D01*
X101552Y-44281D01*
X101553Y-44289D01*
X101553Y-45110D01*
X101552Y-45119D01*
X101549Y-45128D01*
X101543Y-45135D01*
X101536Y-45142D01*
X101528Y-45147D01*
X101518Y-45151D01*
X101507Y-45154D01*
X101495Y-45155D01*
X101005Y-45155D01*
X100995Y-45154D01*
X100984Y-45151D01*
X100974Y-45147D01*
X100965Y-45142D01*
X100958Y-45135D01*
X100953Y-45128D01*
X100949Y-45119D01*
X100948Y-45110D01*
X100948Y-44289D01*
X100949Y-44281D01*
X100953Y-44272D01*
X100958Y-44265D01*
X100965Y-44258D01*
X100974Y-44253D01*
X100984Y-44249D01*
X100995Y-44246D01*
X101005Y-44245D01*
X101495Y-44245D01*
X101442Y-44372D01*
X101442Y-45031D01*
X101270Y-45031D01*
X101259Y-45031D01*
X101248Y-45031D01*
X101237Y-45031D01*
X101227Y-45031D01*
X101223Y-45031D01*
X101189Y-45028D01*
X101158Y-45018D01*
X101130Y-45002D01*
X101106Y-44982D01*
X101086Y-44957D01*
X101071Y-44928D01*
X101062Y-44897D01*
X101059Y-44863D01*
X101059Y-44540D01*
X101062Y-44506D01*
X101071Y-44474D01*
X101086Y-44446D01*
X101106Y-44421D01*
X101130Y-44400D01*
X101158Y-44385D01*
X101189Y-44375D01*
X101223Y-44372D01*
X101224Y-44372D01*
X101225Y-44372D01*
X101226Y-44372D01*
X101227Y-44372D01*
X101237Y-44372D01*
X101248Y-44372D01*
X101259Y-44372D01*
X101270Y-44372D01*
X101442Y-44372D01*
X101495Y-44245D01*
G37*
G36*
X101352Y-44458D02*
X101352Y-44945D01*
X101250Y-44945D01*
X101231Y-44945D01*
X101215Y-44937D01*
X101199Y-44929D01*
X101184Y-44922D01*
X101172Y-44906D01*
X101160Y-44894D01*
X101152Y-44879D01*
X101149Y-44859D01*
X101145Y-44840D01*
X101145Y-44559D01*
X101149Y-44540D01*
X101152Y-44524D01*
X101160Y-44509D01*
X101172Y-44493D01*
X101184Y-44481D01*
X101199Y-44469D01*
X101215Y-44462D01*
X101231Y-44458D01*
X101250Y-44458D01*
X101352Y-44458D01*
X101352Y-44458D01*
G37*
G36*
X100827Y-44369D02*
X100832Y-44370D01*
X100837Y-44372D01*
X100842Y-44375D01*
X100846Y-44380D01*
X100849Y-44385D01*
X100851Y-44391D01*
X100853Y-44398D01*
X100853Y-44405D01*
X100853Y-44407D01*
X100853Y-44409D01*
X100853Y-44412D01*
X100853Y-44414D01*
X100853Y-44417D01*
X100853Y-44419D01*
X100853Y-44421D01*
X100853Y-44424D01*
X100853Y-44431D01*
X100851Y-44438D01*
X100849Y-44444D01*
X100846Y-44449D01*
X100842Y-44453D01*
X100837Y-44456D01*
X100832Y-44458D01*
X100827Y-44459D01*
X100694Y-44459D01*
X100694Y-44997D01*
X100693Y-45004D01*
X100691Y-45010D01*
X100688Y-45016D01*
X100684Y-45021D01*
X100679Y-45025D01*
X100673Y-45028D01*
X100667Y-45030D01*
X100660Y-45031D01*
X100657Y-45031D01*
X100654Y-45031D01*
X100651Y-45031D01*
X100648Y-45031D01*
X100645Y-45031D01*
X100642Y-45031D01*
X100639Y-45031D01*
X100636Y-45031D01*
X100629Y-45030D01*
X100623Y-45028D01*
X100617Y-45025D01*
X100612Y-45021D01*
X100608Y-45016D01*
X100605Y-45010D01*
X100603Y-45004D01*
X100603Y-44997D01*
X100603Y-44459D01*
X100473Y-44459D01*
X100468Y-44458D01*
X100463Y-44456D01*
X100459Y-44453D01*
X100455Y-44449D01*
X100451Y-44444D01*
X100449Y-44438D01*
X100447Y-44431D01*
X100447Y-44424D01*
X100447Y-44421D01*
X100447Y-44419D01*
X100447Y-44417D01*
X100447Y-44414D01*
X100447Y-44412D01*
X100447Y-44409D01*
X100447Y-44407D01*
X100447Y-44405D01*
X100447Y-44398D01*
X100449Y-44391D01*
X100451Y-44385D01*
X100455Y-44380D01*
X100459Y-44375D01*
X100463Y-44372D01*
X100468Y-44370D01*
X100473Y-44369D01*
X100827Y-44369D01*
X100827Y-44369D01*
G37*
G54D12*
X96000Y-44500D03*
X100000Y-44500D03*
G54D13*
X98000Y-41300D03*
G54D14*
X96000Y-41300D03*
X95500Y-45500D03*
G54D13*
X95500Y-42250D03*
G54D14*
X95500Y-46500D03*
G54D13*
X100100Y-41300D03*
X100500Y-42250D03*
G54D14*
X100500Y-45500D03*
G54D15*
X99500Y-45500D03*
X96500Y-45500D03*
G54D13*
X96500Y-46500D03*
G54D14*
X99500Y-46500D03*
G54D16*
X97625Y-46450D03*
X98375Y-46450D03*
X97625Y-44700D03*
X98375Y-44700D03*
G54D17*
X97500Y-45500D03*
X98500Y-45500D03*
G54D18*
X99000Y-41500D02*
X98984Y-41728D01*
G54D19*
X97015Y-41925D03*
X96500Y-42500D03*
G54D13*
X100500Y-46500D03*
G54D20*
X99500Y-44000D03*
X98950Y-44600D03*
X96950Y-44000D03*
X99050Y-44000D03*
X97100Y-44600D03*
G54D21*
X99500Y-44800D02*
X100000Y-45300D01*
X100000Y-46000D02*
X99500Y-46500D01*
X100000Y-45300D02*
X100000Y-46000D01*
X99500Y-44000D02*
X99500Y-44000D01*
X99500Y-44000D02*
X99500Y-44800D01*
X98500Y-45500D02*
X99500Y-46500D01*
X98375Y-44700D02*
X98850Y-44700D01*
X98850Y-44700D02*
X98950Y-44600D01*
X96010Y-45260D02*
X96010Y-45110D01*
X96500Y-46490D02*
X96010Y-46000D01*
X96010Y-46000D02*
X96010Y-45260D01*
X96100Y-42500D02*
X95450Y-43150D01*
X95450Y-43150D02*
X95450Y-43300D01*
X95450Y-44700D02*
X95450Y-43300D01*
X96500Y-42500D02*
X96100Y-42500D01*
X95450Y-44850D02*
X95450Y-44700D01*
X95600Y-45000D02*
X95450Y-44850D01*
X95900Y-45000D02*
X95600Y-45000D01*
X96010Y-45110D02*
X95900Y-45000D01*
X98000Y-41300D02*
X97640Y-41300D01*
X97640Y-41300D02*
X97015Y-41925D01*
X96250Y-42500D02*
X96500Y-42500D01*
X99050Y-44000D02*
X99050Y-44200D01*
X99300Y-45300D02*
X99500Y-45500D01*
X99300Y-44450D02*
X99300Y-45300D01*
X99050Y-44200D02*
X99300Y-44450D01*
X99050Y-44000D02*
X99050Y-43100D01*
X99900Y-42250D02*
X100500Y-42250D01*
X99050Y-43100D02*
X99900Y-42250D01*
X97250Y-46000D02*
X96970Y-45720D01*
X98375Y-46375D02*
X98000Y-46000D01*
X98000Y-46000D02*
X97250Y-46000D01*
X96750Y-44200D02*
X96950Y-44000D01*
X96750Y-44850D02*
X96750Y-44200D01*
X98375Y-46375D02*
X98375Y-46450D01*
X96970Y-45070D02*
X96750Y-44850D01*
X96970Y-45720D02*
X96970Y-45070D01*
X97200Y-44700D02*
X97100Y-44600D01*
X97200Y-44700D02*
X97625Y-44700D01*
X97625Y-44700D02*
X97625Y-45375D01*
X97625Y-45375D02*
X97500Y-45500D01*
X97650Y-42350D02*
X98256Y-42350D01*
X96750Y-43600D02*
X96549Y-43800D01*
X96549Y-43800D02*
X96549Y-45450D01*
X96500Y-45500D02*
X96549Y-45450D01*
X97650Y-42350D02*
X96750Y-43250D01*
X96750Y-43250D02*
X96750Y-43600D01*
X98256Y-42350D02*
X98992Y-41614D01*
X96500Y-45500D02*
X96500Y-45650D01*
X97575Y-46500D02*
X97625Y-46450D01*
X97350Y-46500D02*
X97575Y-46500D01*
X96500Y-45650D02*
X97350Y-46500D01*
X96500Y-45500D02*
X96500Y-45474D01*
G54D10*
G36*
X95055Y-46000D02*
X95019Y-46036D01*
X95019Y-45963D01*
X95055Y-46000D01*
X95055Y-46000D01*
G37*
G54D21*
X95055Y-46000D02*
X95019Y-46036D01*
X95019Y-45963D01*
X95055Y-46000D01*
G54D10*
G36*
X95479Y-41704D02*
X95392Y-41704D01*
X95191Y-41787D01*
X95038Y-41940D01*
X94954Y-42141D01*
X94954Y-42357D01*
X95037Y-42558D01*
X95190Y-42711D01*
X95383Y-42792D01*
X95237Y-42937D01*
X95172Y-43035D01*
X95150Y-43150D01*
X95150Y-43300D01*
X95150Y-44700D01*
X95150Y-44850D01*
X95170Y-44954D01*
X95155Y-44954D01*
X95063Y-44992D01*
X94992Y-45062D01*
X94954Y-45154D01*
X94954Y-45254D01*
X94954Y-45513D01*
X94939Y-45477D01*
X94939Y-45477D01*
X94842Y-45332D01*
X94842Y-45331D01*
X94767Y-45257D01*
X94621Y-45159D01*
X94569Y-45138D01*
X94569Y-44215D01*
X94641Y-44186D01*
X94641Y-44185D01*
X94803Y-44078D01*
X94877Y-44003D01*
X94878Y-44002D01*
X94985Y-43841D01*
X94986Y-43840D01*
X95026Y-43743D01*
X95064Y-43552D01*
X95064Y-43552D01*
X95064Y-43552D01*
X95064Y-43552D01*
X95064Y-43500D01*
X95064Y-43447D01*
X95064Y-43447D01*
X95064Y-43447D01*
X95064Y-43447D01*
X95026Y-43256D01*
X94986Y-43159D01*
X94985Y-43158D01*
X94878Y-42997D01*
X94877Y-42996D01*
X94803Y-42921D01*
X94641Y-42814D01*
X94641Y-42813D01*
X94569Y-42784D01*
X94569Y-41861D01*
X94621Y-41840D01*
X94767Y-41742D01*
X94842Y-41668D01*
X94842Y-41667D01*
X94939Y-41522D01*
X94939Y-41522D01*
X94980Y-41425D01*
X95014Y-41252D01*
X95014Y-41252D01*
X95038Y-41132D01*
X95075Y-41076D01*
X95133Y-41038D01*
X95225Y-41019D01*
X95454Y-41019D01*
X95454Y-41054D01*
X95454Y-41644D01*
X95479Y-41704D01*
X95479Y-41704D01*
G37*
G54D21*
X95479Y-41704D02*
X95392Y-41704D01*
X95191Y-41787D01*
X95038Y-41940D01*
X94954Y-42141D01*
X94954Y-42357D01*
X95037Y-42558D01*
X95190Y-42711D01*
X95383Y-42792D01*
X95237Y-42937D01*
X95172Y-43035D01*
X95150Y-43150D01*
X95150Y-43300D01*
X95150Y-44700D01*
X95150Y-44850D01*
X95170Y-44954D01*
X95155Y-44954D01*
X95063Y-44992D01*
X94992Y-45062D01*
X94954Y-45154D01*
X94954Y-45254D01*
X94954Y-45513D01*
X94939Y-45477D01*
X94939Y-45477D01*
X94842Y-45332D01*
X94842Y-45331D01*
X94767Y-45257D01*
X94621Y-45159D01*
X94569Y-45138D01*
X94569Y-44215D01*
X94641Y-44186D01*
X94641Y-44185D01*
X94803Y-44078D01*
X94877Y-44003D01*
X94878Y-44002D01*
X94985Y-43841D01*
X94986Y-43840D01*
X95026Y-43743D01*
X95064Y-43552D01*
X95064Y-43552D01*
X95064Y-43552D01*
X95064Y-43552D01*
X95064Y-43500D01*
X95064Y-43447D01*
X95064Y-43447D01*
X95064Y-43447D01*
X95064Y-43447D01*
X95026Y-43256D01*
X94986Y-43159D01*
X94985Y-43158D01*
X94878Y-42997D01*
X94877Y-42996D01*
X94803Y-42921D01*
X94641Y-42814D01*
X94641Y-42813D01*
X94569Y-42784D01*
X94569Y-41861D01*
X94621Y-41840D01*
X94767Y-41742D01*
X94842Y-41668D01*
X94842Y-41667D01*
X94939Y-41522D01*
X94939Y-41522D01*
X94980Y-41425D01*
X95014Y-41252D01*
X95014Y-41252D01*
X95038Y-41132D01*
X95075Y-41076D01*
X95133Y-41038D01*
X95225Y-41019D01*
X95454Y-41019D01*
X95454Y-41054D01*
X95454Y-41644D01*
X95479Y-41704D01*
G54D10*
G36*
X96059Y-46830D02*
X96045Y-46830D01*
X96045Y-46816D01*
X96059Y-46830D01*
X96059Y-46830D01*
G37*
G54D21*
X96059Y-46830D02*
X96045Y-46830D01*
X96045Y-46816D01*
X96059Y-46830D01*
G54D10*
G36*
X96251Y-41845D02*
X96104Y-41906D01*
X95993Y-42016D01*
X95962Y-41941D01*
X95866Y-41845D01*
X96251Y-41845D01*
X96251Y-41845D01*
G37*
G54D21*
X96251Y-41845D02*
X96104Y-41906D01*
X95993Y-42016D01*
X95962Y-41941D01*
X95866Y-41845D01*
X96251Y-41845D01*
G54D10*
G36*
X97223Y-46830D02*
X96940Y-46830D01*
X96961Y-46809D01*
X97042Y-46616D01*
X97137Y-46712D01*
X97199Y-46753D01*
X97199Y-46774D01*
X97223Y-46830D01*
X97223Y-46830D01*
G37*
G54D21*
X97223Y-46830D02*
X96940Y-46830D01*
X96961Y-46809D01*
X97042Y-46616D01*
X97137Y-46712D01*
X97199Y-46753D01*
X97199Y-46774D01*
X97223Y-46830D01*
G54D10*
G36*
X97525Y-41019D02*
X97524Y-41024D01*
X97428Y-41087D01*
X97251Y-41265D01*
X97155Y-41225D01*
X96877Y-41225D01*
X96619Y-41331D01*
X96545Y-41405D01*
X96545Y-41019D01*
X97525Y-41019D01*
X97525Y-41019D01*
G37*
G54D21*
X97525Y-41019D02*
X97524Y-41024D01*
X97428Y-41087D01*
X97251Y-41265D01*
X97155Y-41225D01*
X96877Y-41225D01*
X96619Y-41331D01*
X96545Y-41405D01*
X96545Y-41019D01*
X97525Y-41019D01*
G54D10*
G36*
X98025Y-45154D02*
X98008Y-45171D01*
X98000Y-45191D01*
X97991Y-45171D01*
X97974Y-45154D01*
X98000Y-45128D01*
X98025Y-45154D01*
X98025Y-45154D01*
G37*
G54D21*
X98025Y-45154D02*
X98008Y-45171D01*
X98000Y-45191D01*
X97991Y-45171D01*
X97974Y-45154D01*
X98000Y-45128D01*
X98025Y-45154D01*
G54D10*
G36*
X98307Y-41874D02*
X98132Y-42050D01*
X97715Y-42050D01*
X97715Y-41786D01*
X97708Y-41769D01*
X97891Y-41845D01*
X98107Y-41845D01*
X98294Y-41768D01*
X98307Y-41874D01*
X98307Y-41874D01*
G37*
G54D21*
X98307Y-41874D02*
X98132Y-42050D01*
X97715Y-42050D01*
X97715Y-41786D01*
X97708Y-41769D01*
X97891Y-41845D01*
X98107Y-41845D01*
X98294Y-41768D01*
X98307Y-41874D01*
G54D10*
G36*
X98492Y-41019D02*
X98480Y-41035D01*
X98474Y-41019D01*
X98492Y-41019D01*
X98492Y-41019D01*
G37*
G54D21*
X98492Y-41019D02*
X98480Y-41035D01*
X98474Y-41019D01*
X98492Y-41019D01*
G54D10*
G36*
X98954Y-46830D02*
X98776Y-46830D01*
X98799Y-46774D01*
X98800Y-46675D01*
X98800Y-46224D01*
X98954Y-46378D01*
X98954Y-46830D01*
X98954Y-46830D01*
G37*
G54D21*
X98954Y-46830D02*
X98776Y-46830D01*
X98799Y-46774D01*
X98800Y-46675D01*
X98800Y-46224D01*
X98954Y-46378D01*
X98954Y-46830D01*
G54D10*
G36*
X99000Y-45191D02*
X98991Y-45171D01*
X98831Y-45010D01*
X98865Y-45024D01*
X99000Y-45025D01*
X99000Y-45191D01*
X99000Y-45191D01*
G37*
G54D21*
X99000Y-45191D02*
X98991Y-45171D01*
X98831Y-45010D01*
X98865Y-45024D01*
X99000Y-45025D01*
X99000Y-45191D01*
G54D10*
G36*
X99625Y-41019D02*
X99584Y-41120D01*
X99529Y-41024D01*
X99522Y-41019D01*
X99625Y-41019D01*
X99625Y-41019D01*
G37*
G54D21*
X99625Y-41019D02*
X99584Y-41120D01*
X99529Y-41024D01*
X99522Y-41019D01*
X99625Y-41019D01*
G54D10*
G36*
X100059Y-46830D02*
X100045Y-46830D01*
X100045Y-46816D01*
X100059Y-46830D01*
X100059Y-46830D01*
G37*
G54D21*
X100059Y-46830D02*
X100045Y-46830D01*
X100045Y-46816D01*
X100059Y-46830D01*
G54D10*
G36*
X100133Y-41845D02*
X100038Y-41940D01*
X100034Y-41950D01*
X99900Y-41950D01*
X99785Y-41972D01*
X99687Y-42037D01*
X98844Y-42881D01*
X98587Y-42623D01*
X98580Y-42620D01*
X98579Y-42617D01*
X98458Y-42568D01*
X98468Y-42562D01*
X98664Y-42365D01*
X98670Y-42370D01*
X98934Y-42442D01*
X99205Y-42408D01*
X99442Y-42272D01*
X99609Y-42056D01*
X99681Y-41793D01*
X99690Y-41661D01*
X99790Y-41761D01*
X99991Y-41845D01*
X100133Y-41845D01*
X100133Y-41845D01*
G37*
G54D21*
X100133Y-41845D02*
X100038Y-41940D01*
X100034Y-41950D01*
X99900Y-41950D01*
X99785Y-41972D01*
X99687Y-42037D01*
X98844Y-42881D01*
X98587Y-42623D01*
X98580Y-42620D01*
X98579Y-42617D01*
X98458Y-42568D01*
X98468Y-42562D01*
X98664Y-42365D01*
X98670Y-42370D01*
X98934Y-42442D01*
X99205Y-42408D01*
X99442Y-42272D01*
X99609Y-42056D01*
X99681Y-41793D01*
X99690Y-41661D01*
X99790Y-41761D01*
X99991Y-41845D01*
X100133Y-41845D01*
G54D10*
G36*
X100980Y-46234D02*
X100962Y-46191D01*
X100816Y-46045D01*
X100844Y-46045D01*
X100936Y-46007D01*
X100980Y-45963D01*
X100980Y-46234D01*
X100980Y-46234D01*
G37*
G54D21*
X100980Y-46234D02*
X100962Y-46191D01*
X100816Y-46045D01*
X100844Y-46045D01*
X100936Y-46007D01*
X100980Y-45963D01*
X100980Y-46234D01*
G54D10*
G36*
X101085Y-45390D02*
X101059Y-45428D01*
X101045Y-45463D01*
X101045Y-45390D01*
X101085Y-45390D01*
X101085Y-45390D01*
G37*
G54D21*
X101085Y-45390D02*
X101059Y-45428D01*
X101045Y-45463D01*
X101045Y-45390D01*
X101085Y-45390D01*
G54D10*
G36*
X101430Y-42784D02*
X101359Y-42813D01*
X101358Y-42814D01*
X101197Y-42921D01*
X101196Y-42922D01*
X101121Y-42996D01*
X101014Y-43158D01*
X101013Y-43158D01*
X100973Y-43256D01*
X100935Y-43447D01*
X100935Y-43500D01*
X100935Y-43552D01*
X100973Y-43743D01*
X101013Y-43841D01*
X101014Y-43841D01*
X101121Y-44003D01*
X101128Y-44010D01*
X100319Y-44010D01*
X100310Y-44006D01*
X100310Y-44004D01*
X100330Y-43996D01*
X100495Y-43831D01*
X100504Y-43810D01*
X100510Y-43808D01*
X100545Y-43712D01*
X100584Y-43616D01*
X100584Y-43603D01*
X100589Y-43590D01*
X100585Y-43487D01*
X100585Y-43384D01*
X100579Y-43371D01*
X100579Y-43357D01*
X100510Y-43191D01*
X100504Y-43189D01*
X100496Y-43169D01*
X100331Y-43004D01*
X100310Y-42995D01*
X100308Y-42989D01*
X100212Y-42954D01*
X100116Y-42915D01*
X100103Y-42915D01*
X100090Y-42910D01*
X99987Y-42914D01*
X99884Y-42914D01*
X99871Y-42920D01*
X99857Y-42920D01*
X99691Y-42989D01*
X99689Y-42995D01*
X99669Y-43003D01*
X99504Y-43168D01*
X99495Y-43189D01*
X99489Y-43191D01*
X99454Y-43287D01*
X99415Y-43383D01*
X99415Y-43396D01*
X99410Y-43409D01*
X99414Y-43512D01*
X99414Y-43575D01*
X99350Y-43602D01*
X99350Y-43224D01*
X100024Y-42550D01*
X100033Y-42550D01*
X100037Y-42558D01*
X100190Y-42711D01*
X100391Y-42795D01*
X100607Y-42795D01*
X100808Y-42712D01*
X100961Y-42559D01*
X101045Y-42358D01*
X101045Y-42142D01*
X100962Y-41941D01*
X100809Y-41788D01*
X100608Y-41704D01*
X100466Y-41704D01*
X100561Y-41609D01*
X100645Y-41408D01*
X100645Y-41192D01*
X100574Y-41019D01*
X100723Y-41019D01*
X100835Y-41041D01*
X100908Y-41090D01*
X100957Y-41164D01*
X100985Y-41302D01*
X100985Y-41303D01*
X101019Y-41473D01*
X101019Y-41474D01*
X101059Y-41571D01*
X101157Y-41717D01*
X101231Y-41792D01*
X101232Y-41792D01*
X101377Y-41889D01*
X101377Y-41889D01*
X101430Y-41911D01*
X101430Y-42784D01*
X101430Y-42784D01*
G37*
G54D21*
X101430Y-42784D02*
X101359Y-42813D01*
X101358Y-42814D01*
X101197Y-42921D01*
X101196Y-42922D01*
X101121Y-42996D01*
X101014Y-43158D01*
X101013Y-43158D01*
X100973Y-43256D01*
X100935Y-43447D01*
X100935Y-43500D01*
X100935Y-43552D01*
X100973Y-43743D01*
X101013Y-43841D01*
X101014Y-43841D01*
X101121Y-44003D01*
X101128Y-44010D01*
X100319Y-44010D01*
X100310Y-44006D01*
X100310Y-44004D01*
X100330Y-43996D01*
X100495Y-43831D01*
X100504Y-43810D01*
X100510Y-43808D01*
X100545Y-43712D01*
X100584Y-43616D01*
X100584Y-43603D01*
X100589Y-43590D01*
X100585Y-43487D01*
X100585Y-43384D01*
X100579Y-43371D01*
X100579Y-43357D01*
X100510Y-43191D01*
X100504Y-43189D01*
X100496Y-43169D01*
X100331Y-43004D01*
X100310Y-42995D01*
X100308Y-42989D01*
X100212Y-42954D01*
X100116Y-42915D01*
X100103Y-42915D01*
X100090Y-42910D01*
X99987Y-42914D01*
X99884Y-42914D01*
X99871Y-42920D01*
X99857Y-42920D01*
X99691Y-42989D01*
X99689Y-42995D01*
X99669Y-43003D01*
X99504Y-43168D01*
X99495Y-43189D01*
X99489Y-43191D01*
X99454Y-43287D01*
X99415Y-43383D01*
X99415Y-43396D01*
X99410Y-43409D01*
X99414Y-43512D01*
X99414Y-43575D01*
X99350Y-43602D01*
X99350Y-43224D01*
X100024Y-42550D01*
X100033Y-42550D01*
X100037Y-42558D01*
X100190Y-42711D01*
X100391Y-42795D01*
X100607Y-42795D01*
X100808Y-42712D01*
X100961Y-42559D01*
X101045Y-42358D01*
X101045Y-42142D01*
X100962Y-41941D01*
X100809Y-41788D01*
X100608Y-41704D01*
X100466Y-41704D01*
X100561Y-41609D01*
X100645Y-41408D01*
X100645Y-41192D01*
X100574Y-41019D01*
X100723Y-41019D01*
X100835Y-41041D01*
X100908Y-41090D01*
X100957Y-41164D01*
X100985Y-41302D01*
X100985Y-41303D01*
X101019Y-41473D01*
X101019Y-41474D01*
X101059Y-41571D01*
X101157Y-41717D01*
X101231Y-41792D01*
X101232Y-41792D01*
X101377Y-41889D01*
X101377Y-41889D01*
X101430Y-41911D01*
X101430Y-42784D01*
M02*
