G04 (created by PCBNEW (2013-may-18)-stable) date Sun 20 Sep 2015 12:21:09 PM EDT*
%MOIN*%
G04 Gerber Fmt 3.4, Leading zero omitted, Abs format*
%FSLAX34Y34*%
G01*
G70*
G90*
G04 APERTURE LIST*
%ADD10C,0.00590551*%
%ADD11C,0.00787402*%
%ADD12C,0.00472441*%
%ADD13C,0.01*%
%ADD14C,0.006*%
%ADD15C,0.015*%
G04 APERTURE END LIST*
G54D10*
G54D11*
X100500Y-42850D02*
X100500Y-42850D01*
G54D10*
X97510Y-42495D02*
X97510Y-42338D01*
X97510Y-42259D02*
X97498Y-42270D01*
X97510Y-42281D01*
X97521Y-42270D01*
X97510Y-42259D01*
X97510Y-42281D01*
X97622Y-42338D02*
X97622Y-42495D01*
X97622Y-42360D02*
X97633Y-42349D01*
X97656Y-42338D01*
X97690Y-42338D01*
X97712Y-42349D01*
X97723Y-42371D01*
X97723Y-42495D01*
X97825Y-42484D02*
X97847Y-42495D01*
X97892Y-42495D01*
X97915Y-42484D01*
X97926Y-42461D01*
X97926Y-42450D01*
X97915Y-42428D01*
X97892Y-42416D01*
X97858Y-42416D01*
X97836Y-42405D01*
X97825Y-42383D01*
X97825Y-42371D01*
X97836Y-42349D01*
X97858Y-42338D01*
X97892Y-42338D01*
X97915Y-42349D01*
X98027Y-42338D02*
X98027Y-42574D01*
X98027Y-42349D02*
X98050Y-42338D01*
X98095Y-42338D01*
X98117Y-42349D01*
X98128Y-42360D01*
X98140Y-42383D01*
X98140Y-42450D01*
X98128Y-42473D01*
X98117Y-42484D01*
X98095Y-42495D01*
X98050Y-42495D01*
X98027Y-42484D01*
X98241Y-42495D02*
X98241Y-42338D01*
X98241Y-42259D02*
X98230Y-42270D01*
X98241Y-42281D01*
X98252Y-42270D01*
X98241Y-42259D01*
X98241Y-42281D01*
X98353Y-42495D02*
X98353Y-42338D01*
X98353Y-42383D02*
X98365Y-42360D01*
X98376Y-42349D01*
X98398Y-42338D01*
X98421Y-42338D01*
X98589Y-42484D02*
X98567Y-42495D01*
X98522Y-42495D01*
X98500Y-42484D01*
X98488Y-42461D01*
X98488Y-42371D01*
X98500Y-42349D01*
X98522Y-42338D01*
X98567Y-42338D01*
X98589Y-42349D01*
X98601Y-42371D01*
X98601Y-42394D01*
X98488Y-42416D01*
X98803Y-42495D02*
X98803Y-42259D01*
X98803Y-42484D02*
X98781Y-42495D01*
X98736Y-42495D01*
X98713Y-42484D01*
X98702Y-42473D01*
X98691Y-42450D01*
X98691Y-42383D01*
X98702Y-42360D01*
X98713Y-42349D01*
X98736Y-42338D01*
X98781Y-42338D01*
X98803Y-42349D01*
X99096Y-42495D02*
X99096Y-42259D01*
X99096Y-42349D02*
X99118Y-42338D01*
X99163Y-42338D01*
X99186Y-42349D01*
X99197Y-42360D01*
X99208Y-42383D01*
X99208Y-42450D01*
X99197Y-42473D01*
X99186Y-42484D01*
X99163Y-42495D01*
X99118Y-42495D01*
X99096Y-42484D01*
X99287Y-42338D02*
X99343Y-42495D01*
X99399Y-42338D02*
X99343Y-42495D01*
X99321Y-42551D01*
X99309Y-42563D01*
X99287Y-42574D01*
X99489Y-42473D02*
X99501Y-42484D01*
X99489Y-42495D01*
X99478Y-42484D01*
X99489Y-42473D01*
X99489Y-42495D01*
X99489Y-42349D02*
X99501Y-42360D01*
X99489Y-42371D01*
X99478Y-42360D01*
X99489Y-42349D01*
X99489Y-42371D01*
X98946Y-42945D02*
X98946Y-42709D01*
X99025Y-42878D01*
X99103Y-42709D01*
X99103Y-42945D01*
X99306Y-42934D02*
X99283Y-42945D01*
X99238Y-42945D01*
X99216Y-42934D01*
X99205Y-42911D01*
X99205Y-42821D01*
X99216Y-42799D01*
X99238Y-42788D01*
X99283Y-42788D01*
X99306Y-42799D01*
X99317Y-42821D01*
X99317Y-42844D01*
X99205Y-42866D01*
X99452Y-42945D02*
X99430Y-42934D01*
X99418Y-42911D01*
X99418Y-42709D01*
X99520Y-42788D02*
X99576Y-42945D01*
X99632Y-42788D01*
X99823Y-42945D02*
X99823Y-42821D01*
X99812Y-42799D01*
X99790Y-42788D01*
X99745Y-42788D01*
X99722Y-42799D01*
X99823Y-42934D02*
X99801Y-42945D01*
X99745Y-42945D01*
X99722Y-42934D01*
X99711Y-42911D01*
X99711Y-42889D01*
X99722Y-42866D01*
X99745Y-42855D01*
X99801Y-42855D01*
X99823Y-42844D01*
X99936Y-42788D02*
X99936Y-42945D01*
X99936Y-42810D02*
X99947Y-42799D01*
X99970Y-42788D01*
X100003Y-42788D01*
X100026Y-42799D01*
X100037Y-42821D01*
X100037Y-42945D01*
X100251Y-42788D02*
X100251Y-42979D01*
X100239Y-43001D01*
X100228Y-43013D01*
X100206Y-43024D01*
X100172Y-43024D01*
X100150Y-43013D01*
X100251Y-42934D02*
X100228Y-42945D01*
X100183Y-42945D01*
X100161Y-42934D01*
X100150Y-42923D01*
X100138Y-42900D01*
X100138Y-42833D01*
X100150Y-42810D01*
X100161Y-42799D01*
X100183Y-42788D01*
X100228Y-42788D01*
X100251Y-42799D01*
X100723Y-42945D02*
X100723Y-42709D01*
X100802Y-42878D01*
X100881Y-42709D01*
X100881Y-42945D01*
X101038Y-42709D02*
X101083Y-42709D01*
X101106Y-42720D01*
X101128Y-42743D01*
X101139Y-42788D01*
X101139Y-42866D01*
X101128Y-42911D01*
X101106Y-42934D01*
X101083Y-42945D01*
X101038Y-42945D01*
X101016Y-42934D01*
X100993Y-42911D01*
X100982Y-42866D01*
X100982Y-42788D01*
X100993Y-42743D01*
X101016Y-42720D01*
X101038Y-42709D01*
X101218Y-42709D02*
X101376Y-42709D01*
X101218Y-42945D01*
X101376Y-42945D01*
G54D12*
X97335Y-46567D02*
X97384Y-46777D01*
X97485Y-46567D01*
X97744Y-46777D02*
X97564Y-46777D01*
X97654Y-46777D02*
X97693Y-46462D01*
X97657Y-46507D01*
X97624Y-46537D01*
X97592Y-46552D01*
X97882Y-46747D02*
X97895Y-46762D01*
X97879Y-46777D01*
X97865Y-46762D01*
X97882Y-46747D01*
X97879Y-46777D01*
X98049Y-46492D02*
X98066Y-46477D01*
X98098Y-46462D01*
X98173Y-46462D01*
X98201Y-46477D01*
X98214Y-46492D01*
X98225Y-46522D01*
X98222Y-46552D01*
X98201Y-46597D01*
X97999Y-46777D01*
X98194Y-46777D01*
X98332Y-46747D02*
X98345Y-46762D01*
X98329Y-46777D01*
X98315Y-46762D01*
X98332Y-46747D01*
X98329Y-46777D01*
X98643Y-46777D02*
X98464Y-46777D01*
X98553Y-46777D02*
X98593Y-46462D01*
X98557Y-46507D01*
X98523Y-46537D01*
X98492Y-46552D01*
G54D13*
X98720Y-46000D02*
X98720Y-45000D01*
G54D14*
X97639Y-45115D02*
G75*
G03X97500Y-45500I460J-384D01*
G74*
G01*
X97500Y-45500D02*
G75*
G03X97651Y-45897I599J0D01*
G74*
G01*
X98699Y-45500D02*
G75*
G03X98555Y-45110I-599J0D01*
G74*
G01*
X98560Y-45884D02*
G75*
G03X98700Y-45500I-460J384D01*
G74*
G01*
X98587Y-45150D02*
G75*
G03X98100Y-44900I-487J-349D01*
G74*
G01*
X98100Y-44900D02*
G75*
G03X97620Y-45139I0J-600D01*
G74*
G01*
X98100Y-46099D02*
G75*
G03X98572Y-45868I0J599D01*
G74*
G01*
X97626Y-45868D02*
G75*
G03X98100Y-46100I473J368D01*
G74*
G01*
X98100Y-45250D02*
G75*
G03X97850Y-45500I0J-250D01*
G74*
G01*
X98100Y-45100D02*
G75*
G03X97700Y-45500I0J-400D01*
G74*
G01*
X98100Y-45750D02*
G75*
G03X98350Y-45500I0J250D01*
G74*
G01*
X98100Y-45900D02*
G75*
G03X98500Y-45500I0J400D01*
G74*
G01*
G54D13*
X98713Y-44986D02*
G75*
G03X98100Y-44700I-613J-513D01*
G74*
G01*
X98100Y-44701D02*
G75*
G03X97395Y-45123I0J-799D01*
G74*
G01*
X98101Y-46298D02*
G75*
G03X98710Y-46015I-1J798D01*
G74*
G01*
X97405Y-45897D02*
G75*
G03X98100Y-46300I694J397D01*
G74*
G01*
X97395Y-45120D02*
G75*
G03X97300Y-45500I704J-379D01*
G74*
G01*
X97300Y-45500D02*
G75*
G03X97418Y-45918I799J0D01*
G74*
G01*
G54D15*
X95500Y-41000D02*
X96200Y-41000D01*
X99800Y-41000D02*
X100500Y-41000D01*
X100500Y-41000D02*
X100500Y-41700D01*
X100500Y-45300D02*
X100500Y-46000D01*
X100500Y-46000D02*
X99800Y-46000D01*
X96200Y-46000D02*
X95500Y-46000D01*
X95500Y-46000D02*
X95500Y-45300D01*
X95500Y-41700D02*
X95500Y-41000D01*
M02*
