G04 (created by PCBNEW (2013-jul-07)-stable) date Thu 27 Aug 2015 10:07:32 PM EDT*
%MOIN*%
G04 Gerber Fmt 3.4, Leading zero omitted, Abs format*
%FSLAX34Y34*%
G01*
G70*
G90*
G04 APERTURE LIST*
%ADD10C,0.00590551*%
%ADD11C,0.065*%
%ADD12C,0.0590551*%
%ADD13R,0.055X0.055*%
%ADD14C,0.055*%
%ADD15C,0.066*%
%ADD16C,0.09*%
%ADD17C,0.09*%
%ADD18C,0.035*%
%ADD19C,0.01*%
G04 APERTURE END LIST*
G54D10*
G54D11*
X96000Y-44500D03*
X100000Y-44500D03*
G54D12*
X98000Y-41300D03*
X96000Y-41300D03*
X95500Y-45500D03*
X95500Y-42250D03*
X95500Y-46500D03*
X96500Y-46500D03*
X100500Y-42250D03*
X100500Y-45500D03*
G54D13*
X99500Y-45500D03*
G54D14*
X96500Y-45500D03*
G54D12*
X100500Y-46500D03*
X99500Y-46500D03*
G54D15*
X97500Y-45500D03*
X98500Y-45500D03*
G54D16*
X99000Y-41500D02*
X98984Y-41728D01*
G54D17*
X97015Y-41925D03*
X96500Y-42500D03*
G54D18*
X98000Y-45000D03*
X99400Y-42650D03*
X97075Y-44650D03*
X96600Y-43850D03*
G54D19*
X98500Y-45500D02*
X99500Y-46500D01*
X95500Y-46500D02*
X96000Y-46000D01*
X98000Y-46000D02*
X96300Y-46000D01*
X98000Y-46000D02*
X98500Y-45500D01*
X96000Y-46000D02*
X96300Y-46000D01*
X95500Y-45500D02*
X95700Y-45500D01*
X96450Y-45000D02*
X98000Y-45000D01*
X96200Y-45000D02*
X96450Y-45000D01*
X95700Y-45500D02*
X96200Y-45000D01*
X98000Y-41300D02*
X97640Y-41300D01*
X97640Y-41300D02*
X97015Y-41925D01*
X100500Y-46300D02*
X100500Y-46500D01*
X101000Y-45200D02*
X100600Y-44800D01*
X100600Y-44800D02*
X100600Y-43250D01*
X100600Y-43250D02*
X100000Y-42650D01*
X100000Y-42650D02*
X99400Y-42650D01*
X101000Y-45700D02*
X101000Y-45200D01*
X101000Y-45800D02*
X101000Y-45700D01*
X100500Y-46300D02*
X101000Y-45800D01*
X95700Y-44000D02*
X95650Y-44000D01*
X97225Y-44300D02*
X97575Y-44650D01*
X97575Y-44650D02*
X98650Y-44650D01*
X99500Y-45500D02*
X98650Y-44650D01*
X96250Y-44000D02*
X96550Y-44300D01*
X95700Y-44000D02*
X96250Y-44000D01*
X96550Y-44300D02*
X97225Y-44300D01*
X95350Y-42400D02*
X95500Y-42250D01*
X95350Y-43700D02*
X95350Y-42400D01*
X95650Y-44000D02*
X95350Y-43700D01*
X97075Y-44650D02*
X96150Y-44650D01*
X96000Y-44500D02*
X96150Y-44650D01*
X98706Y-41900D02*
X98992Y-41614D01*
X96600Y-43350D02*
X96600Y-43850D01*
X98050Y-41900D02*
X96600Y-43350D01*
X98050Y-41900D02*
X98706Y-41900D01*
G54D10*
G36*
X95282Y-45999D02*
X95191Y-46037D01*
X95038Y-46190D01*
X95019Y-46234D01*
X95019Y-45800D01*
X95014Y-45774D01*
X95014Y-45753D01*
X95037Y-45808D01*
X95190Y-45961D01*
X95282Y-45999D01*
X95282Y-45999D01*
G37*
G54D19*
X95282Y-45999D02*
X95191Y-46037D01*
X95038Y-46190D01*
X95019Y-46234D01*
X95019Y-45800D01*
X95014Y-45774D01*
X95014Y-45753D01*
X95037Y-45808D01*
X95190Y-45961D01*
X95282Y-45999D01*
G54D10*
G36*
X95651Y-41722D02*
X95608Y-41704D01*
X95392Y-41704D01*
X95191Y-41787D01*
X95038Y-41940D01*
X94954Y-42141D01*
X94954Y-42357D01*
X95037Y-42558D01*
X95050Y-42571D01*
X95050Y-43375D01*
X95026Y-43256D01*
X94986Y-43159D01*
X94985Y-43158D01*
X94878Y-42997D01*
X94877Y-42996D01*
X94803Y-42921D01*
X94641Y-42814D01*
X94641Y-42813D01*
X94569Y-42784D01*
X94569Y-41861D01*
X94621Y-41840D01*
X94767Y-41742D01*
X94842Y-41668D01*
X94842Y-41667D01*
X94939Y-41522D01*
X94939Y-41522D01*
X94980Y-41425D01*
X95014Y-41252D01*
X95014Y-41252D01*
X95038Y-41132D01*
X95075Y-41076D01*
X95133Y-41038D01*
X95225Y-41019D01*
X95525Y-41019D01*
X95454Y-41191D01*
X95454Y-41407D01*
X95537Y-41608D01*
X95651Y-41722D01*
X95651Y-41722D01*
G37*
G54D19*
X95651Y-41722D02*
X95608Y-41704D01*
X95392Y-41704D01*
X95191Y-41787D01*
X95038Y-41940D01*
X94954Y-42141D01*
X94954Y-42357D01*
X95037Y-42558D01*
X95050Y-42571D01*
X95050Y-43375D01*
X95026Y-43256D01*
X94986Y-43159D01*
X94985Y-43158D01*
X94878Y-42997D01*
X94877Y-42996D01*
X94803Y-42921D01*
X94641Y-42814D01*
X94641Y-42813D01*
X94569Y-42784D01*
X94569Y-41861D01*
X94621Y-41840D01*
X94767Y-41742D01*
X94842Y-41668D01*
X94842Y-41667D01*
X94939Y-41522D01*
X94939Y-41522D01*
X94980Y-41425D01*
X95014Y-41252D01*
X95014Y-41252D01*
X95038Y-41132D01*
X95075Y-41076D01*
X95133Y-41038D01*
X95225Y-41019D01*
X95525Y-41019D01*
X95454Y-41191D01*
X95454Y-41407D01*
X95537Y-41608D01*
X95651Y-41722D01*
G54D10*
G36*
X95664Y-44977D02*
X95608Y-44954D01*
X95392Y-44954D01*
X95191Y-45037D01*
X95038Y-45190D01*
X94954Y-45391D01*
X94954Y-45513D01*
X94939Y-45477D01*
X94939Y-45477D01*
X94842Y-45332D01*
X94842Y-45331D01*
X94767Y-45257D01*
X94621Y-45159D01*
X94569Y-45138D01*
X94569Y-44215D01*
X94641Y-44186D01*
X94641Y-44185D01*
X94803Y-44078D01*
X94877Y-44003D01*
X94878Y-44002D01*
X94985Y-43841D01*
X94986Y-43840D01*
X95026Y-43743D01*
X95050Y-43624D01*
X95050Y-43700D01*
X95072Y-43814D01*
X95137Y-43912D01*
X95437Y-44212D01*
X95437Y-44212D01*
X95484Y-44243D01*
X95425Y-44385D01*
X95424Y-44613D01*
X95512Y-44825D01*
X95664Y-44977D01*
X95664Y-44977D01*
G37*
G54D19*
X95664Y-44977D02*
X95608Y-44954D01*
X95392Y-44954D01*
X95191Y-45037D01*
X95038Y-45190D01*
X94954Y-45391D01*
X94954Y-45513D01*
X94939Y-45477D01*
X94939Y-45477D01*
X94842Y-45332D01*
X94842Y-45331D01*
X94767Y-45257D01*
X94621Y-45159D01*
X94569Y-45138D01*
X94569Y-44215D01*
X94641Y-44186D01*
X94641Y-44185D01*
X94803Y-44078D01*
X94877Y-44003D01*
X94878Y-44002D01*
X94985Y-43841D01*
X94986Y-43840D01*
X95026Y-43743D01*
X95050Y-43624D01*
X95050Y-43700D01*
X95072Y-43814D01*
X95137Y-43912D01*
X95437Y-44212D01*
X95437Y-44212D01*
X95484Y-44243D01*
X95425Y-44385D01*
X95424Y-44613D01*
X95512Y-44825D01*
X95664Y-44977D01*
G54D10*
G36*
X95925Y-42914D02*
X95884Y-42914D01*
X95871Y-42920D01*
X95857Y-42920D01*
X95691Y-42989D01*
X95689Y-42995D01*
X95669Y-43003D01*
X95650Y-43022D01*
X95650Y-42778D01*
X95808Y-42712D01*
X95824Y-42697D01*
X95906Y-42896D01*
X95925Y-42914D01*
X95925Y-42914D01*
G37*
G54D19*
X95925Y-42914D02*
X95884Y-42914D01*
X95871Y-42920D01*
X95857Y-42920D01*
X95691Y-42989D01*
X95689Y-42995D01*
X95669Y-43003D01*
X95650Y-43022D01*
X95650Y-42778D01*
X95808Y-42712D01*
X95824Y-42697D01*
X95906Y-42896D01*
X95925Y-42914D01*
G54D10*
G36*
X96014Y-45700D02*
X96007Y-45700D01*
X96010Y-45691D01*
X96014Y-45700D01*
X96014Y-45700D01*
G37*
G54D19*
X96014Y-45700D02*
X96007Y-45700D01*
X96010Y-45691D01*
X96014Y-45700D01*
G54D10*
G36*
X96059Y-46830D02*
X95940Y-46830D01*
X95961Y-46809D01*
X95999Y-46717D01*
X96037Y-46808D01*
X96059Y-46830D01*
X96059Y-46830D01*
G37*
G54D19*
X96059Y-46830D02*
X95940Y-46830D01*
X95961Y-46809D01*
X95999Y-46717D01*
X96037Y-46808D01*
X96059Y-46830D01*
G54D10*
G36*
X96337Y-41733D02*
X96315Y-41785D01*
X96315Y-41818D01*
X96104Y-41906D01*
X95993Y-42016D01*
X95962Y-41941D01*
X95848Y-41827D01*
X95891Y-41845D01*
X96107Y-41845D01*
X96308Y-41762D01*
X96337Y-41733D01*
X96337Y-41733D01*
G37*
G54D19*
X96337Y-41733D02*
X96315Y-41785D01*
X96315Y-41818D01*
X96104Y-41906D01*
X95993Y-42016D01*
X95962Y-41941D01*
X95848Y-41827D01*
X95891Y-41845D01*
X96107Y-41845D01*
X96308Y-41762D01*
X96337Y-41733D01*
G54D10*
G36*
X96964Y-43503D02*
X96964Y-43620D01*
X96960Y-43609D01*
X96900Y-43548D01*
X96900Y-43474D01*
X96964Y-43410D01*
X96964Y-43503D01*
X96964Y-43503D01*
G37*
G54D19*
X96964Y-43503D02*
X96964Y-43620D01*
X96960Y-43609D01*
X96900Y-43548D01*
X96900Y-43474D01*
X96964Y-43410D01*
X96964Y-43503D01*
G54D10*
G36*
X97085Y-44000D02*
X96997Y-44000D01*
X97024Y-43934D01*
X97024Y-43855D01*
X97085Y-44000D01*
X97085Y-44000D01*
G37*
G54D19*
X97085Y-44000D02*
X96997Y-44000D01*
X97024Y-43934D01*
X97024Y-43855D01*
X97085Y-44000D01*
G54D10*
G36*
X97525Y-41019D02*
X97524Y-41024D01*
X97428Y-41087D01*
X97251Y-41265D01*
X97155Y-41225D01*
X96877Y-41225D01*
X96619Y-41331D01*
X96545Y-41405D01*
X96545Y-41192D01*
X96474Y-41019D01*
X97525Y-41019D01*
X97525Y-41019D01*
G37*
G54D19*
X97525Y-41019D02*
X97524Y-41024D01*
X97428Y-41087D01*
X97251Y-41265D01*
X97155Y-41225D01*
X96877Y-41225D01*
X96619Y-41331D01*
X96545Y-41405D01*
X96545Y-41192D01*
X96474Y-41019D01*
X97525Y-41019D01*
G54D10*
G36*
X97742Y-41783D02*
X97715Y-41809D01*
X97715Y-41786D01*
X97708Y-41769D01*
X97742Y-41783D01*
X97742Y-41783D01*
G37*
G54D19*
X97742Y-41783D02*
X97715Y-41809D01*
X97715Y-41786D01*
X97708Y-41769D01*
X97742Y-41783D01*
G54D10*
G36*
X98492Y-41019D02*
X98480Y-41035D01*
X98474Y-41019D01*
X98492Y-41019D01*
X98492Y-41019D01*
G37*
G54D19*
X98492Y-41019D02*
X98480Y-41035D01*
X98474Y-41019D01*
X98492Y-41019D01*
G54D10*
G36*
X99059Y-46830D02*
X96940Y-46830D01*
X96961Y-46809D01*
X97045Y-46608D01*
X97045Y-46392D01*
X97007Y-46300D01*
X98000Y-46300D01*
X98000Y-46299D01*
X98114Y-46277D01*
X98114Y-46277D01*
X98212Y-46212D01*
X98356Y-46068D01*
X98384Y-46079D01*
X98614Y-46080D01*
X98643Y-46068D01*
X98958Y-46382D01*
X98954Y-46391D01*
X98954Y-46607D01*
X99037Y-46808D01*
X99059Y-46830D01*
X99059Y-46830D01*
G37*
G54D19*
X99059Y-46830D02*
X96940Y-46830D01*
X96961Y-46809D01*
X97045Y-46608D01*
X97045Y-46392D01*
X97007Y-46300D01*
X98000Y-46300D01*
X98000Y-46299D01*
X98114Y-46277D01*
X98114Y-46277D01*
X98212Y-46212D01*
X98356Y-46068D01*
X98384Y-46079D01*
X98614Y-46080D01*
X98643Y-46068D01*
X98958Y-46382D01*
X98954Y-46391D01*
X98954Y-46607D01*
X99037Y-46808D01*
X99059Y-46830D01*
G54D10*
G36*
X99787Y-42950D02*
X99691Y-42989D01*
X99689Y-42995D01*
X99669Y-43003D01*
X99504Y-43168D01*
X99495Y-43189D01*
X99489Y-43191D01*
X99454Y-43287D01*
X99415Y-43383D01*
X99415Y-43396D01*
X99410Y-43409D01*
X99414Y-43512D01*
X99414Y-43615D01*
X99420Y-43628D01*
X99420Y-43642D01*
X99489Y-43808D01*
X99495Y-43810D01*
X99503Y-43830D01*
X99668Y-43995D01*
X99689Y-44004D01*
X99689Y-44006D01*
X99674Y-44012D01*
X99512Y-44173D01*
X99425Y-44385D01*
X99424Y-44613D01*
X99512Y-44825D01*
X99661Y-44974D01*
X99399Y-44974D01*
X98862Y-44437D01*
X98764Y-44372D01*
X98650Y-44350D01*
X98613Y-44350D01*
X98876Y-44087D01*
X98879Y-44080D01*
X98882Y-44079D01*
X98957Y-43892D01*
X99034Y-43706D01*
X99034Y-43701D01*
X99036Y-43697D01*
X99035Y-43496D01*
X99035Y-43295D01*
X99033Y-43290D01*
X99033Y-43285D01*
X98882Y-42920D01*
X98880Y-42919D01*
X98877Y-42914D01*
X98587Y-42623D01*
X98580Y-42620D01*
X98579Y-42617D01*
X98392Y-42542D01*
X98206Y-42465D01*
X98201Y-42465D01*
X98197Y-42463D01*
X97996Y-42464D01*
X97909Y-42464D01*
X98174Y-42200D01*
X98452Y-42200D01*
X98454Y-42203D01*
X98670Y-42370D01*
X98934Y-42442D01*
X99031Y-42430D01*
X98975Y-42565D01*
X98974Y-42734D01*
X99039Y-42890D01*
X99158Y-43010D01*
X99315Y-43074D01*
X99484Y-43075D01*
X99640Y-43010D01*
X99701Y-42950D01*
X99787Y-42950D01*
X99787Y-42950D01*
G37*
G54D19*
X99787Y-42950D02*
X99691Y-42989D01*
X99689Y-42995D01*
X99669Y-43003D01*
X99504Y-43168D01*
X99495Y-43189D01*
X99489Y-43191D01*
X99454Y-43287D01*
X99415Y-43383D01*
X99415Y-43396D01*
X99410Y-43409D01*
X99414Y-43512D01*
X99414Y-43615D01*
X99420Y-43628D01*
X99420Y-43642D01*
X99489Y-43808D01*
X99495Y-43810D01*
X99503Y-43830D01*
X99668Y-43995D01*
X99689Y-44004D01*
X99689Y-44006D01*
X99674Y-44012D01*
X99512Y-44173D01*
X99425Y-44385D01*
X99424Y-44613D01*
X99512Y-44825D01*
X99661Y-44974D01*
X99399Y-44974D01*
X98862Y-44437D01*
X98764Y-44372D01*
X98650Y-44350D01*
X98613Y-44350D01*
X98876Y-44087D01*
X98879Y-44080D01*
X98882Y-44079D01*
X98957Y-43892D01*
X99034Y-43706D01*
X99034Y-43701D01*
X99036Y-43697D01*
X99035Y-43496D01*
X99035Y-43295D01*
X99033Y-43290D01*
X99033Y-43285D01*
X98882Y-42920D01*
X98880Y-42919D01*
X98877Y-42914D01*
X98587Y-42623D01*
X98580Y-42620D01*
X98579Y-42617D01*
X98392Y-42542D01*
X98206Y-42465D01*
X98201Y-42465D01*
X98197Y-42463D01*
X97996Y-42464D01*
X97909Y-42464D01*
X98174Y-42200D01*
X98452Y-42200D01*
X98454Y-42203D01*
X98670Y-42370D01*
X98934Y-42442D01*
X99031Y-42430D01*
X98975Y-42565D01*
X98974Y-42734D01*
X99039Y-42890D01*
X99158Y-43010D01*
X99315Y-43074D01*
X99484Y-43075D01*
X99640Y-43010D01*
X99701Y-42950D01*
X99787Y-42950D01*
G54D10*
G36*
X100059Y-46830D02*
X99940Y-46830D01*
X99961Y-46809D01*
X99999Y-46717D01*
X100037Y-46808D01*
X100059Y-46830D01*
X100059Y-46830D01*
G37*
G54D19*
X100059Y-46830D02*
X99940Y-46830D01*
X99961Y-46809D01*
X99999Y-46717D01*
X100037Y-46808D01*
X100059Y-46830D01*
G54D10*
G36*
X100182Y-45046D02*
X100038Y-45190D01*
X100025Y-45221D01*
X100025Y-45175D01*
X99987Y-45083D01*
X99978Y-45074D01*
X100113Y-45075D01*
X100182Y-45046D01*
X100182Y-45046D01*
G37*
G54D19*
X100182Y-45046D02*
X100038Y-45190D01*
X100025Y-45221D01*
X100025Y-45175D01*
X99987Y-45083D01*
X99978Y-45074D01*
X100113Y-45075D01*
X100182Y-45046D01*
G54D10*
G36*
X100282Y-45999D02*
X100191Y-46037D01*
X100038Y-46190D01*
X100000Y-46282D01*
X99962Y-46191D01*
X99809Y-46038D01*
X99778Y-46025D01*
X99824Y-46025D01*
X99916Y-45987D01*
X99986Y-45916D01*
X100024Y-45824D01*
X100024Y-45778D01*
X100037Y-45808D01*
X100190Y-45961D01*
X100282Y-45999D01*
X100282Y-45999D01*
G37*
G54D19*
X100282Y-45999D02*
X100191Y-46037D01*
X100038Y-46190D01*
X100000Y-46282D01*
X99962Y-46191D01*
X99809Y-46038D01*
X99778Y-46025D01*
X99824Y-46025D01*
X99916Y-45987D01*
X99986Y-45916D01*
X100024Y-45824D01*
X100024Y-45778D01*
X100037Y-45808D01*
X100190Y-45961D01*
X100282Y-45999D01*
G54D10*
G36*
X100358Y-44968D02*
X100334Y-44978D01*
X100353Y-44960D01*
X100358Y-44968D01*
X100358Y-44968D01*
G37*
G54D19*
X100358Y-44968D02*
X100334Y-44978D01*
X100353Y-44960D01*
X100358Y-44968D01*
G54D10*
G36*
X101430Y-45088D02*
X101377Y-45110D01*
X101377Y-45110D01*
X101293Y-45166D01*
X101293Y-45166D01*
X101277Y-45085D01*
X101212Y-44987D01*
X101212Y-44987D01*
X100900Y-44675D01*
X100900Y-43250D01*
X100877Y-43135D01*
X100812Y-43037D01*
X100812Y-43037D01*
X100569Y-42795D01*
X100607Y-42795D01*
X100808Y-42712D01*
X100961Y-42559D01*
X101045Y-42358D01*
X101045Y-42142D01*
X100962Y-41941D01*
X100809Y-41788D01*
X100608Y-41704D01*
X100392Y-41704D01*
X100191Y-41787D01*
X100038Y-41940D01*
X99954Y-42141D01*
X99954Y-42350D01*
X99701Y-42350D01*
X99641Y-42289D01*
X99484Y-42225D01*
X99479Y-42225D01*
X99609Y-42056D01*
X99681Y-41793D01*
X99699Y-41532D01*
X99665Y-41261D01*
X99529Y-41024D01*
X99522Y-41019D01*
X100723Y-41019D01*
X100835Y-41041D01*
X100908Y-41090D01*
X100957Y-41164D01*
X100985Y-41302D01*
X100985Y-41303D01*
X101019Y-41473D01*
X101019Y-41474D01*
X101059Y-41571D01*
X101157Y-41717D01*
X101231Y-41792D01*
X101232Y-41792D01*
X101377Y-41889D01*
X101377Y-41889D01*
X101430Y-41911D01*
X101430Y-42784D01*
X101359Y-42813D01*
X101358Y-42814D01*
X101197Y-42921D01*
X101196Y-42922D01*
X101121Y-42996D01*
X101014Y-43158D01*
X101013Y-43158D01*
X100973Y-43256D01*
X100935Y-43447D01*
X100935Y-43500D01*
X100935Y-43552D01*
X100973Y-43743D01*
X101013Y-43841D01*
X101014Y-43841D01*
X101121Y-44003D01*
X101196Y-44077D01*
X101197Y-44078D01*
X101358Y-44185D01*
X101359Y-44186D01*
X101430Y-44215D01*
X101430Y-45088D01*
X101430Y-45088D01*
G37*
G54D19*
X101430Y-45088D02*
X101377Y-45110D01*
X101377Y-45110D01*
X101293Y-45166D01*
X101293Y-45166D01*
X101277Y-45085D01*
X101212Y-44987D01*
X101212Y-44987D01*
X100900Y-44675D01*
X100900Y-43250D01*
X100877Y-43135D01*
X100812Y-43037D01*
X100812Y-43037D01*
X100569Y-42795D01*
X100607Y-42795D01*
X100808Y-42712D01*
X100961Y-42559D01*
X101045Y-42358D01*
X101045Y-42142D01*
X100962Y-41941D01*
X100809Y-41788D01*
X100608Y-41704D01*
X100392Y-41704D01*
X100191Y-41787D01*
X100038Y-41940D01*
X99954Y-42141D01*
X99954Y-42350D01*
X99701Y-42350D01*
X99641Y-42289D01*
X99484Y-42225D01*
X99479Y-42225D01*
X99609Y-42056D01*
X99681Y-41793D01*
X99699Y-41532D01*
X99665Y-41261D01*
X99529Y-41024D01*
X99522Y-41019D01*
X100723Y-41019D01*
X100835Y-41041D01*
X100908Y-41090D01*
X100957Y-41164D01*
X100985Y-41302D01*
X100985Y-41303D01*
X101019Y-41473D01*
X101019Y-41474D01*
X101059Y-41571D01*
X101157Y-41717D01*
X101231Y-41792D01*
X101232Y-41792D01*
X101377Y-41889D01*
X101377Y-41889D01*
X101430Y-41911D01*
X101430Y-42784D01*
X101359Y-42813D01*
X101358Y-42814D01*
X101197Y-42921D01*
X101196Y-42922D01*
X101121Y-42996D01*
X101014Y-43158D01*
X101013Y-43158D01*
X100973Y-43256D01*
X100935Y-43447D01*
X100935Y-43500D01*
X100935Y-43552D01*
X100973Y-43743D01*
X101013Y-43841D01*
X101014Y-43841D01*
X101121Y-44003D01*
X101196Y-44077D01*
X101197Y-44078D01*
X101358Y-44185D01*
X101359Y-44186D01*
X101430Y-44215D01*
X101430Y-45088D01*
M02*
