G04 (created by PCBNEW (2013-may-18)-stable) date Tue 15 Sep 2015 06:47:13 PM EDT*
%MOIN*%
G04 Gerber Fmt 3.4, Leading zero omitted, Abs format*
%FSLAX34Y34*%
G01*
G70*
G90*
G04 APERTURE LIST*
%ADD10C,0.00590551*%
%ADD11C,0.0001*%
%ADD12C,0.065*%
%ADD13C,0.0590551*%
%ADD14R,0.0590551X0.0590551*%
%ADD15C,0.055*%
%ADD16C,0.066*%
%ADD17C,0.09*%
%ADD18C,0.09*%
%ADD19C,0.035*%
%ADD20C,0.01*%
G04 APERTURE END LIST*
G54D10*
G54D11*
G36*
X95002Y-44450D02*
X95002Y-44479D01*
X95002Y-44510D01*
X95002Y-44543D01*
X95001Y-44578D01*
X95001Y-44602D01*
X95001Y-45022D01*
X94998Y-45028D01*
X94993Y-45035D01*
X94987Y-45042D01*
X94979Y-45047D01*
X94970Y-45052D01*
X94960Y-45055D01*
X94960Y-45055D01*
X94959Y-45055D01*
X94957Y-45056D01*
X94955Y-45056D01*
X94951Y-45056D01*
X94947Y-45056D01*
X94942Y-45056D01*
X94935Y-45056D01*
X94927Y-45056D01*
X94918Y-45056D01*
X94907Y-45056D01*
X94895Y-45056D01*
X94891Y-45056D01*
X94891Y-44614D01*
X94891Y-44600D01*
X94891Y-44577D01*
X94891Y-44556D01*
X94891Y-44537D01*
X94891Y-44519D01*
X94891Y-44503D01*
X94891Y-44489D01*
X94891Y-44477D01*
X94891Y-44465D01*
X94891Y-44456D01*
X94891Y-44447D01*
X94890Y-44440D01*
X94890Y-44433D01*
X94890Y-44428D01*
X94890Y-44423D01*
X94890Y-44419D01*
X94889Y-44415D01*
X94889Y-44412D01*
X94888Y-44409D01*
X94888Y-44407D01*
X94887Y-44404D01*
X94887Y-44402D01*
X94886Y-44399D01*
X94886Y-44398D01*
X94880Y-44379D01*
X94872Y-44362D01*
X94863Y-44345D01*
X94851Y-44330D01*
X94838Y-44316D01*
X94823Y-44304D01*
X94810Y-44294D01*
X94795Y-44287D01*
X94779Y-44280D01*
X94776Y-44279D01*
X94772Y-44278D01*
X94769Y-44277D01*
X94766Y-44276D01*
X94763Y-44275D01*
X94760Y-44274D01*
X94757Y-44274D01*
X94753Y-44273D01*
X94749Y-44273D01*
X94744Y-44272D01*
X94739Y-44272D01*
X94732Y-44272D01*
X94725Y-44271D01*
X94717Y-44271D01*
X94707Y-44271D01*
X94695Y-44271D01*
X94682Y-44271D01*
X94668Y-44271D01*
X94651Y-44271D01*
X94633Y-44271D01*
X94625Y-44271D01*
X94507Y-44270D01*
X94507Y-44600D01*
X94507Y-44931D01*
X94625Y-44930D01*
X94644Y-44930D01*
X94661Y-44930D01*
X94676Y-44930D01*
X94689Y-44930D01*
X94700Y-44930D01*
X94710Y-44930D01*
X94719Y-44930D01*
X94726Y-44930D01*
X94732Y-44930D01*
X94737Y-44929D01*
X94741Y-44929D01*
X94744Y-44929D01*
X94747Y-44929D01*
X94749Y-44929D01*
X94751Y-44928D01*
X94753Y-44928D01*
X94753Y-44928D01*
X94772Y-44923D01*
X94790Y-44917D01*
X94807Y-44908D01*
X94823Y-44898D01*
X94837Y-44886D01*
X94850Y-44873D01*
X94861Y-44858D01*
X94871Y-44842D01*
X94879Y-44825D01*
X94885Y-44807D01*
X94886Y-44803D01*
X94887Y-44801D01*
X94887Y-44798D01*
X94888Y-44796D01*
X94888Y-44793D01*
X94889Y-44791D01*
X94889Y-44788D01*
X94889Y-44785D01*
X94890Y-44781D01*
X94890Y-44776D01*
X94890Y-44771D01*
X94890Y-44765D01*
X94891Y-44759D01*
X94891Y-44751D01*
X94891Y-44742D01*
X94891Y-44731D01*
X94891Y-44720D01*
X94891Y-44707D01*
X94891Y-44692D01*
X94891Y-44675D01*
X94891Y-44657D01*
X94891Y-44637D01*
X94891Y-44614D01*
X94891Y-45056D01*
X94881Y-45057D01*
X94866Y-45057D01*
X94849Y-45057D01*
X94830Y-45057D01*
X94810Y-45057D01*
X94787Y-45057D01*
X94763Y-45057D01*
X94736Y-45057D01*
X94707Y-45057D01*
X94704Y-45057D01*
X94681Y-45057D01*
X94658Y-45057D01*
X94636Y-45057D01*
X94614Y-45057D01*
X94593Y-45057D01*
X94574Y-45057D01*
X94555Y-45057D01*
X94537Y-45057D01*
X94521Y-45057D01*
X94506Y-45057D01*
X94493Y-45057D01*
X94481Y-45057D01*
X94471Y-45057D01*
X94463Y-45057D01*
X94456Y-45057D01*
X94452Y-45057D01*
X94449Y-45057D01*
X94449Y-45057D01*
X94437Y-45055D01*
X94426Y-45051D01*
X94416Y-45046D01*
X94408Y-45040D01*
X94407Y-45038D01*
X94403Y-45034D01*
X94400Y-45030D01*
X94398Y-45027D01*
X94398Y-45026D01*
X94395Y-45021D01*
X94395Y-44600D01*
X94395Y-44180D01*
X94399Y-44174D01*
X94403Y-44166D01*
X94410Y-44160D01*
X94418Y-44154D01*
X94427Y-44149D01*
X94437Y-44146D01*
X94438Y-44146D01*
X94440Y-44146D01*
X94444Y-44146D01*
X94450Y-44145D01*
X94458Y-44145D01*
X94468Y-44145D01*
X94479Y-44145D01*
X94492Y-44145D01*
X94506Y-44145D01*
X94521Y-44145D01*
X94537Y-44145D01*
X94555Y-44145D01*
X94573Y-44144D01*
X94592Y-44144D01*
X94612Y-44144D01*
X94632Y-44144D01*
X94653Y-44144D01*
X94673Y-44144D01*
X94694Y-44144D01*
X94715Y-44144D01*
X94736Y-44144D01*
X94757Y-44144D01*
X94777Y-44144D01*
X94797Y-44144D01*
X94817Y-44144D01*
X94835Y-44144D01*
X94853Y-44144D01*
X94870Y-44145D01*
X94886Y-44145D01*
X94900Y-44145D01*
X94914Y-44145D01*
X94925Y-44145D01*
X94936Y-44145D01*
X94944Y-44145D01*
X94950Y-44145D01*
X94955Y-44146D01*
X94958Y-44146D01*
X94958Y-44146D01*
X94969Y-44149D01*
X94979Y-44154D01*
X94987Y-44159D01*
X94993Y-44166D01*
X94998Y-44173D01*
X95000Y-44178D01*
X95000Y-44178D01*
X95000Y-44179D01*
X95000Y-44180D01*
X95001Y-44182D01*
X95001Y-44184D01*
X95001Y-44187D01*
X95001Y-44190D01*
X95001Y-44194D01*
X95001Y-44198D01*
X95001Y-44204D01*
X95001Y-44210D01*
X95001Y-44217D01*
X95001Y-44225D01*
X95001Y-44234D01*
X95001Y-44244D01*
X95001Y-44256D01*
X95002Y-44269D01*
X95002Y-44283D01*
X95002Y-44298D01*
X95002Y-44315D01*
X95002Y-44333D01*
X95002Y-44353D01*
X95002Y-44375D01*
X95002Y-44398D01*
X95002Y-44424D01*
X95002Y-44450D01*
X95002Y-44450D01*
X95002Y-44450D01*
G37*
G36*
X95505Y-44313D02*
X95504Y-44321D01*
X95504Y-44329D01*
X95504Y-44334D01*
X95503Y-44337D01*
X95500Y-44343D01*
X95496Y-44349D01*
X95491Y-44354D01*
X95489Y-44355D01*
X95484Y-44359D01*
X95416Y-44359D01*
X95348Y-44359D01*
X95348Y-44634D01*
X95348Y-44909D01*
X95345Y-44914D01*
X95340Y-44921D01*
X95334Y-44926D01*
X95329Y-44929D01*
X95326Y-44930D01*
X95323Y-44931D01*
X95320Y-44932D01*
X95317Y-44932D01*
X95311Y-44932D01*
X95306Y-44932D01*
X95298Y-44933D01*
X95291Y-44932D01*
X95286Y-44932D01*
X95284Y-44931D01*
X95276Y-44928D01*
X95269Y-44924D01*
X95263Y-44917D01*
X95260Y-44912D01*
X95258Y-44907D01*
X95258Y-44633D01*
X95257Y-44359D01*
X95188Y-44359D01*
X95174Y-44359D01*
X95162Y-44359D01*
X95152Y-44359D01*
X95143Y-44359D01*
X95136Y-44359D01*
X95131Y-44359D01*
X95126Y-44359D01*
X95123Y-44358D01*
X95120Y-44358D01*
X95118Y-44358D01*
X95117Y-44358D01*
X95116Y-44357D01*
X95115Y-44357D01*
X95115Y-44356D01*
X95109Y-44353D01*
X95105Y-44348D01*
X95101Y-44342D01*
X95101Y-44341D01*
X95100Y-44338D01*
X95099Y-44336D01*
X95098Y-44333D01*
X95098Y-44330D01*
X95098Y-44326D01*
X95098Y-44320D01*
X95097Y-44316D01*
X95097Y-44309D01*
X95097Y-44304D01*
X95098Y-44300D01*
X95098Y-44296D01*
X95099Y-44293D01*
X95099Y-44290D01*
X95101Y-44285D01*
X95103Y-44282D01*
X95106Y-44278D01*
X95108Y-44277D01*
X95111Y-44273D01*
X95114Y-44271D01*
X95118Y-44270D01*
X95119Y-44270D01*
X95121Y-44269D01*
X95125Y-44269D01*
X95131Y-44269D01*
X95139Y-44269D01*
X95148Y-44269D01*
X95159Y-44269D01*
X95171Y-44269D01*
X95184Y-44269D01*
X95199Y-44268D01*
X95214Y-44268D01*
X95230Y-44268D01*
X95247Y-44268D01*
X95264Y-44268D01*
X95281Y-44268D01*
X95299Y-44268D01*
X95316Y-44268D01*
X95334Y-44268D01*
X95351Y-44268D01*
X95368Y-44268D01*
X95384Y-44268D01*
X95399Y-44268D01*
X95414Y-44268D01*
X95428Y-44269D01*
X95440Y-44269D01*
X95451Y-44269D01*
X95461Y-44269D01*
X95469Y-44269D01*
X95475Y-44269D01*
X95480Y-44269D01*
X95482Y-44269D01*
X95483Y-44269D01*
X95489Y-44272D01*
X95495Y-44276D01*
X95499Y-44283D01*
X95501Y-44286D01*
X95505Y-44293D01*
X95505Y-44313D01*
X95505Y-44313D01*
X95505Y-44313D01*
G37*
G36*
X94803Y-44759D02*
X94800Y-44769D01*
X94795Y-44782D01*
X94789Y-44794D01*
X94782Y-44804D01*
X94773Y-44814D01*
X94773Y-44814D01*
X94762Y-44824D01*
X94751Y-44832D01*
X94738Y-44838D01*
X94728Y-44841D01*
X94718Y-44845D01*
X94656Y-44845D01*
X94595Y-44845D01*
X94595Y-44774D01*
X94594Y-44754D01*
X94594Y-44732D01*
X94594Y-44709D01*
X94594Y-44684D01*
X94594Y-44658D01*
X94594Y-44631D01*
X94594Y-44604D01*
X94594Y-44578D01*
X94594Y-44552D01*
X94594Y-44526D01*
X94594Y-44500D01*
X94594Y-44476D01*
X94594Y-44454D01*
X94594Y-44433D01*
X94595Y-44427D01*
X94595Y-44356D01*
X94656Y-44356D01*
X94667Y-44356D01*
X94678Y-44356D01*
X94688Y-44356D01*
X94697Y-44356D01*
X94704Y-44356D01*
X94710Y-44356D01*
X94715Y-44357D01*
X94717Y-44357D01*
X94718Y-44357D01*
X94719Y-44357D01*
X94722Y-44358D01*
X94726Y-44359D01*
X94726Y-44360D01*
X94731Y-44361D01*
X94736Y-44363D01*
X94742Y-44365D01*
X94743Y-44366D01*
X94757Y-44373D01*
X94769Y-44383D01*
X94779Y-44393D01*
X94788Y-44406D01*
X94795Y-44419D01*
X94800Y-44432D01*
X94803Y-44442D01*
X94803Y-44600D01*
X94803Y-44759D01*
X94803Y-44759D01*
X94803Y-44759D01*
G37*
G54D12*
X96000Y-44500D03*
X100000Y-44500D03*
G54D13*
X98000Y-41300D03*
G54D14*
X96000Y-41300D03*
X95500Y-45500D03*
G54D13*
X95500Y-42250D03*
G54D14*
X95500Y-46500D03*
G54D13*
X100100Y-41300D03*
X100500Y-42250D03*
G54D14*
X100500Y-45500D03*
G54D15*
X99500Y-45500D03*
X96500Y-45500D03*
G54D13*
X96500Y-46500D03*
G54D14*
X99500Y-46500D03*
G54D16*
X97500Y-45500D03*
X98500Y-45500D03*
G54D17*
X99000Y-41500D02*
X98984Y-41728D01*
G54D18*
X97015Y-41925D03*
X96500Y-42500D03*
G54D13*
X100500Y-46500D03*
G54D19*
X100600Y-44000D03*
X98950Y-44600D03*
X96950Y-44000D03*
X99050Y-44000D03*
X97100Y-44600D03*
G54D20*
X97750Y-41750D02*
X98850Y-42850D01*
X98850Y-42850D02*
X99150Y-42850D01*
X100250Y-42850D02*
X99150Y-42850D01*
X97300Y-41300D02*
X96000Y-41300D01*
X100600Y-43200D02*
X100600Y-44000D01*
X100250Y-42850D02*
X100600Y-43200D01*
X97300Y-41300D02*
X97750Y-41750D01*
X95500Y-46500D02*
X95650Y-46500D01*
X98000Y-46000D02*
X98500Y-45500D01*
X96150Y-46000D02*
X98000Y-46000D01*
X95650Y-46500D02*
X96150Y-46000D01*
X96300Y-44950D02*
X98600Y-44950D01*
X95750Y-45500D02*
X96300Y-44950D01*
X95500Y-45500D02*
X95750Y-45500D01*
X98600Y-44950D02*
X98950Y-44600D01*
X100000Y-44500D02*
X99050Y-44500D01*
X99050Y-44500D02*
X98950Y-44600D01*
X100500Y-45500D02*
X100500Y-45000D01*
X100500Y-45000D02*
X100000Y-44500D01*
X100500Y-46500D02*
X100000Y-46000D01*
X98500Y-46500D02*
X96500Y-46500D01*
X99000Y-46000D02*
X98500Y-46500D01*
X100000Y-46000D02*
X99000Y-46000D01*
X98000Y-41300D02*
X98000Y-41700D01*
X100100Y-41700D02*
X100100Y-41300D01*
X99250Y-42550D02*
X100100Y-41700D01*
X98850Y-42550D02*
X99250Y-42550D01*
X98000Y-41700D02*
X98850Y-42550D01*
X96950Y-44000D02*
X97000Y-44000D01*
X98350Y-44700D02*
X99050Y-44000D01*
X97700Y-44700D02*
X98350Y-44700D01*
X97000Y-44000D02*
X97700Y-44700D01*
X95650Y-44000D02*
X95450Y-43800D01*
X95450Y-43800D02*
X95450Y-42300D01*
X95500Y-42250D02*
X95450Y-42300D01*
X95700Y-44000D02*
X95650Y-44000D01*
X96950Y-44000D02*
X95700Y-44000D01*
X96000Y-44500D02*
X97000Y-44500D01*
X97000Y-44500D02*
X97100Y-44600D01*
G54D10*
G36*
X94954Y-45513D02*
X94939Y-45477D01*
X94939Y-45477D01*
X94887Y-45400D01*
X94954Y-45400D01*
X94954Y-45513D01*
X94954Y-45513D01*
G37*
G54D20*
X94954Y-45513D02*
X94939Y-45477D01*
X94939Y-45477D01*
X94887Y-45400D01*
X94954Y-45400D01*
X94954Y-45513D01*
G54D10*
G36*
X95055Y-46000D02*
X95019Y-46036D01*
X95019Y-45963D01*
X95055Y-46000D01*
X95055Y-46000D01*
G37*
G54D20*
X95055Y-46000D02*
X95019Y-46036D01*
X95019Y-45963D01*
X95055Y-46000D01*
G54D10*
G36*
X95479Y-41704D02*
X95392Y-41704D01*
X95191Y-41787D01*
X95038Y-41940D01*
X94954Y-42141D01*
X94954Y-42357D01*
X95037Y-42558D01*
X95150Y-42671D01*
X95150Y-43800D01*
X95003Y-43800D01*
X95026Y-43743D01*
X95064Y-43552D01*
X95064Y-43552D01*
X95064Y-43552D01*
X95064Y-43552D01*
X95064Y-43500D01*
X95064Y-43447D01*
X95064Y-43447D01*
X95064Y-43447D01*
X95064Y-43447D01*
X95026Y-43256D01*
X94986Y-43159D01*
X94985Y-43158D01*
X94878Y-42997D01*
X94877Y-42996D01*
X94803Y-42921D01*
X94641Y-42814D01*
X94641Y-42813D01*
X94569Y-42784D01*
X94569Y-41861D01*
X94621Y-41840D01*
X94767Y-41742D01*
X94842Y-41668D01*
X94842Y-41667D01*
X94939Y-41522D01*
X94939Y-41522D01*
X94980Y-41425D01*
X95014Y-41252D01*
X95014Y-41252D01*
X95038Y-41132D01*
X95075Y-41076D01*
X95133Y-41038D01*
X95225Y-41019D01*
X95454Y-41019D01*
X95454Y-41054D01*
X95454Y-41644D01*
X95479Y-41704D01*
X95479Y-41704D01*
G37*
G54D20*
X95479Y-41704D02*
X95392Y-41704D01*
X95191Y-41787D01*
X95038Y-41940D01*
X94954Y-42141D01*
X94954Y-42357D01*
X95037Y-42558D01*
X95150Y-42671D01*
X95150Y-43800D01*
X95003Y-43800D01*
X95026Y-43743D01*
X95064Y-43552D01*
X95064Y-43552D01*
X95064Y-43552D01*
X95064Y-43552D01*
X95064Y-43500D01*
X95064Y-43447D01*
X95064Y-43447D01*
X95064Y-43447D01*
X95064Y-43447D01*
X95026Y-43256D01*
X94986Y-43159D01*
X94985Y-43158D01*
X94878Y-42997D01*
X94877Y-42996D01*
X94803Y-42921D01*
X94641Y-42814D01*
X94641Y-42813D01*
X94569Y-42784D01*
X94569Y-41861D01*
X94621Y-41840D01*
X94767Y-41742D01*
X94842Y-41668D01*
X94842Y-41667D01*
X94939Y-41522D01*
X94939Y-41522D01*
X94980Y-41425D01*
X95014Y-41252D01*
X95014Y-41252D01*
X95038Y-41132D01*
X95075Y-41076D01*
X95133Y-41038D01*
X95225Y-41019D01*
X95454Y-41019D01*
X95454Y-41054D01*
X95454Y-41644D01*
X95479Y-41704D01*
G54D10*
G36*
X95925Y-42914D02*
X95884Y-42914D01*
X95871Y-42920D01*
X95857Y-42920D01*
X95750Y-42965D01*
X95750Y-42736D01*
X95808Y-42712D01*
X95824Y-42697D01*
X95906Y-42896D01*
X95925Y-42914D01*
X95925Y-42914D01*
G37*
G54D20*
X95925Y-42914D02*
X95884Y-42914D01*
X95871Y-42920D01*
X95857Y-42920D01*
X95750Y-42965D01*
X95750Y-42736D01*
X95808Y-42712D01*
X95824Y-42697D01*
X95906Y-42896D01*
X95925Y-42914D01*
G54D10*
G36*
X96059Y-46830D02*
X96045Y-46830D01*
X96045Y-46816D01*
X96059Y-46830D01*
X96059Y-46830D01*
G37*
G54D20*
X96059Y-46830D02*
X96045Y-46830D01*
X96045Y-46816D01*
X96059Y-46830D01*
G54D10*
G36*
X96251Y-41845D02*
X96104Y-41906D01*
X95993Y-42016D01*
X95962Y-41941D01*
X95866Y-41845D01*
X96251Y-41845D01*
X96251Y-41845D01*
G37*
G54D20*
X96251Y-41845D02*
X96104Y-41906D01*
X95993Y-42016D01*
X95962Y-41941D01*
X95866Y-41845D01*
X96251Y-41845D01*
G54D10*
G36*
X96975Y-45250D02*
X96970Y-45263D01*
X96964Y-45250D01*
X96975Y-45250D01*
X96975Y-45250D01*
G37*
G54D20*
X96975Y-45250D02*
X96970Y-45263D01*
X96964Y-45250D01*
X96975Y-45250D01*
G54D10*
G36*
X97525Y-41019D02*
X97500Y-41080D01*
X97414Y-41022D01*
X97398Y-41019D01*
X97525Y-41019D01*
X97525Y-41019D01*
G37*
G54D20*
X97525Y-41019D02*
X97500Y-41080D01*
X97414Y-41022D01*
X97398Y-41019D01*
X97525Y-41019D01*
G54D10*
G36*
X98040Y-42464D02*
X97996Y-42464D01*
X97795Y-42464D01*
X97790Y-42466D01*
X97785Y-42466D01*
X97420Y-42617D01*
X97419Y-42619D01*
X97414Y-42622D01*
X97123Y-42912D01*
X97120Y-42919D01*
X97117Y-42920D01*
X97042Y-43107D01*
X96965Y-43293D01*
X96965Y-43298D01*
X96963Y-43302D01*
X96964Y-43503D01*
X96964Y-43575D01*
X96865Y-43574D01*
X96709Y-43639D01*
X96648Y-43700D01*
X96550Y-43700D01*
X96584Y-43616D01*
X96584Y-43603D01*
X96589Y-43590D01*
X96585Y-43487D01*
X96585Y-43384D01*
X96579Y-43371D01*
X96579Y-43357D01*
X96513Y-43200D01*
X96638Y-43200D01*
X96896Y-43093D01*
X97093Y-42897D01*
X97199Y-42639D01*
X97199Y-42606D01*
X97411Y-42518D01*
X97608Y-42322D01*
X97693Y-42117D01*
X98040Y-42464D01*
X98040Y-42464D01*
G37*
G54D20*
X98040Y-42464D02*
X97996Y-42464D01*
X97795Y-42464D01*
X97790Y-42466D01*
X97785Y-42466D01*
X97420Y-42617D01*
X97419Y-42619D01*
X97414Y-42622D01*
X97123Y-42912D01*
X97120Y-42919D01*
X97117Y-42920D01*
X97042Y-43107D01*
X96965Y-43293D01*
X96965Y-43298D01*
X96963Y-43302D01*
X96964Y-43503D01*
X96964Y-43575D01*
X96865Y-43574D01*
X96709Y-43639D01*
X96648Y-43700D01*
X96550Y-43700D01*
X96584Y-43616D01*
X96584Y-43603D01*
X96589Y-43590D01*
X96585Y-43487D01*
X96585Y-43384D01*
X96579Y-43371D01*
X96579Y-43357D01*
X96513Y-43200D01*
X96638Y-43200D01*
X96896Y-43093D01*
X97093Y-42897D01*
X97199Y-42639D01*
X97199Y-42606D01*
X97411Y-42518D01*
X97608Y-42322D01*
X97693Y-42117D01*
X98040Y-42464D01*
G54D10*
G36*
X98492Y-41019D02*
X98480Y-41035D01*
X98474Y-41019D01*
X98492Y-41019D01*
X98492Y-41019D01*
G37*
G54D20*
X98492Y-41019D02*
X98480Y-41035D01*
X98474Y-41019D01*
X98492Y-41019D01*
G54D10*
G36*
X98495Y-46079D02*
X98375Y-46200D01*
X98224Y-46200D01*
X98356Y-46068D01*
X98384Y-46079D01*
X98495Y-46079D01*
X98495Y-46079D01*
G37*
G54D20*
X98495Y-46079D02*
X98375Y-46200D01*
X98224Y-46200D01*
X98356Y-46068D01*
X98384Y-46079D01*
X98495Y-46079D01*
G54D10*
G36*
X98954Y-46830D02*
X96940Y-46830D01*
X96961Y-46809D01*
X96965Y-46800D01*
X98500Y-46800D01*
X98500Y-46799D01*
X98614Y-46777D01*
X98614Y-46777D01*
X98712Y-46712D01*
X98954Y-46469D01*
X98954Y-46830D01*
X98954Y-46830D01*
G37*
G54D20*
X98954Y-46830D02*
X96940Y-46830D01*
X96961Y-46809D01*
X96965Y-46800D01*
X98500Y-46800D01*
X98500Y-46799D01*
X98614Y-46777D01*
X98614Y-46777D01*
X98712Y-46712D01*
X98954Y-46469D01*
X98954Y-46830D01*
G54D10*
G36*
X99625Y-41019D02*
X99584Y-41120D01*
X99529Y-41024D01*
X99522Y-41019D01*
X99625Y-41019D01*
X99625Y-41019D01*
G37*
G54D20*
X99625Y-41019D02*
X99584Y-41120D01*
X99529Y-41024D01*
X99522Y-41019D01*
X99625Y-41019D01*
G54D10*
G36*
X99689Y-44006D02*
X99674Y-44012D01*
X99512Y-44173D01*
X99501Y-44200D01*
X99427Y-44200D01*
X99474Y-44084D01*
X99475Y-43915D01*
X99410Y-43759D01*
X99291Y-43639D01*
X99134Y-43575D01*
X99035Y-43574D01*
X99035Y-43496D01*
X99035Y-43295D01*
X99033Y-43290D01*
X99033Y-43285D01*
X98977Y-43150D01*
X99150Y-43150D01*
X99522Y-43150D01*
X99504Y-43168D01*
X99495Y-43189D01*
X99489Y-43191D01*
X99454Y-43287D01*
X99415Y-43383D01*
X99415Y-43396D01*
X99410Y-43409D01*
X99414Y-43512D01*
X99414Y-43615D01*
X99420Y-43628D01*
X99420Y-43642D01*
X99489Y-43808D01*
X99495Y-43810D01*
X99503Y-43830D01*
X99668Y-43995D01*
X99689Y-44004D01*
X99689Y-44006D01*
X99689Y-44006D01*
G37*
G54D20*
X99689Y-44006D02*
X99674Y-44012D01*
X99512Y-44173D01*
X99501Y-44200D01*
X99427Y-44200D01*
X99474Y-44084D01*
X99475Y-43915D01*
X99410Y-43759D01*
X99291Y-43639D01*
X99134Y-43575D01*
X99035Y-43574D01*
X99035Y-43496D01*
X99035Y-43295D01*
X99033Y-43290D01*
X99033Y-43285D01*
X98977Y-43150D01*
X99150Y-43150D01*
X99522Y-43150D01*
X99504Y-43168D01*
X99495Y-43189D01*
X99489Y-43191D01*
X99454Y-43287D01*
X99415Y-43383D01*
X99415Y-43396D01*
X99410Y-43409D01*
X99414Y-43512D01*
X99414Y-43615D01*
X99420Y-43628D01*
X99420Y-43642D01*
X99489Y-43808D01*
X99495Y-43810D01*
X99503Y-43830D01*
X99668Y-43995D01*
X99689Y-44004D01*
X99689Y-44006D01*
G54D10*
G36*
X99702Y-41673D02*
X99688Y-41686D01*
X99690Y-41661D01*
X99702Y-41673D01*
X99702Y-41673D01*
G37*
G54D20*
X99702Y-41673D02*
X99688Y-41686D01*
X99690Y-41661D01*
X99702Y-41673D01*
G54D10*
G36*
X99987Y-45074D02*
X99954Y-45154D01*
X99954Y-45225D01*
X99945Y-45203D01*
X99797Y-45055D01*
X99604Y-44975D01*
X99396Y-44974D01*
X99203Y-45054D01*
X99055Y-45202D01*
X99029Y-45263D01*
X98991Y-45171D01*
X98897Y-45076D01*
X98949Y-45024D01*
X99034Y-45025D01*
X99190Y-44960D01*
X99310Y-44841D01*
X99327Y-44800D01*
X99501Y-44800D01*
X99512Y-44825D01*
X99673Y-44987D01*
X99885Y-45074D01*
X99987Y-45074D01*
X99987Y-45074D01*
G37*
G54D20*
X99987Y-45074D02*
X99954Y-45154D01*
X99954Y-45225D01*
X99945Y-45203D01*
X99797Y-45055D01*
X99604Y-44975D01*
X99396Y-44974D01*
X99203Y-45054D01*
X99055Y-45202D01*
X99029Y-45263D01*
X98991Y-45171D01*
X98897Y-45076D01*
X98949Y-45024D01*
X99034Y-45025D01*
X99190Y-44960D01*
X99310Y-44841D01*
X99327Y-44800D01*
X99501Y-44800D01*
X99512Y-44825D01*
X99673Y-44987D01*
X99885Y-45074D01*
X99987Y-45074D01*
G54D10*
G36*
X100033Y-42550D02*
X99674Y-42550D01*
X99954Y-42269D01*
X99954Y-42357D01*
X100033Y-42550D01*
X100033Y-42550D01*
G37*
G54D20*
X100033Y-42550D02*
X99674Y-42550D01*
X99954Y-42269D01*
X99954Y-42357D01*
X100033Y-42550D01*
G54D10*
G36*
X100059Y-46830D02*
X100045Y-46830D01*
X100045Y-46816D01*
X100059Y-46830D01*
X100059Y-46830D01*
G37*
G54D20*
X100059Y-46830D02*
X100045Y-46830D01*
X100045Y-46816D01*
X100059Y-46830D01*
G54D10*
G36*
X100980Y-46234D02*
X100962Y-46191D01*
X100816Y-46045D01*
X100844Y-46045D01*
X100936Y-46007D01*
X100980Y-45963D01*
X100980Y-46234D01*
X100980Y-46234D01*
G37*
G54D20*
X100980Y-46234D02*
X100962Y-46191D01*
X100816Y-46045D01*
X100844Y-46045D01*
X100936Y-46007D01*
X100980Y-45963D01*
X100980Y-46234D01*
G54D10*
G36*
X101430Y-45088D02*
X101377Y-45110D01*
X101377Y-45110D01*
X101232Y-45207D01*
X101231Y-45207D01*
X101157Y-45282D01*
X101059Y-45428D01*
X101045Y-45463D01*
X101045Y-45155D01*
X101007Y-45063D01*
X100937Y-44992D01*
X100845Y-44954D01*
X100790Y-44954D01*
X100777Y-44885D01*
X100712Y-44787D01*
X100712Y-44787D01*
X100564Y-44640D01*
X100574Y-44614D01*
X100575Y-44424D01*
X100684Y-44425D01*
X100840Y-44360D01*
X100960Y-44241D01*
X101024Y-44084D01*
X101025Y-43915D01*
X100960Y-43759D01*
X100900Y-43698D01*
X100900Y-43200D01*
X100899Y-43199D01*
X100877Y-43085D01*
X100812Y-42987D01*
X100812Y-42987D01*
X100616Y-42791D01*
X100808Y-42712D01*
X100961Y-42559D01*
X101045Y-42358D01*
X101045Y-42142D01*
X100962Y-41941D01*
X100809Y-41788D01*
X100608Y-41704D01*
X100466Y-41704D01*
X100561Y-41609D01*
X100645Y-41408D01*
X100645Y-41192D01*
X100574Y-41019D01*
X100723Y-41019D01*
X100835Y-41041D01*
X100908Y-41090D01*
X100957Y-41164D01*
X100985Y-41302D01*
X100985Y-41303D01*
X101019Y-41473D01*
X101019Y-41474D01*
X101059Y-41571D01*
X101157Y-41717D01*
X101231Y-41792D01*
X101232Y-41792D01*
X101377Y-41889D01*
X101377Y-41889D01*
X101430Y-41911D01*
X101430Y-42784D01*
X101359Y-42813D01*
X101358Y-42814D01*
X101197Y-42921D01*
X101196Y-42922D01*
X101121Y-42996D01*
X101014Y-43158D01*
X101013Y-43158D01*
X100973Y-43256D01*
X100935Y-43447D01*
X100935Y-43500D01*
X100935Y-43552D01*
X100973Y-43743D01*
X101013Y-43841D01*
X101014Y-43841D01*
X101121Y-44003D01*
X101196Y-44077D01*
X101197Y-44078D01*
X101358Y-44185D01*
X101359Y-44186D01*
X101430Y-44215D01*
X101430Y-45088D01*
X101430Y-45088D01*
G37*
G54D20*
X101430Y-45088D02*
X101377Y-45110D01*
X101377Y-45110D01*
X101232Y-45207D01*
X101231Y-45207D01*
X101157Y-45282D01*
X101059Y-45428D01*
X101045Y-45463D01*
X101045Y-45155D01*
X101007Y-45063D01*
X100937Y-44992D01*
X100845Y-44954D01*
X100790Y-44954D01*
X100777Y-44885D01*
X100712Y-44787D01*
X100712Y-44787D01*
X100564Y-44640D01*
X100574Y-44614D01*
X100575Y-44424D01*
X100684Y-44425D01*
X100840Y-44360D01*
X100960Y-44241D01*
X101024Y-44084D01*
X101025Y-43915D01*
X100960Y-43759D01*
X100900Y-43698D01*
X100900Y-43200D01*
X100899Y-43199D01*
X100877Y-43085D01*
X100812Y-42987D01*
X100812Y-42987D01*
X100616Y-42791D01*
X100808Y-42712D01*
X100961Y-42559D01*
X101045Y-42358D01*
X101045Y-42142D01*
X100962Y-41941D01*
X100809Y-41788D01*
X100608Y-41704D01*
X100466Y-41704D01*
X100561Y-41609D01*
X100645Y-41408D01*
X100645Y-41192D01*
X100574Y-41019D01*
X100723Y-41019D01*
X100835Y-41041D01*
X100908Y-41090D01*
X100957Y-41164D01*
X100985Y-41302D01*
X100985Y-41303D01*
X101019Y-41473D01*
X101019Y-41474D01*
X101059Y-41571D01*
X101157Y-41717D01*
X101231Y-41792D01*
X101232Y-41792D01*
X101377Y-41889D01*
X101377Y-41889D01*
X101430Y-41911D01*
X101430Y-42784D01*
X101359Y-42813D01*
X101358Y-42814D01*
X101197Y-42921D01*
X101196Y-42922D01*
X101121Y-42996D01*
X101014Y-43158D01*
X101013Y-43158D01*
X100973Y-43256D01*
X100935Y-43447D01*
X100935Y-43500D01*
X100935Y-43552D01*
X100973Y-43743D01*
X101013Y-43841D01*
X101014Y-43841D01*
X101121Y-44003D01*
X101196Y-44077D01*
X101197Y-44078D01*
X101358Y-44185D01*
X101359Y-44186D01*
X101430Y-44215D01*
X101430Y-45088D01*
M02*
