G04 (created by PCBNEW (2013-may-18)-stable) date Sun 20 Sep 2015 05:05:06 AM EDT*
%MOIN*%
G04 Gerber Fmt 3.4, Leading zero omitted, Abs format*
%FSLAX34Y34*%
G01*
G70*
G90*
G04 APERTURE LIST*
%ADD10C,0.00590551*%
%ADD11C,0.0001*%
%ADD12C,0.065*%
%ADD13C,0.0590551*%
%ADD14R,0.0590551X0.0590551*%
%ADD15C,0.055*%
%ADD16R,0.035X0.055*%
%ADD17C,0.066*%
%ADD18C,0.09*%
%ADD19C,0.09*%
%ADD20C,0.157*%
%ADD21C,0.067*%
G04 APERTURE END LIST*
G54D10*
G54D11*
G36*
X101494Y-45337D02*
X100506Y-45337D01*
X100477Y-45335D01*
X100449Y-45331D01*
X100422Y-45324D01*
X100396Y-45315D01*
X100372Y-45303D01*
X100349Y-45289D01*
X100327Y-45273D01*
X100307Y-45255D01*
X100289Y-45235D01*
X100273Y-45213D01*
X100259Y-45190D01*
X100247Y-45166D01*
X100238Y-45140D01*
X100231Y-45113D01*
X100227Y-45085D01*
X100225Y-45056D01*
X100225Y-44344D01*
X100227Y-44315D01*
X100231Y-44287D01*
X100238Y-44260D01*
X100247Y-44234D01*
X100259Y-44210D01*
X100273Y-44187D01*
X100289Y-44165D01*
X100307Y-44145D01*
X100327Y-44127D01*
X100349Y-44111D01*
X100372Y-44097D01*
X100396Y-44085D01*
X100422Y-44076D01*
X100449Y-44069D01*
X100477Y-44065D01*
X100506Y-44063D01*
X101494Y-44063D01*
X101523Y-44065D01*
X101551Y-44069D01*
X101578Y-44076D01*
X101604Y-44085D01*
X101628Y-44097D01*
X101651Y-44111D01*
X101673Y-44127D01*
X101693Y-44145D01*
X101711Y-44165D01*
X101727Y-44187D01*
X101741Y-44210D01*
X101753Y-44234D01*
X101762Y-44260D01*
X101769Y-44287D01*
X101773Y-44315D01*
X101775Y-44344D01*
X101775Y-45056D01*
X101773Y-45085D01*
X101769Y-45113D01*
X101762Y-45140D01*
X101753Y-45166D01*
X101741Y-45190D01*
X101727Y-45213D01*
X101711Y-45235D01*
X101693Y-45255D01*
X101673Y-45273D01*
X101651Y-45289D01*
X101628Y-45303D01*
X101604Y-45315D01*
X101578Y-45324D01*
X101551Y-45331D01*
X101523Y-45335D01*
X101494Y-45337D01*
X101494Y-45337D01*
G37*
G54D12*
X96000Y-44500D03*
X100000Y-44500D03*
G54D13*
X98000Y-41300D03*
G54D14*
X96000Y-41300D03*
X95500Y-45500D03*
G54D13*
X95500Y-42250D03*
G54D14*
X95500Y-46500D03*
G54D13*
X100100Y-41300D03*
X100500Y-42250D03*
G54D14*
X100500Y-45500D03*
G54D15*
X99500Y-45500D03*
X96500Y-45500D03*
G54D13*
X96500Y-46500D03*
G54D14*
X99500Y-46500D03*
G54D16*
X97625Y-46450D03*
X98375Y-46450D03*
X97625Y-44700D03*
X98375Y-44700D03*
G54D17*
X97500Y-45500D03*
X98500Y-45500D03*
G54D18*
X99000Y-41500D02*
X98984Y-41728D01*
G54D19*
X97015Y-41925D03*
X96500Y-42500D03*
G54D20*
X98000Y-43500D03*
G54D21*
X96000Y-43500D03*
X100000Y-43500D03*
G54D13*
X100500Y-46500D03*
M02*
