G04 (created by PCBNEW (2013-may-18)-stable) date Sun 20 Sep 2015 02:24:46 AM EDT*
%MOIN*%
G04 Gerber Fmt 3.4, Leading zero omitted, Abs format*
%FSLAX34Y34*%
G01*
G70*
G90*
G04 APERTURE LIST*
%ADD10C,0.00590551*%
%ADD11C,0.0001*%
%ADD12C,0.065*%
%ADD13C,0.0590551*%
%ADD14R,0.0590551X0.0590551*%
%ADD15C,0.055*%
%ADD16C,0.066*%
%ADD17C,0.09*%
%ADD18C,0.09*%
%ADD19C,0.157*%
%ADD20C,0.067*%
G04 APERTURE END LIST*
G54D10*
G54D11*
G36*
X94480Y-45224D02*
X95470Y-45224D01*
X95498Y-45222D01*
X95526Y-45218D01*
X95553Y-45211D01*
X95579Y-45202D01*
X95603Y-45190D01*
X95626Y-45176D01*
X95648Y-45160D01*
X95668Y-45142D01*
X95686Y-45122D01*
X95702Y-45100D01*
X95716Y-45077D01*
X95728Y-45053D01*
X95737Y-45027D01*
X95744Y-45000D01*
X95748Y-44972D01*
X95750Y-44944D01*
X95750Y-44230D01*
X95748Y-44201D01*
X95744Y-44173D01*
X95737Y-44146D01*
X95728Y-44120D01*
X95716Y-44096D01*
X95702Y-44073D01*
X95686Y-44051D01*
X95668Y-44031D01*
X95648Y-44013D01*
X95626Y-43997D01*
X95603Y-43983D01*
X95579Y-43971D01*
X95553Y-43962D01*
X95526Y-43955D01*
X95498Y-43951D01*
X95470Y-43950D01*
X94480Y-43950D01*
X94451Y-43951D01*
X94423Y-43955D01*
X94396Y-43962D01*
X94370Y-43971D01*
X94346Y-43983D01*
X94323Y-43997D01*
X94301Y-44013D01*
X94281Y-44031D01*
X94263Y-44051D01*
X94247Y-44073D01*
X94233Y-44096D01*
X94221Y-44120D01*
X94212Y-44146D01*
X94205Y-44173D01*
X94201Y-44201D01*
X94200Y-44230D01*
X94200Y-44944D01*
X94201Y-44972D01*
X94205Y-45000D01*
X94212Y-45027D01*
X94221Y-45053D01*
X94233Y-45077D01*
X94247Y-45100D01*
X94263Y-45122D01*
X94281Y-45142D01*
X94301Y-45160D01*
X94323Y-45176D01*
X94346Y-45190D01*
X94370Y-45202D01*
X94396Y-45211D01*
X94423Y-45218D01*
X94451Y-45222D01*
X94480Y-45224D01*
X94480Y-45224D01*
G37*
G54D12*
X96000Y-44500D03*
X100000Y-44500D03*
G54D13*
X98000Y-41300D03*
G54D14*
X96000Y-41300D03*
X95500Y-45500D03*
G54D13*
X95500Y-42250D03*
G54D14*
X95500Y-46500D03*
G54D13*
X100100Y-41300D03*
X100500Y-42250D03*
G54D14*
X100500Y-45500D03*
G54D15*
X99500Y-45500D03*
X96500Y-45500D03*
G54D13*
X96500Y-46500D03*
G54D14*
X99500Y-46500D03*
G54D16*
X97500Y-45500D03*
X98500Y-45500D03*
G54D17*
X99000Y-41500D02*
X98984Y-41728D01*
G54D18*
X97015Y-41925D03*
X96500Y-42500D03*
G54D19*
X98000Y-43500D03*
G54D20*
X96000Y-43500D03*
X100000Y-43500D03*
G54D13*
X100500Y-46500D03*
M02*
