M48
INCH,TZ
T1C0.025
T2C0.032
T3C0.035
T4C0.039
T5C0.059
%
G90
G05
T1
X96500Y-44000
X97350Y-44500
X99000Y-44500
X99425Y-42475
X99950Y-42675
T2
X96500Y-45500
X97500Y-45500
X98500Y-45500
X99500Y-45500
T3
X95500Y-42125
X95500Y-45475
X95500Y-46500
X96500Y-46500
X97000Y-41500
X98000Y-41500
X99500Y-46500
X100475Y-45525
X100500Y-42125
X100500Y-46500
T4
X96000Y-44500
X100000Y-44500
T5
X96500Y-42500
X99000Y-41500
T0
M30
