M48
; DRILL file {KiCad 5.1.5} date Di 19 Mai 2020 10:20:16 CEST
; FORMAT={-:-/ absolute / inch / decimal}
; #@! TF.CreationDate,2020-05-19T10:20:16+02:00
; #@! TF.GenerationSoftware,Kicad,Pcbnew,5.1.5
FMAT,2
INCH
T1C0.0250
T2C0.0256
T3C0.0669
T4C0.1161
T5C0.1567
%
G90
G05
T1
X2.626Y-6.497
X2.641Y-6.779
X2.665Y-6.599
X2.717Y-6.759
X2.742Y-6.585
X2.754Y-6.414
X2.776Y-6.294
X2.8Y-6.726
X2.808Y-6.59
X2.818Y-6.449
X2.864Y-6.607
X2.875Y-6.514
X2.912Y-6.743
X2.985Y-6.895
X3.03Y-6.775
X3.057Y-6.551
X3.085Y-6.97
X3.105Y-6.63
X3.113Y-6.304
X3.128Y-6.459
X3.145Y-6.875
X3.187Y-6.504
X3.205Y-6.415
X3.253Y-6.821
X3.261Y-6.604
T2
X3.265Y-6.345
X3.265Y-6.395
X3.265Y-6.445
X3.265Y-6.495
X3.265Y-6.545
X2.675Y-6.345
X2.675Y-6.395
X2.675Y-6.445
X2.675Y-6.495
X2.675Y-6.545
X2.725Y-6.345
X2.775Y-6.345
X2.825Y-6.345
X2.875Y-6.345
X2.675Y-6.935
X2.725Y-6.935
X2.775Y-6.935
X2.825Y-6.935
X2.875Y-6.935
X3.17Y-6.935
X3.165Y-6.345
T3
X2.77Y-6.64
X3.17Y-6.64
T4
X2.87Y-6.84
X3.12Y-6.74
T5
X2.97Y-6.64
T0
M30
