G04 #@! TF.GenerationSoftware,KiCad,Pcbnew,5.1.5*
G04 #@! TF.CreationDate,2020-05-19T10:20:19+02:00*
G04 #@! TF.ProjectId,amoeba-king,616d6f65-6261-42d6-9b69-6e672e6b6963,rev?*
G04 #@! TF.SameCoordinates,Original*
G04 #@! TF.FileFunction,Copper,L2,Bot*
G04 #@! TF.FilePolarity,Positive*
%FSLAX46Y46*%
G04 Gerber Fmt 4.6, Leading zero omitted, Abs format (unit mm)*
G04 Created by KiCad (PCBNEW 5.1.5) date 2020-05-19 10:20:19*
%MOMM*%
%LPD*%
G04 APERTURE LIST*
%ADD10C,0.158750*%
%ADD11C,0.094155*%
%ADD12C,0.150000*%
%ADD13R,2.550000X2.500000*%
%ADD14R,1.000000X1.000000*%
%ADD15O,1.000000X1.000000*%
%ADD16R,0.600000X0.450000*%
%ADD17R,1.800000X0.820000*%
%ADD18C,0.889000*%
%ADD19C,0.254000*%
%ADD20C,0.152400*%
%ADD21C,0.508000*%
%ADD22C,0.203200*%
G04 APERTURE END LIST*
D10*
X83320476Y-175962128D02*
X83222202Y-176385461D01*
X83018095Y-175962128D01*
X82496488Y-176385461D02*
X82859345Y-176385461D01*
X82677916Y-176385461D02*
X82598541Y-175750461D01*
X82670357Y-175841176D01*
X82738392Y-175901652D01*
X82802648Y-175931890D01*
X82216785Y-176324985D02*
X82190327Y-176355223D01*
X82224345Y-176385461D01*
X82250803Y-176355223D01*
X82216785Y-176324985D01*
X82224345Y-176385461D01*
X81721636Y-175750461D02*
X81661160Y-175750461D01*
X81604464Y-175780700D01*
X81578005Y-175810938D01*
X81555327Y-175871414D01*
X81540208Y-175992366D01*
X81559107Y-176143557D01*
X81604464Y-176264509D01*
X81642261Y-176324985D01*
X81676279Y-176355223D01*
X81740535Y-176385461D01*
X81801011Y-176385461D01*
X81857708Y-176355223D01*
X81884166Y-176324985D01*
X81906845Y-176264509D01*
X81921964Y-176143557D01*
X81903065Y-175992366D01*
X81857708Y-175871414D01*
X81819910Y-175810938D01*
X81785892Y-175780700D01*
X81721636Y-175750461D01*
D11*
G36*
X80253119Y-166577236D02*
G01*
X80281417Y-166577148D01*
X80309578Y-166577326D01*
X80337592Y-166577770D01*
X80365450Y-166578480D01*
X80393143Y-166579455D01*
X80420661Y-166580693D01*
X80447995Y-166582196D01*
X80475135Y-166583961D01*
X80502071Y-166585989D01*
X80528795Y-166588279D01*
X80555296Y-166590830D01*
X80581566Y-166593642D01*
X80607595Y-166596714D01*
X80633373Y-166600045D01*
X80658892Y-166603635D01*
X80684140Y-166607484D01*
X80709110Y-166611590D01*
X80733792Y-166615954D01*
X80758176Y-166620574D01*
X80782252Y-166625450D01*
X80806012Y-166630581D01*
X80829446Y-166635967D01*
X80852544Y-166641608D01*
X80875297Y-166647502D01*
X80897695Y-166653649D01*
X80919729Y-166660048D01*
X80941391Y-166666700D01*
X80962669Y-166673602D01*
X80983555Y-166680756D01*
X80975948Y-166704918D01*
X80970104Y-166727891D01*
X80965807Y-166750229D01*
X80962844Y-166772486D01*
X80961001Y-166795217D01*
X80939717Y-166789010D01*
X80918074Y-166782965D01*
X80896082Y-166777087D01*
X80873746Y-166771382D01*
X80851074Y-166765855D01*
X80828073Y-166760512D01*
X80804749Y-166755358D01*
X80781110Y-166750400D01*
X80757164Y-166745642D01*
X80732916Y-166741091D01*
X80708374Y-166736752D01*
X80683545Y-166732630D01*
X80658437Y-166728732D01*
X80633055Y-166725062D01*
X80607408Y-166721627D01*
X80581502Y-166718433D01*
X80555344Y-166715484D01*
X80528942Y-166712786D01*
X80502302Y-166710346D01*
X80475431Y-166708168D01*
X80448337Y-166706258D01*
X80421026Y-166704623D01*
X80393506Y-166703267D01*
X80365784Y-166702196D01*
X80337866Y-166701416D01*
X80309759Y-166700932D01*
X80281472Y-166700751D01*
X80253010Y-166700877D01*
X80224559Y-166701296D01*
X80196304Y-166701991D01*
X80168249Y-166702959D01*
X80140399Y-166704197D01*
X80112762Y-166705702D01*
X80085341Y-166707470D01*
X80058142Y-166709500D01*
X80031170Y-166711787D01*
X80004432Y-166714330D01*
X79977932Y-166717125D01*
X79951676Y-166720169D01*
X79925669Y-166723459D01*
X79899917Y-166726993D01*
X79874425Y-166730767D01*
X79849198Y-166734779D01*
X79824243Y-166739024D01*
X79799563Y-166743502D01*
X79775166Y-166748208D01*
X79751055Y-166753140D01*
X79727237Y-166758294D01*
X79703717Y-166763669D01*
X79680500Y-166769260D01*
X79657592Y-166775065D01*
X79634998Y-166781081D01*
X79612724Y-166787304D01*
X79590775Y-166793733D01*
X79569156Y-166800365D01*
X79547873Y-166807195D01*
X79545963Y-166786218D01*
X79542417Y-166764930D01*
X79537416Y-166743170D01*
X79531142Y-166720778D01*
X79523775Y-166697594D01*
X79544425Y-166690196D01*
X79565465Y-166683017D01*
X79586888Y-166676058D01*
X79608687Y-166669320D01*
X79630852Y-166662805D01*
X79653378Y-166656514D01*
X79676256Y-166650449D01*
X79699478Y-166644612D01*
X79723037Y-166639003D01*
X79746924Y-166633625D01*
X79771134Y-166628479D01*
X79795657Y-166623567D01*
X79820486Y-166618889D01*
X79845613Y-166614448D01*
X79871032Y-166610245D01*
X79896733Y-166606281D01*
X79922710Y-166602559D01*
X79948954Y-166599079D01*
X79975459Y-166595842D01*
X80002216Y-166592852D01*
X80029217Y-166590108D01*
X80056456Y-166587614D01*
X80083924Y-166585369D01*
X80111613Y-166583375D01*
X80139517Y-166581635D01*
X80167627Y-166580150D01*
X80195936Y-166578920D01*
X80224436Y-166577949D01*
X80253119Y-166577236D01*
G37*
X80253119Y-166577236D02*
X80281417Y-166577148D01*
X80309578Y-166577326D01*
X80337592Y-166577770D01*
X80365450Y-166578480D01*
X80393143Y-166579455D01*
X80420661Y-166580693D01*
X80447995Y-166582196D01*
X80475135Y-166583961D01*
X80502071Y-166585989D01*
X80528795Y-166588279D01*
X80555296Y-166590830D01*
X80581566Y-166593642D01*
X80607595Y-166596714D01*
X80633373Y-166600045D01*
X80658892Y-166603635D01*
X80684140Y-166607484D01*
X80709110Y-166611590D01*
X80733792Y-166615954D01*
X80758176Y-166620574D01*
X80782252Y-166625450D01*
X80806012Y-166630581D01*
X80829446Y-166635967D01*
X80852544Y-166641608D01*
X80875297Y-166647502D01*
X80897695Y-166653649D01*
X80919729Y-166660048D01*
X80941391Y-166666700D01*
X80962669Y-166673602D01*
X80983555Y-166680756D01*
X80975948Y-166704918D01*
X80970104Y-166727891D01*
X80965807Y-166750229D01*
X80962844Y-166772486D01*
X80961001Y-166795217D01*
X80939717Y-166789010D01*
X80918074Y-166782965D01*
X80896082Y-166777087D01*
X80873746Y-166771382D01*
X80851074Y-166765855D01*
X80828073Y-166760512D01*
X80804749Y-166755358D01*
X80781110Y-166750400D01*
X80757164Y-166745642D01*
X80732916Y-166741091D01*
X80708374Y-166736752D01*
X80683545Y-166732630D01*
X80658437Y-166728732D01*
X80633055Y-166725062D01*
X80607408Y-166721627D01*
X80581502Y-166718433D01*
X80555344Y-166715484D01*
X80528942Y-166712786D01*
X80502302Y-166710346D01*
X80475431Y-166708168D01*
X80448337Y-166706258D01*
X80421026Y-166704623D01*
X80393506Y-166703267D01*
X80365784Y-166702196D01*
X80337866Y-166701416D01*
X80309759Y-166700932D01*
X80281472Y-166700751D01*
X80253010Y-166700877D01*
X80224559Y-166701296D01*
X80196304Y-166701991D01*
X80168249Y-166702959D01*
X80140399Y-166704197D01*
X80112762Y-166705702D01*
X80085341Y-166707470D01*
X80058142Y-166709500D01*
X80031170Y-166711787D01*
X80004432Y-166714330D01*
X79977932Y-166717125D01*
X79951676Y-166720169D01*
X79925669Y-166723459D01*
X79899917Y-166726993D01*
X79874425Y-166730767D01*
X79849198Y-166734779D01*
X79824243Y-166739024D01*
X79799563Y-166743502D01*
X79775166Y-166748208D01*
X79751055Y-166753140D01*
X79727237Y-166758294D01*
X79703717Y-166763669D01*
X79680500Y-166769260D01*
X79657592Y-166775065D01*
X79634998Y-166781081D01*
X79612724Y-166787304D01*
X79590775Y-166793733D01*
X79569156Y-166800365D01*
X79547873Y-166807195D01*
X79545963Y-166786218D01*
X79542417Y-166764930D01*
X79537416Y-166743170D01*
X79531142Y-166720778D01*
X79523775Y-166697594D01*
X79544425Y-166690196D01*
X79565465Y-166683017D01*
X79586888Y-166676058D01*
X79608687Y-166669320D01*
X79630852Y-166662805D01*
X79653378Y-166656514D01*
X79676256Y-166650449D01*
X79699478Y-166644612D01*
X79723037Y-166639003D01*
X79746924Y-166633625D01*
X79771134Y-166628479D01*
X79795657Y-166623567D01*
X79820486Y-166618889D01*
X79845613Y-166614448D01*
X79871032Y-166610245D01*
X79896733Y-166606281D01*
X79922710Y-166602559D01*
X79948954Y-166599079D01*
X79975459Y-166595842D01*
X80002216Y-166592852D01*
X80029217Y-166590108D01*
X80056456Y-166587614D01*
X80083924Y-166585369D01*
X80111613Y-166583375D01*
X80139517Y-166581635D01*
X80167627Y-166580150D01*
X80195936Y-166578920D01*
X80224436Y-166577949D01*
X80253119Y-166577236D01*
D12*
G36*
X80249014Y-165074243D02*
G01*
X80272639Y-165076137D01*
X80295056Y-165081623D01*
X80315962Y-165090406D01*
X80335057Y-165102192D01*
X80352040Y-165116685D01*
X80366610Y-165133592D01*
X80378466Y-165152617D01*
X80387307Y-165173465D01*
X80392832Y-165195842D01*
X80394741Y-165219454D01*
X80392765Y-165243226D01*
X80387052Y-165265616D01*
X80377927Y-165286354D01*
X80365714Y-165305172D01*
X80350738Y-165321801D01*
X80333322Y-165335971D01*
X80313792Y-165347415D01*
X80292471Y-165355863D01*
X80269684Y-165361047D01*
X80272159Y-165388946D01*
X80274720Y-165417145D01*
X80277381Y-165445601D01*
X80280151Y-165474273D01*
X80283041Y-165503118D01*
X80286062Y-165532093D01*
X80289225Y-165561155D01*
X80292542Y-165590264D01*
X80296022Y-165619375D01*
X80299677Y-165648447D01*
X80303517Y-165677436D01*
X80307554Y-165706302D01*
X80311798Y-165735000D01*
X80316261Y-165763489D01*
X80320953Y-165791727D01*
X80325885Y-165819670D01*
X80331068Y-165847277D01*
X80336512Y-165874504D01*
X80342230Y-165901310D01*
X80348231Y-165927652D01*
X80354527Y-165953487D01*
X80361128Y-165978774D01*
X80368046Y-166003469D01*
X80375290Y-166027530D01*
X80382873Y-166050915D01*
X80390805Y-166073582D01*
X80399097Y-166095487D01*
X80407760Y-166116588D01*
X80416804Y-166136843D01*
X80426241Y-166156210D01*
X80436081Y-166174646D01*
X80446336Y-166192108D01*
X80457016Y-166208554D01*
X80468132Y-166223942D01*
X80479695Y-166238230D01*
X80491716Y-166251373D01*
X80504206Y-166263332D01*
X80517176Y-166274061D01*
X80530636Y-166283521D01*
X80544598Y-166291667D01*
X80559072Y-166298458D01*
X80576086Y-166304560D01*
X80593834Y-166308821D01*
X80612268Y-166311316D01*
X80631342Y-166312118D01*
X80651009Y-166311300D01*
X80671222Y-166308938D01*
X80691934Y-166305103D01*
X80713098Y-166299871D01*
X80734669Y-166293314D01*
X80756597Y-166285507D01*
X80778838Y-166276523D01*
X80801344Y-166266437D01*
X80824067Y-166255321D01*
X80846962Y-166243250D01*
X80869982Y-166230298D01*
X80893078Y-166216537D01*
X80916206Y-166202043D01*
X80939317Y-166186889D01*
X80962365Y-166171148D01*
X80985304Y-166154894D01*
X81008085Y-166138201D01*
X81030663Y-166121143D01*
X81052990Y-166103794D01*
X81075020Y-166086227D01*
X81096706Y-166068516D01*
X81118001Y-166050735D01*
X81138858Y-166032957D01*
X81159230Y-166015257D01*
X81179070Y-165997708D01*
X81198332Y-165980384D01*
X81216969Y-165963359D01*
X81234933Y-165946706D01*
X81252178Y-165930499D01*
X81268658Y-165914813D01*
X81284324Y-165899720D01*
X81299131Y-165885294D01*
X81313031Y-165871610D01*
X81299247Y-165855290D01*
X81288462Y-165836776D01*
X81281436Y-165816301D01*
X81278925Y-165794096D01*
X81281198Y-165771440D01*
X81287721Y-165750316D01*
X81298045Y-165731183D01*
X81311725Y-165714500D01*
X81328314Y-165700725D01*
X81347364Y-165690318D01*
X81368429Y-165683737D01*
X81391063Y-165681441D01*
X81413718Y-165683737D01*
X81434842Y-165690318D01*
X81453975Y-165700725D01*
X81470659Y-165714500D01*
X81484433Y-165731183D01*
X81494841Y-165750316D01*
X81501422Y-165771440D01*
X81503717Y-165794096D01*
X81501422Y-165816729D01*
X81494841Y-165837794D01*
X81484433Y-165856845D01*
X81470659Y-165873433D01*
X81453975Y-165887113D01*
X81434842Y-165897438D01*
X81413718Y-165903960D01*
X81391063Y-165906234D01*
X81369947Y-165906647D01*
X81355025Y-165902338D01*
X81340420Y-165893831D01*
X81124929Y-166256600D01*
X81109570Y-166285825D01*
X81095310Y-166314300D01*
X81082133Y-166342022D01*
X81070019Y-166368988D01*
X81058952Y-166395197D01*
X81048913Y-166420646D01*
X81039885Y-166445333D01*
X81031849Y-166469256D01*
X81024789Y-166492414D01*
X81018686Y-166514802D01*
X81013522Y-166536421D01*
X81009280Y-166557266D01*
X81005942Y-166577337D01*
X81003490Y-166596631D01*
X80981755Y-166590171D01*
X80959661Y-166583884D01*
X80937218Y-166577775D01*
X80914432Y-166571850D01*
X80891313Y-166566113D01*
X80867867Y-166560572D01*
X80844103Y-166555230D01*
X80820030Y-166550095D01*
X80795655Y-166545170D01*
X80770986Y-166540462D01*
X80746032Y-166535976D01*
X80720801Y-166531718D01*
X80695300Y-166527693D01*
X80669539Y-166523906D01*
X80643524Y-166520363D01*
X80617264Y-166517071D01*
X80590767Y-166514033D01*
X80564042Y-166511256D01*
X80537096Y-166508745D01*
X80509937Y-166506505D01*
X80482574Y-166504543D01*
X80455015Y-166502863D01*
X80427267Y-166501471D01*
X80399340Y-166500373D01*
X80371240Y-166499574D01*
X80342976Y-166499080D01*
X80314556Y-166498895D01*
X80285989Y-166499027D01*
X80257282Y-166499479D01*
X80228219Y-166499795D01*
X80199364Y-166500394D01*
X80170720Y-166501274D01*
X80142291Y-166502432D01*
X80114081Y-166503862D01*
X80086094Y-166505563D01*
X80058335Y-166507530D01*
X80030806Y-166509760D01*
X80003513Y-166512250D01*
X79976459Y-166514995D01*
X79949647Y-166517993D01*
X79923083Y-166521240D01*
X79896770Y-166524732D01*
X79870711Y-166528465D01*
X79844912Y-166532437D01*
X79819376Y-166536644D01*
X79794106Y-166541083D01*
X79769108Y-166545749D01*
X79744384Y-166550639D01*
X79719939Y-166555750D01*
X79695777Y-166561078D01*
X79671902Y-166566620D01*
X79648317Y-166572372D01*
X79625028Y-166578330D01*
X79602037Y-166584492D01*
X79579349Y-166590853D01*
X79556968Y-166597411D01*
X79534897Y-166604161D01*
X79513141Y-166611100D01*
X79509923Y-166591604D01*
X79506083Y-166571466D01*
X79501548Y-166550676D01*
X79496239Y-166529219D01*
X79490082Y-166507083D01*
X79483000Y-166484255D01*
X79474918Y-166460723D01*
X79465760Y-166436474D01*
X79455449Y-166411494D01*
X79443909Y-166385772D01*
X79431066Y-166359295D01*
X79416842Y-166332050D01*
X79401162Y-166304023D01*
X79383950Y-166275203D01*
X79167943Y-165905717D01*
X79151778Y-165913702D01*
X79134449Y-165919815D01*
X79116266Y-165922253D01*
X79093611Y-165919980D01*
X79072487Y-165913457D01*
X79053354Y-165903133D01*
X79036670Y-165889453D01*
X79022896Y-165872864D01*
X79012488Y-165853814D01*
X79005907Y-165832749D01*
X79003612Y-165810115D01*
X79005907Y-165787460D01*
X79012488Y-165766336D01*
X79022896Y-165747203D01*
X79036670Y-165730520D01*
X79053354Y-165716745D01*
X79072487Y-165706337D01*
X79093611Y-165699756D01*
X79116266Y-165697461D01*
X79138900Y-165699756D01*
X79159965Y-165706337D01*
X79179015Y-165716745D01*
X79195604Y-165730520D01*
X79209284Y-165747203D01*
X79219608Y-165766336D01*
X79226131Y-165787460D01*
X79228404Y-165810115D01*
X79225648Y-165830654D01*
X79218255Y-165850906D01*
X79207539Y-165870012D01*
X79194814Y-165887113D01*
X79208519Y-165900188D01*
X79223175Y-165914033D01*
X79238734Y-165928571D01*
X79255146Y-165943728D01*
X79272364Y-165959429D01*
X79290338Y-165975599D01*
X79309020Y-165992162D01*
X79328361Y-166009043D01*
X79348312Y-166026169D01*
X79368825Y-166043462D01*
X79389851Y-166060848D01*
X79411342Y-166078253D01*
X79433247Y-166095600D01*
X79455520Y-166112815D01*
X79478111Y-166129822D01*
X79500971Y-166146547D01*
X79524053Y-166162915D01*
X79547306Y-166178850D01*
X79570682Y-166194277D01*
X79594134Y-166209121D01*
X79617611Y-166223307D01*
X79641065Y-166236760D01*
X79664448Y-166249404D01*
X79687711Y-166261165D01*
X79710806Y-166271968D01*
X79733682Y-166281737D01*
X79756293Y-166290397D01*
X79778588Y-166297873D01*
X79800520Y-166304091D01*
X79822040Y-166308974D01*
X79843098Y-166312448D01*
X79863647Y-166314437D01*
X79883638Y-166314868D01*
X79903021Y-166313663D01*
X79921749Y-166310749D01*
X79939772Y-166306050D01*
X79957042Y-166299491D01*
X79971865Y-166279394D01*
X79986096Y-166258869D01*
X79999748Y-166237932D01*
X80012836Y-166216602D01*
X80025373Y-166194897D01*
X80037374Y-166172833D01*
X80048851Y-166150428D01*
X80059819Y-166127701D01*
X80070292Y-166104668D01*
X80080282Y-166081347D01*
X80089806Y-166057756D01*
X80098875Y-166033913D01*
X80107504Y-166009834D01*
X80115706Y-165985538D01*
X80123497Y-165961043D01*
X80130888Y-165936365D01*
X80137895Y-165911522D01*
X80144531Y-165886533D01*
X80150809Y-165861414D01*
X80156744Y-165836184D01*
X80162350Y-165810859D01*
X80167640Y-165785458D01*
X80172628Y-165759998D01*
X80177328Y-165734496D01*
X80181753Y-165708971D01*
X80185918Y-165683440D01*
X80189837Y-165657920D01*
X80193523Y-165632429D01*
X80196990Y-165606984D01*
X80200252Y-165581604D01*
X80203322Y-165556306D01*
X80206215Y-165531107D01*
X80208945Y-165506026D01*
X80211524Y-165481079D01*
X80213968Y-165456284D01*
X80216289Y-165431659D01*
X80218502Y-165407222D01*
X80220621Y-165382990D01*
X80222659Y-165358980D01*
X80198371Y-165354846D01*
X80182416Y-165350464D01*
X80166074Y-165341631D01*
X80150119Y-165328781D01*
X80135326Y-165312348D01*
X80122472Y-165292764D01*
X80112330Y-165270465D01*
X80105676Y-165245884D01*
X80103286Y-165219454D01*
X80105195Y-165195842D01*
X80110720Y-165173465D01*
X80119561Y-165152617D01*
X80131417Y-165133592D01*
X80145987Y-165116685D01*
X80162970Y-165102192D01*
X80182065Y-165090406D01*
X80202971Y-165081623D01*
X80225388Y-165076137D01*
X80249014Y-165074243D01*
G37*
D13*
X82798000Y-171196000D03*
X69348000Y-173736000D03*
D14*
X80518000Y-176149000D03*
X80391000Y-161163000D03*
D15*
X69215000Y-161163000D03*
X70485000Y-161163000D03*
X71755000Y-161163000D03*
D14*
X73025000Y-161163000D03*
D15*
X82931000Y-161163000D03*
X82931000Y-162433000D03*
X82931000Y-163703000D03*
X82931000Y-164973000D03*
D14*
X82931000Y-166243000D03*
D15*
X67945000Y-161163000D03*
X67945000Y-162433000D03*
X67945000Y-163703000D03*
X67945000Y-164973000D03*
D14*
X67945000Y-166243000D03*
D15*
X67945000Y-176149000D03*
X69215000Y-176149000D03*
X70485000Y-176149000D03*
X71755000Y-176149000D03*
D14*
X73025000Y-176149000D03*
D16*
X67479200Y-170611800D03*
X69579200Y-170611800D03*
D17*
X72888000Y-162826000D03*
X72888000Y-164326000D03*
X77988000Y-164326000D03*
X77988000Y-162826000D03*
D18*
X69646800Y-167259000D03*
X73964800Y-171272200D03*
X78867000Y-168402000D03*
X79070200Y-160121600D03*
X82829400Y-167741600D03*
X76962000Y-172085000D03*
X82626200Y-173253400D03*
X66700400Y-165023800D03*
X67081400Y-172186600D03*
X70510400Y-159867600D03*
X72745600Y-167817800D03*
X67691000Y-167614600D03*
X71120000Y-170840400D03*
X78359000Y-177038000D03*
X81407000Y-162941000D03*
X79883000Y-174625000D03*
X75819000Y-175133000D03*
X79451200Y-164058600D03*
X71323200Y-167386000D03*
X71577200Y-163804600D03*
X80949800Y-165201600D03*
X73025000Y-165455600D03*
X69951600Y-162915600D03*
X69011800Y-171678600D03*
X77647800Y-166395400D03*
D19*
X73634600Y-161163000D02*
X74156090Y-161684490D01*
X73025000Y-161163000D02*
X73634600Y-161163000D01*
X72888000Y-161300000D02*
X73025000Y-161163000D01*
X72888000Y-162773200D02*
X72888000Y-161300000D01*
X72888000Y-162826000D02*
X72888000Y-162773200D01*
X72825200Y-162763200D02*
X72888000Y-162826000D01*
X82049999Y-162044001D02*
X82431001Y-161662999D01*
X82431001Y-161662999D02*
X82931000Y-161163000D01*
X79586199Y-162044001D02*
X82049999Y-162044001D01*
X79226688Y-161684490D02*
X79586199Y-162044001D01*
X74156090Y-161684490D02*
X79226688Y-161684490D01*
X80518000Y-176149000D02*
X74041000Y-176149000D01*
X70984999Y-176648999D02*
X70485000Y-176149000D01*
X71366001Y-177030001D02*
X70984999Y-176648999D01*
X73829801Y-177030001D02*
X71366001Y-177030001D01*
X74041000Y-176818802D02*
X73829801Y-177030001D01*
X74041000Y-176149000D02*
X74041000Y-176818802D01*
X70984999Y-160663001D02*
X70485000Y-161163000D01*
X73829801Y-160281999D02*
X71366001Y-160281999D01*
X74710802Y-161163000D02*
X73829801Y-160281999D01*
X71366001Y-160281999D02*
X70984999Y-160663001D01*
X80391000Y-161163000D02*
X74710802Y-161163000D01*
X69215000Y-176149000D02*
X70002400Y-176936400D01*
X70002400Y-176936400D02*
X70205600Y-177139600D01*
X69215000Y-176149000D02*
X68466883Y-175400883D01*
D20*
X68382201Y-175316201D02*
X68466883Y-175400883D01*
X67848801Y-175316201D02*
X68382201Y-175316201D01*
X67563210Y-175030610D02*
X67848801Y-175316201D01*
X67030600Y-172440600D02*
X67563210Y-172973210D01*
X67563210Y-172973210D02*
X67563210Y-175030610D01*
X68356801Y-175316201D02*
X68453000Y-175316201D01*
X68425581Y-175400883D02*
X68343497Y-175318799D01*
X68466883Y-175400883D02*
X68425581Y-175400883D01*
D21*
X68166842Y-162433000D02*
X67945000Y-162433000D01*
X69215000Y-161163000D02*
X69138800Y-161163000D01*
X69138800Y-161163000D02*
X68953001Y-161348799D01*
X68953001Y-161348799D02*
X68953001Y-161646841D01*
X68953001Y-161646841D02*
X68166842Y-162433000D01*
D19*
X79183800Y-164326000D02*
X79451200Y-164058600D01*
X77988000Y-164326000D02*
X79183800Y-164326000D01*
D21*
X71577200Y-167132000D02*
X71323200Y-167386000D01*
X71590600Y-164326000D02*
X71577200Y-164312600D01*
X71577200Y-163804600D02*
X71577200Y-164312600D01*
X72888000Y-164326000D02*
X71590600Y-164326000D01*
X72098600Y-164326000D02*
X71577200Y-163804600D01*
X72888000Y-164326000D02*
X72098600Y-164326000D01*
X71995600Y-164326000D02*
X71577200Y-164744400D01*
X72888000Y-164326000D02*
X71995600Y-164326000D01*
X71577200Y-164312600D02*
X71577200Y-164744400D01*
X71577200Y-164744400D02*
X71577200Y-167132000D01*
D19*
X72825200Y-162763200D02*
X72825200Y-162763200D01*
X70688190Y-163471868D02*
X71334058Y-162826000D01*
X70688190Y-166846227D02*
X70688190Y-163471868D01*
X70275417Y-167259000D02*
X70688190Y-166846227D01*
X71334058Y-162826000D02*
X72888000Y-162826000D01*
X69646800Y-167259000D02*
X70275417Y-167259000D01*
X69654200Y-170611800D02*
X69579200Y-170611800D01*
X71004001Y-175629999D02*
X71004001Y-171961601D01*
X71004001Y-171961601D02*
X69654200Y-170611800D01*
X70485000Y-176149000D02*
X71004001Y-175629999D01*
X68922899Y-162725101D02*
X70485000Y-161163000D01*
X68922899Y-166761159D02*
X68922899Y-162725101D01*
X69579200Y-169699082D02*
X69126999Y-169246881D01*
X68821299Y-166862759D02*
X68922899Y-166761159D01*
X69579200Y-170611800D02*
X69579200Y-169699082D01*
X69126999Y-169246881D02*
X69126999Y-167960941D01*
X68821299Y-167655241D02*
X68821299Y-166862759D01*
X69126999Y-167960941D02*
X68821299Y-167655241D01*
X82798000Y-171196000D02*
X82798000Y-171190000D01*
X82798000Y-169692000D02*
X82798000Y-171196000D01*
X82003899Y-168897899D02*
X82798000Y-169692000D01*
X82931000Y-163703000D02*
X82003899Y-164630101D01*
X79013017Y-167309800D02*
X81991200Y-167309800D01*
X78174817Y-166471600D02*
X79013017Y-167309800D01*
X77546200Y-166471600D02*
X78174817Y-166471600D01*
X82003899Y-164630101D02*
X81991200Y-167309800D01*
X81991200Y-167309800D02*
X82003899Y-168897899D01*
X68224400Y-172612400D02*
X69348000Y-173736000D01*
X67479200Y-171362658D02*
X67906901Y-171790359D01*
X67479200Y-170611800D02*
X67479200Y-171362658D01*
X67906901Y-172294901D02*
X69348000Y-173736000D01*
X67906901Y-171790359D02*
X67906901Y-172294901D01*
D22*
G36*
X79660680Y-176649000D02*
G01*
X79667546Y-176718710D01*
X79687879Y-176785740D01*
X79720899Y-176847516D01*
X79765337Y-176901663D01*
X79819484Y-176946101D01*
X79881260Y-176979121D01*
X79948290Y-176999454D01*
X80018000Y-177006320D01*
X80895315Y-177006320D01*
X80895315Y-177014817D01*
X80842790Y-177113602D01*
X80828788Y-177147573D01*
X80814299Y-177181379D01*
X80812624Y-177186789D01*
X80776804Y-177305429D01*
X80769660Y-177341510D01*
X80762021Y-177377451D01*
X80761429Y-177383083D01*
X80749336Y-177506420D01*
X80749336Y-177506422D01*
X80741124Y-177590177D01*
X80728292Y-177632679D01*
X80707454Y-177671869D01*
X80679394Y-177706274D01*
X80645194Y-177734567D01*
X80606141Y-177755682D01*
X80563735Y-177768809D01*
X80501031Y-177775400D01*
X77060862Y-177775400D01*
X76991916Y-177558053D01*
X76977444Y-177524288D01*
X76963425Y-177490276D01*
X76960732Y-177485295D01*
X76841324Y-177268092D01*
X76820563Y-177237773D01*
X76800211Y-177207141D01*
X76796602Y-177202777D01*
X76637279Y-177012905D01*
X76611020Y-176987191D01*
X76585112Y-176961101D01*
X76580723Y-176957521D01*
X76387556Y-176802210D01*
X76356803Y-176782086D01*
X76326317Y-176761523D01*
X76321317Y-176758864D01*
X76101662Y-176644032D01*
X76070891Y-176631600D01*
X79660680Y-176631600D01*
X79660680Y-176649000D01*
G37*
X79660680Y-176649000D02*
X79667546Y-176718710D01*
X79687879Y-176785740D01*
X79720899Y-176847516D01*
X79765337Y-176901663D01*
X79819484Y-176946101D01*
X79881260Y-176979121D01*
X79948290Y-176999454D01*
X80018000Y-177006320D01*
X80895315Y-177006320D01*
X80895315Y-177014817D01*
X80842790Y-177113602D01*
X80828788Y-177147573D01*
X80814299Y-177181379D01*
X80812624Y-177186789D01*
X80776804Y-177305429D01*
X80769660Y-177341510D01*
X80762021Y-177377451D01*
X80761429Y-177383083D01*
X80749336Y-177506420D01*
X80749336Y-177506422D01*
X80741124Y-177590177D01*
X80728292Y-177632679D01*
X80707454Y-177671869D01*
X80679394Y-177706274D01*
X80645194Y-177734567D01*
X80606141Y-177755682D01*
X80563735Y-177768809D01*
X80501031Y-177775400D01*
X77060862Y-177775400D01*
X76991916Y-177558053D01*
X76977444Y-177524288D01*
X76963425Y-177490276D01*
X76960732Y-177485295D01*
X76841324Y-177268092D01*
X76820563Y-177237773D01*
X76800211Y-177207141D01*
X76796602Y-177202777D01*
X76637279Y-177012905D01*
X76611020Y-176987191D01*
X76585112Y-176961101D01*
X76580723Y-176957521D01*
X76387556Y-176802210D01*
X76356803Y-176782086D01*
X76326317Y-176761523D01*
X76321317Y-176758864D01*
X76101662Y-176644032D01*
X76070891Y-176631600D01*
X79660680Y-176631600D01*
X79660680Y-176649000D01*
G36*
X70079721Y-176907223D02*
G01*
X70235431Y-176971720D01*
X70400731Y-177004600D01*
X70569269Y-177004600D01*
X70643363Y-176989862D01*
X71007984Y-177354483D01*
X71023100Y-177372902D01*
X71096586Y-177433210D01*
X71180424Y-177478023D01*
X71271395Y-177505618D01*
X71342294Y-177512601D01*
X71342295Y-177512601D01*
X71366000Y-177514936D01*
X71389705Y-177512601D01*
X73806096Y-177512601D01*
X73829801Y-177514936D01*
X73853506Y-177512601D01*
X73853508Y-177512601D01*
X73905344Y-177507496D01*
X73891696Y-177540609D01*
X73877214Y-177574399D01*
X73875539Y-177579809D01*
X73816486Y-177775400D01*
X70377832Y-177775400D01*
X70313823Y-177769124D01*
X70271321Y-177756292D01*
X70232131Y-177735454D01*
X70197726Y-177707394D01*
X70169433Y-177673194D01*
X70148318Y-177634141D01*
X70135191Y-177591735D01*
X70126861Y-177512491D01*
X70126915Y-177504804D01*
X70126363Y-177499168D01*
X70113408Y-177375917D01*
X70106011Y-177339885D01*
X70099127Y-177303799D01*
X70097491Y-177298377D01*
X70060844Y-177179989D01*
X70046590Y-177146080D01*
X70032827Y-177112016D01*
X70030169Y-177107015D01*
X69971225Y-176998000D01*
X69953668Y-176971971D01*
X70043007Y-176882692D01*
X70079721Y-176907223D01*
G37*
X70079721Y-176907223D02*
X70235431Y-176971720D01*
X70400731Y-177004600D01*
X70569269Y-177004600D01*
X70643363Y-176989862D01*
X71007984Y-177354483D01*
X71023100Y-177372902D01*
X71096586Y-177433210D01*
X71180424Y-177478023D01*
X71271395Y-177505618D01*
X71342294Y-177512601D01*
X71342295Y-177512601D01*
X71366000Y-177514936D01*
X71389705Y-177512601D01*
X73806096Y-177512601D01*
X73829801Y-177514936D01*
X73853506Y-177512601D01*
X73853508Y-177512601D01*
X73905344Y-177507496D01*
X73891696Y-177540609D01*
X73877214Y-177574399D01*
X73875539Y-177579809D01*
X73816486Y-177775400D01*
X70377832Y-177775400D01*
X70313823Y-177769124D01*
X70271321Y-177756292D01*
X70232131Y-177735454D01*
X70197726Y-177707394D01*
X70169433Y-177673194D01*
X70148318Y-177634141D01*
X70135191Y-177591735D01*
X70126861Y-177512491D01*
X70126915Y-177504804D01*
X70126363Y-177499168D01*
X70113408Y-177375917D01*
X70106011Y-177339885D01*
X70099127Y-177303799D01*
X70097491Y-177298377D01*
X70060844Y-177179989D01*
X70046590Y-177146080D01*
X70032827Y-177112016D01*
X70030169Y-177107015D01*
X69971225Y-176998000D01*
X69953668Y-176971971D01*
X70043007Y-176882692D01*
X70079721Y-176907223D01*
G36*
X69367400Y-175996600D02*
G01*
X69387400Y-175996600D01*
X69387400Y-176301400D01*
X69367400Y-176301400D01*
X69367400Y-176321400D01*
X69062600Y-176321400D01*
X69062600Y-176301400D01*
X69042600Y-176301400D01*
X69042600Y-175996600D01*
X69062600Y-175996600D01*
X69062600Y-175976600D01*
X69367400Y-175976600D01*
X69367400Y-175996600D01*
G37*
X69367400Y-175996600D02*
X69387400Y-175996600D01*
X69387400Y-176301400D01*
X69367400Y-176301400D01*
X69367400Y-176321400D01*
X69062600Y-176321400D01*
X69062600Y-176301400D01*
X69042600Y-176301400D01*
X69042600Y-175996600D01*
X69062600Y-175996600D01*
X69062600Y-175976600D01*
X69367400Y-175976600D01*
X69367400Y-175996600D01*
G36*
X79562492Y-162526601D02*
G01*
X79562493Y-162526601D01*
X79586198Y-162528936D01*
X79609903Y-162526601D01*
X81821400Y-162526601D01*
X81821400Y-162585402D01*
X81986009Y-162585402D01*
X81869288Y-162755458D01*
X81952237Y-162955736D01*
X82073024Y-163136639D01*
X82197308Y-163261007D01*
X82172777Y-163297721D01*
X82108280Y-163453431D01*
X82075400Y-163618731D01*
X82075400Y-163787269D01*
X82090138Y-163861363D01*
X81680226Y-164271275D01*
X81662627Y-164285579D01*
X81646696Y-164304805D01*
X81645886Y-164305615D01*
X81631566Y-164323065D01*
X81601972Y-164358779D01*
X81601424Y-164359793D01*
X81600691Y-164360686D01*
X81578794Y-164401651D01*
X81556762Y-164442404D01*
X81556422Y-164443505D01*
X81555877Y-164444525D01*
X81542406Y-164488934D01*
X81528736Y-164533243D01*
X81528617Y-164534393D01*
X81528283Y-164535495D01*
X81523739Y-164581629D01*
X81521417Y-164604108D01*
X81521412Y-164605253D01*
X81518964Y-164630101D01*
X81521187Y-164652668D01*
X81517911Y-165343904D01*
X81486904Y-165337481D01*
X81454509Y-165330485D01*
X81451616Y-165330171D01*
X81451530Y-165330153D01*
X81451445Y-165330152D01*
X81449573Y-165329949D01*
X81426918Y-165327653D01*
X81393453Y-165327544D01*
X81360118Y-165327190D01*
X81357617Y-165327426D01*
X81357517Y-165327426D01*
X81357420Y-165327445D01*
X81355175Y-165327657D01*
X81332541Y-165329953D01*
X81299875Y-165336535D01*
X81267139Y-165342868D01*
X81264597Y-165343643D01*
X81264507Y-165343661D01*
X81264423Y-165343696D01*
X81262389Y-165344316D01*
X81241324Y-165350897D01*
X81211315Y-165363604D01*
X81181255Y-165375900D01*
X81177457Y-165377940D01*
X81177416Y-165377957D01*
X81177383Y-165377979D01*
X81176881Y-165378249D01*
X81157831Y-165388656D01*
X81131523Y-165406567D01*
X81104986Y-165424002D01*
X81101144Y-165427147D01*
X81084554Y-165440922D01*
X81062415Y-165463298D01*
X81039926Y-165485205D01*
X81036751Y-165489022D01*
X81023070Y-165505705D01*
X81005479Y-165532030D01*
X80987486Y-165557966D01*
X80985097Y-165562319D01*
X80974773Y-165581452D01*
X80962309Y-165611174D01*
X80949450Y-165640663D01*
X80947951Y-165645397D01*
X80941429Y-165666521D01*
X80934834Y-165698762D01*
X80927905Y-165731005D01*
X80927536Y-165734436D01*
X80927520Y-165734514D01*
X80927520Y-165734589D01*
X80927374Y-165735942D01*
X80926312Y-165746532D01*
X80924787Y-165747881D01*
X80906925Y-165763399D01*
X80888682Y-165778949D01*
X80870281Y-165794314D01*
X80851693Y-165809494D01*
X80832993Y-165824405D01*
X80814375Y-165838873D01*
X80795814Y-165852896D01*
X80777405Y-165866385D01*
X80759270Y-165879235D01*
X80741539Y-165891345D01*
X80724258Y-165902676D01*
X80711478Y-165910684D01*
X80709536Y-165904234D01*
X80704397Y-165885890D01*
X80699336Y-165866501D01*
X80694350Y-165846043D01*
X80689492Y-165824716D01*
X80684764Y-165802552D01*
X80680167Y-165779559D01*
X80675734Y-165755944D01*
X80671445Y-165731644D01*
X80667308Y-165706743D01*
X80663350Y-165681477D01*
X80659542Y-165655725D01*
X80655856Y-165629368D01*
X80652350Y-165602898D01*
X80648969Y-165576005D01*
X80645727Y-165548880D01*
X80643050Y-165525380D01*
X80645091Y-165522613D01*
X80661268Y-165502907D01*
X80664000Y-165498761D01*
X80676213Y-165479943D01*
X80688245Y-165456715D01*
X80701380Y-165434102D01*
X80703411Y-165429572D01*
X80712536Y-165408833D01*
X80720878Y-165383387D01*
X80730351Y-165358336D01*
X80731612Y-165353534D01*
X80737325Y-165331144D01*
X80741442Y-165304285D01*
X80746697Y-165277628D01*
X80747143Y-165272683D01*
X80749119Y-165248911D01*
X80748725Y-165222316D01*
X80749550Y-165195749D01*
X80749184Y-165190798D01*
X80747275Y-165167186D01*
X80742626Y-165141405D01*
X80739221Y-165115431D01*
X80738065Y-165110602D01*
X80732540Y-165088225D01*
X80723942Y-165063903D01*
X80716592Y-165039218D01*
X80714686Y-165034633D01*
X80705845Y-165013785D01*
X80693747Y-164991577D01*
X80682857Y-164968777D01*
X80680261Y-164964545D01*
X80668405Y-164945520D01*
X80653241Y-164925780D01*
X80639199Y-164905236D01*
X80635984Y-164901452D01*
X80621414Y-164884545D01*
X80603516Y-164867473D01*
X80586628Y-164849441D01*
X80582874Y-164846191D01*
X80565892Y-164831698D01*
X80545542Y-164817514D01*
X80526037Y-164802229D01*
X80521830Y-164799592D01*
X80502736Y-164787806D01*
X80480177Y-164776762D01*
X80458259Y-164764518D01*
X80453695Y-164762563D01*
X80432789Y-164753780D01*
X80408380Y-164746230D01*
X80384401Y-164737430D01*
X80379586Y-164736216D01*
X80357169Y-164730730D01*
X80331468Y-164727048D01*
X80306003Y-164722106D01*
X80301056Y-164721674D01*
X80277431Y-164719780D01*
X80251480Y-164720240D01*
X80225550Y-164719418D01*
X80220598Y-164719780D01*
X80196972Y-164721674D01*
X80171415Y-164726265D01*
X80145690Y-164729584D01*
X80140859Y-164730730D01*
X80118441Y-164736216D01*
X80094332Y-164744683D01*
X80069829Y-164751889D01*
X80065238Y-164753780D01*
X80044332Y-164762563D01*
X80022228Y-164774508D01*
X79999534Y-164785228D01*
X79995291Y-164787806D01*
X79976196Y-164799592D01*
X79956460Y-164814618D01*
X79935935Y-164828502D01*
X79932135Y-164831699D01*
X79915152Y-164846191D01*
X79897997Y-164864004D01*
X79879880Y-164880807D01*
X79876613Y-164884545D01*
X79862043Y-164901452D01*
X79847708Y-164921807D01*
X79832278Y-164941324D01*
X79829622Y-164945519D01*
X79817766Y-164964545D01*
X79806550Y-164987209D01*
X79794152Y-165009228D01*
X79792182Y-165013786D01*
X79783341Y-165034633D01*
X79775637Y-165059245D01*
X79766712Y-165083413D01*
X79765487Y-165088225D01*
X79759962Y-165110602D01*
X79756191Y-165136549D01*
X79751187Y-165162240D01*
X79750752Y-165167186D01*
X79748843Y-165190798D01*
X79749318Y-165218679D01*
X79748719Y-165246531D01*
X79749131Y-165251479D01*
X79751521Y-165277910D01*
X79756841Y-165305887D01*
X79761166Y-165333998D01*
X79762430Y-165338800D01*
X79769084Y-165363381D01*
X79778434Y-165388065D01*
X79786613Y-165413153D01*
X79788637Y-165417687D01*
X79798779Y-165439986D01*
X79811247Y-165461532D01*
X79822492Y-165483717D01*
X79825187Y-165487887D01*
X79838042Y-165507472D01*
X79849339Y-165521483D01*
X79847399Y-165537470D01*
X79844453Y-165560390D01*
X79841385Y-165582910D01*
X79838119Y-165605496D01*
X79834693Y-165627806D01*
X79831071Y-165650004D01*
X79827284Y-165671854D01*
X79823288Y-165693539D01*
X79819086Y-165714988D01*
X79814661Y-165736234D01*
X79810067Y-165756987D01*
X79805212Y-165777629D01*
X79800183Y-165797749D01*
X79794902Y-165817637D01*
X79789419Y-165837075D01*
X79783714Y-165856125D01*
X79777774Y-165874801D01*
X79771648Y-165892945D01*
X79769403Y-165899212D01*
X79763756Y-165895638D01*
X79745771Y-165883769D01*
X79727392Y-165871174D01*
X79708802Y-165857991D01*
X79690075Y-165844290D01*
X79671137Y-165830033D01*
X79652339Y-165815503D01*
X79633654Y-165800706D01*
X79615036Y-165785628D01*
X79596733Y-165770493D01*
X79580436Y-165756754D01*
X79579955Y-165751961D01*
X79573471Y-165719599D01*
X79567332Y-165687295D01*
X79566336Y-165683987D01*
X79566321Y-165683912D01*
X79566292Y-165683843D01*
X79565900Y-165682540D01*
X79559377Y-165661417D01*
X79546923Y-165631732D01*
X79534883Y-165601858D01*
X79532556Y-165597472D01*
X79522232Y-165578339D01*
X79504548Y-165552073D01*
X79487380Y-165525587D01*
X79484259Y-165521725D01*
X79470579Y-165505042D01*
X79448340Y-165482765D01*
X79426572Y-165460141D01*
X79422775Y-165456942D01*
X79406186Y-165443167D01*
X79379849Y-165425332D01*
X79353851Y-165407094D01*
X79349511Y-165404683D01*
X79330461Y-165394275D01*
X79300468Y-165381513D01*
X79270734Y-165368430D01*
X79266643Y-165367120D01*
X79266600Y-165367102D01*
X79266559Y-165367093D01*
X79266005Y-165366916D01*
X79244940Y-165360335D01*
X79212228Y-165353531D01*
X79179709Y-165346506D01*
X79177085Y-165346221D01*
X79176993Y-165346202D01*
X79176901Y-165346201D01*
X79174772Y-165345970D01*
X79152139Y-165343675D01*
X79118685Y-165343564D01*
X79085370Y-165343206D01*
X79082831Y-165343445D01*
X79082738Y-165343445D01*
X79082647Y-165343463D01*
X79080426Y-165343672D01*
X79057771Y-165345967D01*
X79025203Y-165352525D01*
X78992591Y-165358807D01*
X78989823Y-165359649D01*
X78989736Y-165359666D01*
X78989656Y-165359699D01*
X78987841Y-165360251D01*
X78966717Y-165366831D01*
X78936872Y-165379440D01*
X78906940Y-165391622D01*
X78902810Y-165393831D01*
X78902787Y-165393841D01*
X78902768Y-165393854D01*
X78902562Y-165393964D01*
X78883429Y-165404372D01*
X78857230Y-165422140D01*
X78830803Y-165439397D01*
X78826952Y-165442531D01*
X78810268Y-165456306D01*
X78788150Y-165478536D01*
X78765642Y-165500313D01*
X78762454Y-165504120D01*
X78748681Y-165520802D01*
X78731015Y-165547047D01*
X78712927Y-165572933D01*
X78710523Y-165577278D01*
X78700115Y-165596411D01*
X78687491Y-165626229D01*
X78674492Y-165655836D01*
X78673067Y-165660300D01*
X78673058Y-165660321D01*
X78673054Y-165660341D01*
X78672982Y-165660566D01*
X78666401Y-165681690D01*
X78659644Y-165714307D01*
X78652653Y-165746684D01*
X78652341Y-165749560D01*
X78652323Y-165749648D01*
X78652322Y-165749736D01*
X78652118Y-165751620D01*
X78649823Y-165774275D01*
X78649715Y-165807695D01*
X78649360Y-165841044D01*
X78649599Y-165843583D01*
X78649599Y-165843676D01*
X78649617Y-165843766D01*
X78649826Y-165845988D01*
X78652121Y-165868621D01*
X78658706Y-165901310D01*
X78665038Y-165934039D01*
X78665807Y-165936561D01*
X78665826Y-165936656D01*
X78665863Y-165936744D01*
X78666486Y-165938789D01*
X78673067Y-165959854D01*
X78685760Y-165989832D01*
X78698076Y-166019936D01*
X78700110Y-166023722D01*
X78700127Y-166023762D01*
X78700149Y-166023794D01*
X78700426Y-166024310D01*
X78710834Y-166043360D01*
X78728743Y-166069663D01*
X78746165Y-166096183D01*
X78749310Y-166100025D01*
X78763084Y-166116614D01*
X78785469Y-166138763D01*
X78807383Y-166161259D01*
X78811200Y-166164434D01*
X78827884Y-166178114D01*
X78854191Y-166195692D01*
X78880137Y-166213692D01*
X78884490Y-166216081D01*
X78903623Y-166226405D01*
X78933361Y-166238876D01*
X78956772Y-166249085D01*
X79076962Y-166454673D01*
X79077009Y-166454738D01*
X79078652Y-166457534D01*
X79093288Y-166482041D01*
X79103989Y-166501167D01*
X79113414Y-166519221D01*
X79121635Y-166536169D01*
X79128805Y-166552149D01*
X79135004Y-166567168D01*
X79139349Y-166578672D01*
X79138227Y-166581398D01*
X79136532Y-166589981D01*
X79133557Y-166598204D01*
X79128933Y-166628458D01*
X79123000Y-166658498D01*
X79123004Y-166667245D01*
X79121683Y-166675890D01*
X79123024Y-166706466D01*
X79123039Y-166737087D01*
X79123097Y-166737381D01*
X78532834Y-166147118D01*
X78517718Y-166128699D01*
X78444232Y-166068391D01*
X78360394Y-166023578D01*
X78359723Y-166023375D01*
X78356839Y-166016411D01*
X78269278Y-165885366D01*
X78157834Y-165773922D01*
X78026789Y-165686361D01*
X77881180Y-165626048D01*
X77726603Y-165595300D01*
X77568997Y-165595300D01*
X77414420Y-165626048D01*
X77268811Y-165686361D01*
X77137766Y-165773922D01*
X77026322Y-165885366D01*
X76938761Y-166016411D01*
X76878448Y-166162020D01*
X76847700Y-166316597D01*
X76847700Y-166474203D01*
X76878448Y-166628780D01*
X76938761Y-166774389D01*
X77026322Y-166905434D01*
X77137766Y-167016878D01*
X77268811Y-167104439D01*
X77414420Y-167164752D01*
X77568997Y-167195500D01*
X77726603Y-167195500D01*
X77881180Y-167164752D01*
X78026789Y-167104439D01*
X78085756Y-167065039D01*
X78655005Y-167634287D01*
X78670116Y-167652701D01*
X78743602Y-167713009D01*
X78807635Y-167747236D01*
X78827440Y-167757822D01*
X78918410Y-167785417D01*
X79013017Y-167794735D01*
X79036724Y-167792400D01*
X79676625Y-167792400D01*
X79581550Y-167887475D01*
X79449611Y-168084934D01*
X79358731Y-168304340D01*
X79312400Y-168537259D01*
X79312400Y-168774741D01*
X79358731Y-169007660D01*
X79449611Y-169227066D01*
X79559479Y-169391494D01*
X79428298Y-169365400D01*
X79067702Y-169365400D01*
X78714034Y-169435749D01*
X78380886Y-169573744D01*
X78081061Y-169774081D01*
X77826081Y-170029061D01*
X77625744Y-170328886D01*
X77487749Y-170662034D01*
X77417400Y-171015702D01*
X77417400Y-171376298D01*
X77487749Y-171729966D01*
X77625744Y-172063114D01*
X77826081Y-172362939D01*
X78081061Y-172617919D01*
X78380886Y-172818256D01*
X78714034Y-172956251D01*
X79067702Y-173026600D01*
X79428298Y-173026600D01*
X79781966Y-172956251D01*
X80115114Y-172818256D01*
X80414939Y-172617919D01*
X80669919Y-172362939D01*
X80870256Y-172063114D01*
X81008251Y-171729966D01*
X81078600Y-171376298D01*
X81078600Y-171015702D01*
X81008251Y-170662034D01*
X80870256Y-170328886D01*
X80669919Y-170029061D01*
X80502458Y-169861600D01*
X80636741Y-169861600D01*
X80869660Y-169815269D01*
X81089066Y-169724389D01*
X81286525Y-169592450D01*
X81454450Y-169424525D01*
X81586389Y-169227066D01*
X81607501Y-169176096D01*
X81632074Y-169205555D01*
X81645886Y-169222385D01*
X81647252Y-169223751D01*
X81663751Y-169243531D01*
X81680784Y-169257283D01*
X82012181Y-169588680D01*
X81523000Y-169588680D01*
X81453290Y-169595546D01*
X81386260Y-169615879D01*
X81324484Y-169648899D01*
X81270337Y-169693337D01*
X81225899Y-169747484D01*
X81192879Y-169809260D01*
X81172546Y-169876290D01*
X81165680Y-169946000D01*
X81165680Y-172446000D01*
X81172546Y-172515710D01*
X81192879Y-172582740D01*
X81225899Y-172644516D01*
X81270337Y-172698663D01*
X81324484Y-172743101D01*
X81386260Y-172776121D01*
X81453290Y-172796454D01*
X81523000Y-172803320D01*
X83871465Y-172803320D01*
X83780000Y-172852775D01*
X83749534Y-172873325D01*
X83718763Y-172893462D01*
X83714374Y-172897041D01*
X83618884Y-172976037D01*
X83592992Y-173002111D01*
X83566716Y-173027842D01*
X83563106Y-173032205D01*
X83484778Y-173128244D01*
X83464448Y-173158844D01*
X83443665Y-173189197D01*
X83440972Y-173194178D01*
X83382790Y-173303602D01*
X83368788Y-173337573D01*
X83354299Y-173371379D01*
X83352624Y-173376789D01*
X83316804Y-173495429D01*
X83309660Y-173531510D01*
X83302021Y-173567451D01*
X83301429Y-173573083D01*
X83289336Y-173696422D01*
X83289336Y-173696432D01*
X83287401Y-173716079D01*
X83287400Y-175245712D01*
X80895315Y-175245712D01*
X80895315Y-175291680D01*
X80018000Y-175291680D01*
X79948290Y-175298546D01*
X79881260Y-175318879D01*
X79819484Y-175351899D01*
X79765337Y-175396337D01*
X79720899Y-175450484D01*
X79687879Y-175512260D01*
X79667546Y-175579290D01*
X79660680Y-175649000D01*
X79660680Y-175666400D01*
X74064707Y-175666400D01*
X74041000Y-175664065D01*
X74017293Y-175666400D01*
X73946394Y-175673383D01*
X73882320Y-175692819D01*
X73882320Y-175649000D01*
X73875454Y-175579290D01*
X73855121Y-175512260D01*
X73822101Y-175450484D01*
X73777663Y-175396337D01*
X73742617Y-175367575D01*
X73765114Y-175358256D01*
X74064939Y-175157919D01*
X74319919Y-174902939D01*
X74520256Y-174603114D01*
X74658251Y-174269966D01*
X74728600Y-173916298D01*
X74728600Y-173555702D01*
X74658251Y-173202034D01*
X74520256Y-172868886D01*
X74319919Y-172569061D01*
X74064939Y-172314081D01*
X73765114Y-172113744D01*
X73431966Y-171975749D01*
X73078298Y-171905400D01*
X72717702Y-171905400D01*
X72364034Y-171975749D01*
X72030886Y-172113744D01*
X71731061Y-172314081D01*
X71486601Y-172558541D01*
X71486601Y-171985308D01*
X71488936Y-171961601D01*
X71479618Y-171866994D01*
X71452023Y-171776024D01*
X71409117Y-171695754D01*
X71407210Y-171692186D01*
X71346902Y-171618700D01*
X71328489Y-171603589D01*
X70236520Y-170511621D01*
X70236520Y-170386800D01*
X70229654Y-170317090D01*
X70209321Y-170250060D01*
X70176301Y-170188284D01*
X70131863Y-170134137D01*
X70077716Y-170089699D01*
X70061800Y-170081192D01*
X70061800Y-169826301D01*
X70239259Y-169861600D01*
X70476741Y-169861600D01*
X70709660Y-169815269D01*
X70929066Y-169724389D01*
X71126525Y-169592450D01*
X71294450Y-169424525D01*
X71426389Y-169227066D01*
X71517269Y-169007660D01*
X71563600Y-168774741D01*
X71563600Y-168537259D01*
X71541265Y-168424970D01*
X73092310Y-168424970D01*
X73092310Y-168887030D01*
X73182453Y-169340213D01*
X73359276Y-169767101D01*
X73615983Y-170151290D01*
X73942710Y-170478017D01*
X74326899Y-170734724D01*
X74753787Y-170911547D01*
X75206970Y-171001690D01*
X75669030Y-171001690D01*
X76122213Y-170911547D01*
X76549101Y-170734724D01*
X76933290Y-170478017D01*
X77260017Y-170151290D01*
X77516724Y-169767101D01*
X77693547Y-169340213D01*
X77783690Y-168887030D01*
X77783690Y-168424970D01*
X77693547Y-167971787D01*
X77516724Y-167544899D01*
X77260017Y-167160710D01*
X76933290Y-166833983D01*
X76549101Y-166577276D01*
X76122213Y-166400453D01*
X75669030Y-166310310D01*
X75206970Y-166310310D01*
X74753787Y-166400453D01*
X74326899Y-166577276D01*
X73942710Y-166833983D01*
X73615983Y-167160710D01*
X73359276Y-167544899D01*
X73182453Y-167971787D01*
X73092310Y-168424970D01*
X71541265Y-168424970D01*
X71517269Y-168304340D01*
X71463247Y-168173918D01*
X71556580Y-168155352D01*
X71702189Y-168095039D01*
X71833234Y-168007478D01*
X71944678Y-167896034D01*
X72032239Y-167764989D01*
X72092552Y-167619380D01*
X72123300Y-167464803D01*
X72123300Y-167403495D01*
X72143121Y-167366412D01*
X72177979Y-167251502D01*
X72186800Y-167161941D01*
X72186800Y-167161940D01*
X72189749Y-167132001D01*
X72186800Y-167102062D01*
X72186800Y-165093320D01*
X73387561Y-165093320D01*
X73389748Y-165115703D01*
X73389848Y-165116034D01*
X73389882Y-165116374D01*
X73401445Y-165154367D01*
X73412883Y-165192177D01*
X73413043Y-165192477D01*
X73413144Y-165192809D01*
X73431911Y-165227843D01*
X73450491Y-165262668D01*
X73450710Y-165262935D01*
X73450871Y-165263236D01*
X73475829Y-165293591D01*
X73501129Y-165324468D01*
X73501397Y-165324688D01*
X73501613Y-165324951D01*
X73532068Y-165349898D01*
X73562851Y-165375200D01*
X73563155Y-165375363D01*
X73563420Y-165375580D01*
X73598404Y-165394239D01*
X73633284Y-165412917D01*
X73633612Y-165413017D01*
X73633916Y-165413179D01*
X73671784Y-165424628D01*
X73709722Y-165436169D01*
X73710066Y-165436203D01*
X73710393Y-165436302D01*
X73749600Y-165440128D01*
X73769307Y-165442084D01*
X73769652Y-165442084D01*
X73789910Y-165444061D01*
X73809487Y-165442115D01*
X77068921Y-165444624D01*
X77089000Y-165446602D01*
X77128824Y-165442680D01*
X77168203Y-165438832D01*
X77168354Y-165438786D01*
X77168510Y-165438771D01*
X77206920Y-165427119D01*
X77244677Y-165415697D01*
X77244813Y-165415624D01*
X77244966Y-165415578D01*
X77280260Y-165396713D01*
X77315168Y-165378089D01*
X77315291Y-165377988D01*
X77315428Y-165377915D01*
X77346287Y-165352591D01*
X77376968Y-165327451D01*
X77377066Y-165327332D01*
X77377190Y-165327230D01*
X77403140Y-165295609D01*
X77427700Y-165265729D01*
X77427772Y-165265594D01*
X77427875Y-165265469D01*
X77447251Y-165229220D01*
X77465417Y-165195296D01*
X77465461Y-165195151D01*
X77465538Y-165195007D01*
X77477563Y-165155367D01*
X77488669Y-165118858D01*
X77488684Y-165118705D01*
X77488731Y-165118551D01*
X77491216Y-165093320D01*
X78888000Y-165093320D01*
X78957710Y-165086454D01*
X79024740Y-165066121D01*
X79086516Y-165033101D01*
X79140663Y-164988663D01*
X79185101Y-164934516D01*
X79218121Y-164872740D01*
X79230917Y-164830557D01*
X79372397Y-164858700D01*
X79530003Y-164858700D01*
X79684580Y-164827952D01*
X79830189Y-164767639D01*
X79961234Y-164680078D01*
X80072678Y-164568634D01*
X80160239Y-164437589D01*
X80220552Y-164291980D01*
X80251300Y-164137403D01*
X80251300Y-163979797D01*
X80220552Y-163825220D01*
X80160239Y-163679611D01*
X80072678Y-163548566D01*
X79961234Y-163437122D01*
X79830189Y-163349561D01*
X79684580Y-163289248D01*
X79530003Y-163258500D01*
X79498334Y-163258500D01*
X79500550Y-163236000D01*
X79497600Y-163130800D01*
X79345200Y-162978400D01*
X78140400Y-162978400D01*
X78140400Y-162998400D01*
X77835600Y-162998400D01*
X77835600Y-162978400D01*
X77494600Y-162978400D01*
X77494600Y-162673600D01*
X77835600Y-162673600D01*
X77835600Y-162653600D01*
X78140400Y-162653600D01*
X78140400Y-162673600D01*
X79345200Y-162673600D01*
X79497600Y-162521200D01*
X79497628Y-162520212D01*
X79562492Y-162526601D01*
G37*
X79562492Y-162526601D02*
X79562493Y-162526601D01*
X79586198Y-162528936D01*
X79609903Y-162526601D01*
X81821400Y-162526601D01*
X81821400Y-162585402D01*
X81986009Y-162585402D01*
X81869288Y-162755458D01*
X81952237Y-162955736D01*
X82073024Y-163136639D01*
X82197308Y-163261007D01*
X82172777Y-163297721D01*
X82108280Y-163453431D01*
X82075400Y-163618731D01*
X82075400Y-163787269D01*
X82090138Y-163861363D01*
X81680226Y-164271275D01*
X81662627Y-164285579D01*
X81646696Y-164304805D01*
X81645886Y-164305615D01*
X81631566Y-164323065D01*
X81601972Y-164358779D01*
X81601424Y-164359793D01*
X81600691Y-164360686D01*
X81578794Y-164401651D01*
X81556762Y-164442404D01*
X81556422Y-164443505D01*
X81555877Y-164444525D01*
X81542406Y-164488934D01*
X81528736Y-164533243D01*
X81528617Y-164534393D01*
X81528283Y-164535495D01*
X81523739Y-164581629D01*
X81521417Y-164604108D01*
X81521412Y-164605253D01*
X81518964Y-164630101D01*
X81521187Y-164652668D01*
X81517911Y-165343904D01*
X81486904Y-165337481D01*
X81454509Y-165330485D01*
X81451616Y-165330171D01*
X81451530Y-165330153D01*
X81451445Y-165330152D01*
X81449573Y-165329949D01*
X81426918Y-165327653D01*
X81393453Y-165327544D01*
X81360118Y-165327190D01*
X81357617Y-165327426D01*
X81357517Y-165327426D01*
X81357420Y-165327445D01*
X81355175Y-165327657D01*
X81332541Y-165329953D01*
X81299875Y-165336535D01*
X81267139Y-165342868D01*
X81264597Y-165343643D01*
X81264507Y-165343661D01*
X81264423Y-165343696D01*
X81262389Y-165344316D01*
X81241324Y-165350897D01*
X81211315Y-165363604D01*
X81181255Y-165375900D01*
X81177457Y-165377940D01*
X81177416Y-165377957D01*
X81177383Y-165377979D01*
X81176881Y-165378249D01*
X81157831Y-165388656D01*
X81131523Y-165406567D01*
X81104986Y-165424002D01*
X81101144Y-165427147D01*
X81084554Y-165440922D01*
X81062415Y-165463298D01*
X81039926Y-165485205D01*
X81036751Y-165489022D01*
X81023070Y-165505705D01*
X81005479Y-165532030D01*
X80987486Y-165557966D01*
X80985097Y-165562319D01*
X80974773Y-165581452D01*
X80962309Y-165611174D01*
X80949450Y-165640663D01*
X80947951Y-165645397D01*
X80941429Y-165666521D01*
X80934834Y-165698762D01*
X80927905Y-165731005D01*
X80927536Y-165734436D01*
X80927520Y-165734514D01*
X80927520Y-165734589D01*
X80927374Y-165735942D01*
X80926312Y-165746532D01*
X80924787Y-165747881D01*
X80906925Y-165763399D01*
X80888682Y-165778949D01*
X80870281Y-165794314D01*
X80851693Y-165809494D01*
X80832993Y-165824405D01*
X80814375Y-165838873D01*
X80795814Y-165852896D01*
X80777405Y-165866385D01*
X80759270Y-165879235D01*
X80741539Y-165891345D01*
X80724258Y-165902676D01*
X80711478Y-165910684D01*
X80709536Y-165904234D01*
X80704397Y-165885890D01*
X80699336Y-165866501D01*
X80694350Y-165846043D01*
X80689492Y-165824716D01*
X80684764Y-165802552D01*
X80680167Y-165779559D01*
X80675734Y-165755944D01*
X80671445Y-165731644D01*
X80667308Y-165706743D01*
X80663350Y-165681477D01*
X80659542Y-165655725D01*
X80655856Y-165629368D01*
X80652350Y-165602898D01*
X80648969Y-165576005D01*
X80645727Y-165548880D01*
X80643050Y-165525380D01*
X80645091Y-165522613D01*
X80661268Y-165502907D01*
X80664000Y-165498761D01*
X80676213Y-165479943D01*
X80688245Y-165456715D01*
X80701380Y-165434102D01*
X80703411Y-165429572D01*
X80712536Y-165408833D01*
X80720878Y-165383387D01*
X80730351Y-165358336D01*
X80731612Y-165353534D01*
X80737325Y-165331144D01*
X80741442Y-165304285D01*
X80746697Y-165277628D01*
X80747143Y-165272683D01*
X80749119Y-165248911D01*
X80748725Y-165222316D01*
X80749550Y-165195749D01*
X80749184Y-165190798D01*
X80747275Y-165167186D01*
X80742626Y-165141405D01*
X80739221Y-165115431D01*
X80738065Y-165110602D01*
X80732540Y-165088225D01*
X80723942Y-165063903D01*
X80716592Y-165039218D01*
X80714686Y-165034633D01*
X80705845Y-165013785D01*
X80693747Y-164991577D01*
X80682857Y-164968777D01*
X80680261Y-164964545D01*
X80668405Y-164945520D01*
X80653241Y-164925780D01*
X80639199Y-164905236D01*
X80635984Y-164901452D01*
X80621414Y-164884545D01*
X80603516Y-164867473D01*
X80586628Y-164849441D01*
X80582874Y-164846191D01*
X80565892Y-164831698D01*
X80545542Y-164817514D01*
X80526037Y-164802229D01*
X80521830Y-164799592D01*
X80502736Y-164787806D01*
X80480177Y-164776762D01*
X80458259Y-164764518D01*
X80453695Y-164762563D01*
X80432789Y-164753780D01*
X80408380Y-164746230D01*
X80384401Y-164737430D01*
X80379586Y-164736216D01*
X80357169Y-164730730D01*
X80331468Y-164727048D01*
X80306003Y-164722106D01*
X80301056Y-164721674D01*
X80277431Y-164719780D01*
X80251480Y-164720240D01*
X80225550Y-164719418D01*
X80220598Y-164719780D01*
X80196972Y-164721674D01*
X80171415Y-164726265D01*
X80145690Y-164729584D01*
X80140859Y-164730730D01*
X80118441Y-164736216D01*
X80094332Y-164744683D01*
X80069829Y-164751889D01*
X80065238Y-164753780D01*
X80044332Y-164762563D01*
X80022228Y-164774508D01*
X79999534Y-164785228D01*
X79995291Y-164787806D01*
X79976196Y-164799592D01*
X79956460Y-164814618D01*
X79935935Y-164828502D01*
X79932135Y-164831699D01*
X79915152Y-164846191D01*
X79897997Y-164864004D01*
X79879880Y-164880807D01*
X79876613Y-164884545D01*
X79862043Y-164901452D01*
X79847708Y-164921807D01*
X79832278Y-164941324D01*
X79829622Y-164945519D01*
X79817766Y-164964545D01*
X79806550Y-164987209D01*
X79794152Y-165009228D01*
X79792182Y-165013786D01*
X79783341Y-165034633D01*
X79775637Y-165059245D01*
X79766712Y-165083413D01*
X79765487Y-165088225D01*
X79759962Y-165110602D01*
X79756191Y-165136549D01*
X79751187Y-165162240D01*
X79750752Y-165167186D01*
X79748843Y-165190798D01*
X79749318Y-165218679D01*
X79748719Y-165246531D01*
X79749131Y-165251479D01*
X79751521Y-165277910D01*
X79756841Y-165305887D01*
X79761166Y-165333998D01*
X79762430Y-165338800D01*
X79769084Y-165363381D01*
X79778434Y-165388065D01*
X79786613Y-165413153D01*
X79788637Y-165417687D01*
X79798779Y-165439986D01*
X79811247Y-165461532D01*
X79822492Y-165483717D01*
X79825187Y-165487887D01*
X79838042Y-165507472D01*
X79849339Y-165521483D01*
X79847399Y-165537470D01*
X79844453Y-165560390D01*
X79841385Y-165582910D01*
X79838119Y-165605496D01*
X79834693Y-165627806D01*
X79831071Y-165650004D01*
X79827284Y-165671854D01*
X79823288Y-165693539D01*
X79819086Y-165714988D01*
X79814661Y-165736234D01*
X79810067Y-165756987D01*
X79805212Y-165777629D01*
X79800183Y-165797749D01*
X79794902Y-165817637D01*
X79789419Y-165837075D01*
X79783714Y-165856125D01*
X79777774Y-165874801D01*
X79771648Y-165892945D01*
X79769403Y-165899212D01*
X79763756Y-165895638D01*
X79745771Y-165883769D01*
X79727392Y-165871174D01*
X79708802Y-165857991D01*
X79690075Y-165844290D01*
X79671137Y-165830033D01*
X79652339Y-165815503D01*
X79633654Y-165800706D01*
X79615036Y-165785628D01*
X79596733Y-165770493D01*
X79580436Y-165756754D01*
X79579955Y-165751961D01*
X79573471Y-165719599D01*
X79567332Y-165687295D01*
X79566336Y-165683987D01*
X79566321Y-165683912D01*
X79566292Y-165683843D01*
X79565900Y-165682540D01*
X79559377Y-165661417D01*
X79546923Y-165631732D01*
X79534883Y-165601858D01*
X79532556Y-165597472D01*
X79522232Y-165578339D01*
X79504548Y-165552073D01*
X79487380Y-165525587D01*
X79484259Y-165521725D01*
X79470579Y-165505042D01*
X79448340Y-165482765D01*
X79426572Y-165460141D01*
X79422775Y-165456942D01*
X79406186Y-165443167D01*
X79379849Y-165425332D01*
X79353851Y-165407094D01*
X79349511Y-165404683D01*
X79330461Y-165394275D01*
X79300468Y-165381513D01*
X79270734Y-165368430D01*
X79266643Y-165367120D01*
X79266600Y-165367102D01*
X79266559Y-165367093D01*
X79266005Y-165366916D01*
X79244940Y-165360335D01*
X79212228Y-165353531D01*
X79179709Y-165346506D01*
X79177085Y-165346221D01*
X79176993Y-165346202D01*
X79176901Y-165346201D01*
X79174772Y-165345970D01*
X79152139Y-165343675D01*
X79118685Y-165343564D01*
X79085370Y-165343206D01*
X79082831Y-165343445D01*
X79082738Y-165343445D01*
X79082647Y-165343463D01*
X79080426Y-165343672D01*
X79057771Y-165345967D01*
X79025203Y-165352525D01*
X78992591Y-165358807D01*
X78989823Y-165359649D01*
X78989736Y-165359666D01*
X78989656Y-165359699D01*
X78987841Y-165360251D01*
X78966717Y-165366831D01*
X78936872Y-165379440D01*
X78906940Y-165391622D01*
X78902810Y-165393831D01*
X78902787Y-165393841D01*
X78902768Y-165393854D01*
X78902562Y-165393964D01*
X78883429Y-165404372D01*
X78857230Y-165422140D01*
X78830803Y-165439397D01*
X78826952Y-165442531D01*
X78810268Y-165456306D01*
X78788150Y-165478536D01*
X78765642Y-165500313D01*
X78762454Y-165504120D01*
X78748681Y-165520802D01*
X78731015Y-165547047D01*
X78712927Y-165572933D01*
X78710523Y-165577278D01*
X78700115Y-165596411D01*
X78687491Y-165626229D01*
X78674492Y-165655836D01*
X78673067Y-165660300D01*
X78673058Y-165660321D01*
X78673054Y-165660341D01*
X78672982Y-165660566D01*
X78666401Y-165681690D01*
X78659644Y-165714307D01*
X78652653Y-165746684D01*
X78652341Y-165749560D01*
X78652323Y-165749648D01*
X78652322Y-165749736D01*
X78652118Y-165751620D01*
X78649823Y-165774275D01*
X78649715Y-165807695D01*
X78649360Y-165841044D01*
X78649599Y-165843583D01*
X78649599Y-165843676D01*
X78649617Y-165843766D01*
X78649826Y-165845988D01*
X78652121Y-165868621D01*
X78658706Y-165901310D01*
X78665038Y-165934039D01*
X78665807Y-165936561D01*
X78665826Y-165936656D01*
X78665863Y-165936744D01*
X78666486Y-165938789D01*
X78673067Y-165959854D01*
X78685760Y-165989832D01*
X78698076Y-166019936D01*
X78700110Y-166023722D01*
X78700127Y-166023762D01*
X78700149Y-166023794D01*
X78700426Y-166024310D01*
X78710834Y-166043360D01*
X78728743Y-166069663D01*
X78746165Y-166096183D01*
X78749310Y-166100025D01*
X78763084Y-166116614D01*
X78785469Y-166138763D01*
X78807383Y-166161259D01*
X78811200Y-166164434D01*
X78827884Y-166178114D01*
X78854191Y-166195692D01*
X78880137Y-166213692D01*
X78884490Y-166216081D01*
X78903623Y-166226405D01*
X78933361Y-166238876D01*
X78956772Y-166249085D01*
X79076962Y-166454673D01*
X79077009Y-166454738D01*
X79078652Y-166457534D01*
X79093288Y-166482041D01*
X79103989Y-166501167D01*
X79113414Y-166519221D01*
X79121635Y-166536169D01*
X79128805Y-166552149D01*
X79135004Y-166567168D01*
X79139349Y-166578672D01*
X79138227Y-166581398D01*
X79136532Y-166589981D01*
X79133557Y-166598204D01*
X79128933Y-166628458D01*
X79123000Y-166658498D01*
X79123004Y-166667245D01*
X79121683Y-166675890D01*
X79123024Y-166706466D01*
X79123039Y-166737087D01*
X79123097Y-166737381D01*
X78532834Y-166147118D01*
X78517718Y-166128699D01*
X78444232Y-166068391D01*
X78360394Y-166023578D01*
X78359723Y-166023375D01*
X78356839Y-166016411D01*
X78269278Y-165885366D01*
X78157834Y-165773922D01*
X78026789Y-165686361D01*
X77881180Y-165626048D01*
X77726603Y-165595300D01*
X77568997Y-165595300D01*
X77414420Y-165626048D01*
X77268811Y-165686361D01*
X77137766Y-165773922D01*
X77026322Y-165885366D01*
X76938761Y-166016411D01*
X76878448Y-166162020D01*
X76847700Y-166316597D01*
X76847700Y-166474203D01*
X76878448Y-166628780D01*
X76938761Y-166774389D01*
X77026322Y-166905434D01*
X77137766Y-167016878D01*
X77268811Y-167104439D01*
X77414420Y-167164752D01*
X77568997Y-167195500D01*
X77726603Y-167195500D01*
X77881180Y-167164752D01*
X78026789Y-167104439D01*
X78085756Y-167065039D01*
X78655005Y-167634287D01*
X78670116Y-167652701D01*
X78743602Y-167713009D01*
X78807635Y-167747236D01*
X78827440Y-167757822D01*
X78918410Y-167785417D01*
X79013017Y-167794735D01*
X79036724Y-167792400D01*
X79676625Y-167792400D01*
X79581550Y-167887475D01*
X79449611Y-168084934D01*
X79358731Y-168304340D01*
X79312400Y-168537259D01*
X79312400Y-168774741D01*
X79358731Y-169007660D01*
X79449611Y-169227066D01*
X79559479Y-169391494D01*
X79428298Y-169365400D01*
X79067702Y-169365400D01*
X78714034Y-169435749D01*
X78380886Y-169573744D01*
X78081061Y-169774081D01*
X77826081Y-170029061D01*
X77625744Y-170328886D01*
X77487749Y-170662034D01*
X77417400Y-171015702D01*
X77417400Y-171376298D01*
X77487749Y-171729966D01*
X77625744Y-172063114D01*
X77826081Y-172362939D01*
X78081061Y-172617919D01*
X78380886Y-172818256D01*
X78714034Y-172956251D01*
X79067702Y-173026600D01*
X79428298Y-173026600D01*
X79781966Y-172956251D01*
X80115114Y-172818256D01*
X80414939Y-172617919D01*
X80669919Y-172362939D01*
X80870256Y-172063114D01*
X81008251Y-171729966D01*
X81078600Y-171376298D01*
X81078600Y-171015702D01*
X81008251Y-170662034D01*
X80870256Y-170328886D01*
X80669919Y-170029061D01*
X80502458Y-169861600D01*
X80636741Y-169861600D01*
X80869660Y-169815269D01*
X81089066Y-169724389D01*
X81286525Y-169592450D01*
X81454450Y-169424525D01*
X81586389Y-169227066D01*
X81607501Y-169176096D01*
X81632074Y-169205555D01*
X81645886Y-169222385D01*
X81647252Y-169223751D01*
X81663751Y-169243531D01*
X81680784Y-169257283D01*
X82012181Y-169588680D01*
X81523000Y-169588680D01*
X81453290Y-169595546D01*
X81386260Y-169615879D01*
X81324484Y-169648899D01*
X81270337Y-169693337D01*
X81225899Y-169747484D01*
X81192879Y-169809260D01*
X81172546Y-169876290D01*
X81165680Y-169946000D01*
X81165680Y-172446000D01*
X81172546Y-172515710D01*
X81192879Y-172582740D01*
X81225899Y-172644516D01*
X81270337Y-172698663D01*
X81324484Y-172743101D01*
X81386260Y-172776121D01*
X81453290Y-172796454D01*
X81523000Y-172803320D01*
X83871465Y-172803320D01*
X83780000Y-172852775D01*
X83749534Y-172873325D01*
X83718763Y-172893462D01*
X83714374Y-172897041D01*
X83618884Y-172976037D01*
X83592992Y-173002111D01*
X83566716Y-173027842D01*
X83563106Y-173032205D01*
X83484778Y-173128244D01*
X83464448Y-173158844D01*
X83443665Y-173189197D01*
X83440972Y-173194178D01*
X83382790Y-173303602D01*
X83368788Y-173337573D01*
X83354299Y-173371379D01*
X83352624Y-173376789D01*
X83316804Y-173495429D01*
X83309660Y-173531510D01*
X83302021Y-173567451D01*
X83301429Y-173573083D01*
X83289336Y-173696422D01*
X83289336Y-173696432D01*
X83287401Y-173716079D01*
X83287400Y-175245712D01*
X80895315Y-175245712D01*
X80895315Y-175291680D01*
X80018000Y-175291680D01*
X79948290Y-175298546D01*
X79881260Y-175318879D01*
X79819484Y-175351899D01*
X79765337Y-175396337D01*
X79720899Y-175450484D01*
X79687879Y-175512260D01*
X79667546Y-175579290D01*
X79660680Y-175649000D01*
X79660680Y-175666400D01*
X74064707Y-175666400D01*
X74041000Y-175664065D01*
X74017293Y-175666400D01*
X73946394Y-175673383D01*
X73882320Y-175692819D01*
X73882320Y-175649000D01*
X73875454Y-175579290D01*
X73855121Y-175512260D01*
X73822101Y-175450484D01*
X73777663Y-175396337D01*
X73742617Y-175367575D01*
X73765114Y-175358256D01*
X74064939Y-175157919D01*
X74319919Y-174902939D01*
X74520256Y-174603114D01*
X74658251Y-174269966D01*
X74728600Y-173916298D01*
X74728600Y-173555702D01*
X74658251Y-173202034D01*
X74520256Y-172868886D01*
X74319919Y-172569061D01*
X74064939Y-172314081D01*
X73765114Y-172113744D01*
X73431966Y-171975749D01*
X73078298Y-171905400D01*
X72717702Y-171905400D01*
X72364034Y-171975749D01*
X72030886Y-172113744D01*
X71731061Y-172314081D01*
X71486601Y-172558541D01*
X71486601Y-171985308D01*
X71488936Y-171961601D01*
X71479618Y-171866994D01*
X71452023Y-171776024D01*
X71409117Y-171695754D01*
X71407210Y-171692186D01*
X71346902Y-171618700D01*
X71328489Y-171603589D01*
X70236520Y-170511621D01*
X70236520Y-170386800D01*
X70229654Y-170317090D01*
X70209321Y-170250060D01*
X70176301Y-170188284D01*
X70131863Y-170134137D01*
X70077716Y-170089699D01*
X70061800Y-170081192D01*
X70061800Y-169826301D01*
X70239259Y-169861600D01*
X70476741Y-169861600D01*
X70709660Y-169815269D01*
X70929066Y-169724389D01*
X71126525Y-169592450D01*
X71294450Y-169424525D01*
X71426389Y-169227066D01*
X71517269Y-169007660D01*
X71563600Y-168774741D01*
X71563600Y-168537259D01*
X71541265Y-168424970D01*
X73092310Y-168424970D01*
X73092310Y-168887030D01*
X73182453Y-169340213D01*
X73359276Y-169767101D01*
X73615983Y-170151290D01*
X73942710Y-170478017D01*
X74326899Y-170734724D01*
X74753787Y-170911547D01*
X75206970Y-171001690D01*
X75669030Y-171001690D01*
X76122213Y-170911547D01*
X76549101Y-170734724D01*
X76933290Y-170478017D01*
X77260017Y-170151290D01*
X77516724Y-169767101D01*
X77693547Y-169340213D01*
X77783690Y-168887030D01*
X77783690Y-168424970D01*
X77693547Y-167971787D01*
X77516724Y-167544899D01*
X77260017Y-167160710D01*
X76933290Y-166833983D01*
X76549101Y-166577276D01*
X76122213Y-166400453D01*
X75669030Y-166310310D01*
X75206970Y-166310310D01*
X74753787Y-166400453D01*
X74326899Y-166577276D01*
X73942710Y-166833983D01*
X73615983Y-167160710D01*
X73359276Y-167544899D01*
X73182453Y-167971787D01*
X73092310Y-168424970D01*
X71541265Y-168424970D01*
X71517269Y-168304340D01*
X71463247Y-168173918D01*
X71556580Y-168155352D01*
X71702189Y-168095039D01*
X71833234Y-168007478D01*
X71944678Y-167896034D01*
X72032239Y-167764989D01*
X72092552Y-167619380D01*
X72123300Y-167464803D01*
X72123300Y-167403495D01*
X72143121Y-167366412D01*
X72177979Y-167251502D01*
X72186800Y-167161941D01*
X72186800Y-167161940D01*
X72189749Y-167132001D01*
X72186800Y-167102062D01*
X72186800Y-165093320D01*
X73387561Y-165093320D01*
X73389748Y-165115703D01*
X73389848Y-165116034D01*
X73389882Y-165116374D01*
X73401445Y-165154367D01*
X73412883Y-165192177D01*
X73413043Y-165192477D01*
X73413144Y-165192809D01*
X73431911Y-165227843D01*
X73450491Y-165262668D01*
X73450710Y-165262935D01*
X73450871Y-165263236D01*
X73475829Y-165293591D01*
X73501129Y-165324468D01*
X73501397Y-165324688D01*
X73501613Y-165324951D01*
X73532068Y-165349898D01*
X73562851Y-165375200D01*
X73563155Y-165375363D01*
X73563420Y-165375580D01*
X73598404Y-165394239D01*
X73633284Y-165412917D01*
X73633612Y-165413017D01*
X73633916Y-165413179D01*
X73671784Y-165424628D01*
X73709722Y-165436169D01*
X73710066Y-165436203D01*
X73710393Y-165436302D01*
X73749600Y-165440128D01*
X73769307Y-165442084D01*
X73769652Y-165442084D01*
X73789910Y-165444061D01*
X73809487Y-165442115D01*
X77068921Y-165444624D01*
X77089000Y-165446602D01*
X77128824Y-165442680D01*
X77168203Y-165438832D01*
X77168354Y-165438786D01*
X77168510Y-165438771D01*
X77206920Y-165427119D01*
X77244677Y-165415697D01*
X77244813Y-165415624D01*
X77244966Y-165415578D01*
X77280260Y-165396713D01*
X77315168Y-165378089D01*
X77315291Y-165377988D01*
X77315428Y-165377915D01*
X77346287Y-165352591D01*
X77376968Y-165327451D01*
X77377066Y-165327332D01*
X77377190Y-165327230D01*
X77403140Y-165295609D01*
X77427700Y-165265729D01*
X77427772Y-165265594D01*
X77427875Y-165265469D01*
X77447251Y-165229220D01*
X77465417Y-165195296D01*
X77465461Y-165195151D01*
X77465538Y-165195007D01*
X77477563Y-165155367D01*
X77488669Y-165118858D01*
X77488684Y-165118705D01*
X77488731Y-165118551D01*
X77491216Y-165093320D01*
X78888000Y-165093320D01*
X78957710Y-165086454D01*
X79024740Y-165066121D01*
X79086516Y-165033101D01*
X79140663Y-164988663D01*
X79185101Y-164934516D01*
X79218121Y-164872740D01*
X79230917Y-164830557D01*
X79372397Y-164858700D01*
X79530003Y-164858700D01*
X79684580Y-164827952D01*
X79830189Y-164767639D01*
X79961234Y-164680078D01*
X80072678Y-164568634D01*
X80160239Y-164437589D01*
X80220552Y-164291980D01*
X80251300Y-164137403D01*
X80251300Y-163979797D01*
X80220552Y-163825220D01*
X80160239Y-163679611D01*
X80072678Y-163548566D01*
X79961234Y-163437122D01*
X79830189Y-163349561D01*
X79684580Y-163289248D01*
X79530003Y-163258500D01*
X79498334Y-163258500D01*
X79500550Y-163236000D01*
X79497600Y-163130800D01*
X79345200Y-162978400D01*
X78140400Y-162978400D01*
X78140400Y-162998400D01*
X77835600Y-162998400D01*
X77835600Y-162978400D01*
X77494600Y-162978400D01*
X77494600Y-162673600D01*
X77835600Y-162673600D01*
X77835600Y-162653600D01*
X78140400Y-162653600D01*
X78140400Y-162673600D01*
X79345200Y-162673600D01*
X79497600Y-162521200D01*
X79497628Y-162520212D01*
X79562492Y-162526601D01*
G36*
X68386993Y-175415308D02*
G01*
X68350279Y-175390777D01*
X68235707Y-175343320D01*
X68459030Y-175343320D01*
X68386993Y-175415308D01*
G37*
X68386993Y-175415308D02*
X68350279Y-175390777D01*
X68235707Y-175343320D01*
X68459030Y-175343320D01*
X68386993Y-175415308D01*
G36*
X67369999Y-164338000D02*
G01*
X67280412Y-164427587D01*
X67186777Y-164567721D01*
X67122280Y-164723431D01*
X67089400Y-164888731D01*
X67089400Y-165057269D01*
X67122280Y-165222569D01*
X67186777Y-165378279D01*
X67237103Y-165453598D01*
X67192337Y-165490337D01*
X67147899Y-165544484D01*
X67114879Y-165606260D01*
X67094546Y-165673290D01*
X67087680Y-165743000D01*
X67087680Y-166743000D01*
X67094546Y-166812710D01*
X67114879Y-166879740D01*
X67147899Y-166941516D01*
X67192337Y-166995663D01*
X67246484Y-167040101D01*
X67308260Y-167073121D01*
X67375290Y-167093454D01*
X67445000Y-167100320D01*
X68338700Y-167100320D01*
X68338699Y-167631536D01*
X68336364Y-167655241D01*
X68338699Y-167678946D01*
X68338699Y-167678947D01*
X68345682Y-167749846D01*
X68373277Y-167840817D01*
X68418090Y-167924656D01*
X68478398Y-167998142D01*
X68496817Y-168013258D01*
X68644400Y-168160841D01*
X68644399Y-169223176D01*
X68642064Y-169246881D01*
X68644399Y-169270586D01*
X68644399Y-169270587D01*
X68651382Y-169341486D01*
X68678977Y-169432457D01*
X68723790Y-169516296D01*
X68784098Y-169589782D01*
X68802517Y-169604898D01*
X69096601Y-169898982D01*
X69096601Y-170081191D01*
X69080684Y-170089699D01*
X69026537Y-170134137D01*
X68982099Y-170188284D01*
X68949079Y-170250060D01*
X68928746Y-170317090D01*
X68921880Y-170386800D01*
X68921880Y-170836800D01*
X68928746Y-170906510D01*
X68949079Y-170973540D01*
X68982099Y-171035316D01*
X69026537Y-171089463D01*
X69080684Y-171133901D01*
X69142460Y-171166921D01*
X69209490Y-171187254D01*
X69279200Y-171194120D01*
X69554021Y-171194120D01*
X70488580Y-172128680D01*
X68423179Y-172128680D01*
X68389501Y-172095002D01*
X68389501Y-171814066D01*
X68391836Y-171790359D01*
X68382518Y-171695752D01*
X68354923Y-171604782D01*
X68351944Y-171599209D01*
X68310110Y-171520944D01*
X68249802Y-171447458D01*
X68231388Y-171432346D01*
X67961800Y-171162759D01*
X67961800Y-171142408D01*
X67977716Y-171133901D01*
X68031863Y-171089463D01*
X68076301Y-171035316D01*
X68109321Y-170973540D01*
X68129654Y-170906510D01*
X68136520Y-170836800D01*
X68136520Y-170386800D01*
X68129654Y-170317090D01*
X68109321Y-170250060D01*
X68076301Y-170188284D01*
X68031863Y-170134137D01*
X67977716Y-170089699D01*
X67915940Y-170056679D01*
X67848910Y-170036346D01*
X67779200Y-170029480D01*
X67179200Y-170029480D01*
X67109490Y-170036346D01*
X67042460Y-170056679D01*
X66980684Y-170089699D01*
X66926537Y-170134137D01*
X66882099Y-170188284D01*
X66849079Y-170250060D01*
X66828746Y-170317090D01*
X66821880Y-170386800D01*
X66821880Y-170836800D01*
X66828746Y-170906510D01*
X66849079Y-170973540D01*
X66882099Y-171035316D01*
X66926537Y-171089463D01*
X66980684Y-171133901D01*
X66996601Y-171142409D01*
X66996601Y-171338944D01*
X66994265Y-171362658D01*
X67003584Y-171457264D01*
X67031178Y-171548234D01*
X67075992Y-171632073D01*
X67116092Y-171680935D01*
X67136300Y-171705559D01*
X67154713Y-171720670D01*
X67424301Y-171990259D01*
X67424302Y-172271187D01*
X67421966Y-172294901D01*
X67431285Y-172389507D01*
X67458879Y-172480477D01*
X67503693Y-172564316D01*
X67547684Y-172617919D01*
X67564001Y-172637802D01*
X67582414Y-172652913D01*
X67715680Y-172786179D01*
X67715680Y-174986000D01*
X67722546Y-175055710D01*
X67742879Y-175122740D01*
X67775899Y-175184516D01*
X67820337Y-175238663D01*
X67874484Y-175283101D01*
X67893752Y-175293400D01*
X67860731Y-175293400D01*
X67695431Y-175326280D01*
X67588600Y-175370531D01*
X67588600Y-173716079D01*
X67586888Y-173698696D01*
X67586915Y-173694804D01*
X67586363Y-173689168D01*
X67573408Y-173565917D01*
X67566011Y-173529885D01*
X67559127Y-173493799D01*
X67557491Y-173488377D01*
X67520844Y-173369989D01*
X67506590Y-173336080D01*
X67492827Y-173302016D01*
X67490169Y-173297015D01*
X67431225Y-173188000D01*
X67410675Y-173157534D01*
X67390538Y-173126763D01*
X67386959Y-173122374D01*
X67307963Y-173026884D01*
X67281889Y-173000992D01*
X67256158Y-172974716D01*
X67251795Y-172971106D01*
X67155756Y-172892778D01*
X67125156Y-172872448D01*
X67094803Y-172851665D01*
X67089822Y-172848972D01*
X66980398Y-172790790D01*
X66946427Y-172776788D01*
X66912621Y-172762299D01*
X66907211Y-172760624D01*
X66788571Y-172724804D01*
X66752490Y-172717660D01*
X66716549Y-172710021D01*
X66710921Y-172709429D01*
X66710917Y-172709429D01*
X66587578Y-172697336D01*
X66503823Y-172689124D01*
X66461321Y-172676292D01*
X66422131Y-172655454D01*
X66387726Y-172627394D01*
X66359433Y-172593194D01*
X66338318Y-172554141D01*
X66325191Y-172511735D01*
X66318600Y-172449031D01*
X66318600Y-170278862D01*
X66535947Y-170209916D01*
X66569712Y-170195444D01*
X66603724Y-170181425D01*
X66608706Y-170178732D01*
X66825908Y-170059324D01*
X66856227Y-170038563D01*
X66886859Y-170018211D01*
X66891223Y-170014601D01*
X67081095Y-169855279D01*
X67106810Y-169829020D01*
X67132899Y-169803112D01*
X67136479Y-169798723D01*
X67291790Y-169605556D01*
X67311914Y-169574803D01*
X67332477Y-169544317D01*
X67335136Y-169539317D01*
X67449968Y-169319662D01*
X67463741Y-169285570D01*
X67477983Y-169251690D01*
X67479620Y-169246269D01*
X67549603Y-169008492D01*
X67556492Y-168972377D01*
X67563883Y-168936370D01*
X67564436Y-168930734D01*
X67586900Y-168683894D01*
X67586643Y-168647096D01*
X67586899Y-168610374D01*
X67586347Y-168604738D01*
X67560439Y-168358235D01*
X67553047Y-168322223D01*
X67546158Y-168286113D01*
X67544522Y-168280691D01*
X67471227Y-168043915D01*
X67456974Y-168010010D01*
X67443210Y-167975943D01*
X67440552Y-167970942D01*
X67322664Y-167752912D01*
X67302120Y-167722455D01*
X67281977Y-167691674D01*
X67278398Y-167687285D01*
X67120405Y-167496305D01*
X67094328Y-167470410D01*
X67068599Y-167444137D01*
X67064236Y-167440527D01*
X66872158Y-167283873D01*
X66841558Y-167263543D01*
X66811205Y-167242760D01*
X66806224Y-167240066D01*
X66587376Y-167123703D01*
X66553391Y-167109696D01*
X66519601Y-167095214D01*
X66514191Y-167093539D01*
X66318600Y-167034486D01*
X66318600Y-164865832D01*
X66324876Y-164801824D01*
X66337708Y-164759321D01*
X66358548Y-164720129D01*
X66386603Y-164685729D01*
X66420809Y-164657432D01*
X66459860Y-164636317D01*
X66502264Y-164623191D01*
X66581509Y-164614861D01*
X66589196Y-164614915D01*
X66594832Y-164614363D01*
X66718083Y-164601408D01*
X66754115Y-164594011D01*
X66790201Y-164587127D01*
X66795623Y-164585491D01*
X66914010Y-164548844D01*
X66947906Y-164534596D01*
X66981984Y-164520827D01*
X66986985Y-164518169D01*
X67096000Y-164459225D01*
X67126466Y-164438675D01*
X67157237Y-164418538D01*
X67161626Y-164414959D01*
X67257116Y-164335964D01*
X67283029Y-164309868D01*
X67309283Y-164284158D01*
X67312396Y-164280397D01*
X67369999Y-164338000D01*
G37*
X67369999Y-164338000D02*
X67280412Y-164427587D01*
X67186777Y-164567721D01*
X67122280Y-164723431D01*
X67089400Y-164888731D01*
X67089400Y-165057269D01*
X67122280Y-165222569D01*
X67186777Y-165378279D01*
X67237103Y-165453598D01*
X67192337Y-165490337D01*
X67147899Y-165544484D01*
X67114879Y-165606260D01*
X67094546Y-165673290D01*
X67087680Y-165743000D01*
X67087680Y-166743000D01*
X67094546Y-166812710D01*
X67114879Y-166879740D01*
X67147899Y-166941516D01*
X67192337Y-166995663D01*
X67246484Y-167040101D01*
X67308260Y-167073121D01*
X67375290Y-167093454D01*
X67445000Y-167100320D01*
X68338700Y-167100320D01*
X68338699Y-167631536D01*
X68336364Y-167655241D01*
X68338699Y-167678946D01*
X68338699Y-167678947D01*
X68345682Y-167749846D01*
X68373277Y-167840817D01*
X68418090Y-167924656D01*
X68478398Y-167998142D01*
X68496817Y-168013258D01*
X68644400Y-168160841D01*
X68644399Y-169223176D01*
X68642064Y-169246881D01*
X68644399Y-169270586D01*
X68644399Y-169270587D01*
X68651382Y-169341486D01*
X68678977Y-169432457D01*
X68723790Y-169516296D01*
X68784098Y-169589782D01*
X68802517Y-169604898D01*
X69096601Y-169898982D01*
X69096601Y-170081191D01*
X69080684Y-170089699D01*
X69026537Y-170134137D01*
X68982099Y-170188284D01*
X68949079Y-170250060D01*
X68928746Y-170317090D01*
X68921880Y-170386800D01*
X68921880Y-170836800D01*
X68928746Y-170906510D01*
X68949079Y-170973540D01*
X68982099Y-171035316D01*
X69026537Y-171089463D01*
X69080684Y-171133901D01*
X69142460Y-171166921D01*
X69209490Y-171187254D01*
X69279200Y-171194120D01*
X69554021Y-171194120D01*
X70488580Y-172128680D01*
X68423179Y-172128680D01*
X68389501Y-172095002D01*
X68389501Y-171814066D01*
X68391836Y-171790359D01*
X68382518Y-171695752D01*
X68354923Y-171604782D01*
X68351944Y-171599209D01*
X68310110Y-171520944D01*
X68249802Y-171447458D01*
X68231388Y-171432346D01*
X67961800Y-171162759D01*
X67961800Y-171142408D01*
X67977716Y-171133901D01*
X68031863Y-171089463D01*
X68076301Y-171035316D01*
X68109321Y-170973540D01*
X68129654Y-170906510D01*
X68136520Y-170836800D01*
X68136520Y-170386800D01*
X68129654Y-170317090D01*
X68109321Y-170250060D01*
X68076301Y-170188284D01*
X68031863Y-170134137D01*
X67977716Y-170089699D01*
X67915940Y-170056679D01*
X67848910Y-170036346D01*
X67779200Y-170029480D01*
X67179200Y-170029480D01*
X67109490Y-170036346D01*
X67042460Y-170056679D01*
X66980684Y-170089699D01*
X66926537Y-170134137D01*
X66882099Y-170188284D01*
X66849079Y-170250060D01*
X66828746Y-170317090D01*
X66821880Y-170386800D01*
X66821880Y-170836800D01*
X66828746Y-170906510D01*
X66849079Y-170973540D01*
X66882099Y-171035316D01*
X66926537Y-171089463D01*
X66980684Y-171133901D01*
X66996601Y-171142409D01*
X66996601Y-171338944D01*
X66994265Y-171362658D01*
X67003584Y-171457264D01*
X67031178Y-171548234D01*
X67075992Y-171632073D01*
X67116092Y-171680935D01*
X67136300Y-171705559D01*
X67154713Y-171720670D01*
X67424301Y-171990259D01*
X67424302Y-172271187D01*
X67421966Y-172294901D01*
X67431285Y-172389507D01*
X67458879Y-172480477D01*
X67503693Y-172564316D01*
X67547684Y-172617919D01*
X67564001Y-172637802D01*
X67582414Y-172652913D01*
X67715680Y-172786179D01*
X67715680Y-174986000D01*
X67722546Y-175055710D01*
X67742879Y-175122740D01*
X67775899Y-175184516D01*
X67820337Y-175238663D01*
X67874484Y-175283101D01*
X67893752Y-175293400D01*
X67860731Y-175293400D01*
X67695431Y-175326280D01*
X67588600Y-175370531D01*
X67588600Y-173716079D01*
X67586888Y-173698696D01*
X67586915Y-173694804D01*
X67586363Y-173689168D01*
X67573408Y-173565917D01*
X67566011Y-173529885D01*
X67559127Y-173493799D01*
X67557491Y-173488377D01*
X67520844Y-173369989D01*
X67506590Y-173336080D01*
X67492827Y-173302016D01*
X67490169Y-173297015D01*
X67431225Y-173188000D01*
X67410675Y-173157534D01*
X67390538Y-173126763D01*
X67386959Y-173122374D01*
X67307963Y-173026884D01*
X67281889Y-173000992D01*
X67256158Y-172974716D01*
X67251795Y-172971106D01*
X67155756Y-172892778D01*
X67125156Y-172872448D01*
X67094803Y-172851665D01*
X67089822Y-172848972D01*
X66980398Y-172790790D01*
X66946427Y-172776788D01*
X66912621Y-172762299D01*
X66907211Y-172760624D01*
X66788571Y-172724804D01*
X66752490Y-172717660D01*
X66716549Y-172710021D01*
X66710921Y-172709429D01*
X66710917Y-172709429D01*
X66587578Y-172697336D01*
X66503823Y-172689124D01*
X66461321Y-172676292D01*
X66422131Y-172655454D01*
X66387726Y-172627394D01*
X66359433Y-172593194D01*
X66338318Y-172554141D01*
X66325191Y-172511735D01*
X66318600Y-172449031D01*
X66318600Y-170278862D01*
X66535947Y-170209916D01*
X66569712Y-170195444D01*
X66603724Y-170181425D01*
X66608706Y-170178732D01*
X66825908Y-170059324D01*
X66856227Y-170038563D01*
X66886859Y-170018211D01*
X66891223Y-170014601D01*
X67081095Y-169855279D01*
X67106810Y-169829020D01*
X67132899Y-169803112D01*
X67136479Y-169798723D01*
X67291790Y-169605556D01*
X67311914Y-169574803D01*
X67332477Y-169544317D01*
X67335136Y-169539317D01*
X67449968Y-169319662D01*
X67463741Y-169285570D01*
X67477983Y-169251690D01*
X67479620Y-169246269D01*
X67549603Y-169008492D01*
X67556492Y-168972377D01*
X67563883Y-168936370D01*
X67564436Y-168930734D01*
X67586900Y-168683894D01*
X67586643Y-168647096D01*
X67586899Y-168610374D01*
X67586347Y-168604738D01*
X67560439Y-168358235D01*
X67553047Y-168322223D01*
X67546158Y-168286113D01*
X67544522Y-168280691D01*
X67471227Y-168043915D01*
X67456974Y-168010010D01*
X67443210Y-167975943D01*
X67440552Y-167970942D01*
X67322664Y-167752912D01*
X67302120Y-167722455D01*
X67281977Y-167691674D01*
X67278398Y-167687285D01*
X67120405Y-167496305D01*
X67094328Y-167470410D01*
X67068599Y-167444137D01*
X67064236Y-167440527D01*
X66872158Y-167283873D01*
X66841558Y-167263543D01*
X66811205Y-167242760D01*
X66806224Y-167240066D01*
X66587376Y-167123703D01*
X66553391Y-167109696D01*
X66519601Y-167095214D01*
X66514191Y-167093539D01*
X66318600Y-167034486D01*
X66318600Y-164865832D01*
X66324876Y-164801824D01*
X66337708Y-164759321D01*
X66358548Y-164720129D01*
X66386603Y-164685729D01*
X66420809Y-164657432D01*
X66459860Y-164636317D01*
X66502264Y-164623191D01*
X66581509Y-164614861D01*
X66589196Y-164614915D01*
X66594832Y-164614363D01*
X66718083Y-164601408D01*
X66754115Y-164594011D01*
X66790201Y-164587127D01*
X66795623Y-164585491D01*
X66914010Y-164548844D01*
X66947906Y-164534596D01*
X66981984Y-164520827D01*
X66986985Y-164518169D01*
X67096000Y-164459225D01*
X67126466Y-164438675D01*
X67157237Y-164418538D01*
X67161626Y-164414959D01*
X67257116Y-164335964D01*
X67283029Y-164309868D01*
X67309283Y-164284158D01*
X67312396Y-164280397D01*
X67369999Y-164338000D01*
G36*
X83568036Y-164285116D02*
G01*
X83594132Y-164311029D01*
X83619842Y-164337283D01*
X83624205Y-164340894D01*
X83720244Y-164419221D01*
X83750848Y-164439555D01*
X83781196Y-164460334D01*
X83786178Y-164463028D01*
X83895601Y-164521210D01*
X83929572Y-164535212D01*
X83963378Y-164549701D01*
X83968788Y-164551376D01*
X84087429Y-164587196D01*
X84123510Y-164594340D01*
X84159451Y-164601979D01*
X84165077Y-164602570D01*
X84165080Y-164602571D01*
X84165083Y-164602571D01*
X84288422Y-164614664D01*
X84372176Y-164622876D01*
X84414679Y-164635708D01*
X84453871Y-164656548D01*
X84488271Y-164684603D01*
X84516568Y-164718809D01*
X84537683Y-164757860D01*
X84550809Y-164800264D01*
X84557401Y-164862978D01*
X84557400Y-167033138D01*
X84340053Y-167102084D01*
X84306288Y-167116556D01*
X84272276Y-167130575D01*
X84267295Y-167133268D01*
X84050092Y-167252676D01*
X84019773Y-167273437D01*
X83989141Y-167293789D01*
X83984777Y-167297398D01*
X83794905Y-167456721D01*
X83769191Y-167482980D01*
X83743101Y-167508888D01*
X83739521Y-167513277D01*
X83584210Y-167706444D01*
X83564086Y-167737197D01*
X83543523Y-167767683D01*
X83540864Y-167772683D01*
X83426032Y-167992338D01*
X83412252Y-168026446D01*
X83398017Y-168060310D01*
X83396380Y-168065731D01*
X83326398Y-168303507D01*
X83319514Y-168339593D01*
X83312117Y-168375630D01*
X83311564Y-168381266D01*
X83289100Y-168628106D01*
X83289357Y-168664904D01*
X83289101Y-168701626D01*
X83289653Y-168707262D01*
X83315561Y-168953765D01*
X83322952Y-168989771D01*
X83329842Y-169025887D01*
X83331478Y-169031309D01*
X83404773Y-169268085D01*
X83419031Y-169302002D01*
X83432790Y-169336057D01*
X83435448Y-169341058D01*
X83553336Y-169559088D01*
X83573297Y-169588680D01*
X83270974Y-169588680D01*
X83246022Y-169506423D01*
X83201209Y-169422585D01*
X83140901Y-169349099D01*
X83122482Y-169333983D01*
X82484903Y-168696404D01*
X82473990Y-167331582D01*
X82476135Y-167309800D01*
X82473912Y-167287231D01*
X82474798Y-167100320D01*
X83431000Y-167100320D01*
X83500710Y-167093454D01*
X83567740Y-167073121D01*
X83629516Y-167040101D01*
X83683663Y-166995663D01*
X83728101Y-166941516D01*
X83761121Y-166879740D01*
X83781454Y-166812710D01*
X83788320Y-166743000D01*
X83788320Y-165743000D01*
X83781454Y-165673290D01*
X83761121Y-165606260D01*
X83728101Y-165544484D01*
X83683663Y-165490337D01*
X83638897Y-165453598D01*
X83689223Y-165378279D01*
X83753720Y-165222569D01*
X83786600Y-165057269D01*
X83786600Y-164888731D01*
X83753720Y-164723431D01*
X83689223Y-164567721D01*
X83595588Y-164427587D01*
X83506001Y-164338000D01*
X83563893Y-164280108D01*
X83568036Y-164285116D01*
G37*
X83568036Y-164285116D02*
X83594132Y-164311029D01*
X83619842Y-164337283D01*
X83624205Y-164340894D01*
X83720244Y-164419221D01*
X83750848Y-164439555D01*
X83781196Y-164460334D01*
X83786178Y-164463028D01*
X83895601Y-164521210D01*
X83929572Y-164535212D01*
X83963378Y-164549701D01*
X83968788Y-164551376D01*
X84087429Y-164587196D01*
X84123510Y-164594340D01*
X84159451Y-164601979D01*
X84165077Y-164602570D01*
X84165080Y-164602571D01*
X84165083Y-164602571D01*
X84288422Y-164614664D01*
X84372176Y-164622876D01*
X84414679Y-164635708D01*
X84453871Y-164656548D01*
X84488271Y-164684603D01*
X84516568Y-164718809D01*
X84537683Y-164757860D01*
X84550809Y-164800264D01*
X84557401Y-164862978D01*
X84557400Y-167033138D01*
X84340053Y-167102084D01*
X84306288Y-167116556D01*
X84272276Y-167130575D01*
X84267295Y-167133268D01*
X84050092Y-167252676D01*
X84019773Y-167273437D01*
X83989141Y-167293789D01*
X83984777Y-167297398D01*
X83794905Y-167456721D01*
X83769191Y-167482980D01*
X83743101Y-167508888D01*
X83739521Y-167513277D01*
X83584210Y-167706444D01*
X83564086Y-167737197D01*
X83543523Y-167767683D01*
X83540864Y-167772683D01*
X83426032Y-167992338D01*
X83412252Y-168026446D01*
X83398017Y-168060310D01*
X83396380Y-168065731D01*
X83326398Y-168303507D01*
X83319514Y-168339593D01*
X83312117Y-168375630D01*
X83311564Y-168381266D01*
X83289100Y-168628106D01*
X83289357Y-168664904D01*
X83289101Y-168701626D01*
X83289653Y-168707262D01*
X83315561Y-168953765D01*
X83322952Y-168989771D01*
X83329842Y-169025887D01*
X83331478Y-169031309D01*
X83404773Y-169268085D01*
X83419031Y-169302002D01*
X83432790Y-169336057D01*
X83435448Y-169341058D01*
X83553336Y-169559088D01*
X83573297Y-169588680D01*
X83270974Y-169588680D01*
X83246022Y-169506423D01*
X83201209Y-169422585D01*
X83140901Y-169349099D01*
X83122482Y-169333983D01*
X82484903Y-168696404D01*
X82473990Y-167331582D01*
X82476135Y-167309800D01*
X82473912Y-167287231D01*
X82474798Y-167100320D01*
X83431000Y-167100320D01*
X83500710Y-167093454D01*
X83567740Y-167073121D01*
X83629516Y-167040101D01*
X83683663Y-166995663D01*
X83728101Y-166941516D01*
X83761121Y-166879740D01*
X83781454Y-166812710D01*
X83788320Y-166743000D01*
X83788320Y-165743000D01*
X83781454Y-165673290D01*
X83761121Y-165606260D01*
X83728101Y-165544484D01*
X83683663Y-165490337D01*
X83638897Y-165453598D01*
X83689223Y-165378279D01*
X83753720Y-165222569D01*
X83786600Y-165057269D01*
X83786600Y-164888731D01*
X83753720Y-164723431D01*
X83689223Y-164567721D01*
X83595588Y-164427587D01*
X83506001Y-164338000D01*
X83563893Y-164280108D01*
X83568036Y-164285116D01*
G36*
X71209587Y-161827588D02*
G01*
X71349721Y-161921223D01*
X71505431Y-161985720D01*
X71670731Y-162018600D01*
X71839269Y-162018600D01*
X72004569Y-161985720D01*
X72160279Y-161921223D01*
X72235598Y-161870897D01*
X72272337Y-161915663D01*
X72326484Y-161960101D01*
X72388260Y-161993121D01*
X72405401Y-161998320D01*
X72405400Y-162058680D01*
X71988000Y-162058680D01*
X71918290Y-162065546D01*
X71851260Y-162085879D01*
X71789484Y-162118899D01*
X71735337Y-162163337D01*
X71690899Y-162217484D01*
X71657879Y-162279260D01*
X71638423Y-162343400D01*
X71357762Y-162343400D01*
X71334057Y-162341065D01*
X71310352Y-162343400D01*
X71310351Y-162343400D01*
X71239452Y-162350383D01*
X71148481Y-162377978D01*
X71064643Y-162422791D01*
X70991157Y-162483099D01*
X70976041Y-162501518D01*
X70363703Y-163113856D01*
X70345290Y-163128967D01*
X70330179Y-163147380D01*
X70330177Y-163147382D01*
X70284982Y-163202453D01*
X70240168Y-163286292D01*
X70212574Y-163377262D01*
X70203255Y-163471868D01*
X70205591Y-163495583D01*
X70205590Y-166646328D01*
X70185615Y-166666303D01*
X70156834Y-166637522D01*
X70025789Y-166549961D01*
X69880180Y-166489648D01*
X69725603Y-166458900D01*
X69567997Y-166458900D01*
X69413420Y-166489648D01*
X69405499Y-166492929D01*
X69405499Y-162925000D01*
X70326637Y-162003862D01*
X70400731Y-162018600D01*
X70569269Y-162018600D01*
X70734569Y-161985720D01*
X70890279Y-161921223D01*
X71030413Y-161827588D01*
X71120000Y-161738001D01*
X71209587Y-161827588D01*
G37*
X71209587Y-161827588D02*
X71349721Y-161921223D01*
X71505431Y-161985720D01*
X71670731Y-162018600D01*
X71839269Y-162018600D01*
X72004569Y-161985720D01*
X72160279Y-161921223D01*
X72235598Y-161870897D01*
X72272337Y-161915663D01*
X72326484Y-161960101D01*
X72388260Y-161993121D01*
X72405401Y-161998320D01*
X72405400Y-162058680D01*
X71988000Y-162058680D01*
X71918290Y-162065546D01*
X71851260Y-162085879D01*
X71789484Y-162118899D01*
X71735337Y-162163337D01*
X71690899Y-162217484D01*
X71657879Y-162279260D01*
X71638423Y-162343400D01*
X71357762Y-162343400D01*
X71334057Y-162341065D01*
X71310352Y-162343400D01*
X71310351Y-162343400D01*
X71239452Y-162350383D01*
X71148481Y-162377978D01*
X71064643Y-162422791D01*
X70991157Y-162483099D01*
X70976041Y-162501518D01*
X70363703Y-163113856D01*
X70345290Y-163128967D01*
X70330179Y-163147380D01*
X70330177Y-163147382D01*
X70284982Y-163202453D01*
X70240168Y-163286292D01*
X70212574Y-163377262D01*
X70203255Y-163471868D01*
X70205591Y-163495583D01*
X70205590Y-166646328D01*
X70185615Y-166666303D01*
X70156834Y-166637522D01*
X70025789Y-166549961D01*
X69880180Y-166489648D01*
X69725603Y-166458900D01*
X69567997Y-166458900D01*
X69413420Y-166489648D01*
X69405499Y-166492929D01*
X69405499Y-162925000D01*
X70326637Y-162003862D01*
X70400731Y-162018600D01*
X70569269Y-162018600D01*
X70734569Y-161985720D01*
X70890279Y-161921223D01*
X71030413Y-161827588D01*
X71120000Y-161738001D01*
X71209587Y-161827588D01*
G36*
X68097400Y-162280600D02*
G01*
X68117400Y-162280600D01*
X68117400Y-162585400D01*
X68097400Y-162585400D01*
X68097400Y-162605400D01*
X67792600Y-162605400D01*
X67792600Y-162585400D01*
X67772600Y-162585400D01*
X67772600Y-162280600D01*
X67792600Y-162280600D01*
X67792600Y-162260600D01*
X68097400Y-162260600D01*
X68097400Y-162280600D01*
G37*
X68097400Y-162280600D02*
X68117400Y-162280600D01*
X68117400Y-162585400D01*
X68097400Y-162585400D01*
X68097400Y-162605400D01*
X67792600Y-162605400D01*
X67792600Y-162585400D01*
X67772600Y-162585400D01*
X67772600Y-162280600D01*
X67792600Y-162280600D01*
X67792600Y-162260600D01*
X68097400Y-162260600D01*
X68097400Y-162280600D01*
G36*
X83083400Y-162280600D02*
G01*
X83103400Y-162280600D01*
X83103400Y-162585400D01*
X83083400Y-162585400D01*
X83083400Y-162605400D01*
X82778600Y-162605400D01*
X82778600Y-162585400D01*
X82758600Y-162585400D01*
X82758600Y-162280600D01*
X82778600Y-162280600D01*
X82778600Y-162260600D01*
X83083400Y-162260600D01*
X83083400Y-162280600D01*
G37*
X83083400Y-162280600D02*
X83103400Y-162280600D01*
X83103400Y-162585400D01*
X83083400Y-162585400D01*
X83083400Y-162605400D01*
X82778600Y-162605400D01*
X82778600Y-162585400D01*
X82758600Y-162585400D01*
X82758600Y-162280600D01*
X82778600Y-162280600D01*
X82778600Y-162260600D01*
X83083400Y-162260600D01*
X83083400Y-162280600D01*
G36*
X69367400Y-161010600D02*
G01*
X69387400Y-161010600D01*
X69387400Y-161315400D01*
X69367400Y-161315400D01*
X69367400Y-161335400D01*
X69062600Y-161335400D01*
X69062600Y-161315400D01*
X69042600Y-161315400D01*
X69042600Y-161010600D01*
X69062600Y-161010600D01*
X69062600Y-160990600D01*
X69367400Y-160990600D01*
X69367400Y-161010600D01*
G37*
X69367400Y-161010600D02*
X69387400Y-161010600D01*
X69387400Y-161315400D01*
X69367400Y-161315400D01*
X69367400Y-161335400D01*
X69062600Y-161335400D01*
X69062600Y-161315400D01*
X69042600Y-161315400D01*
X69042600Y-161010600D01*
X69062600Y-161010600D01*
X69062600Y-160990600D01*
X69367400Y-160990600D01*
X69367400Y-161010600D01*
G36*
X80562176Y-159542876D02*
G01*
X80604679Y-159555708D01*
X80643871Y-159576548D01*
X80678270Y-159604602D01*
X80706568Y-159638809D01*
X80727683Y-159677860D01*
X80740809Y-159720264D01*
X80749139Y-159799509D01*
X80749085Y-159807196D01*
X80749637Y-159812832D01*
X80762592Y-159936083D01*
X80769989Y-159972115D01*
X80776873Y-160008201D01*
X80778509Y-160013623D01*
X80815156Y-160132010D01*
X80829404Y-160165906D01*
X80843173Y-160199984D01*
X80845831Y-160204985D01*
X80900798Y-160306645D01*
X80891000Y-160305680D01*
X79891000Y-160305680D01*
X79821290Y-160312546D01*
X79754260Y-160332879D01*
X79692484Y-160365899D01*
X79638337Y-160410337D01*
X79593899Y-160464484D01*
X79560879Y-160526260D01*
X79540546Y-160593290D01*
X79533680Y-160663000D01*
X79533680Y-160680400D01*
X76071083Y-160680400D01*
X76084002Y-160674969D01*
X76118057Y-160661210D01*
X76123058Y-160658552D01*
X76341088Y-160540664D01*
X76371545Y-160520120D01*
X76402326Y-160499977D01*
X76406715Y-160496398D01*
X76597695Y-160338405D01*
X76623608Y-160312309D01*
X76649862Y-160286599D01*
X76653472Y-160282236D01*
X76810127Y-160090158D01*
X76830473Y-160059536D01*
X76851240Y-160029205D01*
X76853934Y-160024224D01*
X76970297Y-159805376D01*
X76984308Y-159771381D01*
X76998786Y-159737601D01*
X77000461Y-159732191D01*
X77059515Y-159536600D01*
X80498168Y-159536600D01*
X80562176Y-159542876D01*
G37*
X80562176Y-159542876D02*
X80604679Y-159555708D01*
X80643871Y-159576548D01*
X80678270Y-159604602D01*
X80706568Y-159638809D01*
X80727683Y-159677860D01*
X80740809Y-159720264D01*
X80749139Y-159799509D01*
X80749085Y-159807196D01*
X80749637Y-159812832D01*
X80762592Y-159936083D01*
X80769989Y-159972115D01*
X80776873Y-160008201D01*
X80778509Y-160013623D01*
X80815156Y-160132010D01*
X80829404Y-160165906D01*
X80843173Y-160199984D01*
X80845831Y-160204985D01*
X80900798Y-160306645D01*
X80891000Y-160305680D01*
X79891000Y-160305680D01*
X79821290Y-160312546D01*
X79754260Y-160332879D01*
X79692484Y-160365899D01*
X79638337Y-160410337D01*
X79593899Y-160464484D01*
X79560879Y-160526260D01*
X79540546Y-160593290D01*
X79533680Y-160663000D01*
X79533680Y-160680400D01*
X76071083Y-160680400D01*
X76084002Y-160674969D01*
X76118057Y-160661210D01*
X76123058Y-160658552D01*
X76341088Y-160540664D01*
X76371545Y-160520120D01*
X76402326Y-160499977D01*
X76406715Y-160496398D01*
X76597695Y-160338405D01*
X76623608Y-160312309D01*
X76649862Y-160286599D01*
X76653472Y-160282236D01*
X76810127Y-160090158D01*
X76830473Y-160059536D01*
X76851240Y-160029205D01*
X76853934Y-160024224D01*
X76970297Y-159805376D01*
X76984308Y-159771381D01*
X76998786Y-159737601D01*
X77000461Y-159732191D01*
X77059515Y-159536600D01*
X80498168Y-159536600D01*
X80562176Y-159542876D01*
G36*
X73884084Y-159753947D02*
G01*
X73898556Y-159787712D01*
X73905483Y-159804518D01*
X73853508Y-159799399D01*
X73853506Y-159799399D01*
X73829801Y-159797064D01*
X73806096Y-159799399D01*
X71389705Y-159799399D01*
X71366000Y-159797064D01*
X71342295Y-159799399D01*
X71342294Y-159799399D01*
X71271395Y-159806382D01*
X71180424Y-159833977D01*
X71096586Y-159878790D01*
X71023100Y-159939098D01*
X71007984Y-159957517D01*
X70643363Y-160322138D01*
X70569269Y-160307400D01*
X70400731Y-160307400D01*
X70235431Y-160340280D01*
X70079721Y-160404777D01*
X70043007Y-160429308D01*
X69953683Y-160340044D01*
X69972334Y-160312804D01*
X69975028Y-160307822D01*
X70033210Y-160198399D01*
X70047212Y-160164428D01*
X70061701Y-160130622D01*
X70063376Y-160125212D01*
X70099196Y-160006571D01*
X70106340Y-159970490D01*
X70113979Y-159934549D01*
X70114571Y-159928917D01*
X70126664Y-159805578D01*
X70134876Y-159721824D01*
X70147708Y-159679321D01*
X70168548Y-159640129D01*
X70196603Y-159605729D01*
X70230809Y-159577432D01*
X70269860Y-159556317D01*
X70312264Y-159543191D01*
X70374969Y-159536600D01*
X73815138Y-159536600D01*
X73884084Y-159753947D01*
G37*
X73884084Y-159753947D02*
X73898556Y-159787712D01*
X73905483Y-159804518D01*
X73853508Y-159799399D01*
X73853506Y-159799399D01*
X73829801Y-159797064D01*
X73806096Y-159799399D01*
X71389705Y-159799399D01*
X71366000Y-159797064D01*
X71342295Y-159799399D01*
X71342294Y-159799399D01*
X71271395Y-159806382D01*
X71180424Y-159833977D01*
X71096586Y-159878790D01*
X71023100Y-159939098D01*
X71007984Y-159957517D01*
X70643363Y-160322138D01*
X70569269Y-160307400D01*
X70400731Y-160307400D01*
X70235431Y-160340280D01*
X70079721Y-160404777D01*
X70043007Y-160429308D01*
X69953683Y-160340044D01*
X69972334Y-160312804D01*
X69975028Y-160307822D01*
X70033210Y-160198399D01*
X70047212Y-160164428D01*
X70061701Y-160130622D01*
X70063376Y-160125212D01*
X70099196Y-160006571D01*
X70106340Y-159970490D01*
X70113979Y-159934549D01*
X70114571Y-159928917D01*
X70126664Y-159805578D01*
X70134876Y-159721824D01*
X70147708Y-159679321D01*
X70168548Y-159640129D01*
X70196603Y-159605729D01*
X70230809Y-159577432D01*
X70269860Y-159556317D01*
X70312264Y-159543191D01*
X70374969Y-159536600D01*
X73815138Y-159536600D01*
X73884084Y-159753947D01*
M02*
