G04 #@! TF.GenerationSoftware,KiCad,Pcbnew,5.1.5*
G04 #@! TF.CreationDate,2020-05-19T10:20:19+02:00*
G04 #@! TF.ProjectId,amoeba-king,616d6f65-6261-42d6-9b69-6e672e6b6963,rev?*
G04 #@! TF.SameCoordinates,Original*
G04 #@! TF.FileFunction,Soldermask,Bot*
G04 #@! TF.FilePolarity,Negative*
%FSLAX46Y46*%
G04 Gerber Fmt 4.6, Leading zero omitted, Abs format (unit mm)*
G04 Created by KiCad (PCBNEW 5.1.5) date 2020-05-19 10:20:19*
%MOMM*%
%LPD*%
G04 APERTURE LIST*
%ADD10C,0.131817*%
%ADD11R,2.550000X2.500000*%
%ADD12C,3.980180*%
%ADD13C,2.950000*%
%ADD14C,1.700000*%
%ADD15R,1.000000X1.000000*%
%ADD16O,1.000000X1.000000*%
%ADD17R,0.600000X0.450000*%
%ADD18R,1.800000X0.820000*%
G04 APERTURE END LIST*
D10*
G36*
X80257799Y-164898886D02*
G01*
X80282173Y-164899781D01*
X80306060Y-164902427D01*
X80329398Y-164906758D01*
X80352124Y-164912713D01*
X80374173Y-164920228D01*
X80395483Y-164929240D01*
X80415991Y-164939686D01*
X80435633Y-164951502D01*
X80454347Y-164964626D01*
X80472069Y-164978994D01*
X80488736Y-164994543D01*
X80504285Y-165011210D01*
X80518653Y-165028932D01*
X80531777Y-165047646D01*
X80543594Y-165067289D01*
X80554039Y-165087796D01*
X80563051Y-165109107D01*
X80570566Y-165131156D01*
X80576521Y-165153881D01*
X80580853Y-165177219D01*
X80583498Y-165201107D01*
X80584394Y-165225481D01*
X80583338Y-165251493D01*
X80580237Y-165277196D01*
X80575132Y-165302476D01*
X80568067Y-165327220D01*
X80559083Y-165351313D01*
X80548223Y-165374642D01*
X80535530Y-165397093D01*
X80521045Y-165418552D01*
X80504812Y-165438904D01*
X80510546Y-165465738D01*
X80516334Y-165492641D01*
X80522235Y-165519526D01*
X80528309Y-165546310D01*
X80534616Y-165572906D01*
X80541216Y-165599228D01*
X80548168Y-165625191D01*
X80555531Y-165650709D01*
X80563366Y-165675696D01*
X80571733Y-165700068D01*
X80580690Y-165723737D01*
X80590297Y-165746620D01*
X80600615Y-165768629D01*
X80611704Y-165789679D01*
X80623621Y-165809685D01*
X80636428Y-165828562D01*
X80650184Y-165846222D01*
X80664949Y-165862582D01*
X80680782Y-165877554D01*
X80697743Y-165891054D01*
X80715892Y-165902996D01*
X80735289Y-165913294D01*
X80769633Y-165924626D01*
X80801549Y-165932650D01*
X80831173Y-165937624D01*
X80858643Y-165939806D01*
X80884095Y-165939453D01*
X80907667Y-165936822D01*
X80929495Y-165932172D01*
X80949716Y-165925759D01*
X80968468Y-165917840D01*
X80985887Y-165908675D01*
X81002111Y-165898519D01*
X81017275Y-165887630D01*
X81031518Y-165876266D01*
X81044977Y-165864685D01*
X81057787Y-165853144D01*
X81070087Y-165841899D01*
X81082014Y-165831210D01*
X81093703Y-165821332D01*
X81105293Y-165812525D01*
X81106293Y-165787773D01*
X81109243Y-165763573D01*
X81114064Y-165740001D01*
X81120678Y-165717136D01*
X81129009Y-165695055D01*
X81138978Y-165673835D01*
X81150508Y-165653555D01*
X81163521Y-165634292D01*
X81177939Y-165616123D01*
X81193685Y-165599127D01*
X81210681Y-165583381D01*
X81228850Y-165568963D01*
X81248113Y-165555950D01*
X81268393Y-165544420D01*
X81289613Y-165534451D01*
X81311694Y-165526120D01*
X81334559Y-165519505D01*
X81358131Y-165514685D01*
X81382332Y-165511735D01*
X81407083Y-165510735D01*
X81431835Y-165511735D01*
X81456035Y-165514685D01*
X81479607Y-165519505D01*
X81502472Y-165526120D01*
X81524554Y-165534451D01*
X81545773Y-165544420D01*
X81566053Y-165555950D01*
X81585317Y-165568963D01*
X81603485Y-165583381D01*
X81620481Y-165599127D01*
X81636227Y-165616123D01*
X81650645Y-165634292D01*
X81663658Y-165653555D01*
X81675188Y-165673835D01*
X81685157Y-165695055D01*
X81693488Y-165717136D01*
X81700103Y-165740001D01*
X81704924Y-165763573D01*
X81707873Y-165787773D01*
X81708873Y-165812525D01*
X81707873Y-165837276D01*
X81704924Y-165861477D01*
X81700103Y-165885049D01*
X81693488Y-165907914D01*
X81685157Y-165929995D01*
X81675188Y-165951215D01*
X81663658Y-165971495D01*
X81650645Y-165990758D01*
X81636227Y-166008927D01*
X81620481Y-166025923D01*
X81603485Y-166041669D01*
X81585317Y-166056087D01*
X81566053Y-166069100D01*
X81545773Y-166080630D01*
X81524554Y-166090599D01*
X81502472Y-166098930D01*
X81479607Y-166105545D01*
X81456035Y-166110365D01*
X81431835Y-166113315D01*
X81407083Y-166114315D01*
X81391837Y-166146310D01*
X81380191Y-166172836D01*
X81371583Y-166194756D01*
X81365452Y-166212937D01*
X81361235Y-166228243D01*
X81358372Y-166241539D01*
X81356301Y-166253691D01*
X81354460Y-166265562D01*
X81352287Y-166278018D01*
X81349222Y-166291925D01*
X81344702Y-166308146D01*
X81338166Y-166327547D01*
X81329052Y-166350993D01*
X81324234Y-166376601D01*
X81318971Y-166402925D01*
X81313303Y-166429881D01*
X81307272Y-166457384D01*
X81300918Y-166485350D01*
X81294284Y-166513692D01*
X81287410Y-166542327D01*
X81280337Y-166571169D01*
X81273107Y-166600134D01*
X81265761Y-166629136D01*
X81258341Y-166658092D01*
X81250887Y-166686915D01*
X81243441Y-166715521D01*
X81236044Y-166743826D01*
X81228737Y-166771744D01*
X81221562Y-166799190D01*
X81214560Y-166826080D01*
X81207772Y-166852329D01*
X81201239Y-166877851D01*
X81195003Y-166902563D01*
X81189105Y-166926378D01*
X81183586Y-166949213D01*
X81178488Y-166970982D01*
X81173851Y-166991600D01*
X81169717Y-167010983D01*
X81166128Y-167029046D01*
X81163123Y-167045703D01*
X81160746Y-167060871D01*
X81159036Y-167074463D01*
X81134256Y-167066915D01*
X81109894Y-167059458D01*
X81085908Y-167052101D01*
X81062260Y-167044854D01*
X81038909Y-167037725D01*
X81015816Y-167030722D01*
X80992942Y-167023855D01*
X80970245Y-167017133D01*
X80947687Y-167010564D01*
X80925228Y-167004157D01*
X80902828Y-166997921D01*
X80880447Y-166991866D01*
X80858045Y-166985998D01*
X80835583Y-166980329D01*
X80813021Y-166974865D01*
X80790319Y-166969617D01*
X80767438Y-166964593D01*
X80744337Y-166959802D01*
X80720977Y-166955252D01*
X80697317Y-166950953D01*
X80673319Y-166946913D01*
X80648943Y-166943142D01*
X80624148Y-166939647D01*
X80598895Y-166936439D01*
X80573144Y-166933525D01*
X80546856Y-166930914D01*
X80519990Y-166928616D01*
X80492507Y-166926639D01*
X80464367Y-166924992D01*
X80435530Y-166923684D01*
X80405957Y-166922723D01*
X80375607Y-166922119D01*
X80344442Y-166921881D01*
X80312420Y-166922016D01*
X80279503Y-166922535D01*
X80247820Y-166922847D01*
X80216760Y-166923406D01*
X80186300Y-166924209D01*
X80156417Y-166925254D01*
X80127090Y-166926537D01*
X80098294Y-166928056D01*
X80070008Y-166929810D01*
X80042208Y-166931795D01*
X80014871Y-166934010D01*
X79987975Y-166936451D01*
X79961498Y-166939116D01*
X79935416Y-166942003D01*
X79909706Y-166945110D01*
X79884346Y-166948433D01*
X79859313Y-166951971D01*
X79834584Y-166955721D01*
X79810136Y-166959681D01*
X79785948Y-166963848D01*
X79761994Y-166968219D01*
X79738254Y-166972792D01*
X79714705Y-166977566D01*
X79691322Y-166982537D01*
X79668085Y-166987702D01*
X79644969Y-166993060D01*
X79621952Y-166998608D01*
X79599012Y-167004344D01*
X79576125Y-167010265D01*
X79553269Y-167016368D01*
X79530422Y-167022652D01*
X79507559Y-167029113D01*
X79484659Y-167035750D01*
X79461698Y-167042559D01*
X79438655Y-167049539D01*
X79415505Y-167056687D01*
X79392227Y-167064001D01*
X79368797Y-167071477D01*
X79345193Y-167079114D01*
X79342665Y-167064936D01*
X79339229Y-167049307D01*
X79334949Y-167032305D01*
X79329888Y-167014011D01*
X79324111Y-166994504D01*
X79317680Y-166973863D01*
X79310660Y-166952167D01*
X79303113Y-166929496D01*
X79295103Y-166905929D01*
X79286695Y-166881545D01*
X79277950Y-166856424D01*
X79268934Y-166830644D01*
X79259709Y-166804285D01*
X79250339Y-166777427D01*
X79240888Y-166750149D01*
X79231418Y-166722530D01*
X79221995Y-166694649D01*
X79212680Y-166666586D01*
X79203538Y-166638419D01*
X79194633Y-166610229D01*
X79186027Y-166582094D01*
X79177785Y-166554095D01*
X79169970Y-166526309D01*
X79162645Y-166498817D01*
X79155874Y-166471697D01*
X79149721Y-166445030D01*
X79144249Y-166418894D01*
X79139521Y-166393368D01*
X79132403Y-166361179D01*
X79125335Y-166331340D01*
X79118306Y-166303731D01*
X79111308Y-166278233D01*
X79104329Y-166254727D01*
X79097360Y-166233094D01*
X79090390Y-166213214D01*
X79083410Y-166194970D01*
X79076409Y-166178240D01*
X79069378Y-166162907D01*
X79062306Y-166148851D01*
X79055183Y-166135953D01*
X79047999Y-166124093D01*
X79040744Y-166113153D01*
X79033409Y-166103014D01*
X79025982Y-166093556D01*
X79018453Y-166084660D01*
X79010814Y-166076207D01*
X79003053Y-166068077D01*
X78995160Y-166060153D01*
X78987127Y-166052313D01*
X78978941Y-166044441D01*
X78970594Y-166036415D01*
X78962075Y-166028117D01*
X78953374Y-166019428D01*
X78944481Y-166010229D01*
X78935386Y-166000400D01*
X78926079Y-165989823D01*
X78916550Y-165978378D01*
X78906789Y-165965946D01*
X78896785Y-165952407D01*
X78886529Y-165937644D01*
X78876010Y-165921536D01*
X78865219Y-165903964D01*
X78854145Y-165884810D01*
X78842778Y-165863954D01*
X78831109Y-165841277D01*
X78819127Y-165816659D01*
X78820127Y-165791908D01*
X78823076Y-165767707D01*
X78827897Y-165744135D01*
X78834512Y-165721270D01*
X78842843Y-165699189D01*
X78852812Y-165677969D01*
X78864342Y-165657689D01*
X78877355Y-165638426D01*
X78891773Y-165620257D01*
X78907519Y-165603261D01*
X78924515Y-165587515D01*
X78942683Y-165573097D01*
X78961947Y-165560084D01*
X78982227Y-165548554D01*
X79003446Y-165538585D01*
X79025528Y-165530254D01*
X79048393Y-165523640D01*
X79071965Y-165518819D01*
X79096165Y-165515869D01*
X79120917Y-165514869D01*
X79145668Y-165515869D01*
X79169869Y-165518819D01*
X79193441Y-165523640D01*
X79216306Y-165530254D01*
X79238387Y-165538585D01*
X79259607Y-165548554D01*
X79279887Y-165560084D01*
X79299150Y-165573097D01*
X79317319Y-165587515D01*
X79334315Y-165603261D01*
X79350061Y-165620257D01*
X79364479Y-165638426D01*
X79377492Y-165657689D01*
X79389022Y-165677969D01*
X79398991Y-165699189D01*
X79407322Y-165721270D01*
X79413936Y-165744135D01*
X79418757Y-165767707D01*
X79421707Y-165791908D01*
X79422707Y-165816659D01*
X79423802Y-165841304D01*
X79427421Y-165862960D01*
X79433404Y-165881797D01*
X79441588Y-165897989D01*
X79451814Y-165911706D01*
X79463921Y-165923120D01*
X79477747Y-165932404D01*
X79493132Y-165939728D01*
X79509914Y-165945266D01*
X79527933Y-165949189D01*
X79547028Y-165951668D01*
X79567037Y-165952875D01*
X79587801Y-165952983D01*
X79609157Y-165952163D01*
X79630946Y-165950587D01*
X79653006Y-165948427D01*
X79675175Y-165945854D01*
X79697294Y-165943041D01*
X79719202Y-165940159D01*
X79740736Y-165937380D01*
X79761738Y-165934876D01*
X79782044Y-165932819D01*
X79801495Y-165931381D01*
X79820016Y-165920819D01*
X79837263Y-165908725D01*
X79853298Y-165895178D01*
X79868179Y-165880254D01*
X79881965Y-165864032D01*
X79894717Y-165846589D01*
X79906493Y-165828003D01*
X79917353Y-165808350D01*
X79927357Y-165787709D01*
X79936564Y-165766158D01*
X79945034Y-165743773D01*
X79952825Y-165720632D01*
X79959998Y-165696813D01*
X79966612Y-165672393D01*
X79972726Y-165647451D01*
X79978400Y-165622063D01*
X79983693Y-165596307D01*
X79988664Y-165570261D01*
X79993374Y-165544001D01*
X79997882Y-165517607D01*
X80002246Y-165491155D01*
X80006528Y-165464723D01*
X80010785Y-165438388D01*
X79994586Y-165418082D01*
X79980128Y-165396675D01*
X79967453Y-165374280D01*
X79956603Y-165351009D01*
X79947619Y-165326976D01*
X79940545Y-165302293D01*
X79935423Y-165277075D01*
X79932295Y-165251433D01*
X79931203Y-165225481D01*
X79932099Y-165201107D01*
X79934744Y-165177219D01*
X79939076Y-165153881D01*
X79945031Y-165131156D01*
X79952546Y-165109107D01*
X79961558Y-165087796D01*
X79972003Y-165067289D01*
X79983820Y-165047646D01*
X79996943Y-165028932D01*
X80011311Y-165011210D01*
X80026861Y-164994543D01*
X80043528Y-164978994D01*
X80061250Y-164964626D01*
X80079964Y-164951502D01*
X80099606Y-164939686D01*
X80120114Y-164929240D01*
X80141424Y-164920228D01*
X80163473Y-164912713D01*
X80186198Y-164906758D01*
X80209536Y-164902427D01*
X80233424Y-164899781D01*
X80257798Y-164898886D01*
X80257799Y-164898886D01*
G37*
X80257799Y-164898886D02*
X80282173Y-164899781D01*
X80306060Y-164902427D01*
X80329398Y-164906758D01*
X80352124Y-164912713D01*
X80374173Y-164920228D01*
X80395483Y-164929240D01*
X80415991Y-164939686D01*
X80435633Y-164951502D01*
X80454347Y-164964626D01*
X80472069Y-164978994D01*
X80488736Y-164994543D01*
X80504285Y-165011210D01*
X80518653Y-165028932D01*
X80531777Y-165047646D01*
X80543594Y-165067289D01*
X80554039Y-165087796D01*
X80563051Y-165109107D01*
X80570566Y-165131156D01*
X80576521Y-165153881D01*
X80580853Y-165177219D01*
X80583498Y-165201107D01*
X80584394Y-165225481D01*
X80583338Y-165251493D01*
X80580237Y-165277196D01*
X80575132Y-165302476D01*
X80568067Y-165327220D01*
X80559083Y-165351313D01*
X80548223Y-165374642D01*
X80535530Y-165397093D01*
X80521045Y-165418552D01*
X80504812Y-165438904D01*
X80510546Y-165465738D01*
X80516334Y-165492641D01*
X80522235Y-165519526D01*
X80528309Y-165546310D01*
X80534616Y-165572906D01*
X80541216Y-165599228D01*
X80548168Y-165625191D01*
X80555531Y-165650709D01*
X80563366Y-165675696D01*
X80571733Y-165700068D01*
X80580690Y-165723737D01*
X80590297Y-165746620D01*
X80600615Y-165768629D01*
X80611704Y-165789679D01*
X80623621Y-165809685D01*
X80636428Y-165828562D01*
X80650184Y-165846222D01*
X80664949Y-165862582D01*
X80680782Y-165877554D01*
X80697743Y-165891054D01*
X80715892Y-165902996D01*
X80735289Y-165913294D01*
X80769633Y-165924626D01*
X80801549Y-165932650D01*
X80831173Y-165937624D01*
X80858643Y-165939806D01*
X80884095Y-165939453D01*
X80907667Y-165936822D01*
X80929495Y-165932172D01*
X80949716Y-165925759D01*
X80968468Y-165917840D01*
X80985887Y-165908675D01*
X81002111Y-165898519D01*
X81017275Y-165887630D01*
X81031518Y-165876266D01*
X81044977Y-165864685D01*
X81057787Y-165853144D01*
X81070087Y-165841899D01*
X81082014Y-165831210D01*
X81093703Y-165821332D01*
X81105293Y-165812525D01*
X81106293Y-165787773D01*
X81109243Y-165763573D01*
X81114064Y-165740001D01*
X81120678Y-165717136D01*
X81129009Y-165695055D01*
X81138978Y-165673835D01*
X81150508Y-165653555D01*
X81163521Y-165634292D01*
X81177939Y-165616123D01*
X81193685Y-165599127D01*
X81210681Y-165583381D01*
X81228850Y-165568963D01*
X81248113Y-165555950D01*
X81268393Y-165544420D01*
X81289613Y-165534451D01*
X81311694Y-165526120D01*
X81334559Y-165519505D01*
X81358131Y-165514685D01*
X81382332Y-165511735D01*
X81407083Y-165510735D01*
X81431835Y-165511735D01*
X81456035Y-165514685D01*
X81479607Y-165519505D01*
X81502472Y-165526120D01*
X81524554Y-165534451D01*
X81545773Y-165544420D01*
X81566053Y-165555950D01*
X81585317Y-165568963D01*
X81603485Y-165583381D01*
X81620481Y-165599127D01*
X81636227Y-165616123D01*
X81650645Y-165634292D01*
X81663658Y-165653555D01*
X81675188Y-165673835D01*
X81685157Y-165695055D01*
X81693488Y-165717136D01*
X81700103Y-165740001D01*
X81704924Y-165763573D01*
X81707873Y-165787773D01*
X81708873Y-165812525D01*
X81707873Y-165837276D01*
X81704924Y-165861477D01*
X81700103Y-165885049D01*
X81693488Y-165907914D01*
X81685157Y-165929995D01*
X81675188Y-165951215D01*
X81663658Y-165971495D01*
X81650645Y-165990758D01*
X81636227Y-166008927D01*
X81620481Y-166025923D01*
X81603485Y-166041669D01*
X81585317Y-166056087D01*
X81566053Y-166069100D01*
X81545773Y-166080630D01*
X81524554Y-166090599D01*
X81502472Y-166098930D01*
X81479607Y-166105545D01*
X81456035Y-166110365D01*
X81431835Y-166113315D01*
X81407083Y-166114315D01*
X81391837Y-166146310D01*
X81380191Y-166172836D01*
X81371583Y-166194756D01*
X81365452Y-166212937D01*
X81361235Y-166228243D01*
X81358372Y-166241539D01*
X81356301Y-166253691D01*
X81354460Y-166265562D01*
X81352287Y-166278018D01*
X81349222Y-166291925D01*
X81344702Y-166308146D01*
X81338166Y-166327547D01*
X81329052Y-166350993D01*
X81324234Y-166376601D01*
X81318971Y-166402925D01*
X81313303Y-166429881D01*
X81307272Y-166457384D01*
X81300918Y-166485350D01*
X81294284Y-166513692D01*
X81287410Y-166542327D01*
X81280337Y-166571169D01*
X81273107Y-166600134D01*
X81265761Y-166629136D01*
X81258341Y-166658092D01*
X81250887Y-166686915D01*
X81243441Y-166715521D01*
X81236044Y-166743826D01*
X81228737Y-166771744D01*
X81221562Y-166799190D01*
X81214560Y-166826080D01*
X81207772Y-166852329D01*
X81201239Y-166877851D01*
X81195003Y-166902563D01*
X81189105Y-166926378D01*
X81183586Y-166949213D01*
X81178488Y-166970982D01*
X81173851Y-166991600D01*
X81169717Y-167010983D01*
X81166128Y-167029046D01*
X81163123Y-167045703D01*
X81160746Y-167060871D01*
X81159036Y-167074463D01*
X81134256Y-167066915D01*
X81109894Y-167059458D01*
X81085908Y-167052101D01*
X81062260Y-167044854D01*
X81038909Y-167037725D01*
X81015816Y-167030722D01*
X80992942Y-167023855D01*
X80970245Y-167017133D01*
X80947687Y-167010564D01*
X80925228Y-167004157D01*
X80902828Y-166997921D01*
X80880447Y-166991866D01*
X80858045Y-166985998D01*
X80835583Y-166980329D01*
X80813021Y-166974865D01*
X80790319Y-166969617D01*
X80767438Y-166964593D01*
X80744337Y-166959802D01*
X80720977Y-166955252D01*
X80697317Y-166950953D01*
X80673319Y-166946913D01*
X80648943Y-166943142D01*
X80624148Y-166939647D01*
X80598895Y-166936439D01*
X80573144Y-166933525D01*
X80546856Y-166930914D01*
X80519990Y-166928616D01*
X80492507Y-166926639D01*
X80464367Y-166924992D01*
X80435530Y-166923684D01*
X80405957Y-166922723D01*
X80375607Y-166922119D01*
X80344442Y-166921881D01*
X80312420Y-166922016D01*
X80279503Y-166922535D01*
X80247820Y-166922847D01*
X80216760Y-166923406D01*
X80186300Y-166924209D01*
X80156417Y-166925254D01*
X80127090Y-166926537D01*
X80098294Y-166928056D01*
X80070008Y-166929810D01*
X80042208Y-166931795D01*
X80014871Y-166934010D01*
X79987975Y-166936451D01*
X79961498Y-166939116D01*
X79935416Y-166942003D01*
X79909706Y-166945110D01*
X79884346Y-166948433D01*
X79859313Y-166951971D01*
X79834584Y-166955721D01*
X79810136Y-166959681D01*
X79785948Y-166963848D01*
X79761994Y-166968219D01*
X79738254Y-166972792D01*
X79714705Y-166977566D01*
X79691322Y-166982537D01*
X79668085Y-166987702D01*
X79644969Y-166993060D01*
X79621952Y-166998608D01*
X79599012Y-167004344D01*
X79576125Y-167010265D01*
X79553269Y-167016368D01*
X79530422Y-167022652D01*
X79507559Y-167029113D01*
X79484659Y-167035750D01*
X79461698Y-167042559D01*
X79438655Y-167049539D01*
X79415505Y-167056687D01*
X79392227Y-167064001D01*
X79368797Y-167071477D01*
X79345193Y-167079114D01*
X79342665Y-167064936D01*
X79339229Y-167049307D01*
X79334949Y-167032305D01*
X79329888Y-167014011D01*
X79324111Y-166994504D01*
X79317680Y-166973863D01*
X79310660Y-166952167D01*
X79303113Y-166929496D01*
X79295103Y-166905929D01*
X79286695Y-166881545D01*
X79277950Y-166856424D01*
X79268934Y-166830644D01*
X79259709Y-166804285D01*
X79250339Y-166777427D01*
X79240888Y-166750149D01*
X79231418Y-166722530D01*
X79221995Y-166694649D01*
X79212680Y-166666586D01*
X79203538Y-166638419D01*
X79194633Y-166610229D01*
X79186027Y-166582094D01*
X79177785Y-166554095D01*
X79169970Y-166526309D01*
X79162645Y-166498817D01*
X79155874Y-166471697D01*
X79149721Y-166445030D01*
X79144249Y-166418894D01*
X79139521Y-166393368D01*
X79132403Y-166361179D01*
X79125335Y-166331340D01*
X79118306Y-166303731D01*
X79111308Y-166278233D01*
X79104329Y-166254727D01*
X79097360Y-166233094D01*
X79090390Y-166213214D01*
X79083410Y-166194970D01*
X79076409Y-166178240D01*
X79069378Y-166162907D01*
X79062306Y-166148851D01*
X79055183Y-166135953D01*
X79047999Y-166124093D01*
X79040744Y-166113153D01*
X79033409Y-166103014D01*
X79025982Y-166093556D01*
X79018453Y-166084660D01*
X79010814Y-166076207D01*
X79003053Y-166068077D01*
X78995160Y-166060153D01*
X78987127Y-166052313D01*
X78978941Y-166044441D01*
X78970594Y-166036415D01*
X78962075Y-166028117D01*
X78953374Y-166019428D01*
X78944481Y-166010229D01*
X78935386Y-166000400D01*
X78926079Y-165989823D01*
X78916550Y-165978378D01*
X78906789Y-165965946D01*
X78896785Y-165952407D01*
X78886529Y-165937644D01*
X78876010Y-165921536D01*
X78865219Y-165903964D01*
X78854145Y-165884810D01*
X78842778Y-165863954D01*
X78831109Y-165841277D01*
X78819127Y-165816659D01*
X78820127Y-165791908D01*
X78823076Y-165767707D01*
X78827897Y-165744135D01*
X78834512Y-165721270D01*
X78842843Y-165699189D01*
X78852812Y-165677969D01*
X78864342Y-165657689D01*
X78877355Y-165638426D01*
X78891773Y-165620257D01*
X78907519Y-165603261D01*
X78924515Y-165587515D01*
X78942683Y-165573097D01*
X78961947Y-165560084D01*
X78982227Y-165548554D01*
X79003446Y-165538585D01*
X79025528Y-165530254D01*
X79048393Y-165523640D01*
X79071965Y-165518819D01*
X79096165Y-165515869D01*
X79120917Y-165514869D01*
X79145668Y-165515869D01*
X79169869Y-165518819D01*
X79193441Y-165523640D01*
X79216306Y-165530254D01*
X79238387Y-165538585D01*
X79259607Y-165548554D01*
X79279887Y-165560084D01*
X79299150Y-165573097D01*
X79317319Y-165587515D01*
X79334315Y-165603261D01*
X79350061Y-165620257D01*
X79364479Y-165638426D01*
X79377492Y-165657689D01*
X79389022Y-165677969D01*
X79398991Y-165699189D01*
X79407322Y-165721270D01*
X79413936Y-165744135D01*
X79418757Y-165767707D01*
X79421707Y-165791908D01*
X79422707Y-165816659D01*
X79423802Y-165841304D01*
X79427421Y-165862960D01*
X79433404Y-165881797D01*
X79441588Y-165897989D01*
X79451814Y-165911706D01*
X79463921Y-165923120D01*
X79477747Y-165932404D01*
X79493132Y-165939728D01*
X79509914Y-165945266D01*
X79527933Y-165949189D01*
X79547028Y-165951668D01*
X79567037Y-165952875D01*
X79587801Y-165952983D01*
X79609157Y-165952163D01*
X79630946Y-165950587D01*
X79653006Y-165948427D01*
X79675175Y-165945854D01*
X79697294Y-165943041D01*
X79719202Y-165940159D01*
X79740736Y-165937380D01*
X79761738Y-165934876D01*
X79782044Y-165932819D01*
X79801495Y-165931381D01*
X79820016Y-165920819D01*
X79837263Y-165908725D01*
X79853298Y-165895178D01*
X79868179Y-165880254D01*
X79881965Y-165864032D01*
X79894717Y-165846589D01*
X79906493Y-165828003D01*
X79917353Y-165808350D01*
X79927357Y-165787709D01*
X79936564Y-165766158D01*
X79945034Y-165743773D01*
X79952825Y-165720632D01*
X79959998Y-165696813D01*
X79966612Y-165672393D01*
X79972726Y-165647451D01*
X79978400Y-165622063D01*
X79983693Y-165596307D01*
X79988664Y-165570261D01*
X79993374Y-165544001D01*
X79997882Y-165517607D01*
X80002246Y-165491155D01*
X80006528Y-165464723D01*
X80010785Y-165438388D01*
X79994586Y-165418082D01*
X79980128Y-165396675D01*
X79967453Y-165374280D01*
X79956603Y-165351009D01*
X79947619Y-165326976D01*
X79940545Y-165302293D01*
X79935423Y-165277075D01*
X79932295Y-165251433D01*
X79931203Y-165225481D01*
X79932099Y-165201107D01*
X79934744Y-165177219D01*
X79939076Y-165153881D01*
X79945031Y-165131156D01*
X79952546Y-165109107D01*
X79961558Y-165087796D01*
X79972003Y-165067289D01*
X79983820Y-165047646D01*
X79996943Y-165028932D01*
X80011311Y-165011210D01*
X80026861Y-164994543D01*
X80043528Y-164978994D01*
X80061250Y-164964626D01*
X80079964Y-164951502D01*
X80099606Y-164939686D01*
X80120114Y-164929240D01*
X80141424Y-164920228D01*
X80163473Y-164912713D01*
X80186198Y-164906758D01*
X80209536Y-164902427D01*
X80233424Y-164899781D01*
X80257798Y-164898886D01*
X80257799Y-164898886D01*
D11*
X82798000Y-171196000D03*
D12*
X75438000Y-168656000D03*
D13*
X72898000Y-173736000D03*
X79248000Y-171196000D03*
D11*
X69348000Y-173736000D03*
D14*
X70358000Y-168656000D03*
X80518000Y-168656000D03*
D15*
X80518000Y-176149000D03*
X80391000Y-161163000D03*
D16*
X69215000Y-161163000D03*
X70485000Y-161163000D03*
X71755000Y-161163000D03*
D15*
X73025000Y-161163000D03*
D16*
X82931000Y-161163000D03*
X82931000Y-162433000D03*
X82931000Y-163703000D03*
X82931000Y-164973000D03*
D15*
X82931000Y-166243000D03*
D16*
X67945000Y-161163000D03*
X67945000Y-162433000D03*
X67945000Y-163703000D03*
X67945000Y-164973000D03*
D15*
X67945000Y-166243000D03*
D16*
X67945000Y-176149000D03*
X69215000Y-176149000D03*
X70485000Y-176149000D03*
X71755000Y-176149000D03*
D15*
X73025000Y-176149000D03*
D17*
X67479200Y-170611800D03*
X69579200Y-170611800D03*
D18*
X72888000Y-162826000D03*
X72888000Y-164326000D03*
X77988000Y-164326000D03*
X77988000Y-162826000D03*
M02*
