G04 #@! TF.GenerationSoftware,KiCad,Pcbnew,5.1.5*
G04 #@! TF.CreationDate,2020-05-19T10:20:19+02:00*
G04 #@! TF.ProjectId,amoeba-king,616d6f65-6261-42d6-9b69-6e672e6b6963,rev?*
G04 #@! TF.SameCoordinates,Original*
G04 #@! TF.FileFunction,Legend,Bot*
G04 #@! TF.FilePolarity,Positive*
%FSLAX46Y46*%
G04 Gerber Fmt 4.6, Leading zero omitted, Abs format (unit mm)*
G04 Created by KiCad (PCBNEW 5.1.5) date 2020-05-19 10:20:19*
%MOMM*%
%LPD*%
G04 APERTURE LIST*
%ADD10C,0.152400*%
%ADD11C,0.150000*%
%ADD12C,0.158750*%
%ADD13C,0.100000*%
%ADD14C,0.120000*%
G04 APERTURE END LIST*
D10*
X68826742Y-162509200D02*
X68884800Y-162480171D01*
X68971885Y-162480171D01*
X69058971Y-162509200D01*
X69117028Y-162567257D01*
X69146057Y-162625314D01*
X69175085Y-162741428D01*
X69175085Y-162828514D01*
X69146057Y-162944628D01*
X69117028Y-163002685D01*
X69058971Y-163060742D01*
X68971885Y-163089771D01*
X68913828Y-163089771D01*
X68826742Y-163060742D01*
X68797714Y-163031714D01*
X68797714Y-162828514D01*
X68913828Y-162828514D01*
X69138800Y-162327771D02*
X69138800Y-161718171D01*
X68993657Y-161718171D01*
X68906571Y-161747200D01*
X68848514Y-161805257D01*
X68819485Y-161863314D01*
X68790457Y-161979428D01*
X68790457Y-162066514D01*
X68819485Y-162182628D01*
X68848514Y-162240685D01*
X68906571Y-162298742D01*
X68993657Y-162327771D01*
X69138800Y-162327771D01*
X68529200Y-162327771D02*
X68529200Y-161718171D01*
D11*
X80155142Y-160292142D02*
X80191428Y-160328428D01*
X80300285Y-160364714D01*
X80372857Y-160364714D01*
X80481714Y-160328428D01*
X80554285Y-160255857D01*
X80590571Y-160183285D01*
X80626857Y-160038142D01*
X80626857Y-159929285D01*
X80590571Y-159784142D01*
X80554285Y-159711571D01*
X80481714Y-159639000D01*
X80372857Y-159602714D01*
X80300285Y-159602714D01*
X80191428Y-159639000D01*
X80155142Y-159675285D01*
X80282142Y-177564142D02*
X80318428Y-177600428D01*
X80427285Y-177636714D01*
X80499857Y-177636714D01*
X80608714Y-177600428D01*
X80681285Y-177527857D01*
X80717571Y-177455285D01*
X80753857Y-177310142D01*
X80753857Y-177201285D01*
X80717571Y-177056142D01*
X80681285Y-176983571D01*
X80608714Y-176911000D01*
X80499857Y-176874714D01*
X80427285Y-176874714D01*
X80318428Y-176911000D01*
X80282142Y-176947285D01*
D10*
X68449371Y-175383371D02*
X68449371Y-174773771D01*
X68304228Y-174773771D01*
X68217142Y-174802800D01*
X68159085Y-174860857D01*
X68130057Y-174918914D01*
X68101028Y-175035028D01*
X68101028Y-175122114D01*
X68130057Y-175238228D01*
X68159085Y-175296285D01*
X68217142Y-175354342D01*
X68304228Y-175383371D01*
X68449371Y-175383371D01*
X67723657Y-174773771D02*
X67607542Y-174773771D01*
X67549485Y-174802800D01*
X67491428Y-174860857D01*
X67462400Y-174976971D01*
X67462400Y-175180171D01*
X67491428Y-175296285D01*
X67549485Y-175354342D01*
X67607542Y-175383371D01*
X67723657Y-175383371D01*
X67781714Y-175354342D01*
X67839771Y-175296285D01*
X67868800Y-175180171D01*
X67868800Y-174976971D01*
X67839771Y-174860857D01*
X67781714Y-174802800D01*
X67723657Y-174773771D01*
X69055342Y-174828200D02*
X69113400Y-174799171D01*
X69200485Y-174799171D01*
X69287571Y-174828200D01*
X69345628Y-174886257D01*
X69374657Y-174944314D01*
X69403685Y-175060428D01*
X69403685Y-175147514D01*
X69374657Y-175263628D01*
X69345628Y-175321685D01*
X69287571Y-175379742D01*
X69200485Y-175408771D01*
X69142428Y-175408771D01*
X69055342Y-175379742D01*
X69026314Y-175350714D01*
X69026314Y-175147514D01*
X69142428Y-175147514D01*
D11*
X70249142Y-177564142D02*
X70285428Y-177600428D01*
X70394285Y-177636714D01*
X70466857Y-177636714D01*
X70575714Y-177600428D01*
X70648285Y-177527857D01*
X70684571Y-177455285D01*
X70720857Y-177310142D01*
X70720857Y-177201285D01*
X70684571Y-177056142D01*
X70648285Y-176983571D01*
X70575714Y-176911000D01*
X70466857Y-176874714D01*
X70394285Y-176874714D01*
X70285428Y-176911000D01*
X70249142Y-176947285D01*
D10*
X71958200Y-176958171D02*
X71755000Y-177567771D01*
X71551800Y-176958171D01*
X73456800Y-177567771D02*
X73456800Y-176958171D01*
X73311657Y-176958171D01*
X73224571Y-176987200D01*
X73166514Y-177045257D01*
X73137485Y-177103314D01*
X73108457Y-177219428D01*
X73108457Y-177306514D01*
X73137485Y-177422628D01*
X73166514Y-177480685D01*
X73224571Y-177538742D01*
X73311657Y-177567771D01*
X73456800Y-177567771D01*
X72847200Y-177567771D02*
X72847200Y-176958171D01*
D12*
X73523928Y-160434261D02*
X73523928Y-159799261D01*
X73372738Y-159799261D01*
X73282023Y-159829500D01*
X73221547Y-159889976D01*
X73191309Y-159950452D01*
X73161071Y-160071404D01*
X73161071Y-160162119D01*
X73191309Y-160283071D01*
X73221547Y-160343547D01*
X73282023Y-160404023D01*
X73372738Y-160434261D01*
X73523928Y-160434261D01*
X72767976Y-159799261D02*
X72647023Y-159799261D01*
X72586547Y-159829500D01*
X72526071Y-159889976D01*
X72495833Y-160010928D01*
X72495833Y-160222595D01*
X72526071Y-160343547D01*
X72586547Y-160404023D01*
X72647023Y-160434261D01*
X72767976Y-160434261D01*
X72828452Y-160404023D01*
X72888928Y-160343547D01*
X72919166Y-160222595D01*
X72919166Y-160010928D01*
X72888928Y-159889976D01*
X72828452Y-159829500D01*
X72767976Y-159799261D01*
X71966666Y-159799261D02*
X71755000Y-160434261D01*
X71543333Y-159799261D01*
D11*
X70249142Y-162705142D02*
X70285428Y-162741428D01*
X70394285Y-162777714D01*
X70466857Y-162777714D01*
X70575714Y-162741428D01*
X70648285Y-162668857D01*
X70684571Y-162596285D01*
X70720857Y-162451142D01*
X70720857Y-162342285D01*
X70684571Y-162197142D01*
X70648285Y-162124571D01*
X70575714Y-162052000D01*
X70466857Y-162015714D01*
X70394285Y-162015714D01*
X70285428Y-162052000D01*
X70249142Y-162088285D01*
D10*
X69487142Y-161975800D02*
X69545200Y-161946771D01*
X69632285Y-161946771D01*
X69719371Y-161975800D01*
X69777428Y-162033857D01*
X69806457Y-162091914D01*
X69835485Y-162208028D01*
X69835485Y-162295114D01*
X69806457Y-162411228D01*
X69777428Y-162469285D01*
X69719371Y-162527342D01*
X69632285Y-162556371D01*
X69574228Y-162556371D01*
X69487142Y-162527342D01*
X69458114Y-162498314D01*
X69458114Y-162295114D01*
X69574228Y-162295114D01*
D11*
X68725142Y-164047714D02*
X68979142Y-163684857D01*
X69160571Y-164047714D02*
X69160571Y-163285714D01*
X68870285Y-163285714D01*
X68797714Y-163322000D01*
X68761428Y-163358285D01*
X68725142Y-163430857D01*
X68725142Y-163539714D01*
X68761428Y-163612285D01*
X68797714Y-163648571D01*
X68870285Y-163684857D01*
X69160571Y-163684857D01*
D10*
X69164200Y-164639171D02*
X68961000Y-165248771D01*
X68757800Y-164639171D01*
X69693971Y-166518771D02*
X69693971Y-165909171D01*
X69548828Y-165909171D01*
X69461742Y-165938200D01*
X69403685Y-165996257D01*
X69374657Y-166054314D01*
X69345628Y-166170428D01*
X69345628Y-166257514D01*
X69374657Y-166373628D01*
X69403685Y-166431685D01*
X69461742Y-166489742D01*
X69548828Y-166518771D01*
X69693971Y-166518771D01*
X68968257Y-165909171D02*
X68852142Y-165909171D01*
X68794085Y-165938200D01*
X68736028Y-165996257D01*
X68707000Y-166112371D01*
X68707000Y-166315571D01*
X68736028Y-166431685D01*
X68794085Y-166489742D01*
X68852142Y-166518771D01*
X68968257Y-166518771D01*
X69026314Y-166489742D01*
X69084371Y-166431685D01*
X69113400Y-166315571D01*
X69113400Y-166112371D01*
X69084371Y-165996257D01*
X69026314Y-165938200D01*
X68968257Y-165909171D01*
X82266971Y-161438771D02*
X82266971Y-160829171D01*
X82121828Y-160829171D01*
X82034742Y-160858200D01*
X81976685Y-160916257D01*
X81947657Y-160974314D01*
X81918628Y-161090428D01*
X81918628Y-161177514D01*
X81947657Y-161293628D01*
X81976685Y-161351685D01*
X82034742Y-161409742D01*
X82121828Y-161438771D01*
X82266971Y-161438771D01*
X81541257Y-160829171D02*
X81425142Y-160829171D01*
X81367085Y-160858200D01*
X81309028Y-160916257D01*
X81280000Y-161032371D01*
X81280000Y-161235571D01*
X81309028Y-161351685D01*
X81367085Y-161409742D01*
X81425142Y-161438771D01*
X81541257Y-161438771D01*
X81599314Y-161409742D01*
X81657371Y-161351685D01*
X81686400Y-161235571D01*
X81686400Y-161032371D01*
X81657371Y-160916257D01*
X81599314Y-160858200D01*
X81541257Y-160829171D01*
X81755342Y-162128200D02*
X81813400Y-162099171D01*
X81900485Y-162099171D01*
X81987571Y-162128200D01*
X82045628Y-162186257D01*
X82074657Y-162244314D01*
X82103685Y-162360428D01*
X82103685Y-162447514D01*
X82074657Y-162563628D01*
X82045628Y-162621685D01*
X81987571Y-162679742D01*
X81900485Y-162708771D01*
X81842428Y-162708771D01*
X81755342Y-162679742D01*
X81726314Y-162650714D01*
X81726314Y-162447514D01*
X81842428Y-162447514D01*
D11*
X81679142Y-164047714D02*
X81933142Y-163684857D01*
X82114571Y-164047714D02*
X82114571Y-163285714D01*
X81824285Y-163285714D01*
X81751714Y-163322000D01*
X81715428Y-163358285D01*
X81679142Y-163430857D01*
X81679142Y-163539714D01*
X81715428Y-163612285D01*
X81751714Y-163648571D01*
X81824285Y-163684857D01*
X82114571Y-163684857D01*
D10*
X82118200Y-164639171D02*
X81915000Y-165248771D01*
X81711800Y-164639171D01*
X82194400Y-166518771D02*
X82194400Y-165909171D01*
X82049257Y-165909171D01*
X81962171Y-165938200D01*
X81904114Y-165996257D01*
X81875085Y-166054314D01*
X81846057Y-166170428D01*
X81846057Y-166257514D01*
X81875085Y-166373628D01*
X81904114Y-166431685D01*
X81962171Y-166489742D01*
X82049257Y-166518771D01*
X82194400Y-166518771D01*
X81584800Y-166518771D02*
X81584800Y-165909171D01*
D11*
X79714900Y-176282333D02*
X79381566Y-176282333D01*
X79781566Y-176510904D02*
X79548233Y-175710904D01*
X79314900Y-176510904D01*
X79081566Y-176510904D02*
X79081566Y-175977571D01*
X79081566Y-176053761D02*
X79048233Y-176015666D01*
X78981566Y-175977571D01*
X78881566Y-175977571D01*
X78814900Y-176015666D01*
X78781566Y-176091857D01*
X78781566Y-176510904D01*
X78781566Y-176091857D02*
X78748233Y-176015666D01*
X78681566Y-175977571D01*
X78581566Y-175977571D01*
X78514900Y-176015666D01*
X78481566Y-176091857D01*
X78481566Y-176510904D01*
X78048233Y-176510904D02*
X78114900Y-176472809D01*
X78148233Y-176434714D01*
X78181566Y-176358523D01*
X78181566Y-176129952D01*
X78148233Y-176053761D01*
X78114900Y-176015666D01*
X78048233Y-175977571D01*
X77948233Y-175977571D01*
X77881566Y-176015666D01*
X77848233Y-176053761D01*
X77814900Y-176129952D01*
X77814900Y-176358523D01*
X77848233Y-176434714D01*
X77881566Y-176472809D01*
X77948233Y-176510904D01*
X78048233Y-176510904D01*
X77248233Y-176472809D02*
X77314900Y-176510904D01*
X77448233Y-176510904D01*
X77514900Y-176472809D01*
X77548233Y-176396619D01*
X77548233Y-176091857D01*
X77514900Y-176015666D01*
X77448233Y-175977571D01*
X77314900Y-175977571D01*
X77248233Y-176015666D01*
X77214900Y-176091857D01*
X77214900Y-176168047D01*
X77548233Y-176244238D01*
X76914900Y-176510904D02*
X76914900Y-175710904D01*
X76914900Y-176015666D02*
X76848233Y-175977571D01*
X76714900Y-175977571D01*
X76648233Y-176015666D01*
X76614900Y-176053761D01*
X76581566Y-176129952D01*
X76581566Y-176358523D01*
X76614900Y-176434714D01*
X76648233Y-176472809D01*
X76714900Y-176510904D01*
X76848233Y-176510904D01*
X76914900Y-176472809D01*
X75981566Y-176510904D02*
X75981566Y-176091857D01*
X76014900Y-176015666D01*
X76081566Y-175977571D01*
X76214900Y-175977571D01*
X76281566Y-176015666D01*
X75981566Y-176472809D02*
X76048233Y-176510904D01*
X76214900Y-176510904D01*
X76281566Y-176472809D01*
X76314900Y-176396619D01*
X76314900Y-176320428D01*
X76281566Y-176244238D01*
X76214900Y-176206142D01*
X76048233Y-176206142D01*
X75981566Y-176168047D01*
X83279333Y-175266304D02*
X83279333Y-174466304D01*
X82879333Y-175266304D02*
X83179333Y-174809161D01*
X82879333Y-174466304D02*
X83279333Y-174923447D01*
X82579333Y-175266304D02*
X82579333Y-174732971D01*
X82579333Y-174466304D02*
X82612666Y-174504400D01*
X82579333Y-174542495D01*
X82546000Y-174504400D01*
X82579333Y-174466304D01*
X82579333Y-174542495D01*
X82246000Y-174732971D02*
X82246000Y-175266304D01*
X82246000Y-174809161D02*
X82212666Y-174771066D01*
X82146000Y-174732971D01*
X82046000Y-174732971D01*
X81979333Y-174771066D01*
X81946000Y-174847257D01*
X81946000Y-175266304D01*
X81312666Y-174732971D02*
X81312666Y-175380590D01*
X81346000Y-175456780D01*
X81379333Y-175494876D01*
X81446000Y-175532971D01*
X81546000Y-175532971D01*
X81612666Y-175494876D01*
X81312666Y-175228209D02*
X81379333Y-175266304D01*
X81512666Y-175266304D01*
X81579333Y-175228209D01*
X81612666Y-175190114D01*
X81646000Y-175113923D01*
X81646000Y-174885352D01*
X81612666Y-174809161D01*
X81579333Y-174771066D01*
X81512666Y-174732971D01*
X81379333Y-174732971D01*
X81312666Y-174771066D01*
D13*
G36*
X77696060Y-165340030D02*
G01*
X77315060Y-165340030D01*
X77696060Y-164959030D01*
X77696060Y-165340030D01*
G37*
X77696060Y-165340030D02*
X77315060Y-165340030D01*
X77696060Y-164959030D01*
X77696060Y-165340030D01*
D11*
X76303000Y-171196000D02*
X70573000Y-171196000D01*
X77978000Y-169521000D02*
G75*
G02X76303000Y-171196000I-1675000J0D01*
G01*
X81573000Y-173736000D02*
G75*
G02X79898000Y-175411000I-1675000J0D01*
G01*
X79898000Y-175411000D02*
X70573000Y-175411000D01*
X70573000Y-175406000D02*
X70573000Y-171196000D01*
X81573000Y-173736000D02*
X81573000Y-169521000D01*
X81573000Y-169521000D02*
X77978000Y-169521000D01*
D14*
X70029200Y-169761800D02*
X67479200Y-169761800D01*
X70029200Y-171461800D02*
X67479200Y-171461800D01*
X70029200Y-169761800D02*
X70029200Y-171461800D01*
X77038000Y-162176000D02*
X73838000Y-162176000D01*
X73838000Y-162176000D02*
X73838000Y-164976000D01*
X73838000Y-164976000D02*
X77038000Y-164976000D01*
X77038000Y-164976000D02*
X77038000Y-162176000D01*
D11*
X69267295Y-169214180D02*
X69267295Y-168214180D01*
X69029200Y-168214180D01*
X68886342Y-168261800D01*
X68791104Y-168357038D01*
X68743485Y-168452276D01*
X68695866Y-168642752D01*
X68695866Y-168785609D01*
X68743485Y-168976085D01*
X68791104Y-169071323D01*
X68886342Y-169166561D01*
X69029200Y-169214180D01*
X69267295Y-169214180D01*
X67743485Y-169214180D02*
X68314914Y-169214180D01*
X68029200Y-169214180D02*
X68029200Y-168214180D01*
X68124438Y-168357038D01*
X68219676Y-168452276D01*
X68314914Y-168499895D01*
M02*
